G04 Layer_Color=8388736*
%FSLAX25Y25*%
%MOIN*%
G70*
G01*
G75*
G04:AMPARAMS|DCode=87|XSize=39.5mil|YSize=39.5mil|CornerRadius=7.94mil|HoleSize=0mil|Usage=FLASHONLY|Rotation=270.000|XOffset=0mil|YOffset=0mil|HoleType=Round|Shape=RoundedRectangle|*
%AMROUNDEDRECTD87*
21,1,0.03950,0.02362,0,0,270.0*
21,1,0.02362,0.03950,0,0,270.0*
1,1,0.01587,-0.01181,-0.01181*
1,1,0.01587,-0.01181,0.01181*
1,1,0.01587,0.01181,0.01181*
1,1,0.01587,0.01181,-0.01181*
%
%ADD87ROUNDEDRECTD87*%
G04:AMPARAMS|DCode=88|XSize=31.62mil|YSize=47.37mil|CornerRadius=6.95mil|HoleSize=0mil|Usage=FLASHONLY|Rotation=180.000|XOffset=0mil|YOffset=0mil|HoleType=Round|Shape=RoundedRectangle|*
%AMROUNDEDRECTD88*
21,1,0.03162,0.03347,0,0,180.0*
21,1,0.01772,0.04737,0,0,180.0*
1,1,0.01391,-0.00886,0.01673*
1,1,0.01391,0.00886,0.01673*
1,1,0.01391,0.00886,-0.01673*
1,1,0.01391,-0.00886,-0.01673*
%
%ADD88ROUNDEDRECTD88*%
G04:AMPARAMS|DCode=89|XSize=63.12mil|YSize=47.37mil|CornerRadius=8.92mil|HoleSize=0mil|Usage=FLASHONLY|Rotation=0.000|XOffset=0mil|YOffset=0mil|HoleType=Round|Shape=RoundedRectangle|*
%AMROUNDEDRECTD89*
21,1,0.06312,0.02953,0,0,0.0*
21,1,0.04528,0.04737,0,0,0.0*
1,1,0.01784,0.02264,-0.01476*
1,1,0.01784,-0.02264,-0.01476*
1,1,0.01784,-0.02264,0.01476*
1,1,0.01784,0.02264,0.01476*
%
%ADD89ROUNDEDRECTD89*%
G04:AMPARAMS|DCode=90|XSize=31.62mil|YSize=31.62mil|CornerRadius=6.36mil|HoleSize=0mil|Usage=FLASHONLY|Rotation=180.000|XOffset=0mil|YOffset=0mil|HoleType=Round|Shape=RoundedRectangle|*
%AMROUNDEDRECTD90*
21,1,0.03162,0.01890,0,0,180.0*
21,1,0.01890,0.03162,0,0,180.0*
1,1,0.01272,-0.00945,0.00945*
1,1,0.01272,0.00945,0.00945*
1,1,0.01272,0.00945,-0.00945*
1,1,0.01272,-0.00945,-0.00945*
%
%ADD90ROUNDEDRECTD90*%
G04:AMPARAMS|DCode=91|XSize=47.37mil|YSize=43.43mil|CornerRadius=8.43mil|HoleSize=0mil|Usage=FLASHONLY|Rotation=180.000|XOffset=0mil|YOffset=0mil|HoleType=Round|Shape=RoundedRectangle|*
%AMROUNDEDRECTD91*
21,1,0.04737,0.02657,0,0,180.0*
21,1,0.03051,0.04343,0,0,180.0*
1,1,0.01686,-0.01526,0.01329*
1,1,0.01686,0.01526,0.01329*
1,1,0.01686,0.01526,-0.01329*
1,1,0.01686,-0.01526,-0.01329*
%
%ADD91ROUNDEDRECTD91*%
G04:AMPARAMS|DCode=92|XSize=47.37mil|YSize=43.43mil|CornerRadius=8.43mil|HoleSize=0mil|Usage=FLASHONLY|Rotation=270.000|XOffset=0mil|YOffset=0mil|HoleType=Round|Shape=RoundedRectangle|*
%AMROUNDEDRECTD92*
21,1,0.04737,0.02657,0,0,270.0*
21,1,0.03051,0.04343,0,0,270.0*
1,1,0.01686,-0.01329,-0.01526*
1,1,0.01686,-0.01329,0.01526*
1,1,0.01686,0.01329,0.01526*
1,1,0.01686,0.01329,-0.01526*
%
%ADD92ROUNDEDRECTD92*%
G04:AMPARAMS|DCode=93|XSize=39.5mil|YSize=39.5mil|CornerRadius=7.94mil|HoleSize=0mil|Usage=FLASHONLY|Rotation=180.000|XOffset=0mil|YOffset=0mil|HoleType=Round|Shape=RoundedRectangle|*
%AMROUNDEDRECTD93*
21,1,0.03950,0.02362,0,0,180.0*
21,1,0.02362,0.03950,0,0,180.0*
1,1,0.01587,-0.01181,0.01181*
1,1,0.01587,0.01181,0.01181*
1,1,0.01587,0.01181,-0.01181*
1,1,0.01587,-0.01181,-0.01181*
%
%ADD93ROUNDEDRECTD93*%
G04:AMPARAMS|DCode=94|XSize=31.62mil|YSize=47.37mil|CornerRadius=6.95mil|HoleSize=0mil|Usage=FLASHONLY|Rotation=90.000|XOffset=0mil|YOffset=0mil|HoleType=Round|Shape=RoundedRectangle|*
%AMROUNDEDRECTD94*
21,1,0.03162,0.03347,0,0,90.0*
21,1,0.01772,0.04737,0,0,90.0*
1,1,0.01391,0.01673,0.00886*
1,1,0.01391,0.01673,-0.00886*
1,1,0.01391,-0.01673,-0.00886*
1,1,0.01391,-0.01673,0.00886*
%
%ADD94ROUNDEDRECTD94*%
G04:AMPARAMS|DCode=95|XSize=106.42mil|YSize=94.61mil|CornerRadius=14.83mil|HoleSize=0mil|Usage=FLASHONLY|Rotation=0.000|XOffset=0mil|YOffset=0mil|HoleType=Round|Shape=RoundedRectangle|*
%AMROUNDEDRECTD95*
21,1,0.10642,0.06496,0,0,0.0*
21,1,0.07677,0.09461,0,0,0.0*
1,1,0.02965,0.03839,-0.03248*
1,1,0.02965,-0.03839,-0.03248*
1,1,0.02965,-0.03839,0.03248*
1,1,0.02965,0.03839,0.03248*
%
%ADD95ROUNDEDRECTD95*%
%ADD96O,0.02762X0.08274*%
%ADD97R,0.12605X0.09849*%
%ADD98R,0.07500X0.09500*%
G04:AMPARAMS|DCode=99|XSize=78.87mil|YSize=59.18mil|CornerRadius=10.4mil|HoleSize=0mil|Usage=FLASHONLY|Rotation=90.000|XOffset=0mil|YOffset=0mil|HoleType=Round|Shape=RoundedRectangle|*
%AMROUNDEDRECTD99*
21,1,0.07887,0.03839,0,0,90.0*
21,1,0.05807,0.05918,0,0,90.0*
1,1,0.02080,0.01919,0.02904*
1,1,0.02080,0.01919,-0.02904*
1,1,0.02080,-0.01919,-0.02904*
1,1,0.02080,-0.01919,0.02904*
%
%ADD99ROUNDEDRECTD99*%
G04:AMPARAMS|DCode=100|XSize=31.62mil|YSize=31.62mil|CornerRadius=6.36mil|HoleSize=0mil|Usage=FLASHONLY|Rotation=90.000|XOffset=0mil|YOffset=0mil|HoleType=Round|Shape=RoundedRectangle|*
%AMROUNDEDRECTD100*
21,1,0.03162,0.01890,0,0,90.0*
21,1,0.01890,0.03162,0,0,90.0*
1,1,0.01272,0.00945,0.00945*
1,1,0.01272,0.00945,-0.00945*
1,1,0.01272,-0.00945,-0.00945*
1,1,0.01272,-0.00945,0.00945*
%
%ADD100ROUNDEDRECTD100*%
G04:AMPARAMS|DCode=101|XSize=59.18mil|YSize=39.5mil|CornerRadius=7.94mil|HoleSize=0mil|Usage=FLASHONLY|Rotation=90.000|XOffset=0mil|YOffset=0mil|HoleType=Round|Shape=RoundedRectangle|*
%AMROUNDEDRECTD101*
21,1,0.05918,0.02362,0,0,90.0*
21,1,0.04331,0.03950,0,0,90.0*
1,1,0.01587,0.01181,0.02165*
1,1,0.01587,0.01181,-0.02165*
1,1,0.01587,-0.01181,-0.02165*
1,1,0.01587,-0.01181,0.02165*
%
%ADD101ROUNDEDRECTD101*%
%ADD102R,0.11400X0.05200*%
%ADD103R,0.42060X0.26540*%
%ADD104R,0.03950X0.18713*%
%ADD105O,0.07099X0.03162*%
%ADD106R,0.14186X0.04343*%
G04:AMPARAMS|DCode=107|XSize=59.18mil|YSize=39.5mil|CornerRadius=7.94mil|HoleSize=0mil|Usage=FLASHONLY|Rotation=180.000|XOffset=0mil|YOffset=0mil|HoleType=Round|Shape=RoundedRectangle|*
%AMROUNDEDRECTD107*
21,1,0.05918,0.02362,0,0,180.0*
21,1,0.04331,0.03950,0,0,180.0*
1,1,0.01587,-0.02165,0.01181*
1,1,0.01587,0.02165,0.01181*
1,1,0.01587,0.02165,-0.01181*
1,1,0.01587,-0.02165,-0.01181*
%
%ADD107ROUNDEDRECTD107*%
G04:AMPARAMS|DCode=108|XSize=78.87mil|YSize=53.28mil|CornerRadius=9.66mil|HoleSize=0mil|Usage=FLASHONLY|Rotation=0.000|XOffset=0mil|YOffset=0mil|HoleType=Round|Shape=RoundedRectangle|*
%AMROUNDEDRECTD108*
21,1,0.07887,0.03396,0,0,0.0*
21,1,0.05955,0.05328,0,0,0.0*
1,1,0.01932,0.02977,-0.01698*
1,1,0.01932,-0.02977,-0.01698*
1,1,0.01932,-0.02977,0.01698*
1,1,0.01932,0.02977,0.01698*
%
%ADD108ROUNDEDRECTD108*%
G04:AMPARAMS|DCode=109|XSize=78.87mil|YSize=53.28mil|CornerRadius=9.66mil|HoleSize=0mil|Usage=FLASHONLY|Rotation=270.000|XOffset=0mil|YOffset=0mil|HoleType=Round|Shape=RoundedRectangle|*
%AMROUNDEDRECTD109*
21,1,0.07887,0.03396,0,0,270.0*
21,1,0.05955,0.05328,0,0,270.0*
1,1,0.01932,-0.01698,-0.02977*
1,1,0.01932,-0.01698,0.02977*
1,1,0.01932,0.01698,0.02977*
1,1,0.01932,0.01698,-0.02977*
%
%ADD109ROUNDEDRECTD109*%
%ADD110O,0.01981X0.07887*%
%ADD111O,0.07887X0.01981*%
G04:AMPARAMS|DCode=112|XSize=126.11mil|YSize=106.42mil|CornerRadius=28.61mil|HoleSize=0mil|Usage=FLASHONLY|Rotation=90.000|XOffset=0mil|YOffset=0mil|HoleType=Round|Shape=RoundedRectangle|*
%AMROUNDEDRECTD112*
21,1,0.12611,0.04921,0,0,90.0*
21,1,0.06890,0.10642,0,0,90.0*
1,1,0.05721,0.02461,0.03445*
1,1,0.05721,0.02461,-0.03445*
1,1,0.05721,-0.02461,-0.03445*
1,1,0.05721,-0.02461,0.03445*
%
%ADD112ROUNDEDRECTD112*%
G04:AMPARAMS|DCode=113|XSize=70.99mil|YSize=55.24mil|CornerRadius=15.81mil|HoleSize=0mil|Usage=FLASHONLY|Rotation=270.000|XOffset=0mil|YOffset=0mil|HoleType=Round|Shape=RoundedRectangle|*
%AMROUNDEDRECTD113*
21,1,0.07099,0.02362,0,0,270.0*
21,1,0.03937,0.05524,0,0,270.0*
1,1,0.03162,-0.01181,-0.01968*
1,1,0.03162,-0.01181,0.01968*
1,1,0.03162,0.01181,0.01968*
1,1,0.03162,0.01181,-0.01968*
%
%ADD113ROUNDEDRECTD113*%
%ADD114R,0.06076X0.04737*%
%ADD115R,0.26540X0.42060*%
%ADD116R,0.18713X0.03950*%
%ADD117R,0.04737X0.06076*%
G04:AMPARAMS|DCode=118|XSize=63.12mil|YSize=47.37mil|CornerRadius=8.92mil|HoleSize=0mil|Usage=FLASHONLY|Rotation=90.000|XOffset=0mil|YOffset=0mil|HoleType=Round|Shape=RoundedRectangle|*
%AMROUNDEDRECTD118*
21,1,0.06312,0.02953,0,0,90.0*
21,1,0.04528,0.04737,0,0,90.0*
1,1,0.01784,0.01476,0.02264*
1,1,0.01784,0.01476,-0.02264*
1,1,0.01784,-0.01476,-0.02264*
1,1,0.01784,-0.01476,0.02264*
%
%ADD118ROUNDEDRECTD118*%
G04:AMPARAMS|DCode=119|XSize=55.24mil|YSize=61.15mil|CornerRadius=9.9mil|HoleSize=0mil|Usage=FLASHONLY|Rotation=180.000|XOffset=0mil|YOffset=0mil|HoleType=Round|Shape=RoundedRectangle|*
%AMROUNDEDRECTD119*
21,1,0.05524,0.04134,0,0,180.0*
21,1,0.03543,0.06115,0,0,180.0*
1,1,0.01981,-0.01772,0.02067*
1,1,0.01981,0.01772,0.02067*
1,1,0.01981,0.01772,-0.02067*
1,1,0.01981,-0.01772,-0.02067*
%
%ADD119ROUNDEDRECTD119*%
G04:AMPARAMS|DCode=120|XSize=117.65mil|YSize=63.12mil|CornerRadius=17.78mil|HoleSize=0mil|Usage=FLASHONLY|Rotation=0.000|XOffset=0mil|YOffset=0mil|HoleType=Round|Shape=RoundedRectangle|*
%AMROUNDEDRECTD120*
21,1,0.11765,0.02756,0,0,0.0*
21,1,0.08209,0.06312,0,0,0.0*
1,1,0.03556,0.04104,-0.01378*
1,1,0.03556,-0.04104,-0.01378*
1,1,0.03556,-0.04104,0.01378*
1,1,0.03556,0.04104,0.01378*
%
%ADD120ROUNDEDRECTD120*%
%ADD121R,0.07887X0.14579*%
%ADD122R,0.14579X0.07887*%
G04:AMPARAMS|DCode=123|XSize=104.46mil|YSize=108.39mil|CornerRadius=13.65mil|HoleSize=0mil|Usage=FLASHONLY|Rotation=90.000|XOffset=0mil|YOffset=0mil|HoleType=Round|Shape=RoundedRectangle|*
%AMROUNDEDRECTD123*
21,1,0.10446,0.08110,0,0,90.0*
21,1,0.07717,0.10839,0,0,90.0*
1,1,0.02729,0.04055,0.03858*
1,1,0.02729,0.04055,-0.03858*
1,1,0.02729,-0.04055,-0.03858*
1,1,0.02729,-0.04055,0.03858*
%
%ADD123ROUNDEDRECTD123*%
%ADD124C,0.06706*%
%ADD125R,0.06706X0.06706*%
%ADD126C,0.06800*%
%ADD127O,0.18516X0.14579*%
%ADD128C,0.07493*%
%ADD129O,0.20485X0.14579*%
%ADD130O,0.14579X0.20485*%
%ADD131C,0.45370*%
%ADD132C,0.34000*%
%ADD133O,0.07099X0.05524*%
D87*
X187600Y25500D02*
D03*
Y32193D02*
D03*
X67900Y302522D02*
D03*
Y309215D02*
D03*
X67700Y271800D02*
D03*
Y278493D02*
D03*
X70000Y115500D02*
D03*
Y122193D02*
D03*
X69800Y78400D02*
D03*
Y85093D02*
D03*
X109400Y76800D02*
D03*
Y83493D02*
D03*
X266600Y28993D02*
D03*
Y22300D02*
D03*
X287000Y45563D02*
D03*
Y38870D02*
D03*
X267700Y158900D02*
D03*
Y152207D02*
D03*
X288100Y175470D02*
D03*
Y168777D02*
D03*
X267249Y289647D02*
D03*
Y282954D02*
D03*
X287649Y306217D02*
D03*
Y299524D02*
D03*
X234600Y25354D02*
D03*
Y32046D02*
D03*
X180600Y25354D02*
D03*
Y32046D02*
D03*
X134200Y24854D02*
D03*
Y31547D02*
D03*
X139900Y148347D02*
D03*
Y154253D02*
D03*
D88*
X134340Y102528D02*
D03*
X126860D02*
D03*
X130600Y93472D02*
D03*
X83700Y303950D02*
D03*
X87440Y294895D02*
D03*
X79960D02*
D03*
X83500Y273228D02*
D03*
X87240Y264172D02*
D03*
X79760D02*
D03*
X85800Y116928D02*
D03*
X89540Y107872D02*
D03*
X82060D02*
D03*
X85600Y79828D02*
D03*
X89340Y70772D02*
D03*
X81860D02*
D03*
X125200Y78228D02*
D03*
X128940Y69172D02*
D03*
X121460D02*
D03*
X298372Y61489D02*
D03*
X290891D02*
D03*
X294632Y52434D02*
D03*
X273840Y45174D02*
D03*
X266360D02*
D03*
X270100Y36119D02*
D03*
X299472Y191396D02*
D03*
X291991D02*
D03*
X295731Y182341D02*
D03*
X274940Y175081D02*
D03*
X267460D02*
D03*
X271200Y166026D02*
D03*
X299021Y322143D02*
D03*
X291540D02*
D03*
X295280Y313087D02*
D03*
X274489Y305828D02*
D03*
X267009D02*
D03*
X270749Y296772D02*
D03*
X106040Y116728D02*
D03*
X98560D02*
D03*
X102300Y107672D02*
D03*
D89*
X176200Y318013D02*
D03*
Y325100D02*
D03*
X268080Y229643D02*
D03*
Y222557D02*
D03*
X267100Y99543D02*
D03*
Y92457D02*
D03*
D90*
X178700Y354900D02*
D03*
Y350963D02*
D03*
X178500Y336469D02*
D03*
Y332531D02*
D03*
D91*
X56100Y309115D02*
D03*
Y302422D02*
D03*
X67900Y289222D02*
D03*
Y295915D02*
D03*
X56100Y289222D02*
D03*
Y295915D02*
D03*
X55900Y278393D02*
D03*
Y271700D02*
D03*
X67700Y258500D02*
D03*
Y265193D02*
D03*
X55900Y258500D02*
D03*
Y265193D02*
D03*
X58200Y122093D02*
D03*
Y115400D02*
D03*
X70000Y102200D02*
D03*
Y108893D02*
D03*
X58200Y102200D02*
D03*
Y108893D02*
D03*
X58000Y84993D02*
D03*
Y78300D02*
D03*
X69800Y65100D02*
D03*
Y71793D02*
D03*
X58000Y65100D02*
D03*
Y71793D02*
D03*
X97600Y83393D02*
D03*
Y76700D02*
D03*
X109400Y63500D02*
D03*
Y70193D02*
D03*
X97600Y63500D02*
D03*
Y70193D02*
D03*
X162600Y325346D02*
D03*
Y318653D02*
D03*
X273300Y22300D02*
D03*
Y28993D02*
D03*
X293500Y38870D02*
D03*
Y45563D02*
D03*
X294600Y168777D02*
D03*
Y175470D02*
D03*
X274400Y152207D02*
D03*
Y158900D02*
D03*
X294149Y299524D02*
D03*
Y306217D02*
D03*
X273949Y282954D02*
D03*
Y289647D02*
D03*
X185900Y122146D02*
D03*
Y115454D02*
D03*
X179819Y122247D02*
D03*
Y115553D02*
D03*
X173702Y115454D02*
D03*
Y122146D02*
D03*
X172500Y305646D02*
D03*
Y298954D02*
D03*
X166300D02*
D03*
Y305646D02*
D03*
X178700Y305546D02*
D03*
Y298853D02*
D03*
X338349Y417846D02*
D03*
Y411154D02*
D03*
X326849D02*
D03*
Y417846D02*
D03*
X350849Y417846D02*
D03*
Y411154D02*
D03*
X234600Y38353D02*
D03*
Y45046D02*
D03*
X150200Y161646D02*
D03*
Y154954D02*
D03*
X141800Y225954D02*
D03*
Y232646D02*
D03*
X133600Y154647D02*
D03*
Y147953D02*
D03*
X47900Y369153D02*
D03*
Y375847D02*
D03*
X113700Y110170D02*
D03*
Y103477D02*
D03*
D92*
X145707Y63000D02*
D03*
X152400D02*
D03*
X165600Y74800D02*
D03*
X158907D02*
D03*
X165600Y63000D02*
D03*
X158907D02*
D03*
X176285Y62900D02*
D03*
X182978D02*
D03*
X196178Y74700D02*
D03*
X189485D02*
D03*
X196178Y62900D02*
D03*
X189485D02*
D03*
X206607Y62600D02*
D03*
X213300D02*
D03*
X226500Y74400D02*
D03*
X219807D02*
D03*
X226500Y62600D02*
D03*
X219807D02*
D03*
X109853Y123300D02*
D03*
X116546D02*
D03*
X66246Y159875D02*
D03*
X59553D02*
D03*
X58953Y188900D02*
D03*
X65646D02*
D03*
X58854Y175600D02*
D03*
X65547D02*
D03*
X179353Y188400D02*
D03*
X186047D02*
D03*
X186354Y154600D02*
D03*
X193046D02*
D03*
Y148595D02*
D03*
X186354D02*
D03*
X58891Y201600D02*
D03*
X65584D02*
D03*
X58892Y208000D02*
D03*
X65585D02*
D03*
X65584Y214200D02*
D03*
X58891D02*
D03*
X199453Y171200D02*
D03*
X206147D02*
D03*
X106400Y341700D02*
D03*
X99707D02*
D03*
X106300Y335400D02*
D03*
X99607D02*
D03*
D93*
X152300Y74800D02*
D03*
X145607D02*
D03*
X182878Y74700D02*
D03*
X176185D02*
D03*
X213200Y74400D02*
D03*
X206507D02*
D03*
X143793Y325700D02*
D03*
X137100D02*
D03*
X66300Y166700D02*
D03*
X59607D02*
D03*
X65893Y195100D02*
D03*
X59200D02*
D03*
X65900Y181900D02*
D03*
X59207D02*
D03*
D94*
X150872Y90600D02*
D03*
X159928Y94340D02*
D03*
Y86860D02*
D03*
X181450Y90500D02*
D03*
X190506Y94240D02*
D03*
Y86760D02*
D03*
X211772Y90200D02*
D03*
X220828Y93940D02*
D03*
Y86460D02*
D03*
X248128Y7360D02*
D03*
Y14840D02*
D03*
X239072Y11100D02*
D03*
X95928Y156860D02*
D03*
Y164340D02*
D03*
X86872Y160600D02*
D03*
X92728Y199260D02*
D03*
Y206740D02*
D03*
X83672Y203000D02*
D03*
X96028Y171260D02*
D03*
Y178740D02*
D03*
X86972Y175000D02*
D03*
D95*
X278300Y346800D02*
D03*
X297198D02*
D03*
X278751Y216054D02*
D03*
X297649D02*
D03*
X277651Y86146D02*
D03*
X296549D02*
D03*
D96*
X172500Y352743D02*
D03*
X167500D02*
D03*
X162500D02*
D03*
X157500D02*
D03*
Y333057D02*
D03*
X162500D02*
D03*
X167500D02*
D03*
X172500D02*
D03*
D97*
X165000Y342900D02*
D03*
D98*
X135700Y377400D02*
D03*
X159700D02*
D03*
D99*
X137391Y338900D02*
D03*
X148809D02*
D03*
D100*
X136331Y331500D02*
D03*
X140269D02*
D03*
X139669Y351700D02*
D03*
X135731D02*
D03*
X150669Y351695D02*
D03*
X146731D02*
D03*
X270069Y51147D02*
D03*
X266131D02*
D03*
X294568Y67461D02*
D03*
X290632D02*
D03*
X295669Y197369D02*
D03*
X291732D02*
D03*
X271168Y181053D02*
D03*
X267231D02*
D03*
X295217Y328115D02*
D03*
X291280D02*
D03*
X270717Y311800D02*
D03*
X266780D02*
D03*
X252037Y20700D02*
D03*
X248100D02*
D03*
X129668Y108300D02*
D03*
X125732D02*
D03*
X108268Y156500D02*
D03*
X104332D02*
D03*
X84531Y189053D02*
D03*
X88468D02*
D03*
X107919Y170400D02*
D03*
X103981D02*
D03*
D101*
X135363Y358800D02*
D03*
X143237D02*
D03*
X361663Y37272D02*
D03*
X369537D02*
D03*
X362763Y167179D02*
D03*
X370637D02*
D03*
X362312Y297925D02*
D03*
X370186D02*
D03*
X310226Y79146D02*
D03*
X318100D02*
D03*
X311326Y209053D02*
D03*
X319200D02*
D03*
X310875Y339800D02*
D03*
X318749D02*
D03*
X219537Y154500D02*
D03*
X211663D02*
D03*
X206337D02*
D03*
X198463D02*
D03*
D102*
X184000Y379400D02*
D03*
Y367600D02*
D03*
X171300Y379400D02*
D03*
Y367600D02*
D03*
D103*
X399600Y79284D02*
D03*
X400700Y209191D02*
D03*
X400249Y339938D02*
D03*
D104*
X414600Y32237D02*
D03*
X409600D02*
D03*
X404600D02*
D03*
X399600D02*
D03*
X394600D02*
D03*
X389600D02*
D03*
X384600D02*
D03*
X415700Y162144D02*
D03*
X410700D02*
D03*
X405700D02*
D03*
X400700D02*
D03*
X395700D02*
D03*
X390700D02*
D03*
X385700D02*
D03*
X415249Y292891D02*
D03*
X410249D02*
D03*
X405249D02*
D03*
X400249D02*
D03*
X395249D02*
D03*
X390249D02*
D03*
X385249D02*
D03*
D105*
X355553Y54146D02*
D03*
Y59146D02*
D03*
Y64147D02*
D03*
Y69147D02*
D03*
X334293Y54146D02*
D03*
Y59146D02*
D03*
Y64147D02*
D03*
Y69147D02*
D03*
X356653Y184054D02*
D03*
Y189053D02*
D03*
Y194053D02*
D03*
Y199054D02*
D03*
X335393Y184054D02*
D03*
Y189053D02*
D03*
Y194053D02*
D03*
Y199054D02*
D03*
X356202Y314800D02*
D03*
Y319800D02*
D03*
Y324800D02*
D03*
Y329800D02*
D03*
X334942Y314800D02*
D03*
Y319800D02*
D03*
Y324800D02*
D03*
Y329800D02*
D03*
D106*
X332600Y84406D02*
D03*
Y79091D02*
D03*
X349100Y84406D02*
D03*
Y79091D02*
D03*
X333700Y214313D02*
D03*
Y208998D02*
D03*
X350200Y214313D02*
D03*
Y208998D02*
D03*
X333249Y345060D02*
D03*
Y339745D02*
D03*
X349749Y345060D02*
D03*
Y339745D02*
D03*
D107*
X372423Y81209D02*
D03*
Y89083D02*
D03*
X373523Y211117D02*
D03*
Y218991D02*
D03*
X373072Y341863D02*
D03*
Y349737D02*
D03*
X363200Y211117D02*
D03*
Y218991D02*
D03*
X362749Y341863D02*
D03*
Y349737D02*
D03*
X362100Y81209D02*
D03*
Y89083D02*
D03*
X200200Y122337D02*
D03*
Y114463D02*
D03*
X192700Y122337D02*
D03*
Y114463D02*
D03*
X192800Y306137D02*
D03*
Y298263D02*
D03*
X185500Y306137D02*
D03*
Y298263D02*
D03*
X377849Y418437D02*
D03*
Y410563D02*
D03*
X363849Y418437D02*
D03*
Y410563D02*
D03*
D108*
X267100Y86206D02*
D03*
Y74395D02*
D03*
X268200Y216113D02*
D03*
Y204302D02*
D03*
D109*
X355306Y46300D02*
D03*
X343495D02*
D03*
X356405Y176207D02*
D03*
X344595D02*
D03*
X355954Y306954D02*
D03*
X344143D02*
D03*
X263995Y331600D02*
D03*
X275805D02*
D03*
D110*
X140310Y215850D02*
D03*
X142279D02*
D03*
X144247D02*
D03*
X146216D02*
D03*
X148184D02*
D03*
X150153D02*
D03*
X152121D02*
D03*
X154090D02*
D03*
X156058D02*
D03*
X158027D02*
D03*
X159995D02*
D03*
X161964D02*
D03*
X154090Y172150D02*
D03*
X152121D02*
D03*
X150153D02*
D03*
X148184D02*
D03*
X146216D02*
D03*
X144247D02*
D03*
X142279D02*
D03*
X140310D02*
D03*
X138342D02*
D03*
X136373D02*
D03*
X134405D02*
D03*
X132436D02*
D03*
X156058D02*
D03*
X158027D02*
D03*
X159995D02*
D03*
X161964D02*
D03*
X138342Y215850D02*
D03*
X136373D02*
D03*
X134405D02*
D03*
X132436D02*
D03*
D111*
X169050Y200890D02*
D03*
Y198921D02*
D03*
Y196953D02*
D03*
Y194984D02*
D03*
Y193016D02*
D03*
Y191047D02*
D03*
Y189079D02*
D03*
Y187110D02*
D03*
Y185142D02*
D03*
Y183173D02*
D03*
Y181205D02*
D03*
Y179236D02*
D03*
X125350Y187110D02*
D03*
Y189079D02*
D03*
Y191047D02*
D03*
Y193016D02*
D03*
Y194984D02*
D03*
Y196953D02*
D03*
Y198921D02*
D03*
Y200890D02*
D03*
Y202858D02*
D03*
Y204827D02*
D03*
Y206795D02*
D03*
Y208764D02*
D03*
Y185142D02*
D03*
Y183173D02*
D03*
Y181205D02*
D03*
Y179236D02*
D03*
X169050Y202858D02*
D03*
Y204827D02*
D03*
Y206795D02*
D03*
Y208764D02*
D03*
D112*
X450336Y104647D02*
D03*
X429864D02*
D03*
X451436Y234554D02*
D03*
X430964D02*
D03*
X450985Y365300D02*
D03*
X430513D02*
D03*
D113*
X432817Y118820D02*
D03*
X440100D02*
D03*
X447383D02*
D03*
Y90473D02*
D03*
X440100D02*
D03*
X432817D02*
D03*
X433917Y248727D02*
D03*
X441200D02*
D03*
X448484D02*
D03*
Y220380D02*
D03*
X441200D02*
D03*
X433917D02*
D03*
X433465Y379473D02*
D03*
X440749D02*
D03*
X448032D02*
D03*
Y351127D02*
D03*
X440749D02*
D03*
X433465D02*
D03*
D114*
X207691Y115800D02*
D03*
X219109D02*
D03*
X385640Y418500D02*
D03*
X397058D02*
D03*
D115*
X337628Y114812D02*
D03*
X338728Y244719D02*
D03*
X338276Y375465D02*
D03*
D116*
X384675Y129812D02*
D03*
Y124812D02*
D03*
Y119812D02*
D03*
Y114812D02*
D03*
Y109812D02*
D03*
Y104812D02*
D03*
Y99812D02*
D03*
X385775Y259719D02*
D03*
Y254719D02*
D03*
Y249719D02*
D03*
Y244719D02*
D03*
Y239719D02*
D03*
Y234719D02*
D03*
Y229719D02*
D03*
X385324Y390465D02*
D03*
Y385465D02*
D03*
Y380465D02*
D03*
Y375465D02*
D03*
Y370465D02*
D03*
Y365465D02*
D03*
Y360465D02*
D03*
D117*
X201200Y308409D02*
D03*
Y296991D02*
D03*
D118*
X356043Y151700D02*
D03*
X348957D02*
D03*
X257857Y343300D02*
D03*
X264943D02*
D03*
X349943Y283400D02*
D03*
X342857D02*
D03*
X353297Y22300D02*
D03*
X346210D02*
D03*
D119*
X149400Y235402D02*
D03*
Y227922D02*
D03*
D120*
X61178Y222642D02*
D03*
X80134D02*
D03*
Y240358D02*
D03*
X61178D02*
D03*
D121*
X155900Y299346D02*
D03*
X210200Y136100D02*
D03*
X216800Y174900D02*
D03*
D122*
X95000Y132100D02*
D03*
X97700Y147000D02*
D03*
X205900Y204700D02*
D03*
X200500Y224600D02*
D03*
X135300Y418700D02*
D03*
X310800Y420100D02*
D03*
X105600Y243000D02*
D03*
X103400Y259484D02*
D03*
D123*
X159009Y402400D02*
D03*
X135191D02*
D03*
D124*
X117800Y419900D02*
D03*
X107800D02*
D03*
X97800D02*
D03*
X87800D02*
D03*
X77800D02*
D03*
D125*
X67800D02*
D03*
D126*
X59530Y395398D02*
D03*
Y380635D02*
D03*
Y365871D02*
D03*
X431410Y146710D02*
D03*
X313300Y28600D02*
D03*
X432510Y276617D02*
D03*
X314400Y158507D02*
D03*
X432059Y407364D02*
D03*
X313949Y289253D02*
D03*
D127*
X98900Y357800D02*
D03*
X99130Y403469D02*
D03*
D128*
X114096Y28089D02*
D03*
X94411D02*
D03*
Y51711D02*
D03*
X114096D02*
D03*
X167585Y27978D02*
D03*
X147900D02*
D03*
Y51600D02*
D03*
X167585D02*
D03*
X221096Y28089D02*
D03*
X201411D02*
D03*
Y51711D02*
D03*
X221096D02*
D03*
X20589Y273404D02*
D03*
Y293089D02*
D03*
X44211D02*
D03*
Y273404D02*
D03*
X20589Y223404D02*
D03*
Y243089D02*
D03*
X44211D02*
D03*
Y223404D02*
D03*
X20689Y173304D02*
D03*
Y192989D02*
D03*
X44311D02*
D03*
Y173304D02*
D03*
X20689Y122804D02*
D03*
Y142489D02*
D03*
X44311D02*
D03*
Y122804D02*
D03*
X20689Y72404D02*
D03*
Y92089D02*
D03*
X44311D02*
D03*
Y72404D02*
D03*
D129*
X485000Y197320D02*
D03*
Y272280D02*
D03*
Y234800D02*
D03*
D130*
X235320Y406200D02*
D03*
X197839D02*
D03*
X272800D02*
D03*
D131*
X25000Y25000D02*
D03*
Y403600D02*
D03*
X480600D02*
D03*
Y25000D02*
D03*
D132*
X186200Y252000D02*
D03*
D133*
X40700Y336000D02*
D03*
Y328126D02*
D03*
Y343874D02*
D03*
X10300Y336400D02*
D03*
Y328526D02*
D03*
Y344274D02*
D03*
X73000Y335800D02*
D03*
Y327926D02*
D03*
Y343674D02*
D03*
M02*
