M48
;Layer_Color=9474304
;FILE_FORMAT=2:5
INCH
;TYPE=PLATED
T1F00S00C0.01200
T2F00S00C0.01400
T3F00S00C0.02000
T4F00S00C0.02500
T5F00S00C0.02756
T6F00S00C0.02800
T7F00S00C0.03543
T8F00S00C0.03937
T9F00S00C0.05118
T10F00S00C0.11811
T11F00S00C0.17717
;TYPE=NON_PLATED
T12F00S00C0.12500
%
T01
X0142154Y0037400
X0148846
X0164200Y0037700
X0171100
X0174200Y0055400
X0196700Y0043691
Y0036779
X0248128Y0011372
X0355553Y0059146
X0356653Y0189053
X0198200Y0176900
X0195600Y0166900
X0187950Y0173800
X0182100Y0169700
X0179000Y0193400
X0180900Y0201100
X0185200Y0216900
X0186600Y0222100
X0166100Y0213900
X0155000Y0209400
X0153100Y0206900
Y0203800
X0161700Y0197000
X0136000Y0197900
X0134700Y0202123
X0132800Y0191500
X0115400Y0189500
X0115100Y0185800
X0113400Y0181000
X0110100Y0189500
X0099400Y0190000
X0097300Y0186200
X0096028Y0175672
X0095928Y0160828
X0111200Y0160500
X0116900Y0161000
X0114300Y0155400
X0109800Y0149900
Y0146200
X0106500Y0152300
X0118500Y0147000
X0121500Y0149700
X0127400Y0155700
X0133600Y0147953
X0139900Y0148347
X0147700Y0148400
X0150800Y0143800
X0154877Y0141100
X0161200Y0143900
X0164400Y0145000
X0167500Y0147900
X0160600Y0147953
X0163100Y0155600
X0163700Y0139700
X0164900Y0134538
X0159800Y0132100
X0143600Y0131600
X0140727Y0133900
X0134400Y0137400
X0132400Y0141100
X0130800Y0127100
X0133200Y0125100
X0134100Y0119000
X0137200Y0118600
X0140300Y0119700
X0140900Y0116600
X0144900Y0114500
X0148000Y0111600
X0154700Y0113400
X0151127Y0117900
X0166600Y0109300
X0170400Y0138900
X0219609Y0139313
X0124698Y0127300
X0120800Y0129000
X0117136Y0132800
X0116546Y0123300
X0097200Y0125200
X0098560Y0116728
X0102300Y0102300
X0107900Y0095000
X0107600Y0088200
X0130372Y0102528
X0112000Y0166319
X0114900Y0198900
X0114509Y0202700
X0115100Y0205800
X0116900Y0209000
X0108800
X0107100Y0203400
X0108300Y0200000
X0099400Y0197100
X0092728Y0203472
X0106258Y0222642
X0111100Y0227100
X0114700Y0225000
X0117500Y0228600
X0128200Y0236400
X0131200Y0234000
X0133700Y0232100
X0126600Y0218200
X0124100Y0215600
X0080222Y0184722
X0053300Y0186200
X0016600Y0318600
X0024500Y0328526
X0081500Y0337400
X0110800Y0335700
Y0341700
X0125100Y0341863
X0125400Y0335400
X0125000Y0305000
X0112700Y0305700
X0111600Y0301000
Y0287900
X0112100Y0284700
X0109500Y0282000
X0106400Y0279500
X0105300Y0285600
X0105200Y0290800
X0111800Y0275200
X0113100Y0271000
X0113300Y0267000
X0132650Y0268000
X0130950Y0272000
X0141300Y0275800
X0142100Y0280700
Y0284400
X0141900Y0287500
X0141700Y0291600
X0141300Y0295300
X0142900Y0298700
X0140679Y0305100
X0136300Y0293700
X0136500Y0290000
X0140200Y0253400
X0134400Y0245300
X0135700Y0241400
X0138400Y0239300
X0124900Y0239100
X0149600Y0325700
X0150669Y0358068
X0159600Y0359800
X0183600
X0125250Y0373050
X0116350
X0356202Y0319800
X0113900Y0399400
X0117700Y0404400
T02
X0263600Y0060238
X0148200Y0180000
X0138342Y0180136
X0119100Y0192300
X0102300Y0184596
T03
X0089340Y0065860
X0128940Y0064260
X0140700Y0063000
X0171278Y0062900
X0201600Y0062600
X0247500Y0063300
X0246900Y0057500
X0247400Y0070000
X0257400Y0069400
Y0063300
X0256900Y0057500
X0261574Y0045174
X0267100Y0074395
X0286711Y0061489
X0328547Y0059146
X0325800Y0056400
X0334293Y0059146
X0346900Y0062000
X0349753Y0059146
X0355500Y0048300
X0355400Y0044300
X0343400
X0343300Y0048200
X0348400Y0032600
X0353297Y0022300
X0362100Y0076446
Y0081209
X0429400Y0129200
X0356043Y0151700
X0346293Y0159300
X0349500Y0162507
X0344500Y0174207
X0344400Y0178107
X0356600Y0178207
X0356500Y0174207
X0350853Y0189053
X0348000Y0191907
X0335393Y0189053
X0329646
X0326900Y0186307
X0328800Y0214353
X0333700Y0214313
X0338500
X0345300Y0214353
X0350200Y0214313
X0354900
X0363200Y0211117
Y0206353
X0287811Y0191396
X0263700Y0189000
X0259207Y0186100
X0258993Y0195507
X0268200Y0204302
X0268080Y0229643
X0258800Y0226600
X0254300
X0249900Y0227100
X0262674Y0175081
X0263000Y0141500
X0263300Y0134274
X0258669Y0134269
X0254347Y0134300
X0253500Y0100200
X0253600Y0095700
X0258993Y0100000
X0267100Y0099543
X0327700Y0084447
X0332600Y0084406
X0337400
X0344200Y0084447
X0349100Y0084406
X0353800
X0220700Y0090400
X0195418Y0094240
X0192700Y0114463
X0200200
X0185900Y0115454
X0173702Y0122146
X0164840Y0094340
X0113700Y0103477
X0097600Y0088400
X0150200Y0154954
X0186354Y0154600
Y0148595
X0186047Y0188400
X0217100Y0190900
X0217300Y0195646
X0217600Y0185900
X0206147Y0171200
X0149400Y0235402
X0141800Y0232646
X0058891Y0214200
X0058200Y0127100
X0058000Y0090000
X0089540Y0102960
X0080134Y0240358
X0061178
X0087240Y0259260
X0087440Y0289982
X0055900Y0283400
X0056100Y0314122
X0047900Y0375847
X0161200Y0345400
X0161400Y0340500
X0169050Y0340400
X0168900Y0345600
X0162600Y0318653
X0176200Y0318013
X0178700Y0298853
X0185500Y0298263
X0192800
X0196100Y0323100
X0201800Y0327200
X0201200Y0332805
X0201400Y0336855
X0201200Y0340705
X0201800Y0318500
X0166300Y0305646
X0201000Y0270200
X0197400Y0380600
X0188400Y0393400
X0257857Y0343300
X0254600Y0335000
X0251000
Y0330600
X0256447Y0326254
Y0322000
X0257300Y0317000
X0262223Y0305828
X0275700Y0295900
X0284300Y0312000
X0287360Y0322143
X0275805Y0331600
X0326449Y0317054
X0329195Y0319800
X0334942
X0347549Y0322654
X0350402Y0319800
X0356049Y0308751
Y0304954
X0344049
X0343949Y0308854
X0344754Y0293253
X0349049
X0349943Y0283400
X0349749Y0345060
X0354449
X0344849Y0345100
X0338049Y0345060
X0333249
X0328349Y0345100
X0362749Y0341863
Y0337100
X0267000Y0270000
X0255900Y0266200
X0253593Y0261600
X0259000Y0261500
X0430964Y0258600
X0429300Y0388300
X0377849Y0410563
X0363849
X0350849Y0411154
X0326849Y0417846
T04
X0380000Y0010900
X0385000
X0390000
X0395000
X0400000
X0397500Y0015900
X0392500
X0387500
X0382500
X0390000Y0020900
X0395000
X0400000
X0397500Y0025900
X0392500
X0390000Y0030900
X0395000
X0400000
X0397500Y0035900
X0392500
X0402500
Y0025900
Y0015900
X0404000Y0045900
X0396000
X0388000
X0392000Y0053900
X0400000
X0404000Y0061900
X0396000
X0388000
X0392000Y0069900
X0400000
X0404000Y0077900
X0396000
X0388000
X0384000Y0069900
Y0053900
X0408000
X0416000
X0412000Y0061900
X0416000Y0069900
X0408000
X0412000Y0077900
Y0045900
X0412500Y0035900
X0407500
X0405000Y0030900
X0410000
X0415000
X0420000
X0425000
X0422500Y0025900
X0417500
X0412500
X0407500
X0405000Y0020900
X0410000
X0415000
X0420000
X0425000
X0422500Y0015900
X0417500
X0412500
X0407500
X0405000Y0010900
X0410000
X0415000
X0420000
X0425000
X0422500Y0035900
X0417500
X0416000Y0085900
X0408000
X0412000Y0093900
X0416000Y0101900
X0408000
X0412000Y0109900
X0416000Y0117900
X0408000
X0412000Y0125900
X0412500Y0145900
X0407500
X0405000Y0150900
X0410000
X0415000
X0420000
X0417500Y0145900
Y0155900
X0412500
X0407500
X0405000Y0160900
X0410000
X0415000
X0420000
X0425000
X0422500Y0155900
Y0165900
X0417500
X0412500
X0407500
X0427500
X0432500
X0430000Y0170900
X0425000
X0413100Y0191807
X0405100
X0409100Y0199807
X0417100
X0413100Y0207807
X0405100
X0409100Y0215807
X0417100
X0413100Y0223807
X0405100
X0409100Y0231807
X0417100
X0401100
X0397100Y0223807
X0389100
X0385100Y0215807
X0393100
X0401100
X0397100Y0207807
X0389100
X0385100Y0199807
X0393100
X0401100
X0397100Y0191807
X0389100
X0392500Y0165900
X0397500
X0402500
X0400000Y0160900
X0395000
X0392500Y0155900
X0397500
X0402500
X0400000Y0150900
X0395000
X0392500Y0145900
X0397500
X0402500
X0404000Y0125900
X0396000
X0388000
X0380000
X0384000Y0117900
X0392000
X0400000
X0404000Y0109900
X0396000
X0388000
X0380000
X0368000Y0110900
X0361000
X0354000
X0347000
X0340000
X0333000
X0326000
X0319000
X0312000
X0305000
X0308500Y0117900
X0315500
X0322500
X0329500
X0336500
X0343500
X0350500
X0357500
X0364500
X0371500
X0368000Y0124900
X0361000
X0354000
X0347000
X0340000
X0333000
X0326000
X0319000
X0312000
X0305000
X0308500Y0131900
X0315500
X0322500
X0329500
X0336500
X0343500
X0350500
X0357500
X0364500
X0371500
X0364500Y0103900
X0357500
X0350500
X0343500
X0336500
X0329500
X0322500
X0315500
X0308500
X0312000Y0096900
X0319000
X0326000
X0333000
X0340000
X0347000
X0354000
X0388000Y0093900
X0396000
X0404000
X0400000Y0101900
Y0085900
X0392000
X0384000
X0348100Y0226807
X0341100
X0334100
X0327100
X0323600Y0233807
X0330600
X0337600
X0344600
X0351600
X0187200Y0379400
X0180900Y0379473
X0174469
X0168100Y0379600
X0159009Y0394609
X0305649Y0385554
X0309149Y0378554
X0316149
X0323149
X0330149
X0337149
X0344149
X0351149
X0358149
X0354649Y0371553
X0347649
X0340649
X0333649
X0326649
X0319649
X0312649
X0305649
X0323149Y0364553
X0330149
X0337149
X0344149
X0351149
X0347649Y0357554
X0340649
X0333649
X0326649
Y0385554
X0319649
X0333649
X0340649
X0347649
X0354649
X0351149Y0392553
X0344149
X0337149
X0330149
X0380649Y0386554
X0388649
X0396649
X0404649
X0400649Y0378554
X0392649
X0384649
Y0394553
X0392649
X0400649
X0404649Y0370553
X0400649Y0362554
X0396649Y0354554
X0388649
X0384649Y0346553
X0392649
X0400649
X0396649Y0338554
X0388649
X0384649Y0330554
X0392649
X0400649
X0396649Y0322553
X0388649
X0404649
Y0338554
Y0354554
X0402500Y0295900
X0397500
X0392500
X0395000Y0290900
X0400000
X0397500Y0285900
X0392500
X0395000Y0280900
X0400000
X0397500Y0275900
X0392500
X0387500
X0382500
X0402500
Y0285900
X0397100Y0255807
X0389100
X0381100
X0385100Y0247807
X0393100
X0401100
X0389700Y0240200
X0381700Y0240400
X0355100Y0240807
X0348100
X0341100
X0334100
X0327100
X0320100
X0313100
X0306100
X0309600Y0247807
X0316600
X0323600
X0330600
X0337600
X0344600
X0351600
X0358600
X0355100Y0254807
X0348100
X0341100
X0334100
X0327100
X0320100
X0313100
X0306100
X0330600Y0261807
X0337600
X0344600
X0351600
X0405100Y0255807
X0413100
X0409100Y0247807
X0417100
X0413100Y0239807
X0405100
X0407500Y0275900
X0412500
X0417500
X0415000Y0280900
X0410000
X0405000
X0407500Y0285900
X0412500
X0417500
X0422500
X0420000Y0280900
Y0290900
X0415000
X0410000
X0405000
X0407500Y0295900
X0412500
X0417500
X0422500
X0427500
X0425000Y0290900
Y0300900
X0420000
X0430000
X0412649Y0322553
X0408649Y0330554
X0416649
X0412649Y0338554
X0408649Y0346553
X0416649
X0412649Y0354554
X0408649Y0362554
X0416649
X0412649Y0370553
X0408649Y0378554
X0416649
X0412649Y0386554
X0408649Y0394553
X0167200Y0402400
X0159009
Y0410110
X0150400Y0402400
T05
X0010300Y0328526
Y0336400
Y0344274
X0040700Y0343874
Y0336000
Y0328126
X0073000Y0327926
Y0335800
Y0343674
T06
X0148900Y0339000
T07
X0020689Y0072404
X0044311
X0094411Y0051711
X0114096
Y0028089
X0094411
X0147900Y0027978
X0167585
Y0051600
X0147900
X0201411Y0051711
X0221096
Y0028089
X0201411
X0044311Y0092089
X0020689
Y0122804
Y0142489
X0044311
Y0122804
Y0173304
Y0192989
X0020689
Y0173304
X0020589Y0223404
X0044211
Y0243089
X0020589
Y0273404
Y0293089
X0044211
Y0273404
X0097800Y0419900
X0107800
X0117800
X0087800
X0077800
X0067800
T08
X0059530Y0365871
Y0380635
Y0395398
T09
X0485000Y0197320
Y0234800
Y0272280
X0272800Y0406200
X0235320
X0197839
T10
X0098900Y0357800
X0099130Y0403469
T11
X0025000Y0025000
X0480600
X0186200Y0252000
X0480600Y0403600
X0025000
T12
X0313300Y0028600
X0431410Y0146710
X0314400Y0158507
X0313949Y0289253
X0432510Y0276617
X0432059Y0407364
M30
