G04 Layer_Color=16711935*
%FSLAX25Y25*%
%MOIN*%
G70*
G01*
G75*
G04:AMPARAMS|DCode=91|XSize=47.37mil|YSize=43.43mil|CornerRadius=8.43mil|HoleSize=0mil|Usage=FLASHONLY|Rotation=180.000|XOffset=0mil|YOffset=0mil|HoleType=Round|Shape=RoundedRectangle|*
%AMROUNDEDRECTD91*
21,1,0.04737,0.02658,0,0,180.0*
21,1,0.03051,0.04343,0,0,180.0*
1,1,0.01686,-0.01526,0.01329*
1,1,0.01686,0.01526,0.01329*
1,1,0.01686,0.01526,-0.01329*
1,1,0.01686,-0.01526,-0.01329*
%
%ADD91ROUNDEDRECTD91*%
G04:AMPARAMS|DCode=92|XSize=47.37mil|YSize=43.43mil|CornerRadius=8.43mil|HoleSize=0mil|Usage=FLASHONLY|Rotation=270.000|XOffset=0mil|YOffset=0mil|HoleType=Round|Shape=RoundedRectangle|*
%AMROUNDEDRECTD92*
21,1,0.04737,0.02658,0,0,270.0*
21,1,0.03051,0.04343,0,0,270.0*
1,1,0.01686,-0.01329,-0.01526*
1,1,0.01686,-0.01329,0.01526*
1,1,0.01686,0.01329,0.01526*
1,1,0.01686,0.01329,-0.01526*
%
%ADD92ROUNDEDRECTD92*%
%ADD124C,0.06706*%
%ADD125R,0.06706X0.06706*%
%ADD126C,0.06800*%
%ADD127O,0.18517X0.14579*%
%ADD128C,0.07493*%
%ADD129O,0.20485X0.14579*%
%ADD130O,0.14579X0.20485*%
%ADD131C,0.45370*%
%ADD132C,0.34000*%
%ADD133O,0.07099X0.05524*%
G36*
X416588Y265619D02*
X417953Y265054D01*
X419181Y264233D01*
X420226Y263188D01*
X421046Y261960D01*
X421612Y260595D01*
X421900Y259146D01*
Y258407D01*
Y177907D01*
X421900Y177907D01*
X421900D01*
Y177513D01*
X421746Y176740D01*
X421445Y176012D01*
X421007Y175357D01*
X420450Y174800D01*
X419795Y174362D01*
X419067Y174061D01*
X418294Y173907D01*
X385989D01*
X384791Y174145D01*
X383663Y174613D01*
X382648Y175291D01*
X381784Y176155D01*
X381106Y177170D01*
X380638Y178299D01*
X380400Y179496D01*
Y180107D01*
Y222361D01*
X380400Y222361D01*
X380400Y222361D01*
Y222967D01*
X380636Y224154D01*
X381099Y225272D01*
X381772Y226279D01*
X382200Y226707D01*
X382605Y227154D01*
X383274Y228156D01*
X383735Y229269D01*
X383970Y230450D01*
X384000Y231053D01*
Y238193D01*
X384000Y238193D01*
X383984Y238527D01*
X383958Y238655D01*
X383853Y239184D01*
X383597Y239802D01*
X383225Y240359D01*
X383000Y240607D01*
X381233Y242375D01*
X380138Y244012D01*
X379384Y245832D01*
X379000Y247764D01*
Y248749D01*
Y262107D01*
X379000Y262107D01*
X379000Y262107D01*
X379017Y262569D01*
X379146Y263215D01*
X379433Y263907D01*
X379848Y264529D01*
X380378Y265059D01*
X381000Y265475D01*
X381692Y265761D01*
X382426Y265907D01*
X415139D01*
X416588Y265619D01*
D02*
G37*
G36*
X364800Y135300D02*
Y135300D01*
X365322Y135300D01*
X366346Y135096D01*
X367311Y134697D01*
X368179Y134117D01*
X368917Y133379D01*
X369497Y132510D01*
X369896Y131546D01*
X370100Y130522D01*
X370100Y130000D01*
X370100Y112270D01*
X370100Y112270D01*
X370100Y111564D01*
X369824Y110178D01*
X369284Y108874D01*
X368499Y107699D01*
X368000Y107200D01*
X355729Y94929D01*
X355729D01*
X355032Y94232D01*
X353395Y93138D01*
X351575Y92384D01*
X349643Y92000D01*
X327500D01*
X327116Y92000D01*
X326362Y92150D01*
X325653Y92444D01*
X325014Y92871D01*
X324471Y93414D01*
X324044Y94053D01*
X323750Y94762D01*
X323600Y95516D01*
X323600Y95900D01*
X323600Y131700D01*
X323600Y131700D01*
X323600Y131700D01*
X323621Y132162D01*
X323738Y132750D01*
X324010Y133405D01*
X324404Y133995D01*
X324905Y134496D01*
X325495Y134890D01*
X326150Y135162D01*
X326845Y135300D01*
X364800D01*
X364800Y135300D01*
D02*
G37*
G36*
X415488Y135712D02*
X416853Y135146D01*
X418081Y134326D01*
X419126Y133281D01*
X419946Y132053D01*
X420512Y130688D01*
X420800Y129239D01*
Y128500D01*
Y48000D01*
X420800Y48000D01*
X420800D01*
Y47606D01*
X420646Y46833D01*
X420345Y46105D01*
X419907Y45450D01*
X419350Y44893D01*
X418695Y44455D01*
X417967Y44154D01*
X417194Y44000D01*
X384889D01*
X383692Y44238D01*
X382563Y44706D01*
X381548Y45384D01*
X380684Y46248D01*
X380006Y47263D01*
X379538Y48392D01*
X379300Y49589D01*
Y50200D01*
Y92454D01*
X379300Y92454D01*
X379300Y93060D01*
X379536Y94247D01*
X379999Y95365D01*
X380672Y96372D01*
X381100Y96800D01*
X381505Y97247D01*
X382174Y98249D01*
X382635Y99362D01*
X382870Y100543D01*
X382900Y101146D01*
Y108286D01*
X382900Y108286D01*
X382884Y108620D01*
X382858Y108748D01*
X382753Y109277D01*
X382497Y109895D01*
X382125Y110452D01*
X381900Y110700D01*
X380133Y112468D01*
X379038Y114105D01*
X378284Y115925D01*
X377900Y117857D01*
Y118842D01*
Y132200D01*
X377900Y132200D01*
X377900Y132200D01*
X377917Y132662D01*
X378046Y133308D01*
X378332Y134000D01*
X378748Y134622D01*
X379278Y135152D01*
X379900Y135567D01*
X380592Y135854D01*
X381326Y136000D01*
X414039D01*
X415488Y135712D01*
D02*
G37*
G36*
X364349Y395953D02*
Y395953D01*
X364871Y395953D01*
X365895Y395750D01*
X366859Y395350D01*
X367727Y394770D01*
X368466Y394032D01*
X369046Y393164D01*
X369445Y392199D01*
X369649Y391176D01*
X369649Y390653D01*
X369649Y372923D01*
X369649Y372923D01*
X369649Y372217D01*
X369373Y370832D01*
X368833Y369527D01*
X368048Y368353D01*
X367549Y367853D01*
X355278Y355582D01*
X355278D01*
X354581Y354886D01*
X352943Y353792D01*
X351124Y353038D01*
X349192Y352654D01*
X327049D01*
X326665Y352654D01*
X325911Y352803D01*
X325202Y353097D01*
X324563Y353524D01*
X324020Y354067D01*
X323593Y354706D01*
X323299Y355416D01*
X323149Y356169D01*
X323149Y356554D01*
X323149Y392354D01*
X323149Y392354D01*
X323149Y392354D01*
X323170Y392815D01*
X323287Y393404D01*
X323558Y394059D01*
X323953Y394648D01*
X324454Y395150D01*
X325044Y395544D01*
X325699Y395815D01*
X326394Y395953D01*
X364349D01*
X364349Y395953D01*
D02*
G37*
G36*
X415036Y396365D02*
X416401Y395800D01*
X417630Y394979D01*
X418674Y393934D01*
X419495Y392706D01*
X420061Y391341D01*
X420349Y389892D01*
Y389154D01*
Y308653D01*
X420349Y308653D01*
X420349D01*
Y308260D01*
X420195Y307487D01*
X419894Y306759D01*
X419456Y306104D01*
X418899Y305546D01*
X418244Y305109D01*
X417516Y304807D01*
X416743Y304654D01*
X384438D01*
X383240Y304892D01*
X382112Y305359D01*
X381097Y306038D01*
X380233Y306901D01*
X379554Y307917D01*
X379087Y309045D01*
X378849Y310243D01*
Y310854D01*
Y353108D01*
X378849Y353108D01*
X378849Y353108D01*
Y353713D01*
X379085Y354901D01*
X379548Y356019D01*
X380221Y357026D01*
X380649Y357453D01*
X381054Y357900D01*
X381723Y358902D01*
X382184Y360015D01*
X382419Y361197D01*
X382449Y361799D01*
Y368939D01*
X382449Y368939D01*
X382432Y369274D01*
X382407Y369401D01*
X382302Y369930D01*
X382046Y370549D01*
X381674Y371105D01*
X381449Y371354D01*
X379681Y373121D01*
X378587Y374759D01*
X377833Y376579D01*
X377449Y378511D01*
Y379496D01*
Y392853D01*
X377449Y392853D01*
Y392853D01*
X377466Y393316D01*
X377595Y393962D01*
X377881Y394654D01*
X378297Y395276D01*
X378826Y395805D01*
X379449Y396221D01*
X380140Y396508D01*
X380874Y396654D01*
X413588D01*
X415036Y396365D01*
D02*
G37*
G36*
X365900Y265207D02*
Y265207D01*
X366422Y265207D01*
X367446Y265003D01*
X368410Y264604D01*
X369279Y264024D01*
X370017Y263286D01*
X370597Y262418D01*
X370996Y261453D01*
X371200Y260429D01*
X371200Y259907D01*
X371200Y242177D01*
X371200Y242177D01*
X371200Y241471D01*
X370924Y240086D01*
X370384Y238781D01*
X369599Y237606D01*
X369100Y237107D01*
X356829Y224836D01*
X356829D01*
X356133Y224140D01*
X354495Y223045D01*
X352675Y222291D01*
X350743Y221907D01*
X328600D01*
X328216Y221907D01*
X327462Y222057D01*
X326753Y222351D01*
X326114Y222778D01*
X325571Y223321D01*
X325144Y223960D01*
X324850Y224670D01*
X324700Y225423D01*
X324700Y225807D01*
X324700Y261607D01*
X324700Y261607D01*
X324700Y261607D01*
X324721Y262069D01*
X324838Y262657D01*
X325110Y263312D01*
X325504Y263902D01*
X326005Y264403D01*
X326595Y264797D01*
X327250Y265069D01*
X327945Y265207D01*
X365900D01*
X365900Y265207D01*
D02*
G37*
D91*
X196700Y36779D02*
D03*
Y43472D02*
D03*
D92*
X171100Y37700D02*
D03*
X164407D02*
D03*
X142154Y37400D02*
D03*
X148846D02*
D03*
X132754Y191500D02*
D03*
X139446D02*
D03*
D124*
X117800Y419900D02*
D03*
X107800D02*
D03*
X97800D02*
D03*
X87800D02*
D03*
X77800D02*
D03*
D125*
X67800D02*
D03*
D126*
X59530Y395398D02*
D03*
Y380635D02*
D03*
Y365871D02*
D03*
X431410Y146710D02*
D03*
X313300Y28600D02*
D03*
X432510Y276617D02*
D03*
X314400Y158507D02*
D03*
X432059Y407364D02*
D03*
X313949Y289253D02*
D03*
D127*
X98900Y357800D02*
D03*
X99130Y403469D02*
D03*
D128*
X114096Y28089D02*
D03*
X94411D02*
D03*
Y51711D02*
D03*
X114096D02*
D03*
X167585Y27978D02*
D03*
X147900D02*
D03*
Y51600D02*
D03*
X167585D02*
D03*
X221096Y28089D02*
D03*
X201411D02*
D03*
Y51711D02*
D03*
X221096D02*
D03*
X20589Y273404D02*
D03*
Y293089D02*
D03*
X44211D02*
D03*
Y273404D02*
D03*
X20589Y223404D02*
D03*
Y243089D02*
D03*
X44211D02*
D03*
Y223404D02*
D03*
X20689Y173304D02*
D03*
Y192989D02*
D03*
X44311D02*
D03*
Y173304D02*
D03*
X20689Y122804D02*
D03*
Y142489D02*
D03*
X44311D02*
D03*
Y122804D02*
D03*
X20689Y72404D02*
D03*
Y92089D02*
D03*
X44311D02*
D03*
Y72404D02*
D03*
D129*
X485000Y197320D02*
D03*
Y272280D02*
D03*
Y234800D02*
D03*
D130*
X235320Y406200D02*
D03*
X197839D02*
D03*
X272800D02*
D03*
D131*
X25000Y25000D02*
D03*
Y403600D02*
D03*
X480600D02*
D03*
Y25000D02*
D03*
D132*
X186200Y252000D02*
D03*
D133*
X40700Y336000D02*
D03*
Y328126D02*
D03*
Y343874D02*
D03*
X10300Y336400D02*
D03*
Y328526D02*
D03*
Y344274D02*
D03*
X73000Y335800D02*
D03*
Y327926D02*
D03*
Y343674D02*
D03*
M02*
