G04 Layer_Physical_Order=2*
G04 Layer_Color=16711680*
%FSLAX25Y25*%
%MOIN*%
G70*
G01*
G75*
%ADD10C,0.02000*%
%ADD39C,0.02400*%
%ADD41C,0.22500*%
%ADD44C,0.03000*%
%ADD51C,0.06000*%
%ADD52C,0.13780*%
%ADD53O,0.15748X0.11811*%
%ADD54C,0.08000*%
%ADD55O,0.13780X0.19685*%
%ADD56O,0.19685X0.13780*%
%ADD57O,0.15000X0.10000*%
%ADD58O,0.15000X0.11000*%
%ADD59O,0.09000X0.13000*%
%ADD60C,0.07874*%
%ADD61C,0.13000*%
%ADD62C,0.12000*%
%ADD63O,0.11000X0.08000*%
%ADD64C,0.03500*%
%ADD65C,0.05000*%
G04:AMPARAMS|DCode=66|XSize=106.3mil|YSize=45.28mil|CornerRadius=5.66mil|HoleSize=0mil|Usage=FLASHONLY|Rotation=90.000|XOffset=0mil|YOffset=0mil|HoleType=Round|Shape=RoundedRectangle|*
%AMROUNDEDRECTD66*
21,1,0.10630,0.03396,0,0,90.0*
21,1,0.09498,0.04528,0,0,90.0*
1,1,0.01132,0.01698,0.04749*
1,1,0.01132,0.01698,-0.04749*
1,1,0.01132,-0.01698,-0.04749*
1,1,0.01132,-0.01698,0.04749*
%
%ADD66ROUNDEDRECTD66*%
G04:AMPARAMS|DCode=67|XSize=55.12mil|YSize=39.37mil|CornerRadius=4.92mil|HoleSize=0mil|Usage=FLASHONLY|Rotation=90.000|XOffset=0mil|YOffset=0mil|HoleType=Round|Shape=RoundedRectangle|*
%AMROUNDEDRECTD67*
21,1,0.05512,0.02953,0,0,90.0*
21,1,0.04528,0.03937,0,0,90.0*
1,1,0.00984,0.01476,0.02264*
1,1,0.00984,0.01476,-0.02264*
1,1,0.00984,-0.01476,-0.02264*
1,1,0.00984,-0.01476,0.02264*
%
%ADD67ROUNDEDRECTD67*%
G36*
X84763Y423609D02*
X88142Y420905D01*
X91654Y418518D01*
X95297Y416450D01*
X99072Y414700D01*
X102979Y413268D01*
X107018Y412154D01*
X111188Y411359D01*
X115491Y410882D01*
X119925Y410722D01*
X92765Y399472D01*
X84810Y391517D01*
X68900Y407427D01*
X81515Y426632D01*
X84763Y423609D01*
D02*
G37*
G36*
X547705Y500151D02*
X547705Y469500D01*
X567505Y449700D01*
X599739D01*
X599905Y449300D01*
Y49800D01*
X565905D01*
X544605Y28500D01*
X544605Y200D01*
X544605Y200D01*
X55205D01*
Y30300D01*
X31305Y54200D01*
X105D01*
Y69500D01*
X-95Y69700D01*
Y265700D01*
X16905Y282700D01*
X140918D01*
X283618Y436600D01*
X306712Y459693D01*
X316705Y500500D01*
X547351Y500505D01*
X547705Y500151D01*
D02*
G37*
%LPC*%
G36*
X354005Y241425D02*
X353248Y241325D01*
X352542Y241033D01*
X351937Y240568D01*
X351472Y239963D01*
X351180Y239257D01*
X351080Y238500D01*
X351180Y237743D01*
X351472Y237037D01*
X351937Y236432D01*
X352374Y236096D01*
Y230900D01*
X352498Y230276D01*
X352852Y229747D01*
X364374Y218224D01*
Y212676D01*
X360978Y209280D01*
X360975Y209279D01*
X360608Y208942D01*
X360447Y208815D01*
X360290Y208705D01*
X360141Y208616D01*
X360000Y208545D01*
X359870Y208493D01*
X359749Y208458D01*
X359637Y208439D01*
X359507Y208432D01*
X359487Y208423D01*
X358748Y208325D01*
X358043Y208033D01*
X357437Y207568D01*
X356972Y206962D01*
X356907Y206805D01*
X356898Y206801D01*
X355772Y205576D01*
X355771Y205573D01*
X349978Y199780D01*
X349975Y199779D01*
X349608Y199442D01*
X349447Y199315D01*
X349290Y199205D01*
X349141Y199116D01*
X349000Y199045D01*
X348870Y198993D01*
X348749Y198958D01*
X348637Y198939D01*
X348507Y198932D01*
X348487Y198923D01*
X347748Y198825D01*
X347042Y198533D01*
X346437Y198068D01*
X345972Y197462D01*
X345680Y196757D01*
X345580Y196000D01*
X345680Y195243D01*
X345972Y194537D01*
X346437Y193932D01*
X347042Y193467D01*
X347748Y193175D01*
X348505Y193075D01*
X349262Y193175D01*
X349968Y193467D01*
X350573Y193932D01*
X351038Y194537D01*
X351330Y195243D01*
X351428Y195982D01*
X351437Y196002D01*
X351444Y196132D01*
X351463Y196244D01*
X351498Y196365D01*
X351550Y196495D01*
X351621Y196636D01*
X351710Y196785D01*
X351817Y196937D01*
X352104Y197283D01*
X352277Y197463D01*
X352279Y197467D01*
X357073Y202261D01*
X357076Y202262D01*
X357261Y202438D01*
X357427Y202578D01*
X357581Y202690D01*
X357721Y202776D01*
X357845Y202835D01*
X357951Y202871D01*
X358040Y202887D01*
X358112Y202888D01*
X358174Y202877D01*
X358271Y202841D01*
X358340Y202844D01*
X358748Y202675D01*
X359505Y202575D01*
X360262Y202675D01*
X360967Y202967D01*
X361573Y203432D01*
X362038Y204037D01*
X362330Y204743D01*
X362428Y205482D01*
X362437Y205502D01*
X362444Y205632D01*
X362463Y205744D01*
X362498Y205865D01*
X362550Y205995D01*
X362621Y206136D01*
X362710Y206285D01*
X362817Y206437D01*
X363104Y206783D01*
X363277Y206963D01*
X363279Y206967D01*
X367159Y210846D01*
X367512Y211376D01*
X367636Y212000D01*
Y218900D01*
X367512Y219524D01*
X367159Y220054D01*
X363188Y224024D01*
X363471Y224448D01*
X363648Y224375D01*
X364405Y224275D01*
X365162Y224375D01*
X365867Y224667D01*
X366473Y225132D01*
X366938Y225738D01*
X367230Y226443D01*
X367330Y227200D01*
X367230Y227957D01*
X366938Y228662D01*
X366473Y229268D01*
X365867Y229733D01*
X365832Y229748D01*
Y233100D01*
X365724Y233646D01*
X365414Y234109D01*
X365414Y234109D01*
X363316Y236208D01*
X363330Y236243D01*
X363430Y237000D01*
X363330Y237757D01*
X363038Y238462D01*
X362573Y239068D01*
X361967Y239533D01*
X361262Y239825D01*
X360505Y239925D01*
X359748Y239825D01*
X359043Y239533D01*
X358437Y239068D01*
X357972Y238462D01*
X357680Y237757D01*
X357580Y237000D01*
X357680Y236243D01*
X357972Y235538D01*
X358437Y234932D01*
X359043Y234467D01*
X359748Y234175D01*
X360505Y234075D01*
X361262Y234175D01*
X361297Y234189D01*
X362978Y232509D01*
Y229748D01*
X362943Y229733D01*
X362337Y229268D01*
X361872Y228662D01*
X361580Y227957D01*
X361480Y227200D01*
X361580Y226443D01*
X361653Y226266D01*
X361229Y225983D01*
X355636Y231576D01*
Y236096D01*
X356073Y236432D01*
X356538Y237037D01*
X356830Y237743D01*
X356930Y238500D01*
X356830Y239257D01*
X356538Y239963D01*
X356073Y240568D01*
X355468Y241033D01*
X354762Y241325D01*
X354005Y241425D01*
D02*
G37*
G36*
X326505Y232425D02*
X325748Y232325D01*
X325043Y232033D01*
X324444Y231574D01*
X324424Y231566D01*
X324286Y231437D01*
X324153Y231333D01*
X324011Y231241D01*
X323860Y231161D01*
X323699Y231093D01*
X323526Y231037D01*
X323342Y230992D01*
X323145Y230960D01*
X322936Y230940D01*
X322701Y230933D01*
X322689Y230927D01*
X304005D01*
X304005Y230927D01*
X303459Y230819D01*
X302996Y230509D01*
X302996Y230509D01*
X293996Y221509D01*
X293686Y221046D01*
X293578Y220500D01*
X293578Y220500D01*
Y212000D01*
X293578Y212000D01*
X293686Y211454D01*
X293996Y210991D01*
X298578Y206409D01*
Y186316D01*
X298572Y186304D01*
X298565Y186070D01*
X298545Y185860D01*
X298513Y185663D01*
X298468Y185479D01*
X298412Y185306D01*
X298343Y185145D01*
X298264Y184994D01*
X298172Y184852D01*
X298068Y184720D01*
X297939Y184581D01*
X297931Y184561D01*
X297472Y183963D01*
X297180Y183257D01*
X297080Y182500D01*
X297180Y181743D01*
X297472Y181037D01*
X297937Y180432D01*
X298542Y179967D01*
X299248Y179675D01*
X300005Y179575D01*
X300762Y179675D01*
X301467Y179967D01*
X302073Y180432D01*
X302538Y181037D01*
X302830Y181743D01*
X302930Y182500D01*
X302830Y183257D01*
X302538Y183963D01*
X302079Y184561D01*
X302071Y184581D01*
X301942Y184720D01*
X301838Y184852D01*
X301746Y184994D01*
X301666Y185145D01*
X301598Y185306D01*
X301542Y185479D01*
X301497Y185663D01*
X301465Y185860D01*
X301445Y186070D01*
X301438Y186304D01*
X301432Y186316D01*
Y207000D01*
X301432Y207000D01*
X301324Y207546D01*
X301014Y208009D01*
X301014Y208009D01*
X296432Y212591D01*
Y219909D01*
X304596Y228073D01*
X322689D01*
X322701Y228067D01*
X322936Y228060D01*
X323145Y228040D01*
X323342Y228008D01*
X323526Y227963D01*
X323699Y227907D01*
X323860Y227838D01*
X324011Y227759D01*
X324153Y227667D01*
X324286Y227563D01*
X324424Y227434D01*
X324444Y227426D01*
X325043Y226967D01*
X325748Y226675D01*
X326505Y226575D01*
X327262Y226675D01*
X327968Y226967D01*
X328573Y227432D01*
X329038Y228038D01*
X329330Y228743D01*
X329430Y229500D01*
X329330Y230257D01*
X329038Y230962D01*
X328573Y231568D01*
X327968Y232033D01*
X327262Y232325D01*
X326505Y232425D01*
D02*
G37*
G36*
X396973Y236957D02*
X396216Y236857D01*
X395511Y236565D01*
X394919Y236111D01*
X394899Y236103D01*
X394801Y236016D01*
X394709Y235951D01*
X394599Y235890D01*
X394470Y235835D01*
X394321Y235785D01*
X394152Y235743D01*
X393969Y235711D01*
X393522Y235669D01*
X393271Y235664D01*
X393268Y235663D01*
X390201D01*
X390199Y235664D01*
X389700Y235685D01*
X389496Y235709D01*
X389306Y235742D01*
X389137Y235784D01*
X388986Y235832D01*
X388856Y235887D01*
X388745Y235947D01*
X388652Y236012D01*
X388554Y236098D01*
X388520Y236109D01*
X387967Y236533D01*
X387262Y236825D01*
X386505Y236925D01*
X385748Y236825D01*
X385043Y236533D01*
X384437Y236068D01*
X383972Y235462D01*
X383680Y234757D01*
X383580Y234000D01*
X383680Y233243D01*
X383972Y232538D01*
X384437Y231932D01*
X385043Y231467D01*
X385748Y231175D01*
X386505Y231075D01*
X387262Y231175D01*
X387967Y231467D01*
X388573Y231932D01*
X388585Y231947D01*
X388606Y231954D01*
X388702Y232043D01*
X388793Y232108D01*
X388902Y232170D01*
X389030Y232226D01*
X389178Y232276D01*
X389346Y232319D01*
X389528Y232352D01*
X389974Y232393D01*
X390224Y232399D01*
X390228Y232400D01*
X393259D01*
X393262Y232399D01*
X393760Y232378D01*
X393963Y232353D01*
X394152Y232320D01*
X394321Y232278D01*
X394470Y232228D01*
X394599Y232173D01*
X394709Y232112D01*
X394801Y232047D01*
X394899Y231960D01*
X394919Y231952D01*
X395511Y231498D01*
X396216Y231206D01*
X396973Y231106D01*
X397730Y231206D01*
X398436Y231498D01*
X399042Y231963D01*
X399507Y232569D01*
X399799Y233274D01*
X399899Y234032D01*
X399799Y234788D01*
X399507Y235494D01*
X399042Y236100D01*
X398436Y236565D01*
X397730Y236857D01*
X396973Y236957D01*
D02*
G37*
G36*
X534505Y212825D02*
X533076Y212684D01*
X531702Y212267D01*
X530435Y211591D01*
X529325Y210680D01*
X528414Y209570D01*
X527738Y208303D01*
X527321Y206929D01*
X527180Y205500D01*
X527321Y204071D01*
X527738Y202697D01*
X528414Y201430D01*
X529325Y200320D01*
X530435Y199409D01*
X531702Y198732D01*
X533076Y198316D01*
X534505Y198175D01*
X535934Y198316D01*
X537308Y198732D01*
X538575Y199409D01*
X539685Y200320D01*
X540595Y201430D01*
X541272Y202697D01*
X541689Y204071D01*
X541830Y205500D01*
X541689Y206929D01*
X541272Y208303D01*
X540595Y209570D01*
X539685Y210680D01*
X538575Y211591D01*
X537308Y212267D01*
X535934Y212684D01*
X534505Y212825D01*
D02*
G37*
G36*
X301005Y216425D02*
X300248Y216325D01*
X299542Y216033D01*
X298937Y215568D01*
X298472Y214963D01*
X298180Y214257D01*
X298080Y213500D01*
X298180Y212743D01*
X298472Y212037D01*
X298937Y211432D01*
X299542Y210967D01*
X300248Y210675D01*
X300537Y210637D01*
X300604Y210595D01*
X300792Y210563D01*
X300963Y210521D01*
X301132Y210465D01*
X301300Y210397D01*
X301467Y210315D01*
X301632Y210219D01*
X301798Y210109D01*
X301962Y209984D01*
X302126Y209844D01*
X302297Y209682D01*
X302309Y209677D01*
X307797Y204189D01*
X307802Y204177D01*
X307963Y204006D01*
X308097Y203844D01*
X308213Y203682D01*
X308312Y203520D01*
X308394Y203358D01*
X308460Y203195D01*
X308510Y203032D01*
X308546Y202867D01*
X308566Y202700D01*
X308572Y202510D01*
X308581Y202491D01*
X308680Y201743D01*
X308972Y201038D01*
X309437Y200432D01*
X310043Y199967D01*
X310748Y199675D01*
X311505Y199575D01*
X312262Y199675D01*
X312967Y199967D01*
X313573Y200432D01*
X314038Y201038D01*
X314330Y201743D01*
X314430Y202500D01*
X314330Y203257D01*
X314038Y203962D01*
X313573Y204568D01*
X312967Y205033D01*
X312262Y205325D01*
X311514Y205424D01*
X311494Y205433D01*
X311305Y205439D01*
X311138Y205459D01*
X310973Y205495D01*
X310810Y205545D01*
X310647Y205611D01*
X310485Y205693D01*
X310323Y205792D01*
X310161Y205908D01*
X309999Y206042D01*
X309828Y206203D01*
X309816Y206208D01*
X304580Y211443D01*
X304580Y211444D01*
X304579Y211445D01*
X304551Y211473D01*
X304547Y211485D01*
X304386Y211657D01*
X304256Y211817D01*
X304148Y211975D01*
X304060Y212131D01*
X303991Y212285D01*
X303940Y212437D01*
X303906Y212589D01*
X303889Y212742D01*
X303889Y212897D01*
X303907Y213078D01*
X303884Y213153D01*
X303930Y213500D01*
X303830Y214257D01*
X303538Y214963D01*
X303073Y215568D01*
X302467Y216033D01*
X301762Y216325D01*
X301005Y216425D01*
D02*
G37*
G36*
X245605Y215225D02*
X244848Y215125D01*
X244143Y214833D01*
X243537Y214368D01*
X243072Y213762D01*
X243057Y213727D01*
X237953D01*
X237938Y213762D01*
X237473Y214368D01*
X236867Y214833D01*
X236162Y215125D01*
X235405Y215225D01*
X234648Y215125D01*
X233943Y214833D01*
X233337Y214368D01*
X232872Y213762D01*
X232580Y213057D01*
X232480Y212300D01*
X232580Y211543D01*
X232872Y210838D01*
X233337Y210232D01*
X233943Y209767D01*
X234648Y209475D01*
X235405Y209375D01*
X236162Y209475D01*
X236867Y209767D01*
X237473Y210232D01*
X237938Y210838D01*
X237953Y210873D01*
X243057D01*
X243072Y210838D01*
X243537Y210232D01*
X244143Y209767D01*
X244848Y209475D01*
X245605Y209375D01*
X246362Y209475D01*
X247067Y209767D01*
X247673Y210232D01*
X248138Y210838D01*
X248430Y211543D01*
X248530Y212300D01*
X248430Y213057D01*
X248138Y213762D01*
X247673Y214368D01*
X247067Y214833D01*
X246362Y215125D01*
X245605Y215225D01*
D02*
G37*
G36*
X367705Y255837D02*
X366964Y255690D01*
X366335Y255270D01*
X365915Y254641D01*
X365768Y253900D01*
X365915Y253159D01*
X366335Y252530D01*
X366368Y252498D01*
X366996Y252078D01*
X367737Y251930D01*
X368479Y252078D01*
X369107Y252498D01*
X369527Y253126D01*
X369674Y253868D01*
X369527Y254609D01*
X369107Y255238D01*
X369075Y255270D01*
X368446Y255690D01*
X367705Y255837D01*
D02*
G37*
G36*
X561005Y313938D02*
X558005D01*
X556856Y313787D01*
X555786Y313343D01*
X554867Y312638D01*
X554162Y311719D01*
X553718Y310649D01*
X553567Y309500D01*
X553718Y308351D01*
X554162Y307281D01*
X554867Y306362D01*
X555786Y305657D01*
X556856Y305213D01*
X558005Y305062D01*
X561005D01*
X562154Y305213D01*
X563224Y305657D01*
X564143Y306362D01*
X564848Y307281D01*
X565292Y308351D01*
X565443Y309500D01*
X565292Y310649D01*
X564848Y311719D01*
X564143Y312638D01*
X563224Y313343D01*
X562154Y313787D01*
X561005Y313938D01*
D02*
G37*
G36*
X377974Y327336D02*
X374037D01*
X372800Y327214D01*
X371612Y326854D01*
X370516Y326268D01*
X369556Y325480D01*
X368768Y324520D01*
X368183Y323425D01*
X367822Y322236D01*
X367701Y321000D01*
X367822Y319764D01*
X368183Y318575D01*
X368768Y317480D01*
X369556Y316520D01*
X370516Y315732D01*
X371612Y315146D01*
X372800Y314786D01*
X374037Y314664D01*
X377974D01*
X379210Y314786D01*
X380398Y315146D01*
X381494Y315732D01*
X382454Y316520D01*
X383242Y317480D01*
X383827Y318575D01*
X384188Y319764D01*
X384310Y321000D01*
X384188Y322236D01*
X383827Y323425D01*
X383242Y324520D01*
X382454Y325480D01*
X381494Y326268D01*
X380398Y326854D01*
X379210Y327214D01*
X377974Y327336D01*
D02*
G37*
G36*
X517974D02*
X514037D01*
X512800Y327214D01*
X511612Y326854D01*
X510516Y326268D01*
X509556Y325480D01*
X508768Y324520D01*
X508183Y323425D01*
X507822Y322236D01*
X507700Y321000D01*
X507822Y319764D01*
X508183Y318575D01*
X508768Y317480D01*
X509556Y316520D01*
X510516Y315732D01*
X511612Y315146D01*
X512800Y314786D01*
X514037Y314664D01*
X517974D01*
X519210Y314786D01*
X520398Y315146D01*
X521494Y315732D01*
X522454Y316520D01*
X523242Y317480D01*
X523827Y318575D01*
X524188Y319764D01*
X524309Y321000D01*
X524188Y322236D01*
X523827Y323425D01*
X523242Y324520D01*
X522454Y325480D01*
X521494Y326268D01*
X520398Y326854D01*
X519210Y327214D01*
X517974Y327336D01*
D02*
G37*
G36*
X561005Y293938D02*
X558005D01*
X556856Y293787D01*
X555786Y293343D01*
X554867Y292638D01*
X554162Y291719D01*
X553718Y290649D01*
X553567Y289500D01*
X553718Y288351D01*
X554162Y287281D01*
X554867Y286362D01*
X555786Y285657D01*
X556856Y285213D01*
X558005Y285062D01*
X561005D01*
X562154Y285213D01*
X563224Y285657D01*
X564143Y286362D01*
X564848Y287281D01*
X565292Y288351D01*
X565443Y289500D01*
X565292Y290649D01*
X564848Y291719D01*
X564143Y292638D01*
X563224Y293343D01*
X562154Y293787D01*
X561005Y293938D01*
D02*
G37*
G36*
X424405Y266931D02*
X423150Y266807D01*
X421944Y266441D01*
X420832Y265847D01*
X419858Y265047D01*
X419058Y264073D01*
X418464Y262961D01*
X418098Y261755D01*
X417974Y260500D01*
X418098Y259245D01*
X418464Y258039D01*
X419058Y256927D01*
X419858Y255953D01*
X420832Y255153D01*
X421944Y254559D01*
X423150Y254193D01*
X424405Y254069D01*
X425660Y254193D01*
X426866Y254559D01*
X427978Y255153D01*
X428952Y255953D01*
X429752Y256927D01*
X430346Y258039D01*
X430712Y259245D01*
X430836Y260500D01*
X430712Y261755D01*
X430346Y262961D01*
X429752Y264073D01*
X428952Y265047D01*
X427978Y265847D01*
X426866Y266441D01*
X425660Y266807D01*
X424405Y266931D01*
D02*
G37*
G36*
X445805D02*
X444550Y266807D01*
X443344Y266441D01*
X442232Y265847D01*
X441258Y265047D01*
X440458Y264073D01*
X439864Y262961D01*
X439498Y261755D01*
X439374Y260500D01*
X439498Y259245D01*
X439864Y258039D01*
X440458Y256927D01*
X441258Y255953D01*
X442232Y255153D01*
X443344Y254559D01*
X444550Y254193D01*
X445805Y254069D01*
X447060Y254193D01*
X448266Y254559D01*
X449378Y255153D01*
X450352Y255953D01*
X451152Y256927D01*
X451746Y258039D01*
X452112Y259245D01*
X452236Y260500D01*
X452112Y261755D01*
X451746Y262961D01*
X451152Y264073D01*
X450352Y265047D01*
X449378Y265847D01*
X448266Y266441D01*
X447060Y266807D01*
X445805Y266931D01*
D02*
G37*
G36*
X493505Y262737D02*
X492805D01*
X492064Y262590D01*
X491435Y262170D01*
X491015Y261541D01*
X490868Y260800D01*
X491015Y260059D01*
X491435Y259430D01*
X492064Y259010D01*
X492805Y258863D01*
X493505D01*
X494246Y259010D01*
X494875Y259430D01*
X495295Y260059D01*
X495442Y260800D01*
X495295Y261541D01*
X494875Y262170D01*
X494246Y262590D01*
X493505Y262737D01*
D02*
G37*
G36*
X359005Y217425D02*
X358248Y217325D01*
X357542Y217033D01*
X356937Y216568D01*
X356472Y215963D01*
X356180Y215257D01*
X356081Y214509D01*
X356072Y214490D01*
X356066Y214300D01*
X356046Y214133D01*
X356010Y213968D01*
X355960Y213805D01*
X355894Y213642D01*
X355812Y213480D01*
X355713Y213318D01*
X355597Y213156D01*
X355463Y212994D01*
X355302Y212823D01*
X355297Y212811D01*
X342414Y199927D01*
X333505D01*
X332959Y199819D01*
X332496Y199509D01*
X332496Y199509D01*
X324694Y191708D01*
X324682Y191703D01*
X324511Y191542D01*
X324349Y191408D01*
X324187Y191292D01*
X324025Y191193D01*
X323863Y191111D01*
X323700Y191045D01*
X323537Y190995D01*
X323372Y190959D01*
X323205Y190939D01*
X323015Y190933D01*
X322996Y190924D01*
X322248Y190825D01*
X321543Y190533D01*
X320937Y190068D01*
X320472Y189462D01*
X320180Y188757D01*
X320080Y188000D01*
X320180Y187243D01*
X320472Y186538D01*
X320937Y185932D01*
X321543Y185467D01*
X322248Y185175D01*
X323005Y185075D01*
X323762Y185175D01*
X324467Y185467D01*
X325073Y185932D01*
X325538Y186538D01*
X325830Y187243D01*
X325929Y187991D01*
X325938Y188011D01*
X325944Y188200D01*
X325964Y188367D01*
X326000Y188532D01*
X326050Y188695D01*
X326116Y188858D01*
X326198Y189020D01*
X326297Y189182D01*
X326413Y189344D01*
X326547Y189506D01*
X326708Y189677D01*
X326713Y189689D01*
X334096Y197073D01*
X343005D01*
X343005Y197073D01*
X343551Y197181D01*
X344014Y197491D01*
X357316Y210792D01*
X357328Y210797D01*
X357499Y210958D01*
X357661Y211092D01*
X357823Y211208D01*
X357985Y211307D01*
X358147Y211389D01*
X358310Y211455D01*
X358473Y211505D01*
X358638Y211541D01*
X358805Y211561D01*
X358995Y211567D01*
X359014Y211576D01*
X359762Y211675D01*
X360468Y211967D01*
X361073Y212432D01*
X361538Y213037D01*
X361830Y213743D01*
X361930Y214500D01*
X361830Y215257D01*
X361538Y215963D01*
X361073Y216568D01*
X360468Y217033D01*
X359762Y217325D01*
X359005Y217425D01*
D02*
G37*
G36*
X52970Y71839D02*
X51617Y71706D01*
X50316Y71311D01*
X49118Y70670D01*
X48067Y69808D01*
X47205Y68757D01*
X46564Y67559D01*
X46169Y66258D01*
X46036Y64906D01*
X46169Y63553D01*
X46564Y62252D01*
X47205Y61054D01*
X48067Y60003D01*
X49118Y59141D01*
X50316Y58500D01*
X51617Y58105D01*
X52970Y57972D01*
X54322Y58105D01*
X55623Y58500D01*
X56822Y59141D01*
X57872Y60003D01*
X58735Y61054D01*
X59375Y62252D01*
X59770Y63553D01*
X59903Y64906D01*
X59770Y66258D01*
X59375Y67559D01*
X58735Y68757D01*
X57872Y69808D01*
X56822Y70670D01*
X55623Y71311D01*
X54322Y71706D01*
X52970Y71839D01*
D02*
G37*
G36*
X534135Y123825D02*
X532706Y123684D01*
X531332Y123267D01*
X530065Y122590D01*
X528955Y121680D01*
X528044Y120570D01*
X527367Y119303D01*
X526951Y117929D01*
X526810Y116500D01*
X526951Y115071D01*
X527367Y113697D01*
X528044Y112430D01*
X528955Y111320D01*
X530065Y110409D01*
X531332Y109732D01*
X532706Y109316D01*
X534135Y109175D01*
X535564Y109316D01*
X536938Y109732D01*
X538204Y110409D01*
X539315Y111320D01*
X540226Y112430D01*
X540902Y113697D01*
X541319Y115071D01*
X541460Y116500D01*
X541319Y117929D01*
X540902Y119303D01*
X540226Y120570D01*
X539315Y121680D01*
X538204Y122590D01*
X536938Y123267D01*
X535564Y123684D01*
X534135Y123825D01*
D02*
G37*
G36*
X338505Y117925D02*
X337748Y117825D01*
X337042Y117533D01*
X336437Y117068D01*
X335972Y116463D01*
X335680Y115757D01*
X335580Y115000D01*
X335680Y114243D01*
X335972Y113538D01*
X336437Y112932D01*
X337042Y112467D01*
X337748Y112175D01*
X338505Y112075D01*
X339196Y112166D01*
X339198Y112165D01*
X339199Y112165D01*
X339253Y112135D01*
X339322Y112087D01*
X339836Y111640D01*
X339995Y111484D01*
X340022Y111473D01*
X340459Y111181D01*
X341005Y111073D01*
X349689D01*
X349701Y111067D01*
X349936Y111060D01*
X350145Y111040D01*
X350342Y111008D01*
X350526Y110963D01*
X350699Y110907D01*
X350860Y110838D01*
X351011Y110759D01*
X351153Y110667D01*
X351286Y110563D01*
X351424Y110434D01*
X351444Y110426D01*
X352043Y109967D01*
X352748Y109675D01*
X353505Y109575D01*
X354262Y109675D01*
X354967Y109967D01*
X355573Y110432D01*
X356038Y111038D01*
X356330Y111743D01*
X356430Y112500D01*
X356330Y113257D01*
X356038Y113962D01*
X355573Y114568D01*
X354967Y115033D01*
X354262Y115325D01*
X353505Y115425D01*
X352748Y115325D01*
X352043Y115033D01*
X351444Y114574D01*
X351424Y114566D01*
X351286Y114437D01*
X351153Y114333D01*
X351011Y114241D01*
X350860Y114162D01*
X350699Y114093D01*
X350526Y114037D01*
X350342Y113992D01*
X350145Y113960D01*
X349936Y113940D01*
X349701Y113933D01*
X349689Y113927D01*
X341629D01*
X341500Y114076D01*
X341425Y114173D01*
X341371Y114252D01*
X341340Y114306D01*
X341340Y114307D01*
X341339Y114309D01*
X341430Y115000D01*
X341330Y115757D01*
X341038Y116463D01*
X340573Y117068D01*
X339967Y117533D01*
X339262Y117825D01*
X338505Y117925D01*
D02*
G37*
G36*
X496005Y71825D02*
X494576Y71684D01*
X493202Y71267D01*
X491935Y70591D01*
X490825Y69680D01*
X489915Y68570D01*
X489238Y67303D01*
X488821Y65929D01*
X488680Y64500D01*
X488821Y63071D01*
X489238Y61697D01*
X489915Y60430D01*
X490825Y59320D01*
X491935Y58410D01*
X493202Y57733D01*
X494576Y57316D01*
X496005Y57175D01*
X497434Y57316D01*
X498808Y57733D01*
X500075Y58410D01*
X501185Y59320D01*
X502096Y60430D01*
X502773Y61697D01*
X503189Y63071D01*
X503330Y64500D01*
X503189Y65929D01*
X502773Y67303D01*
X502096Y68570D01*
X501185Y69680D01*
X500075Y70591D01*
X498808Y71267D01*
X497434Y71684D01*
X496005Y71825D01*
D02*
G37*
G36*
X256525Y43278D02*
X255096Y43137D01*
X253721Y42720D01*
X252455Y42043D01*
X251345Y41132D01*
X250434Y40022D01*
X249757Y38756D01*
X249340Y37382D01*
X249200Y35953D01*
Y30047D01*
X249340Y28618D01*
X249757Y27244D01*
X250434Y25978D01*
X251345Y24868D01*
X252455Y23957D01*
X253721Y23280D01*
X255096Y22863D01*
X256525Y22722D01*
X257954Y22863D01*
X259328Y23280D01*
X260594Y23957D01*
X261704Y24868D01*
X262615Y25978D01*
X263292Y27244D01*
X263709Y28618D01*
X263850Y30047D01*
Y35953D01*
X263709Y37382D01*
X263292Y38756D01*
X262615Y40022D01*
X261704Y41132D01*
X260594Y42043D01*
X259328Y42720D01*
X257954Y43137D01*
X256525Y43278D01*
D02*
G37*
G36*
X331485D02*
X330056Y43137D01*
X328682Y42720D01*
X327416Y42043D01*
X326306Y41132D01*
X325395Y40022D01*
X324718Y38756D01*
X324301Y37382D01*
X324160Y35953D01*
Y30047D01*
X324301Y28618D01*
X324718Y27244D01*
X325395Y25978D01*
X326306Y24868D01*
X327416Y23957D01*
X328682Y23280D01*
X330056Y22863D01*
X331485Y22722D01*
X332914Y22863D01*
X334289Y23280D01*
X335555Y23957D01*
X336665Y24868D01*
X337576Y25978D01*
X338253Y27244D01*
X338670Y28618D01*
X338810Y30047D01*
Y35953D01*
X338670Y37382D01*
X338253Y38756D01*
X337576Y40022D01*
X336665Y41132D01*
X335555Y42043D01*
X334289Y42720D01*
X332914Y43137D01*
X331485Y43278D01*
D02*
G37*
G36*
X406005Y71695D02*
X404576Y71554D01*
X403202Y71137D01*
X401935Y70461D01*
X400825Y69550D01*
X399915Y68440D01*
X399238Y67173D01*
X398821Y65799D01*
X398680Y64370D01*
X398821Y62941D01*
X399238Y61567D01*
X399915Y60300D01*
X400825Y59190D01*
X401935Y58280D01*
X403202Y57603D01*
X404576Y57186D01*
X406005Y57045D01*
X407434Y57186D01*
X408808Y57603D01*
X410075Y58280D01*
X411185Y59190D01*
X412095Y60300D01*
X412773Y61567D01*
X413189Y62941D01*
X413330Y64370D01*
X413189Y65799D01*
X412773Y67173D01*
X412095Y68440D01*
X411185Y69550D01*
X410075Y70461D01*
X408808Y71137D01*
X407434Y71554D01*
X406005Y71695D01*
D02*
G37*
G36*
X339005Y125925D02*
X338248Y125825D01*
X337543Y125533D01*
X336937Y125068D01*
X336472Y124462D01*
X336180Y123757D01*
X336080Y123000D01*
X336180Y122243D01*
X336472Y121537D01*
X336937Y120932D01*
X337543Y120467D01*
X338248Y120175D01*
X339005Y120075D01*
X339762Y120175D01*
X340468Y120467D01*
X341059Y120921D01*
X341080Y120928D01*
X341177Y121016D01*
X341269Y121081D01*
X341379Y121141D01*
X341509Y121197D01*
X341657Y121246D01*
X341826Y121288D01*
X342009Y121321D01*
X342457Y121362D01*
X342707Y121367D01*
X342711Y121369D01*
X344829D01*
X347851Y118347D01*
X348381Y117993D01*
X349005Y117869D01*
X351291D01*
X351293Y117867D01*
X351791Y117846D01*
X351995Y117822D01*
X352184Y117788D01*
X352353Y117746D01*
X352502Y117697D01*
X352631Y117641D01*
X352741Y117580D01*
X352833Y117516D01*
X352930Y117428D01*
X352951Y117421D01*
X353542Y116967D01*
X354248Y116675D01*
X355005Y116575D01*
X355762Y116675D01*
X356468Y116967D01*
X357073Y117432D01*
X357538Y118037D01*
X357830Y118743D01*
X357930Y119500D01*
X357830Y120257D01*
X357538Y120963D01*
X357073Y121568D01*
X356468Y122033D01*
X355762Y122325D01*
X355005Y122425D01*
X354248Y122325D01*
X353542Y122033D01*
X352951Y121579D01*
X352930Y121572D01*
X352833Y121484D01*
X352741Y121420D01*
X352631Y121359D01*
X352502Y121303D01*
X352353Y121254D01*
X352184Y121212D01*
X352000Y121179D01*
X351553Y121138D01*
X351303Y121133D01*
X351299Y121131D01*
X349681D01*
X346658Y124153D01*
X346129Y124507D01*
X345505Y124631D01*
X342719D01*
X342717Y124633D01*
X342219Y124654D01*
X342015Y124678D01*
X341826Y124712D01*
X341657Y124754D01*
X341509Y124803D01*
X341379Y124859D01*
X341269Y124919D01*
X341177Y124985D01*
X341080Y125072D01*
X341059Y125079D01*
X340468Y125533D01*
X339762Y125825D01*
X339005Y125925D01*
D02*
G37*
G36*
X349525Y172173D02*
X346572D01*
X346224Y172104D01*
X345929Y171907D01*
X345732Y171612D01*
X345662Y171264D01*
Y166736D01*
X345732Y166388D01*
X345929Y166093D01*
X346224Y165896D01*
X346572Y165827D01*
X349525D01*
X349873Y165896D01*
X350168Y166093D01*
X350365Y166388D01*
X350434Y166736D01*
Y171264D01*
X350365Y171612D01*
X350168Y171907D01*
X349873Y172104D01*
X349525Y172173D01*
D02*
G37*
G36*
X240118Y168633D02*
X237652D01*
X237631Y168624D01*
X237610Y168631D01*
X235116Y168385D01*
X235097Y168375D01*
X235074Y168379D01*
X232617Y167890D01*
X232598Y167878D01*
X232576Y167880D01*
X230178Y167153D01*
X230161Y167138D01*
X230138D01*
X227823Y166180D01*
X227807Y166164D01*
X227785Y166161D01*
X225575Y164980D01*
X225561Y164963D01*
X225539Y164958D01*
X223456Y163567D01*
X223443Y163548D01*
X223422Y163541D01*
X221485Y161952D01*
X221474Y161932D01*
X221453Y161923D01*
X219682Y160152D01*
X219673Y160131D01*
X219653Y160120D01*
X218064Y158183D01*
X218057Y158162D01*
X218039Y158149D01*
X216647Y156066D01*
X216642Y156044D01*
X216625Y156029D01*
X215444Y153820D01*
X215441Y153797D01*
X215425Y153781D01*
X214467Y151467D01*
Y151444D01*
X214452Y151427D01*
X213725Y149029D01*
X213727Y149007D01*
X213715Y148988D01*
X213226Y146531D01*
X213230Y146509D01*
X213220Y146489D01*
X212974Y143995D01*
X212981Y143974D01*
X212972Y143953D01*
Y141287D01*
X212981Y141266D01*
X212974Y141244D01*
X213212Y138829D01*
X213223Y138809D01*
X213218Y138787D01*
X213692Y136407D01*
X213704Y136388D01*
X213702Y136365D01*
X214406Y134043D01*
X214421Y134026D01*
Y134003D01*
X215350Y131761D01*
X215366Y131745D01*
X215368Y131723D01*
X216512Y129582D01*
X216529Y129568D01*
X216534Y129546D01*
X217882Y127528D01*
X217901Y127515D01*
X217907Y127494D01*
X219447Y125618D01*
X219467Y125607D01*
X219475Y125586D01*
X221191Y123870D01*
X221212Y123862D01*
X221223Y123842D01*
X223099Y122302D01*
X223120Y122296D01*
X223133Y122277D01*
X225151Y120929D01*
X225173Y120924D01*
X225187Y120907D01*
X227328Y119763D01*
X227350Y119761D01*
X227366Y119745D01*
X229608Y118816D01*
X229631D01*
X229648Y118801D01*
X231971Y118097D01*
X231993Y118099D01*
X232012Y118087D01*
X234392Y117613D01*
X234414Y117618D01*
X234434Y117607D01*
X236849Y117369D01*
X236871Y117376D01*
X236892Y117367D01*
X240118D01*
X240139Y117376D01*
X240161Y117369D01*
X242576Y117607D01*
X242596Y117618D01*
X242618Y117613D01*
X244998Y118087D01*
X245017Y118099D01*
X245040Y118097D01*
X247362Y118801D01*
X247379Y118816D01*
X247402D01*
X249644Y119745D01*
X249660Y119761D01*
X249682Y119763D01*
X251823Y120907D01*
X251837Y120924D01*
X251859Y120929D01*
X253877Y122277D01*
X253890Y122296D01*
X253911Y122302D01*
X255787Y123842D01*
X255798Y123862D01*
X255819Y123870D01*
X257535Y125586D01*
X257543Y125607D01*
X257563Y125618D01*
X259103Y127494D01*
X259109Y127515D01*
X259128Y127528D01*
X260476Y129546D01*
X260481Y129568D01*
X260498Y129582D01*
X261642Y131723D01*
X261645Y131745D01*
X261661Y131761D01*
X262589Y134003D01*
Y134026D01*
X262603Y134043D01*
X263308Y136365D01*
X263306Y136388D01*
X263318Y136407D01*
X263792Y138787D01*
X263787Y138809D01*
X263798Y138829D01*
X264036Y141244D01*
X264029Y141266D01*
X264038Y141287D01*
Y144713D01*
X264029Y144734D01*
X264036Y144756D01*
X263798Y147171D01*
X263787Y147191D01*
X263792Y147213D01*
X263318Y149593D01*
X263306Y149612D01*
X263308Y149635D01*
X262603Y151957D01*
X262589Y151974D01*
Y151997D01*
X261661Y154239D01*
X261645Y154255D01*
X261642Y154277D01*
X260498Y156418D01*
X260481Y156432D01*
X260476Y156454D01*
X259128Y158472D01*
X259109Y158485D01*
X259103Y158506D01*
X257563Y160382D01*
X257543Y160393D01*
X257535Y160414D01*
X255819Y162130D01*
X255798Y162138D01*
X255787Y162158D01*
X253911Y163698D01*
X253890Y163704D01*
X253877Y163723D01*
X251859Y165071D01*
X251837Y165076D01*
X251823Y165093D01*
X249682Y166237D01*
X249660Y166240D01*
X249644Y166255D01*
X247402Y167184D01*
X247379D01*
X247362Y167199D01*
X245040Y167903D01*
X245017Y167901D01*
X244998Y167913D01*
X242618Y168387D01*
X242596Y168382D01*
X242576Y168393D01*
X240161Y168631D01*
X240139Y168624D01*
X240118Y168633D01*
D02*
G37*
G36*
X361505Y202425D02*
X360748Y202325D01*
X360043Y202033D01*
X359437Y201568D01*
X358972Y200962D01*
X358680Y200257D01*
X358581Y199509D01*
X358572Y199489D01*
X358566Y199300D01*
X358546Y199133D01*
X358510Y198968D01*
X358460Y198805D01*
X358394Y198642D01*
X358312Y198480D01*
X358213Y198318D01*
X358097Y198156D01*
X357963Y197994D01*
X357802Y197823D01*
X357797Y197811D01*
X354694Y194708D01*
X354682Y194703D01*
X354511Y194542D01*
X354349Y194408D01*
X354187Y194292D01*
X354025Y194193D01*
X353863Y194111D01*
X353700Y194045D01*
X353537Y193995D01*
X353372Y193959D01*
X353205Y193939D01*
X353015Y193933D01*
X352996Y193924D01*
X352248Y193825D01*
X351542Y193533D01*
X350937Y193068D01*
X350472Y192463D01*
X350180Y191757D01*
X350080Y191000D01*
X350180Y190243D01*
X350472Y189538D01*
X350937Y188932D01*
X351542Y188467D01*
X352248Y188175D01*
X353005Y188075D01*
X353762Y188175D01*
X354468Y188467D01*
X355073Y188932D01*
X355538Y189538D01*
X355830Y190243D01*
X355929Y190991D01*
X355938Y191010D01*
X355944Y191200D01*
X355964Y191367D01*
X356000Y191532D01*
X356050Y191695D01*
X356116Y191858D01*
X356198Y192020D01*
X356297Y192182D01*
X356413Y192344D01*
X356547Y192506D01*
X356708Y192677D01*
X356713Y192689D01*
X359816Y195792D01*
X359828Y195797D01*
X359999Y195958D01*
X360161Y196092D01*
X360323Y196208D01*
X360485Y196307D01*
X360647Y196389D01*
X360810Y196455D01*
X360973Y196505D01*
X361138Y196541D01*
X361305Y196561D01*
X361494Y196567D01*
X361514Y196576D01*
X362262Y196675D01*
X362967Y196967D01*
X363573Y197432D01*
X364038Y198038D01*
X364330Y198743D01*
X364430Y199500D01*
X364330Y200257D01*
X364038Y200962D01*
X363573Y201568D01*
X362967Y202033D01*
X362262Y202325D01*
X361505Y202425D01*
D02*
G37*
G36*
X349525Y164673D02*
X346572D01*
X346224Y164604D01*
X345929Y164407D01*
X345732Y164112D01*
X345662Y163764D01*
Y159236D01*
X345732Y158888D01*
X345929Y158593D01*
X346224Y158396D01*
X346572Y158327D01*
X349525D01*
X349873Y158396D01*
X350168Y158593D01*
X350365Y158888D01*
X350434Y159236D01*
Y163764D01*
X350365Y164112D01*
X350168Y164407D01*
X349873Y164604D01*
X349525Y164673D01*
D02*
G37*
G36*
X384005Y134938D02*
X382856Y134787D01*
X381786Y134343D01*
X380867Y133638D01*
X380162Y132719D01*
X379718Y131649D01*
X379567Y130500D01*
X379718Y129351D01*
X380162Y128281D01*
X380867Y127362D01*
X381786Y126657D01*
X382856Y126213D01*
X384005Y126062D01*
X385154Y126213D01*
X386224Y126657D01*
X387143Y127362D01*
X387848Y128281D01*
X388292Y129351D01*
X388443Y130500D01*
X388292Y131649D01*
X387848Y132719D01*
X387143Y133638D01*
X386224Y134343D01*
X385154Y134787D01*
X384005Y134938D01*
D02*
G37*
G36*
Y144938D02*
X382856Y144787D01*
X381786Y144343D01*
X380867Y143638D01*
X380162Y142719D01*
X379718Y141649D01*
X379567Y140500D01*
X379718Y139351D01*
X380162Y138281D01*
X380867Y137362D01*
X381786Y136657D01*
X382856Y136213D01*
X384005Y136062D01*
X385154Y136213D01*
X386224Y136657D01*
X387143Y137362D01*
X387848Y138281D01*
X388292Y139351D01*
X388443Y140500D01*
X388292Y141649D01*
X387848Y142719D01*
X387143Y143638D01*
X386224Y144343D01*
X385154Y144787D01*
X384005Y144938D01*
D02*
G37*
G36*
X349608Y157234D02*
X346213D01*
X345836Y157159D01*
X345516Y156945D01*
X345303Y156626D01*
X345228Y156249D01*
Y146751D01*
X345303Y146374D01*
X345516Y146055D01*
X345836Y145841D01*
X346213Y145766D01*
X349608D01*
X349985Y145841D01*
X350305Y146055D01*
X350518Y146374D01*
X350593Y146751D01*
Y156249D01*
X350518Y156626D01*
X350305Y156945D01*
X349985Y157159D01*
X349608Y157234D01*
D02*
G37*
G36*
X403505Y393428D02*
X399505D01*
X398348Y393315D01*
X397236Y392977D01*
X396211Y392429D01*
X395313Y391692D01*
X394576Y390794D01*
X394028Y389769D01*
X393690Y388657D01*
X393577Y387500D01*
X393690Y386343D01*
X394028Y385231D01*
X394576Y384206D01*
X395313Y383308D01*
X396211Y382571D01*
X397236Y382023D01*
X398348Y381685D01*
X399505Y381572D01*
X403505D01*
X404662Y381685D01*
X405774Y382023D01*
X406799Y382571D01*
X407697Y383308D01*
X408434Y384206D01*
X408982Y385231D01*
X409320Y386343D01*
X409434Y387500D01*
X409320Y388657D01*
X408982Y389769D01*
X408434Y390794D01*
X407697Y391692D01*
X406799Y392429D01*
X405774Y392977D01*
X404662Y393315D01*
X403505Y393428D01*
D02*
G37*
G36*
X493505D02*
X489505D01*
X488348Y393315D01*
X487236Y392977D01*
X486211Y392429D01*
X485313Y391692D01*
X484576Y390794D01*
X484028Y389769D01*
X483690Y388657D01*
X483576Y387500D01*
X483690Y386343D01*
X484028Y385231D01*
X484576Y384206D01*
X485313Y383308D01*
X486211Y382571D01*
X487236Y382023D01*
X488348Y381685D01*
X489505Y381572D01*
X493505D01*
X494662Y381685D01*
X495774Y382023D01*
X496799Y382571D01*
X497697Y383308D01*
X498434Y384206D01*
X498982Y385231D01*
X499320Y386343D01*
X499434Y387500D01*
X499320Y388657D01*
X498982Y389769D01*
X498434Y390794D01*
X497697Y391692D01*
X496799Y392429D01*
X495774Y392977D01*
X494662Y393315D01*
X493505Y393428D01*
D02*
G37*
G36*
X377974Y407336D02*
X374037D01*
X372800Y407214D01*
X371612Y406854D01*
X370516Y406268D01*
X369556Y405480D01*
X368768Y404520D01*
X368183Y403425D01*
X367822Y402236D01*
X367701Y401000D01*
X367822Y399764D01*
X368183Y398575D01*
X368768Y397480D01*
X369556Y396520D01*
X370516Y395732D01*
X371612Y395146D01*
X372800Y394786D01*
X374037Y394664D01*
X377974D01*
X379210Y394786D01*
X380398Y395146D01*
X381494Y395732D01*
X382454Y396520D01*
X383242Y397480D01*
X383827Y398575D01*
X384188Y399764D01*
X384310Y401000D01*
X384188Y402236D01*
X383827Y403425D01*
X383242Y404520D01*
X382454Y405480D01*
X381494Y406268D01*
X380398Y406854D01*
X379210Y407214D01*
X377974Y407336D01*
D02*
G37*
G36*
Y447336D02*
X374037D01*
X372800Y447214D01*
X371612Y446854D01*
X370516Y446268D01*
X369556Y445480D01*
X368768Y444520D01*
X368183Y443425D01*
X367822Y442236D01*
X367701Y441000D01*
X367822Y439764D01*
X368183Y438575D01*
X368768Y437480D01*
X369556Y436520D01*
X370516Y435732D01*
X371612Y435146D01*
X372800Y434786D01*
X374037Y434664D01*
X377974D01*
X379210Y434786D01*
X380398Y435146D01*
X381494Y435732D01*
X382454Y436520D01*
X383242Y437480D01*
X383827Y438575D01*
X384188Y439764D01*
X384310Y441000D01*
X384188Y442236D01*
X383827Y443425D01*
X383242Y444520D01*
X382454Y445480D01*
X381494Y446268D01*
X380398Y446854D01*
X379210Y447214D01*
X377974Y447336D01*
D02*
G37*
G36*
X493505Y453429D02*
X489505D01*
X488348Y453315D01*
X487236Y452977D01*
X486211Y452429D01*
X485313Y451692D01*
X484576Y450794D01*
X484028Y449769D01*
X483690Y448657D01*
X483576Y447500D01*
X483690Y446343D01*
X484028Y445231D01*
X484576Y444206D01*
X485313Y443308D01*
X486211Y442571D01*
X487236Y442023D01*
X488348Y441685D01*
X489505Y441572D01*
X493505D01*
X494662Y441685D01*
X495774Y442023D01*
X496799Y442571D01*
X497697Y443308D01*
X498434Y444206D01*
X498982Y445231D01*
X499320Y446343D01*
X499434Y447500D01*
X499320Y448657D01*
X498982Y449769D01*
X498434Y450794D01*
X497697Y451692D01*
X496799Y452429D01*
X495774Y452977D01*
X494662Y453315D01*
X493505Y453429D01*
D02*
G37*
G36*
X403505D02*
X399505D01*
X398348Y453315D01*
X397236Y452977D01*
X396211Y452429D01*
X395313Y451692D01*
X394576Y450794D01*
X394028Y449769D01*
X393690Y448657D01*
X393577Y447500D01*
X393690Y446343D01*
X394028Y445231D01*
X394576Y444206D01*
X395313Y443308D01*
X396211Y442571D01*
X397236Y442023D01*
X398348Y441685D01*
X399505Y441572D01*
X403505D01*
X404662Y441685D01*
X405774Y442023D01*
X406799Y442571D01*
X407697Y443308D01*
X408434Y444206D01*
X408982Y445231D01*
X409320Y446343D01*
X409434Y447500D01*
X409320Y448657D01*
X408982Y449769D01*
X408434Y450794D01*
X407697Y451692D01*
X406799Y452429D01*
X405774Y452977D01*
X404662Y453315D01*
X403505Y453429D01*
D02*
G37*
G36*
X517974Y447336D02*
X514037D01*
X512800Y447214D01*
X511612Y446854D01*
X510516Y446268D01*
X509556Y445480D01*
X508768Y444520D01*
X508183Y443425D01*
X507822Y442236D01*
X507700Y441000D01*
X507822Y439764D01*
X508183Y438575D01*
X508768Y437480D01*
X509556Y436520D01*
X510516Y435732D01*
X511612Y435146D01*
X512800Y434786D01*
X514037Y434664D01*
X517974D01*
X519210Y434786D01*
X520398Y435146D01*
X521494Y435732D01*
X522454Y436520D01*
X523242Y437480D01*
X523827Y438575D01*
X524188Y439764D01*
X524309Y441000D01*
X524188Y442236D01*
X523827Y443425D01*
X523242Y444520D01*
X522454Y445480D01*
X521494Y446268D01*
X520398Y446854D01*
X519210Y447214D01*
X517974Y447336D01*
D02*
G37*
G36*
X493505Y433428D02*
X489505D01*
X488348Y433315D01*
X487236Y432977D01*
X486211Y432429D01*
X485313Y431692D01*
X484576Y430794D01*
X484028Y429769D01*
X483690Y428657D01*
X483576Y427500D01*
X483690Y426343D01*
X484028Y425231D01*
X484576Y424206D01*
X485313Y423308D01*
X486211Y422571D01*
X487236Y422023D01*
X488348Y421685D01*
X489505Y421571D01*
X493505D01*
X494662Y421685D01*
X495774Y422023D01*
X496799Y422571D01*
X497697Y423308D01*
X498434Y424206D01*
X498982Y425231D01*
X499320Y426343D01*
X499434Y427500D01*
X499320Y428657D01*
X498982Y429769D01*
X498434Y430794D01*
X497697Y431692D01*
X496799Y432429D01*
X495774Y432977D01*
X494662Y433315D01*
X493505Y433428D01*
D02*
G37*
G36*
X377974Y427336D02*
X374037D01*
X372800Y427214D01*
X371612Y426854D01*
X370516Y426268D01*
X369556Y425480D01*
X368768Y424520D01*
X368183Y423425D01*
X367822Y422236D01*
X367701Y421000D01*
X367822Y419764D01*
X368183Y418575D01*
X368768Y417480D01*
X369556Y416520D01*
X370516Y415732D01*
X371612Y415146D01*
X372800Y414786D01*
X374037Y414664D01*
X377974D01*
X379210Y414786D01*
X380398Y415146D01*
X381494Y415732D01*
X382454Y416520D01*
X383242Y417480D01*
X383827Y418575D01*
X384188Y419764D01*
X384310Y421000D01*
X384188Y422236D01*
X383827Y423425D01*
X383242Y424520D01*
X382454Y425480D01*
X381494Y426268D01*
X380398Y426854D01*
X379210Y427214D01*
X377974Y427336D01*
D02*
G37*
G36*
X517974D02*
X514037D01*
X512800Y427214D01*
X511612Y426854D01*
X510516Y426268D01*
X509556Y425480D01*
X508768Y424520D01*
X508183Y423425D01*
X507822Y422236D01*
X507700Y421000D01*
X507822Y419764D01*
X508183Y418575D01*
X508768Y417480D01*
X509556Y416520D01*
X510516Y415732D01*
X511612Y415146D01*
X512800Y414786D01*
X514037Y414664D01*
X517974D01*
X519210Y414786D01*
X520398Y415146D01*
X521494Y415732D01*
X522454Y416520D01*
X523242Y417480D01*
X523827Y418575D01*
X524188Y419764D01*
X524309Y421000D01*
X524188Y422236D01*
X523827Y423425D01*
X523242Y424520D01*
X522454Y425480D01*
X521494Y426268D01*
X520398Y426854D01*
X519210Y427214D01*
X517974Y427336D01*
D02*
G37*
G36*
X403505Y433428D02*
X399505D01*
X398348Y433315D01*
X397236Y432977D01*
X396211Y432429D01*
X395313Y431692D01*
X394576Y430794D01*
X394028Y429769D01*
X393690Y428657D01*
X393577Y427500D01*
X393690Y426343D01*
X394028Y425231D01*
X394576Y424206D01*
X395313Y423308D01*
X396211Y422571D01*
X397236Y422023D01*
X398348Y421685D01*
X399505Y421571D01*
X403505D01*
X404662Y421685D01*
X405774Y422023D01*
X406799Y422571D01*
X407697Y423308D01*
X408434Y424206D01*
X408982Y425231D01*
X409320Y426343D01*
X409434Y427500D01*
X409320Y428657D01*
X408982Y429769D01*
X408434Y430794D01*
X407697Y431692D01*
X406799Y432429D01*
X405774Y432977D01*
X404662Y433315D01*
X403505Y433428D01*
D02*
G37*
G36*
X315418Y404933D02*
X312952D01*
X312931Y404924D01*
X312910Y404931D01*
X310416Y404685D01*
X310397Y404675D01*
X310374Y404679D01*
X307917Y404190D01*
X307898Y404178D01*
X307876Y404180D01*
X305478Y403453D01*
X305461Y403438D01*
X305438D01*
X303123Y402480D01*
X303108Y402464D01*
X303085Y402461D01*
X300875Y401280D01*
X300861Y401263D01*
X300839Y401258D01*
X298756Y399867D01*
X298743Y399848D01*
X298722Y399841D01*
X296785Y398252D01*
X296774Y398232D01*
X296753Y398223D01*
X294982Y396451D01*
X294973Y396431D01*
X294953Y396420D01*
X293364Y394483D01*
X293357Y394462D01*
X293338Y394449D01*
X291947Y392366D01*
X291942Y392344D01*
X291925Y392330D01*
X290744Y390120D01*
X290741Y390097D01*
X290725Y390082D01*
X289767Y387767D01*
Y387744D01*
X289752Y387727D01*
X289025Y385329D01*
X289027Y385307D01*
X289015Y385288D01*
X288526Y382831D01*
X288530Y382808D01*
X288520Y382789D01*
X288274Y380295D01*
X288281Y380274D01*
X288272Y380253D01*
Y377587D01*
X288281Y377566D01*
X288274Y377544D01*
X288512Y375129D01*
X288523Y375109D01*
X288518Y375087D01*
X288992Y372707D01*
X289004Y372688D01*
X289002Y372666D01*
X289706Y370343D01*
X289721Y370326D01*
Y370303D01*
X290650Y368061D01*
X290666Y368045D01*
X290668Y368023D01*
X291812Y365882D01*
X291829Y365868D01*
X291834Y365846D01*
X293182Y363828D01*
X293201Y363815D01*
X293207Y363794D01*
X294747Y361918D01*
X294767Y361907D01*
X294775Y361886D01*
X296491Y360170D01*
X296512Y360162D01*
X296523Y360142D01*
X298399Y358602D01*
X298420Y358596D01*
X298433Y358577D01*
X300451Y357229D01*
X300473Y357224D01*
X300487Y357207D01*
X302628Y356063D01*
X302650Y356061D01*
X302666Y356045D01*
X304908Y355116D01*
X304931D01*
X304948Y355101D01*
X307271Y354397D01*
X307293Y354399D01*
X307312Y354387D01*
X309692Y353913D01*
X309714Y353918D01*
X309734Y353907D01*
X312149Y353669D01*
X312171Y353676D01*
X312192Y353667D01*
X315418D01*
X315439Y353676D01*
X315461Y353669D01*
X317876Y353907D01*
X317896Y353918D01*
X317918Y353913D01*
X320298Y354387D01*
X320317Y354399D01*
X320339Y354397D01*
X322662Y355101D01*
X322679Y355116D01*
X322702D01*
X324944Y356045D01*
X324960Y356061D01*
X324982Y356063D01*
X327123Y357207D01*
X327137Y357224D01*
X327159Y357229D01*
X329177Y358577D01*
X329190Y358596D01*
X329211Y358602D01*
X331087Y360142D01*
X331098Y360162D01*
X331119Y360170D01*
X332835Y361886D01*
X332843Y361907D01*
X332863Y361918D01*
X334403Y363794D01*
X334409Y363815D01*
X334428Y363828D01*
X335776Y365846D01*
X335781Y365868D01*
X335798Y365882D01*
X336942Y368023D01*
X336945Y368045D01*
X336961Y368061D01*
X337889Y370303D01*
Y370326D01*
X337903Y370343D01*
X338608Y372666D01*
X338606Y372688D01*
X338618Y372707D01*
X339092Y375087D01*
X339087Y375109D01*
X339098Y375129D01*
X339336Y377544D01*
X339329Y377566D01*
X339338Y377587D01*
Y381013D01*
X339329Y381034D01*
X339336Y381056D01*
X339098Y383471D01*
X339087Y383491D01*
X339092Y383513D01*
X338618Y385893D01*
X338606Y385912D01*
X338608Y385934D01*
X337903Y388257D01*
X337889Y388274D01*
Y388297D01*
X336961Y390539D01*
X336945Y390555D01*
X336942Y390577D01*
X335798Y392718D01*
X335781Y392732D01*
X335776Y392754D01*
X334428Y394772D01*
X334409Y394785D01*
X334403Y394806D01*
X332863Y396682D01*
X332843Y396693D01*
X332835Y396714D01*
X331119Y398430D01*
X331098Y398438D01*
X331087Y398458D01*
X329211Y399998D01*
X329190Y400004D01*
X329177Y400023D01*
X327159Y401371D01*
X327137Y401376D01*
X327123Y401393D01*
X324982Y402537D01*
X324960Y402539D01*
X324944Y402556D01*
X322702Y403484D01*
X322679D01*
X322662Y403499D01*
X320339Y404203D01*
X320317Y404201D01*
X320298Y404213D01*
X317918Y404687D01*
X317896Y404682D01*
X317876Y404693D01*
X315461Y404931D01*
X315439Y404924D01*
X315418Y404933D01*
D02*
G37*
G36*
X517974Y407336D02*
X514037D01*
X512800Y407214D01*
X511612Y406854D01*
X510516Y406268D01*
X509556Y405480D01*
X508768Y404520D01*
X508183Y403425D01*
X507822Y402236D01*
X507700Y401000D01*
X507822Y399764D01*
X508183Y398575D01*
X508768Y397480D01*
X509556Y396520D01*
X510516Y395732D01*
X511612Y395146D01*
X512800Y394786D01*
X514037Y394664D01*
X517974D01*
X519210Y394786D01*
X520398Y395146D01*
X521494Y395732D01*
X522454Y396520D01*
X523242Y397480D01*
X523827Y398575D01*
X524188Y399764D01*
X524309Y401000D01*
X524188Y402236D01*
X523827Y403425D01*
X523242Y404520D01*
X522454Y405480D01*
X521494Y406268D01*
X520398Y406854D01*
X519210Y407214D01*
X517974Y407336D01*
D02*
G37*
G36*
X403505Y413428D02*
X399505D01*
X398348Y413315D01*
X397236Y412977D01*
X396211Y412429D01*
X395313Y411692D01*
X394576Y410794D01*
X394028Y409769D01*
X393690Y408657D01*
X393577Y407500D01*
X393690Y406343D01*
X394028Y405231D01*
X394576Y404206D01*
X395313Y403308D01*
X396211Y402571D01*
X397236Y402023D01*
X398348Y401685D01*
X399505Y401572D01*
X403505D01*
X404662Y401685D01*
X405774Y402023D01*
X406799Y402571D01*
X407697Y403308D01*
X408434Y404206D01*
X408982Y405231D01*
X409320Y406343D01*
X409434Y407500D01*
X409320Y408657D01*
X408982Y409769D01*
X408434Y410794D01*
X407697Y411692D01*
X406799Y412429D01*
X405774Y412977D01*
X404662Y413315D01*
X403505Y413428D01*
D02*
G37*
G36*
X493505D02*
X489505D01*
X488348Y413315D01*
X487236Y412977D01*
X486211Y412429D01*
X485313Y411692D01*
X484576Y410794D01*
X484028Y409769D01*
X483690Y408657D01*
X483576Y407500D01*
X483690Y406343D01*
X484028Y405231D01*
X484576Y404206D01*
X485313Y403308D01*
X486211Y402571D01*
X487236Y402023D01*
X488348Y401685D01*
X489505Y401572D01*
X493505D01*
X494662Y401685D01*
X495774Y402023D01*
X496799Y402571D01*
X497697Y403308D01*
X498434Y404206D01*
X498982Y405231D01*
X499320Y406343D01*
X499434Y407500D01*
X499320Y408657D01*
X498982Y409769D01*
X498434Y410794D01*
X497697Y411692D01*
X496799Y412429D01*
X495774Y412977D01*
X494662Y413315D01*
X493505Y413428D01*
D02*
G37*
G36*
X377974Y467336D02*
X374037D01*
X372800Y467214D01*
X371612Y466854D01*
X370516Y466268D01*
X369556Y465480D01*
X368768Y464520D01*
X368183Y463425D01*
X367822Y462236D01*
X367701Y461000D01*
X367822Y459764D01*
X368183Y458575D01*
X368768Y457480D01*
X369556Y456520D01*
X370516Y455732D01*
X371612Y455146D01*
X372800Y454786D01*
X374037Y454664D01*
X377974D01*
X379210Y454786D01*
X380398Y455146D01*
X381494Y455732D01*
X382454Y456520D01*
X383242Y457480D01*
X383827Y458575D01*
X384188Y459764D01*
X384310Y461000D01*
X384188Y462236D01*
X383827Y463425D01*
X383242Y464520D01*
X382454Y465480D01*
X381494Y466268D01*
X380398Y466854D01*
X379210Y467214D01*
X377974Y467336D01*
D02*
G37*
G36*
X493505Y353429D02*
X489505D01*
X488348Y353315D01*
X487236Y352977D01*
X486211Y352429D01*
X485313Y351692D01*
X484576Y350794D01*
X484028Y349769D01*
X483690Y348657D01*
X483576Y347500D01*
X483690Y346343D01*
X484028Y345231D01*
X484576Y344206D01*
X485313Y343308D01*
X486211Y342571D01*
X487236Y342023D01*
X488348Y341685D01*
X489505Y341571D01*
X493505D01*
X494662Y341685D01*
X495774Y342023D01*
X496799Y342571D01*
X497697Y343308D01*
X498434Y344206D01*
X498982Y345231D01*
X499320Y346343D01*
X499434Y347500D01*
X499320Y348657D01*
X498982Y349769D01*
X498434Y350794D01*
X497697Y351692D01*
X496799Y352429D01*
X495774Y352977D01*
X494662Y353315D01*
X493505Y353429D01*
D02*
G37*
G36*
X403505D02*
X399505D01*
X398348Y353315D01*
X397236Y352977D01*
X396211Y352429D01*
X395313Y351692D01*
X394576Y350794D01*
X394028Y349769D01*
X393690Y348657D01*
X393577Y347500D01*
X393690Y346343D01*
X394028Y345231D01*
X394576Y344206D01*
X395313Y343308D01*
X396211Y342571D01*
X397236Y342023D01*
X398348Y341685D01*
X399505Y341571D01*
X403505D01*
X404662Y341685D01*
X405774Y342023D01*
X406799Y342571D01*
X407697Y343308D01*
X408434Y344206D01*
X408982Y345231D01*
X409320Y346343D01*
X409434Y347500D01*
X409320Y348657D01*
X408982Y349769D01*
X408434Y350794D01*
X407697Y351692D01*
X406799Y352429D01*
X405774Y352977D01*
X404662Y353315D01*
X403505Y353429D01*
D02*
G37*
G36*
X517974Y367336D02*
X514037D01*
X512800Y367214D01*
X511612Y366854D01*
X510516Y366268D01*
X509556Y365480D01*
X508768Y364520D01*
X508183Y363425D01*
X507822Y362236D01*
X507700Y361000D01*
X507822Y359764D01*
X508183Y358575D01*
X508768Y357480D01*
X509556Y356520D01*
X510516Y355732D01*
X511612Y355146D01*
X512800Y354786D01*
X514037Y354664D01*
X517974D01*
X519210Y354786D01*
X520398Y355146D01*
X521494Y355732D01*
X522454Y356520D01*
X523242Y357480D01*
X523827Y358575D01*
X524188Y359764D01*
X524309Y361000D01*
X524188Y362236D01*
X523827Y363425D01*
X523242Y364520D01*
X522454Y365480D01*
X521494Y366268D01*
X520398Y366854D01*
X519210Y367214D01*
X517974Y367336D01*
D02*
G37*
G36*
X377974D02*
X374037D01*
X372800Y367214D01*
X371612Y366854D01*
X370516Y366268D01*
X369556Y365480D01*
X368768Y364520D01*
X368183Y363425D01*
X367822Y362236D01*
X367701Y361000D01*
X367822Y359764D01*
X368183Y358575D01*
X368768Y357480D01*
X369556Y356520D01*
X370516Y355732D01*
X371612Y355146D01*
X372800Y354786D01*
X374037Y354664D01*
X377974D01*
X379210Y354786D01*
X380398Y355146D01*
X381494Y355732D01*
X382454Y356520D01*
X383242Y357480D01*
X383827Y358575D01*
X384188Y359764D01*
X384310Y361000D01*
X384188Y362236D01*
X383827Y363425D01*
X383242Y364520D01*
X382454Y365480D01*
X381494Y366268D01*
X380398Y366854D01*
X379210Y367214D01*
X377974Y367336D01*
D02*
G37*
G36*
X493505Y333429D02*
X489505D01*
X488348Y333315D01*
X487236Y332977D01*
X486211Y332429D01*
X485313Y331692D01*
X484576Y330794D01*
X484028Y329769D01*
X483690Y328657D01*
X483576Y327500D01*
X483690Y326343D01*
X484028Y325231D01*
X484576Y324206D01*
X485313Y323308D01*
X486211Y322571D01*
X487236Y322023D01*
X488348Y321685D01*
X489505Y321571D01*
X493505D01*
X494662Y321685D01*
X495774Y322023D01*
X496799Y322571D01*
X497697Y323308D01*
X498434Y324206D01*
X498982Y325231D01*
X499320Y326343D01*
X499434Y327500D01*
X499320Y328657D01*
X498982Y329769D01*
X498434Y330794D01*
X497697Y331692D01*
X496799Y332429D01*
X495774Y332977D01*
X494662Y333315D01*
X493505Y333429D01*
D02*
G37*
G36*
X403505D02*
X399505D01*
X398348Y333315D01*
X397236Y332977D01*
X396211Y332429D01*
X395313Y331692D01*
X394576Y330794D01*
X394028Y329769D01*
X393690Y328657D01*
X393577Y327500D01*
X393690Y326343D01*
X394028Y325231D01*
X394576Y324206D01*
X395313Y323308D01*
X396211Y322571D01*
X397236Y322023D01*
X398348Y321685D01*
X399505Y321571D01*
X403505D01*
X404662Y321685D01*
X405774Y322023D01*
X406799Y322571D01*
X407697Y323308D01*
X408434Y324206D01*
X408982Y325231D01*
X409320Y326343D01*
X409434Y327500D01*
X409320Y328657D01*
X408982Y329769D01*
X408434Y330794D01*
X407697Y331692D01*
X406799Y332429D01*
X405774Y332977D01*
X404662Y333315D01*
X403505Y333429D01*
D02*
G37*
G36*
X517974Y347336D02*
X514037D01*
X512800Y347214D01*
X511612Y346854D01*
X510516Y346268D01*
X509556Y345480D01*
X508768Y344520D01*
X508183Y343425D01*
X507822Y342236D01*
X507700Y341000D01*
X507822Y339764D01*
X508183Y338575D01*
X508768Y337480D01*
X509556Y336520D01*
X510516Y335732D01*
X511612Y335146D01*
X512800Y334786D01*
X514037Y334664D01*
X517974D01*
X519210Y334786D01*
X520398Y335146D01*
X521494Y335732D01*
X522454Y336520D01*
X523242Y337480D01*
X523827Y338575D01*
X524188Y339764D01*
X524309Y341000D01*
X524188Y342236D01*
X523827Y343425D01*
X523242Y344520D01*
X522454Y345480D01*
X521494Y346268D01*
X520398Y346854D01*
X519210Y347214D01*
X517974Y347336D01*
D02*
G37*
G36*
X377974D02*
X374037D01*
X372800Y347214D01*
X371612Y346854D01*
X370516Y346268D01*
X369556Y345480D01*
X368768Y344520D01*
X368183Y343425D01*
X367822Y342236D01*
X367701Y341000D01*
X367822Y339764D01*
X368183Y338575D01*
X368768Y337480D01*
X369556Y336520D01*
X370516Y335732D01*
X371612Y335146D01*
X372800Y334786D01*
X374037Y334664D01*
X377974D01*
X379210Y334786D01*
X380398Y335146D01*
X381494Y335732D01*
X382454Y336520D01*
X383242Y337480D01*
X383827Y338575D01*
X384188Y339764D01*
X384310Y341000D01*
X384188Y342236D01*
X383827Y343425D01*
X383242Y344520D01*
X382454Y345480D01*
X381494Y346268D01*
X380398Y346854D01*
X379210Y347214D01*
X377974Y347336D01*
D02*
G37*
G36*
X493505Y373429D02*
X489505D01*
X488348Y373315D01*
X487236Y372977D01*
X486211Y372429D01*
X485313Y371692D01*
X484576Y370794D01*
X484028Y369769D01*
X483690Y368657D01*
X483576Y367500D01*
X483690Y366343D01*
X484028Y365231D01*
X484576Y364206D01*
X485313Y363308D01*
X486211Y362571D01*
X487236Y362023D01*
X488348Y361685D01*
X489505Y361572D01*
X493505D01*
X494662Y361685D01*
X495774Y362023D01*
X496799Y362571D01*
X497697Y363308D01*
X498434Y364206D01*
X498982Y365231D01*
X499320Y366343D01*
X499434Y367500D01*
X499320Y368657D01*
X498982Y369769D01*
X498434Y370794D01*
X497697Y371692D01*
X496799Y372429D01*
X495774Y372977D01*
X494662Y373315D01*
X493505Y373429D01*
D02*
G37*
G36*
X377974Y487336D02*
X374037D01*
X372800Y487214D01*
X371612Y486854D01*
X370516Y486268D01*
X369556Y485480D01*
X368768Y484520D01*
X368183Y483425D01*
X367822Y482236D01*
X367701Y481000D01*
X367822Y479764D01*
X368183Y478575D01*
X368768Y477480D01*
X369556Y476520D01*
X370516Y475732D01*
X371612Y475146D01*
X372800Y474786D01*
X374037Y474664D01*
X377974D01*
X379210Y474786D01*
X380398Y475146D01*
X381494Y475732D01*
X382454Y476520D01*
X383242Y477480D01*
X383827Y478575D01*
X384188Y479764D01*
X384310Y481000D01*
X384188Y482236D01*
X383827Y483425D01*
X383242Y484520D01*
X382454Y485480D01*
X381494Y486268D01*
X380398Y486854D01*
X379210Y487214D01*
X377974Y487336D01*
D02*
G37*
G36*
X517974Y467336D02*
X514037D01*
X512800Y467214D01*
X511612Y466854D01*
X510516Y466268D01*
X509556Y465480D01*
X508768Y464520D01*
X508183Y463425D01*
X507822Y462236D01*
X507700Y461000D01*
X507822Y459764D01*
X508183Y458575D01*
X508768Y457480D01*
X509556Y456520D01*
X510516Y455732D01*
X511612Y455146D01*
X512800Y454786D01*
X514037Y454664D01*
X517974D01*
X519210Y454786D01*
X520398Y455146D01*
X521494Y455732D01*
X522454Y456520D01*
X523242Y457480D01*
X523827Y458575D01*
X524188Y459764D01*
X524309Y461000D01*
X524188Y462236D01*
X523827Y463425D01*
X523242Y464520D01*
X522454Y465480D01*
X521494Y466268D01*
X520398Y466854D01*
X519210Y467214D01*
X517974Y467336D01*
D02*
G37*
G36*
Y387336D02*
X514037D01*
X512800Y387214D01*
X511612Y386854D01*
X510516Y386268D01*
X509556Y385480D01*
X508768Y384520D01*
X508183Y383425D01*
X507822Y382236D01*
X507700Y381000D01*
X507822Y379764D01*
X508183Y378575D01*
X508768Y377480D01*
X509556Y376520D01*
X510516Y375732D01*
X511612Y375146D01*
X512800Y374786D01*
X514037Y374664D01*
X517974D01*
X519210Y374786D01*
X520398Y375146D01*
X521494Y375732D01*
X522454Y376520D01*
X523242Y377480D01*
X523827Y378575D01*
X524188Y379764D01*
X524309Y381000D01*
X524188Y382236D01*
X523827Y383425D01*
X523242Y384520D01*
X522454Y385480D01*
X521494Y386268D01*
X520398Y386854D01*
X519210Y387214D01*
X517974Y387336D01*
D02*
G37*
G36*
X377974D02*
X374037D01*
X372800Y387214D01*
X371612Y386854D01*
X370516Y386268D01*
X369556Y385480D01*
X368768Y384520D01*
X368183Y383425D01*
X367822Y382236D01*
X367701Y381000D01*
X367822Y379764D01*
X368183Y378575D01*
X368768Y377480D01*
X369556Y376520D01*
X370516Y375732D01*
X371612Y375146D01*
X372800Y374786D01*
X374037Y374664D01*
X377974D01*
X379210Y374786D01*
X380398Y375146D01*
X381494Y375732D01*
X382454Y376520D01*
X383242Y377480D01*
X383827Y378575D01*
X384188Y379764D01*
X384310Y381000D01*
X384188Y382236D01*
X383827Y383425D01*
X383242Y384520D01*
X382454Y385480D01*
X381494Y386268D01*
X380398Y386854D01*
X379210Y387214D01*
X377974Y387336D01*
D02*
G37*
G36*
X517974Y487336D02*
X514037D01*
X512800Y487214D01*
X511612Y486854D01*
X510516Y486268D01*
X509556Y485480D01*
X508768Y484520D01*
X508183Y483425D01*
X507822Y482236D01*
X507700Y481000D01*
X507822Y479764D01*
X508183Y478575D01*
X508768Y477480D01*
X509556Y476520D01*
X510516Y475732D01*
X511612Y475146D01*
X512800Y474786D01*
X514037Y474664D01*
X517974D01*
X519210Y474786D01*
X520398Y475146D01*
X521494Y475732D01*
X522454Y476520D01*
X523242Y477480D01*
X523827Y478575D01*
X524188Y479764D01*
X524309Y481000D01*
X524188Y482236D01*
X523827Y483425D01*
X523242Y484520D01*
X522454Y485480D01*
X521494Y486268D01*
X520398Y486854D01*
X519210Y487214D01*
X517974Y487336D01*
D02*
G37*
G36*
X403505Y373429D02*
X399505D01*
X398348Y373315D01*
X397236Y372977D01*
X396211Y372429D01*
X395313Y371692D01*
X394576Y370794D01*
X394028Y369769D01*
X393690Y368657D01*
X393577Y367500D01*
X393690Y366343D01*
X394028Y365231D01*
X394576Y364206D01*
X395313Y363308D01*
X396211Y362571D01*
X397236Y362023D01*
X398348Y361685D01*
X399505Y361572D01*
X403505D01*
X404662Y361685D01*
X405774Y362023D01*
X406799Y362571D01*
X407697Y363308D01*
X408434Y364206D01*
X408982Y365231D01*
X409320Y366343D01*
X409434Y367500D01*
X409320Y368657D01*
X408982Y369769D01*
X408434Y370794D01*
X407697Y371692D01*
X406799Y372429D01*
X405774Y372977D01*
X404662Y373315D01*
X403505Y373429D01*
D02*
G37*
%LPD*%
G36*
X362965Y207263D02*
X362781Y207071D01*
X362472Y206700D01*
X362347Y206520D01*
X362241Y206345D01*
X362155Y206173D01*
X362088Y206005D01*
X362041Y205841D01*
X362013Y205681D01*
X362005Y205525D01*
X359530Y208000D01*
X359686Y208008D01*
X359846Y208036D01*
X360010Y208083D01*
X360178Y208150D01*
X360349Y208236D01*
X360525Y208342D01*
X360705Y208467D01*
X360889Y208612D01*
X361268Y208960D01*
X362965Y207263D01*
D02*
G37*
G36*
X358422Y203247D02*
X358287Y203297D01*
X358146Y203321D01*
X357998Y203319D01*
X357843Y203291D01*
X357682Y203237D01*
X357515Y203157D01*
X357340Y203051D01*
X357159Y202919D01*
X356972Y202760D01*
X356778Y202576D01*
X356091Y205283D01*
X357217Y206508D01*
X358422Y203247D01*
D02*
G37*
G36*
X351965Y197763D02*
X351781Y197571D01*
X351472Y197200D01*
X351347Y197020D01*
X351241Y196844D01*
X351155Y196673D01*
X351088Y196505D01*
X351041Y196341D01*
X351013Y196181D01*
X351005Y196025D01*
X348530Y198500D01*
X348686Y198508D01*
X348846Y198536D01*
X349010Y198583D01*
X349178Y198650D01*
X349349Y198736D01*
X349525Y198842D01*
X349705Y198967D01*
X349889Y199112D01*
X350268Y199460D01*
X351965Y197763D01*
D02*
G37*
G36*
X324720Y227750D02*
X324567Y227892D01*
X324404Y228020D01*
X324230Y228133D01*
X324046Y228230D01*
X323851Y228312D01*
X323645Y228380D01*
X323428Y228432D01*
X323201Y228470D01*
X322962Y228492D01*
X322714Y228500D01*
Y230500D01*
X322962Y230507D01*
X323201Y230530D01*
X323428Y230568D01*
X323645Y230620D01*
X323851Y230687D01*
X324046Y230770D01*
X324230Y230868D01*
X324404Y230980D01*
X324567Y231107D01*
X324720Y231250D01*
Y227750D01*
D02*
G37*
G36*
X301012Y186042D02*
X301035Y185804D01*
X301073Y185577D01*
X301125Y185360D01*
X301192Y185154D01*
X301275Y184959D01*
X301373Y184775D01*
X301485Y184601D01*
X301612Y184438D01*
X301755Y184285D01*
X298255D01*
X298397Y184438D01*
X298525Y184601D01*
X298638Y184775D01*
X298735Y184959D01*
X298817Y185154D01*
X298885Y185360D01*
X298938Y185577D01*
X298975Y185804D01*
X298997Y186042D01*
X299005Y186291D01*
X301005D01*
X301012Y186042D01*
D02*
G37*
G36*
X395188Y232281D02*
X395072Y232386D01*
X394939Y232480D01*
X394790Y232562D01*
X394624Y232633D01*
X394442Y232694D01*
X394243Y232744D01*
X394027Y232782D01*
X393795Y232809D01*
X393280Y232832D01*
Y235231D01*
X393546Y235237D01*
X394027Y235281D01*
X394243Y235319D01*
X394442Y235369D01*
X394624Y235430D01*
X394790Y235501D01*
X394939Y235583D01*
X395072Y235677D01*
X395188Y235782D01*
Y232281D01*
D02*
G37*
G36*
X388385Y235670D02*
X388519Y235578D01*
X388669Y235496D01*
X388835Y235426D01*
X389018Y235367D01*
X389218Y235318D01*
X389434Y235280D01*
X389666Y235253D01*
X390181Y235231D01*
X390215Y232832D01*
X389950Y232826D01*
X389469Y232781D01*
X389254Y232742D01*
X389055Y232692D01*
X388873Y232630D01*
X388708Y232558D01*
X388559Y232474D01*
X388427Y232379D01*
X388312Y232273D01*
X388268Y235772D01*
X388385Y235670D01*
D02*
G37*
G36*
X303456Y212918D02*
X303456Y212717D01*
X303478Y212518D01*
X303522Y212322D01*
X303587Y212127D01*
X303673Y211935D01*
X303780Y211745D01*
X303909Y211558D01*
X304059Y211372D01*
X304230Y211189D01*
X302595Y209996D01*
X302416Y210166D01*
X302234Y210321D01*
X302049Y210462D01*
X301861Y210587D01*
X301671Y210697D01*
X301477Y210792D01*
X301281Y210872D01*
X301082Y210937D01*
X300881Y210987D01*
X300676Y211022D01*
X303476Y213122D01*
X303456Y212918D01*
D02*
G37*
G36*
X309713Y205717D02*
X309897Y205565D01*
X310084Y205431D01*
X310274Y205314D01*
X310468Y205217D01*
X310664Y205137D01*
X310863Y205075D01*
X311066Y205032D01*
X311272Y205007D01*
X311480Y205000D01*
X309005Y202525D01*
X308998Y202733D01*
X308973Y202939D01*
X308930Y203141D01*
X308868Y203341D01*
X308788Y203537D01*
X308691Y203731D01*
X308574Y203921D01*
X308440Y204108D01*
X308288Y204292D01*
X308117Y204474D01*
X309531Y205888D01*
X309713Y205717D01*
D02*
G37*
G36*
X358980Y212000D02*
X358771Y211993D01*
X358566Y211968D01*
X358364Y211925D01*
X358164Y211863D01*
X357968Y211783D01*
X357774Y211685D01*
X357584Y211569D01*
X357397Y211435D01*
X357212Y211283D01*
X357031Y211112D01*
X355617Y212526D01*
X355788Y212707D01*
X355940Y212892D01*
X356074Y213079D01*
X356190Y213269D01*
X356288Y213463D01*
X356368Y213659D01*
X356430Y213859D01*
X356473Y214061D01*
X356498Y214266D01*
X356505Y214475D01*
X358980Y212000D01*
D02*
G37*
G36*
X326393Y189974D02*
X326222Y189793D01*
X326070Y189608D01*
X325936Y189421D01*
X325819Y189231D01*
X325722Y189037D01*
X325642Y188841D01*
X325580Y188642D01*
X325537Y188439D01*
X325512Y188233D01*
X325505Y188025D01*
X323030Y190500D01*
X323238Y190507D01*
X323444Y190532D01*
X323646Y190575D01*
X323846Y190637D01*
X324042Y190717D01*
X324236Y190814D01*
X324426Y190931D01*
X324613Y191065D01*
X324798Y191217D01*
X324979Y191388D01*
X326393Y189974D01*
D02*
G37*
G36*
X351720Y110750D02*
X351567Y110892D01*
X351404Y111020D01*
X351230Y111133D01*
X351046Y111230D01*
X350851Y111312D01*
X350645Y111380D01*
X350428Y111433D01*
X350201Y111470D01*
X349962Y111493D01*
X349714Y111500D01*
Y113500D01*
X349962Y113507D01*
X350201Y113530D01*
X350428Y113567D01*
X350645Y113620D01*
X350851Y113688D01*
X351046Y113770D01*
X351230Y113867D01*
X351404Y113980D01*
X351567Y114108D01*
X351720Y114250D01*
Y110750D01*
D02*
G37*
G36*
X340903Y114254D02*
X340918Y114190D01*
X340952Y114112D01*
X341004Y114021D01*
X341075Y113918D01*
X341165Y113801D01*
X341401Y113530D01*
X341712Y113207D01*
X340298Y111793D01*
X340130Y111958D01*
X339587Y112430D01*
X339484Y112501D01*
X339393Y112553D01*
X339316Y112587D01*
X339250Y112602D01*
X339198Y112598D01*
X340907Y114307D01*
X340903Y114254D01*
D02*
G37*
G36*
X353220Y117750D02*
X353103Y117854D01*
X352971Y117948D01*
X352821Y118031D01*
X352656Y118102D01*
X352473Y118163D01*
X352274Y118212D01*
X352058Y118251D01*
X351826Y118278D01*
X351312Y118300D01*
Y120700D01*
X351577Y120705D01*
X352058Y120749D01*
X352274Y120788D01*
X352473Y120837D01*
X352656Y120898D01*
X352821Y120969D01*
X352971Y121052D01*
X353103Y121145D01*
X353220Y121250D01*
Y117750D01*
D02*
G37*
G36*
X340907Y124645D02*
X341039Y124552D01*
X341189Y124469D01*
X341354Y124398D01*
X341537Y124337D01*
X341736Y124288D01*
X341952Y124249D01*
X342184Y124222D01*
X342698Y124200D01*
Y121800D01*
X342433Y121794D01*
X341952Y121750D01*
X341736Y121712D01*
X341537Y121662D01*
X341354Y121602D01*
X341189Y121530D01*
X341039Y121448D01*
X340907Y121354D01*
X340790Y121250D01*
Y124750D01*
X340907Y124645D01*
D02*
G37*
G36*
X356393Y192974D02*
X356222Y192792D01*
X356070Y192608D01*
X355936Y192421D01*
X355820Y192231D01*
X355722Y192037D01*
X355642Y191841D01*
X355580Y191641D01*
X355537Y191439D01*
X355512Y191234D01*
X355505Y191025D01*
X353030Y193500D01*
X353239Y193507D01*
X353444Y193532D01*
X353646Y193575D01*
X353846Y193637D01*
X354042Y193717D01*
X354236Y193815D01*
X354426Y193931D01*
X354613Y194065D01*
X354798Y194217D01*
X354979Y194388D01*
X356393Y192974D01*
D02*
G37*
G36*
X361480Y197000D02*
X361272Y196993D01*
X361066Y196968D01*
X360863Y196925D01*
X360664Y196863D01*
X360468Y196783D01*
X360274Y196686D01*
X360084Y196569D01*
X359897Y196435D01*
X359713Y196283D01*
X359531Y196112D01*
X358117Y197526D01*
X358288Y197707D01*
X358440Y197892D01*
X358574Y198079D01*
X358691Y198269D01*
X358788Y198463D01*
X358868Y198659D01*
X358930Y198858D01*
X358973Y199061D01*
X358998Y199267D01*
X359005Y199475D01*
X361480Y197000D01*
D02*
G37*
D10*
X235405Y212300D02*
X245605D01*
X343005Y198500D02*
X359005Y214500D01*
X353005Y191000D02*
X361505Y199500D01*
X333505Y198500D02*
X343005D01*
X323005Y188000D02*
X333505Y198500D01*
X360505Y237000D02*
X364405Y233100D01*
Y227200D02*
Y233100D01*
X304005Y229500D02*
X326505D01*
X295005Y220500D02*
X304005Y229500D01*
X295005Y212000D02*
Y220500D01*
Y212000D02*
X300005Y207000D01*
Y182500D02*
Y207000D01*
X301005Y213000D02*
Y213500D01*
Y213000D02*
X311505Y202500D01*
X338505Y115000D02*
X341005Y112500D01*
X353505D01*
D39*
X386473Y234032D02*
X396973D01*
X348505Y196000D02*
X358005Y205500D01*
X359505D01*
X366005Y212000D01*
Y218900D01*
X354005Y230900D02*
X366005Y218900D01*
X354005Y230900D02*
Y238500D01*
X349005Y119500D02*
X355005D01*
X345505Y123000D02*
X349005Y119500D01*
X339005Y123000D02*
X345505D01*
X386473Y234032D02*
X386505Y234000D01*
D41*
X221576Y445429D02*
X225135Y448988D01*
X92765Y399472D02*
X98245Y393992D01*
Y309000D02*
Y393992D01*
X208005Y399472D02*
X294033Y485500D01*
X199025Y399472D02*
X208005D01*
X92765D02*
X199025D01*
X70237Y422000D02*
X92765Y399472D01*
X68005Y422000D02*
X70237D01*
X34505Y388500D02*
X68005Y422000D01*
X225135Y448988D02*
Y485500D01*
D44*
X492805Y260800D02*
X493505D01*
X367705Y253900D02*
X367737Y253868D01*
D51*
X313805Y379400D02*
D03*
X238505Y143100D02*
D03*
X25005Y475500D02*
D03*
X575005D02*
D03*
Y25000D02*
D03*
X25005D02*
D03*
D52*
X534505Y205500D02*
D03*
X573875D02*
D03*
X496005Y64500D02*
D03*
Y25130D02*
D03*
X534135Y116500D02*
D03*
X573505D02*
D03*
X406005Y64370D02*
D03*
Y25000D02*
D03*
D53*
X516005Y401000D02*
D03*
X376005Y421000D02*
D03*
Y401000D02*
D03*
Y441000D02*
D03*
Y461000D02*
D03*
Y381000D02*
D03*
Y361000D02*
D03*
Y341000D02*
D03*
Y321000D02*
D03*
X516005D02*
D03*
Y341000D02*
D03*
Y361000D02*
D03*
Y381000D02*
D03*
Y461000D02*
D03*
Y441000D02*
D03*
Y421000D02*
D03*
X376005Y481000D02*
D03*
X516005D02*
D03*
D54*
X384005Y150500D02*
D03*
Y140500D02*
D03*
Y130500D02*
D03*
D55*
X256525Y33000D02*
D03*
X331485D02*
D03*
X294005D02*
D03*
D56*
X34505Y425980D02*
D03*
Y351020D02*
D03*
Y388500D02*
D03*
D57*
X64005Y473000D02*
D03*
X204005D02*
D03*
D58*
X491505Y387500D02*
D03*
X401505D02*
D03*
Y407500D02*
D03*
Y427500D02*
D03*
Y447500D02*
D03*
Y367500D02*
D03*
Y347500D02*
D03*
Y327500D02*
D03*
X491505Y367500D02*
D03*
Y347500D02*
D03*
Y327500D02*
D03*
Y407500D02*
D03*
Y427500D02*
D03*
Y447500D02*
D03*
D59*
X70237Y422000D02*
D03*
X178505D02*
D03*
X225135Y485500D02*
D03*
X264505D02*
D03*
X294033D02*
D03*
X323560D02*
D03*
X332273Y443000D02*
D03*
X224005D02*
D03*
D60*
X206505Y429000D02*
D03*
X199025Y399472D02*
D03*
D61*
X19505Y309000D02*
D03*
X98245D02*
D03*
X52970Y64906D02*
D03*
X143521D02*
D03*
D62*
X424405Y260500D02*
D03*
X445805D02*
D03*
X403005D02*
D03*
D63*
X559505Y309500D02*
D03*
Y289500D02*
D03*
D64*
X370505Y225153D02*
D03*
X347910Y151500D02*
D03*
X348005Y161500D02*
D03*
Y169000D02*
D03*
D65*
X317705Y130000D02*
D03*
X315405Y123000D02*
D03*
X345005Y70100D02*
D03*
Y75700D02*
D03*
X317105Y70300D02*
D03*
Y75900D02*
D03*
X235405Y212300D02*
D03*
X245605D02*
D03*
X272705Y215000D02*
D03*
X99631Y18626D02*
D03*
Y34574D02*
D03*
X113005Y26000D02*
D03*
X400005Y169500D02*
D03*
X361505Y199500D02*
D03*
X359505Y205500D02*
D03*
X318005Y149000D02*
D03*
X311505Y148700D02*
D03*
X364405Y227200D02*
D03*
X356205Y222100D02*
D03*
X349605Y225000D02*
D03*
X223005Y275000D02*
D03*
X221505Y253600D02*
D03*
X239705Y318000D02*
D03*
X501099Y281194D02*
D03*
Y267595D02*
D03*
X494805Y274500D02*
D03*
X493505Y260800D02*
D03*
X506321Y260717D02*
D03*
X500288D02*
D03*
X367737Y253868D02*
D03*
X338005Y249900D02*
D03*
X319005Y255800D02*
D03*
X311005Y257900D02*
D03*
X297005Y255900D02*
D03*
X289505Y252000D02*
D03*
X202905Y329500D02*
D03*
X202505Y358000D02*
D03*
X246105Y343500D02*
D03*
X245805Y373000D02*
D03*
X236605Y180200D02*
D03*
X354005Y238500D02*
D03*
X348505Y196000D02*
D03*
X359005Y214500D02*
D03*
X326505Y229500D02*
D03*
X300005Y182500D02*
D03*
X301005Y213500D02*
D03*
X311505Y202500D02*
D03*
X340005Y134500D02*
D03*
X323005Y188000D02*
D03*
X360505Y237000D02*
D03*
X338505Y115000D02*
D03*
X353505Y112500D02*
D03*
X355005Y119500D02*
D03*
X339005Y123000D02*
D03*
X386505Y234000D02*
D03*
X396973Y234032D02*
D03*
X394005Y277500D02*
D03*
X387505D02*
D03*
X449458Y282453D02*
D03*
X441458Y282547D02*
D03*
X353005Y191000D02*
D03*
D66*
X336100Y151500D02*
D03*
X347910D02*
D03*
D67*
X340962Y169000D02*
D03*
X348048D02*
D03*
X340962Y161500D02*
D03*
X348048D02*
D03*
M02*
