G04 Layer_Color=12632256*
%FSLAX25Y25*%
%MOIN*%
G70*
G01*
G75*
%ADD51C,0.06000*%
%ADD52C,0.13780*%
%ADD53O,0.15748X0.11811*%
%ADD54C,0.08000*%
%ADD55O,0.13780X0.19685*%
%ADD56O,0.19685X0.13780*%
%ADD57O,0.15000X0.10000*%
%ADD58O,0.15000X0.11000*%
%ADD59O,0.09000X0.13000*%
%ADD60C,0.07874*%
%ADD61C,0.13000*%
%ADD62C,0.12000*%
%ADD63O,0.11000X0.08000*%
D51*
X313805Y379400D02*
D03*
X238505Y143100D02*
D03*
X25005Y475500D02*
D03*
X575005D02*
D03*
Y25000D02*
D03*
X25005D02*
D03*
D52*
X534505Y205500D02*
D03*
X573875D02*
D03*
X496005Y64500D02*
D03*
Y25130D02*
D03*
X534135Y116500D02*
D03*
X573505D02*
D03*
X406005Y64370D02*
D03*
Y25000D02*
D03*
D53*
X516005Y401000D02*
D03*
X376005Y421000D02*
D03*
Y401000D02*
D03*
Y441000D02*
D03*
Y461000D02*
D03*
Y381000D02*
D03*
Y361000D02*
D03*
Y341000D02*
D03*
Y321000D02*
D03*
X516005D02*
D03*
Y341000D02*
D03*
Y361000D02*
D03*
Y381000D02*
D03*
Y461000D02*
D03*
Y441000D02*
D03*
Y421000D02*
D03*
X376005Y481000D02*
D03*
X516005D02*
D03*
D54*
X384005Y150500D02*
D03*
Y140500D02*
D03*
Y130500D02*
D03*
D55*
X256525Y33000D02*
D03*
X331485D02*
D03*
X294005D02*
D03*
D56*
X34505Y425980D02*
D03*
Y351020D02*
D03*
Y388500D02*
D03*
D57*
X64005Y473000D02*
D03*
X204005D02*
D03*
D58*
X491505Y387500D02*
D03*
X401505D02*
D03*
Y407500D02*
D03*
Y427500D02*
D03*
Y447500D02*
D03*
Y367500D02*
D03*
Y347500D02*
D03*
Y327500D02*
D03*
X491505Y367500D02*
D03*
Y347500D02*
D03*
Y327500D02*
D03*
Y407500D02*
D03*
Y427500D02*
D03*
Y447500D02*
D03*
D59*
X70237Y422000D02*
D03*
X178505D02*
D03*
X225135Y485500D02*
D03*
X264505D02*
D03*
X294033D02*
D03*
X323560D02*
D03*
X332273Y443000D02*
D03*
X224005D02*
D03*
D60*
X206505Y429000D02*
D03*
X199025Y399472D02*
D03*
D61*
X19505Y309000D02*
D03*
X98245D02*
D03*
X52970Y64906D02*
D03*
X143521D02*
D03*
D62*
X424405Y260500D02*
D03*
X445805D02*
D03*
X403005D02*
D03*
D63*
X559505Y309500D02*
D03*
Y289500D02*
D03*
M02*
