G04 Layer_Color=8388736*
<<<<<<< HEAD
%FSLAX25Y25*%
=======
%FSLAX24Y24*%
>>>>>>> origin/master
%MOIN*%
G70*
G01*
G75*
<<<<<<< HEAD
%ADD84R,0.14579X0.07887*%
%ADD85O,0.03162X0.07099*%
G04:AMPARAMS|DCode=86|XSize=59.18mil|YSize=39.5mil|CornerRadius=7.94mil|HoleSize=0mil|Usage=FLASHONLY|Rotation=0.000|XOffset=0mil|YOffset=0mil|HoleType=Round|Shape=RoundedRectangle|*
%AMROUNDEDRECTD86*
21,1,0.05918,0.02362,0,0,0.0*
21,1,0.04331,0.03950,0,0,0.0*
1,1,0.01587,0.02165,-0.01181*
1,1,0.01587,-0.02165,-0.01181*
1,1,0.01587,-0.02165,0.01181*
1,1,0.01587,0.02165,0.01181*
%
%ADD86ROUNDEDRECTD86*%
G04:AMPARAMS|DCode=87|XSize=78.87mil|YSize=53.28mil|CornerRadius=9.66mil|HoleSize=0mil|Usage=FLASHONLY|Rotation=270.000|XOffset=0mil|YOffset=0mil|HoleType=Round|Shape=RoundedRectangle|*
%AMROUNDEDRECTD87*
21,1,0.07887,0.03396,0,0,270.0*
21,1,0.05955,0.05328,0,0,270.0*
1,1,0.01932,-0.01698,-0.02977*
1,1,0.01932,-0.01698,0.02977*
1,1,0.01932,0.01698,0.02977*
1,1,0.01932,0.01698,-0.02977*
%
%ADD87ROUNDEDRECTD87*%
G04:AMPARAMS|DCode=88|XSize=94.61mil|YSize=67.06mil|CornerRadius=11.38mil|HoleSize=0mil|Usage=FLASHONLY|Rotation=0.000|XOffset=0mil|YOffset=0mil|HoleType=Round|Shape=RoundedRectangle|*
%AMROUNDEDRECTD88*
21,1,0.09461,0.04429,0,0,0.0*
21,1,0.07185,0.06706,0,0,0.0*
1,1,0.02276,0.03592,-0.02215*
1,1,0.02276,-0.03592,-0.02215*
1,1,0.02276,-0.03592,0.02215*
1,1,0.02276,0.03592,0.02215*
%
%ADD88ROUNDEDRECTD88*%
%ADD89O,0.03162X0.08280*%
%ADD90R,0.07887X0.14579*%
G04:AMPARAMS|DCode=91|XSize=31.62mil|YSize=35.56mil|CornerRadius=6.95mil|HoleSize=0mil|Usage=FLASHONLY|Rotation=90.000|XOffset=0mil|YOffset=0mil|HoleType=Round|Shape=RoundedRectangle|*
%AMROUNDEDRECTD91*
21,1,0.03162,0.02165,0,0,90.0*
21,1,0.01772,0.03556,0,0,90.0*
1,1,0.01391,0.01083,0.00886*
1,1,0.01391,0.01083,-0.00886*
1,1,0.01391,-0.01083,-0.00886*
1,1,0.01391,-0.01083,0.00886*
%
%ADD91ROUNDEDRECTD91*%
G04:AMPARAMS|DCode=92|XSize=47.37mil|YSize=43.43mil|CornerRadius=8.43mil|HoleSize=0mil|Usage=FLASHONLY|Rotation=90.000|XOffset=0mil|YOffset=0mil|HoleType=Round|Shape=RoundedRectangle|*
%AMROUNDEDRECTD92*
21,1,0.04737,0.02657,0,0,90.0*
21,1,0.03051,0.04343,0,0,90.0*
1,1,0.01686,0.01329,0.01526*
1,1,0.01686,0.01329,-0.01526*
1,1,0.01686,-0.01329,-0.01526*
1,1,0.01686,-0.01329,0.01526*
%
%ADD92ROUNDEDRECTD92*%
%ADD93R,0.08674X0.08280*%
%ADD94R,0.05918X0.08280*%
G04:AMPARAMS|DCode=95|XSize=47.37mil|YSize=43.43mil|CornerRadius=8.43mil|HoleSize=0mil|Usage=FLASHONLY|Rotation=0.000|XOffset=0mil|YOffset=0mil|HoleType=Round|Shape=RoundedRectangle|*
%AMROUNDEDRECTD95*
21,1,0.04737,0.02657,0,0,0.0*
21,1,0.03051,0.04343,0,0,0.0*
1,1,0.01686,0.01526,-0.01329*
1,1,0.01686,-0.01526,-0.01329*
1,1,0.01686,-0.01526,0.01329*
1,1,0.01686,0.01526,0.01329*
%
%ADD95ROUNDEDRECTD95*%
G04:AMPARAMS|DCode=96|XSize=59.18mil|YSize=39.5mil|CornerRadius=7.94mil|HoleSize=0mil|Usage=FLASHONLY|Rotation=90.000|XOffset=0mil|YOffset=0mil|HoleType=Round|Shape=RoundedRectangle|*
%AMROUNDEDRECTD96*
21,1,0.05918,0.02362,0,0,90.0*
21,1,0.04331,0.03950,0,0,90.0*
1,1,0.01587,0.01181,0.02165*
1,1,0.01587,0.01181,-0.02165*
1,1,0.01587,-0.01181,-0.02165*
1,1,0.01587,-0.01181,0.02165*
%
%ADD96ROUNDEDRECTD96*%
G04:AMPARAMS|DCode=97|XSize=78.87mil|YSize=53.28mil|CornerRadius=9.66mil|HoleSize=0mil|Usage=FLASHONLY|Rotation=180.000|XOffset=0mil|YOffset=0mil|HoleType=Round|Shape=RoundedRectangle|*
%AMROUNDEDRECTD97*
21,1,0.07887,0.03396,0,0,180.0*
21,1,0.05955,0.05328,0,0,180.0*
1,1,0.01932,-0.02977,0.01698*
1,1,0.01932,0.02977,0.01698*
1,1,0.01932,0.02977,-0.01698*
1,1,0.01932,-0.02977,-0.01698*
%
%ADD97ROUNDEDRECTD97*%
%ADD98R,0.05682X0.08241*%
%ADD99R,0.05524X0.14186*%
G04:AMPARAMS|DCode=100|XSize=338mil|YSize=428mil|CornerRadius=45.25mil|HoleSize=0mil|Usage=FLASHONLY|Rotation=90.000|XOffset=0mil|YOffset=0mil|HoleType=Round|Shape=RoundedRectangle|*
%AMROUNDEDRECTD100*
21,1,0.33800,0.33750,0,0,90.0*
21,1,0.24750,0.42800,0,0,90.0*
1,1,0.09050,0.16875,0.12375*
1,1,0.09050,0.16875,-0.12375*
1,1,0.09050,-0.16875,-0.12375*
1,1,0.09050,-0.16875,0.12375*
=======
%ADD84R,0.1458X0.0789*%
%ADD85O,0.0316X0.0710*%
G04:AMPARAMS|DCode=86|XSize=59.2mil|YSize=39.5mil|CornerRadius=7.9mil|HoleSize=0mil|Usage=FLASHONLY|Rotation=0.000|XOffset=0mil|YOffset=0mil|HoleType=Round|Shape=RoundedRectangle|*
%AMROUNDEDRECTD86*
21,1,0.0592,0.0236,0,0,0.0*
21,1,0.0433,0.0395,0,0,0.0*
1,1,0.0159,0.0217,-0.0118*
1,1,0.0159,-0.0217,-0.0118*
1,1,0.0159,-0.0217,0.0118*
1,1,0.0159,0.0217,0.0118*
%
%ADD86ROUNDEDRECTD86*%
G04:AMPARAMS|DCode=87|XSize=78.9mil|YSize=53.3mil|CornerRadius=9.7mil|HoleSize=0mil|Usage=FLASHONLY|Rotation=270.000|XOffset=0mil|YOffset=0mil|HoleType=Round|Shape=RoundedRectangle|*
%AMROUNDEDRECTD87*
21,1,0.0789,0.0340,0,0,270.0*
21,1,0.0595,0.0533,0,0,270.0*
1,1,0.0193,-0.0170,-0.0298*
1,1,0.0193,-0.0170,0.0298*
1,1,0.0193,0.0170,0.0298*
1,1,0.0193,0.0170,-0.0298*
%
%ADD87ROUNDEDRECTD87*%
G04:AMPARAMS|DCode=88|XSize=94.6mil|YSize=67.1mil|CornerRadius=11.4mil|HoleSize=0mil|Usage=FLASHONLY|Rotation=0.000|XOffset=0mil|YOffset=0mil|HoleType=Round|Shape=RoundedRectangle|*
%AMROUNDEDRECTD88*
21,1,0.0946,0.0443,0,0,0.0*
21,1,0.0719,0.0671,0,0,0.0*
1,1,0.0228,0.0359,-0.0221*
1,1,0.0228,-0.0359,-0.0221*
1,1,0.0228,-0.0359,0.0221*
1,1,0.0228,0.0359,0.0221*
%
%ADD88ROUNDEDRECTD88*%
%ADD89O,0.0316X0.0828*%
%ADD90R,0.0789X0.1458*%
G04:AMPARAMS|DCode=91|XSize=31.6mil|YSize=35.6mil|CornerRadius=7mil|HoleSize=0mil|Usage=FLASHONLY|Rotation=90.000|XOffset=0mil|YOffset=0mil|HoleType=Round|Shape=RoundedRectangle|*
%AMROUNDEDRECTD91*
21,1,0.0316,0.0217,0,0,90.0*
21,1,0.0177,0.0356,0,0,90.0*
1,1,0.0139,0.0108,0.0089*
1,1,0.0139,0.0108,-0.0089*
1,1,0.0139,-0.0108,-0.0089*
1,1,0.0139,-0.0108,0.0089*
%
%ADD91ROUNDEDRECTD91*%
G04:AMPARAMS|DCode=92|XSize=47.4mil|YSize=43.4mil|CornerRadius=8.4mil|HoleSize=0mil|Usage=FLASHONLY|Rotation=90.000|XOffset=0mil|YOffset=0mil|HoleType=Round|Shape=RoundedRectangle|*
%AMROUNDEDRECTD92*
21,1,0.0474,0.0266,0,0,90.0*
21,1,0.0305,0.0434,0,0,90.0*
1,1,0.0169,0.0133,0.0153*
1,1,0.0169,0.0133,-0.0153*
1,1,0.0169,-0.0133,-0.0153*
1,1,0.0169,-0.0133,0.0153*
%
%ADD92ROUNDEDRECTD92*%
%ADD93R,0.0867X0.0828*%
%ADD94R,0.0592X0.0828*%
G04:AMPARAMS|DCode=95|XSize=47.4mil|YSize=43.4mil|CornerRadius=8.4mil|HoleSize=0mil|Usage=FLASHONLY|Rotation=0.000|XOffset=0mil|YOffset=0mil|HoleType=Round|Shape=RoundedRectangle|*
%AMROUNDEDRECTD95*
21,1,0.0474,0.0266,0,0,0.0*
21,1,0.0305,0.0434,0,0,0.0*
1,1,0.0169,0.0153,-0.0133*
1,1,0.0169,-0.0153,-0.0133*
1,1,0.0169,-0.0153,0.0133*
1,1,0.0169,0.0153,0.0133*
%
%ADD95ROUNDEDRECTD95*%
G04:AMPARAMS|DCode=96|XSize=59.2mil|YSize=39.5mil|CornerRadius=7.9mil|HoleSize=0mil|Usage=FLASHONLY|Rotation=90.000|XOffset=0mil|YOffset=0mil|HoleType=Round|Shape=RoundedRectangle|*
%AMROUNDEDRECTD96*
21,1,0.0592,0.0236,0,0,90.0*
21,1,0.0433,0.0395,0,0,90.0*
1,1,0.0159,0.0118,0.0217*
1,1,0.0159,0.0118,-0.0217*
1,1,0.0159,-0.0118,-0.0217*
1,1,0.0159,-0.0118,0.0217*
%
%ADD96ROUNDEDRECTD96*%
G04:AMPARAMS|DCode=97|XSize=78.9mil|YSize=53.3mil|CornerRadius=9.7mil|HoleSize=0mil|Usage=FLASHONLY|Rotation=180.000|XOffset=0mil|YOffset=0mil|HoleType=Round|Shape=RoundedRectangle|*
%AMROUNDEDRECTD97*
21,1,0.0789,0.0340,0,0,180.0*
21,1,0.0595,0.0533,0,0,180.0*
1,1,0.0193,-0.0298,0.0170*
1,1,0.0193,0.0298,0.0170*
1,1,0.0193,0.0298,-0.0170*
1,1,0.0193,-0.0298,-0.0170*
%
%ADD97ROUNDEDRECTD97*%
%ADD98R,0.0568X0.0824*%
%ADD99R,0.0552X0.1419*%
G04:AMPARAMS|DCode=100|XSize=338mil|YSize=428mil|CornerRadius=45.3mil|HoleSize=0mil|Usage=FLASHONLY|Rotation=90.000|XOffset=0mil|YOffset=0mil|HoleType=Round|Shape=RoundedRectangle|*
%AMROUNDEDRECTD100*
21,1,0.3380,0.3375,0,0,90.0*
21,1,0.2475,0.4280,0,0,90.0*
1,1,0.0905,0.1688,0.1238*
1,1,0.0905,0.1688,-0.1238*
1,1,0.0905,-0.1688,-0.1238*
1,1,0.0905,-0.1688,0.1238*
>>>>>>> origin/master
%
%ADD100ROUNDEDRECTD100*%
G04:AMPARAMS|DCode=101|XSize=128mil|YSize=48mil|CornerRadius=9mil|HoleSize=0mil|Usage=FLASHONLY|Rotation=90.000|XOffset=0mil|YOffset=0mil|HoleType=Round|Shape=RoundedRectangle|*
%AMROUNDEDRECTD101*
<<<<<<< HEAD
21,1,0.12800,0.03000,0,0,90.0*
21,1,0.11000,0.04800,0,0,90.0*
1,1,0.01800,0.01500,0.05500*
1,1,0.01800,0.01500,-0.05500*
1,1,0.01800,-0.01500,-0.05500*
1,1,0.01800,-0.01500,0.05500*
%
%ADD101ROUNDEDRECTD101*%
G04:AMPARAMS|DCode=102|XSize=145.79mil|YSize=63.12mil|CornerRadius=10.89mil|HoleSize=0mil|Usage=FLASHONLY|Rotation=270.000|XOffset=0mil|YOffset=0mil|HoleType=Round|Shape=RoundedRectangle|*
%AMROUNDEDRECTD102*
21,1,0.14579,0.04134,0,0,270.0*
21,1,0.12402,0.06312,0,0,270.0*
1,1,0.02178,-0.02067,-0.06201*
1,1,0.02178,-0.02067,0.06201*
1,1,0.02178,0.02067,0.06201*
1,1,0.02178,0.02067,-0.06201*
%
%ADD102ROUNDEDRECTD102*%
G04:AMPARAMS|DCode=103|XSize=86.74mil|YSize=169.42mil|CornerRadius=13.84mil|HoleSize=0mil|Usage=FLASHONLY|Rotation=270.000|XOffset=0mil|YOffset=0mil|HoleType=Round|Shape=RoundedRectangle|*
%AMROUNDEDRECTD103*
21,1,0.08674,0.14173,0,0,270.0*
21,1,0.05905,0.16942,0,0,270.0*
1,1,0.02768,-0.07087,-0.02953*
1,1,0.02768,-0.07087,0.02953*
1,1,0.02768,0.07087,0.02953*
1,1,0.02768,0.07087,-0.02953*
%
%ADD103ROUNDEDRECTD103*%
G04:AMPARAMS|DCode=104|XSize=70.99mil|YSize=55.24mil|CornerRadius=15.81mil|HoleSize=0mil|Usage=FLASHONLY|Rotation=90.000|XOffset=0mil|YOffset=0mil|HoleType=Round|Shape=RoundedRectangle|*
%AMROUNDEDRECTD104*
21,1,0.07099,0.02362,0,0,90.0*
21,1,0.03937,0.05524,0,0,90.0*
1,1,0.03162,0.01181,0.01968*
1,1,0.03162,0.01181,-0.01968*
1,1,0.03162,-0.01181,-0.01968*
1,1,0.03162,-0.01181,0.01968*
%
%ADD104ROUNDEDRECTD104*%
G04:AMPARAMS|DCode=105|XSize=126.11mil|YSize=106.42mil|CornerRadius=28.61mil|HoleSize=0mil|Usage=FLASHONLY|Rotation=90.000|XOffset=0mil|YOffset=0mil|HoleType=Round|Shape=RoundedRectangle|*
%AMROUNDEDRECTD105*
21,1,0.12611,0.04921,0,0,90.0*
21,1,0.06890,0.10642,0,0,90.0*
1,1,0.05721,0.02461,0.03445*
1,1,0.05721,0.02461,-0.03445*
1,1,0.05721,-0.02461,-0.03445*
1,1,0.05721,-0.02461,0.03445*
%
%ADD105ROUNDEDRECTD105*%
%ADD106R,0.06076X0.04737*%
%ADD107R,0.04737X0.06076*%
G04:AMPARAMS|DCode=108|XSize=130.05mil|YSize=126.11mil|CornerRadius=33.53mil|HoleSize=0mil|Usage=FLASHONLY|Rotation=180.000|XOffset=0mil|YOffset=0mil|HoleType=Round|Shape=RoundedRectangle|*
%AMROUNDEDRECTD108*
21,1,0.13005,0.05905,0,0,180.0*
21,1,0.06299,0.12611,0,0,180.0*
1,1,0.06706,-0.03150,0.02953*
1,1,0.06706,0.03150,0.02953*
1,1,0.06706,0.03150,-0.02953*
1,1,0.06706,-0.03150,-0.02953*
%
%ADD108ROUNDEDRECTD108*%
%ADD109C,0.45370*%
%ADD110C,0.14579*%
%ADD111O,0.16548X0.12611*%
%ADD112C,0.08800*%
%ADD113O,0.14579X0.20485*%
%ADD114O,0.20485X0.14579*%
%ADD115O,0.15800X0.10800*%
%ADD116O,0.15800X0.11800*%
%ADD117O,0.09800X0.13800*%
%ADD118C,0.08674*%
%ADD119C,0.13800*%
%ADD120C,0.12800*%
%ADD121O,0.11800X0.08800*%
D84*
X578405Y341500D02*
D03*
X472605Y276600D02*
D03*
X321305Y279400D02*
D03*
X290505Y121000D02*
D03*
X309005Y137000D02*
D03*
X285505Y166000D02*
D03*
X385505Y208500D02*
D03*
X407505Y110500D02*
D03*
X385505Y188000D02*
D03*
X533505Y289000D02*
D03*
D85*
X236505Y283130D02*
D03*
X231505D02*
D03*
X226505D02*
D03*
X221505D02*
D03*
X236505Y261870D02*
D03*
X231505D02*
D03*
X226505D02*
D03*
X221505D02*
D03*
D86*
X449458Y296898D02*
D03*
Y289024D02*
D03*
X441458Y296835D02*
D03*
Y288961D02*
D03*
X226505Y376437D02*
D03*
Y368563D02*
D03*
Y347937D02*
D03*
Y340063D02*
D03*
D87*
X512911Y274500D02*
D03*
X501099D02*
D03*
D88*
X384273Y243500D02*
D03*
X367737D02*
D03*
X374470Y169500D02*
D03*
X391005D02*
D03*
D89*
X353005Y216701D02*
D03*
X348005D02*
D03*
X343005D02*
D03*
X338005D02*
D03*
X333005D02*
D03*
X328005D02*
D03*
X323005D02*
D03*
X318005D02*
D03*
X313005D02*
D03*
X308005D02*
D03*
X353005Y179299D02*
D03*
X348005D02*
D03*
X343005D02*
D03*
X338005D02*
D03*
X333005D02*
D03*
X328005D02*
D03*
X323005D02*
D03*
X318005D02*
D03*
X313005D02*
D03*
X308005D02*
D03*
D90*
X249005Y291000D02*
D03*
X284005Y312500D02*
D03*
X270005Y294500D02*
D03*
X315505Y337000D02*
D03*
X365659Y271500D02*
D03*
X223505Y66500D02*
D03*
D91*
X259005Y190000D02*
D03*
Y180157D02*
D03*
D92*
X243059Y180200D02*
D03*
X249751D02*
D03*
X258852Y196500D02*
D03*
X252159D02*
D03*
X233505Y318000D02*
D03*
X226812D02*
D03*
X292159Y203500D02*
D03*
X298851D02*
D03*
X329852Y130000D02*
D03*
X323159D02*
D03*
X285351Y215000D02*
D03*
X278659D02*
D03*
X426351Y284000D02*
D03*
X419659D02*
D03*
X279159Y196500D02*
D03*
X285852D02*
D03*
Y203500D02*
D03*
X279159D02*
D03*
X292159Y196500D02*
D03*
X298851D02*
D03*
X397352Y296500D02*
D03*
X390659D02*
D03*
D93*
X241505Y228500D02*
D03*
D94*
X236505Y248500D02*
D03*
X246505D02*
D03*
D95*
X243005Y269654D02*
D03*
Y276346D02*
D03*
X291005Y238653D02*
D03*
Y245346D02*
D03*
X297005D02*
D03*
Y238653D02*
D03*
X377505Y225000D02*
D03*
Y231693D02*
D03*
X370505Y225153D02*
D03*
Y231846D02*
D03*
X338005Y235653D02*
D03*
Y242347D02*
D03*
X270005Y361846D02*
D03*
Y355153D02*
D03*
X303005Y238653D02*
D03*
Y245346D02*
D03*
X331505Y235653D02*
D03*
Y242347D02*
D03*
X325505D02*
D03*
Y235653D02*
D03*
X319005Y248046D02*
D03*
Y241354D02*
D03*
X318005Y161346D02*
D03*
Y154654D02*
D03*
X311505Y161346D02*
D03*
Y154654D02*
D03*
X366005Y143154D02*
D03*
Y149846D02*
D03*
X358005Y126154D02*
D03*
Y132846D02*
D03*
X411005Y276654D02*
D03*
Y283347D02*
D03*
X390005Y290347D02*
D03*
Y283653D02*
D03*
X398005Y290347D02*
D03*
Y283653D02*
D03*
D96*
X283942Y406000D02*
D03*
X276068D02*
D03*
X269879Y385500D02*
D03*
X262005D02*
D03*
X265942Y406000D02*
D03*
X258068D02*
D03*
X253942Y385500D02*
D03*
X246068D02*
D03*
X329942Y123000D02*
D03*
X322068D02*
D03*
X466442Y101500D02*
D03*
X458568D02*
D03*
X452879D02*
D03*
X445005D02*
D03*
X452942Y93000D02*
D03*
X445068D02*
D03*
X466942D02*
D03*
X459068D02*
D03*
D97*
X311005Y248905D02*
D03*
Y237094D02*
D03*
X340005Y141095D02*
D03*
Y152905D02*
D03*
D98*
X413036Y243000D02*
D03*
X396973D02*
D03*
D99*
X345005Y85551D02*
D03*
Y104449D02*
D03*
X317005Y86051D02*
D03*
Y104949D02*
D03*
D100*
X431005Y140750D02*
D03*
X480505Y159250D02*
D03*
D101*
X421005Y185250D02*
D03*
X441005D02*
D03*
X470505Y203750D02*
D03*
X490505D02*
D03*
D102*
X210434Y329500D02*
D03*
X226576D02*
D03*
X210434Y358000D02*
D03*
X226576D02*
D03*
X270076Y373000D02*
D03*
X253934D02*
D03*
X270076Y343500D02*
D03*
X253934D02*
D03*
D103*
X99631Y26000D02*
D03*
X65379D02*
D03*
D104*
X485721Y226327D02*
D03*
X493005D02*
D03*
X500288D02*
D03*
Y254673D02*
D03*
X493005D02*
D03*
X485721D02*
D03*
D105*
X482769Y240500D02*
D03*
X503241D02*
D03*
D106*
X417796Y276500D02*
D03*
X429214D02*
D03*
X457088Y296500D02*
D03*
X468505D02*
D03*
D107*
X366005Y136209D02*
D03*
Y124791D02*
D03*
D108*
X440505Y203768D02*
D03*
Y237232D02*
D03*
D109*
X313805Y379400D02*
D03*
X238505Y143100D02*
D03*
X25005Y475500D02*
D03*
X575005D02*
D03*
Y25000D02*
D03*
X25005D02*
D03*
D110*
X534505Y205500D02*
D03*
X573875D02*
D03*
X496005Y64500D02*
D03*
Y25130D02*
D03*
X534135Y116500D02*
D03*
X573505D02*
D03*
X406005Y64370D02*
D03*
Y25000D02*
D03*
D111*
X516005Y401000D02*
D03*
X376005Y421000D02*
D03*
Y401000D02*
D03*
Y441000D02*
D03*
Y461000D02*
D03*
Y381000D02*
D03*
Y361000D02*
D03*
Y341000D02*
D03*
Y321000D02*
D03*
X516005D02*
D03*
Y341000D02*
D03*
Y361000D02*
D03*
Y381000D02*
D03*
Y461000D02*
D03*
Y441000D02*
D03*
Y421000D02*
D03*
X376005Y481000D02*
D03*
X516005D02*
D03*
D112*
X384005Y150500D02*
D03*
Y140500D02*
D03*
Y130500D02*
D03*
D113*
X256525Y33000D02*
D03*
X331485D02*
D03*
X294005D02*
D03*
D114*
X34505Y425980D02*
D03*
Y351020D02*
D03*
Y388500D02*
D03*
D115*
X64005Y473000D02*
D03*
X204005D02*
D03*
D116*
X491505Y387500D02*
D03*
X401505D02*
D03*
Y407500D02*
D03*
Y427500D02*
D03*
Y447500D02*
D03*
Y367500D02*
D03*
Y347500D02*
D03*
Y327500D02*
D03*
X491505Y367500D02*
D03*
Y347500D02*
D03*
Y327500D02*
D03*
Y407500D02*
D03*
Y427500D02*
D03*
Y447500D02*
D03*
D117*
X70237Y422000D02*
D03*
X178505D02*
D03*
X225135Y485500D02*
D03*
X264505D02*
D03*
X294033D02*
D03*
X323560D02*
D03*
X332273Y443000D02*
D03*
X224005D02*
D03*
D118*
X206505Y429000D02*
D03*
X199025Y399472D02*
D03*
D119*
X19505Y309000D02*
D03*
X98245D02*
D03*
X52970Y64906D02*
D03*
X143521D02*
D03*
D120*
X424405Y260500D02*
D03*
X445805D02*
D03*
X403005D02*
D03*
D121*
X559505Y309500D02*
D03*
Y289500D02*
=======
21,1,0.1280,0.0300,0,0,90.0*
21,1,0.1100,0.0480,0,0,90.0*
1,1,0.0180,0.0150,0.0550*
1,1,0.0180,0.0150,-0.0550*
1,1,0.0180,-0.0150,-0.0550*
1,1,0.0180,-0.0150,0.0550*
%
%ADD101ROUNDEDRECTD101*%
G04:AMPARAMS|DCode=102|XSize=145.8mil|YSize=63.1mil|CornerRadius=10.9mil|HoleSize=0mil|Usage=FLASHONLY|Rotation=270.000|XOffset=0mil|YOffset=0mil|HoleType=Round|Shape=RoundedRectangle|*
%AMROUNDEDRECTD102*
21,1,0.1458,0.0413,0,0,270.0*
21,1,0.1240,0.0631,0,0,270.0*
1,1,0.0218,-0.0207,-0.0620*
1,1,0.0218,-0.0207,0.0620*
1,1,0.0218,0.0207,0.0620*
1,1,0.0218,0.0207,-0.0620*
%
%ADD102ROUNDEDRECTD102*%
G04:AMPARAMS|DCode=103|XSize=86.7mil|YSize=169.4mil|CornerRadius=13.8mil|HoleSize=0mil|Usage=FLASHONLY|Rotation=270.000|XOffset=0mil|YOffset=0mil|HoleType=Round|Shape=RoundedRectangle|*
%AMROUNDEDRECTD103*
21,1,0.0867,0.1417,0,0,270.0*
21,1,0.0591,0.1694,0,0,270.0*
1,1,0.0277,-0.0709,-0.0295*
1,1,0.0277,-0.0709,0.0295*
1,1,0.0277,0.0709,0.0295*
1,1,0.0277,0.0709,-0.0295*
%
%ADD103ROUNDEDRECTD103*%
G04:AMPARAMS|DCode=104|XSize=71mil|YSize=55.2mil|CornerRadius=15.8mil|HoleSize=0mil|Usage=FLASHONLY|Rotation=90.000|XOffset=0mil|YOffset=0mil|HoleType=Round|Shape=RoundedRectangle|*
%AMROUNDEDRECTD104*
21,1,0.0710,0.0236,0,0,90.0*
21,1,0.0394,0.0552,0,0,90.0*
1,1,0.0316,0.0118,0.0197*
1,1,0.0316,0.0118,-0.0197*
1,1,0.0316,-0.0118,-0.0197*
1,1,0.0316,-0.0118,0.0197*
%
%ADD104ROUNDEDRECTD104*%
G04:AMPARAMS|DCode=105|XSize=126.1mil|YSize=106.4mil|CornerRadius=28.6mil|HoleSize=0mil|Usage=FLASHONLY|Rotation=90.000|XOffset=0mil|YOffset=0mil|HoleType=Round|Shape=RoundedRectangle|*
%AMROUNDEDRECTD105*
21,1,0.1261,0.0492,0,0,90.0*
21,1,0.0689,0.1064,0,0,90.0*
1,1,0.0572,0.0246,0.0344*
1,1,0.0572,0.0246,-0.0344*
1,1,0.0572,-0.0246,-0.0344*
1,1,0.0572,-0.0246,0.0344*
%
%ADD105ROUNDEDRECTD105*%
%ADD106R,0.0608X0.0474*%
%ADD107R,0.0474X0.0608*%
G04:AMPARAMS|DCode=108|XSize=130mil|YSize=126.1mil|CornerRadius=33.5mil|HoleSize=0mil|Usage=FLASHONLY|Rotation=180.000|XOffset=0mil|YOffset=0mil|HoleType=Round|Shape=RoundedRectangle|*
%AMROUNDEDRECTD108*
21,1,0.1300,0.0591,0,0,180.0*
21,1,0.0630,0.1261,0,0,180.0*
1,1,0.0671,-0.0315,0.0295*
1,1,0.0671,0.0315,0.0295*
1,1,0.0671,0.0315,-0.0295*
1,1,0.0671,-0.0315,-0.0295*
%
%ADD108ROUNDEDRECTD108*%
%ADD109C,0.4537*%
%ADD110C,0.1458*%
%ADD111O,0.1655X0.1261*%
%ADD112C,0.0880*%
%ADD113O,0.1458X0.2049*%
%ADD114O,0.2049X0.1458*%
%ADD115O,0.1580X0.1080*%
%ADD116O,0.1580X0.1180*%
%ADD117O,0.0980X0.1380*%
%ADD118C,0.0867*%
%ADD119C,0.1380*%
%ADD120C,0.1280*%
%ADD121O,0.1180X0.0880*%
D84*
X57840Y34150D02*
D03*
X47260Y27660D02*
D03*
X32130Y27940D02*
D03*
X29051Y12100D02*
D03*
X30900Y13700D02*
D03*
X28551Y16600D02*
D03*
X38551Y20850D02*
D03*
X40750Y11050D02*
D03*
X38551Y18800D02*
D03*
X53351Y28900D02*
D03*
D85*
X23651Y28313D02*
D03*
X23150D02*
D03*
X22650D02*
D03*
X22150D02*
D03*
X23651Y26187D02*
D03*
X23150D02*
D03*
X22650D02*
D03*
X22150D02*
D03*
D86*
X44946Y29690D02*
D03*
Y28902D02*
D03*
X44146Y29683D02*
D03*
Y28896D02*
D03*
X22650Y37644D02*
D03*
Y36856D02*
D03*
Y34794D02*
D03*
Y34006D02*
D03*
D87*
X51291Y27450D02*
D03*
X50110D02*
D03*
D88*
X38427Y24350D02*
D03*
X36774D02*
D03*
X37447Y16950D02*
D03*
X39100D02*
D03*
D89*
X35301Y21670D02*
D03*
X34801D02*
D03*
X34300D02*
D03*
X33800D02*
D03*
X33300D02*
D03*
X32801D02*
D03*
X32301D02*
D03*
X31800D02*
D03*
X31300D02*
D03*
X30800D02*
D03*
X35301Y17930D02*
D03*
X34801D02*
D03*
X34300D02*
D03*
X33800D02*
D03*
X33300D02*
D03*
X32801D02*
D03*
X32301D02*
D03*
X31800D02*
D03*
X31300D02*
D03*
X30800D02*
D03*
D90*
X24901Y29100D02*
D03*
X28400Y31250D02*
D03*
X27001Y29450D02*
D03*
X31551Y33700D02*
D03*
X36566Y27150D02*
D03*
X22350Y6650D02*
D03*
D91*
X25900Y19000D02*
D03*
Y18016D02*
D03*
D92*
X24306Y18020D02*
D03*
X24975D02*
D03*
X25885Y19650D02*
D03*
X25216D02*
D03*
X23351Y31800D02*
D03*
X22681D02*
D03*
X29216Y20350D02*
D03*
X29885D02*
D03*
X32985Y13000D02*
D03*
X32316D02*
D03*
X28535Y21500D02*
D03*
X27866D02*
D03*
X42635Y28400D02*
D03*
X41966D02*
D03*
X27916Y19650D02*
D03*
X28585D02*
D03*
Y20350D02*
D03*
X27916D02*
D03*
X29216Y19650D02*
D03*
X29885D02*
D03*
X39735Y29650D02*
D03*
X39066D02*
D03*
D93*
X24151Y22850D02*
D03*
D94*
X23651Y24850D02*
D03*
X24650D02*
D03*
D95*
X24300Y26965D02*
D03*
Y27635D02*
D03*
X29100Y23865D02*
D03*
Y24535D02*
D03*
X29701D02*
D03*
Y23865D02*
D03*
X37750Y22500D02*
D03*
Y23169D02*
D03*
X37050Y22515D02*
D03*
Y23185D02*
D03*
X33800Y23565D02*
D03*
Y24235D02*
D03*
X27001Y36185D02*
D03*
Y35515D02*
D03*
X30301Y23865D02*
D03*
Y24535D02*
D03*
X33150Y23565D02*
D03*
Y24235D02*
D03*
X32550D02*
D03*
Y23565D02*
D03*
X31900Y24805D02*
D03*
Y24135D02*
D03*
X31800Y16135D02*
D03*
Y15465D02*
D03*
X31151Y16135D02*
D03*
Y15465D02*
D03*
X36600Y14315D02*
D03*
Y14985D02*
D03*
X35800Y12615D02*
D03*
Y13285D02*
D03*
X41101Y27665D02*
D03*
Y28335D02*
D03*
X39000Y29035D02*
D03*
Y28365D02*
D03*
X39801Y29035D02*
D03*
Y28365D02*
D03*
D96*
X28394Y40600D02*
D03*
X27607D02*
D03*
X26988Y38550D02*
D03*
X26200D02*
D03*
X26594Y40600D02*
D03*
X25807D02*
D03*
X25394Y38550D02*
D03*
X24607D02*
D03*
X32994Y12300D02*
D03*
X32207D02*
D03*
X46644Y10150D02*
D03*
X45857D02*
D03*
X45288D02*
D03*
X44500D02*
D03*
X45294Y9300D02*
D03*
X44507D02*
D03*
X46694D02*
D03*
X45907D02*
D03*
D97*
X31100Y24891D02*
D03*
Y23709D02*
D03*
X34000Y14109D02*
D03*
Y15291D02*
D03*
D98*
X41304Y24300D02*
D03*
X39697D02*
D03*
D99*
X34501Y8555D02*
D03*
Y10445D02*
D03*
X31700Y8605D02*
D03*
Y10495D02*
D03*
D100*
X43101Y14075D02*
D03*
X48050Y15925D02*
D03*
D101*
X42101Y18525D02*
D03*
X44100D02*
D03*
X47050Y20375D02*
D03*
X49050D02*
D03*
D102*
X21043Y32950D02*
D03*
X22658D02*
D03*
X21043Y35800D02*
D03*
X22658D02*
D03*
X27008Y37300D02*
D03*
X25393D02*
D03*
X27008Y34350D02*
D03*
X25393D02*
D03*
D103*
X9963Y2600D02*
D03*
X6538D02*
D03*
D104*
X48572Y22633D02*
D03*
X49300D02*
D03*
X50029D02*
D03*
Y25467D02*
D03*
X49300D02*
D03*
X48572D02*
D03*
D105*
X48277Y24050D02*
D03*
X50324D02*
D03*
D106*
X41780Y27650D02*
D03*
X42921D02*
D03*
X45709Y29650D02*
D03*
X46851D02*
D03*
D107*
X36600Y13621D02*
D03*
Y12479D02*
D03*
D108*
X44050Y20377D02*
D03*
Y23723D02*
D03*
D109*
X31381Y37940D02*
D03*
X23851Y14310D02*
D03*
X2501Y47550D02*
D03*
X57501D02*
D03*
Y2500D02*
D03*
X2501D02*
D03*
D110*
X53450Y20550D02*
D03*
X57388D02*
D03*
X49601Y6450D02*
D03*
Y2513D02*
D03*
X53413Y11650D02*
D03*
X57351D02*
D03*
X40601Y6437D02*
D03*
Y2500D02*
D03*
D111*
X51600Y40100D02*
D03*
X37601Y42100D02*
D03*
Y40100D02*
D03*
Y44100D02*
D03*
Y46100D02*
D03*
Y38100D02*
D03*
Y36100D02*
D03*
Y34100D02*
D03*
Y32100D02*
D03*
X51600D02*
D03*
Y34100D02*
D03*
Y36100D02*
D03*
Y38100D02*
D03*
Y46100D02*
D03*
Y44100D02*
D03*
Y42100D02*
D03*
X37601Y48100D02*
D03*
X51600D02*
D03*
D112*
X38400Y15050D02*
D03*
Y14050D02*
D03*
Y13050D02*
D03*
D113*
X25652Y3300D02*
D03*
X33149D02*
D03*
X29400D02*
D03*
D114*
X3451Y42598D02*
D03*
Y35102D02*
D03*
Y38850D02*
D03*
D115*
X6400Y47300D02*
D03*
X20401D02*
D03*
D116*
X49151Y38750D02*
D03*
X40150D02*
D03*
Y40750D02*
D03*
Y42750D02*
D03*
Y44750D02*
D03*
Y36750D02*
D03*
Y34750D02*
D03*
Y32750D02*
D03*
X49151Y36750D02*
D03*
Y34750D02*
D03*
Y32750D02*
D03*
Y40750D02*
D03*
Y42750D02*
D03*
Y44750D02*
D03*
D117*
X7024Y42200D02*
D03*
X17851D02*
D03*
X22513Y48550D02*
D03*
X26451D02*
D03*
X29403D02*
D03*
X32356D02*
D03*
X33227Y44300D02*
D03*
X22401D02*
D03*
D118*
X20650Y42900D02*
D03*
X19902Y39947D02*
D03*
D119*
X1951Y30900D02*
D03*
X9825D02*
D03*
X5297Y6491D02*
D03*
X14352D02*
D03*
D120*
X42441Y26050D02*
D03*
X44580D02*
D03*
X40300D02*
D03*
D121*
X55950Y30950D02*
D03*
Y28950D02*
>>>>>>> origin/master
D03*
M02*
