G04 Layer_Physical_Order=2*
G04 Layer_Color=16711680*
%FSLAX24Y24*%
%MOIN*%
G70*
G01*
G75*
%ADD10C,0.0200*%
%ADD37C,0.2250*%
%ADD42C,0.0300*%
%ADD44C,0.0240*%
%ADD51C,0.0600*%
%ADD52C,0.1378*%
%ADD53O,0.1575X0.1181*%
%ADD54C,0.0800*%
%ADD55O,0.1378X0.1969*%
%ADD56O,0.1969X0.1378*%
%ADD57O,0.1500X0.1000*%
%ADD58O,0.1500X0.1100*%
%ADD59O,0.0900X0.1300*%
%ADD60C,0.0787*%
%ADD61C,0.1300*%
%ADD62C,0.1200*%
%ADD63O,0.1100X0.0800*%
%ADD64C,0.0500*%
%ADD65C,0.0350*%
G04:AMPARAMS|DCode=66|XSize=106.3mil|YSize=45.3mil|CornerRadius=5.7mil|HoleSize=0mil|Usage=FLASHONLY|Rotation=90.000|XOffset=0mil|YOffset=0mil|HoleType=Round|Shape=RoundedRectangle|*
%AMROUNDEDRECTD66*
21,1,0.1063,0.0340,0,0,90.0*
21,1,0.0950,0.0453,0,0,90.0*
1,1,0.0113,0.0170,0.0475*
1,1,0.0113,0.0170,-0.0475*
1,1,0.0113,-0.0170,-0.0475*
1,1,0.0113,-0.0170,0.0475*
%
%ADD66ROUNDEDRECTD66*%
G04:AMPARAMS|DCode=67|XSize=55.1mil|YSize=39.4mil|CornerRadius=4.9mil|HoleSize=0mil|Usage=FLASHONLY|Rotation=90.000|XOffset=0mil|YOffset=0mil|HoleType=Round|Shape=RoundedRectangle|*
%AMROUNDEDRECTD67*
21,1,0.0551,0.0295,0,0,90.0*
21,1,0.0453,0.0394,0,0,90.0*
1,1,0.0098,0.0148,0.0226*
1,1,0.0098,0.0148,-0.0226*
1,1,0.0098,-0.0148,-0.0226*
1,1,0.0098,-0.0148,0.0226*
%
%ADD67ROUNDEDRECTD67*%
G36*
X8476Y42361D02*
X8814Y42090D01*
X9165Y41852D01*
X9530Y41645D01*
X9907Y41470D01*
X10298Y41327D01*
X10702Y41215D01*
X11119Y41136D01*
X11549Y41088D01*
X11992Y41072D01*
X9276Y39947D01*
X8481Y39152D01*
X6890Y40743D01*
X8151Y42663D01*
X8476Y42361D01*
D02*
G37*
G36*
X54770Y50015D02*
X54770Y46950D01*
X56750Y44970D01*
X59974D01*
X59991Y44930D01*
Y4980D01*
X56590D01*
X54461Y2850D01*
X54461Y20D01*
X54461Y20D01*
X5520D01*
Y3030D01*
X3131Y5420D01*
X10D01*
Y6950D01*
X-10Y6970D01*
Y26570D01*
X1690Y28270D01*
X14092D01*
X28362Y43660D01*
X30671Y45969D01*
X31670Y50050D01*
X54735Y50051D01*
X54770Y50015D01*
D02*
G37*
%LPC*%
G36*
X35401Y24142D02*
X35325Y24133D01*
X35254Y24103D01*
X35194Y24057D01*
X35147Y23996D01*
X35118Y23926D01*
X35108Y23850D01*
X35118Y23774D01*
X35147Y23704D01*
X35194Y23643D01*
X35237Y23610D01*
Y23090D01*
X35250Y23028D01*
X35285Y22975D01*
X36437Y21822D01*
Y21268D01*
X36098Y20928D01*
X36098Y20928D01*
X36061Y20894D01*
X36045Y20882D01*
X36029Y20871D01*
X36014Y20862D01*
X36000Y20855D01*
X35987Y20849D01*
X35975Y20846D01*
X35964Y20844D01*
X35951Y20843D01*
X35949Y20842D01*
X35875Y20833D01*
X35804Y20803D01*
X35744Y20757D01*
X35697Y20696D01*
X35691Y20680D01*
X35690Y20680D01*
X35577Y20558D01*
X35577Y20557D01*
X34998Y19978D01*
X34998Y19978D01*
X34961Y19944D01*
X34945Y19931D01*
X34929Y19921D01*
X34914Y19912D01*
X34900Y19905D01*
X34887Y19899D01*
X34875Y19896D01*
X34864Y19894D01*
X34851Y19893D01*
X34849Y19892D01*
X34775Y19883D01*
X34704Y19853D01*
X34644Y19807D01*
X34597Y19746D01*
X34568Y19676D01*
X34558Y19600D01*
X34568Y19524D01*
X34597Y19454D01*
X34644Y19393D01*
X34704Y19347D01*
X34775Y19317D01*
X34850Y19308D01*
X34926Y19317D01*
X34997Y19347D01*
X35057Y19393D01*
X35104Y19454D01*
X35133Y19524D01*
X35143Y19598D01*
X35144Y19600D01*
X35144Y19613D01*
X35146Y19624D01*
X35150Y19636D01*
X35155Y19650D01*
X35162Y19664D01*
X35171Y19678D01*
X35182Y19694D01*
X35210Y19728D01*
X35228Y19746D01*
X35228Y19747D01*
X35707Y20226D01*
X35708Y20226D01*
X35726Y20244D01*
X35743Y20258D01*
X35758Y20269D01*
X35772Y20278D01*
X35785Y20284D01*
X35795Y20287D01*
X35804Y20289D01*
X35811Y20289D01*
X35817Y20288D01*
X35827Y20284D01*
X35834Y20284D01*
X35875Y20267D01*
X35951Y20257D01*
X36026Y20267D01*
X36097Y20297D01*
X36157Y20343D01*
X36204Y20404D01*
X36233Y20474D01*
X36243Y20548D01*
X36244Y20550D01*
X36244Y20563D01*
X36246Y20574D01*
X36250Y20586D01*
X36255Y20600D01*
X36262Y20614D01*
X36271Y20628D01*
X36282Y20644D01*
X36310Y20678D01*
X36328Y20696D01*
X36328Y20697D01*
X36716Y21085D01*
X36751Y21138D01*
X36764Y21200D01*
Y21890D01*
X36751Y21952D01*
X36716Y22005D01*
X36319Y22402D01*
X36347Y22445D01*
X36365Y22437D01*
X36440Y22427D01*
X36516Y22437D01*
X36587Y22467D01*
X36647Y22513D01*
X36694Y22574D01*
X36723Y22644D01*
X36733Y22720D01*
X36723Y22796D01*
X36694Y22866D01*
X36647Y22927D01*
X36587Y22973D01*
X36583Y22975D01*
Y23310D01*
X36572Y23365D01*
X36541Y23411D01*
X36541Y23411D01*
X36332Y23621D01*
X36333Y23624D01*
X36343Y23700D01*
X36333Y23776D01*
X36304Y23846D01*
X36257Y23907D01*
X36197Y23953D01*
X36126Y23983D01*
X36051Y23993D01*
X35975Y23983D01*
X35904Y23953D01*
X35844Y23907D01*
X35797Y23846D01*
X35768Y23776D01*
X35758Y23700D01*
X35768Y23624D01*
X35797Y23554D01*
X35844Y23493D01*
X35904Y23447D01*
X35975Y23417D01*
X36051Y23407D01*
X36126Y23417D01*
X36130Y23419D01*
X36298Y23251D01*
Y22975D01*
X36294Y22973D01*
X36234Y22927D01*
X36187Y22866D01*
X36158Y22796D01*
X36148Y22720D01*
X36158Y22644D01*
X36165Y22627D01*
X36123Y22598D01*
X35564Y23158D01*
Y23610D01*
X35607Y23643D01*
X35654Y23704D01*
X35683Y23774D01*
X35693Y23850D01*
X35683Y23926D01*
X35654Y23996D01*
X35607Y24057D01*
X35547Y24103D01*
X35476Y24133D01*
X35401Y24142D01*
D02*
G37*
G36*
X32650Y23242D02*
X32575Y23233D01*
X32504Y23203D01*
X32444Y23157D01*
X32442Y23157D01*
X32429Y23144D01*
X32415Y23133D01*
X32401Y23124D01*
X32386Y23116D01*
X32370Y23109D01*
X32353Y23104D01*
X32334Y23099D01*
X32314Y23096D01*
X32294Y23094D01*
X32270Y23093D01*
X32269Y23093D01*
X30401D01*
X30401Y23093D01*
X30346Y23082D01*
X30300Y23051D01*
X30300Y23051D01*
X29400Y22151D01*
X29369Y22105D01*
X29358Y22050D01*
X29358Y22050D01*
Y21200D01*
X29358Y21200D01*
X29369Y21145D01*
X29400Y21099D01*
X29858Y20641D01*
Y18632D01*
X29857Y18630D01*
X29857Y18607D01*
X29855Y18586D01*
X29851Y18566D01*
X29847Y18548D01*
X29841Y18531D01*
X29834Y18514D01*
X29826Y18499D01*
X29817Y18485D01*
X29807Y18472D01*
X29794Y18458D01*
X29793Y18456D01*
X29747Y18396D01*
X29718Y18326D01*
X29708Y18250D01*
X29718Y18174D01*
X29747Y18104D01*
X29794Y18043D01*
X29854Y17997D01*
X29925Y17967D01*
X30001Y17958D01*
X30076Y17967D01*
X30147Y17997D01*
X30207Y18043D01*
X30254Y18104D01*
X30283Y18174D01*
X30293Y18250D01*
X30283Y18326D01*
X30254Y18396D01*
X30208Y18456D01*
X30207Y18458D01*
X30194Y18472D01*
X30184Y18485D01*
X30175Y18499D01*
X30167Y18514D01*
X30160Y18531D01*
X30154Y18548D01*
X30150Y18566D01*
X30146Y18586D01*
X30144Y18607D01*
X30144Y18630D01*
X30143Y18632D01*
Y20700D01*
X30143Y20700D01*
X30132Y20755D01*
X30101Y20801D01*
X30101Y20801D01*
X29643Y21259D01*
Y21991D01*
X30460Y22807D01*
X32269D01*
X32270Y22807D01*
X32294Y22806D01*
X32314Y22804D01*
X32334Y22801D01*
X32353Y22796D01*
X32370Y22791D01*
X32386Y22784D01*
X32401Y22776D01*
X32415Y22767D01*
X32429Y22756D01*
X32442Y22743D01*
X32444Y22743D01*
X32504Y22697D01*
X32575Y22667D01*
X32650Y22657D01*
X32726Y22667D01*
X32797Y22697D01*
X32857Y22743D01*
X32904Y22804D01*
X32933Y22874D01*
X32943Y22950D01*
X32933Y23026D01*
X32904Y23096D01*
X32857Y23157D01*
X32797Y23203D01*
X32726Y23233D01*
X32650Y23242D01*
D02*
G37*
G36*
X39697Y23696D02*
X39622Y23686D01*
X39551Y23656D01*
X39492Y23611D01*
X39490Y23610D01*
X39480Y23602D01*
X39471Y23595D01*
X39460Y23589D01*
X39447Y23583D01*
X39432Y23579D01*
X39415Y23574D01*
X39397Y23571D01*
X39352Y23567D01*
X39327Y23566D01*
X39327Y23566D01*
X39020D01*
X39020Y23566D01*
X38970Y23568D01*
X38950Y23571D01*
X38931Y23574D01*
X38914Y23578D01*
X38899Y23583D01*
X38886Y23589D01*
X38875Y23595D01*
X38865Y23601D01*
X38855Y23610D01*
X38852Y23611D01*
X38797Y23653D01*
X38726Y23683D01*
X38651Y23693D01*
X38575Y23683D01*
X38504Y23653D01*
X38444Y23607D01*
X38397Y23546D01*
X38368Y23476D01*
X38358Y23400D01*
X38368Y23324D01*
X38397Y23254D01*
X38444Y23193D01*
X38504Y23147D01*
X38575Y23117D01*
X38651Y23108D01*
X38726Y23117D01*
X38797Y23147D01*
X38857Y23193D01*
X38858Y23195D01*
X38861Y23195D01*
X38870Y23204D01*
X38879Y23211D01*
X38890Y23217D01*
X38903Y23223D01*
X38918Y23228D01*
X38935Y23232D01*
X38953Y23235D01*
X38997Y23239D01*
X39022Y23240D01*
X39023Y23240D01*
X39326D01*
X39326Y23240D01*
X39376Y23238D01*
X39396Y23235D01*
X39415Y23232D01*
X39432Y23228D01*
X39447Y23223D01*
X39460Y23217D01*
X39471Y23211D01*
X39480Y23205D01*
X39490Y23196D01*
X39492Y23195D01*
X39551Y23150D01*
X39622Y23121D01*
X39697Y23111D01*
X39773Y23121D01*
X39844Y23150D01*
X39904Y23196D01*
X39951Y23257D01*
X39980Y23327D01*
X39990Y23403D01*
X39980Y23479D01*
X39951Y23549D01*
X39904Y23610D01*
X39844Y23656D01*
X39773Y23686D01*
X39697Y23696D01*
D02*
G37*
G36*
X53450Y21282D02*
X53308Y21268D01*
X53170Y21227D01*
X53044Y21159D01*
X52933Y21068D01*
X52841Y20957D01*
X52774Y20830D01*
X52732Y20693D01*
X52718Y20550D01*
X52732Y20407D01*
X52774Y20270D01*
X52841Y20143D01*
X52933Y20032D01*
X53044Y19941D01*
X53170Y19873D01*
X53308Y19832D01*
X53450Y19818D01*
X53593Y19832D01*
X53731Y19873D01*
X53857Y19941D01*
X53968Y20032D01*
X54060Y20143D01*
X54127Y20270D01*
X54169Y20407D01*
X54183Y20550D01*
X54169Y20693D01*
X54127Y20830D01*
X54060Y20957D01*
X53968Y21068D01*
X53857Y21159D01*
X53731Y21227D01*
X53593Y21268D01*
X53450Y21282D01*
D02*
G37*
G36*
X30101Y21642D02*
X30025Y21633D01*
X29954Y21603D01*
X29894Y21557D01*
X29847Y21496D01*
X29818Y21426D01*
X29808Y21350D01*
X29818Y21274D01*
X29847Y21204D01*
X29894Y21143D01*
X29954Y21097D01*
X30025Y21067D01*
X30054Y21064D01*
X30060Y21059D01*
X30079Y21056D01*
X30096Y21052D01*
X30113Y21047D01*
X30130Y21040D01*
X30147Y21031D01*
X30163Y21022D01*
X30180Y21011D01*
X30196Y20998D01*
X30213Y20984D01*
X30230Y20968D01*
X30231Y20968D01*
X30780Y20419D01*
X30780Y20418D01*
X30796Y20401D01*
X30810Y20384D01*
X30821Y20368D01*
X30831Y20352D01*
X30839Y20336D01*
X30846Y20320D01*
X30851Y20303D01*
X30855Y20287D01*
X30857Y20270D01*
X30857Y20251D01*
X30858Y20249D01*
X30868Y20174D01*
X30897Y20104D01*
X30944Y20043D01*
X31004Y19997D01*
X31075Y19967D01*
X31151Y19957D01*
X31226Y19967D01*
X31297Y19997D01*
X31357Y20043D01*
X31404Y20104D01*
X31433Y20174D01*
X31443Y20250D01*
X31433Y20326D01*
X31404Y20396D01*
X31357Y20457D01*
X31297Y20503D01*
X31226Y20533D01*
X31151Y20542D01*
X31149Y20543D01*
X31131Y20544D01*
X31114Y20546D01*
X31097Y20549D01*
X31081Y20555D01*
X31065Y20561D01*
X31049Y20569D01*
X31032Y20579D01*
X31016Y20591D01*
X31000Y20604D01*
X30983Y20620D01*
X30982Y20621D01*
X30458Y21144D01*
X30458Y21144D01*
X30458Y21144D01*
X30455Y21147D01*
X30455Y21148D01*
X30439Y21166D01*
X30426Y21182D01*
X30415Y21197D01*
X30406Y21213D01*
X30399Y21228D01*
X30394Y21244D01*
X30391Y21259D01*
X30389Y21274D01*
X30389Y21290D01*
X30391Y21308D01*
X30388Y21315D01*
X30393Y21350D01*
X30383Y21426D01*
X30354Y21496D01*
X30307Y21557D01*
X30247Y21603D01*
X30176Y21633D01*
X30101Y21642D01*
D02*
G37*
G36*
X24560Y21523D02*
X24485Y21513D01*
X24414Y21483D01*
X24354Y21437D01*
X24307Y21376D01*
X24306Y21373D01*
X23795D01*
X23794Y21376D01*
X23747Y21437D01*
X23687Y21483D01*
X23616Y21513D01*
X23540Y21523D01*
X23465Y21513D01*
X23394Y21483D01*
X23334Y21437D01*
X23287Y21376D01*
X23258Y21306D01*
X23248Y21230D01*
X23258Y21154D01*
X23287Y21084D01*
X23334Y21023D01*
X23394Y20977D01*
X23465Y20947D01*
X23540Y20938D01*
X23616Y20947D01*
X23687Y20977D01*
X23747Y21023D01*
X23794Y21084D01*
X23795Y21087D01*
X24306D01*
X24307Y21084D01*
X24354Y21023D01*
X24414Y20977D01*
X24485Y20947D01*
X24560Y20938D01*
X24636Y20947D01*
X24707Y20977D01*
X24767Y21023D01*
X24814Y21084D01*
X24843Y21154D01*
X24853Y21230D01*
X24843Y21306D01*
X24814Y21376D01*
X24767Y21437D01*
X24707Y21483D01*
X24636Y21513D01*
X24560Y21523D01*
D02*
G37*
G36*
X36771Y25584D02*
X36696Y25569D01*
X36634Y25527D01*
X36592Y25464D01*
X36577Y25390D01*
X36592Y25316D01*
X36634Y25253D01*
X36637Y25250D01*
X36700Y25208D01*
X36774Y25193D01*
X36848Y25208D01*
X36911Y25250D01*
X36953Y25313D01*
X36967Y25387D01*
X36953Y25461D01*
X36911Y25524D01*
X36907Y25527D01*
X36845Y25569D01*
X36771Y25584D01*
D02*
G37*
G36*
X56101Y31394D02*
X55800D01*
X55686Y31379D01*
X55579Y31334D01*
X55487Y31264D01*
X55416Y31172D01*
X55372Y31065D01*
X55357Y30950D01*
X55372Y30835D01*
X55416Y30728D01*
X55487Y30636D01*
X55579Y30566D01*
X55686Y30521D01*
X55800Y30506D01*
X56101D01*
X56215Y30521D01*
X56322Y30566D01*
X56414Y30636D01*
X56485Y30728D01*
X56529Y30835D01*
X56544Y30950D01*
X56529Y31065D01*
X56485Y31172D01*
X56414Y31264D01*
X56322Y31334D01*
X56215Y31379D01*
X56101Y31394D01*
D02*
G37*
G36*
X37797Y32734D02*
X37404D01*
X37280Y32721D01*
X37161Y32685D01*
X37052Y32627D01*
X36956Y32548D01*
X36877Y32452D01*
X36818Y32342D01*
X36782Y32224D01*
X36770Y32100D01*
X36782Y31976D01*
X36818Y31858D01*
X36877Y31748D01*
X36956Y31652D01*
X37052Y31573D01*
X37161Y31515D01*
X37280Y31479D01*
X37404Y31466D01*
X37797D01*
X37921Y31479D01*
X38040Y31515D01*
X38149Y31573D01*
X38245Y31652D01*
X38324Y31748D01*
X38383Y31858D01*
X38419Y31976D01*
X38431Y32100D01*
X38419Y32224D01*
X38383Y32342D01*
X38324Y32452D01*
X38245Y32548D01*
X38149Y32627D01*
X38040Y32685D01*
X37921Y32721D01*
X37797Y32734D01*
D02*
G37*
G36*
X51797D02*
X51404D01*
X51280Y32721D01*
X51161Y32685D01*
X51052Y32627D01*
X50956Y32548D01*
X50877Y32452D01*
X50818Y32342D01*
X50782Y32224D01*
X50770Y32100D01*
X50782Y31976D01*
X50818Y31858D01*
X50877Y31748D01*
X50956Y31652D01*
X51052Y31573D01*
X51161Y31515D01*
X51280Y31479D01*
X51404Y31466D01*
X51797D01*
X51921Y31479D01*
X52040Y31515D01*
X52149Y31573D01*
X52245Y31652D01*
X52324Y31748D01*
X52383Y31858D01*
X52419Y31976D01*
X52431Y32100D01*
X52419Y32224D01*
X52383Y32342D01*
X52324Y32452D01*
X52245Y32548D01*
X52149Y32627D01*
X52040Y32685D01*
X51921Y32721D01*
X51797Y32734D01*
D02*
G37*
G36*
X56101Y29394D02*
X55800D01*
X55686Y29379D01*
X55579Y29334D01*
X55487Y29264D01*
X55416Y29172D01*
X55372Y29065D01*
X55357Y28950D01*
X55372Y28835D01*
X55416Y28728D01*
X55487Y28636D01*
X55579Y28566D01*
X55686Y28521D01*
X55800Y28506D01*
X56101D01*
X56215Y28521D01*
X56322Y28566D01*
X56414Y28636D01*
X56485Y28728D01*
X56529Y28835D01*
X56544Y28950D01*
X56529Y29065D01*
X56485Y29172D01*
X56414Y29264D01*
X56322Y29334D01*
X56215Y29379D01*
X56101Y29394D01*
D02*
G37*
G36*
X42441Y26693D02*
X42315Y26681D01*
X42194Y26644D01*
X42083Y26585D01*
X41986Y26505D01*
X41906Y26407D01*
X41846Y26296D01*
X41810Y26175D01*
X41797Y26050D01*
X41810Y25925D01*
X41846Y25804D01*
X41906Y25693D01*
X41986Y25595D01*
X42083Y25515D01*
X42194Y25456D01*
X42315Y25419D01*
X42441Y25407D01*
X42566Y25419D01*
X42687Y25456D01*
X42798Y25515D01*
X42895Y25595D01*
X42975Y25693D01*
X43035Y25804D01*
X43071Y25925D01*
X43084Y26050D01*
X43071Y26175D01*
X43035Y26296D01*
X42975Y26407D01*
X42895Y26505D01*
X42798Y26585D01*
X42687Y26644D01*
X42566Y26681D01*
X42441Y26693D01*
D02*
G37*
G36*
X44580D02*
X44455Y26681D01*
X44334Y26644D01*
X44223Y26585D01*
X44126Y26505D01*
X44046Y26407D01*
X43986Y26296D01*
X43950Y26175D01*
X43937Y26050D01*
X43950Y25925D01*
X43986Y25804D01*
X44046Y25693D01*
X44126Y25595D01*
X44223Y25515D01*
X44334Y25456D01*
X44455Y25419D01*
X44580Y25407D01*
X44706Y25419D01*
X44827Y25456D01*
X44938Y25515D01*
X45035Y25595D01*
X45115Y25693D01*
X45175Y25804D01*
X45211Y25925D01*
X45224Y26050D01*
X45211Y26175D01*
X45175Y26296D01*
X45115Y26407D01*
X45035Y26505D01*
X44938Y26585D01*
X44827Y26644D01*
X44706Y26681D01*
X44580Y26693D01*
D02*
G37*
G36*
X49351Y26274D02*
X49281D01*
X49206Y26259D01*
X49144Y26217D01*
X49102Y26154D01*
X49087Y26080D01*
X49102Y26006D01*
X49144Y25943D01*
X49206Y25901D01*
X49281Y25886D01*
X49351D01*
X49425Y25901D01*
X49487Y25943D01*
X49529Y26006D01*
X49544Y26080D01*
X49529Y26154D01*
X49487Y26217D01*
X49425Y26259D01*
X49351Y26274D01*
D02*
G37*
G36*
X35900Y21742D02*
X35825Y21733D01*
X35754Y21703D01*
X35694Y21657D01*
X35647Y21596D01*
X35618Y21526D01*
X35608Y21451D01*
X35607Y21449D01*
X35607Y21430D01*
X35605Y21413D01*
X35601Y21397D01*
X35596Y21380D01*
X35589Y21364D01*
X35581Y21348D01*
X35571Y21332D01*
X35560Y21316D01*
X35546Y21299D01*
X35530Y21282D01*
X35530Y21281D01*
X34241Y19993D01*
X33351D01*
X33296Y19982D01*
X33250Y19951D01*
X33250Y19951D01*
X32469Y19171D01*
X32468Y19170D01*
X32451Y19154D01*
X32435Y19141D01*
X32419Y19129D01*
X32402Y19119D01*
X32386Y19111D01*
X32370Y19105D01*
X32354Y19099D01*
X32337Y19096D01*
X32320Y19094D01*
X32302Y19093D01*
X32300Y19092D01*
X32225Y19083D01*
X32154Y19053D01*
X32094Y19007D01*
X32047Y18946D01*
X32018Y18876D01*
X32008Y18800D01*
X32018Y18724D01*
X32047Y18654D01*
X32094Y18593D01*
X32154Y18547D01*
X32225Y18517D01*
X32301Y18507D01*
X32376Y18517D01*
X32447Y18547D01*
X32507Y18593D01*
X32554Y18654D01*
X32583Y18724D01*
X32593Y18799D01*
X32594Y18801D01*
X32594Y18820D01*
X32596Y18837D01*
X32600Y18853D01*
X32605Y18870D01*
X32612Y18886D01*
X32620Y18902D01*
X32630Y18918D01*
X32641Y18934D01*
X32655Y18951D01*
X32671Y18968D01*
X32671Y18969D01*
X33410Y19707D01*
X34300D01*
X34300Y19707D01*
X34355Y19718D01*
X34401Y19749D01*
X35732Y21079D01*
X35733Y21080D01*
X35750Y21096D01*
X35766Y21109D01*
X35782Y21121D01*
X35799Y21131D01*
X35815Y21139D01*
X35831Y21145D01*
X35847Y21151D01*
X35864Y21154D01*
X35881Y21156D01*
X35899Y21157D01*
X35901Y21158D01*
X35976Y21167D01*
X36047Y21197D01*
X36107Y21243D01*
X36154Y21304D01*
X36183Y21374D01*
X36193Y21450D01*
X36183Y21526D01*
X36154Y21596D01*
X36107Y21657D01*
X36047Y21703D01*
X35976Y21733D01*
X35900Y21742D01*
D02*
G37*
G36*
X5297Y7184D02*
X5162Y7171D01*
X5032Y7131D01*
X4912Y7067D01*
X4807Y6981D01*
X4720Y6876D01*
X4656Y6756D01*
X4617Y6626D01*
X4604Y6491D01*
X4617Y6355D01*
X4656Y6225D01*
X4720Y6105D01*
X4807Y6000D01*
X4912Y5914D01*
X5032Y5850D01*
X5162Y5811D01*
X5297Y5797D01*
X5432Y5811D01*
X5562Y5850D01*
X5682Y5914D01*
X5787Y6000D01*
X5873Y6105D01*
X5938Y6225D01*
X5977Y6355D01*
X5990Y6491D01*
X5977Y6626D01*
X5938Y6756D01*
X5873Y6876D01*
X5787Y6981D01*
X5682Y7067D01*
X5562Y7131D01*
X5432Y7171D01*
X5297Y7184D01*
D02*
G37*
G36*
X53413Y12383D02*
X53271Y12368D01*
X53133Y12327D01*
X53007Y12259D01*
X52896Y12168D01*
X52804Y12057D01*
X52737Y11930D01*
X52695Y11793D01*
X52681Y11650D01*
X52695Y11507D01*
X52737Y11370D01*
X52804Y11243D01*
X52896Y11132D01*
X53007Y11041D01*
X53133Y10973D01*
X53271Y10932D01*
X53413Y10918D01*
X53556Y10932D01*
X53694Y10973D01*
X53820Y11041D01*
X53931Y11132D01*
X54023Y11243D01*
X54090Y11370D01*
X54132Y11507D01*
X54146Y11650D01*
X54132Y11793D01*
X54090Y11930D01*
X54023Y12057D01*
X53931Y12168D01*
X53820Y12259D01*
X53694Y12327D01*
X53556Y12368D01*
X53413Y12383D01*
D02*
G37*
G36*
X33851Y11793D02*
X33775Y11783D01*
X33704Y11753D01*
X33644Y11707D01*
X33597Y11646D01*
X33568Y11576D01*
X33558Y11500D01*
X33568Y11424D01*
X33597Y11354D01*
X33644Y11293D01*
X33704Y11247D01*
X33775Y11217D01*
X33851Y11207D01*
X33920Y11217D01*
X33920Y11217D01*
X33920Y11217D01*
X33925Y11213D01*
X33932Y11209D01*
X33984Y11164D01*
X33999Y11148D01*
X34002Y11147D01*
X34046Y11118D01*
X34100Y11107D01*
X34969D01*
X34970Y11107D01*
X34994Y11106D01*
X35014Y11104D01*
X35034Y11101D01*
X35053Y11096D01*
X35070Y11091D01*
X35086Y11084D01*
X35101Y11076D01*
X35115Y11067D01*
X35129Y11056D01*
X35142Y11043D01*
X35144Y11043D01*
X35204Y10997D01*
X35275Y10967D01*
X35350Y10957D01*
X35426Y10967D01*
X35497Y10997D01*
X35557Y11043D01*
X35604Y11104D01*
X35633Y11174D01*
X35643Y11250D01*
X35633Y11326D01*
X35604Y11396D01*
X35557Y11457D01*
X35497Y11503D01*
X35426Y11533D01*
X35350Y11543D01*
X35275Y11533D01*
X35204Y11503D01*
X35144Y11457D01*
X35142Y11457D01*
X35129Y11444D01*
X35115Y11433D01*
X35101Y11424D01*
X35086Y11416D01*
X35070Y11409D01*
X35053Y11404D01*
X35034Y11399D01*
X35014Y11396D01*
X34994Y11394D01*
X34970Y11393D01*
X34969Y11393D01*
X34163D01*
X34150Y11408D01*
X34143Y11417D01*
X34137Y11425D01*
X34134Y11431D01*
X34134Y11431D01*
X34134Y11431D01*
X34143Y11500D01*
X34133Y11576D01*
X34104Y11646D01*
X34057Y11707D01*
X33997Y11753D01*
X33926Y11783D01*
X33851Y11793D01*
D02*
G37*
G36*
X49601Y7182D02*
X49458Y7168D01*
X49320Y7127D01*
X49194Y7059D01*
X49083Y6968D01*
X48991Y6857D01*
X48924Y6730D01*
X48882Y6593D01*
X48868Y6450D01*
X48882Y6307D01*
X48924Y6170D01*
X48991Y6043D01*
X49083Y5932D01*
X49194Y5841D01*
X49320Y5773D01*
X49458Y5732D01*
X49601Y5717D01*
X49743Y5732D01*
X49881Y5773D01*
X50007Y5841D01*
X50118Y5932D01*
X50210Y6043D01*
X50277Y6170D01*
X50319Y6307D01*
X50333Y6450D01*
X50319Y6593D01*
X50277Y6730D01*
X50210Y6857D01*
X50118Y6968D01*
X50007Y7059D01*
X49881Y7127D01*
X49743Y7168D01*
X49601Y7182D01*
D02*
G37*
G36*
X25652Y4328D02*
X25510Y4314D01*
X25372Y4272D01*
X25246Y4204D01*
X25135Y4113D01*
X25043Y4002D01*
X24976Y3876D01*
X24934Y3738D01*
X24920Y3595D01*
Y3005D01*
X24934Y2862D01*
X24976Y2724D01*
X25043Y2598D01*
X25135Y2487D01*
X25246Y2396D01*
X25372Y2328D01*
X25510Y2286D01*
X25652Y2272D01*
X25795Y2286D01*
X25933Y2328D01*
X26059Y2396D01*
X26170Y2487D01*
X26262Y2598D01*
X26329Y2724D01*
X26371Y2862D01*
X26385Y3005D01*
Y3595D01*
X26371Y3738D01*
X26329Y3876D01*
X26262Y4002D01*
X26170Y4113D01*
X26059Y4204D01*
X25933Y4272D01*
X25795Y4314D01*
X25652Y4328D01*
D02*
G37*
G36*
X33149D02*
X33006Y4314D01*
X32868Y4272D01*
X32742Y4204D01*
X32631Y4113D01*
X32539Y4002D01*
X32472Y3876D01*
X32430Y3738D01*
X32416Y3595D01*
Y3005D01*
X32430Y2862D01*
X32472Y2724D01*
X32539Y2598D01*
X32631Y2487D01*
X32742Y2396D01*
X32868Y2328D01*
X33006Y2286D01*
X33149Y2272D01*
X33291Y2286D01*
X33429Y2328D01*
X33555Y2396D01*
X33666Y2487D01*
X33758Y2598D01*
X33825Y2724D01*
X33867Y2862D01*
X33881Y3005D01*
Y3595D01*
X33867Y3738D01*
X33825Y3876D01*
X33758Y4002D01*
X33666Y4113D01*
X33555Y4204D01*
X33429Y4272D01*
X33291Y4314D01*
X33149Y4328D01*
D02*
G37*
G36*
X40601Y7170D02*
X40458Y7155D01*
X40320Y7114D01*
X40194Y7046D01*
X40083Y6955D01*
X39991Y6844D01*
X39924Y6717D01*
X39882Y6580D01*
X39868Y6437D01*
X39882Y6294D01*
X39924Y6157D01*
X39991Y6030D01*
X40083Y5919D01*
X40194Y5828D01*
X40320Y5760D01*
X40458Y5719D01*
X40601Y5705D01*
X40743Y5719D01*
X40881Y5760D01*
X41007Y5828D01*
X41118Y5919D01*
X41210Y6030D01*
X41277Y6157D01*
X41319Y6294D01*
X41333Y6437D01*
X41319Y6580D01*
X41277Y6717D01*
X41210Y6844D01*
X41118Y6955D01*
X41007Y7046D01*
X40881Y7114D01*
X40743Y7155D01*
X40601Y7170D01*
D02*
G37*
G36*
X33900Y12593D02*
X33825Y12583D01*
X33754Y12553D01*
X33694Y12507D01*
X33647Y12446D01*
X33618Y12376D01*
X33608Y12300D01*
X33618Y12224D01*
X33647Y12154D01*
X33694Y12093D01*
X33754Y12047D01*
X33825Y12017D01*
X33900Y12007D01*
X33976Y12017D01*
X34047Y12047D01*
X34106Y12092D01*
X34108Y12093D01*
X34118Y12102D01*
X34127Y12108D01*
X34138Y12114D01*
X34151Y12120D01*
X34166Y12125D01*
X34183Y12129D01*
X34201Y12132D01*
X34246Y12136D01*
X34271Y12137D01*
X34271Y12137D01*
X34483D01*
X34785Y11835D01*
X34838Y11799D01*
X34901Y11787D01*
X35129D01*
X35129Y11787D01*
X35179Y11785D01*
X35199Y11782D01*
X35218Y11779D01*
X35235Y11775D01*
X35250Y11770D01*
X35263Y11764D01*
X35274Y11758D01*
X35283Y11752D01*
X35293Y11743D01*
X35295Y11742D01*
X35354Y11697D01*
X35425Y11667D01*
X35501Y11658D01*
X35576Y11667D01*
X35647Y11697D01*
X35707Y11743D01*
X35754Y11804D01*
X35783Y11874D01*
X35793Y11950D01*
X35783Y12026D01*
X35754Y12096D01*
X35707Y12157D01*
X35647Y12203D01*
X35576Y12233D01*
X35501Y12242D01*
X35425Y12233D01*
X35354Y12203D01*
X35295Y12158D01*
X35293Y12157D01*
X35283Y12148D01*
X35274Y12142D01*
X35263Y12136D01*
X35250Y12130D01*
X35235Y12125D01*
X35218Y12121D01*
X35200Y12118D01*
X35155Y12114D01*
X35130Y12113D01*
X35130Y12113D01*
X34968D01*
X34666Y12415D01*
X34613Y12451D01*
X34550Y12463D01*
X34272D01*
X34272Y12463D01*
X34222Y12465D01*
X34202Y12468D01*
X34183Y12471D01*
X34166Y12475D01*
X34151Y12480D01*
X34138Y12486D01*
X34127Y12492D01*
X34118Y12498D01*
X34108Y12507D01*
X34106Y12508D01*
X34047Y12553D01*
X33976Y12583D01*
X33900Y12593D01*
D02*
G37*
G36*
X34952Y17217D02*
X34657D01*
X34622Y17210D01*
X34593Y17191D01*
X34573Y17161D01*
X34566Y17126D01*
Y16674D01*
X34573Y16639D01*
X34593Y16609D01*
X34622Y16590D01*
X34657Y16583D01*
X34952D01*
X34987Y16590D01*
X35017Y16609D01*
X35037Y16639D01*
X35043Y16674D01*
Y17126D01*
X35037Y17161D01*
X35017Y17191D01*
X34987Y17210D01*
X34952Y17217D01*
D02*
G37*
G36*
X24012Y16863D02*
X23765D01*
X23763Y16862D01*
X23761Y16863D01*
X23512Y16839D01*
X23510Y16837D01*
X23507Y16838D01*
X23262Y16789D01*
X23260Y16788D01*
X23258Y16788D01*
X23018Y16715D01*
X23016Y16714D01*
X23014D01*
X22782Y16618D01*
X22781Y16616D01*
X22779Y16616D01*
X22558Y16498D01*
X22556Y16496D01*
X22554Y16496D01*
X22346Y16357D01*
X22344Y16355D01*
X22342Y16354D01*
X22148Y16195D01*
X22147Y16193D01*
X22145Y16192D01*
X21968Y16015D01*
X21967Y16013D01*
X21965Y16012D01*
X21806Y15818D01*
X21806Y15816D01*
X21804Y15815D01*
X21665Y15607D01*
X21664Y15604D01*
X21662Y15603D01*
X21544Y15382D01*
X21544Y15380D01*
X21543Y15378D01*
X21447Y15147D01*
Y15144D01*
X21445Y15143D01*
X21373Y14903D01*
X21373Y14901D01*
X21371Y14899D01*
X21323Y14653D01*
X21323Y14651D01*
X21322Y14649D01*
X21297Y14400D01*
X21298Y14397D01*
X21297Y14395D01*
Y14129D01*
X21298Y14127D01*
X21297Y14124D01*
X21321Y13883D01*
X21322Y13881D01*
X21322Y13879D01*
X21369Y13641D01*
X21370Y13639D01*
X21370Y13637D01*
X21441Y13404D01*
X21442Y13403D01*
Y13400D01*
X21535Y13176D01*
X21537Y13175D01*
X21537Y13172D01*
X21651Y12958D01*
X21653Y12957D01*
X21653Y12955D01*
X21788Y12753D01*
X21790Y12752D01*
X21791Y12749D01*
X21945Y12562D01*
X21947Y12561D01*
X21948Y12559D01*
X22119Y12387D01*
X22121Y12386D01*
X22122Y12384D01*
X22310Y12230D01*
X22312Y12230D01*
X22313Y12228D01*
X22515Y12093D01*
X22517Y12092D01*
X22519Y12091D01*
X22733Y11976D01*
X22735Y11976D01*
X22737Y11974D01*
X22961Y11882D01*
X22963D01*
X22965Y11880D01*
X23197Y11810D01*
X23199Y11810D01*
X23201Y11809D01*
X23439Y11761D01*
X23441Y11762D01*
X23443Y11761D01*
X23685Y11737D01*
X23687Y11738D01*
X23689Y11737D01*
X24012D01*
X24014Y11738D01*
X24016Y11737D01*
X24258Y11761D01*
X24260Y11762D01*
X24262Y11761D01*
X24500Y11809D01*
X24502Y11810D01*
X24504Y11810D01*
X24736Y11880D01*
X24738Y11882D01*
X24740D01*
X24964Y11974D01*
X24966Y11976D01*
X24968Y11976D01*
X25182Y12091D01*
X25184Y12092D01*
X25186Y12093D01*
X25388Y12228D01*
X25389Y12230D01*
X25391Y12230D01*
X25579Y12384D01*
X25580Y12386D01*
X25582Y12387D01*
X25753Y12559D01*
X25754Y12561D01*
X25756Y12562D01*
X25910Y12749D01*
X25911Y12752D01*
X25913Y12753D01*
X26048Y12955D01*
X26048Y12957D01*
X26050Y12958D01*
X26164Y13172D01*
X26164Y13175D01*
X26166Y13176D01*
X26259Y13400D01*
Y13403D01*
X26260Y13404D01*
X26331Y13637D01*
X26331Y13639D01*
X26332Y13641D01*
X26379Y13879D01*
X26379Y13881D01*
X26380Y13883D01*
X26404Y14124D01*
X26403Y14127D01*
X26404Y14129D01*
Y14471D01*
X26403Y14473D01*
X26404Y14476D01*
X26380Y14717D01*
X26379Y14719D01*
X26379Y14721D01*
X26332Y14959D01*
X26331Y14961D01*
X26331Y14963D01*
X26260Y15196D01*
X26259Y15197D01*
Y15200D01*
X26166Y15424D01*
X26164Y15425D01*
X26164Y15428D01*
X26050Y15642D01*
X26048Y15643D01*
X26048Y15645D01*
X25913Y15847D01*
X25911Y15848D01*
X25910Y15851D01*
X25756Y16038D01*
X25754Y16039D01*
X25753Y16041D01*
X25582Y16213D01*
X25580Y16214D01*
X25579Y16216D01*
X25391Y16370D01*
X25389Y16370D01*
X25388Y16372D01*
X25186Y16507D01*
X25184Y16508D01*
X25182Y16509D01*
X24968Y16624D01*
X24966Y16624D01*
X24964Y16626D01*
X24740Y16718D01*
X24738D01*
X24736Y16720D01*
X24504Y16790D01*
X24502Y16790D01*
X24500Y16791D01*
X24262Y16839D01*
X24260Y16838D01*
X24258Y16839D01*
X24016Y16863D01*
X24014Y16862D01*
X24012Y16863D01*
D02*
G37*
G36*
X36151Y20243D02*
X36075Y20233D01*
X36004Y20203D01*
X35944Y20157D01*
X35897Y20096D01*
X35868Y20026D01*
X35858Y19951D01*
X35857Y19949D01*
X35857Y19930D01*
X35855Y19913D01*
X35851Y19897D01*
X35846Y19880D01*
X35839Y19864D01*
X35831Y19848D01*
X35821Y19832D01*
X35810Y19816D01*
X35796Y19799D01*
X35780Y19782D01*
X35780Y19781D01*
X35469Y19471D01*
X35468Y19470D01*
X35451Y19454D01*
X35435Y19441D01*
X35419Y19429D01*
X35402Y19419D01*
X35386Y19411D01*
X35370Y19405D01*
X35354Y19399D01*
X35337Y19396D01*
X35320Y19394D01*
X35302Y19393D01*
X35300Y19392D01*
X35225Y19383D01*
X35154Y19353D01*
X35094Y19307D01*
X35047Y19246D01*
X35018Y19176D01*
X35008Y19100D01*
X35018Y19024D01*
X35047Y18954D01*
X35094Y18893D01*
X35154Y18847D01*
X35225Y18817D01*
X35301Y18807D01*
X35376Y18817D01*
X35447Y18847D01*
X35507Y18893D01*
X35554Y18954D01*
X35583Y19024D01*
X35593Y19099D01*
X35594Y19101D01*
X35594Y19120D01*
X35596Y19137D01*
X35600Y19153D01*
X35605Y19170D01*
X35612Y19186D01*
X35620Y19202D01*
X35630Y19218D01*
X35641Y19234D01*
X35655Y19251D01*
X35671Y19268D01*
X35671Y19269D01*
X35982Y19579D01*
X35983Y19580D01*
X36000Y19596D01*
X36016Y19609D01*
X36032Y19621D01*
X36049Y19631D01*
X36065Y19639D01*
X36081Y19645D01*
X36097Y19651D01*
X36114Y19654D01*
X36131Y19656D01*
X36149Y19657D01*
X36151Y19658D01*
X36226Y19667D01*
X36297Y19697D01*
X36357Y19743D01*
X36404Y19804D01*
X36433Y19874D01*
X36443Y19950D01*
X36433Y20026D01*
X36404Y20096D01*
X36357Y20157D01*
X36297Y20203D01*
X36226Y20233D01*
X36151Y20243D01*
D02*
G37*
G36*
X34952Y16467D02*
X34657D01*
X34622Y16460D01*
X34593Y16441D01*
X34573Y16411D01*
X34566Y16376D01*
Y15924D01*
X34573Y15889D01*
X34593Y15859D01*
X34622Y15840D01*
X34657Y15833D01*
X34952D01*
X34987Y15840D01*
X35017Y15859D01*
X35037Y15889D01*
X35043Y15924D01*
Y16376D01*
X35037Y16411D01*
X35017Y16441D01*
X34987Y16460D01*
X34952Y16467D01*
D02*
G37*
G36*
X38400Y13494D02*
X38286Y13479D01*
X38179Y13434D01*
X38087Y13364D01*
X38016Y13272D01*
X37972Y13165D01*
X37957Y13050D01*
X37972Y12935D01*
X38016Y12828D01*
X38087Y12736D01*
X38179Y12666D01*
X38286Y12621D01*
X38400Y12606D01*
X38515Y12621D01*
X38622Y12666D01*
X38714Y12736D01*
X38785Y12828D01*
X38829Y12935D01*
X38844Y13050D01*
X38829Y13165D01*
X38785Y13272D01*
X38714Y13364D01*
X38622Y13434D01*
X38515Y13479D01*
X38400Y13494D01*
D02*
G37*
G36*
Y14494D02*
X38286Y14479D01*
X38179Y14434D01*
X38087Y14364D01*
X38016Y14272D01*
X37972Y14165D01*
X37957Y14050D01*
X37972Y13935D01*
X38016Y13828D01*
X38087Y13736D01*
X38179Y13666D01*
X38286Y13621D01*
X38400Y13606D01*
X38515Y13621D01*
X38622Y13666D01*
X38714Y13736D01*
X38785Y13828D01*
X38829Y13935D01*
X38844Y14050D01*
X38829Y14165D01*
X38785Y14272D01*
X38714Y14364D01*
X38622Y14434D01*
X38515Y14479D01*
X38400Y14494D01*
D02*
G37*
G36*
X34961Y15723D02*
X34621D01*
X34584Y15716D01*
X34552Y15695D01*
X34530Y15663D01*
X34523Y15625D01*
Y14675D01*
X34530Y14637D01*
X34552Y14605D01*
X34584Y14584D01*
X34621Y14577D01*
X34961D01*
X34999Y14584D01*
X35030Y14605D01*
X35052Y14637D01*
X35059Y14675D01*
Y15625D01*
X35052Y15663D01*
X35030Y15695D01*
X34999Y15716D01*
X34961Y15723D01*
D02*
G37*
G36*
X40350Y39343D02*
X39950D01*
X39835Y39331D01*
X39724Y39298D01*
X39621Y39243D01*
X39531Y39169D01*
X39458Y39079D01*
X39403Y38977D01*
X39369Y38866D01*
X39358Y38750D01*
X39369Y38634D01*
X39403Y38523D01*
X39458Y38421D01*
X39531Y38331D01*
X39621Y38257D01*
X39724Y38202D01*
X39835Y38169D01*
X39950Y38157D01*
X40350D01*
X40466Y38169D01*
X40577Y38202D01*
X40680Y38257D01*
X40770Y38331D01*
X40843Y38421D01*
X40898Y38523D01*
X40932Y38634D01*
X40943Y38750D01*
X40932Y38866D01*
X40898Y38977D01*
X40843Y39079D01*
X40770Y39169D01*
X40680Y39243D01*
X40577Y39298D01*
X40466Y39331D01*
X40350Y39343D01*
D02*
G37*
G36*
X49351D02*
X48951D01*
X48835Y39331D01*
X48724Y39298D01*
X48621Y39243D01*
X48531Y39169D01*
X48458Y39079D01*
X48403Y38977D01*
X48369Y38866D01*
X48358Y38750D01*
X48369Y38634D01*
X48403Y38523D01*
X48458Y38421D01*
X48531Y38331D01*
X48621Y38257D01*
X48724Y38202D01*
X48835Y38169D01*
X48951Y38157D01*
X49351D01*
X49466Y38169D01*
X49577Y38202D01*
X49680Y38257D01*
X49770Y38331D01*
X49843Y38421D01*
X49898Y38523D01*
X49932Y38634D01*
X49943Y38750D01*
X49932Y38866D01*
X49898Y38977D01*
X49843Y39079D01*
X49770Y39169D01*
X49680Y39243D01*
X49577Y39298D01*
X49466Y39331D01*
X49351Y39343D01*
D02*
G37*
G36*
X37797Y40734D02*
X37404D01*
X37280Y40721D01*
X37161Y40685D01*
X37052Y40627D01*
X36956Y40548D01*
X36877Y40452D01*
X36818Y40342D01*
X36782Y40224D01*
X36770Y40100D01*
X36782Y39976D01*
X36818Y39858D01*
X36877Y39748D01*
X36956Y39652D01*
X37052Y39573D01*
X37161Y39515D01*
X37280Y39479D01*
X37404Y39466D01*
X37797D01*
X37921Y39479D01*
X38040Y39515D01*
X38149Y39573D01*
X38245Y39652D01*
X38324Y39748D01*
X38383Y39858D01*
X38419Y39976D01*
X38431Y40100D01*
X38419Y40224D01*
X38383Y40342D01*
X38324Y40452D01*
X38245Y40548D01*
X38149Y40627D01*
X38040Y40685D01*
X37921Y40721D01*
X37797Y40734D01*
D02*
G37*
G36*
Y44734D02*
X37404D01*
X37280Y44721D01*
X37161Y44685D01*
X37052Y44627D01*
X36956Y44548D01*
X36877Y44452D01*
X36818Y44342D01*
X36782Y44224D01*
X36770Y44100D01*
X36782Y43976D01*
X36818Y43858D01*
X36877Y43748D01*
X36956Y43652D01*
X37052Y43573D01*
X37161Y43515D01*
X37280Y43479D01*
X37404Y43466D01*
X37797D01*
X37921Y43479D01*
X38040Y43515D01*
X38149Y43573D01*
X38245Y43652D01*
X38324Y43748D01*
X38383Y43858D01*
X38419Y43976D01*
X38431Y44100D01*
X38419Y44224D01*
X38383Y44342D01*
X38324Y44452D01*
X38245Y44548D01*
X38149Y44627D01*
X38040Y44685D01*
X37921Y44721D01*
X37797Y44734D01*
D02*
G37*
G36*
X49351Y45343D02*
X48951D01*
X48835Y45331D01*
X48724Y45298D01*
X48621Y45243D01*
X48531Y45169D01*
X48458Y45079D01*
X48403Y44977D01*
X48369Y44866D01*
X48358Y44750D01*
X48369Y44634D01*
X48403Y44523D01*
X48458Y44421D01*
X48531Y44331D01*
X48621Y44257D01*
X48724Y44202D01*
X48835Y44169D01*
X48951Y44157D01*
X49351D01*
X49466Y44169D01*
X49577Y44202D01*
X49680Y44257D01*
X49770Y44331D01*
X49843Y44421D01*
X49898Y44523D01*
X49932Y44634D01*
X49943Y44750D01*
X49932Y44866D01*
X49898Y44977D01*
X49843Y45079D01*
X49770Y45169D01*
X49680Y45243D01*
X49577Y45298D01*
X49466Y45331D01*
X49351Y45343D01*
D02*
G37*
G36*
X40350D02*
X39950D01*
X39835Y45331D01*
X39724Y45298D01*
X39621Y45243D01*
X39531Y45169D01*
X39458Y45079D01*
X39403Y44977D01*
X39369Y44866D01*
X39358Y44750D01*
X39369Y44634D01*
X39403Y44523D01*
X39458Y44421D01*
X39531Y44331D01*
X39621Y44257D01*
X39724Y44202D01*
X39835Y44169D01*
X39950Y44157D01*
X40350D01*
X40466Y44169D01*
X40577Y44202D01*
X40680Y44257D01*
X40770Y44331D01*
X40843Y44421D01*
X40898Y44523D01*
X40932Y44634D01*
X40943Y44750D01*
X40932Y44866D01*
X40898Y44977D01*
X40843Y45079D01*
X40770Y45169D01*
X40680Y45243D01*
X40577Y45298D01*
X40466Y45331D01*
X40350Y45343D01*
D02*
G37*
G36*
X51797Y44734D02*
X51404D01*
X51280Y44721D01*
X51161Y44685D01*
X51052Y44627D01*
X50956Y44548D01*
X50877Y44452D01*
X50818Y44342D01*
X50782Y44224D01*
X50770Y44100D01*
X50782Y43976D01*
X50818Y43858D01*
X50877Y43748D01*
X50956Y43652D01*
X51052Y43573D01*
X51161Y43515D01*
X51280Y43479D01*
X51404Y43466D01*
X51797D01*
X51921Y43479D01*
X52040Y43515D01*
X52149Y43573D01*
X52245Y43652D01*
X52324Y43748D01*
X52383Y43858D01*
X52419Y43976D01*
X52431Y44100D01*
X52419Y44224D01*
X52383Y44342D01*
X52324Y44452D01*
X52245Y44548D01*
X52149Y44627D01*
X52040Y44685D01*
X51921Y44721D01*
X51797Y44734D01*
D02*
G37*
G36*
X49351Y43343D02*
X48951D01*
X48835Y43331D01*
X48724Y43298D01*
X48621Y43243D01*
X48531Y43169D01*
X48458Y43079D01*
X48403Y42977D01*
X48369Y42866D01*
X48358Y42750D01*
X48369Y42634D01*
X48403Y42523D01*
X48458Y42421D01*
X48531Y42331D01*
X48621Y42257D01*
X48724Y42202D01*
X48835Y42169D01*
X48951Y42157D01*
X49351D01*
X49466Y42169D01*
X49577Y42202D01*
X49680Y42257D01*
X49770Y42331D01*
X49843Y42421D01*
X49898Y42523D01*
X49932Y42634D01*
X49943Y42750D01*
X49932Y42866D01*
X49898Y42977D01*
X49843Y43079D01*
X49770Y43169D01*
X49680Y43243D01*
X49577Y43298D01*
X49466Y43331D01*
X49351Y43343D01*
D02*
G37*
G36*
X37797Y42734D02*
X37404D01*
X37280Y42721D01*
X37161Y42685D01*
X37052Y42627D01*
X36956Y42548D01*
X36877Y42452D01*
X36818Y42342D01*
X36782Y42224D01*
X36770Y42100D01*
X36782Y41976D01*
X36818Y41858D01*
X36877Y41748D01*
X36956Y41652D01*
X37052Y41573D01*
X37161Y41515D01*
X37280Y41479D01*
X37404Y41466D01*
X37797D01*
X37921Y41479D01*
X38040Y41515D01*
X38149Y41573D01*
X38245Y41652D01*
X38324Y41748D01*
X38383Y41858D01*
X38419Y41976D01*
X38431Y42100D01*
X38419Y42224D01*
X38383Y42342D01*
X38324Y42452D01*
X38245Y42548D01*
X38149Y42627D01*
X38040Y42685D01*
X37921Y42721D01*
X37797Y42734D01*
D02*
G37*
G36*
X51797D02*
X51404D01*
X51280Y42721D01*
X51161Y42685D01*
X51052Y42627D01*
X50956Y42548D01*
X50877Y42452D01*
X50818Y42342D01*
X50782Y42224D01*
X50770Y42100D01*
X50782Y41976D01*
X50818Y41858D01*
X50877Y41748D01*
X50956Y41652D01*
X51052Y41573D01*
X51161Y41515D01*
X51280Y41479D01*
X51404Y41466D01*
X51797D01*
X51921Y41479D01*
X52040Y41515D01*
X52149Y41573D01*
X52245Y41652D01*
X52324Y41748D01*
X52383Y41858D01*
X52419Y41976D01*
X52431Y42100D01*
X52419Y42224D01*
X52383Y42342D01*
X52324Y42452D01*
X52245Y42548D01*
X52149Y42627D01*
X52040Y42685D01*
X51921Y42721D01*
X51797Y42734D01*
D02*
G37*
G36*
X40350Y43343D02*
X39950D01*
X39835Y43331D01*
X39724Y43298D01*
X39621Y43243D01*
X39531Y43169D01*
X39458Y43079D01*
X39403Y42977D01*
X39369Y42866D01*
X39358Y42750D01*
X39369Y42634D01*
X39403Y42523D01*
X39458Y42421D01*
X39531Y42331D01*
X39621Y42257D01*
X39724Y42202D01*
X39835Y42169D01*
X39950Y42157D01*
X40350D01*
X40466Y42169D01*
X40577Y42202D01*
X40680Y42257D01*
X40770Y42331D01*
X40843Y42421D01*
X40898Y42523D01*
X40932Y42634D01*
X40943Y42750D01*
X40932Y42866D01*
X40898Y42977D01*
X40843Y43079D01*
X40770Y43169D01*
X40680Y43243D01*
X40577Y43298D01*
X40466Y43331D01*
X40350Y43343D01*
D02*
G37*
G36*
X31542Y40493D02*
X31295D01*
X31293Y40492D01*
X31291Y40493D01*
X31042Y40469D01*
X31040Y40467D01*
X31037Y40468D01*
X30792Y40419D01*
X30790Y40418D01*
X30788Y40418D01*
X30548Y40345D01*
X30546Y40344D01*
X30544D01*
X30312Y40248D01*
X30311Y40246D01*
X30309Y40246D01*
X30088Y40128D01*
X30086Y40126D01*
X30084Y40126D01*
X29876Y39987D01*
X29874Y39985D01*
X29872Y39984D01*
X29678Y39825D01*
X29677Y39823D01*
X29675Y39822D01*
X29498Y39645D01*
X29497Y39643D01*
X29495Y39642D01*
X29336Y39448D01*
X29336Y39446D01*
X29334Y39445D01*
X29195Y39237D01*
X29194Y39234D01*
X29192Y39233D01*
X29074Y39012D01*
X29074Y39010D01*
X29073Y39008D01*
X28977Y38777D01*
Y38774D01*
X28975Y38773D01*
X28903Y38533D01*
X28903Y38531D01*
X28901Y38529D01*
X28853Y38283D01*
X28853Y38281D01*
X28852Y38279D01*
X28827Y38030D01*
X28828Y38027D01*
X28827Y38025D01*
Y37759D01*
X28828Y37757D01*
X28827Y37754D01*
X28851Y37513D01*
X28852Y37511D01*
X28852Y37509D01*
X28899Y37271D01*
X28900Y37269D01*
X28900Y37267D01*
X28971Y37034D01*
X28972Y37033D01*
Y37030D01*
X29065Y36806D01*
X29067Y36804D01*
X29067Y36802D01*
X29181Y36588D01*
X29183Y36587D01*
X29183Y36585D01*
X29318Y36383D01*
X29320Y36382D01*
X29321Y36379D01*
X29475Y36192D01*
X29477Y36191D01*
X29478Y36189D01*
X29649Y36017D01*
X29651Y36016D01*
X29652Y36014D01*
X29840Y35860D01*
X29842Y35860D01*
X29843Y35858D01*
X30045Y35723D01*
X30047Y35722D01*
X30049Y35721D01*
X30263Y35606D01*
X30265Y35606D01*
X30267Y35604D01*
X30491Y35512D01*
X30493D01*
X30495Y35510D01*
X30727Y35440D01*
X30729Y35440D01*
X30731Y35439D01*
X30969Y35391D01*
X30971Y35392D01*
X30973Y35391D01*
X31215Y35367D01*
X31217Y35368D01*
X31219Y35367D01*
X31542D01*
X31544Y35368D01*
X31546Y35367D01*
X31788Y35391D01*
X31790Y35392D01*
X31792Y35391D01*
X32030Y35439D01*
X32032Y35440D01*
X32034Y35440D01*
X32266Y35510D01*
X32268Y35512D01*
X32270D01*
X32494Y35604D01*
X32496Y35606D01*
X32498Y35606D01*
X32712Y35721D01*
X32714Y35722D01*
X32716Y35723D01*
X32918Y35858D01*
X32919Y35860D01*
X32921Y35860D01*
X33109Y36014D01*
X33110Y36016D01*
X33112Y36017D01*
X33283Y36189D01*
X33284Y36191D01*
X33286Y36192D01*
X33440Y36379D01*
X33441Y36382D01*
X33443Y36383D01*
X33578Y36585D01*
X33578Y36587D01*
X33580Y36588D01*
X33694Y36802D01*
X33694Y36804D01*
X33696Y36806D01*
X33789Y37030D01*
Y37033D01*
X33790Y37034D01*
X33861Y37267D01*
X33861Y37269D01*
X33862Y37271D01*
X33909Y37509D01*
X33909Y37511D01*
X33910Y37513D01*
X33934Y37754D01*
X33933Y37757D01*
X33934Y37759D01*
Y38101D01*
X33933Y38103D01*
X33934Y38106D01*
X33910Y38347D01*
X33909Y38349D01*
X33909Y38351D01*
X33862Y38589D01*
X33861Y38591D01*
X33861Y38593D01*
X33790Y38826D01*
X33789Y38827D01*
Y38830D01*
X33696Y39054D01*
X33694Y39056D01*
X33694Y39058D01*
X33580Y39272D01*
X33578Y39273D01*
X33578Y39275D01*
X33443Y39477D01*
X33441Y39478D01*
X33440Y39481D01*
X33286Y39668D01*
X33284Y39669D01*
X33283Y39671D01*
X33112Y39843D01*
X33110Y39844D01*
X33109Y39846D01*
X32921Y40000D01*
X32919Y40000D01*
X32918Y40002D01*
X32716Y40137D01*
X32714Y40138D01*
X32712Y40139D01*
X32498Y40254D01*
X32496Y40254D01*
X32494Y40256D01*
X32270Y40348D01*
X32268D01*
X32266Y40350D01*
X32034Y40420D01*
X32032Y40420D01*
X32030Y40421D01*
X31792Y40469D01*
X31790Y40468D01*
X31788Y40469D01*
X31546Y40493D01*
X31544Y40492D01*
X31542Y40493D01*
D02*
G37*
G36*
X51797Y40734D02*
X51404D01*
X51280Y40721D01*
X51161Y40685D01*
X51052Y40627D01*
X50956Y40548D01*
X50877Y40452D01*
X50818Y40342D01*
X50782Y40224D01*
X50770Y40100D01*
X50782Y39976D01*
X50818Y39858D01*
X50877Y39748D01*
X50956Y39652D01*
X51052Y39573D01*
X51161Y39515D01*
X51280Y39479D01*
X51404Y39466D01*
X51797D01*
X51921Y39479D01*
X52040Y39515D01*
X52149Y39573D01*
X52245Y39652D01*
X52324Y39748D01*
X52383Y39858D01*
X52419Y39976D01*
X52431Y40100D01*
X52419Y40224D01*
X52383Y40342D01*
X52324Y40452D01*
X52245Y40548D01*
X52149Y40627D01*
X52040Y40685D01*
X51921Y40721D01*
X51797Y40734D01*
D02*
G37*
G36*
X40350Y41343D02*
X39950D01*
X39835Y41331D01*
X39724Y41298D01*
X39621Y41243D01*
X39531Y41169D01*
X39458Y41079D01*
X39403Y40977D01*
X39369Y40866D01*
X39358Y40750D01*
X39369Y40634D01*
X39403Y40523D01*
X39458Y40421D01*
X39531Y40331D01*
X39621Y40257D01*
X39724Y40202D01*
X39835Y40169D01*
X39950Y40157D01*
X40350D01*
X40466Y40169D01*
X40577Y40202D01*
X40680Y40257D01*
X40770Y40331D01*
X40843Y40421D01*
X40898Y40523D01*
X40932Y40634D01*
X40943Y40750D01*
X40932Y40866D01*
X40898Y40977D01*
X40843Y41079D01*
X40770Y41169D01*
X40680Y41243D01*
X40577Y41298D01*
X40466Y41331D01*
X40350Y41343D01*
D02*
G37*
G36*
X49351D02*
X48951D01*
X48835Y41331D01*
X48724Y41298D01*
X48621Y41243D01*
X48531Y41169D01*
X48458Y41079D01*
X48403Y40977D01*
X48369Y40866D01*
X48358Y40750D01*
X48369Y40634D01*
X48403Y40523D01*
X48458Y40421D01*
X48531Y40331D01*
X48621Y40257D01*
X48724Y40202D01*
X48835Y40169D01*
X48951Y40157D01*
X49351D01*
X49466Y40169D01*
X49577Y40202D01*
X49680Y40257D01*
X49770Y40331D01*
X49843Y40421D01*
X49898Y40523D01*
X49932Y40634D01*
X49943Y40750D01*
X49932Y40866D01*
X49898Y40977D01*
X49843Y41079D01*
X49770Y41169D01*
X49680Y41243D01*
X49577Y41298D01*
X49466Y41331D01*
X49351Y41343D01*
D02*
G37*
G36*
X37797Y46734D02*
X37404D01*
X37280Y46721D01*
X37161Y46685D01*
X37052Y46627D01*
X36956Y46548D01*
X36877Y46452D01*
X36818Y46342D01*
X36782Y46224D01*
X36770Y46100D01*
X36782Y45976D01*
X36818Y45858D01*
X36877Y45748D01*
X36956Y45652D01*
X37052Y45573D01*
X37161Y45515D01*
X37280Y45479D01*
X37404Y45466D01*
X37797D01*
X37921Y45479D01*
X38040Y45515D01*
X38149Y45573D01*
X38245Y45652D01*
X38324Y45748D01*
X38383Y45858D01*
X38419Y45976D01*
X38431Y46100D01*
X38419Y46224D01*
X38383Y46342D01*
X38324Y46452D01*
X38245Y46548D01*
X38149Y46627D01*
X38040Y46685D01*
X37921Y46721D01*
X37797Y46734D01*
D02*
G37*
G36*
X49351Y35343D02*
X48951D01*
X48835Y35331D01*
X48724Y35298D01*
X48621Y35243D01*
X48531Y35169D01*
X48458Y35079D01*
X48403Y34977D01*
X48369Y34866D01*
X48358Y34750D01*
X48369Y34634D01*
X48403Y34523D01*
X48458Y34421D01*
X48531Y34331D01*
X48621Y34257D01*
X48724Y34202D01*
X48835Y34169D01*
X48951Y34157D01*
X49351D01*
X49466Y34169D01*
X49577Y34202D01*
X49680Y34257D01*
X49770Y34331D01*
X49843Y34421D01*
X49898Y34523D01*
X49932Y34634D01*
X49943Y34750D01*
X49932Y34866D01*
X49898Y34977D01*
X49843Y35079D01*
X49770Y35169D01*
X49680Y35243D01*
X49577Y35298D01*
X49466Y35331D01*
X49351Y35343D01*
D02*
G37*
G36*
X40350D02*
X39950D01*
X39835Y35331D01*
X39724Y35298D01*
X39621Y35243D01*
X39531Y35169D01*
X39458Y35079D01*
X39403Y34977D01*
X39369Y34866D01*
X39358Y34750D01*
X39369Y34634D01*
X39403Y34523D01*
X39458Y34421D01*
X39531Y34331D01*
X39621Y34257D01*
X39724Y34202D01*
X39835Y34169D01*
X39950Y34157D01*
X40350D01*
X40466Y34169D01*
X40577Y34202D01*
X40680Y34257D01*
X40770Y34331D01*
X40843Y34421D01*
X40898Y34523D01*
X40932Y34634D01*
X40943Y34750D01*
X40932Y34866D01*
X40898Y34977D01*
X40843Y35079D01*
X40770Y35169D01*
X40680Y35243D01*
X40577Y35298D01*
X40466Y35331D01*
X40350Y35343D01*
D02*
G37*
G36*
X51797Y36734D02*
X51404D01*
X51280Y36721D01*
X51161Y36685D01*
X51052Y36627D01*
X50956Y36548D01*
X50877Y36452D01*
X50818Y36342D01*
X50782Y36224D01*
X50770Y36100D01*
X50782Y35976D01*
X50818Y35858D01*
X50877Y35748D01*
X50956Y35652D01*
X51052Y35573D01*
X51161Y35515D01*
X51280Y35479D01*
X51404Y35466D01*
X51797D01*
X51921Y35479D01*
X52040Y35515D01*
X52149Y35573D01*
X52245Y35652D01*
X52324Y35748D01*
X52383Y35858D01*
X52419Y35976D01*
X52431Y36100D01*
X52419Y36224D01*
X52383Y36342D01*
X52324Y36452D01*
X52245Y36548D01*
X52149Y36627D01*
X52040Y36685D01*
X51921Y36721D01*
X51797Y36734D01*
D02*
G37*
G36*
X37797D02*
X37404D01*
X37280Y36721D01*
X37161Y36685D01*
X37052Y36627D01*
X36956Y36548D01*
X36877Y36452D01*
X36818Y36342D01*
X36782Y36224D01*
X36770Y36100D01*
X36782Y35976D01*
X36818Y35858D01*
X36877Y35748D01*
X36956Y35652D01*
X37052Y35573D01*
X37161Y35515D01*
X37280Y35479D01*
X37404Y35466D01*
X37797D01*
X37921Y35479D01*
X38040Y35515D01*
X38149Y35573D01*
X38245Y35652D01*
X38324Y35748D01*
X38383Y35858D01*
X38419Y35976D01*
X38431Y36100D01*
X38419Y36224D01*
X38383Y36342D01*
X38324Y36452D01*
X38245Y36548D01*
X38149Y36627D01*
X38040Y36685D01*
X37921Y36721D01*
X37797Y36734D01*
D02*
G37*
G36*
X49351Y33343D02*
X48951D01*
X48835Y33331D01*
X48724Y33298D01*
X48621Y33243D01*
X48531Y33169D01*
X48458Y33079D01*
X48403Y32977D01*
X48369Y32866D01*
X48358Y32750D01*
X48369Y32634D01*
X48403Y32523D01*
X48458Y32421D01*
X48531Y32331D01*
X48621Y32257D01*
X48724Y32202D01*
X48835Y32169D01*
X48951Y32157D01*
X49351D01*
X49466Y32169D01*
X49577Y32202D01*
X49680Y32257D01*
X49770Y32331D01*
X49843Y32421D01*
X49898Y32523D01*
X49932Y32634D01*
X49943Y32750D01*
X49932Y32866D01*
X49898Y32977D01*
X49843Y33079D01*
X49770Y33169D01*
X49680Y33243D01*
X49577Y33298D01*
X49466Y33331D01*
X49351Y33343D01*
D02*
G37*
G36*
X40350D02*
X39950D01*
X39835Y33331D01*
X39724Y33298D01*
X39621Y33243D01*
X39531Y33169D01*
X39458Y33079D01*
X39403Y32977D01*
X39369Y32866D01*
X39358Y32750D01*
X39369Y32634D01*
X39403Y32523D01*
X39458Y32421D01*
X39531Y32331D01*
X39621Y32257D01*
X39724Y32202D01*
X39835Y32169D01*
X39950Y32157D01*
X40350D01*
X40466Y32169D01*
X40577Y32202D01*
X40680Y32257D01*
X40770Y32331D01*
X40843Y32421D01*
X40898Y32523D01*
X40932Y32634D01*
X40943Y32750D01*
X40932Y32866D01*
X40898Y32977D01*
X40843Y33079D01*
X40770Y33169D01*
X40680Y33243D01*
X40577Y33298D01*
X40466Y33331D01*
X40350Y33343D01*
D02*
G37*
G36*
X51797Y34734D02*
X51404D01*
X51280Y34721D01*
X51161Y34685D01*
X51052Y34627D01*
X50956Y34548D01*
X50877Y34452D01*
X50818Y34342D01*
X50782Y34224D01*
X50770Y34100D01*
X50782Y33976D01*
X50818Y33858D01*
X50877Y33748D01*
X50956Y33652D01*
X51052Y33573D01*
X51161Y33515D01*
X51280Y33479D01*
X51404Y33466D01*
X51797D01*
X51921Y33479D01*
X52040Y33515D01*
X52149Y33573D01*
X52245Y33652D01*
X52324Y33748D01*
X52383Y33858D01*
X52419Y33976D01*
X52431Y34100D01*
X52419Y34224D01*
X52383Y34342D01*
X52324Y34452D01*
X52245Y34548D01*
X52149Y34627D01*
X52040Y34685D01*
X51921Y34721D01*
X51797Y34734D01*
D02*
G37*
G36*
X37797D02*
X37404D01*
X37280Y34721D01*
X37161Y34685D01*
X37052Y34627D01*
X36956Y34548D01*
X36877Y34452D01*
X36818Y34342D01*
X36782Y34224D01*
X36770Y34100D01*
X36782Y33976D01*
X36818Y33858D01*
X36877Y33748D01*
X36956Y33652D01*
X37052Y33573D01*
X37161Y33515D01*
X37280Y33479D01*
X37404Y33466D01*
X37797D01*
X37921Y33479D01*
X38040Y33515D01*
X38149Y33573D01*
X38245Y33652D01*
X38324Y33748D01*
X38383Y33858D01*
X38419Y33976D01*
X38431Y34100D01*
X38419Y34224D01*
X38383Y34342D01*
X38324Y34452D01*
X38245Y34548D01*
X38149Y34627D01*
X38040Y34685D01*
X37921Y34721D01*
X37797Y34734D01*
D02*
G37*
G36*
X49351Y37343D02*
X48951D01*
X48835Y37331D01*
X48724Y37298D01*
X48621Y37243D01*
X48531Y37169D01*
X48458Y37079D01*
X48403Y36977D01*
X48369Y36866D01*
X48358Y36750D01*
X48369Y36634D01*
X48403Y36523D01*
X48458Y36421D01*
X48531Y36331D01*
X48621Y36257D01*
X48724Y36202D01*
X48835Y36169D01*
X48951Y36157D01*
X49351D01*
X49466Y36169D01*
X49577Y36202D01*
X49680Y36257D01*
X49770Y36331D01*
X49843Y36421D01*
X49898Y36523D01*
X49932Y36634D01*
X49943Y36750D01*
X49932Y36866D01*
X49898Y36977D01*
X49843Y37079D01*
X49770Y37169D01*
X49680Y37243D01*
X49577Y37298D01*
X49466Y37331D01*
X49351Y37343D01*
D02*
G37*
G36*
X37797Y48734D02*
X37404D01*
X37280Y48721D01*
X37161Y48685D01*
X37052Y48627D01*
X36956Y48548D01*
X36877Y48452D01*
X36818Y48342D01*
X36782Y48224D01*
X36770Y48100D01*
X36782Y47976D01*
X36818Y47858D01*
X36877Y47748D01*
X36956Y47652D01*
X37052Y47573D01*
X37161Y47515D01*
X37280Y47479D01*
X37404Y47466D01*
X37797D01*
X37921Y47479D01*
X38040Y47515D01*
X38149Y47573D01*
X38245Y47652D01*
X38324Y47748D01*
X38383Y47858D01*
X38419Y47976D01*
X38431Y48100D01*
X38419Y48224D01*
X38383Y48342D01*
X38324Y48452D01*
X38245Y48548D01*
X38149Y48627D01*
X38040Y48685D01*
X37921Y48721D01*
X37797Y48734D01*
D02*
G37*
G36*
X51797Y46734D02*
X51404D01*
X51280Y46721D01*
X51161Y46685D01*
X51052Y46627D01*
X50956Y46548D01*
X50877Y46452D01*
X50818Y46342D01*
X50782Y46224D01*
X50770Y46100D01*
X50782Y45976D01*
X50818Y45858D01*
X50877Y45748D01*
X50956Y45652D01*
X51052Y45573D01*
X51161Y45515D01*
X51280Y45479D01*
X51404Y45466D01*
X51797D01*
X51921Y45479D01*
X52040Y45515D01*
X52149Y45573D01*
X52245Y45652D01*
X52324Y45748D01*
X52383Y45858D01*
X52419Y45976D01*
X52431Y46100D01*
X52419Y46224D01*
X52383Y46342D01*
X52324Y46452D01*
X52245Y46548D01*
X52149Y46627D01*
X52040Y46685D01*
X51921Y46721D01*
X51797Y46734D01*
D02*
G37*
G36*
Y38734D02*
X51404D01*
X51280Y38721D01*
X51161Y38685D01*
X51052Y38627D01*
X50956Y38548D01*
X50877Y38452D01*
X50818Y38342D01*
X50782Y38224D01*
X50770Y38100D01*
X50782Y37976D01*
X50818Y37858D01*
X50877Y37748D01*
X50956Y37652D01*
X51052Y37573D01*
X51161Y37515D01*
X51280Y37479D01*
X51404Y37466D01*
X51797D01*
X51921Y37479D01*
X52040Y37515D01*
X52149Y37573D01*
X52245Y37652D01*
X52324Y37748D01*
X52383Y37858D01*
X52419Y37976D01*
X52431Y38100D01*
X52419Y38224D01*
X52383Y38342D01*
X52324Y38452D01*
X52245Y38548D01*
X52149Y38627D01*
X52040Y38685D01*
X51921Y38721D01*
X51797Y38734D01*
D02*
G37*
G36*
X37797D02*
X37404D01*
X37280Y38721D01*
X37161Y38685D01*
X37052Y38627D01*
X36956Y38548D01*
X36877Y38452D01*
X36818Y38342D01*
X36782Y38224D01*
X36770Y38100D01*
X36782Y37976D01*
X36818Y37858D01*
X36877Y37748D01*
X36956Y37652D01*
X37052Y37573D01*
X37161Y37515D01*
X37280Y37479D01*
X37404Y37466D01*
X37797D01*
X37921Y37479D01*
X38040Y37515D01*
X38149Y37573D01*
X38245Y37652D01*
X38324Y37748D01*
X38383Y37858D01*
X38419Y37976D01*
X38431Y38100D01*
X38419Y38224D01*
X38383Y38342D01*
X38324Y38452D01*
X38245Y38548D01*
X38149Y38627D01*
X38040Y38685D01*
X37921Y38721D01*
X37797Y38734D01*
D02*
G37*
G36*
X51797Y48734D02*
X51404D01*
X51280Y48721D01*
X51161Y48685D01*
X51052Y48627D01*
X50956Y48548D01*
X50877Y48452D01*
X50818Y48342D01*
X50782Y48224D01*
X50770Y48100D01*
X50782Y47976D01*
X50818Y47858D01*
X50877Y47748D01*
X50956Y47652D01*
X51052Y47573D01*
X51161Y47515D01*
X51280Y47479D01*
X51404Y47466D01*
X51797D01*
X51921Y47479D01*
X52040Y47515D01*
X52149Y47573D01*
X52245Y47652D01*
X52324Y47748D01*
X52383Y47858D01*
X52419Y47976D01*
X52431Y48100D01*
X52419Y48224D01*
X52383Y48342D01*
X52324Y48452D01*
X52245Y48548D01*
X52149Y48627D01*
X52040Y48685D01*
X51921Y48721D01*
X51797Y48734D01*
D02*
G37*
G36*
X40350Y37343D02*
X39950D01*
X39835Y37331D01*
X39724Y37298D01*
X39621Y37243D01*
X39531Y37169D01*
X39458Y37079D01*
X39403Y36977D01*
X39369Y36866D01*
X39358Y36750D01*
X39369Y36634D01*
X39403Y36523D01*
X39458Y36421D01*
X39531Y36331D01*
X39621Y36257D01*
X39724Y36202D01*
X39835Y36169D01*
X39950Y36157D01*
X40350D01*
X40466Y36169D01*
X40577Y36202D01*
X40680Y36257D01*
X40770Y36331D01*
X40843Y36421D01*
X40898Y36523D01*
X40932Y36634D01*
X40943Y36750D01*
X40932Y36866D01*
X40898Y36977D01*
X40843Y37079D01*
X40770Y37169D01*
X40680Y37243D01*
X40577Y37298D01*
X40466Y37331D01*
X40350Y37343D01*
D02*
G37*
%LPD*%
G36*
X36297Y20726D02*
X36278Y20707D01*
X36247Y20670D01*
X36235Y20652D01*
X36224Y20634D01*
X36215Y20617D01*
X36209Y20600D01*
X36204Y20584D01*
X36201Y20568D01*
X36200Y20552D01*
X35953Y20800D01*
X35969Y20801D01*
X35985Y20804D01*
X36001Y20808D01*
X36018Y20815D01*
X36035Y20824D01*
X36053Y20834D01*
X36070Y20847D01*
X36089Y20861D01*
X36127Y20896D01*
X36297Y20726D01*
D02*
G37*
G36*
X35842Y20325D02*
X35829Y20330D01*
X35815Y20332D01*
X35800Y20332D01*
X35784Y20329D01*
X35768Y20324D01*
X35751Y20316D01*
X35734Y20305D01*
X35716Y20292D01*
X35697Y20276D01*
X35678Y20258D01*
X35609Y20528D01*
X35722Y20651D01*
X35842Y20325D01*
D02*
G37*
G36*
X35196Y19776D02*
X35178Y19757D01*
X35147Y19720D01*
X35135Y19702D01*
X35124Y19684D01*
X35115Y19667D01*
X35109Y19650D01*
X35104Y19634D01*
X35101Y19618D01*
X35100Y19603D01*
X34853Y19850D01*
X34869Y19851D01*
X34885Y19854D01*
X34901Y19858D01*
X34918Y19865D01*
X34935Y19874D01*
X34953Y19884D01*
X34971Y19897D01*
X34989Y19911D01*
X35027Y19946D01*
X35196Y19776D01*
D02*
G37*
G36*
X32472Y22775D02*
X32457Y22789D01*
X32440Y22802D01*
X32423Y22813D01*
X32405Y22823D01*
X32385Y22831D01*
X32364Y22838D01*
X32343Y22843D01*
X32320Y22847D01*
X32296Y22849D01*
X32271Y22850D01*
Y23050D01*
X32296Y23051D01*
X32320Y23053D01*
X32343Y23057D01*
X32364Y23062D01*
X32385Y23069D01*
X32405Y23077D01*
X32423Y23087D01*
X32440Y23098D01*
X32457Y23111D01*
X32472Y23125D01*
Y22775D01*
D02*
G37*
G36*
X30101Y18604D02*
X30103Y18580D01*
X30107Y18558D01*
X30113Y18536D01*
X30119Y18515D01*
X30127Y18496D01*
X30137Y18477D01*
X30148Y18460D01*
X30161Y18444D01*
X30175Y18429D01*
X29825D01*
X29840Y18444D01*
X29852Y18460D01*
X29864Y18477D01*
X29873Y18496D01*
X29882Y18515D01*
X29889Y18536D01*
X29894Y18558D01*
X29897Y18580D01*
X29900Y18604D01*
X29901Y18629D01*
X30101D01*
X30101Y18604D01*
D02*
G37*
G36*
X39519Y23228D02*
X39507Y23239D01*
X39494Y23248D01*
X39479Y23256D01*
X39462Y23263D01*
X39444Y23269D01*
X39424Y23274D01*
X39403Y23278D01*
X39379Y23281D01*
X39328Y23283D01*
Y23523D01*
X39355Y23524D01*
X39403Y23528D01*
X39424Y23532D01*
X39444Y23537D01*
X39462Y23543D01*
X39479Y23550D01*
X39494Y23558D01*
X39507Y23568D01*
X39519Y23578D01*
Y23228D01*
D02*
G37*
G36*
X38839Y23567D02*
X38852Y23558D01*
X38867Y23550D01*
X38884Y23543D01*
X38902Y23537D01*
X38922Y23532D01*
X38943Y23528D01*
X38967Y23525D01*
X39018Y23523D01*
X39022Y23283D01*
X38995Y23283D01*
X38947Y23278D01*
X38925Y23274D01*
X38906Y23269D01*
X38887Y23263D01*
X38871Y23256D01*
X38856Y23247D01*
X38843Y23238D01*
X38831Y23227D01*
X38827Y23577D01*
X38839Y23567D01*
D02*
G37*
G36*
X30346Y21292D02*
X30346Y21272D01*
X30348Y21252D01*
X30352Y21232D01*
X30359Y21213D01*
X30367Y21194D01*
X30378Y21175D01*
X30391Y21156D01*
X30406Y21137D01*
X30423Y21119D01*
X30259Y21000D01*
X30242Y21017D01*
X30223Y21032D01*
X30205Y21046D01*
X30186Y21059D01*
X30167Y21070D01*
X30148Y21079D01*
X30128Y21087D01*
X30108Y21094D01*
X30088Y21099D01*
X30068Y21102D01*
X30348Y21312D01*
X30346Y21292D01*
D02*
G37*
G36*
X30971Y20572D02*
X30990Y20556D01*
X31008Y20543D01*
X31027Y20531D01*
X31047Y20522D01*
X31066Y20514D01*
X31086Y20508D01*
X31107Y20503D01*
X31127Y20501D01*
X31148Y20500D01*
X30901Y20252D01*
X30900Y20273D01*
X30897Y20294D01*
X30893Y20314D01*
X30887Y20334D01*
X30879Y20354D01*
X30869Y20373D01*
X30857Y20392D01*
X30844Y20411D01*
X30829Y20429D01*
X30812Y20447D01*
X30953Y20589D01*
X30971Y20572D01*
D02*
G37*
G36*
X35898Y21200D02*
X35877Y21199D01*
X35857Y21197D01*
X35836Y21192D01*
X35816Y21186D01*
X35797Y21178D01*
X35777Y21169D01*
X35758Y21157D01*
X35740Y21144D01*
X35721Y21128D01*
X35703Y21111D01*
X35562Y21253D01*
X35579Y21271D01*
X35594Y21289D01*
X35607Y21308D01*
X35619Y21327D01*
X35629Y21346D01*
X35637Y21366D01*
X35643Y21386D01*
X35647Y21406D01*
X35650Y21427D01*
X35651Y21448D01*
X35898Y21200D01*
D02*
G37*
G36*
X32639Y18997D02*
X32622Y18979D01*
X32607Y18961D01*
X32594Y18942D01*
X32582Y18923D01*
X32572Y18904D01*
X32564Y18884D01*
X32558Y18864D01*
X32554Y18844D01*
X32551Y18823D01*
X32550Y18802D01*
X32303Y19050D01*
X32324Y19051D01*
X32344Y19053D01*
X32365Y19058D01*
X32385Y19064D01*
X32404Y19072D01*
X32424Y19081D01*
X32443Y19093D01*
X32461Y19106D01*
X32480Y19122D01*
X32498Y19139D01*
X32639Y18997D01*
D02*
G37*
G36*
X35172Y11075D02*
X35157Y11089D01*
X35140Y11102D01*
X35123Y11113D01*
X35105Y11123D01*
X35085Y11131D01*
X35064Y11138D01*
X35043Y11143D01*
X35020Y11147D01*
X34996Y11149D01*
X34971Y11150D01*
Y11350D01*
X34996Y11351D01*
X35020Y11353D01*
X35043Y11357D01*
X35064Y11362D01*
X35085Y11369D01*
X35105Y11377D01*
X35123Y11387D01*
X35140Y11398D01*
X35157Y11411D01*
X35172Y11425D01*
Y11075D01*
D02*
G37*
G36*
X34090Y11425D02*
X34092Y11419D01*
X34095Y11411D01*
X34100Y11402D01*
X34108Y11392D01*
X34117Y11380D01*
X34140Y11353D01*
X34171Y11321D01*
X34030Y11179D01*
X34013Y11196D01*
X33959Y11243D01*
X33948Y11250D01*
X33939Y11255D01*
X33932Y11259D01*
X33925Y11260D01*
X33920Y11260D01*
X34091Y11431D01*
X34090Y11425D01*
D02*
G37*
G36*
X35322Y11775D02*
X35310Y11785D01*
X35297Y11795D01*
X35282Y11803D01*
X35266Y11810D01*
X35247Y11816D01*
X35227Y11821D01*
X35206Y11825D01*
X35183Y11828D01*
X35131Y11830D01*
Y12070D01*
X35158Y12071D01*
X35206Y12075D01*
X35227Y12079D01*
X35247Y12084D01*
X35266Y12090D01*
X35282Y12097D01*
X35297Y12105D01*
X35310Y12115D01*
X35322Y12125D01*
Y11775D01*
D02*
G37*
G36*
X34091Y12465D02*
X34104Y12455D01*
X34119Y12447D01*
X34135Y12440D01*
X34154Y12434D01*
X34174Y12429D01*
X34195Y12425D01*
X34218Y12422D01*
X34270Y12420D01*
Y12180D01*
X34243Y12179D01*
X34195Y12175D01*
X34174Y12171D01*
X34154Y12166D01*
X34135Y12160D01*
X34119Y12153D01*
X34104Y12145D01*
X34091Y12135D01*
X34079Y12125D01*
Y12475D01*
X34091Y12465D01*
D02*
G37*
G36*
X35639Y19297D02*
X35622Y19279D01*
X35607Y19261D01*
X35594Y19242D01*
X35582Y19223D01*
X35572Y19204D01*
X35564Y19184D01*
X35558Y19164D01*
X35554Y19144D01*
X35551Y19123D01*
X35550Y19102D01*
X35303Y19350D01*
X35324Y19351D01*
X35344Y19353D01*
X35365Y19358D01*
X35385Y19364D01*
X35404Y19372D01*
X35424Y19381D01*
X35443Y19393D01*
X35461Y19406D01*
X35480Y19422D01*
X35498Y19439D01*
X35639Y19297D01*
D02*
G37*
G36*
X36148Y19700D02*
X36127Y19699D01*
X36107Y19697D01*
X36086Y19692D01*
X36066Y19686D01*
X36047Y19678D01*
X36027Y19669D01*
X36008Y19657D01*
X35990Y19644D01*
X35971Y19628D01*
X35953Y19611D01*
X35812Y19753D01*
X35829Y19771D01*
X35844Y19789D01*
X35857Y19808D01*
X35869Y19827D01*
X35879Y19846D01*
X35887Y19866D01*
X35893Y19886D01*
X35897Y19906D01*
X35900Y19927D01*
X35901Y19948D01*
X36148Y19700D01*
D02*
G37*
D10*
X23540Y21230D02*
X24560D01*
X34300Y19850D02*
X35900Y21450D01*
X35301Y19100D02*
X36151Y19950D01*
X33351Y19850D02*
X34300D01*
X32301Y18800D02*
X33351Y19850D01*
X36051Y23700D02*
X36440Y23310D01*
Y22720D02*
Y23310D01*
X30401Y22950D02*
X32650D01*
X29501Y22050D02*
X30401Y22950D01*
X29501Y21200D02*
Y22050D01*
Y21200D02*
X30001Y20700D01*
Y18250D02*
Y20700D01*
X30101Y21300D02*
Y21350D01*
Y21300D02*
X31151Y20250D01*
X33851Y11500D02*
X34100Y11250D01*
X35350D01*
D37*
X22158Y44543D02*
X22513Y44899D01*
X9276Y39947D02*
X9825Y39399D01*
Y30900D02*
Y39399D01*
X20800Y39947D02*
X29403Y48550D01*
X19902Y39947D02*
X20800D01*
X9276D02*
X19902D01*
X7024Y42200D02*
X9276Y39947D01*
X6801Y42200D02*
X7024D01*
X3451Y38850D02*
X6801Y42200D01*
X22513Y44899D02*
Y48550D01*
D42*
X49281Y26080D02*
X49351D01*
X36771Y25390D02*
X36774Y25387D01*
D44*
X38647Y23403D02*
X39697D01*
X34850Y19600D02*
X35800Y20550D01*
X35951D01*
X36600Y21200D01*
Y21890D01*
X35401Y23090D02*
X36600Y21890D01*
X35401Y23090D02*
Y23850D01*
X34901Y11950D02*
X35501D01*
X34550Y12300D02*
X34901Y11950D01*
X33900Y12300D02*
X34550D01*
X38647Y23403D02*
X38651Y23400D01*
D51*
X31381Y37940D02*
D03*
X23851Y14310D02*
D03*
X2501Y47550D02*
D03*
X57501D02*
D03*
Y2500D02*
D03*
X2501D02*
D03*
D52*
X53450Y20550D02*
D03*
X57388D02*
D03*
X49601Y6450D02*
D03*
Y2513D02*
D03*
X53413Y11650D02*
D03*
X57351D02*
D03*
X40601Y6437D02*
D03*
Y2500D02*
D03*
D53*
X51600Y40100D02*
D03*
X37601Y42100D02*
D03*
Y40100D02*
D03*
Y44100D02*
D03*
Y46100D02*
D03*
Y38100D02*
D03*
Y36100D02*
D03*
Y34100D02*
D03*
Y32100D02*
D03*
X51600D02*
D03*
Y34100D02*
D03*
Y36100D02*
D03*
Y38100D02*
D03*
Y46100D02*
D03*
Y44100D02*
D03*
Y42100D02*
D03*
X37601Y48100D02*
D03*
X51600D02*
D03*
D54*
X38400Y15050D02*
D03*
Y14050D02*
D03*
Y13050D02*
D03*
D55*
X25652Y3300D02*
D03*
X33149D02*
D03*
X29400D02*
D03*
D56*
X3451Y42598D02*
D03*
Y35102D02*
D03*
Y38850D02*
D03*
D57*
X6400Y47300D02*
D03*
X20401D02*
D03*
D58*
X49151Y38750D02*
D03*
X40150D02*
D03*
Y40750D02*
D03*
Y42750D02*
D03*
Y44750D02*
D03*
Y36750D02*
D03*
Y34750D02*
D03*
Y32750D02*
D03*
X49151Y36750D02*
D03*
Y34750D02*
D03*
Y32750D02*
D03*
Y40750D02*
D03*
Y42750D02*
D03*
Y44750D02*
D03*
D59*
X7024Y42200D02*
D03*
X17851D02*
D03*
X22513Y48550D02*
D03*
X26451D02*
D03*
X29403D02*
D03*
X32356D02*
D03*
X33227Y44300D02*
D03*
X22401D02*
D03*
D60*
X20650Y42900D02*
D03*
X19902Y39947D02*
D03*
D61*
X1951Y30900D02*
D03*
X9825D02*
D03*
X5297Y6491D02*
D03*
X14352D02*
D03*
D62*
X42441Y26050D02*
D03*
X44580D02*
D03*
X40300D02*
D03*
D63*
X55950Y30950D02*
D03*
Y28950D02*
D03*
D64*
X31771Y13000D02*
D03*
X31541Y12300D02*
D03*
X34501Y7010D02*
D03*
Y7570D02*
D03*
X31711Y7030D02*
D03*
Y7590D02*
D03*
X23540Y21230D02*
D03*
X24560D02*
D03*
X27271Y21500D02*
D03*
X9963Y1863D02*
D03*
Y3457D02*
D03*
X11300Y2600D02*
D03*
X40001Y16950D02*
D03*
X36151Y19950D02*
D03*
X35951Y20550D02*
D03*
X31800Y14900D02*
D03*
X31151Y14870D02*
D03*
X36440Y22720D02*
D03*
X35621Y22210D02*
D03*
X34960Y22500D02*
D03*
X22301Y27500D02*
D03*
X22150Y25360D02*
D03*
X23970Y31800D02*
D03*
X50110Y28119D02*
D03*
Y26759D02*
D03*
X49481Y27450D02*
D03*
X49351Y26080D02*
D03*
X50632Y26072D02*
D03*
X50029D02*
D03*
X36774Y25387D02*
D03*
X33800Y24990D02*
D03*
X31900Y25580D02*
D03*
X31100Y25790D02*
D03*
X29701Y25590D02*
D03*
X28951Y25200D02*
D03*
X20291Y32950D02*
D03*
X20250Y35800D02*
D03*
X24611Y34350D02*
D03*
X24581Y37300D02*
D03*
X23661Y18020D02*
D03*
X35401Y23850D02*
D03*
X34850Y19600D02*
D03*
X35900Y21450D02*
D03*
X32650Y22950D02*
D03*
X30001Y18250D02*
D03*
X30101Y21350D02*
D03*
X31151Y20250D02*
D03*
X34000Y13450D02*
D03*
X32301Y18800D02*
D03*
X36051Y23700D02*
D03*
X33851Y11500D02*
D03*
X35350Y11250D02*
D03*
X35501Y11950D02*
D03*
X33900Y12300D02*
D03*
X38651Y23400D02*
D03*
X39697Y23403D02*
D03*
X39400Y27750D02*
D03*
X38751D02*
D03*
X44946Y28245D02*
D03*
X44146Y28255D02*
D03*
X35301Y19100D02*
D03*
D65*
X34791Y15150D02*
D03*
X34801Y16150D02*
D03*
Y16900D02*
D03*
D66*
X33610Y15150D02*
D03*
X34791D02*
D03*
D67*
X34096Y16900D02*
D03*
X34805D02*
D03*
X34096Y16150D02*
D03*
X34805D02*
D03*
M02*
