G04 Layer_Color=16711935*
%FSLAX25Y25*%
%MOIN*%
G70*
G01*
G75*
%ADD111C,0.18517*%
%ADD112C,0.45370*%
%ADD113C,0.14579*%
%ADD114O,0.16548X0.12611*%
%ADD115O,0.20485X0.14579*%
%ADD116O,0.10800X0.15800*%
%ADD117C,0.08674*%
%ADD118O,0.09800X0.13800*%
%ADD119C,0.13800*%
%ADD120O,0.20485X0.14579*%
%ADD121C,0.12800*%
%ADD122O,0.20485X0.12800*%
%ADD123C,0.08300*%
%ADD124O,0.14579X0.20485*%
%ADD125C,0.28359*%
%ADD126O,0.11800X0.08800*%
%ADD127C,0.05300*%
%ADD128C,0.04300*%
D111*
X131780Y485810D02*
D03*
X214220D02*
D03*
D112*
X216900Y290400D02*
D03*
X25005Y475500D02*
D03*
X515950D02*
D03*
Y25000D02*
D03*
X25005D02*
D03*
D113*
X244600Y81700D02*
D03*
Y121070D02*
D03*
X407600Y65085D02*
D03*
Y25715D02*
D03*
X494100Y418270D02*
D03*
Y378900D02*
D03*
X317500Y65585D02*
D03*
Y26215D02*
D03*
D114*
X404800Y400500D02*
D03*
X264800Y420500D02*
D03*
Y400500D02*
D03*
Y440500D02*
D03*
Y460500D02*
D03*
Y380500D02*
D03*
Y360500D02*
D03*
Y340500D02*
D03*
Y320500D02*
D03*
X404800D02*
D03*
Y340500D02*
D03*
Y360500D02*
D03*
Y380500D02*
D03*
Y460500D02*
D03*
Y440500D02*
D03*
Y420500D02*
D03*
X264800Y480500D02*
D03*
X404800D02*
D03*
D115*
X34505Y425980D02*
D03*
Y351020D02*
D03*
Y388500D02*
D03*
D116*
X82900Y342800D02*
D03*
Y482800D02*
D03*
D117*
X174880Y415928D02*
D03*
X167400Y386400D02*
D03*
X132300Y396121D02*
D03*
Y336279D02*
D03*
X206000Y411721D02*
D03*
Y351879D02*
D03*
D118*
X121102Y463700D02*
D03*
X160472D02*
D03*
X190000D02*
D03*
X219528D02*
D03*
D119*
X19505Y309000D02*
D03*
X98245D02*
D03*
X52970Y64906D02*
D03*
X143521D02*
D03*
D120*
X499374Y254026D02*
D03*
D121*
Y275426D02*
D03*
D122*
Y232626D02*
D03*
D123*
X354900Y116800D02*
D03*
Y136800D02*
D03*
X364900Y126800D02*
D03*
D124*
X147220Y24800D02*
D03*
X222180D02*
D03*
X184700D02*
D03*
D125*
X523574Y344246D02*
D03*
Y64954D02*
D03*
D126*
X499674Y188700D02*
D03*
Y208700D02*
D03*
X499700Y147400D02*
D03*
Y167400D02*
D03*
X497000Y104300D02*
D03*
Y114300D02*
D03*
Y124300D02*
D03*
X499774Y300626D02*
D03*
Y320626D02*
D03*
D127*
X206100Y421000D02*
D03*
X197900Y412400D02*
D03*
X214700Y411800D02*
D03*
X206100Y402100D02*
D03*
X124900Y335400D02*
D03*
X140000Y334900D02*
D03*
X138800Y341200D02*
D03*
D128*
X294553Y215500D02*
D03*
X350200Y229100D02*
D03*
X354400Y229200D02*
D03*
X359500D02*
D03*
M02*
