G04 Layer_Color=32896*
%FSLAX24Y24*%
%MOIN*%
G70*
G01*
G75*
%ADD45C,0.0100*%
%ADD71C,0.0050*%
D45*
X35760Y15250D02*
X35810Y15300D01*
X35910D01*
X35960Y15250D01*
Y15050D01*
X35910Y15000D01*
X35810D01*
X35760Y15050D01*
X35460Y15000D02*
X35660D01*
X35460Y15200D01*
Y15250D01*
X35510Y15300D01*
X35610D01*
X35660Y15250D01*
X35360Y15000D02*
X35260D01*
X35310D01*
Y15300D01*
X35360Y15250D01*
X35751Y16250D02*
X35801Y16300D01*
X35901D01*
X35951Y16250D01*
Y16050D01*
X35901Y16000D01*
X35801D01*
X35751Y16050D01*
X35451Y16000D02*
X35651D01*
X35451Y16200D01*
Y16250D01*
X35501Y16300D01*
X35601D01*
X35651Y16250D01*
X35151Y16000D02*
X35351D01*
X35151Y16200D01*
Y16250D01*
X35201Y16300D01*
X35301D01*
X35351Y16250D01*
X35751Y17000D02*
X35801Y17050D01*
X35901D01*
X35951Y17000D01*
Y16800D01*
X35901Y16750D01*
X35801D01*
X35751Y16800D01*
X35451Y16750D02*
X35651D01*
X35451Y16950D01*
Y17000D01*
X35501Y17050D01*
X35601D01*
X35651Y17000D01*
X35351D02*
X35301Y17050D01*
X35201D01*
X35151Y17000D01*
Y16950D01*
X35201Y16900D01*
X35251D01*
X35201D01*
X35151Y16850D01*
Y16800D01*
X35201Y16750D01*
X35301D01*
X35351Y16800D01*
D71*
X34358Y14638D02*
Y15662D01*
X34043Y14638D02*
Y15662D01*
X34392Y16644D02*
Y17156D01*
X34509Y16644D02*
Y17156D01*
X34392Y15894D02*
Y16406D01*
X34509Y15894D02*
Y16406D01*
M02*
