G04 Layer_Color=65535*
%FSLAX25Y25*%
%MOIN*%
G70*
G01*
G75*
%ADD37C,0.02000*%
%ADD43C,0.03000*%
%ADD72C,0.02362*%
%ADD73C,0.00984*%
%ADD74C,0.01969*%
%ADD75C,0.01000*%
%ADD76C,0.00394*%
%ADD77C,0.00600*%
%ADD78C,0.00500*%
%ADD79C,0.00787*%
%ADD80R,0.01969X0.03937*%
%ADD81R,0.03937X0.11811*%
%ADD82R,0.07874X0.11811*%
%ADD83R,0.03937X0.01280*%
%ADD84R,0.07874X0.11811*%
%ADD85R,0.08366X0.06496*%
%ADD86R,0.08465X0.06201*%
G36*
X314784Y124111D02*
X310846D01*
X314784Y128048D01*
Y124111D01*
D02*
G37*
D37*
X287907Y101385D02*
G03*
X287907Y101385I-43307J0D01*
G01*
X450907Y45400D02*
G03*
X450907Y45400I-43307J0D01*
G01*
X537407Y398585D02*
G03*
X537407Y398585I-43307J0D01*
G01*
X360807Y45900D02*
G03*
X360807Y45900I-43307J0D01*
G01*
X123800Y475500D02*
X222200D01*
X123800Y493100D02*
Y497800D01*
X222400Y493100D02*
Y498100D01*
X112615Y330767D02*
Y401633D01*
Y330767D02*
X151985D01*
Y401633D01*
X112615D02*
X151985D01*
X186315Y346367D02*
Y417233D01*
Y346367D02*
X225685D01*
Y417233D01*
X186315D02*
X225685D01*
X492636Y352238D02*
X508874D01*
X465818D02*
X492636D01*
X513338Y331536D01*
Y78064D02*
Y331536D01*
X492236Y56962D02*
X508874D01*
X492236D02*
X513338Y78064D01*
X465818Y56962D02*
X492236D01*
X465818D02*
Y352238D01*
X537274Y328800D02*
X537275Y77400D01*
D43*
X445307Y265165D02*
G03*
X445307Y265165I-197J0D01*
G01*
D72*
X329232Y224853D02*
G03*
X329232Y224853I-1181J0D01*
G01*
D73*
X319291Y229047D02*
G03*
X319291Y229047I-492J0D01*
G01*
D74*
X242544Y320300D02*
G03*
X242544Y320300I-1044J0D01*
G01*
X55966Y426400D02*
G03*
X55966Y426400I-361J0D01*
G01*
X147161Y45900D02*
G03*
X147161Y45900I-361J0D01*
G01*
X234300Y302900D02*
X435100D01*
X234300D02*
Y498200D01*
X435100D01*
Y302900D02*
Y498200D01*
X16905Y444800D02*
X52705D01*
X16805Y329900D02*
X52605D01*
X52705Y330000D01*
Y444800D01*
X128400Y7200D02*
Y43000D01*
X243300Y7100D02*
Y42900D01*
X243200Y43000D02*
X243300Y42900D01*
X128400Y43000D02*
X243200D01*
D75*
X170100Y431728D02*
G03*
X166000Y427628I0J-4100D01*
G01*
X173900Y427928D02*
G03*
X170100Y431728I-3800J0D01*
G01*
X166100Y375028D02*
G03*
X169900Y371228I3800J0D01*
G01*
D02*
G03*
X174000Y375328I0J4100D01*
G01*
X491735Y282963D02*
G03*
X491735Y282963I-530J0D01*
G01*
X229141Y185924D02*
Y188976D01*
X203157Y180708D02*
X223924D01*
X229141Y198424D02*
Y201476D01*
X203157Y206692D02*
X223924D01*
X203157Y180708D02*
Y188976D01*
Y198424D02*
Y206692D01*
X223924Y180708D02*
X229141Y185924D01*
X223924Y206692D02*
X229141Y201476D01*
X229143Y214224D02*
Y217276D01*
X203159Y209008D02*
X223927D01*
X229143Y226724D02*
Y229776D01*
X203159Y234992D02*
X223927D01*
X203159Y209008D02*
Y217276D01*
Y226724D02*
Y234992D01*
X223927Y209008D02*
X229143Y214224D01*
X223927Y234992D02*
X229143Y229776D01*
X57900Y342800D02*
Y482800D01*
X76404D01*
X89396D02*
X107900D01*
X57900Y342800D02*
X76404D01*
X89396D02*
X107900D01*
Y482800D01*
X166000Y392028D02*
Y427628D01*
X173900Y422228D02*
Y427928D01*
X166100Y375028D02*
Y379728D01*
X174000Y375328D02*
Y409928D01*
X111260Y456318D02*
X229468D01*
Y475609D01*
X111260D02*
X229468D01*
X111260Y456318D02*
Y475609D01*
X195221Y49305D02*
Y325006D01*
X3821D02*
X195221D01*
X3821Y49305D02*
Y325006D01*
Y49305D02*
X195221D01*
X496913Y222727D02*
X509020D01*
Y285325D01*
X488941D02*
X509020D01*
X488941Y222727D02*
Y285325D01*
Y222727D02*
X496913D01*
X508134Y254026D02*
Y275876D01*
Y232176D02*
Y254026D01*
X507248Y232176D02*
Y254026D01*
Y275876D01*
X443043Y266739D02*
Y270086D01*
X434382Y266739D02*
X443043D01*
X410957D02*
X419618D01*
X410957D02*
Y270086D01*
Y296661D02*
X419618D01*
X410957Y293314D02*
Y296661D01*
X434382D02*
X443043D01*
Y293314D02*
Y296661D01*
X430821Y190002D02*
Y227798D01*
X436923D01*
X430821Y190002D02*
X436923D01*
X452277D02*
X458380D01*
Y227798D01*
X452277D02*
X458380D01*
X469804Y361198D02*
X468804Y362198D01*
X466805D01*
X465805Y361198D01*
Y360199D01*
X466805Y359199D01*
X468804D01*
X469804Y358199D01*
Y357200D01*
X468804Y356200D01*
X466805D01*
X465805Y357200D01*
X471803Y356200D02*
Y362198D01*
X475802Y356200D01*
Y362198D01*
X477801D02*
Y356200D01*
Y358199D01*
X481800Y362198D01*
X478801Y359199D01*
X481800Y356200D01*
X483799D02*
X485799D01*
X484799D01*
Y362198D01*
X483799Y361198D01*
X206199Y239399D02*
X205699Y239899D01*
X204700D01*
X204200Y239399D01*
Y237400D01*
X204700Y236900D01*
X205699D01*
X206199Y237400D01*
X209198Y236900D02*
X207199D01*
X209198Y238899D01*
Y239399D01*
X208699Y239899D01*
X207699D01*
X207199Y239399D01*
X210198Y237400D02*
X210698Y236900D01*
X211698D01*
X212197Y237400D01*
Y239399D01*
X211698Y239899D01*
X210698D01*
X210198Y239399D01*
Y238899D01*
X210698Y238400D01*
X212197D01*
X205599Y178499D02*
X205100Y178999D01*
X204100D01*
X203600Y178499D01*
Y176500D01*
X204100Y176000D01*
X205100D01*
X205599Y176500D01*
X208598Y176000D02*
X206599D01*
X208598Y177999D01*
Y178499D01*
X208099Y178999D01*
X207099D01*
X206599Y178499D01*
X209598D02*
X210098Y178999D01*
X211098D01*
X211597Y178499D01*
Y177999D01*
X211098Y177499D01*
X211597Y177000D01*
Y176500D01*
X211098Y176000D01*
X210098D01*
X209598Y176500D01*
Y177000D01*
X210098Y177499D01*
X209598Y177999D01*
Y178499D01*
X210098Y177499D02*
X211098D01*
X391700Y120998D02*
X395699D01*
X393699D01*
Y115000D01*
X397698D02*
Y120998D01*
X400697D01*
X401697Y119998D01*
Y117999D01*
X400697Y116999D01*
X397698D01*
X403696Y115000D02*
X405695D01*
X404696D01*
Y120998D01*
X403696Y119998D01*
X412693Y120998D02*
X410694Y119998D01*
X408695Y117999D01*
Y116000D01*
X409694Y115000D01*
X411693D01*
X412693Y116000D01*
Y116999D01*
X411693Y117999D01*
X408695D01*
X459598Y91000D02*
Y87001D01*
Y89001D01*
X453600D01*
Y85002D02*
X459598D01*
Y82003D01*
X458598Y81003D01*
X456599D01*
X455599Y82003D01*
Y85002D01*
X453600Y79004D02*
Y77004D01*
Y78004D01*
X459598D01*
X458598Y79004D01*
X459598Y70007D02*
Y74006D01*
X456599D01*
X457599Y72006D01*
Y71007D01*
X456599Y70007D01*
X454600D01*
X453600Y71007D01*
Y73006D01*
X454600Y74006D01*
X414800Y179098D02*
X418799D01*
X416799D01*
Y173100D01*
X420798D02*
Y179098D01*
X423797D01*
X424797Y178098D01*
Y176099D01*
X423797Y175099D01*
X420798D01*
X426796Y173100D02*
X428795D01*
X427796D01*
Y179098D01*
X426796Y178098D01*
X434794Y173100D02*
Y179098D01*
X431795Y176099D01*
X435793D01*
X235800Y259498D02*
X239799D01*
X237799D01*
Y253500D01*
X241798D02*
Y259498D01*
X244797D01*
X245797Y258498D01*
Y256499D01*
X244797Y255499D01*
X241798D01*
X247796Y253500D02*
X249796D01*
X248796D01*
Y259498D01*
X247796Y258498D01*
X252795D02*
X253794Y259498D01*
X255793D01*
X256793Y258498D01*
Y257499D01*
X255793Y256499D01*
X254794D01*
X255793D01*
X256793Y255499D01*
Y254500D01*
X255793Y253500D01*
X253794D01*
X252795Y254500D01*
X202300Y164298D02*
X206299D01*
X204299D01*
Y158300D01*
X208298D02*
Y164298D01*
X211297D01*
X212297Y163298D01*
Y161299D01*
X211297Y160299D01*
X208298D01*
X214296Y158300D02*
X216296D01*
X215296D01*
Y164298D01*
X214296Y163298D01*
X223293Y158300D02*
X219295D01*
X223293Y162299D01*
Y163298D01*
X222293Y164298D01*
X220294D01*
X219295Y163298D01*
X282900Y164298D02*
X286899D01*
X284899D01*
Y158300D01*
X288898D02*
Y164298D01*
X291897D01*
X292897Y163298D01*
Y161299D01*
X291897Y160299D01*
X288898D01*
X294896Y158300D02*
X296896D01*
X295896D01*
Y164298D01*
X294896Y163298D01*
X299894Y158300D02*
X301894D01*
X300894D01*
Y164298D01*
X299894Y163298D01*
X390800Y137098D02*
X394799D01*
X392799D01*
Y131100D01*
X396798D02*
Y137098D01*
X399797D01*
X400797Y136098D01*
Y134099D01*
X399797Y133099D01*
X396798D01*
X402796Y131100D02*
X404796D01*
X403796D01*
Y137098D01*
X402796Y136098D01*
X407795D02*
X408794Y137098D01*
X410793D01*
X411793Y136098D01*
Y132100D01*
X410793Y131100D01*
X408794D01*
X407795Y132100D01*
Y136098D01*
X82605Y39198D02*
X86604D01*
X84604D01*
Y33200D01*
X88603D02*
Y39198D01*
X91602D01*
X92602Y38198D01*
Y36199D01*
X91602Y35199D01*
X88603D01*
X94601Y34200D02*
X95601Y33200D01*
X97600D01*
X98600Y34200D01*
Y38198D01*
X97600Y39198D01*
X95601D01*
X94601Y38198D01*
Y37199D01*
X95601Y36199D01*
X98600D01*
X339300Y265198D02*
X343299D01*
X341299D01*
Y259200D01*
X345298D02*
Y265198D01*
X348297D01*
X349297Y264198D01*
Y262199D01*
X348297Y261199D01*
X345298D01*
X351296Y264198D02*
X352296Y265198D01*
X354295D01*
X355295Y264198D01*
Y263199D01*
X354295Y262199D01*
X355295Y261199D01*
Y260200D01*
X354295Y259200D01*
X352296D01*
X351296Y260200D01*
Y261199D01*
X352296Y262199D01*
X351296Y263199D01*
Y264198D01*
X352296Y262199D02*
X354295D01*
X390000Y154198D02*
X393999D01*
X391999D01*
Y148200D01*
X395998D02*
Y154198D01*
X398997D01*
X399997Y153198D01*
Y151199D01*
X398997Y150199D01*
X395998D01*
X401996Y154198D02*
X405995D01*
Y153198D01*
X401996Y149200D01*
Y148200D01*
X425198Y137300D02*
Y133301D01*
Y135301D01*
X419200D01*
Y131302D02*
X425198D01*
Y128303D01*
X424198Y127303D01*
X422199D01*
X421199Y128303D01*
Y131302D01*
X425198Y121305D02*
X424198Y123304D01*
X422199Y125304D01*
X420200D01*
X419200Y124304D01*
Y122305D01*
X420200Y121305D01*
X421199D01*
X422199Y122305D01*
Y125304D01*
X312400Y289398D02*
X316399D01*
X314399D01*
Y283400D01*
X318398D02*
Y289398D01*
X321397D01*
X322397Y288398D01*
Y286399D01*
X321397Y285399D01*
X318398D01*
X328395Y289398D02*
X324396D01*
Y286399D01*
X326396Y287399D01*
X327395D01*
X328395Y286399D01*
Y284400D01*
X327395Y283400D01*
X325396D01*
X324396Y284400D01*
X478098Y493600D02*
Y489601D01*
Y491601D01*
X472100D01*
Y487602D02*
X478098D01*
Y484603D01*
X477098Y483603D01*
X475099D01*
X474099Y484603D01*
Y487602D01*
X472100Y478605D02*
X478098D01*
X475099Y481604D01*
Y477605D01*
X449098Y493700D02*
Y489701D01*
Y491701D01*
X443100D01*
Y487702D02*
X449098D01*
Y484703D01*
X448098Y483703D01*
X446099D01*
X445099Y484703D01*
Y487702D01*
X448098Y481704D02*
X449098Y480704D01*
Y478705D01*
X448098Y477705D01*
X447099D01*
X446099Y478705D01*
Y479705D01*
Y478705D01*
X445099Y477705D01*
X444100D01*
X443100Y478705D01*
Y480704D01*
X444100Y481704D01*
X213900Y248898D02*
X217899D01*
X215899D01*
Y242900D01*
X219898D02*
Y248898D01*
X222897D01*
X223897Y247898D01*
Y245899D01*
X222897Y244899D01*
X219898D01*
X229895Y242900D02*
X225896D01*
X229895Y246899D01*
Y247898D01*
X228895Y248898D01*
X226896D01*
X225896Y247898D01*
X56005Y339500D02*
X62003D01*
Y336501D01*
X61003Y335501D01*
X59004D01*
X58004Y336501D01*
Y339500D01*
X56005Y333502D02*
Y331503D01*
Y332502D01*
X62003D01*
X61003Y333502D01*
X174398Y366000D02*
X170399D01*
X168400Y364001D01*
X170399Y362001D01*
X174398D01*
X168400Y360002D02*
X174398D01*
Y357003D01*
X173398Y356003D01*
X171399D01*
X170399Y357003D01*
Y360002D01*
Y358003D02*
X168400Y356003D01*
Y354004D02*
Y352005D01*
Y353004D01*
X174398D01*
X173398Y354004D01*
X438300Y451798D02*
Y445800D01*
X442299D01*
X448297D02*
X444298D01*
X448297Y449799D01*
Y450798D01*
X447297Y451798D01*
X445298D01*
X444298Y450798D01*
X421500Y249799D02*
Y246800D01*
X422999D01*
X423499Y247300D01*
Y249299D01*
X422999Y249799D01*
X421500D01*
X426498D02*
X424499D01*
Y248300D01*
X425499Y248799D01*
X425998D01*
X426498Y248300D01*
Y247300D01*
X425998Y246800D01*
X424999D01*
X424499Y247300D01*
X491774Y336925D02*
Y333926D01*
X493273D01*
X493773Y334426D01*
Y336425D01*
X493273Y336925D01*
X491774D01*
X496772Y333926D02*
X494773D01*
X496772Y335925D01*
Y336425D01*
X496273Y336925D01*
X495273D01*
X494773Y336425D01*
X486374Y282125D02*
X484375D01*
X483875Y281626D01*
Y280626D01*
X484375Y280126D01*
X486374D01*
X486874Y280626D01*
Y281626D01*
X485874Y281126D02*
X486874Y282125D01*
Y281626D02*
X486374Y282125D01*
X486874Y283125D02*
Y284125D01*
Y283625D01*
X483875D01*
X484375Y283125D01*
X313298Y228900D02*
X308300D01*
X307300Y227900D01*
Y225901D01*
X308300Y224901D01*
X313298D01*
X307300Y222902D02*
Y220903D01*
Y221902D01*
X313298D01*
X312298Y222902D01*
X452998Y297000D02*
Y293001D01*
Y295001D01*
X447000D01*
Y291002D02*
X452998D01*
Y288003D01*
X451998Y287003D01*
X449999D01*
X448999Y288003D01*
Y291002D01*
Y289003D02*
X447000Y287003D01*
Y285004D02*
Y283004D01*
Y284004D01*
X452998D01*
X451998Y285004D01*
X379900Y178000D02*
Y180999D01*
X381399D01*
X381899Y180499D01*
Y179499D01*
X381399Y179000D01*
X379900D01*
X380900D02*
X381899Y178000D01*
X384898D02*
X382899D01*
X384898Y179999D01*
Y180499D01*
X384399Y180999D01*
X383399D01*
X382899Y180499D01*
X385898D02*
X386398Y180999D01*
X387398D01*
X387897Y180499D01*
Y178500D01*
X387398Y178000D01*
X386398D01*
X385898Y178500D01*
Y180499D01*
X258100Y265700D02*
Y268699D01*
X259599D01*
X260099Y268199D01*
Y267199D01*
X259599Y266700D01*
X258100D01*
X259100D02*
X260099Y265700D01*
X261099D02*
X262099D01*
X261599D01*
Y268699D01*
X261099Y268199D01*
X265598Y268699D02*
X264598Y268199D01*
X263598Y267199D01*
Y266200D01*
X264098Y265700D01*
X265098D01*
X265598Y266200D01*
Y266700D01*
X265098Y267199D01*
X263598D01*
X293700Y265300D02*
Y268299D01*
X295199D01*
X295699Y267799D01*
Y266799D01*
X295199Y266300D01*
X293700D01*
X294700D02*
X295699Y265300D01*
X296699D02*
X297699D01*
X297199D01*
Y268299D01*
X296699Y267799D01*
X299198D02*
X299698Y268299D01*
X300698D01*
X301198Y267799D01*
Y267299D01*
X300698Y266799D01*
X300198D01*
X300698D01*
X301198Y266300D01*
Y265800D01*
X300698Y265300D01*
X299698D01*
X299198Y265800D01*
X269700Y156800D02*
Y159799D01*
X271199D01*
X271699Y159299D01*
Y158300D01*
X271199Y157800D01*
X269700D01*
X270700D02*
X271699Y156800D01*
X272699D02*
X273699D01*
X273199D01*
Y159799D01*
X272699Y159299D01*
X275198D02*
X275698Y159799D01*
X276698D01*
X277198Y159299D01*
Y157300D01*
X276698Y156800D01*
X275698D01*
X275198Y157300D01*
Y159299D01*
X283363Y294900D02*
Y297899D01*
X284862D01*
X285362Y297399D01*
Y296399D01*
X284862Y295900D01*
X283363D01*
X284363D02*
X285362Y294900D01*
X286362Y295400D02*
X286862Y294900D01*
X287861D01*
X288361Y295400D01*
Y297399D01*
X287861Y297899D01*
X286862D01*
X286362Y297399D01*
Y296899D01*
X286862Y296399D01*
X288361D01*
X246500Y163100D02*
Y166099D01*
X248000D01*
X248499Y165599D01*
Y164600D01*
X248000Y164100D01*
X246500D01*
X247500D02*
X248499Y163100D01*
X251498Y166099D02*
X250499Y165599D01*
X249499Y164600D01*
Y163600D01*
X249999Y163100D01*
X250998D01*
X251498Y163600D01*
Y164100D01*
X250998Y164600D01*
X249499D01*
X268100Y294900D02*
Y297899D01*
X269600D01*
X270099Y297399D01*
Y296399D01*
X269600Y295900D01*
X268100D01*
X269100D02*
X270099Y294900D01*
X273098Y297899D02*
X271099D01*
Y296399D01*
X272099Y296899D01*
X272599D01*
X273098Y296399D01*
Y295400D01*
X272599Y294900D01*
X271599D01*
X271099Y295400D01*
X398200Y223600D02*
Y226599D01*
X399699D01*
X400199Y226099D01*
Y225099D01*
X399699Y224600D01*
X398200D01*
X399200D02*
X400199Y223600D01*
X402699D02*
Y226599D01*
X401199Y225099D01*
X403198D01*
X282799Y202099D02*
X282299Y202599D01*
X281300D01*
X280800Y202099D01*
Y200100D01*
X281300Y199600D01*
X282299D01*
X282799Y200100D01*
X283799Y199600D02*
X284799D01*
X284299D01*
Y202599D01*
X283799Y202099D01*
X286298Y202599D02*
X288298D01*
Y202099D01*
X286298Y200100D01*
Y199600D01*
X280099Y182001D02*
X280599Y182501D01*
Y183500D01*
X280099Y184000D01*
X278100D01*
X277600Y183500D01*
Y182501D01*
X278100Y182001D01*
X277600Y181001D02*
Y180001D01*
Y180501D01*
X280599D01*
X280099Y181001D01*
Y178502D02*
X280599Y178002D01*
Y177002D01*
X280099Y176502D01*
X279599D01*
X279099Y177002D01*
X278600Y176502D01*
X278100D01*
X277600Y177002D01*
Y178002D01*
X278100Y178502D01*
X278600D01*
X279099Y178002D01*
X279599Y178502D01*
X280099D01*
X279099Y178002D02*
Y177002D01*
X384527Y195199D02*
X384027Y195699D01*
X383027D01*
X382528Y195199D01*
Y193200D01*
X383027Y192700D01*
X384027D01*
X384527Y193200D01*
X385527Y192700D02*
X386526D01*
X386026D01*
Y195699D01*
X385527Y195199D01*
X390025Y195699D02*
X389025Y195199D01*
X388026Y194200D01*
Y193200D01*
X388526Y192700D01*
X389525D01*
X390025Y193200D01*
Y193700D01*
X389525Y194200D01*
X388026D01*
X307399Y216499D02*
X306899Y216999D01*
X305900D01*
X305400Y216499D01*
Y214500D01*
X305900Y214000D01*
X306899D01*
X307399Y214500D01*
X308399Y214000D02*
X309399D01*
X308899D01*
Y216999D01*
X308399Y216499D01*
X312898Y216999D02*
X310898D01*
Y215499D01*
X311898Y215999D01*
X312398D01*
X312898Y215499D01*
Y214500D01*
X312398Y214000D01*
X311398D01*
X310898Y214500D01*
X298399Y277699D02*
X297900Y278199D01*
X296900D01*
X296400Y277699D01*
Y275700D01*
X296900Y275200D01*
X297900D01*
X298399Y275700D01*
X299399Y275200D02*
X300399D01*
X299899D01*
Y278199D01*
X299399Y277699D01*
X301898D02*
X302398Y278199D01*
X303398D01*
X303898Y277699D01*
Y277199D01*
X303398Y276699D01*
X302898D01*
X303398D01*
X303898Y276200D01*
Y275700D01*
X303398Y275200D01*
X302398D01*
X301898Y275700D01*
X397799Y232399D02*
X397300Y232899D01*
X396300D01*
X395800Y232399D01*
Y230400D01*
X396300Y229900D01*
X397300D01*
X397799Y230400D01*
X398799Y229900D02*
X399799D01*
X399299D01*
Y232899D01*
X398799Y232399D01*
X401298D02*
X401798Y232899D01*
X402798D01*
X403298Y232399D01*
Y230400D01*
X402798Y229900D01*
X401798D01*
X401298Y230400D01*
Y232399D01*
X381499Y187299D02*
X380999Y187799D01*
X380000D01*
X379500Y187299D01*
Y185300D01*
X380000Y184800D01*
X380999D01*
X381499Y185300D01*
X382499Y187799D02*
X384498D01*
Y187299D01*
X382499Y185300D01*
Y184800D01*
X349962Y293468D02*
X349462Y293968D01*
X348462D01*
X347962Y293468D01*
Y291468D01*
X348462Y290968D01*
X349462D01*
X349962Y291468D01*
X350961Y293468D02*
X351461Y293968D01*
X352461D01*
X352961Y293468D01*
Y292968D01*
X352461Y292468D01*
X352961Y291968D01*
Y291468D01*
X352461Y290968D01*
X351461D01*
X350961Y291468D01*
Y291968D01*
X351461Y292468D01*
X350961Y292968D01*
Y293468D01*
X351461Y292468D02*
X352461D01*
X372599Y287601D02*
X373099Y288101D01*
Y289100D01*
X372599Y289600D01*
X370600D01*
X370100Y289100D01*
Y288101D01*
X370600Y287601D01*
Y286601D02*
X370100Y286101D01*
Y285102D01*
X370600Y284602D01*
X372599D01*
X373099Y285102D01*
Y286101D01*
X372599Y286601D01*
X372099D01*
X371600Y286101D01*
Y284602D01*
X441299Y350001D02*
X441799Y350500D01*
Y351500D01*
X441299Y352000D01*
X439300D01*
X438800Y351500D01*
Y350500D01*
X439300Y350001D01*
X438800Y349001D02*
Y348001D01*
Y348501D01*
X441799D01*
X441299Y349001D01*
X438800Y346502D02*
Y345502D01*
Y346002D01*
X441799D01*
X441299Y346502D01*
X329399Y170901D02*
X329899Y171400D01*
Y172400D01*
X329399Y172900D01*
X327400D01*
X326900Y172400D01*
Y171400D01*
X327400Y170901D01*
X326900Y169901D02*
Y168901D01*
Y169401D01*
X329899D01*
X329399Y169901D01*
X326900Y165402D02*
Y167402D01*
X328899Y165402D01*
X329399D01*
X329899Y165902D01*
Y166902D01*
X329399Y167402D01*
X341899Y146301D02*
X342399Y146800D01*
Y147800D01*
X341899Y148300D01*
X339900D01*
X339400Y147800D01*
Y146800D01*
X339900Y146301D01*
X339400Y145301D02*
Y144301D01*
Y144801D01*
X342399D01*
X341899Y145301D01*
X339400Y141302D02*
X342399D01*
X340899Y142802D01*
Y140802D01*
X306599Y180204D02*
X306100Y180704D01*
X305100D01*
X304600Y180204D01*
Y178205D01*
X305100Y177705D01*
X306100D01*
X306599Y178205D01*
X307599Y177705D02*
X308599D01*
X308099D01*
Y180704D01*
X307599Y180204D01*
X310098Y178205D02*
X310598Y177705D01*
X311598D01*
X312098Y178205D01*
Y180204D01*
X311598Y180704D01*
X310598D01*
X310098Y180204D01*
Y179704D01*
X310598Y179204D01*
X312098D01*
X274899Y226601D02*
X275399Y227100D01*
Y228100D01*
X274899Y228600D01*
X272900D01*
X272400Y228100D01*
Y227100D01*
X272900Y226601D01*
X272400Y223602D02*
Y225601D01*
X274399Y223602D01*
X274899D01*
X275399Y224101D01*
Y225101D01*
X274899Y225601D01*
X272400Y221102D02*
X275399D01*
X273900Y222602D01*
Y220603D01*
X383153Y202599D02*
X382653Y203099D01*
X381653D01*
X381153Y202599D01*
Y200600D01*
X381653Y200100D01*
X382653D01*
X383153Y200600D01*
X386152Y200100D02*
X384153D01*
X386152Y202099D01*
Y202599D01*
X385652Y203099D01*
X384652D01*
X384153Y202599D01*
X389151Y203099D02*
X387152D01*
Y201600D01*
X388151Y202099D01*
X388651D01*
X389151Y201600D01*
Y200600D01*
X388651Y200100D01*
X387651D01*
X387152Y200600D01*
X397700Y289699D02*
Y285700D01*
X399699D01*
X400366Y286366D01*
Y289032D01*
X399699Y289699D01*
X397700D01*
X403698Y285700D02*
Y289699D01*
X401699Y287699D01*
X404364D01*
X490898Y205500D02*
X484900D01*
Y202501D01*
X485900Y201501D01*
X489898D01*
X490898Y202501D01*
Y205500D01*
X489898Y199502D02*
X490898Y198502D01*
Y196503D01*
X489898Y195503D01*
X488899D01*
X487899Y196503D01*
X486899Y195503D01*
X485900D01*
X484900Y196503D01*
Y198502D01*
X485900Y199502D01*
X486899D01*
X487899Y198502D01*
X488899Y199502D01*
X489898D01*
X487899Y198502D02*
Y196503D01*
X491098Y163000D02*
X485100D01*
Y160001D01*
X486100Y159001D01*
X490098D01*
X491098Y160001D01*
Y163000D01*
X486100Y157002D02*
X485100Y156002D01*
Y154003D01*
X486100Y153003D01*
X490098D01*
X491098Y154003D01*
Y156002D01*
X490098Y157002D01*
X489099D01*
X488099Y156002D01*
Y153003D01*
X485100Y100301D02*
X487099D01*
X487599Y100801D01*
Y101800D01*
X487099Y102300D01*
X485100D01*
X484600Y101800D01*
Y100801D01*
X485600Y101300D02*
X484600Y100301D01*
Y100801D02*
X485100Y100301D01*
X484600Y97302D02*
Y99301D01*
X486599Y97302D01*
X487099D01*
X487599Y97801D01*
Y98801D01*
X487099Y99301D01*
X348962Y297468D02*
Y300467D01*
X350462D01*
X350962Y299968D01*
Y298968D01*
X350462Y298468D01*
X348962D01*
X349962D02*
X350962Y297468D01*
X351961D02*
X352961D01*
X352461D01*
Y300467D01*
X351961Y299968D01*
X370300Y297100D02*
X373299D01*
Y295601D01*
X372799Y295101D01*
X371799D01*
X371300Y295601D01*
Y297100D01*
Y296100D02*
X370300Y295101D01*
Y292102D02*
Y294101D01*
X372299Y292102D01*
X372799D01*
X373299Y292601D01*
Y293601D01*
X372799Y294101D01*
X383200Y284300D02*
X386199D01*
Y282801D01*
X385699Y282301D01*
X384700D01*
X384200Y282801D01*
Y284300D01*
Y283300D02*
X383200Y282301D01*
X385699Y281301D02*
X386199Y280801D01*
Y279802D01*
X385699Y279302D01*
X385199D01*
X384700Y279802D01*
Y280301D01*
Y279802D01*
X384200Y279302D01*
X383700D01*
X383200Y279802D01*
Y280801D01*
X383700Y281301D01*
X368705Y247500D02*
X371704D01*
Y246001D01*
X371204Y245501D01*
X370204D01*
X369705Y246001D01*
Y247500D01*
Y246500D02*
X368705Y245501D01*
Y244501D02*
Y243501D01*
Y244001D01*
X371704D01*
X371204Y244501D01*
X368705Y240002D02*
Y242002D01*
X370704Y240002D01*
X371204D01*
X371704Y240502D01*
Y241502D01*
X371204Y242002D01*
X438000Y109600D02*
Y112599D01*
X439500D01*
X439999Y112099D01*
Y111100D01*
X439500Y110600D01*
X438000D01*
X439000D02*
X439999Y109600D01*
X440999Y112599D02*
X442998D01*
Y112099D01*
X440999Y110100D01*
Y109600D01*
X344800Y170700D02*
X347799D01*
Y169201D01*
X347299Y168701D01*
X346300D01*
X345800Y169201D01*
Y170700D01*
Y169700D02*
X344800Y168701D01*
X347299Y167701D02*
X347799Y167201D01*
Y166201D01*
X347299Y165702D01*
X346799D01*
X346300Y166201D01*
X345800Y165702D01*
X345300D01*
X344800Y166201D01*
Y167201D01*
X345300Y167701D01*
X345800D01*
X346300Y167201D01*
X346799Y167701D01*
X347299D01*
X346300Y167201D02*
Y166201D01*
X332600Y148000D02*
X335599D01*
Y146501D01*
X335099Y146001D01*
X334100D01*
X333600Y146501D01*
Y148000D01*
Y147000D02*
X332600Y146001D01*
Y145001D02*
Y144001D01*
Y144501D01*
X335599D01*
X335099Y145001D01*
X332600Y142502D02*
Y141502D01*
Y142002D01*
X335599D01*
X335099Y142502D01*
X435200Y88600D02*
Y91599D01*
X436699D01*
X437199Y91099D01*
Y90100D01*
X436699Y89600D01*
X435200D01*
X436200D02*
X437199Y88600D01*
X438199D02*
X439199D01*
X438699D01*
Y91599D01*
X438199Y91099D01*
X442198Y88600D02*
Y91599D01*
X440698Y90100D01*
X442698D01*
X421442Y109600D02*
Y112599D01*
X422941D01*
X423441Y112099D01*
Y111100D01*
X422941Y110600D01*
X421442D01*
X422442D02*
X423441Y109600D01*
X424441D02*
X425441D01*
X424941D01*
Y112599D01*
X424441Y112099D01*
X426940Y112599D02*
X428940D01*
Y112099D01*
X426940Y110100D01*
Y109600D01*
X421400Y88700D02*
Y91699D01*
X422899D01*
X423399Y91199D01*
Y90200D01*
X422899Y89700D01*
X421400D01*
X422400D02*
X423399Y88700D01*
X424399D02*
X425399D01*
X424899D01*
Y91699D01*
X424399Y91199D01*
X426898Y89200D02*
X427398Y88700D01*
X428398D01*
X428898Y89200D01*
Y91199D01*
X428398Y91699D01*
X427398D01*
X426898Y91199D01*
Y90699D01*
X427398Y90200D01*
X428898D01*
X283100Y189605D02*
Y192604D01*
X284599D01*
X285099Y192104D01*
Y191104D01*
X284599Y190605D01*
X283100D01*
X284100D02*
X285099Y189605D01*
X286099D02*
X287099D01*
X286599D01*
Y192604D01*
X286099Y192104D01*
X288598D02*
X289098Y192604D01*
X290098D01*
X290598Y192104D01*
Y191604D01*
X290098Y191104D01*
X290598Y190605D01*
Y190105D01*
X290098Y189605D01*
X289098D01*
X288598Y190105D01*
Y190605D01*
X289098Y191104D01*
X288598Y191604D01*
Y192104D01*
X289098Y191104D02*
X290098D01*
X304600Y183505D02*
Y186504D01*
X306100D01*
X306599Y186004D01*
Y185004D01*
X306100Y184505D01*
X304600D01*
X305600D02*
X306599Y183505D01*
X309598D02*
X307599D01*
X309598Y185504D01*
Y186004D01*
X309099Y186504D01*
X308099D01*
X307599Y186004D01*
X310598Y183505D02*
X311598D01*
X311098D01*
Y186504D01*
X310598Y186004D01*
X279900Y228400D02*
X282899D01*
Y226901D01*
X282399Y226401D01*
X281399D01*
X280900Y226901D01*
Y228400D01*
Y227400D02*
X279900Y226401D01*
Y223402D02*
Y225401D01*
X281899Y223402D01*
X282399D01*
X282899Y223902D01*
Y224901D01*
X282399Y225401D01*
X279900Y220902D02*
X282899D01*
X281399Y222402D01*
Y220403D01*
X404500Y109600D02*
Y112599D01*
X406000D01*
X406499Y112099D01*
Y111100D01*
X406000Y110600D01*
X404500D01*
X405500D02*
X406499Y109600D01*
X409498D02*
X407499D01*
X409498Y111599D01*
Y112099D01*
X408998Y112599D01*
X407999D01*
X407499Y112099D01*
X412497Y112599D02*
X410498D01*
Y111100D01*
X411498Y111599D01*
X411998D01*
X412497Y111100D01*
Y110100D01*
X411998Y109600D01*
X410998D01*
X410498Y110100D01*
X373400Y94800D02*
Y97799D01*
X374900D01*
X375399Y97299D01*
Y96299D01*
X374900Y95800D01*
X373400D01*
X374400D02*
X375399Y94800D01*
X378398D02*
X376399D01*
X378398Y96799D01*
Y97299D01*
X377899Y97799D01*
X376899D01*
X376399Y97299D01*
X381397Y97799D02*
X380398Y97299D01*
X379398Y96299D01*
Y95300D01*
X379898Y94800D01*
X380898D01*
X381397Y95300D01*
Y95800D01*
X380898Y96299D01*
X379398D01*
X117499Y409698D02*
X116499Y410698D01*
X114500D01*
X113500Y409698D01*
Y405700D01*
X114500Y404700D01*
X116499D01*
X117499Y405700D01*
X119498Y404700D02*
X121497D01*
X120498D01*
Y410698D01*
X119498Y409698D01*
X197299Y341598D02*
X196299Y342598D01*
X194300D01*
X193300Y341598D01*
Y337600D01*
X194300Y336600D01*
X196299D01*
X197299Y337600D01*
X203297Y342598D02*
X201297Y341598D01*
X199298Y339599D01*
Y337600D01*
X200298Y336600D01*
X202297D01*
X203297Y337600D01*
Y338599D01*
X202297Y339599D01*
X199298D01*
X113000Y485098D02*
Y479100D01*
X115999D01*
X116999Y480100D01*
Y484098D01*
X115999Y485098D01*
X113000D01*
X118998Y479100D02*
X120997D01*
X119998D01*
Y485098D01*
X118998Y484098D01*
X434905Y156699D02*
Y153700D01*
X436405D01*
X436904Y154200D01*
Y156199D01*
X436405Y156699D01*
X434905D01*
X437904Y156199D02*
X438404Y156699D01*
X439403D01*
X439903Y156199D01*
Y155699D01*
X439403Y155200D01*
X438904D01*
X439403D01*
X439903Y154700D01*
Y154200D01*
X439403Y153700D01*
X438404D01*
X437904Y154200D01*
X400099Y256700D02*
X396100D01*
Y254701D01*
X396766Y254034D01*
X399432D01*
X400099Y254701D01*
Y256700D01*
Y250036D02*
X399432Y251368D01*
X398099Y252701D01*
X396766D01*
X396100Y252035D01*
Y250702D01*
X396766Y250036D01*
X397433D01*
X398099Y250702D01*
Y252701D01*
X380800Y234799D02*
Y231800D01*
X382299D01*
X382799Y232300D01*
Y234299D01*
X382299Y234799D01*
X380800D01*
X383799D02*
X385798D01*
Y234299D01*
X383799Y232300D01*
Y231800D01*
X459804Y124400D02*
X456805D01*
Y122900D01*
X457305Y122401D01*
X459304D01*
X459804Y122900D01*
Y124400D01*
X456805Y121401D02*
Y120401D01*
Y120901D01*
X459804D01*
X459304Y121401D01*
Y118902D02*
X459804Y118402D01*
Y117402D01*
X459304Y116902D01*
X457305D01*
X456805Y117402D01*
Y118402D01*
X457305Y118902D01*
X459304D01*
X99402Y335799D02*
Y331800D01*
X102401D01*
Y333799D01*
Y331800D01*
X105400D01*
Y337798D02*
Y339797D01*
Y338798D01*
X99402D01*
X100402Y337798D01*
X427498Y226100D02*
X421500D01*
Y222101D01*
X426498Y220102D02*
X427498Y219102D01*
Y217103D01*
X426498Y216103D01*
X425499D01*
X424499Y217103D01*
Y218103D01*
Y217103D01*
X423499Y216103D01*
X422500D01*
X421500Y217103D01*
Y219102D01*
X422500Y220102D01*
X384205Y251500D02*
Y254499D01*
X385704D01*
X386204Y253999D01*
Y252999D01*
X385704Y252500D01*
X384205D01*
X385205D02*
X386204Y251500D01*
X387204D02*
X388204D01*
X387704D01*
Y254499D01*
X387204Y253999D01*
X391703Y254499D02*
X389703D01*
Y252999D01*
X390703Y253499D01*
X391203D01*
X391703Y252999D01*
Y252000D01*
X391203Y251500D01*
X390203D01*
X389703Y252000D01*
X450305Y154400D02*
X453304D01*
Y152901D01*
X452804Y152401D01*
X451804D01*
X451305Y152901D01*
Y154400D01*
Y153400D02*
X450305Y152401D01*
Y149402D02*
Y151401D01*
X452304Y149402D01*
X452804D01*
X453304Y149901D01*
Y150901D01*
X452804Y151401D01*
X450305Y146403D02*
Y148402D01*
X452304Y146403D01*
X452804D01*
X453304Y146902D01*
Y147902D01*
X452804Y148402D01*
X448400Y125800D02*
X451399D01*
Y124301D01*
X450899Y123801D01*
X449899D01*
X449400Y124301D01*
Y125800D01*
Y124800D02*
X448400Y123801D01*
Y120802D02*
Y122801D01*
X450399Y120802D01*
X450899D01*
X451399Y121301D01*
Y122301D01*
X450899Y122801D01*
Y119802D02*
X451399Y119302D01*
Y118302D01*
X450899Y117803D01*
X450399D01*
X449899Y118302D01*
Y118802D01*
Y118302D01*
X449400Y117803D01*
X448900D01*
X448400Y118302D01*
Y119302D01*
X448900Y119802D01*
X454804Y450883D02*
X453804Y451883D01*
X451805D01*
X450805Y450883D01*
Y446885D01*
X451805Y445885D01*
X453804D01*
X454804Y446885D01*
X460802Y445885D02*
X456803D01*
X460802Y449884D01*
Y450883D01*
X459802Y451883D01*
X457803D01*
X456803Y450883D01*
X201202Y64899D02*
X200202Y63899D01*
Y61900D01*
X201202Y60900D01*
X205200D01*
X206200Y61900D01*
Y63899D01*
X205200Y64899D01*
X201202Y66898D02*
X200202Y67898D01*
Y69897D01*
X201202Y70897D01*
X202201D01*
X203201Y69897D01*
Y68897D01*
Y69897D01*
X204201Y70897D01*
X205200D01*
X206200Y69897D01*
Y67898D01*
X205200Y66898D01*
X278002Y80399D02*
X277002Y79399D01*
Y77400D01*
X278002Y76400D01*
X282000D01*
X283000Y77400D01*
Y79399D01*
X282000Y80399D01*
X283000Y85397D02*
X277002D01*
X280001Y82398D01*
Y86397D01*
X370099Y85583D02*
X369099Y86583D01*
X367100D01*
X366100Y85583D01*
Y81585D01*
X367100Y80585D01*
X369099D01*
X370099Y81585D01*
X376097Y86583D02*
X372098D01*
Y83584D01*
X374097Y84584D01*
X375097D01*
X376097Y83584D01*
Y81585D01*
X375097Y80585D01*
X373098D01*
X372098Y81585D01*
X396599Y201399D02*
X396099Y201899D01*
X395100D01*
X394600Y201399D01*
Y199400D01*
X395100Y198900D01*
X396099D01*
X396599Y199400D01*
X399598Y198900D02*
X397599D01*
X399598Y200899D01*
Y201399D01*
X399098Y201899D01*
X398099D01*
X397599Y201399D01*
X400598Y198900D02*
X401598D01*
X401098D01*
Y201899D01*
X400598Y201399D01*
X381499Y228201D02*
X381999Y228700D01*
Y229700D01*
X381499Y230200D01*
X379500D01*
X379000Y229700D01*
Y228700D01*
X379500Y228201D01*
X379000Y225202D02*
Y227201D01*
X380999Y225202D01*
X381499D01*
X381999Y225701D01*
Y226701D01*
X381499Y227201D01*
X379000Y222203D02*
Y224202D01*
X380999Y222203D01*
X381499D01*
X381999Y222702D01*
Y223702D01*
X381499Y224202D01*
X389199Y228101D02*
X389699Y228601D01*
Y229600D01*
X389199Y230100D01*
X387200D01*
X386700Y229600D01*
Y228601D01*
X387200Y228101D01*
X386700Y225102D02*
Y227101D01*
X388699Y225102D01*
X389199D01*
X389699Y225602D01*
Y226601D01*
X389199Y227101D01*
Y224102D02*
X389699Y223602D01*
Y222602D01*
X389199Y222103D01*
X388699D01*
X388199Y222602D01*
Y223102D01*
Y222602D01*
X387700Y222103D01*
X387200D01*
X386700Y222602D01*
Y223602D01*
X387200Y224102D01*
X204000Y326300D02*
Y332298D01*
X205999Y330299D01*
X207999Y332298D01*
Y326300D01*
X212997Y332298D02*
X210998D01*
X209998Y331298D01*
Y327300D01*
X210998Y326300D01*
X212997D01*
X213997Y327300D01*
Y331298D01*
X212997Y332298D01*
X215996D02*
Y326300D01*
X218995D01*
X219995Y327300D01*
Y331298D01*
X218995Y332298D01*
X215996D01*
X221994Y326300D02*
X223993D01*
X222994D01*
Y332298D01*
X221994Y331298D01*
X306299Y116000D02*
Y119998D01*
X305299Y120998D01*
X303300D01*
X302300Y119998D01*
Y116000D01*
X303300Y115000D01*
X305299D01*
X304299Y116999D02*
X306299Y115000D01*
X305299D02*
X306299Y116000D01*
X308298Y119998D02*
X309298Y120998D01*
X311297D01*
X312297Y119998D01*
Y118999D01*
X311297Y117999D01*
X310297D01*
X311297D01*
X312297Y116999D01*
Y116000D01*
X311297Y115000D01*
X309298D01*
X308298Y116000D01*
X350205Y149800D02*
Y155798D01*
X353204D01*
X354204Y154798D01*
Y152799D01*
X353204Y151799D01*
X350205D01*
X352204D02*
X354204Y149800D01*
X360202D02*
X356203D01*
X360202Y153799D01*
Y154798D01*
X359202Y155798D01*
X357203D01*
X356203Y154798D01*
X362201Y155798D02*
X366200D01*
Y154798D01*
X362201Y150800D01*
Y149800D01*
X118720Y43700D02*
X124718D01*
Y40701D01*
X123718Y39701D01*
X121719D01*
X120719Y40701D01*
Y43700D01*
X118720Y33703D02*
Y37702D01*
X122718Y33703D01*
X123718D01*
X124718Y34703D01*
Y36702D01*
X123718Y37702D01*
X212043Y62015D02*
Y68679D01*
X208710Y65347D02*
X215375D01*
X440157Y84770D02*
Y78106D01*
X443490Y81438D02*
X436825D01*
X526657Y437955D02*
Y431291D01*
X529990Y434623D02*
X523325D01*
X350057Y85270D02*
Y78606D01*
X353390Y81938D02*
X346725D01*
D76*
X380449Y245224D02*
G03*
X380449Y245224I-197J0D01*
G01*
X463226Y142353D02*
G03*
X463226Y142353I-197J0D01*
G01*
X391540Y300024D02*
G03*
X391540Y300024I-197J0D01*
G01*
D77*
X360786Y117095D02*
G03*
X364742Y121052I0J3957D01*
G01*
X368660Y141130D02*
G03*
X361612Y141130I-3524J-375D01*
G01*
X361613Y140381D02*
G03*
X368659Y140381I3523J374D01*
G01*
X360412Y117095D02*
X361593Y116328D01*
X360412Y117095D02*
X361593Y117902D01*
X361607Y140381D02*
X368665D01*
X361606Y141131D02*
X368666D01*
X493674Y217700D02*
X506674D01*
X493674Y198700D02*
Y217700D01*
X492674Y218700D02*
X493674Y217700D01*
X506674Y206700D02*
X508828D01*
X506674Y198700D02*
Y206700D01*
Y216700D02*
Y218700D01*
Y216700D02*
X507674Y218700D01*
X506674Y198700D02*
Y216700D01*
X508828Y201547D02*
Y218700D01*
X492674D02*
X508828D01*
X492674Y198700D02*
Y218700D01*
X493674Y179700D02*
X506674D01*
X493674D02*
Y198700D01*
X492674Y178700D02*
X493674Y179700D01*
X506674Y190700D02*
X508828D01*
X506674D02*
Y198700D01*
Y178700D02*
Y180700D01*
X507674Y178700D01*
X506674Y180700D02*
Y198700D01*
X508828Y178700D02*
Y201547D01*
X492674Y178700D02*
X508828D01*
X492674D02*
Y198700D01*
X493700Y176400D02*
X506700D01*
X493700Y157400D02*
Y176400D01*
X492700Y177400D02*
X493700Y176400D01*
X506700Y165400D02*
X508853D01*
X506700Y157400D02*
Y165400D01*
Y175400D02*
Y177400D01*
Y175400D02*
X507700Y177400D01*
X506700Y157400D02*
Y175400D01*
X508853Y160247D02*
Y177400D01*
X492700D02*
X508853D01*
X492700Y157400D02*
Y177400D01*
X493700Y138400D02*
X506700D01*
X493700D02*
Y157400D01*
X492700Y137400D02*
X493700Y138400D01*
X506700Y149400D02*
X508853D01*
X506700D02*
Y157400D01*
Y137400D02*
Y139400D01*
X507700Y137400D01*
X506700Y139400D02*
Y157400D01*
X508853Y137400D02*
Y160247D01*
X492700Y137400D02*
X508853D01*
X492700D02*
Y157400D01*
X491000Y133300D02*
X504000D01*
X491000Y114300D02*
Y133300D01*
X490000Y134300D02*
X491000Y133300D01*
X504000Y122300D02*
X509000D01*
X504000Y114300D02*
Y122300D01*
Y132300D02*
Y134300D01*
Y132300D02*
X505000Y134300D01*
X504000Y114300D02*
Y132300D01*
X509000Y114300D02*
Y134300D01*
X490000D02*
X509000D01*
X490000Y114300D02*
Y134300D01*
X491000Y95300D02*
X504000D01*
X491000D02*
Y114300D01*
X490000Y94300D02*
X491000Y95300D01*
X504000Y106300D02*
X509000D01*
X504000D02*
Y114300D01*
Y94300D02*
Y96300D01*
X505000Y94300D01*
X504000Y96300D02*
Y114300D01*
X509000Y94300D02*
Y114300D01*
X490000Y94300D02*
X509000D01*
X490000D02*
Y114300D01*
X493774Y329626D02*
X506774D01*
X493774Y310626D02*
Y329626D01*
X492774Y330626D02*
X493774Y329626D01*
X506774Y318626D02*
X508928D01*
X506774Y310626D02*
Y318626D01*
Y328626D02*
Y330626D01*
Y328626D02*
X507774Y330626D01*
X506774Y310626D02*
Y328626D01*
X508928Y313472D02*
Y330626D01*
X492774D02*
X508928D01*
X492774Y310626D02*
Y330626D01*
X493774Y291626D02*
X506774D01*
X493774D02*
Y310626D01*
X492774Y290626D02*
X493774Y291626D01*
X506774Y302626D02*
X508928D01*
X506774D02*
Y310626D01*
Y290626D02*
Y292626D01*
X507774Y290626D01*
X506774Y292626D02*
Y310626D01*
X508928Y290626D02*
Y313472D01*
X492774Y290626D02*
X508928D01*
X492774D02*
Y310626D01*
D78*
X374211Y191936D02*
Y197064D01*
X375389Y191936D02*
Y197064D01*
X388458Y290261D02*
Y293261D01*
X383458Y290261D02*
Y293261D01*
X380458Y290198D02*
Y293198D01*
X375458Y290198D02*
Y293198D01*
X444050Y345475D02*
X450950D01*
X444050Y342325D02*
X450950D01*
X412412Y239045D02*
Y257155D01*
X401388Y239045D02*
Y257155D01*
X410443D02*
X412412D01*
X410443Y239045D02*
X412412D01*
X401388Y257155D02*
X403357D01*
X401388Y239045D02*
X403357D01*
X410443D02*
Y242982D01*
X403357Y239045D02*
Y242982D01*
X410487D02*
X412412D01*
X401388D02*
X403357D01*
X272200Y161300D02*
X275200D01*
X272200Y166300D02*
X275200D01*
X283800Y287900D02*
X286800D01*
X283800Y292900D02*
X286800D01*
X257800Y161300D02*
X260800D01*
X257800Y166300D02*
X260800D01*
X269100Y287900D02*
X272100D01*
X269100Y292900D02*
X272100D01*
X300269Y197250D02*
Y204150D01*
X297120Y197250D02*
Y204150D01*
X296900Y177230D02*
Y180980D01*
X298300Y177230D02*
Y180980D01*
X297000Y186705D02*
X298200D01*
X297000Y183505D02*
X298200D01*
X331925Y169205D02*
X335675D01*
X331925Y167805D02*
X335675D01*
X410200Y226500D02*
X411400D01*
X410200Y223300D02*
X411400D01*
X411500Y229325D02*
Y233075D01*
X410100Y229325D02*
Y233075D01*
X417445Y233588D02*
X435555D01*
X417445Y244612D02*
X435555D01*
X375000Y199625D02*
Y203375D01*
X373600Y199625D02*
Y203375D01*
X407263Y102600D02*
X410263D01*
X407263Y107600D02*
X410263D01*
X437500Y102600D02*
X440500D01*
X437500Y107600D02*
X440500D01*
X423442Y102600D02*
X426442D01*
X423442Y107600D02*
X426442D01*
X282650Y180575D02*
X289550D01*
X282650Y177425D02*
X289550D01*
X434188Y128645D02*
Y146755D01*
X445212Y128645D02*
Y146755D01*
X434188Y128645D02*
X436157D01*
X434188Y146755D02*
X436157D01*
X443243Y128645D02*
X445212D01*
X443243Y146755D02*
X445212D01*
X436157Y142818D02*
Y146755D01*
X443243Y142818D02*
Y146755D01*
X434188Y142818D02*
X436113D01*
X443243D02*
X445212D01*
X297200Y213625D02*
Y217375D01*
X298600Y213625D02*
Y217375D01*
X285700Y265000D02*
X286900D01*
X285700Y268200D02*
X286900D01*
X273300Y265000D02*
X274500D01*
X273300Y268200D02*
X274500D01*
X297000Y189505D02*
X298200D01*
X297000Y192705D02*
X298200D01*
X273225Y212300D02*
X276975D01*
X273225Y213700D02*
X276975D01*
X280100Y212400D02*
Y213600D01*
X283300Y212400D02*
Y213600D01*
X423505Y94100D02*
X426505D01*
X423505Y99100D02*
X426505D01*
X437505Y94100D02*
X440505D01*
X437505Y99100D02*
X440505D01*
X387900Y98200D02*
X389100D01*
X387900Y95000D02*
X389100D01*
X372700Y184225D02*
Y187975D01*
X371300Y184225D02*
Y187975D01*
X371400Y181500D02*
X372600D01*
X371400Y178300D02*
X372600D01*
X456705Y149800D02*
Y151000D01*
X459905Y149800D02*
Y151000D01*
X448705Y132800D02*
Y134000D01*
X451905Y132800D02*
Y134000D01*
X374105Y243400D02*
Y244600D01*
X377305Y243400D02*
Y244600D01*
X387105Y246400D02*
X388305D01*
X387105Y249600D02*
X388305D01*
X386138Y237154D02*
Y243847D01*
X386926Y237154D02*
Y243847D01*
X382496D02*
X393914D01*
X382496Y237154D02*
X393905D01*
X386532D02*
Y243847D01*
X381315Y237154D02*
X382496D01*
X381315D02*
X382496Y237744D01*
X381315Y237154D02*
X382496Y236563D01*
Y237744D01*
X381315Y236563D02*
Y237744D01*
X454958Y136467D02*
X461652D01*
X454958Y135679D02*
X461652D01*
Y128691D02*
Y140109D01*
X454958Y128700D02*
Y140109D01*
Y136073D02*
X461652D01*
X454958Y140109D02*
Y141290D01*
X455549Y140109D01*
X454368D02*
X454958Y141290D01*
X454368Y140109D02*
X455549D01*
X454368Y141290D02*
X455549D01*
X279030Y271501D02*
Y284099D01*
X282180Y271501D02*
Y284099D01*
X338925Y156205D02*
X342675D01*
X338925Y154805D02*
X342675D01*
X335400Y154905D02*
Y156105D01*
X332200Y154905D02*
Y156105D01*
X339200Y167905D02*
Y169105D01*
X342400Y167905D02*
Y169105D01*
X360862Y297369D02*
X362062D01*
X360862Y300569D02*
X362062D01*
X397229Y291953D02*
Y298646D01*
X398017Y291953D02*
Y298646D01*
X393588D02*
X405005D01*
X393588Y291953D02*
X404996D01*
X397623D02*
Y298646D01*
X392407Y291953D02*
X393588D01*
X392407D02*
X393588Y292544D01*
X392407Y291953D02*
X393588Y291363D01*
Y292544D01*
X392407Y291363D02*
Y292544D01*
X355587Y288769D02*
X359337D01*
X355587Y290168D02*
X359337D01*
X363587Y288769D02*
X367337D01*
X363587Y290168D02*
X367337D01*
X350176Y107666D02*
Y145855D01*
Y107666D02*
X369861D01*
Y145855D01*
X350176D02*
X369861D01*
X393582Y213875D02*
X403818D01*
X393582Y210725D02*
X403818D01*
X377936Y214611D02*
X383064D01*
X377936Y215789D02*
X383064D01*
X385636Y214511D02*
X390764D01*
X385636Y215689D02*
X390764D01*
X359441Y122169D02*
X359322Y122407D01*
X359084Y122645D01*
X358846Y122764D01*
X358370D01*
X358132Y122645D01*
X357894Y122407D01*
X357775Y122169D01*
X357656Y121812D01*
Y121217D01*
X357775Y120860D01*
X357894Y120622D01*
X358132Y120384D01*
X358370Y120265D01*
X358846D01*
X359084Y120384D01*
X359322Y120622D01*
X359441Y120860D01*
X360143Y122764D02*
X360739Y120265D01*
X361334Y122764D02*
X360739Y120265D01*
X361334Y122764D02*
X361929Y120265D01*
X362524Y122764D02*
X361929Y120265D01*
D79*
X324114Y177609D02*
X350886D01*
X324114Y228790D02*
X350886D01*
Y177609D02*
Y228790D01*
X324114Y177609D02*
Y228790D01*
X417543Y233785D02*
Y234474D01*
X435457Y243726D02*
Y244415D01*
X417543Y233785D02*
X434374D01*
X417543Y244415D02*
X435457D01*
Y233785D02*
Y234474D01*
X417543Y243726D02*
Y244415D01*
X300217Y124111D02*
X314784D01*
X300217D02*
Y150489D01*
X314784D01*
Y124111D02*
Y150489D01*
D80*
X411427Y241013D02*
D03*
X402372D02*
D03*
X435173Y144787D02*
D03*
X444228D02*
D03*
D81*
X250505Y138787D02*
D03*
X238695D02*
D03*
X401694Y7998D02*
D03*
X413506D02*
D03*
X488195Y361184D02*
D03*
X500005D02*
D03*
X311595Y8498D02*
D03*
X323406D02*
D03*
D82*
X244600Y138787D02*
D03*
D83*
X433587Y234228D02*
D03*
Y243972D02*
D03*
D84*
X407600Y7998D02*
D03*
X494100Y361184D02*
D03*
X317500Y8498D02*
D03*
D85*
X208816Y200491D02*
D03*
X208819Y228791D02*
D03*
D86*
X208865Y187155D02*
D03*
X208868Y215455D02*
D03*
M02*
