G04 Layer_Color=65280*
%FSLAX25Y25*%
%MOIN*%
G70*
G01*
G75*
%ADD38C,0.01000*%
%ADD71C,0.00500*%
D38*
X357600Y152499D02*
X358100Y152999D01*
X359100D01*
X359599Y152499D01*
Y150500D01*
X359100Y150000D01*
X358100D01*
X357600Y150500D01*
X354601Y150000D02*
X356600D01*
X354601Y151999D01*
Y152499D01*
X355101Y152999D01*
X356101D01*
X356600Y152499D01*
X353601Y150000D02*
X352602D01*
X353102D01*
Y152999D01*
X353601Y152499D01*
X357506Y169999D02*
X358005Y170499D01*
X359005D01*
X359505Y169999D01*
Y168000D01*
X359005Y167500D01*
X358005D01*
X357506Y168000D01*
X354507Y167500D02*
X356506D01*
X354507Y169499D01*
Y169999D01*
X355006Y170499D01*
X356006D01*
X356506Y169999D01*
X353507D02*
X353007Y170499D01*
X352007D01*
X351508Y169999D01*
Y169499D01*
X352007Y169000D01*
X352507D01*
X352007D01*
X351508Y168500D01*
Y168000D01*
X352007Y167500D01*
X353007D01*
X353507Y168000D01*
X357506Y162499D02*
X358005Y162999D01*
X359005D01*
X359505Y162499D01*
Y160500D01*
X359005Y160000D01*
X358005D01*
X357506Y160500D01*
X354507Y160000D02*
X356506D01*
X354507Y161999D01*
Y162499D01*
X355006Y162999D01*
X356006D01*
X356506Y162499D01*
X351508Y160000D02*
X353507D01*
X351508Y161999D01*
Y162499D01*
X352007Y162999D01*
X353007D01*
X353507Y162499D01*
D71*
X343580Y146382D02*
Y156618D01*
X340430Y146382D02*
Y156618D01*
X343916Y166436D02*
Y171564D01*
X345094Y166436D02*
Y171564D01*
X343916Y158936D02*
Y164064D01*
X345094Y158936D02*
Y164064D01*
M02*
