G04 Layer_Color=16711935*
%FSLAX25Y25*%
%MOIN*%
G70*
G01*
G75*
%ADD73C,0.00394*%
%ADD124C,0.00197*%
%ADD125C,0.00300*%
D73*
X310426Y186583D02*
G03*
X310426Y186583I-1969J0D01*
G01*
X356096Y183039D02*
Y212961D01*
X304914Y183039D02*
Y212961D01*
X356096D01*
X304914Y183039D02*
X356096D01*
X397131Y237685D02*
X412879D01*
X397131Y248315D02*
X412879D01*
Y237685D02*
Y248315D01*
X397131Y237685D02*
Y248315D01*
X417599Y272661D02*
Y280339D01*
X429411Y272661D02*
Y280339D01*
X417599D02*
X429411D01*
X417599Y272661D02*
X429411D01*
X362166Y136406D02*
X369844D01*
X362166Y124594D02*
X369844D01*
Y136406D01*
X362166Y124594D02*
Y136406D01*
X456891Y292661D02*
Y300339D01*
X468702Y292661D02*
Y300339D01*
X456891D02*
X468702D01*
X456891Y292661D02*
X468702D01*
D124*
X236910Y277106D02*
G03*
X236910Y277106I-1330J0D01*
G01*
X89395Y45487D02*
G03*
X89395Y6513I-6890J-19487D01*
G01*
Y44440D02*
G03*
X89395Y7560I-6890J-18440D01*
G01*
Y6521D02*
G03*
X89395Y45479I-6890J19479D01*
G01*
X102603Y32302D02*
G03*
X88807Y46098I-20098J-6302D01*
G01*
X103174Y43717D02*
G03*
X100222Y46669I-2953J0D01*
G01*
X88807Y5902D02*
G03*
X102603Y19698I-6302J20098D01*
G01*
X100222Y5331D02*
G03*
X103174Y8283I0J2953D01*
G01*
X76203Y46098D02*
G03*
X62407Y32302I6302J-20098D01*
G01*
Y19698D02*
G03*
X76203Y5902I20098J6302D01*
G01*
X235678Y260689D02*
X237332D01*
X230678D02*
X232332D01*
X225678D02*
X227332D01*
X220678D02*
X222332D01*
X230678Y284311D02*
X232332D01*
X235678D02*
X237332D01*
X225678D02*
X227332D01*
X220678D02*
X222332D01*
X235678Y262141D02*
X237332D01*
X220678D02*
X222332D01*
X230678D02*
X232332D01*
X225678D02*
X227332D01*
X220678Y282858D02*
X222332D01*
X225678D02*
X227332D01*
X230678D02*
X232332D01*
X235678D02*
X237332D01*
X225678Y282513D02*
X227332D01*
X220678Y262487D02*
X222332D01*
X230678D02*
X232332D01*
X225678D02*
X227332D01*
X235678D02*
X237332D01*
X235678Y282513D02*
X237332D01*
X230678D02*
X232332D01*
X220678D02*
X222332D01*
X225678Y281961D02*
X227332D01*
X235678D02*
X237332D01*
X220678D02*
X222332D01*
X230678D02*
X232332D01*
Y280177D02*
Y284311D01*
X230678Y280821D02*
X232332D01*
X230678Y280177D02*
Y284311D01*
X225678Y263038D02*
X227332D01*
X230678D02*
X232332D01*
X237332Y280177D02*
Y284311D01*
X235678Y280821D02*
X237332D01*
X235678Y280177D02*
Y284311D01*
X227332Y280177D02*
Y284311D01*
X225678Y280821D02*
X227332D01*
X225678Y280177D02*
Y284311D01*
X222332Y280177D02*
Y284311D01*
X220678Y280821D02*
X222332D01*
X220678Y280177D02*
Y284311D01*
X235678Y263038D02*
X237332D01*
X225678Y260689D02*
Y264823D01*
Y264179D02*
X227332D01*
Y260689D02*
Y264823D01*
X222332Y260689D02*
Y264823D01*
X220678Y264179D02*
X222332D01*
X220678Y260689D02*
Y264823D01*
Y263038D02*
X222332D01*
X230678Y260689D02*
Y264823D01*
Y264179D02*
X232332D01*
Y260689D02*
Y264823D01*
X235678Y260689D02*
Y264823D01*
Y264179D02*
X237332D01*
Y260689D02*
Y264823D01*
X219359D02*
X238651D01*
X219359D02*
Y280177D01*
Y264823D02*
X219945Y265409D01*
X219359Y280177D02*
X238651D01*
X219359D02*
X219945Y279591D01*
X238065D02*
X238651Y280177D01*
X238065Y265409D02*
X238651Y264823D01*
Y280177D01*
X219945Y265409D02*
Y279591D01*
Y265409D02*
X238065D01*
Y279591D01*
X219945D02*
X238065D01*
X452109Y295323D02*
X452111Y290598D01*
X452109Y295323D02*
X452111Y290598D01*
X446804Y295323D02*
X446806Y290598D01*
X446804D02*
Y295323D01*
X446800Y297291D02*
X452115D01*
X446800Y295323D02*
Y297291D01*
Y295323D02*
X452115D01*
Y297291D01*
X446800Y288630D02*
Y290598D01*
X452115D01*
X446800Y288630D02*
X452115D01*
Y290598D01*
X444109Y295260D02*
X444111Y290535D01*
X444109Y295260D02*
X444111Y290535D01*
X438804Y295260D02*
X438806Y290535D01*
X438804D02*
Y295260D01*
X438800Y297228D02*
X444115D01*
X438800Y295260D02*
Y297228D01*
Y295260D02*
X444115D01*
Y297228D01*
X438800Y288567D02*
Y290535D01*
X444115D01*
X438800Y288567D02*
X444115D01*
Y290535D01*
X502281Y271035D02*
X511729D01*
X502281Y277965D02*
X511729D01*
Y270957D02*
X513698D01*
X511729Y278043D02*
X513698D01*
X511729Y270957D02*
Y278043D01*
X513698Y270957D02*
Y278043D01*
X500312Y270957D02*
X502281D01*
X500312Y278043D02*
X502281D01*
Y270957D02*
Y278043D01*
X500312Y270957D02*
Y278043D01*
X258218Y190197D02*
X259792D01*
X258218Y179961D02*
X259792D01*
X258218Y189632D02*
X259792D01*
X258218Y180526D02*
X259792D01*
Y179961D02*
Y181618D01*
X258218Y179961D02*
Y181618D01*
Y180709D02*
X259792D01*
X258218Y181496D02*
X259792D01*
X258218Y189449D02*
X259792D01*
Y188539D02*
Y190197D01*
X258218Y188539D02*
Y190197D01*
Y188661D02*
X259792D01*
X256590Y188379D02*
X261420D01*
X259792Y188622D02*
X261663D01*
X258218Y188539D02*
X259792D01*
X256347Y188622D02*
X258218D01*
X256590Y186260D02*
Y188379D01*
X256347Y188622D02*
X256590Y188379D01*
X256347Y181535D02*
Y188622D01*
X261663Y181535D02*
Y188622D01*
X261420Y188379D02*
X261663Y188622D01*
X261420Y186260D02*
Y188379D01*
X256590Y186260D02*
X261420D01*
X261419Y181779D02*
X261420Y186260D01*
X256590D02*
X256591Y181779D01*
X259792Y181535D02*
X261663D01*
X261419Y181779D02*
X261663Y181535D01*
X256591Y181779D02*
X261419D01*
X256347Y181535D02*
X256591Y181779D01*
X256347Y181535D02*
X258218D01*
Y181618D02*
X259792D01*
X248275Y182070D02*
X249850D01*
Y178330D02*
Y182070D01*
X248275Y178330D02*
Y182070D01*
Y178330D02*
X249850D01*
X242960Y182070D02*
X244535D01*
Y178330D02*
Y182070D01*
X242960Y178330D02*
X244535D01*
X242960D02*
Y182070D01*
X244535Y178334D02*
X248275D01*
X244535D02*
X248275Y178336D01*
X244535Y182064D02*
X248275Y182066D01*
X244535Y182064D02*
X248275Y182066D01*
X253635Y198364D02*
X257375Y198366D01*
X253635Y198364D02*
X257375Y198366D01*
X253635Y194634D02*
X257375Y194636D01*
X253635Y194634D02*
X257375D01*
X252060Y194630D02*
Y198370D01*
Y194630D02*
X253635D01*
Y198370D01*
X252060D02*
X253635D01*
X257375Y194630D02*
X258950D01*
X257375D02*
Y198370D01*
X258950Y194630D02*
Y198370D01*
X257375D02*
X258950D01*
X244869Y274870D02*
X244871Y271130D01*
X244869Y274870D02*
X244871Y271130D01*
X241139Y274870D02*
X241141Y271130D01*
X241139D02*
Y274870D01*
X241135Y276445D02*
X244875D01*
X241135Y274870D02*
Y276445D01*
Y274870D02*
X244875D01*
Y276445D01*
X241135Y269555D02*
Y271130D01*
X244875D01*
X241135Y269555D02*
X244875D01*
Y271130D01*
X228289Y319864D02*
X232029Y319866D01*
X228289Y319864D02*
X232029Y319866D01*
X228289Y316134D02*
X232029Y316136D01*
X228289Y316134D02*
X232029D01*
X226714Y316130D02*
Y319870D01*
Y316130D02*
X228289D01*
Y319870D01*
X226714D02*
X228289D01*
X232029Y316130D02*
X233603D01*
X232029D02*
Y319870D01*
X233603Y316130D02*
Y319870D01*
X232029D02*
X233603D01*
X229157Y374862D02*
X229158Y370138D01*
X229157Y374862D02*
X229158Y370138D01*
X223851Y374862D02*
X223853Y370138D01*
X223851D02*
Y374862D01*
X223848Y376831D02*
X229163D01*
X223848Y374862D02*
Y376831D01*
Y374862D02*
X229163D01*
Y376831D01*
X223848Y368169D02*
Y370138D01*
X229163D01*
X223848Y368169D02*
X229163D01*
Y370138D01*
X229157Y346362D02*
X229158Y341638D01*
X229157Y346362D02*
X229158Y341638D01*
X223851Y346362D02*
X223853Y341638D01*
X223851D02*
Y346362D01*
X223848Y348331D02*
X229163D01*
X223848Y346362D02*
Y348331D01*
Y346362D02*
X229163D01*
Y348331D01*
X223848Y339669D02*
Y341638D01*
X229163D01*
X223848Y339669D02*
X229163D01*
Y341638D01*
X282367Y408658D02*
X284336D01*
Y403342D02*
Y408658D01*
X282367Y403342D02*
Y408658D01*
Y403342D02*
X284336D01*
X275674Y408658D02*
X277643D01*
Y403342D02*
Y408658D01*
X275674Y403342D02*
X277643D01*
X275674D02*
Y408658D01*
X277643Y403346D02*
X282367D01*
X277643D02*
X282367Y403348D01*
X277643Y408652D02*
X282367Y408653D01*
X277643Y408652D02*
X282367Y408653D01*
X268304Y388158D02*
X270273D01*
Y382842D02*
Y388158D01*
X268304Y382842D02*
Y388158D01*
Y382842D02*
X270273D01*
X261611Y388158D02*
X263580D01*
Y382842D02*
Y388158D01*
X261611Y382842D02*
X263580D01*
X261611D02*
Y388158D01*
X263580Y382846D02*
X268304D01*
X263580D02*
X268304Y382848D01*
X263580Y388152D02*
X268304Y388154D01*
X263580Y388152D02*
X268304Y388154D01*
X264367Y408658D02*
X266336D01*
Y403342D02*
Y408658D01*
X264367Y403342D02*
Y408658D01*
Y403342D02*
X266336D01*
X257674Y408658D02*
X259643D01*
Y403342D02*
Y408658D01*
X257674Y403342D02*
X259643D01*
X257674D02*
Y408658D01*
X259643Y403346D02*
X264367D01*
X259643D02*
X264367Y403348D01*
X259643Y408652D02*
X264367Y408653D01*
X259643Y408652D02*
X264367Y408653D01*
X252367Y388158D02*
X254336D01*
Y382842D02*
Y388158D01*
X252367Y382842D02*
Y388158D01*
Y382842D02*
X254336D01*
X245674Y388158D02*
X247643D01*
Y382842D02*
Y388158D01*
X245674Y382842D02*
X247643D01*
X245674D02*
Y388158D01*
X247643Y382846D02*
X252367D01*
X247643D02*
X252367Y382848D01*
X247643Y388152D02*
X252367Y388154D01*
X247643Y388152D02*
X252367Y388154D01*
X307462Y249693D02*
X314548D01*
X307462Y247724D02*
X314548D01*
Y249693D01*
X307462Y247724D02*
Y249693D01*
Y236307D02*
X314548D01*
X307462Y238276D02*
X314548D01*
Y236307D02*
Y238276D01*
X307462Y236307D02*
Y238276D01*
X314470D02*
Y247724D01*
X307540Y238276D02*
Y247724D01*
X289233Y238653D02*
X292777D01*
X289233D02*
Y239835D01*
X292777D01*
Y238653D02*
Y239835D01*
X289233Y244165D02*
X292777D01*
X289233Y245346D02*
X292777D01*
X289233Y244165D02*
Y245346D01*
X292777Y244165D02*
Y245346D01*
X292698Y239835D02*
Y244165D01*
X289312Y239835D02*
Y244165D01*
X295139Y243870D02*
X295141Y240130D01*
X295139Y243870D02*
X295141Y240130D01*
X298869Y243870D02*
X298871Y240130D01*
Y243870D01*
X295135Y238555D02*
X298875D01*
Y240130D01*
X295135D02*
X298875D01*
X295135Y238555D02*
Y240130D01*
X298875Y243870D02*
Y245445D01*
X295135Y243870D02*
X298875D01*
X295135Y245445D02*
X298875D01*
X295135Y243870D02*
Y245445D01*
X292159Y201728D02*
Y205272D01*
X293340D01*
Y201728D02*
Y205272D01*
X292159Y201728D02*
X293340D01*
X297670D02*
Y205272D01*
X298851Y201728D02*
Y205272D01*
X297670D02*
X298851D01*
X297670Y201728D02*
X298851D01*
X293340Y201807D02*
X297670D01*
X293340Y205193D02*
X297670D01*
X375635Y230217D02*
Y231791D01*
X379375D01*
X375635Y230217D02*
X379375D01*
Y231791D01*
X375635Y224902D02*
Y226476D01*
X379375D01*
Y224902D02*
Y226476D01*
X375635Y224902D02*
X379375D01*
X379371Y226476D02*
Y230217D01*
X379369D02*
X379371Y226476D01*
X375639Y230217D02*
X375641Y226476D01*
X375639Y230217D02*
X375641Y226476D01*
X372198Y226335D02*
Y230665D01*
X368812Y226335D02*
Y230665D01*
X368733Y225153D02*
Y226335D01*
X372277Y225153D02*
Y226335D01*
X368733Y225153D02*
X372277D01*
X368733Y226335D02*
X372277D01*
X368733Y230665D02*
Y231846D01*
Y230665D02*
X372277D01*
Y231846D01*
X368733D02*
X372277D01*
X329852Y128228D02*
Y131772D01*
X328670Y128228D02*
X329852D01*
X328670D02*
Y131772D01*
X329852D01*
X324340Y128228D02*
Y131772D01*
X323159Y128228D02*
Y131772D01*
Y128228D02*
X324340D01*
X323159Y131772D02*
X324340D01*
Y131693D02*
X328670D01*
X324340Y128307D02*
X328670D01*
X323643Y120346D02*
X328367Y120348D01*
X323643Y120346D02*
X328367Y120348D01*
X323643Y125652D02*
X328367Y125654D01*
X323643D02*
X328367D01*
X330336Y120343D02*
Y125657D01*
X328367D02*
X330336D01*
X328367Y120343D02*
Y125657D01*
Y120343D02*
X330336D01*
X321674Y125657D02*
X323643D01*
Y120343D02*
Y125657D01*
X321674Y120343D02*
Y125657D01*
Y120343D02*
X323643D01*
X460143Y98847D02*
X464867Y98848D01*
X460143Y98847D02*
X464867Y98848D01*
X460143Y104152D02*
X464867Y104154D01*
X460143D02*
X464867D01*
X466836Y98843D02*
Y104157D01*
X464867D02*
X466836D01*
X464867Y98843D02*
Y104157D01*
Y98843D02*
X466836D01*
X458174Y104157D02*
X460143D01*
Y98843D02*
Y104157D01*
X458174Y98843D02*
Y104157D01*
Y98843D02*
X460143D01*
X446580Y98847D02*
X451304Y98848D01*
X446580Y98847D02*
X451304Y98848D01*
X446580Y104152D02*
X451304Y104154D01*
X446580D02*
X451304D01*
X453273Y98843D02*
Y104157D01*
X451304D02*
X453273D01*
X451304Y98843D02*
Y104157D01*
Y98843D02*
X453273D01*
X444611Y104157D02*
X446580D01*
Y98843D02*
Y104157D01*
X444611Y98843D02*
Y104157D01*
Y98843D02*
X446580D01*
X336462Y140307D02*
X343548D01*
X336462Y142276D02*
X343548D01*
X336462Y140307D02*
Y142276D01*
X343548Y140307D02*
Y142276D01*
X336462Y153693D02*
X343548D01*
X336462Y151724D02*
X343548D01*
X336462D02*
Y153693D01*
X343548Y151724D02*
Y153693D01*
X336540Y142276D02*
Y151724D01*
X343470Y142276D02*
Y151724D01*
X336887Y156933D02*
X347123D01*
X336887Y146067D02*
X347123D01*
Y145988D02*
Y157012D01*
X349092Y145988D02*
Y157012D01*
X347123D02*
X349092D01*
X347123Y145988D02*
X349092D01*
X334918Y157012D02*
X336887D01*
X334918Y145988D02*
X336887D01*
Y157012D01*
X334918Y145988D02*
Y157012D01*
X340174Y166146D02*
Y171854D01*
X341355Y166146D02*
Y171854D01*
X340174Y166146D02*
X341355D01*
X340174Y171854D02*
X341355D01*
X347655Y166146D02*
X348836D01*
X347655Y171854D02*
X348836D01*
Y166146D02*
Y171854D01*
X347655Y166146D02*
Y171854D01*
X341355Y166224D02*
X347655D01*
X341355Y171776D02*
X347655D01*
X340174Y158646D02*
Y164354D01*
X341355Y158646D02*
Y164354D01*
X340174Y158646D02*
X341355D01*
X340174Y164354D02*
X341355D01*
X347655Y158646D02*
X348836D01*
X347655Y164354D02*
X348836D01*
Y158646D02*
Y164354D01*
X347655Y158646D02*
Y164354D01*
X341355Y158724D02*
X347655D01*
X341355Y164276D02*
X347655D01*
X339698Y236835D02*
Y241165D01*
X336312Y236835D02*
Y241165D01*
X336233Y235653D02*
Y236835D01*
X339777Y235653D02*
Y236835D01*
X336233Y235653D02*
X339777D01*
X336233Y236835D02*
X339777D01*
X336233Y241165D02*
Y242347D01*
Y241165D02*
X339777D01*
Y242347D01*
X336233D02*
X339777D01*
X208859Y322372D02*
Y336628D01*
X211222Y322372D02*
Y336628D01*
X208859D02*
X211222D01*
X208859Y322372D02*
X211222D01*
X225788Y336628D02*
X228151D01*
X225788Y322372D02*
X228151D01*
Y336628D01*
X225788Y322372D02*
Y336628D01*
X211222Y336549D02*
X225788D01*
X211222Y322451D02*
X225788D01*
X208859Y350872D02*
Y365128D01*
X211222Y350872D02*
Y365128D01*
X208859D02*
X211222D01*
X208859Y350872D02*
X211222D01*
X225788Y365128D02*
X228151D01*
X225788Y350872D02*
X228151D01*
Y365128D01*
X225788Y350872D02*
Y365128D01*
X211222Y365049D02*
X225788D01*
X211222Y350951D02*
X225788D01*
X271875Y355055D02*
Y356630D01*
X268135Y355055D02*
X271875D01*
X268135Y356630D02*
X271875D01*
X268135Y355055D02*
Y356630D01*
X271875Y360370D02*
Y361945D01*
X268135Y360370D02*
X271875D01*
X268135D02*
Y361945D01*
X271875D01*
X268139Y356630D02*
Y360370D01*
X268141Y356630D01*
X271869Y360370D02*
X271871Y356630D01*
X271869Y360370D02*
X271871Y356630D01*
X278560Y213130D02*
X280135D01*
X278560D02*
Y216870D01*
X280135Y213130D02*
Y216870D01*
X278560D02*
X280135D01*
X283875Y213130D02*
X285450D01*
X283875D02*
Y216870D01*
X285450D01*
Y213130D02*
Y216870D01*
X280135Y216866D02*
X283875D01*
X280135Y216864D02*
X283875Y216866D01*
X280135Y213134D02*
X283875Y213136D01*
X280135Y213134D02*
X283875Y213136D01*
X304869Y243870D02*
X304871Y240130D01*
X304869Y243870D02*
X304871Y240130D01*
X301139Y243870D02*
X301141Y240130D01*
X301139D02*
Y243870D01*
X301135Y245445D02*
X304875D01*
X301135Y243870D02*
Y245445D01*
Y243870D02*
X304875D01*
Y245445D01*
X301135Y238555D02*
Y240130D01*
X304875D01*
X301135Y238555D02*
X304875D01*
Y240130D01*
X329733Y235653D02*
X333277D01*
X329733D02*
Y236835D01*
X333277D01*
Y235653D02*
Y236835D01*
X329733Y241165D02*
X333277D01*
X329733Y242347D02*
X333277D01*
X329733Y241165D02*
Y242347D01*
X333277Y241165D02*
Y242347D01*
X333198Y236835D02*
Y241165D01*
X329812Y236835D02*
Y241165D01*
X323639Y240870D02*
X323641Y237130D01*
X323639Y240870D02*
X323641Y237130D01*
X327369Y240870D02*
X327371Y237130D01*
Y240870D01*
X323635Y235555D02*
X327375D01*
Y237130D01*
X323635D02*
X327375D01*
X323635Y235555D02*
Y237130D01*
X327375Y240870D02*
Y242445D01*
X323635Y240870D02*
X327375D01*
X323635Y242445D02*
X327375D01*
X323635Y240870D02*
Y242445D01*
X446643Y90346D02*
X451367Y90348D01*
X446643Y90346D02*
X451367Y90348D01*
X446643Y95652D02*
X451367Y95653D01*
X446643D02*
X451367D01*
X453336Y90342D02*
Y95657D01*
X451367D02*
X453336D01*
X451367Y90342D02*
Y95657D01*
Y90342D02*
X453336D01*
X444674Y95657D02*
X446643D01*
Y90342D02*
Y95657D01*
X444674Y90342D02*
Y95657D01*
Y90342D02*
X446643D01*
X460643Y90346D02*
X465367Y90348D01*
X460643Y90346D02*
X465367Y90348D01*
X460643Y95652D02*
X465367Y95653D01*
X460643D02*
X465367D01*
X467336Y90342D02*
Y95657D01*
X465367D02*
X467336D01*
X465367Y90342D02*
Y95657D01*
Y90342D02*
X467336D01*
X458674Y95657D02*
X460643D01*
Y90342D02*
Y95657D01*
X458674Y90342D02*
Y95657D01*
Y90342D02*
X460643D01*
X317139Y246570D02*
X317141Y242830D01*
X317139Y246570D02*
X317141Y242830D01*
X320869Y246570D02*
X320871Y242830D01*
Y246570D01*
X317135Y241255D02*
X320875D01*
Y242830D01*
X317135D02*
X320875D01*
X317135Y241255D02*
Y242830D01*
X320875Y246570D02*
Y248145D01*
X317135Y246570D02*
X320875D01*
X317135Y248145D02*
X320875D01*
X317135Y246570D02*
Y248145D01*
X316312Y155835D02*
Y160165D01*
X319698Y155835D02*
Y160165D01*
X319777D02*
Y161346D01*
X316233Y160165D02*
Y161346D01*
X319777D01*
X316233Y160165D02*
X319777D01*
Y154654D02*
Y155835D01*
X316233D02*
X319777D01*
X316233Y154654D02*
Y155835D01*
Y154654D02*
X319777D01*
X313375Y154555D02*
Y156130D01*
X309635Y154555D02*
X313375D01*
X309635Y156130D02*
X313375D01*
X309635Y154555D02*
Y156130D01*
X313375Y159870D02*
Y161445D01*
X309635Y159870D02*
X313375D01*
X309635D02*
Y161445D01*
X313375D01*
X309639Y156130D02*
Y159870D01*
X309641Y156130D01*
X313369Y159870D02*
X313371Y156130D01*
X313369Y159870D02*
X313371Y156130D01*
X89395Y6513D02*
Y45487D01*
X102603Y32302D02*
X103174D01*
X88807Y46098D02*
Y46669D01*
X102603Y19698D02*
X103174D01*
Y8283D02*
Y43717D01*
X88807Y5331D02*
Y5902D01*
X61836Y38402D02*
X70103Y46669D01*
X76203Y46098D02*
Y46669D01*
X61836Y32302D02*
X62407D01*
X70103Y46669D02*
X100222D01*
X61836Y13598D02*
Y38402D01*
Y19698D02*
X62407D01*
X61836Y13598D02*
X70103Y5331D01*
X76203D02*
Y5902D01*
X70103Y5331D02*
X100222D01*
X103174Y24228D02*
X106127D01*
Y27772D01*
X103174D02*
X106127D01*
X58883Y24228D02*
X61836D01*
X58883Y27772D02*
X61836D01*
X58883Y24228D02*
Y27772D01*
X367869Y148370D02*
X367871Y144630D01*
X367869Y148370D02*
X367871Y144630D01*
X364139Y148370D02*
X364141Y144630D01*
X364139D02*
Y148370D01*
X364135Y149945D02*
X367875D01*
X364135Y148370D02*
Y149945D01*
Y148370D02*
X367875D01*
Y149945D01*
X364135Y143055D02*
Y144630D01*
X367875D01*
X364135Y143055D02*
X367875D01*
Y144630D01*
X359869Y131370D02*
X359871Y127630D01*
X359869Y131370D02*
X359871Y127630D01*
X356139Y131370D02*
X356141Y127630D01*
X356139D02*
Y131370D01*
X356135Y132945D02*
X359875D01*
X356135Y131370D02*
Y132945D01*
Y131370D02*
X359875D01*
Y132945D01*
X356135Y126055D02*
Y127630D01*
X359875D01*
X356135Y126055D02*
X359875D01*
Y127630D01*
X412869Y281870D02*
X412871Y278130D01*
X412869Y281870D02*
X412871Y278130D01*
X409139Y281870D02*
X409141Y278130D01*
X409139D02*
Y281870D01*
X409135Y283445D02*
X412875D01*
X409135Y281870D02*
Y283445D01*
Y281870D02*
X412875D01*
Y283445D01*
X409135Y276555D02*
Y278130D01*
X412875D01*
X409135Y276555D02*
X412875D01*
Y278130D01*
X421135Y285864D02*
X424875Y285866D01*
X421135Y285864D02*
X424875Y285866D01*
X421135Y282134D02*
X424875Y282136D01*
X421135Y282134D02*
X424875D01*
X419560Y282130D02*
Y285870D01*
Y282130D02*
X421135D01*
Y285870D01*
X419560D02*
X421135D01*
X424875Y282130D02*
X426450D01*
X424875D02*
Y285870D01*
X426450Y282130D02*
Y285870D01*
X424875D02*
X426450D01*
X254721Y365951D02*
X269288D01*
X254721Y380049D02*
X269288D01*
Y365872D02*
Y380128D01*
X271651Y365872D02*
Y380128D01*
X269288Y365872D02*
X271651D01*
X269288Y380128D02*
X271651D01*
X252359Y365872D02*
X254721D01*
X252359Y380128D02*
X254721D01*
Y365872D02*
Y380128D01*
X252359Y365872D02*
Y380128D01*
X254721Y336451D02*
X269288D01*
X254721Y350549D02*
X269288D01*
Y336372D02*
Y350628D01*
X271651Y336372D02*
Y350628D01*
X269288Y336372D02*
X271651D01*
X269288Y350628D02*
X271651D01*
X252359Y336372D02*
X254721D01*
X252359Y350628D02*
X254721D01*
Y336372D02*
Y350628D01*
X252359Y336372D02*
Y350628D01*
X279158Y194728D02*
Y198272D01*
X280340D01*
Y194728D02*
Y198272D01*
X279158Y194728D02*
X280340D01*
X284670D02*
Y198272D01*
X285852Y194728D02*
Y198272D01*
X284670D02*
X285852D01*
X284670Y194728D02*
X285852D01*
X280340Y194807D02*
X284670D01*
X280340Y198193D02*
X284670D01*
X280635Y205364D02*
X284375Y205366D01*
X280635Y205364D02*
X284375Y205366D01*
X280635Y201634D02*
X284375Y201636D01*
X280635Y201634D02*
X284375D01*
X279060Y201630D02*
Y205370D01*
Y201630D02*
X280635D01*
Y205370D01*
X279060D02*
X280635D01*
X284375Y201630D02*
X285950D01*
X284375D02*
Y205370D01*
X285950Y201630D02*
Y205370D01*
X284375D02*
X285950D01*
X293635Y194634D02*
X297375Y194636D01*
X293635Y194634D02*
X297375Y194636D01*
X293635Y198364D02*
X297375Y198366D01*
X293635D02*
X297375D01*
X298950Y194630D02*
Y198370D01*
X297375D02*
X298950D01*
X297375Y194630D02*
Y198370D01*
Y194630D02*
X298950D01*
X292060Y198370D02*
X293635D01*
Y194630D02*
Y198370D01*
X292060Y194630D02*
Y198370D01*
Y194630D02*
X293635D01*
X392135Y298364D02*
X395875Y298366D01*
X392135Y298364D02*
X395875Y298366D01*
X392135Y294634D02*
X395875Y294636D01*
X392135Y294634D02*
X395875D01*
X390560Y294630D02*
Y298370D01*
Y294630D02*
X392135D01*
Y298370D01*
X390560D02*
X392135D01*
X395875Y294630D02*
X397450D01*
X395875D02*
Y298370D01*
X397450Y294630D02*
Y298370D01*
X395875D02*
X397450D01*
X388233Y290347D02*
X391777D01*
Y289165D02*
Y290347D01*
X388233Y289165D02*
X391777D01*
X388233D02*
Y290347D01*
Y284835D02*
X391777D01*
X388233Y283653D02*
X391777D01*
Y284835D01*
X388233Y283653D02*
Y284835D01*
X388312D02*
Y289165D01*
X391698Y284835D02*
Y289165D01*
X396233Y290347D02*
X399777D01*
Y289165D02*
Y290347D01*
X396233Y289165D02*
X399777D01*
X396233D02*
Y290347D01*
Y284835D02*
X399777D01*
X396233Y283653D02*
X399777D01*
Y284835D01*
X396233Y283653D02*
Y284835D01*
X396312D02*
Y289165D01*
X399698Y284835D02*
Y289165D01*
D125*
X411320Y126858D02*
Y188551D01*
X450690D01*
Y126858D02*
Y188551D01*
X411320Y126858D02*
X450690D01*
X460820Y145359D02*
Y207051D01*
X500190D01*
Y145359D02*
Y207051D01*
X460820Y145359D02*
X500190D01*
M02*
