G04 Layer_Color=8421504*
<<<<<<< HEAD
%FSLAX25Y25*%
=======
%FSLAX24Y24*%
>>>>>>> origin/master
%MOIN*%
G70*
G01*
G75*
<<<<<<< HEAD
%ADD12R,0.13780X0.07087*%
%ADD13O,0.02362X0.06299*%
G04:AMPARAMS|DCode=14|XSize=51.18mil|YSize=31.5mil|CornerRadius=3.94mil|HoleSize=0mil|Usage=FLASHONLY|Rotation=0.000|XOffset=0mil|YOffset=0mil|HoleType=Round|Shape=RoundedRectangle|*
%AMROUNDEDRECTD14*
21,1,0.05118,0.02362,0,0,0.0*
21,1,0.04331,0.03150,0,0,0.0*
1,1,0.00787,0.02165,-0.01181*
1,1,0.00787,-0.02165,-0.01181*
1,1,0.00787,-0.02165,0.01181*
1,1,0.00787,0.02165,0.01181*
%
%ADD14ROUNDEDRECTD14*%
G04:AMPARAMS|DCode=15|XSize=70.87mil|YSize=45.28mil|CornerRadius=5.66mil|HoleSize=0mil|Usage=FLASHONLY|Rotation=270.000|XOffset=0mil|YOffset=0mil|HoleType=Round|Shape=RoundedRectangle|*
%AMROUNDEDRECTD15*
21,1,0.07087,0.03396,0,0,270.0*
21,1,0.05955,0.04528,0,0,270.0*
1,1,0.01132,-0.01698,-0.02977*
1,1,0.01132,-0.01698,0.02977*
1,1,0.01132,0.01698,0.02977*
1,1,0.01132,0.01698,-0.02977*
%
%ADD15ROUNDEDRECTD15*%
G04:AMPARAMS|DCode=16|XSize=86.61mil|YSize=59.05mil|CornerRadius=7.38mil|HoleSize=0mil|Usage=FLASHONLY|Rotation=0.000|XOffset=0mil|YOffset=0mil|HoleType=Round|Shape=RoundedRectangle|*
%AMROUNDEDRECTD16*
21,1,0.08661,0.04429,0,0,0.0*
21,1,0.07185,0.05905,0,0,0.0*
1,1,0.01476,0.03592,-0.02215*
1,1,0.01476,-0.03592,-0.02215*
1,1,0.01476,-0.03592,0.02215*
1,1,0.01476,0.03592,0.02215*
%
%ADD16ROUNDEDRECTD16*%
%ADD17O,0.02362X0.07480*%
%ADD18R,0.07087X0.13780*%
G04:AMPARAMS|DCode=19|XSize=23.62mil|YSize=27.56mil|CornerRadius=2.95mil|HoleSize=0mil|Usage=FLASHONLY|Rotation=90.000|XOffset=0mil|YOffset=0mil|HoleType=Round|Shape=RoundedRectangle|*
%AMROUNDEDRECTD19*
21,1,0.02362,0.02165,0,0,90.0*
21,1,0.01772,0.02756,0,0,90.0*
1,1,0.00591,0.01083,0.00886*
1,1,0.00591,0.01083,-0.00886*
1,1,0.00591,-0.01083,-0.00886*
1,1,0.00591,-0.01083,0.00886*
%
%ADD19ROUNDEDRECTD19*%
G04:AMPARAMS|DCode=20|XSize=39.37mil|YSize=35.43mil|CornerRadius=4.43mil|HoleSize=0mil|Usage=FLASHONLY|Rotation=90.000|XOffset=0mil|YOffset=0mil|HoleType=Round|Shape=RoundedRectangle|*
%AMROUNDEDRECTD20*
21,1,0.03937,0.02657,0,0,90.0*
21,1,0.03051,0.03543,0,0,90.0*
1,1,0.00886,0.01329,0.01526*
1,1,0.00886,0.01329,-0.01526*
1,1,0.00886,-0.01329,-0.01526*
1,1,0.00886,-0.01329,0.01526*
%
%ADD20ROUNDEDRECTD20*%
%ADD21R,0.07874X0.07480*%
%ADD22R,0.05118X0.07480*%
G04:AMPARAMS|DCode=23|XSize=39.37mil|YSize=35.43mil|CornerRadius=4.43mil|HoleSize=0mil|Usage=FLASHONLY|Rotation=0.000|XOffset=0mil|YOffset=0mil|HoleType=Round|Shape=RoundedRectangle|*
%AMROUNDEDRECTD23*
21,1,0.03937,0.02657,0,0,0.0*
21,1,0.03051,0.03543,0,0,0.0*
1,1,0.00886,0.01526,-0.01329*
1,1,0.00886,-0.01526,-0.01329*
1,1,0.00886,-0.01526,0.01329*
1,1,0.00886,0.01526,0.01329*
%
%ADD23ROUNDEDRECTD23*%
G04:AMPARAMS|DCode=24|XSize=51.18mil|YSize=31.5mil|CornerRadius=3.94mil|HoleSize=0mil|Usage=FLASHONLY|Rotation=90.000|XOffset=0mil|YOffset=0mil|HoleType=Round|Shape=RoundedRectangle|*
%AMROUNDEDRECTD24*
21,1,0.05118,0.02362,0,0,90.0*
21,1,0.04331,0.03150,0,0,90.0*
1,1,0.00787,0.01181,0.02165*
1,1,0.00787,0.01181,-0.02165*
1,1,0.00787,-0.01181,-0.02165*
1,1,0.00787,-0.01181,0.02165*
%
%ADD24ROUNDEDRECTD24*%
G04:AMPARAMS|DCode=25|XSize=70.87mil|YSize=45.28mil|CornerRadius=5.66mil|HoleSize=0mil|Usage=FLASHONLY|Rotation=180.000|XOffset=0mil|YOffset=0mil|HoleType=Round|Shape=RoundedRectangle|*
%AMROUNDEDRECTD25*
21,1,0.07087,0.03396,0,0,180.0*
21,1,0.05955,0.04528,0,0,180.0*
1,1,0.01132,-0.02977,0.01698*
1,1,0.01132,0.02977,0.01698*
1,1,0.01132,0.02977,-0.01698*
1,1,0.01132,-0.02977,-0.01698*
%
%ADD25ROUNDEDRECTD25*%
%ADD26R,0.04882X0.07441*%
%ADD27R,0.04724X0.13386*%
G04:AMPARAMS|DCode=28|XSize=330mil|YSize=420mil|CornerRadius=41.25mil|HoleSize=0mil|Usage=FLASHONLY|Rotation=90.000|XOffset=0mil|YOffset=0mil|HoleType=Round|Shape=RoundedRectangle|*
%AMROUNDEDRECTD28*
21,1,0.33000,0.33750,0,0,90.0*
21,1,0.24750,0.42000,0,0,90.0*
1,1,0.08250,0.16875,0.12375*
1,1,0.08250,0.16875,-0.12375*
1,1,0.08250,-0.16875,-0.12375*
1,1,0.08250,-0.16875,0.12375*
=======
%ADD12R,0.1378X0.0709*%
%ADD13O,0.0236X0.0630*%
G04:AMPARAMS|DCode=14|XSize=51.2mil|YSize=31.5mil|CornerRadius=3.9mil|HoleSize=0mil|Usage=FLASHONLY|Rotation=0.000|XOffset=0mil|YOffset=0mil|HoleType=Round|Shape=RoundedRectangle|*
%AMROUNDEDRECTD14*
21,1,0.0512,0.0236,0,0,0.0*
21,1,0.0433,0.0315,0,0,0.0*
1,1,0.0079,0.0217,-0.0118*
1,1,0.0079,-0.0217,-0.0118*
1,1,0.0079,-0.0217,0.0118*
1,1,0.0079,0.0217,0.0118*
%
%ADD14ROUNDEDRECTD14*%
G04:AMPARAMS|DCode=15|XSize=70.9mil|YSize=45.3mil|CornerRadius=5.7mil|HoleSize=0mil|Usage=FLASHONLY|Rotation=270.000|XOffset=0mil|YOffset=0mil|HoleType=Round|Shape=RoundedRectangle|*
%AMROUNDEDRECTD15*
21,1,0.0709,0.0340,0,0,270.0*
21,1,0.0595,0.0453,0,0,270.0*
1,1,0.0113,-0.0170,-0.0298*
1,1,0.0113,-0.0170,0.0298*
1,1,0.0113,0.0170,0.0298*
1,1,0.0113,0.0170,-0.0298*
%
%ADD15ROUNDEDRECTD15*%
G04:AMPARAMS|DCode=16|XSize=86.6mil|YSize=59.1mil|CornerRadius=7.4mil|HoleSize=0mil|Usage=FLASHONLY|Rotation=0.000|XOffset=0mil|YOffset=0mil|HoleType=Round|Shape=RoundedRectangle|*
%AMROUNDEDRECTD16*
21,1,0.0866,0.0443,0,0,0.0*
21,1,0.0719,0.0591,0,0,0.0*
1,1,0.0148,0.0359,-0.0221*
1,1,0.0148,-0.0359,-0.0221*
1,1,0.0148,-0.0359,0.0221*
1,1,0.0148,0.0359,0.0221*
%
%ADD16ROUNDEDRECTD16*%
%ADD17O,0.0236X0.0748*%
%ADD18R,0.0709X0.1378*%
G04:AMPARAMS|DCode=19|XSize=23.6mil|YSize=27.6mil|CornerRadius=3mil|HoleSize=0mil|Usage=FLASHONLY|Rotation=90.000|XOffset=0mil|YOffset=0mil|HoleType=Round|Shape=RoundedRectangle|*
%AMROUNDEDRECTD19*
21,1,0.0236,0.0217,0,0,90.0*
21,1,0.0177,0.0276,0,0,90.0*
1,1,0.0059,0.0108,0.0089*
1,1,0.0059,0.0108,-0.0089*
1,1,0.0059,-0.0108,-0.0089*
1,1,0.0059,-0.0108,0.0089*
%
%ADD19ROUNDEDRECTD19*%
G04:AMPARAMS|DCode=20|XSize=39.4mil|YSize=35.4mil|CornerRadius=4.4mil|HoleSize=0mil|Usage=FLASHONLY|Rotation=90.000|XOffset=0mil|YOffset=0mil|HoleType=Round|Shape=RoundedRectangle|*
%AMROUNDEDRECTD20*
21,1,0.0394,0.0266,0,0,90.0*
21,1,0.0305,0.0354,0,0,90.0*
1,1,0.0089,0.0133,0.0153*
1,1,0.0089,0.0133,-0.0153*
1,1,0.0089,-0.0133,-0.0153*
1,1,0.0089,-0.0133,0.0153*
%
%ADD20ROUNDEDRECTD20*%
%ADD21R,0.0787X0.0748*%
%ADD22R,0.0512X0.0748*%
G04:AMPARAMS|DCode=23|XSize=39.4mil|YSize=35.4mil|CornerRadius=4.4mil|HoleSize=0mil|Usage=FLASHONLY|Rotation=0.000|XOffset=0mil|YOffset=0mil|HoleType=Round|Shape=RoundedRectangle|*
%AMROUNDEDRECTD23*
21,1,0.0394,0.0266,0,0,0.0*
21,1,0.0305,0.0354,0,0,0.0*
1,1,0.0089,0.0153,-0.0133*
1,1,0.0089,-0.0153,-0.0133*
1,1,0.0089,-0.0153,0.0133*
1,1,0.0089,0.0153,0.0133*
%
%ADD23ROUNDEDRECTD23*%
G04:AMPARAMS|DCode=24|XSize=51.2mil|YSize=31.5mil|CornerRadius=3.9mil|HoleSize=0mil|Usage=FLASHONLY|Rotation=90.000|XOffset=0mil|YOffset=0mil|HoleType=Round|Shape=RoundedRectangle|*
%AMROUNDEDRECTD24*
21,1,0.0512,0.0236,0,0,90.0*
21,1,0.0433,0.0315,0,0,90.0*
1,1,0.0079,0.0118,0.0217*
1,1,0.0079,0.0118,-0.0217*
1,1,0.0079,-0.0118,-0.0217*
1,1,0.0079,-0.0118,0.0217*
%
%ADD24ROUNDEDRECTD24*%
G04:AMPARAMS|DCode=25|XSize=70.9mil|YSize=45.3mil|CornerRadius=5.7mil|HoleSize=0mil|Usage=FLASHONLY|Rotation=180.000|XOffset=0mil|YOffset=0mil|HoleType=Round|Shape=RoundedRectangle|*
%AMROUNDEDRECTD25*
21,1,0.0709,0.0340,0,0,180.0*
21,1,0.0595,0.0453,0,0,180.0*
1,1,0.0113,-0.0298,0.0170*
1,1,0.0113,0.0298,0.0170*
1,1,0.0113,0.0298,-0.0170*
1,1,0.0113,-0.0298,-0.0170*
%
%ADD25ROUNDEDRECTD25*%
%ADD26R,0.0488X0.0744*%
%ADD27R,0.0472X0.1339*%
G04:AMPARAMS|DCode=28|XSize=330mil|YSize=420mil|CornerRadius=41.3mil|HoleSize=0mil|Usage=FLASHONLY|Rotation=90.000|XOffset=0mil|YOffset=0mil|HoleType=Round|Shape=RoundedRectangle|*
%AMROUNDEDRECTD28*
21,1,0.3300,0.3375,0,0,90.0*
21,1,0.2475,0.4200,0,0,90.0*
1,1,0.0825,0.1688,0.1238*
1,1,0.0825,0.1688,-0.1238*
1,1,0.0825,-0.1688,-0.1238*
1,1,0.0825,-0.1688,0.1238*
>>>>>>> origin/master
%
%ADD28ROUNDEDRECTD28*%
G04:AMPARAMS|DCode=29|XSize=120mil|YSize=40mil|CornerRadius=5mil|HoleSize=0mil|Usage=FLASHONLY|Rotation=90.000|XOffset=0mil|YOffset=0mil|HoleType=Round|Shape=RoundedRectangle|*
%AMROUNDEDRECTD29*
<<<<<<< HEAD
21,1,0.12000,0.03000,0,0,90.0*
21,1,0.11000,0.04000,0,0,90.0*
1,1,0.01000,0.01500,0.05500*
1,1,0.01000,0.01500,-0.05500*
1,1,0.01000,-0.01500,-0.05500*
1,1,0.01000,-0.01500,0.05500*
%
%ADD29ROUNDEDRECTD29*%
G04:AMPARAMS|DCode=30|XSize=137.8mil|YSize=55.12mil|CornerRadius=6.89mil|HoleSize=0mil|Usage=FLASHONLY|Rotation=270.000|XOffset=0mil|YOffset=0mil|HoleType=Round|Shape=RoundedRectangle|*
%AMROUNDEDRECTD30*
21,1,0.13780,0.04134,0,0,270.0*
21,1,0.12402,0.05512,0,0,270.0*
1,1,0.01378,-0.02067,-0.06201*
1,1,0.01378,-0.02067,0.06201*
1,1,0.01378,0.02067,0.06201*
1,1,0.01378,0.02067,-0.06201*
%
%ADD30ROUNDEDRECTD30*%
G04:AMPARAMS|DCode=31|XSize=78.74mil|YSize=161.42mil|CornerRadius=9.84mil|HoleSize=0mil|Usage=FLASHONLY|Rotation=270.000|XOffset=0mil|YOffset=0mil|HoleType=Round|Shape=RoundedRectangle|*
%AMROUNDEDRECTD31*
21,1,0.07874,0.14173,0,0,270.0*
21,1,0.05905,0.16142,0,0,270.0*
1,1,0.01968,-0.07087,-0.02953*
1,1,0.01968,-0.07087,0.02953*
1,1,0.01968,0.07087,0.02953*
1,1,0.01968,0.07087,-0.02953*
%
%ADD31ROUNDEDRECTD31*%
G04:AMPARAMS|DCode=32|XSize=62.99mil|YSize=47.24mil|CornerRadius=11.81mil|HoleSize=0mil|Usage=FLASHONLY|Rotation=90.000|XOffset=0mil|YOffset=0mil|HoleType=Round|Shape=RoundedRectangle|*
%AMROUNDEDRECTD32*
21,1,0.06299,0.02362,0,0,90.0*
21,1,0.03937,0.04724,0,0,90.0*
1,1,0.02362,0.01181,0.01968*
1,1,0.02362,0.01181,-0.01968*
1,1,0.02362,-0.01181,-0.01968*
1,1,0.02362,-0.01181,0.01968*
%
%ADD32ROUNDEDRECTD32*%
G04:AMPARAMS|DCode=33|XSize=118.11mil|YSize=98.42mil|CornerRadius=24.61mil|HoleSize=0mil|Usage=FLASHONLY|Rotation=90.000|XOffset=0mil|YOffset=0mil|HoleType=Round|Shape=RoundedRectangle|*
%AMROUNDEDRECTD33*
21,1,0.11811,0.04921,0,0,90.0*
21,1,0.06890,0.09842,0,0,90.0*
1,1,0.04921,0.02461,0.03445*
1,1,0.04921,0.02461,-0.03445*
1,1,0.04921,-0.02461,-0.03445*
1,1,0.04921,-0.02461,0.03445*
%
%ADD33ROUNDEDRECTD33*%
%ADD34R,0.05276X0.03937*%
%ADD35R,0.03937X0.05276*%
G04:AMPARAMS|DCode=36|XSize=122.05mil|YSize=118.11mil|CornerRadius=29.53mil|HoleSize=0mil|Usage=FLASHONLY|Rotation=180.000|XOffset=0mil|YOffset=0mil|HoleType=Round|Shape=RoundedRectangle|*
%AMROUNDEDRECTD36*
21,1,0.12205,0.05905,0,0,180.0*
21,1,0.06299,0.11811,0,0,180.0*
1,1,0.05905,-0.03150,0.02953*
1,1,0.05905,0.03150,0.02953*
1,1,0.05905,0.03150,-0.02953*
1,1,0.05905,-0.03150,-0.02953*
%
%ADD36ROUNDEDRECTD36*%
D12*
X578405Y341500D02*
D03*
X472605Y276600D02*
D03*
X321305Y279400D02*
D03*
X290505Y121000D02*
D03*
X309005Y137000D02*
D03*
X285505Y166000D02*
D03*
X385505Y208500D02*
D03*
X407505Y110500D02*
D03*
X385505Y188000D02*
D03*
X533505Y289000D02*
D03*
D13*
X236505Y283130D02*
D03*
X231505D02*
D03*
X226505D02*
D03*
X221505D02*
D03*
X236505Y261870D02*
D03*
X231505D02*
D03*
X226505D02*
D03*
X221505D02*
D03*
D14*
X449458Y296898D02*
D03*
Y289024D02*
D03*
X441458Y296835D02*
D03*
Y288961D02*
D03*
X226505Y376437D02*
D03*
Y368563D02*
D03*
Y347937D02*
D03*
Y340063D02*
D03*
D15*
X512911Y274500D02*
D03*
X501099D02*
D03*
D16*
X384273Y243500D02*
D03*
X367737D02*
D03*
X374470Y169500D02*
D03*
X391005D02*
D03*
D17*
X353005Y216701D02*
D03*
X348005D02*
D03*
X343005D02*
D03*
X338005D02*
D03*
X333005D02*
D03*
X328005D02*
D03*
X323005D02*
D03*
X318005D02*
D03*
X313005D02*
D03*
X308005D02*
D03*
X353005Y179299D02*
D03*
X348005D02*
D03*
X343005D02*
D03*
X338005D02*
D03*
X333005D02*
D03*
X328005D02*
D03*
X323005D02*
D03*
X318005D02*
D03*
X313005D02*
D03*
X308005D02*
D03*
D18*
X249005Y291000D02*
D03*
X284005Y312500D02*
D03*
X270005Y294500D02*
D03*
X315505Y337000D02*
D03*
X365659Y271500D02*
D03*
X223505Y66500D02*
D03*
D19*
X259005Y190000D02*
D03*
Y180157D02*
D03*
D20*
X243059Y180200D02*
D03*
X249751D02*
D03*
X258852Y196500D02*
D03*
X252159D02*
D03*
X233505Y318000D02*
D03*
X226812D02*
D03*
X292159Y203500D02*
D03*
X298851D02*
D03*
X329852Y130000D02*
D03*
X323159D02*
D03*
X285351Y215000D02*
D03*
X278659D02*
D03*
X426351Y284000D02*
D03*
X419659D02*
D03*
X279159Y196500D02*
D03*
X285852D02*
D03*
Y203500D02*
D03*
X279159D02*
D03*
X292159Y196500D02*
D03*
X298851D02*
D03*
X397352Y296500D02*
D03*
X390659D02*
D03*
D21*
X241505Y228500D02*
D03*
D22*
X236505Y248500D02*
D03*
X246505D02*
D03*
D23*
X243005Y269654D02*
D03*
Y276346D02*
D03*
X291005Y238653D02*
D03*
Y245346D02*
D03*
X297005D02*
D03*
Y238653D02*
D03*
X377505Y225000D02*
D03*
Y231693D02*
D03*
X370505Y225153D02*
D03*
Y231846D02*
D03*
X338005Y235653D02*
D03*
Y242347D02*
D03*
X270005Y361846D02*
D03*
Y355153D02*
D03*
X303005Y238653D02*
D03*
Y245346D02*
D03*
X331505Y235653D02*
D03*
Y242347D02*
D03*
X325505D02*
D03*
Y235653D02*
D03*
X319005Y248046D02*
D03*
Y241354D02*
D03*
X318005Y161346D02*
D03*
Y154654D02*
D03*
X311505Y161346D02*
D03*
Y154654D02*
D03*
X366005Y143154D02*
D03*
Y149846D02*
D03*
X358005Y126154D02*
D03*
Y132846D02*
D03*
X411005Y276654D02*
D03*
Y283347D02*
D03*
X390005Y290347D02*
D03*
Y283653D02*
D03*
X398005Y290347D02*
D03*
Y283653D02*
D03*
D24*
X283942Y406000D02*
D03*
X276068D02*
D03*
X269879Y385500D02*
D03*
X262005D02*
D03*
X265942Y406000D02*
D03*
X258068D02*
D03*
X253942Y385500D02*
D03*
X246068D02*
D03*
X329942Y123000D02*
D03*
X322068D02*
D03*
X466442Y101500D02*
D03*
X458568D02*
D03*
X452879D02*
D03*
X445005D02*
D03*
X452942Y93000D02*
D03*
X445068D02*
D03*
X466942D02*
D03*
X459068D02*
D03*
D25*
X311005Y248905D02*
D03*
Y237094D02*
D03*
X340005Y141095D02*
D03*
Y152905D02*
D03*
D26*
X413036Y243000D02*
D03*
X396973D02*
D03*
D27*
X345005Y85551D02*
D03*
Y104449D02*
D03*
X317005Y86051D02*
D03*
Y104949D02*
D03*
D28*
X431005Y140750D02*
D03*
X480505Y159250D02*
D03*
D29*
X421005Y185250D02*
D03*
X441005D02*
D03*
X470505Y203750D02*
D03*
X490505D02*
D03*
D30*
X210434Y329500D02*
D03*
X226576D02*
D03*
X210434Y358000D02*
D03*
X226576D02*
D03*
X270076Y373000D02*
D03*
X253934D02*
D03*
X270076Y343500D02*
D03*
X253934D02*
D03*
D31*
X99631Y26000D02*
D03*
X65379D02*
D03*
D32*
X485721Y226327D02*
D03*
X493005D02*
D03*
X500288D02*
D03*
Y254673D02*
D03*
X493005D02*
D03*
X485721D02*
D03*
D33*
X482769Y240500D02*
D03*
X503241D02*
D03*
D34*
X417796Y276500D02*
D03*
X429214D02*
D03*
X457088Y296500D02*
D03*
X468505D02*
D03*
D35*
X366005Y136209D02*
D03*
Y124791D02*
D03*
D36*
X440505Y203768D02*
D03*
Y237232D02*
=======
21,1,0.1200,0.0300,0,0,90.0*
21,1,0.1100,0.0400,0,0,90.0*
1,1,0.0100,0.0150,0.0550*
1,1,0.0100,0.0150,-0.0550*
1,1,0.0100,-0.0150,-0.0550*
1,1,0.0100,-0.0150,0.0550*
%
%ADD29ROUNDEDRECTD29*%
G04:AMPARAMS|DCode=30|XSize=137.8mil|YSize=55.1mil|CornerRadius=6.9mil|HoleSize=0mil|Usage=FLASHONLY|Rotation=270.000|XOffset=0mil|YOffset=0mil|HoleType=Round|Shape=RoundedRectangle|*
%AMROUNDEDRECTD30*
21,1,0.1378,0.0413,0,0,270.0*
21,1,0.1240,0.0551,0,0,270.0*
1,1,0.0138,-0.0207,-0.0620*
1,1,0.0138,-0.0207,0.0620*
1,1,0.0138,0.0207,0.0620*
1,1,0.0138,0.0207,-0.0620*
%
%ADD30ROUNDEDRECTD30*%
G04:AMPARAMS|DCode=31|XSize=78.7mil|YSize=161.4mil|CornerRadius=9.8mil|HoleSize=0mil|Usage=FLASHONLY|Rotation=270.000|XOffset=0mil|YOffset=0mil|HoleType=Round|Shape=RoundedRectangle|*
%AMROUNDEDRECTD31*
21,1,0.0787,0.1417,0,0,270.0*
21,1,0.0591,0.1614,0,0,270.0*
1,1,0.0197,-0.0709,-0.0295*
1,1,0.0197,-0.0709,0.0295*
1,1,0.0197,0.0709,0.0295*
1,1,0.0197,0.0709,-0.0295*
%
%ADD31ROUNDEDRECTD31*%
G04:AMPARAMS|DCode=32|XSize=63mil|YSize=47.2mil|CornerRadius=11.8mil|HoleSize=0mil|Usage=FLASHONLY|Rotation=90.000|XOffset=0mil|YOffset=0mil|HoleType=Round|Shape=RoundedRectangle|*
%AMROUNDEDRECTD32*
21,1,0.0630,0.0236,0,0,90.0*
21,1,0.0394,0.0472,0,0,90.0*
1,1,0.0236,0.0118,0.0197*
1,1,0.0236,0.0118,-0.0197*
1,1,0.0236,-0.0118,-0.0197*
1,1,0.0236,-0.0118,0.0197*
%
%ADD32ROUNDEDRECTD32*%
G04:AMPARAMS|DCode=33|XSize=118.1mil|YSize=98.4mil|CornerRadius=24.6mil|HoleSize=0mil|Usage=FLASHONLY|Rotation=90.000|XOffset=0mil|YOffset=0mil|HoleType=Round|Shape=RoundedRectangle|*
%AMROUNDEDRECTD33*
21,1,0.1181,0.0492,0,0,90.0*
21,1,0.0689,0.0984,0,0,90.0*
1,1,0.0492,0.0246,0.0344*
1,1,0.0492,0.0246,-0.0344*
1,1,0.0492,-0.0246,-0.0344*
1,1,0.0492,-0.0246,0.0344*
%
%ADD33ROUNDEDRECTD33*%
%ADD34R,0.0528X0.0394*%
%ADD35R,0.0394X0.0528*%
G04:AMPARAMS|DCode=36|XSize=122mil|YSize=118.1mil|CornerRadius=29.5mil|HoleSize=0mil|Usage=FLASHONLY|Rotation=180.000|XOffset=0mil|YOffset=0mil|HoleType=Round|Shape=RoundedRectangle|*
%AMROUNDEDRECTD36*
21,1,0.1220,0.0591,0,0,180.0*
21,1,0.0630,0.1181,0,0,180.0*
1,1,0.0591,-0.0315,0.0295*
1,1,0.0591,0.0315,0.0295*
1,1,0.0591,0.0315,-0.0295*
1,1,0.0591,-0.0315,-0.0295*
%
%ADD36ROUNDEDRECTD36*%
D12*
X57840Y34150D02*
D03*
X47260Y27660D02*
D03*
X32130Y27940D02*
D03*
X29051Y12100D02*
D03*
X30900Y13700D02*
D03*
X28551Y16600D02*
D03*
X38551Y20850D02*
D03*
X40750Y11050D02*
D03*
X38551Y18800D02*
D03*
X53351Y28900D02*
D03*
D13*
X23651Y28313D02*
D03*
X23150D02*
D03*
X22650D02*
D03*
X22150D02*
D03*
X23651Y26187D02*
D03*
X23150D02*
D03*
X22650D02*
D03*
X22150D02*
D03*
D14*
X44946Y29690D02*
D03*
Y28902D02*
D03*
X44146Y29683D02*
D03*
Y28896D02*
D03*
X22650Y37644D02*
D03*
Y36856D02*
D03*
Y34794D02*
D03*
Y34006D02*
D03*
D15*
X51291Y27450D02*
D03*
X50110D02*
D03*
D16*
X38427Y24350D02*
D03*
X36774D02*
D03*
X37447Y16950D02*
D03*
X39100D02*
D03*
D17*
X35301Y21670D02*
D03*
X34801D02*
D03*
X34300D02*
D03*
X33800D02*
D03*
X33300D02*
D03*
X32801D02*
D03*
X32301D02*
D03*
X31800D02*
D03*
X31300D02*
D03*
X30800D02*
D03*
X35301Y17930D02*
D03*
X34801D02*
D03*
X34300D02*
D03*
X33800D02*
D03*
X33300D02*
D03*
X32801D02*
D03*
X32301D02*
D03*
X31800D02*
D03*
X31300D02*
D03*
X30800D02*
D03*
D18*
X24901Y29100D02*
D03*
X28400Y31250D02*
D03*
X27001Y29450D02*
D03*
X31551Y33700D02*
D03*
X36566Y27150D02*
D03*
X22350Y6650D02*
D03*
D19*
X25900Y19000D02*
D03*
Y18016D02*
D03*
D20*
X24306Y18020D02*
D03*
X24975D02*
D03*
X25885Y19650D02*
D03*
X25216D02*
D03*
X23351Y31800D02*
D03*
X22681D02*
D03*
X29216Y20350D02*
D03*
X29885D02*
D03*
X32985Y13000D02*
D03*
X32316D02*
D03*
X28535Y21500D02*
D03*
X27866D02*
D03*
X42635Y28400D02*
D03*
X41966D02*
D03*
X27916Y19650D02*
D03*
X28585D02*
D03*
Y20350D02*
D03*
X27916D02*
D03*
X29216Y19650D02*
D03*
X29885D02*
D03*
X39735Y29650D02*
D03*
X39066D02*
D03*
D21*
X24151Y22850D02*
D03*
D22*
X23651Y24850D02*
D03*
X24650D02*
D03*
D23*
X24300Y26965D02*
D03*
Y27635D02*
D03*
X29100Y23865D02*
D03*
Y24535D02*
D03*
X29701D02*
D03*
Y23865D02*
D03*
X37750Y22500D02*
D03*
Y23169D02*
D03*
X37050Y22515D02*
D03*
Y23185D02*
D03*
X33800Y23565D02*
D03*
Y24235D02*
D03*
X27001Y36185D02*
D03*
Y35515D02*
D03*
X30301Y23865D02*
D03*
Y24535D02*
D03*
X33150Y23565D02*
D03*
Y24235D02*
D03*
X32550D02*
D03*
Y23565D02*
D03*
X31900Y24805D02*
D03*
Y24135D02*
D03*
X31800Y16135D02*
D03*
Y15465D02*
D03*
X31151Y16135D02*
D03*
Y15465D02*
D03*
X36600Y14315D02*
D03*
Y14985D02*
D03*
X35800Y12615D02*
D03*
Y13285D02*
D03*
X41101Y27665D02*
D03*
Y28335D02*
D03*
X39000Y29035D02*
D03*
Y28365D02*
D03*
X39801Y29035D02*
D03*
Y28365D02*
D03*
D24*
X28394Y40600D02*
D03*
X27607D02*
D03*
X26988Y38550D02*
D03*
X26200D02*
D03*
X26594Y40600D02*
D03*
X25807D02*
D03*
X25394Y38550D02*
D03*
X24607D02*
D03*
X32994Y12300D02*
D03*
X32207D02*
D03*
X46644Y10150D02*
D03*
X45857D02*
D03*
X45288D02*
D03*
X44500D02*
D03*
X45294Y9300D02*
D03*
X44507D02*
D03*
X46694D02*
D03*
X45907D02*
D03*
D25*
X31100Y24891D02*
D03*
Y23709D02*
D03*
X34000Y14109D02*
D03*
Y15291D02*
D03*
D26*
X41304Y24300D02*
D03*
X39697D02*
D03*
D27*
X34501Y8555D02*
D03*
Y10445D02*
D03*
X31700Y8605D02*
D03*
Y10495D02*
D03*
D28*
X43101Y14075D02*
D03*
X48050Y15925D02*
D03*
D29*
X42101Y18525D02*
D03*
X44100D02*
D03*
X47050Y20375D02*
D03*
X49050D02*
D03*
D30*
X21043Y32950D02*
D03*
X22658D02*
D03*
X21043Y35800D02*
D03*
X22658D02*
D03*
X27008Y37300D02*
D03*
X25393D02*
D03*
X27008Y34350D02*
D03*
X25393D02*
D03*
D31*
X9963Y2600D02*
D03*
X6538D02*
D03*
D32*
X48572Y22633D02*
D03*
X49300D02*
D03*
X50029D02*
D03*
Y25467D02*
D03*
X49300D02*
D03*
X48572D02*
D03*
D33*
X48277Y24050D02*
D03*
X50324D02*
D03*
D34*
X41780Y27650D02*
D03*
X42921D02*
D03*
X45709Y29650D02*
D03*
X46851D02*
D03*
D35*
X36600Y13621D02*
D03*
Y12479D02*
D03*
D36*
X44050Y20377D02*
D03*
Y23723D02*
>>>>>>> origin/master
D03*
M02*
