M48
;Layer_Color=9474304
;FILE_FORMAT=2:5
INCH
;TYPE=PLATED
T1F00S00C0.02000
T2F00S00C0.02800
T3F00S00C0.03000
T4F00S00C0.03500
T5F00S00C0.03543
T6F00S00C0.03937
T7F00S00C0.05000
T8F00S00C0.05118
T9F00S00C0.05315
T10F00S00C0.06000
T11F00S00C0.07874
T12F00S00C0.08000
T13F00S00C0.09843
T14F00S00C0.10512
T15F00S00C0.17717
;TYPE=NON_PLATED
T16F00S00C0.17717
%
T01
X0320492Y0137300
X0385154Y0096600
X0404826Y0105100
X0405400Y0161600
X0410200Y0165800
X0439700Y0129432
X0294500Y0132800
X0294508Y0137300
X0294700Y0142000
X0278600Y0150500
X0269900Y0150300
X0269200Y0185400
X0278200Y0187400
X0294253Y0185105
Y0179105
X0288100Y0173000
X0284200
X0260600Y0176800
X0250200Y0175900
X0211300Y0193600
X0206700Y0193700
X0202100Y0193800
X0202000Y0221900
X0206702Y0222000
X0211400Y0222200
X0294553Y0215500
X0292900Y0202600
Y0198600
X0270553Y0266600
X0272600Y0273000
X0272534Y0277800
X0272700Y0282500
X0357462Y0286122
X0365462
X0377958Y0287761
X0385958Y0287824
X0412827Y0288983
X0406900Y0256368
X0407453Y0231200
X0407305Y0206395
X0401900Y0206400
X0395400
X0388200Y0211557
X0380500Y0211657
X0373143
X0377646Y0201500
X0378343Y0194500
X0375346Y0186100
X0375346Y0179900
X0405200Y0172900
X0410900Y0173400
X0338500Y0180700
X0347700Y0195700
X0350200Y0229100
X0354400Y0229200
X0359500
X0361600Y0232900
X0374500Y0230300
X0346000Y0232900
X0341200Y0238400
X0333300Y0238800
X0333900Y0232900
X0447500Y0349805
T02
X0132600Y0344500
T03
X0472900Y0124300
X0449600Y0279100
X0415800Y0251100
X0206100Y0402100
X0214700Y0411800
X0197900Y0412400
X0206100Y0421000
X0138800Y0341200
X0140000Y0334900
X0124900Y0335400
T04
X0354900Y0116800
Y0136800
X0364900Y0126800
X0262200Y0232600
X0248000Y0231800
X0328700Y0250000
X0342000
X0360600Y0240600
X0369700Y0235700
T05
X0167400Y0386400
X0174880Y0415928
T06
X0206000Y0351879
Y0411721
X0132300Y0396121
Y0336279
T07
X0497000Y0104300
Y0114300
Y0124300
X0499700Y0147400
Y0167400
X0499674Y0188700
Y0208700
X0499774Y0300626
Y0320626
T08
X0147220Y0024800
X0184700
X0222180
X0143521Y0064906
X0052970
X0019505Y0309000
X0098245
X0264800Y0320500
X0404800
Y0340500
Y0360500
Y0380500
Y0400500
Y0420500
Y0440500
Y0460500
X0264800
Y0440500
Y0420500
Y0400500
Y0380500
Y0360500
Y0340500
X0034505Y0351020
Y0388500
Y0425980
X0264800Y0480500
X0404800
T09
X0160472Y0463700
X0190000
X0219528
X0121102
T10
X0082900Y0342800
Y0482800
T11
X0317500Y0026215
Y0065585
X0407600Y0065085
Y0025715
X0244600Y0081700
Y0121070
X0494100Y0378900
Y0418270
T12
X0499374Y0232626
Y0254026
Y0275426
T13
X0131780Y0485810
X0214220
T14
X0523574Y0064954
Y0344246
T15
X0515950Y0025000
X0025005
X0515950Y0475500
X0025005
T16
X0216900Y0290400
M30
