M48
;Layer_Color=9474304
;FILE_FORMAT=2:4
INCH
;TYPE=PLATED
T1F00S00C0.0200
T2F00S00C0.0280
T3F00S00C0.0300
T4F00S00C0.0350
T5F00S00C0.0354
T6F00S00C0.0394
T7F00S00C0.0512
T8F00S00C0.0531
T9F00S00C0.0600
T10F00S00C0.0787
T11F00S00C0.0800
T12F00S00C0.1772
;TYPE=NON_PLATED
T13F00S00C0.0500
%
T01
X034791Y015150
X034801Y016150
Y016900
T02
X033851Y011500
X033900Y012300
X034000Y013450
X035501Y011950
X035350Y011250
X030001Y018250
X030101Y021350
X023661Y018020
X032301Y018800
X031151Y020250
X032650Y022950
X035401Y023850
X036051Y023700
X036440Y022720
X035900Y021450
X035951Y020550
X036151Y019950
X034850Y019600
X035301Y019100
X038651Y023400
X039697Y023403
X039400Y027750
X038751
X044146Y028255
X044946Y028245
T03
X031711Y007030
Y007590
X034501Y007570
Y007010
X031541Y012300
X031771Y013000
X031800Y014900
X031151Y014870
X011300Y002600
X009963Y001863
Y003457
X023540Y021230
X024560
X027271Y021500
X028951Y025200
X029701Y025590
X022150Y025360
X022301Y027500
X023970Y031800
X031100Y025790
X031900Y025580
X033800Y024990
X036774Y025387
X035621Y022210
X034960Y022500
X040001Y016950
X049351Y026080
X050029Y026072
X050632
X050110Y026759
X049481Y027450
X050110Y028119
T04
X020291Y032950
X020250Y035800
X024611Y034350
X024581Y037300
T05
X019902Y039947
X020650Y042900
T06
X033227Y044300
X022401
X017851Y042200
X007024
T07
X033149Y003300
X029400
X025652
X014352Y006491
X005297
X001951Y030900
X009825
X037601Y032100
X051600
Y034100
Y036100
Y038100
Y040100
Y042100
Y044100
Y046100
X049151Y044750
Y042750
Y040750
Y038750
Y036750
Y034750
Y032750
X040150
Y034750
Y036750
Y038750
Y040750
Y042750
Y044750
X037601Y044100
Y042100
Y040100
Y038100
Y036100
Y034100
Y046100
X003451Y042598
Y038850
Y035102
X037601Y048100
X051600
T08
X022513Y048550
X026451
X029403
X032356
T09
X020401Y047300
X006400
T10
X049601Y002513
Y006450
X053413Y011650
X057351
X040601Y006437
Y002500
X053450Y020550
X057388
T11
X040300Y026050
X042441
X044580
T12
X057501Y002500
X023851Y014310
X002501Y002500
X057501Y047550
X031381Y037940
X002501Y047550
T13
X038400Y013050
Y014050
Y015050
X055950Y028950
Y030950
M30
