G04 Layer_Color=8388736*
%FSLAX25Y25*%
%MOIN*%
G70*
G01*
G75*
G04:AMPARAMS|DCode=87|XSize=63.12mil|YSize=47.37mil|CornerRadius=8.92mil|HoleSize=0mil|Usage=FLASHONLY|Rotation=90.000|XOffset=0mil|YOffset=0mil|HoleType=Round|Shape=RoundedRectangle|*
%AMROUNDEDRECTD87*
21,1,0.06312,0.02953,0,0,90.0*
21,1,0.04528,0.04737,0,0,90.0*
1,1,0.01784,0.01476,0.02264*
1,1,0.01784,0.01476,-0.02264*
1,1,0.01784,-0.01476,-0.02264*
1,1,0.01784,-0.01476,0.02264*
%
%ADD87ROUNDEDRECTD87*%
%ADD88R,0.07887X0.14579*%
G04:AMPARAMS|DCode=89|XSize=59.18mil|YSize=39.5mil|CornerRadius=7.94mil|HoleSize=0mil|Usage=FLASHONLY|Rotation=0.000|XOffset=0mil|YOffset=0mil|HoleType=Round|Shape=RoundedRectangle|*
%AMROUNDEDRECTD89*
21,1,0.05918,0.02362,0,0,0.0*
21,1,0.04331,0.03950,0,0,0.0*
1,1,0.01587,0.02165,-0.01181*
1,1,0.01587,-0.02165,-0.01181*
1,1,0.01587,-0.02165,0.01181*
1,1,0.01587,0.02165,0.01181*
%
%ADD89ROUNDEDRECTD89*%
G04:AMPARAMS|DCode=90|XSize=78.87mil|YSize=53.28mil|CornerRadius=9.66mil|HoleSize=0mil|Usage=FLASHONLY|Rotation=180.000|XOffset=0mil|YOffset=0mil|HoleType=Round|Shape=RoundedRectangle|*
%AMROUNDEDRECTD90*
21,1,0.07887,0.03396,0,0,180.0*
21,1,0.05955,0.05328,0,0,180.0*
1,1,0.01932,-0.02977,0.01698*
1,1,0.01932,0.02977,0.01698*
1,1,0.01932,0.02977,-0.01698*
1,1,0.01932,-0.02977,-0.01698*
%
%ADD90ROUNDEDRECTD90*%
G04:AMPARAMS|DCode=91|XSize=94.61mil|YSize=67.06mil|CornerRadius=11.38mil|HoleSize=0mil|Usage=FLASHONLY|Rotation=270.000|XOffset=0mil|YOffset=0mil|HoleType=Round|Shape=RoundedRectangle|*
%AMROUNDEDRECTD91*
21,1,0.09461,0.04429,0,0,270.0*
21,1,0.07185,0.06706,0,0,270.0*
1,1,0.02276,-0.02215,-0.03593*
1,1,0.02276,-0.02215,0.03593*
1,1,0.02276,0.02215,0.03593*
1,1,0.02276,0.02215,-0.03593*
%
%ADD91ROUNDEDRECTD91*%
%ADD92O,0.08280X0.03162*%
%ADD93R,0.14579X0.07887*%
G04:AMPARAMS|DCode=94|XSize=59.18mil|YSize=39.5mil|CornerRadius=7.94mil|HoleSize=0mil|Usage=FLASHONLY|Rotation=90.000|XOffset=0mil|YOffset=0mil|HoleType=Round|Shape=RoundedRectangle|*
%AMROUNDEDRECTD94*
21,1,0.05918,0.02362,0,0,90.0*
21,1,0.04331,0.03950,0,0,90.0*
1,1,0.01587,0.01181,0.02165*
1,1,0.01587,0.01181,-0.02165*
1,1,0.01587,-0.01181,-0.02165*
1,1,0.01587,-0.01181,0.02165*
%
%ADD94ROUNDEDRECTD94*%
G04:AMPARAMS|DCode=95|XSize=78.87mil|YSize=53.28mil|CornerRadius=9.66mil|HoleSize=0mil|Usage=FLASHONLY|Rotation=270.000|XOffset=0mil|YOffset=0mil|HoleType=Round|Shape=RoundedRectangle|*
%AMROUNDEDRECTD95*
21,1,0.07887,0.03396,0,0,270.0*
21,1,0.05955,0.05328,0,0,270.0*
1,1,0.01932,-0.01698,-0.02977*
1,1,0.01932,-0.01698,0.02977*
1,1,0.01932,0.01698,0.02977*
1,1,0.01932,0.01698,-0.02977*
%
%ADD95ROUNDEDRECTD95*%
G04:AMPARAMS|DCode=96|XSize=47.37mil|YSize=43.43mil|CornerRadius=8.43mil|HoleSize=0mil|Usage=FLASHONLY|Rotation=270.000|XOffset=0mil|YOffset=0mil|HoleType=Round|Shape=RoundedRectangle|*
%AMROUNDEDRECTD96*
21,1,0.04737,0.02658,0,0,270.0*
21,1,0.03051,0.04343,0,0,270.0*
1,1,0.01686,-0.01329,-0.01526*
1,1,0.01686,-0.01329,0.01526*
1,1,0.01686,0.01329,0.01526*
1,1,0.01686,0.01329,-0.01526*
%
%ADD96ROUNDEDRECTD96*%
G04:AMPARAMS|DCode=97|XSize=47.37mil|YSize=43.43mil|CornerRadius=8.43mil|HoleSize=0mil|Usage=FLASHONLY|Rotation=180.000|XOffset=0mil|YOffset=0mil|HoleType=Round|Shape=RoundedRectangle|*
%AMROUNDEDRECTD97*
21,1,0.04737,0.02658,0,0,180.0*
21,1,0.03051,0.04343,0,0,180.0*
1,1,0.01686,-0.01526,0.01329*
1,1,0.01686,0.01526,0.01329*
1,1,0.01686,0.01526,-0.01329*
1,1,0.01686,-0.01526,-0.01329*
%
%ADD97ROUNDEDRECTD97*%
%ADD98R,0.05682X0.08241*%
%ADD99R,0.14186X0.05524*%
G04:AMPARAMS|DCode=100|XSize=70.99mil|YSize=55.24mil|CornerRadius=15.81mil|HoleSize=0mil|Usage=FLASHONLY|Rotation=180.000|XOffset=0mil|YOffset=0mil|HoleType=Round|Shape=RoundedRectangle|*
%AMROUNDEDRECTD100*
21,1,0.07099,0.02362,0,0,180.0*
21,1,0.03937,0.05524,0,0,180.0*
1,1,0.03162,-0.01969,0.01181*
1,1,0.03162,0.01969,0.01181*
1,1,0.03162,0.01969,-0.01181*
1,1,0.03162,-0.01969,-0.01181*
%
%ADD100ROUNDEDRECTD100*%
G04:AMPARAMS|DCode=101|XSize=126.11mil|YSize=106.42mil|CornerRadius=28.61mil|HoleSize=0mil|Usage=FLASHONLY|Rotation=180.000|XOffset=0mil|YOffset=0mil|HoleType=Round|Shape=RoundedRectangle|*
%AMROUNDEDRECTD101*
21,1,0.12611,0.04921,0,0,180.0*
21,1,0.06890,0.10642,0,0,180.0*
1,1,0.05721,-0.03445,0.02461*
1,1,0.05721,0.03445,0.02461*
1,1,0.05721,0.03445,-0.02461*
1,1,0.05721,-0.03445,-0.02461*
%
%ADD101ROUNDEDRECTD101*%
%ADD102R,0.06076X0.04737*%
%ADD103R,0.04737X0.06076*%
G04:AMPARAMS|DCode=104|XSize=145.79mil|YSize=63.12mil|CornerRadius=10.89mil|HoleSize=0mil|Usage=FLASHONLY|Rotation=270.000|XOffset=0mil|YOffset=0mil|HoleType=Round|Shape=RoundedRectangle|*
%AMROUNDEDRECTD104*
21,1,0.14579,0.04134,0,0,270.0*
21,1,0.12402,0.06312,0,0,270.0*
1,1,0.02178,-0.02067,-0.06201*
1,1,0.02178,-0.02067,0.06201*
1,1,0.02178,0.02067,0.06201*
1,1,0.02178,0.02067,-0.06201*
%
%ADD104ROUNDEDRECTD104*%
G04:AMPARAMS|DCode=105|XSize=130.05mil|YSize=126.11mil|CornerRadius=33.53mil|HoleSize=0mil|Usage=FLASHONLY|Rotation=180.000|XOffset=0mil|YOffset=0mil|HoleType=Round|Shape=RoundedRectangle|*
%AMROUNDEDRECTD105*
21,1,0.13005,0.05906,0,0,180.0*
21,1,0.06299,0.12611,0,0,180.0*
1,1,0.06706,-0.03150,0.02953*
1,1,0.06706,0.03150,0.02953*
1,1,0.06706,0.03150,-0.02953*
1,1,0.06706,-0.03150,-0.02953*
%
%ADD105ROUNDEDRECTD105*%
G04:AMPARAMS|DCode=106|XSize=114.3mil|YSize=53.28mil|CornerRadius=9.66mil|HoleSize=0mil|Usage=FLASHONLY|Rotation=0.000|XOffset=0mil|YOffset=0mil|HoleType=Round|Shape=RoundedRectangle|*
%AMROUNDEDRECTD106*
21,1,0.11430,0.03396,0,0,0.0*
21,1,0.09498,0.05328,0,0,0.0*
1,1,0.01932,0.04749,-0.01698*
1,1,0.01932,-0.04749,-0.01698*
1,1,0.01932,-0.04749,0.01698*
1,1,0.01932,0.04749,0.01698*
%
%ADD106ROUNDEDRECTD106*%
G04:AMPARAMS|DCode=107|XSize=63.12mil|YSize=47.37mil|CornerRadius=8.92mil|HoleSize=0mil|Usage=FLASHONLY|Rotation=0.000|XOffset=0mil|YOffset=0mil|HoleType=Round|Shape=RoundedRectangle|*
%AMROUNDEDRECTD107*
21,1,0.06312,0.02953,0,0,0.0*
21,1,0.04528,0.04737,0,0,0.0*
1,1,0.01784,0.02264,-0.01476*
1,1,0.01784,-0.02264,-0.01476*
1,1,0.01784,-0.02264,0.01476*
1,1,0.01784,0.02264,0.01476*
%
%ADD107ROUNDEDRECTD107*%
G04:AMPARAMS|DCode=108|XSize=51.31mil|YSize=76.9mil|CornerRadius=9.41mil|HoleSize=0mil|Usage=FLASHONLY|Rotation=90.000|XOffset=0mil|YOffset=0mil|HoleType=Round|Shape=RoundedRectangle|*
%AMROUNDEDRECTD108*
21,1,0.05131,0.05807,0,0,90.0*
21,1,0.03248,0.07690,0,0,90.0*
1,1,0.01883,0.02904,0.01624*
1,1,0.01883,0.02904,-0.01624*
1,1,0.01883,-0.02904,-0.01624*
1,1,0.01883,-0.02904,0.01624*
%
%ADD108ROUNDEDRECTD108*%
G04:AMPARAMS|DCode=109|XSize=51.31mil|YSize=76.9mil|CornerRadius=9.41mil|HoleSize=0mil|Usage=FLASHONLY|Rotation=90.000|XOffset=0mil|YOffset=0mil|HoleType=Round|Shape=RoundedRectangle|*
%AMROUNDEDRECTD109*
21,1,0.05131,0.05807,0,0,90.0*
21,1,0.03248,0.07690,0,0,90.0*
1,1,0.01883,0.02904,0.01624*
1,1,0.01883,0.02904,-0.01624*
1,1,0.01883,-0.02904,-0.01624*
1,1,0.01883,-0.02904,0.01624*
%
%ADD109ROUNDEDRECTD109*%
G04:AMPARAMS|DCode=110|XSize=145.79mil|YSize=76.9mil|CornerRadius=12.61mil|HoleSize=0mil|Usage=FLASHONLY|Rotation=90.000|XOffset=0mil|YOffset=0mil|HoleType=Round|Shape=RoundedRectangle|*
%AMROUNDEDRECTD110*
21,1,0.14579,0.05167,0,0,90.0*
21,1,0.12057,0.07690,0,0,90.0*
1,1,0.02522,0.02584,0.06029*
1,1,0.02522,0.02584,-0.06029*
1,1,0.02522,-0.02584,-0.06029*
1,1,0.02522,-0.02584,0.06029*
%
%ADD110ROUNDEDRECTD110*%
%ADD111C,0.18517*%
%ADD112C,0.45370*%
%ADD113C,0.14579*%
%ADD114O,0.16548X0.12611*%
%ADD115O,0.20485X0.14579*%
%ADD116O,0.10800X0.15800*%
%ADD117C,0.08674*%
%ADD118O,0.09800X0.13800*%
%ADD119C,0.13800*%
%ADD120O,0.20485X0.14579*%
%ADD121C,0.12800*%
%ADD122O,0.20485X0.12800*%
%ADD123C,0.08300*%
%ADD124O,0.14579X0.20485*%
%ADD125C,0.28359*%
%ADD126O,0.11800X0.08800*%
%ADD127C,0.05300*%
%ADD128C,0.04300*%
D87*
X371257Y194500D02*
D03*
X378343D02*
D03*
D88*
X475500Y468300D02*
D03*
X421700Y146300D02*
D03*
X457100Y101000D02*
D03*
X446000Y468800D02*
D03*
X85500Y22900D02*
D03*
D89*
X385958Y295698D02*
D03*
Y287824D02*
D03*
X377958Y295635D02*
D03*
Y287761D02*
D03*
D90*
X447500Y337995D02*
D03*
Y349805D02*
D03*
X286100Y173094D02*
D03*
Y184906D02*
D03*
D91*
X406900Y239832D02*
D03*
Y256368D02*
D03*
X439700Y145968D02*
D03*
Y129432D02*
D03*
D92*
X356201Y180700D02*
D03*
Y185700D02*
D03*
Y190700D02*
D03*
Y195700D02*
D03*
Y200700D02*
D03*
Y205700D02*
D03*
Y210700D02*
D03*
Y215700D02*
D03*
Y220700D02*
D03*
Y225700D02*
D03*
X318799Y180700D02*
D03*
Y185700D02*
D03*
Y190700D02*
D03*
Y195700D02*
D03*
Y200700D02*
D03*
Y205700D02*
D03*
Y210700D02*
D03*
Y215700D02*
D03*
Y220700D02*
D03*
Y225700D02*
D03*
D93*
X365700Y261500D02*
D03*
X311000Y160600D02*
D03*
X266700Y256600D02*
D03*
X232300Y161800D02*
D03*
X242300Y246900D02*
D03*
X381800Y118200D02*
D03*
X381700Y150900D02*
D03*
X337200Y286500D02*
D03*
X381700Y135100D02*
D03*
X444700Y176100D02*
D03*
D94*
X277637Y163800D02*
D03*
X269763D02*
D03*
X289237Y290400D02*
D03*
X281363D02*
D03*
X263237Y163800D02*
D03*
X255363D02*
D03*
X274537Y290400D02*
D03*
X266663D02*
D03*
X412700Y105100D02*
D03*
X404826D02*
D03*
X442937D02*
D03*
X435063D02*
D03*
X428879D02*
D03*
X421005D02*
D03*
X428942Y96600D02*
D03*
X421068D02*
D03*
X442942D02*
D03*
X435068D02*
D03*
D95*
X292789Y200700D02*
D03*
X304600D02*
D03*
D96*
X300946Y179105D02*
D03*
X294253D02*
D03*
Y185105D02*
D03*
X300946D02*
D03*
X407453Y224900D02*
D03*
X414147D02*
D03*
X407453Y231200D02*
D03*
X414147D02*
D03*
X370953Y201500D02*
D03*
X377646D02*
D03*
X301247Y215500D02*
D03*
X294553D02*
D03*
X289647Y266600D02*
D03*
X282954D02*
D03*
X277246D02*
D03*
X270553D02*
D03*
X300946Y191105D02*
D03*
X294253D02*
D03*
X385154Y96600D02*
D03*
X391846D02*
D03*
X368653Y186100D02*
D03*
X375346D02*
D03*
X368653Y179900D02*
D03*
X375346D02*
D03*
X391052Y248000D02*
D03*
X384359D02*
D03*
X364809Y298969D02*
D03*
X358116D02*
D03*
D97*
X333800Y165158D02*
D03*
Y171852D02*
D03*
X275100Y216347D02*
D03*
Y209653D02*
D03*
X281700D02*
D03*
Y216347D02*
D03*
X458305Y147054D02*
D03*
Y153746D02*
D03*
X450305Y130053D02*
D03*
Y136747D02*
D03*
X375705Y240653D02*
D03*
Y247346D02*
D03*
X340800Y152158D02*
D03*
Y158852D02*
D03*
X333800D02*
D03*
Y152158D02*
D03*
X340800Y165158D02*
D03*
Y171851D02*
D03*
X357462Y292815D02*
D03*
Y286122D02*
D03*
X365462Y292815D02*
D03*
Y286122D02*
D03*
D98*
X434531Y239100D02*
D03*
X418469D02*
D03*
D99*
X206700Y193700D02*
D03*
X225598D02*
D03*
X206702Y222000D02*
D03*
X225600D02*
D03*
D100*
X441173Y274416D02*
D03*
Y281700D02*
D03*
Y288983D02*
D03*
X412827D02*
D03*
Y281700D02*
D03*
Y274416D02*
D03*
D101*
X427000Y271464D02*
D03*
Y291936D02*
D03*
D102*
X382496Y240500D02*
D03*
X393914D02*
D03*
X393588Y295300D02*
D03*
X405005D02*
D03*
D103*
X458305Y140109D02*
D03*
Y128691D02*
D03*
D104*
X288676Y277800D02*
D03*
X272534D02*
D03*
D105*
X444600Y192168D02*
D03*
Y225632D02*
D03*
D106*
X398700Y206395D02*
D03*
Y218205D02*
D03*
D107*
X380500Y211657D02*
D03*
Y218743D02*
D03*
X388200Y211557D02*
D03*
Y218643D02*
D03*
D108*
X320492Y128245D02*
D03*
D109*
Y137300D02*
D03*
Y146355D02*
D03*
D110*
X294508Y137300D02*
D03*
D111*
X131780Y485810D02*
D03*
X214220D02*
D03*
D112*
X216900Y290400D02*
D03*
X25005Y475500D02*
D03*
X515950D02*
D03*
Y25000D02*
D03*
X25005D02*
D03*
D113*
X244600Y81700D02*
D03*
Y121070D02*
D03*
X407600Y65085D02*
D03*
Y25715D02*
D03*
X494100Y418270D02*
D03*
Y378900D02*
D03*
X317500Y65585D02*
D03*
Y26215D02*
D03*
D114*
X404800Y400500D02*
D03*
X264800Y420500D02*
D03*
Y400500D02*
D03*
Y440500D02*
D03*
Y460500D02*
D03*
Y380500D02*
D03*
Y360500D02*
D03*
Y340500D02*
D03*
Y320500D02*
D03*
X404800D02*
D03*
Y340500D02*
D03*
Y360500D02*
D03*
Y380500D02*
D03*
Y460500D02*
D03*
Y440500D02*
D03*
Y420500D02*
D03*
X264800Y480500D02*
D03*
X404800D02*
D03*
D115*
X34505Y425980D02*
D03*
Y351020D02*
D03*
Y388500D02*
D03*
D116*
X82900Y342800D02*
D03*
Y482800D02*
D03*
D117*
X174880Y415928D02*
D03*
X167400Y386400D02*
D03*
X132300Y396121D02*
D03*
Y336279D02*
D03*
X206000Y411721D02*
D03*
Y351879D02*
D03*
D118*
X121102Y463700D02*
D03*
X160472D02*
D03*
X190000D02*
D03*
X219528D02*
D03*
D119*
X19505Y309000D02*
D03*
X98245D02*
D03*
X52970Y64906D02*
D03*
X143521D02*
D03*
D120*
X499374Y254026D02*
D03*
D121*
Y275426D02*
D03*
D122*
Y232626D02*
D03*
D123*
X354900Y116800D02*
D03*
Y136800D02*
D03*
X364900Y126800D02*
D03*
D124*
X147220Y24800D02*
D03*
X222180D02*
D03*
X184700D02*
D03*
D125*
X523574Y344246D02*
D03*
Y64954D02*
D03*
D126*
X499674Y188700D02*
D03*
Y208700D02*
D03*
X499700Y147400D02*
D03*
Y167400D02*
D03*
X497000Y104300D02*
D03*
Y114300D02*
D03*
Y124300D02*
D03*
X499774Y300626D02*
D03*
Y320626D02*
D03*
D127*
X206100Y421000D02*
D03*
X197900Y412400D02*
D03*
X214700Y411800D02*
D03*
X206100Y402100D02*
D03*
X124900Y335400D02*
D03*
X140000Y334900D02*
D03*
X138800Y341200D02*
D03*
D128*
X294553Y215500D02*
D03*
X350200Y229100D02*
D03*
X354400Y229200D02*
D03*
X359500D02*
D03*
M02*
