G04 Layer_Color=16711935*
<<<<<<< HEAD
%FSLAX25Y25*%
=======
%FSLAX24Y24*%
>>>>>>> origin/master
%MOIN*%
G70*
G01*
G75*
<<<<<<< HEAD
%ADD109C,0.45370*%
%ADD110C,0.14579*%
%ADD111O,0.16548X0.12611*%
%ADD112C,0.08800*%
%ADD113O,0.14579X0.20485*%
%ADD114O,0.20485X0.14579*%
%ADD115O,0.15800X0.10800*%
%ADD116O,0.15800X0.11800*%
%ADD117O,0.09800X0.13800*%
%ADD118C,0.08674*%
%ADD119C,0.13800*%
%ADD120C,0.12800*%
%ADD121O,0.11800X0.08800*%
G04:AMPARAMS|DCode=122|XSize=114.3mil|YSize=53.28mil|CornerRadius=9.66mil|HoleSize=0mil|Usage=FLASHONLY|Rotation=90.000|XOffset=0mil|YOffset=0mil|HoleType=Round|Shape=RoundedRectangle|*
%AMROUNDEDRECTD122*
21,1,0.11430,0.03396,0,0,90.0*
21,1,0.09498,0.05328,0,0,90.0*
1,1,0.01932,0.01698,0.04749*
1,1,0.01932,0.01698,-0.04749*
1,1,0.01932,-0.01698,-0.04749*
1,1,0.01932,-0.01698,0.04749*
%
%ADD122ROUNDEDRECTD122*%
G04:AMPARAMS|DCode=123|XSize=63.12mil|YSize=47.37mil|CornerRadius=8.92mil|HoleSize=0mil|Usage=FLASHONLY|Rotation=90.000|XOffset=0mil|YOffset=0mil|HoleType=Round|Shape=RoundedRectangle|*
%AMROUNDEDRECTD123*
21,1,0.06312,0.02953,0,0,90.0*
21,1,0.04528,0.04737,0,0,90.0*
1,1,0.01784,0.01476,0.02264*
1,1,0.01784,0.01476,-0.02264*
1,1,0.01784,-0.01476,-0.02264*
1,1,0.01784,-0.01476,0.02264*
%
%ADD123ROUNDEDRECTD123*%
D109*
X313805Y379400D02*
D03*
X238505Y143100D02*
D03*
X25005Y475500D02*
D03*
X575005D02*
D03*
Y25000D02*
D03*
X25005D02*
D03*
D110*
X534505Y205500D02*
D03*
X573875D02*
D03*
X496005Y64500D02*
D03*
Y25130D02*
D03*
X534135Y116500D02*
D03*
X573505D02*
D03*
X406005Y64370D02*
D03*
Y25000D02*
D03*
D111*
X516005Y401000D02*
D03*
X376005Y421000D02*
D03*
Y401000D02*
D03*
Y441000D02*
D03*
Y461000D02*
D03*
Y381000D02*
D03*
Y361000D02*
D03*
Y341000D02*
D03*
Y321000D02*
D03*
X516005D02*
D03*
Y341000D02*
D03*
Y361000D02*
D03*
Y381000D02*
D03*
Y461000D02*
D03*
Y441000D02*
D03*
Y421000D02*
D03*
X376005Y481000D02*
D03*
X516005D02*
D03*
D112*
X384005Y150500D02*
D03*
Y140500D02*
D03*
Y130500D02*
D03*
D113*
X256525Y33000D02*
D03*
X331485D02*
D03*
X294005D02*
D03*
D114*
X34505Y425980D02*
D03*
Y351020D02*
D03*
Y388500D02*
D03*
D115*
X64005Y473000D02*
D03*
X204005D02*
D03*
D116*
X491505Y387500D02*
D03*
X401505D02*
D03*
Y407500D02*
D03*
Y427500D02*
D03*
Y447500D02*
D03*
Y367500D02*
D03*
Y347500D02*
D03*
Y327500D02*
D03*
X491505Y367500D02*
D03*
Y347500D02*
D03*
Y327500D02*
D03*
Y407500D02*
D03*
Y427500D02*
D03*
Y447500D02*
D03*
D117*
X70237Y422000D02*
D03*
X178505D02*
D03*
X225135Y485500D02*
D03*
X264505D02*
D03*
X294033D02*
D03*
X323560D02*
D03*
X332273Y443000D02*
D03*
X224005D02*
D03*
D118*
X206505Y429000D02*
D03*
X199025Y399472D02*
D03*
D119*
X19505Y309000D02*
D03*
X98245D02*
D03*
X52970Y64906D02*
D03*
X143521D02*
D03*
D120*
X424405Y260500D02*
D03*
X445805D02*
D03*
X403005D02*
D03*
D121*
X559505Y309500D02*
D03*
Y289500D02*
D03*
D122*
X336100Y151500D02*
D03*
X347910D02*
D03*
D123*
X340962Y169000D02*
D03*
X348048D02*
D03*
X340962Y161500D02*
D03*
X348048D02*
=======
%ADD109C,0.4537*%
%ADD110C,0.1458*%
%ADD111O,0.1655X0.1261*%
%ADD112C,0.0880*%
%ADD113O,0.1458X0.2049*%
%ADD114O,0.2049X0.1458*%
%ADD115O,0.1580X0.1080*%
%ADD116O,0.1580X0.1180*%
%ADD117O,0.0980X0.1380*%
%ADD118C,0.0867*%
%ADD119C,0.1380*%
%ADD120C,0.1280*%
%ADD121O,0.1180X0.0880*%
G04:AMPARAMS|DCode=122|XSize=114.3mil|YSize=53.3mil|CornerRadius=9.7mil|HoleSize=0mil|Usage=FLASHONLY|Rotation=90.000|XOffset=0mil|YOffset=0mil|HoleType=Round|Shape=RoundedRectangle|*
%AMROUNDEDRECTD122*
21,1,0.1143,0.0340,0,0,90.0*
21,1,0.0950,0.0533,0,0,90.0*
1,1,0.0193,0.0170,0.0475*
1,1,0.0193,0.0170,-0.0475*
1,1,0.0193,-0.0170,-0.0475*
1,1,0.0193,-0.0170,0.0475*
%
%ADD122ROUNDEDRECTD122*%
G04:AMPARAMS|DCode=123|XSize=63.1mil|YSize=47.4mil|CornerRadius=8.9mil|HoleSize=0mil|Usage=FLASHONLY|Rotation=90.000|XOffset=0mil|YOffset=0mil|HoleType=Round|Shape=RoundedRectangle|*
%AMROUNDEDRECTD123*
21,1,0.0631,0.0295,0,0,90.0*
21,1,0.0453,0.0474,0,0,90.0*
1,1,0.0178,0.0148,0.0226*
1,1,0.0178,0.0148,-0.0226*
1,1,0.0178,-0.0148,-0.0226*
1,1,0.0178,-0.0148,0.0226*
%
%ADD123ROUNDEDRECTD123*%
D109*
X31381Y37940D02*
D03*
X23851Y14310D02*
D03*
X2501Y47550D02*
D03*
X57501D02*
D03*
Y2500D02*
D03*
X2501D02*
D03*
D110*
X53450Y20550D02*
D03*
X57388D02*
D03*
X49601Y6450D02*
D03*
Y2513D02*
D03*
X53413Y11650D02*
D03*
X57351D02*
D03*
X40601Y6437D02*
D03*
Y2500D02*
D03*
D111*
X51600Y40100D02*
D03*
X37601Y42100D02*
D03*
Y40100D02*
D03*
Y44100D02*
D03*
Y46100D02*
D03*
Y38100D02*
D03*
Y36100D02*
D03*
Y34100D02*
D03*
Y32100D02*
D03*
X51600D02*
D03*
Y34100D02*
D03*
Y36100D02*
D03*
Y38100D02*
D03*
Y46100D02*
D03*
Y44100D02*
D03*
Y42100D02*
D03*
X37601Y48100D02*
D03*
X51600D02*
D03*
D112*
X38400Y15050D02*
D03*
Y14050D02*
D03*
Y13050D02*
D03*
D113*
X25652Y3300D02*
D03*
X33149D02*
D03*
X29400D02*
D03*
D114*
X3451Y42598D02*
D03*
Y35102D02*
D03*
Y38850D02*
D03*
D115*
X6400Y47300D02*
D03*
X20401D02*
D03*
D116*
X49151Y38750D02*
D03*
X40150D02*
D03*
Y40750D02*
D03*
Y42750D02*
D03*
Y44750D02*
D03*
Y36750D02*
D03*
Y34750D02*
D03*
Y32750D02*
D03*
X49151Y36750D02*
D03*
Y34750D02*
D03*
Y32750D02*
D03*
Y40750D02*
D03*
Y42750D02*
D03*
Y44750D02*
D03*
D117*
X7024Y42200D02*
D03*
X17851D02*
D03*
X22513Y48550D02*
D03*
X26451D02*
D03*
X29403D02*
D03*
X32356D02*
D03*
X33227Y44300D02*
D03*
X22401D02*
D03*
D118*
X20650Y42900D02*
D03*
X19902Y39947D02*
D03*
D119*
X1951Y30900D02*
D03*
X9825D02*
D03*
X5297Y6491D02*
D03*
X14352D02*
D03*
D120*
X42441Y26050D02*
D03*
X44580D02*
D03*
X40300D02*
D03*
D121*
X55950Y30950D02*
D03*
Y28950D02*
D03*
D122*
X33610Y15150D02*
D03*
X34791D02*
D03*
D123*
X34096Y16900D02*
D03*
X34805D02*
D03*
X34096Y16150D02*
D03*
X34805D02*
>>>>>>> origin/master
D03*
M02*
