M48
;Layer_Color=9474304
<<<<<<< HEAD
;FILE_FORMAT=2:5
INCH,LZ
;TYPE=PLATED
T1F00S00C0.02000
T2F00S00C0.02800
T3F00S00C0.03000
T4F00S00C0.03500
T5F00S00C0.03543
T6F00S00C0.03937
T7F00S00C0.05118
T8F00S00C0.05315
T9F00S00C0.06000
T10F00S00C0.07874
T11F00S00C0.08000
T12F00S00C0.17717
;TYPE=NON_PLATED
T13F00S00C0.05000
%
T01
X034791Y01515
X0348005Y01615
Y0169
X0370505Y0225153
T02
X0338505Y0115
X0339005Y0123
X0340005Y01345
X0355005Y01195
X0353505Y01125
X0300005Y01825
X0301005Y02135
X0236605Y01802
X0323005Y0188
X0311505Y02025
X0326505Y02295
X0354005Y02385
X0360505Y0237
X0364405Y02272
X0359005Y02145
X0359505Y02055
X0361505Y01995
X0348505Y0196
X0353005Y0191
X0386505Y0234
X0396973Y0234032
X0394005Y02775
X0387505
X0441458Y0282547
X0449458Y0282453
T03
X0317105Y00703
Y00759
X0345005Y00757
Y00701
X0315405Y0123
X0317705Y013
X0318005Y0149
X0311505Y01487
X0113005Y0026
X0099631Y0018626
Y0034574
X0235405Y02123
X0245605
X0272705Y0215
X0289505Y0252
X0297005Y02559
X0221505Y02536
X0223005Y0275
X0239705Y0318
X0311005Y02579
X0319005Y02558
X0338005Y02499
X0367737Y0253868
X0356205Y02221
X0349605Y0225
X0400005Y01695
X0493505Y02608
X0500288Y0260717
X0506321
X0501099Y0267595
X0494805Y02745
X0501099Y0281194
T04
X0202905Y03295
X0202505Y0358
X0246105Y03435
X0245805Y0373
T05
X0199025Y0399472
X0206505Y0429
T06
X0332273Y0443
X0224005
X0178505Y0422
X0070237
T07
X0331485Y0033
X0294005
X0256525
X0143521Y0064906
X005297
X0019505Y0309
X0098245
X0376005Y0321
X0516005
Y0341
Y0361
Y0381
Y0401
Y0421
Y0441
Y0461
X0491505Y04475
Y04275
Y04075
Y03875
Y03675
Y03475
Y03275
X0401505
Y03475
Y03675
Y03875
Y04075
Y04275
Y04475
X0376005Y0441
Y0421
Y0401
Y0381
Y0361
Y0341
Y0461
X0034505Y042598
Y03885
Y035102
X0376005Y0481
X0516005
T08
X0225135Y04855
X0264505
X0294033
X032356
T09
X0204005Y0473
X0064005
T10
X0496005Y002513
Y00645
X0534135Y01165
X0573505
X0406005Y006437
Y0025
X0534505Y02055
X0573875
T11
X0403005Y02605
X0424405
X0445805
T12
X0575005Y0025
X0238505Y01431
X0025005Y0025
X0575005Y04755
X0313805Y03794
X0025005Y04755
T13
X0384005Y01305
Y01405
Y01505
X0559505Y02895
Y03095
=======
;FILE_FORMAT=2:4
INCH
;TYPE=PLATED
T1F00S00C0.0200
T2F00S00C0.0280
T3F00S00C0.0300
T4F00S00C0.0350
T5F00S00C0.0354
T6F00S00C0.0394
T7F00S00C0.0512
T8F00S00C0.0531
T9F00S00C0.0600
T10F00S00C0.0787
T11F00S00C0.0800
T12F00S00C0.1772
;TYPE=NON_PLATED
T13F00S00C0.0500
%
T01
X034791Y015150
X034801Y016150
Y016900
T02
X033851Y011500
X033900Y012300
X034000Y013450
X035501Y011950
X035350Y011250
X030001Y018250
X030101Y021350
X023661Y018020
X032301Y018800
X031151Y020250
X032650Y022950
X035401Y023850
X036051Y023700
X036440Y022720
X035900Y021450
X035951Y020550
X036151Y019950
X034850Y019600
X035301Y019100
X038651Y023400
X039697Y023403
X039400Y027750
X038751
X044146Y028255
X044946Y028245
T03
X031711Y007030
Y007590
X034501Y007570
Y007010
X031541Y012300
X031771Y013000
X031800Y014900
X031151Y014870
X011300Y002600
X009963Y001863
Y003457
X023540Y021230
X024560
X027271Y021500
X028951Y025200
X029701Y025590
X022150Y025360
X022301Y027500
X023970Y031800
X031100Y025790
X031900Y025580
X033800Y024990
X036774Y025387
X035621Y022210
X034960Y022500
X040001Y016950
X049351Y026080
X050029Y026072
X050632
X050110Y026759
X049481Y027450
X050110Y028119
T04
X020291Y032950
X020250Y035800
X024611Y034350
X024581Y037300
T05
X019902Y039947
X020650Y042900
T06
X033227Y044300
X022401
X017851Y042200
X007024
T07
X033149Y003300
X029400
X025652
X014352Y006491
X005297
X001951Y030900
X009825
X037601Y032100
X051600
Y034100
Y036100
Y038100
Y040100
Y042100
Y044100
Y046100
X049151Y044750
Y042750
Y040750
Y038750
Y036750
Y034750
Y032750
X040150
Y034750
Y036750
Y038750
Y040750
Y042750
Y044750
X037601Y044100
Y042100
Y040100
Y038100
Y036100
Y034100
Y046100
X003451Y042598
Y038850
Y035102
X037601Y048100
X051600
T08
X022513Y048550
X026451
X029403
X032356
T09
X020401Y047300
X006400
T10
X049601Y002513
Y006450
X053413Y011650
X057351
X040601Y006437
Y002500
X053450Y020550
X057388
T11
X040300Y026050
X042441
X044580
T12
X057501Y002500
X023851Y014310
X002501Y002500
X057501Y047550
X031381Y037940
X002501Y047550
T13
X038400Y013050
Y014050
Y015050
X055950Y028950
Y030950
>>>>>>> origin/master
M30
