G04 Layer_Physical_Order=2*
G04 Layer_Color=16711680*
%FSLAX25Y25*%
%MOIN*%
G70*
G01*
G75*
%ADD10C,0.25000*%
%ADD35C,0.22500*%
%ADD37C,0.02000*%
%ADD38C,0.20000*%
%ADD39C,0.24000*%
%ADD43C,0.03000*%
%ADD44C,0.04000*%
%ADD46C,0.02400*%
%ADD51C,0.17716*%
%ADD52C,0.06000*%
%ADD53C,0.13780*%
%ADD54O,0.15748X0.11811*%
%ADD55O,0.19685X0.13780*%
%ADD56O,0.10000X0.15000*%
%ADD57C,0.07874*%
%ADD58O,0.09000X0.13000*%
%ADD59C,0.13000*%
%ADD60O,0.19685X0.13780*%
%ADD61C,0.12000*%
%ADD62O,0.19685X0.12000*%
%ADD63C,0.07500*%
%ADD64O,0.13780X0.19685*%
%ADD65C,0.27559*%
%ADD66O,0.11000X0.08000*%
%ADD67C,0.04500*%
%ADD68C,0.03500*%
%ADD69C,0.05000*%
%ADD70C,0.05500*%
%ADD71C,0.04000*%
G36*
X225747Y470100D02*
X225747Y470100D01*
X225747Y470100D01*
X226465Y470100D01*
X227894Y469959D01*
X229302Y469679D01*
X230676Y469262D01*
X232002Y468713D01*
X233269Y468036D01*
X234462Y467239D01*
X235572Y466328D01*
X236080Y465820D01*
X242382Y459518D01*
X242382Y459518D01*
X243178Y458721D01*
X244608Y456979D01*
X245860Y455105D01*
X246923Y453118D01*
X247785Y451036D01*
X248439Y448879D01*
X248879Y446668D01*
X249100Y444426D01*
X249100Y443299D01*
X249100Y421000D01*
Y410000D01*
X224300D01*
X224300Y416108D01*
X224300D01*
X224300Y416108D01*
X224286Y416687D01*
X224172Y417841D01*
X223946Y418977D01*
X223609Y420087D01*
X223166Y421158D01*
X222620Y422180D01*
X221976Y423144D01*
X221240Y424040D01*
X220841Y424460D01*
X220841Y424459D01*
X220160Y425140D01*
X218938Y426629D01*
X217868Y428230D01*
X216960Y429928D01*
X216223Y431707D01*
X215664Y433550D01*
X215289Y435439D01*
X215100Y437356D01*
X215100Y438318D01*
X215100Y466300D01*
X219700Y470100D01*
X225747Y470100D01*
D02*
G37*
G36*
X491000Y498461D02*
Y463700D01*
X503900Y450800D01*
X538911Y450800D01*
Y379629D01*
X514600D01*
X514015Y379513D01*
X513518Y379181D01*
X504767Y370429D01*
X486600D01*
X486015Y370313D01*
X485519Y369981D01*
X485187Y369485D01*
X485071Y368900D01*
Y340000D01*
X485187Y339415D01*
X485519Y338919D01*
X487319Y337119D01*
X487547Y336966D01*
X487770Y336807D01*
X488212Y336607D01*
X488236Y336601D01*
X488257Y336587D01*
X488526Y336533D01*
X488793Y336471D01*
X488818Y336475D01*
X488842Y336471D01*
X507066D01*
X509902Y333635D01*
X509648Y333205D01*
X508369Y333573D01*
X505767Y334015D01*
X503341Y334151D01*
X503132Y334168D01*
X499774D01*
X497656Y334001D01*
X495589Y333505D01*
X493626Y332692D01*
X491814Y331581D01*
X490199Y330201D01*
X488819Y328586D01*
X487708Y326774D01*
X486895Y324811D01*
X486399Y322744D01*
X486232Y320626D01*
X486399Y318508D01*
X486895Y316441D01*
X487708Y314478D01*
X488819Y312666D01*
X490199Y311051D01*
X491814Y309670D01*
X493626Y308560D01*
X495589Y307747D01*
X497656Y307251D01*
X499774Y307084D01*
X501665D01*
X502192Y306557D01*
X501959Y306083D01*
X501274Y306173D01*
X498274D01*
X496838Y305984D01*
X495500Y305430D01*
X494351Y304549D01*
X493470Y303400D01*
X492916Y302062D01*
X492727Y300626D01*
X492916Y299190D01*
X493470Y297852D01*
X494351Y296703D01*
X495500Y295822D01*
X496838Y295268D01*
X498274Y295078D01*
X501274D01*
X502710Y295268D01*
X504048Y295822D01*
X505197Y296703D01*
X506078Y297852D01*
X506632Y299190D01*
X506821Y300626D01*
X506731Y301311D01*
X507205Y301544D01*
X509175Y299574D01*
Y259649D01*
X508704Y259480D01*
X508288Y259987D01*
X507010Y261036D01*
X505553Y261815D01*
X503971Y262294D01*
X502327Y262456D01*
X496421D01*
X494777Y262294D01*
X493195Y261815D01*
X491738Y261036D01*
X490460Y259987D01*
X489412Y258710D01*
X488633Y257252D01*
X488153Y255671D01*
X487991Y254026D01*
X488153Y252381D01*
X488633Y250800D01*
X489412Y249342D01*
X490460Y248065D01*
X491738Y247016D01*
X493195Y246237D01*
X494777Y245758D01*
X496421Y245596D01*
X502327D01*
X503971Y245758D01*
X505553Y246237D01*
X507010Y247016D01*
X508288Y248065D01*
X508704Y248572D01*
X509175Y248403D01*
Y212200D01*
X509341Y210082D01*
X509658Y208762D01*
Y195338D01*
X509177Y195202D01*
X509007Y195480D01*
X507831Y196857D01*
X506454Y198032D01*
X504911Y198978D01*
X503239Y199671D01*
X501479Y200094D01*
X499674Y200236D01*
X489600D01*
X487795Y200094D01*
X486035Y199671D01*
X484363Y198978D01*
X482820Y198032D01*
X481443Y196857D01*
X472643Y188057D01*
X471467Y186680D01*
X470522Y185137D01*
X469829Y183465D01*
X469407Y181705D01*
X469264Y179900D01*
Y158800D01*
X469407Y156995D01*
X469829Y155235D01*
X470522Y153563D01*
X471467Y152020D01*
X472643Y150643D01*
X484043Y139243D01*
X485420Y138067D01*
X486963Y137122D01*
X488635Y136429D01*
X490395Y136006D01*
X492200Y135864D01*
X499700D01*
X501505Y136006D01*
X503265Y136429D01*
X504937Y137122D01*
X506480Y138067D01*
X507857Y139243D01*
X509032Y140620D01*
X509177Y140856D01*
X509658Y140720D01*
Y109860D01*
X478425Y78627D01*
X407600D01*
X405482Y78460D01*
X403415Y77964D01*
X401452Y77151D01*
X399640Y76041D01*
X398025Y74660D01*
X396644Y73045D01*
X395534Y71233D01*
X394721Y69270D01*
X394225Y67203D01*
X394058Y65085D01*
X394225Y62967D01*
X394721Y60900D01*
X395534Y58937D01*
X396644Y57125D01*
X398025Y55510D01*
X399640Y54129D01*
X401452Y53019D01*
X403415Y52206D01*
X405482Y51710D01*
X407600Y51543D01*
X484034D01*
X484034Y51543D01*
X486152Y51710D01*
X488218Y52206D01*
X489138Y52587D01*
X489379Y52623D01*
X489766Y52306D01*
X489827Y52155D01*
X489846Y52136D01*
X489856Y52112D01*
X490055Y51925D01*
X490247Y51731D01*
X490271Y51720D01*
X490290Y51702D01*
X490545Y51605D01*
X490797Y51499D01*
X490823Y51499D01*
X490847Y51490D01*
X503769Y49297D01*
X503921Y48821D01*
X491000Y35900D01*
Y2039D01*
X55205D01*
Y30300D01*
X31305Y54200D01*
X2039D01*
Y267834D01*
X16905Y282700D01*
X140918D01*
X262646Y413981D01*
X262831Y413963D01*
X266769D01*
X268044Y414089D01*
X269270Y414461D01*
X270400Y415065D01*
X271391Y415878D01*
X272204Y416868D01*
X272808Y417998D01*
X273180Y419225D01*
X273306Y420500D01*
X273180Y421775D01*
X272808Y423002D01*
X272204Y424132D01*
X272135Y424216D01*
X283618Y436600D01*
X306712Y459693D01*
X316206Y498463D01*
X491000Y498461D01*
D02*
G37*
G36*
X538911Y100857D02*
Y45274D01*
X538529Y44951D01*
X491103Y52998D01*
X491002Y53522D01*
X491993Y54129D01*
X493609Y55510D01*
X532775Y94676D01*
X532775Y94676D01*
X534156Y96292D01*
X534890Y97490D01*
X538449Y101049D01*
X538911Y100857D01*
D02*
G37*
G36*
Y310700D02*
X535000D01*
X533276Y312424D01*
X532646Y313564D01*
X531118Y315716D01*
X529499Y317528D01*
X529363Y317688D01*
X529363Y317688D01*
X529363Y317688D01*
X519778Y327273D01*
X519619Y327409D01*
X517807Y329028D01*
X515654Y330555D01*
X514515Y331185D01*
X507700Y338000D01*
X488842D01*
X488400Y338200D01*
Y338200D01*
X488400Y338200D01*
X486600Y340000D01*
Y368900D01*
X505400D01*
X514600Y378100D01*
X538911D01*
Y310700D01*
D02*
G37*
%LPC*%
G36*
X278200Y189796D02*
X277283Y189614D01*
X276717Y189235D01*
X271200D01*
X270498Y189096D01*
X269902Y188698D01*
X268951Y187747D01*
X268283Y187614D01*
X267506Y187094D01*
X266986Y186317D01*
X266804Y185400D01*
X266986Y184483D01*
X267506Y183706D01*
X268283Y183186D01*
X269200Y183004D01*
X270117Y183186D01*
X270894Y183706D01*
X271414Y184483D01*
X271547Y185151D01*
X271960Y185565D01*
X276717D01*
X277283Y185186D01*
X278200Y185004D01*
X279117Y185186D01*
X279894Y185706D01*
X280414Y186483D01*
X280596Y187400D01*
X280414Y188317D01*
X279894Y189094D01*
X279117Y189614D01*
X278200Y189796D01*
D02*
G37*
G36*
X405200Y175296D02*
X404283Y175114D01*
X403506Y174594D01*
X402986Y173817D01*
X402804Y172900D01*
X402986Y171983D01*
X403506Y171206D01*
X403565Y171166D01*
Y163083D01*
X403186Y162517D01*
X403004Y161600D01*
X403186Y160683D01*
X403706Y159906D01*
X404483Y159386D01*
X405400Y159204D01*
X406317Y159386D01*
X407094Y159906D01*
X407614Y160683D01*
X407796Y161600D01*
X407614Y162517D01*
X407235Y163083D01*
Y171716D01*
X407414Y171983D01*
X407596Y172900D01*
X407414Y173817D01*
X406894Y174594D01*
X406117Y175114D01*
X405200Y175296D01*
D02*
G37*
G36*
X410900Y175796D02*
X409983Y175614D01*
X409206Y175094D01*
X408686Y174317D01*
X408504Y173400D01*
X408606Y172887D01*
X408569Y172700D01*
Y167536D01*
X408506Y167494D01*
X407986Y166717D01*
X407804Y165800D01*
X407986Y164883D01*
X408506Y164106D01*
X409283Y163586D01*
X410200Y163404D01*
X411117Y163586D01*
X411894Y164106D01*
X412414Y164883D01*
X412596Y165800D01*
X412414Y166717D01*
X411894Y167494D01*
X411831Y167536D01*
Y171196D01*
X412594Y171706D01*
X413114Y172483D01*
X413296Y173400D01*
X413114Y174317D01*
X412594Y175094D01*
X411817Y175614D01*
X410900Y175796D01*
D02*
G37*
G36*
X260600Y179196D02*
X259683Y179014D01*
X258906Y178494D01*
X258399Y177735D01*
X251683D01*
X251117Y178114D01*
X250200Y178296D01*
X249283Y178114D01*
X248506Y177594D01*
X247986Y176817D01*
X247804Y175900D01*
X247986Y174983D01*
X248506Y174206D01*
X249283Y173686D01*
X250200Y173504D01*
X251117Y173686D01*
X251683Y174065D01*
X259700D01*
X260402Y174204D01*
X260744Y174433D01*
X261517Y174586D01*
X262294Y175106D01*
X262814Y175883D01*
X262996Y176800D01*
X262814Y177717D01*
X262294Y178494D01*
X261517Y179014D01*
X260600Y179196D01*
D02*
G37*
G36*
X347700Y198096D02*
X346783Y197914D01*
X346006Y197394D01*
X345486Y196617D01*
X345304Y195700D01*
X345319Y195626D01*
X337347Y187654D01*
X336993Y187124D01*
X336869Y186500D01*
Y182436D01*
X336806Y182394D01*
X336286Y181617D01*
X336104Y180700D01*
X336286Y179783D01*
X336806Y179006D01*
X337583Y178486D01*
X338500Y178304D01*
X339417Y178486D01*
X340194Y179006D01*
X340714Y179783D01*
X340896Y180700D01*
X340714Y181617D01*
X340194Y182394D01*
X340131Y182436D01*
Y185824D01*
X347626Y193319D01*
X347700Y193304D01*
X348617Y193486D01*
X349394Y194006D01*
X349914Y194783D01*
X350096Y195700D01*
X349914Y196617D01*
X349394Y197394D01*
X348617Y197914D01*
X347700Y198096D01*
D02*
G37*
G36*
X262200Y235979D02*
X261326Y235864D01*
X260510Y235526D01*
X259811Y234989D01*
X259376Y234422D01*
X250085D01*
X249690Y234726D01*
X248874Y235064D01*
X248000Y235179D01*
X247126Y235064D01*
X246310Y234726D01*
X245611Y234189D01*
X245074Y233489D01*
X244736Y232675D01*
X244621Y231800D01*
X244736Y230925D01*
X245074Y230111D01*
X245611Y229411D01*
X246310Y228874D01*
X247126Y228536D01*
X248000Y228421D01*
X248874Y228536D01*
X249690Y228874D01*
X250085Y229178D01*
X261400D01*
X261400Y229178D01*
X261965Y229252D01*
X262200Y229221D01*
X263074Y229336D01*
X263890Y229674D01*
X264589Y230211D01*
X265126Y230910D01*
X265464Y231726D01*
X265579Y232600D01*
X265464Y233474D01*
X265126Y234290D01*
X264589Y234989D01*
X263890Y235526D01*
X263074Y235864D01*
X262200Y235979D01*
D02*
G37*
G36*
X346000Y235296D02*
X345083Y235114D01*
X344517Y234735D01*
X335383D01*
X334817Y235114D01*
X333900Y235296D01*
X332983Y235114D01*
X332206Y234594D01*
X331686Y233817D01*
X331504Y232900D01*
X331686Y231983D01*
X332206Y231206D01*
X332983Y230686D01*
X333900Y230504D01*
X334817Y230686D01*
X335383Y231065D01*
X344517D01*
X345083Y230686D01*
X346000Y230504D01*
X346917Y230686D01*
X347694Y231206D01*
X348214Y231983D01*
X348396Y232900D01*
X348214Y233817D01*
X347694Y234594D01*
X346917Y235114D01*
X346000Y235296D01*
D02*
G37*
G36*
X501174Y214247D02*
X498174D01*
X496738Y214058D01*
X495400Y213504D01*
X494251Y212623D01*
X493370Y211474D01*
X492816Y210136D01*
X492627Y208700D01*
X492816Y207264D01*
X493370Y205926D01*
X494251Y204777D01*
X495400Y203896D01*
X496738Y203342D01*
X498174Y203152D01*
X501174D01*
X502610Y203342D01*
X503948Y203896D01*
X505097Y204777D01*
X505978Y205926D01*
X506532Y207264D01*
X506721Y208700D01*
X506532Y210136D01*
X505978Y211474D01*
X505097Y212623D01*
X503948Y213504D01*
X502610Y214058D01*
X501174Y214247D01*
D02*
G37*
G36*
X360600Y243979D02*
X359725Y243864D01*
X358910Y243526D01*
X358211Y242989D01*
X357674Y242289D01*
X357336Y241475D01*
X357221Y240600D01*
X357336Y239725D01*
X357674Y238911D01*
X358211Y238211D01*
X358910Y237674D01*
X359725Y237336D01*
X360600Y237221D01*
X361474Y237336D01*
X362290Y237674D01*
X362685Y237978D01*
X363714D01*
X366371Y235320D01*
X366436Y234825D01*
X366774Y234011D01*
X367311Y233311D01*
X368010Y232774D01*
X368345Y232635D01*
X368246Y232135D01*
X364960D01*
X363947Y233149D01*
X363814Y233817D01*
X363294Y234594D01*
X362517Y235114D01*
X361600Y235296D01*
X360683Y235114D01*
X359906Y234594D01*
X359386Y233817D01*
X359204Y232900D01*
X359386Y231983D01*
X359906Y231206D01*
X360683Y230686D01*
X361351Y230554D01*
X362902Y229002D01*
X363498Y228604D01*
X364200Y228465D01*
X373017D01*
X373583Y228086D01*
X374500Y227904D01*
X375417Y228086D01*
X376194Y228606D01*
X376714Y229383D01*
X376896Y230300D01*
X376714Y231217D01*
X376194Y231994D01*
X375417Y232514D01*
X374500Y232696D01*
X373583Y232514D01*
X373017Y232135D01*
X371154D01*
X371055Y232635D01*
X371390Y232774D01*
X372089Y233311D01*
X372626Y234011D01*
X372964Y234825D01*
X373079Y235700D01*
X372964Y236575D01*
X372626Y237389D01*
X372089Y238089D01*
X371390Y238626D01*
X370574Y238964D01*
X370080Y239029D01*
X366654Y242454D01*
X366111Y242871D01*
X365479Y243133D01*
X364800Y243222D01*
X364800Y243222D01*
X362685D01*
X362290Y243526D01*
X361474Y243864D01*
X360600Y243979D01*
D02*
G37*
G36*
X52970Y72040D02*
X51578Y71903D01*
X50239Y71497D01*
X49006Y70837D01*
X47925Y69950D01*
X47038Y68869D01*
X46378Y67636D01*
X45972Y66297D01*
X45835Y64906D01*
X45972Y63514D01*
X46378Y62175D01*
X47038Y60942D01*
X47925Y59861D01*
X49006Y58973D01*
X50239Y58314D01*
X51578Y57908D01*
X52970Y57771D01*
X54361Y57908D01*
X55700Y58314D01*
X56933Y58973D01*
X58014Y59861D01*
X58902Y60942D01*
X59561Y62175D01*
X59967Y63514D01*
X60104Y64906D01*
X59967Y66297D01*
X59561Y67636D01*
X58902Y68869D01*
X58014Y69950D01*
X56933Y70837D01*
X55700Y71497D01*
X54361Y71903D01*
X52970Y72040D01*
D02*
G37*
G36*
X244600Y90130D02*
X242955Y89968D01*
X241374Y89489D01*
X239916Y88710D01*
X238639Y87661D01*
X237590Y86384D01*
X236811Y84926D01*
X236332Y83345D01*
X236170Y81700D01*
X236332Y80055D01*
X236811Y78474D01*
X237590Y77016D01*
X238639Y75739D01*
X239916Y74690D01*
X241374Y73911D01*
X242955Y73432D01*
X244600Y73270D01*
X246245Y73432D01*
X247826Y73911D01*
X249284Y74690D01*
X250561Y75739D01*
X251610Y77016D01*
X252389Y78474D01*
X252868Y80055D01*
X253030Y81700D01*
X252868Y83345D01*
X252389Y84926D01*
X251610Y86384D01*
X250561Y87661D01*
X249284Y88710D01*
X247826Y89489D01*
X246245Y89968D01*
X244600Y90130D01*
D02*
G37*
G36*
X317500Y74015D02*
X315855Y73853D01*
X314274Y73374D01*
X312816Y72595D01*
X311539Y71546D01*
X310490Y70269D01*
X309711Y68811D01*
X309232Y67230D01*
X309070Y65585D01*
X309232Y63940D01*
X309711Y62359D01*
X310490Y60901D01*
X311539Y59624D01*
X312816Y58575D01*
X314274Y57796D01*
X315855Y57317D01*
X317500Y57155D01*
X319145Y57317D01*
X320726Y57796D01*
X322184Y58575D01*
X323461Y59624D01*
X324510Y60901D01*
X325289Y62359D01*
X325768Y63940D01*
X325930Y65585D01*
X325768Y67230D01*
X325289Y68811D01*
X324510Y70269D01*
X323461Y71546D01*
X322184Y72595D01*
X320726Y73374D01*
X319145Y73853D01*
X317500Y74015D01*
D02*
G37*
G36*
X222180Y36183D02*
X220536Y36021D01*
X218954Y35541D01*
X217497Y34762D01*
X216219Y33714D01*
X215171Y32436D01*
X214392Y30979D01*
X213912Y29397D01*
X213750Y27753D01*
Y21847D01*
X213912Y20203D01*
X214392Y18621D01*
X215171Y17164D01*
X216219Y15886D01*
X217497Y14838D01*
X218954Y14059D01*
X220536Y13579D01*
X222180Y13417D01*
X223825Y13579D01*
X225407Y14059D01*
X226864Y14838D01*
X228141Y15886D01*
X229190Y17164D01*
X229969Y18621D01*
X230449Y20203D01*
X230611Y21847D01*
Y27753D01*
X230449Y29397D01*
X229969Y30979D01*
X229190Y32436D01*
X228141Y33714D01*
X226864Y34762D01*
X225407Y35541D01*
X223825Y36021D01*
X222180Y36183D01*
D02*
G37*
G36*
X147220Y35279D02*
X145751Y35134D01*
X144340Y34706D01*
X143038Y34010D01*
X141898Y33075D01*
X140962Y31934D01*
X140267Y30633D01*
X139838Y29221D01*
X139694Y27753D01*
Y21847D01*
X139838Y20379D01*
X140267Y18967D01*
X140962Y17666D01*
X141898Y16526D01*
X143038Y15590D01*
X144340Y14894D01*
X145751Y14466D01*
X147220Y14321D01*
X148688Y14466D01*
X150100Y14894D01*
X151401Y15590D01*
X152541Y16526D01*
X153477Y17666D01*
X154173Y18967D01*
X154601Y20379D01*
X154746Y21847D01*
Y27753D01*
X154601Y29221D01*
X154173Y30633D01*
X153477Y31934D01*
X152541Y33075D01*
X151401Y34010D01*
X150100Y34706D01*
X148688Y35134D01*
X147220Y35279D01*
D02*
G37*
G36*
X354900Y141188D02*
X353764Y141038D01*
X352706Y140600D01*
X351798Y139902D01*
X351100Y138994D01*
X350662Y137936D01*
X350513Y136800D01*
X350662Y135664D01*
X351100Y134606D01*
X351798Y133697D01*
X352706Y133000D01*
X353764Y132562D01*
X354900Y132413D01*
X356036Y132562D01*
X357094Y133000D01*
X358002Y133697D01*
X358700Y134606D01*
X359138Y135664D01*
X359288Y136800D01*
X359138Y137936D01*
X358700Y138994D01*
X358002Y139902D01*
X357094Y140600D01*
X356036Y141038D01*
X354900Y141188D01*
D02*
G37*
G36*
X278600Y152896D02*
X277683Y152714D01*
X277117Y152335D01*
X271084D01*
X270817Y152514D01*
X269900Y152696D01*
X268983Y152514D01*
X268206Y151994D01*
X267686Y151217D01*
X267504Y150300D01*
X267686Y149383D01*
X268206Y148606D01*
X268983Y148086D01*
X269900Y147904D01*
X270817Y148086D01*
X271594Y148606D01*
X271634Y148665D01*
X277117D01*
X277683Y148286D01*
X278600Y148104D01*
X279517Y148286D01*
X280294Y148806D01*
X280814Y149583D01*
X280996Y150500D01*
X280814Y151417D01*
X280294Y152194D01*
X279517Y152714D01*
X278600Y152896D01*
D02*
G37*
G36*
X498500Y128940D02*
X495500D01*
X494299Y128782D01*
X493180Y128318D01*
X492219Y127581D01*
X491482Y126620D01*
X491408Y126441D01*
X475165D01*
X475111Y126511D01*
X474463Y127008D01*
X473709Y127320D01*
X472900Y127427D01*
X472091Y127320D01*
X471337Y127008D01*
X470689Y126511D01*
X470192Y125863D01*
X469880Y125109D01*
X469773Y124300D01*
X469880Y123491D01*
X470192Y122737D01*
X470689Y122089D01*
X471337Y121592D01*
X472091Y121280D01*
X472900Y121173D01*
X473709Y121280D01*
X474463Y121592D01*
X475111Y122089D01*
X475165Y122159D01*
X491408D01*
X491482Y121980D01*
X492219Y121019D01*
X493180Y120282D01*
X494299Y119818D01*
X495500Y119660D01*
X498500D01*
X499701Y119818D01*
X500820Y120282D01*
X501781Y121019D01*
X502518Y121980D01*
X502982Y123099D01*
X503140Y124300D01*
X502982Y125501D01*
X502518Y126620D01*
X501781Y127581D01*
X500820Y128318D01*
X499701Y128782D01*
X498500Y128940D01*
D02*
G37*
G36*
Y118940D02*
X495500D01*
X494299Y118782D01*
X493180Y118318D01*
X492219Y117581D01*
X491482Y116620D01*
X491018Y115501D01*
X490860Y114300D01*
X491018Y113099D01*
X491482Y111980D01*
X492219Y111019D01*
X493180Y110282D01*
X494299Y109818D01*
X495500Y109660D01*
X498500D01*
X499701Y109818D01*
X500820Y110282D01*
X501781Y111019D01*
X502518Y111980D01*
X502982Y113099D01*
X503140Y114300D01*
X502982Y115501D01*
X502518Y116620D01*
X501781Y117581D01*
X500820Y118318D01*
X499701Y118782D01*
X498500Y118940D01*
D02*
G37*
G36*
X364900Y131187D02*
X363764Y131038D01*
X362706Y130600D01*
X361797Y129903D01*
X361100Y128994D01*
X360662Y127936D01*
X360512Y126800D01*
X360662Y125664D01*
X361100Y124606D01*
X361797Y123697D01*
X362706Y123000D01*
X363764Y122562D01*
X364900Y122413D01*
X366036Y122562D01*
X367094Y123000D01*
X368003Y123697D01*
X368700Y124606D01*
X369138Y125664D01*
X369287Y126800D01*
X369138Y127936D01*
X368700Y128994D01*
X368003Y129903D01*
X367094Y130600D01*
X366036Y131038D01*
X364900Y131187D01*
D02*
G37*
G36*
X266769Y407037D02*
X262831D01*
X261556Y406911D01*
X260330Y406539D01*
X259200Y405935D01*
X258209Y405122D01*
X257396Y404132D01*
X256792Y403002D01*
X256420Y401775D01*
X256294Y400500D01*
X256420Y399225D01*
X256792Y397998D01*
X257396Y396868D01*
X258209Y395878D01*
X259200Y395065D01*
X260330Y394461D01*
X261556Y394089D01*
X262831Y393963D01*
X266769D01*
X268044Y394089D01*
X269270Y394461D01*
X270400Y395065D01*
X271391Y395878D01*
X272204Y396868D01*
X272808Y397998D01*
X273180Y399225D01*
X273306Y400500D01*
X273180Y401775D01*
X272808Y403002D01*
X272204Y404132D01*
X271391Y405122D01*
X270400Y405935D01*
X269270Y406539D01*
X268044Y406911D01*
X266769Y407037D01*
D02*
G37*
G36*
X406769D02*
X402832D01*
X401556Y406911D01*
X400330Y406539D01*
X399200Y405935D01*
X398209Y405122D01*
X397396Y404132D01*
X396792Y403002D01*
X396420Y401775D01*
X396294Y400500D01*
X396420Y399225D01*
X396792Y397998D01*
X397396Y396868D01*
X398209Y395878D01*
X399200Y395065D01*
X400330Y394461D01*
X401556Y394089D01*
X402832Y393963D01*
X406769D01*
X408044Y394089D01*
X409270Y394461D01*
X410400Y395065D01*
X411391Y395878D01*
X412204Y396868D01*
X412808Y397998D01*
X413180Y399225D01*
X413306Y400500D01*
X413180Y401775D01*
X412808Y403002D01*
X412204Y404132D01*
X411391Y405122D01*
X410400Y405935D01*
X409270Y406539D01*
X408044Y406911D01*
X406769Y407037D01*
D02*
G37*
G36*
Y387037D02*
X402832D01*
X401556Y386911D01*
X400330Y386539D01*
X399200Y385935D01*
X398209Y385122D01*
X397396Y384132D01*
X396792Y383002D01*
X396420Y381775D01*
X396294Y380500D01*
X396420Y379225D01*
X396792Y377998D01*
X397396Y376868D01*
X398209Y375878D01*
X399200Y375065D01*
X400330Y374461D01*
X401556Y374089D01*
X402832Y373963D01*
X406769D01*
X408044Y374089D01*
X409270Y374461D01*
X410400Y375065D01*
X411391Y375878D01*
X412204Y376868D01*
X412808Y377998D01*
X413180Y379225D01*
X413306Y380500D01*
X413180Y381775D01*
X412808Y383002D01*
X412204Y384132D01*
X411391Y385122D01*
X410400Y385935D01*
X409270Y386539D01*
X408044Y386911D01*
X406769Y387037D01*
D02*
G37*
G36*
Y367037D02*
X402832D01*
X401556Y366911D01*
X400330Y366539D01*
X399200Y365935D01*
X398209Y365122D01*
X397396Y364132D01*
X396792Y363002D01*
X396420Y361775D01*
X396294Y360500D01*
X396420Y359225D01*
X396792Y357998D01*
X397396Y356868D01*
X398209Y355878D01*
X399200Y355065D01*
X400330Y354461D01*
X401556Y354089D01*
X402832Y353963D01*
X406769D01*
X408044Y354089D01*
X409270Y354461D01*
X410400Y355065D01*
X411391Y355878D01*
X412204Y356868D01*
X412808Y357998D01*
X413180Y359225D01*
X413306Y360500D01*
X413180Y361775D01*
X412808Y363002D01*
X412204Y364132D01*
X411391Y365122D01*
X410400Y365935D01*
X409270Y366539D01*
X408044Y366911D01*
X406769Y367037D01*
D02*
G37*
G36*
X266769Y387037D02*
X262831D01*
X261556Y386911D01*
X260330Y386539D01*
X259200Y385935D01*
X258209Y385122D01*
X257396Y384132D01*
X256792Y383002D01*
X256420Y381775D01*
X256294Y380500D01*
X256420Y379225D01*
X256792Y377998D01*
X257396Y376868D01*
X258209Y375878D01*
X259200Y375065D01*
X260330Y374461D01*
X261556Y374089D01*
X262831Y373963D01*
X266769D01*
X268044Y374089D01*
X269270Y374461D01*
X270400Y375065D01*
X271391Y375878D01*
X272204Y376868D01*
X272808Y377998D01*
X273180Y379225D01*
X273306Y380500D01*
X273180Y381775D01*
X272808Y383002D01*
X272204Y384132D01*
X271391Y385122D01*
X270400Y385935D01*
X269270Y386539D01*
X268044Y386911D01*
X266769Y387037D01*
D02*
G37*
G36*
X406769Y467037D02*
X402832D01*
X401556Y466911D01*
X400330Y466539D01*
X399200Y465935D01*
X398209Y465122D01*
X397396Y464132D01*
X396792Y463002D01*
X396420Y461775D01*
X396294Y460500D01*
X396420Y459225D01*
X396792Y457998D01*
X397396Y456868D01*
X398209Y455878D01*
X399200Y455065D01*
X400330Y454461D01*
X401556Y454089D01*
X402832Y453963D01*
X406769D01*
X408044Y454089D01*
X409270Y454461D01*
X410400Y455065D01*
X411391Y455878D01*
X412204Y456868D01*
X412808Y457998D01*
X413180Y459225D01*
X413306Y460500D01*
X413180Y461775D01*
X412808Y463002D01*
X412204Y464132D01*
X411391Y465122D01*
X410400Y465935D01*
X409270Y466539D01*
X408044Y466911D01*
X406769Y467037D01*
D02*
G37*
G36*
Y487037D02*
X402832D01*
X401556Y486911D01*
X400330Y486539D01*
X399200Y485935D01*
X398209Y485122D01*
X397396Y484132D01*
X396792Y483002D01*
X396420Y481775D01*
X396294Y480500D01*
X396420Y479225D01*
X396792Y477998D01*
X397396Y476868D01*
X398209Y475878D01*
X399200Y475065D01*
X400330Y474461D01*
X401556Y474089D01*
X402832Y473963D01*
X406769D01*
X408044Y474089D01*
X409270Y474461D01*
X410400Y475065D01*
X411391Y475878D01*
X412204Y476868D01*
X412808Y477998D01*
X413180Y479225D01*
X413306Y480500D01*
X413180Y481775D01*
X412808Y483002D01*
X412204Y484132D01*
X411391Y485122D01*
X410400Y485935D01*
X409270Y486539D01*
X408044Y486911D01*
X406769Y487037D01*
D02*
G37*
G36*
Y447037D02*
X402832D01*
X401556Y446911D01*
X400330Y446539D01*
X399200Y445935D01*
X398209Y445122D01*
X397396Y444132D01*
X396792Y443002D01*
X396420Y441775D01*
X396294Y440500D01*
X396420Y439225D01*
X396792Y437998D01*
X397396Y436868D01*
X398209Y435878D01*
X399200Y435065D01*
X400330Y434461D01*
X401556Y434089D01*
X402832Y433963D01*
X406769D01*
X408044Y434089D01*
X409270Y434461D01*
X410400Y435065D01*
X411391Y435878D01*
X412204Y436868D01*
X412808Y437998D01*
X413180Y439225D01*
X413306Y440500D01*
X413180Y441775D01*
X412808Y443002D01*
X412204Y444132D01*
X411391Y445122D01*
X410400Y445935D01*
X409270Y446539D01*
X408044Y446911D01*
X406769Y447037D01*
D02*
G37*
G36*
X494100Y426700D02*
X492455Y426538D01*
X490874Y426059D01*
X489416Y425280D01*
X488139Y424231D01*
X487090Y422954D01*
X486311Y421496D01*
X485832Y419915D01*
X485670Y418270D01*
X485832Y416625D01*
X486311Y415044D01*
X487090Y413586D01*
X488139Y412309D01*
X489416Y411261D01*
X490874Y410482D01*
X492455Y410002D01*
X494100Y409840D01*
X495745Y410002D01*
X497326Y410482D01*
X498784Y411261D01*
X500061Y412309D01*
X501110Y413586D01*
X501889Y415044D01*
X502368Y416625D01*
X502530Y418270D01*
X502368Y419915D01*
X501889Y421496D01*
X501110Y422954D01*
X500061Y424231D01*
X498784Y425280D01*
X497326Y426059D01*
X495745Y426538D01*
X494100Y426700D01*
D02*
G37*
G36*
X406769Y427037D02*
X402832D01*
X401556Y426911D01*
X400330Y426539D01*
X399200Y425935D01*
X398209Y425122D01*
X397396Y424132D01*
X396792Y423002D01*
X396420Y421775D01*
X396294Y420500D01*
X396420Y419225D01*
X396792Y417998D01*
X397396Y416868D01*
X398209Y415878D01*
X399200Y415065D01*
X400330Y414461D01*
X401556Y414089D01*
X402832Y413963D01*
X406769D01*
X408044Y414089D01*
X409270Y414461D01*
X410400Y415065D01*
X411391Y415878D01*
X412204Y416868D01*
X412808Y417998D01*
X413180Y419225D01*
X413306Y420500D01*
X413180Y421775D01*
X412808Y423002D01*
X412204Y424132D01*
X411391Y425122D01*
X410400Y425935D01*
X409270Y426539D01*
X408044Y426911D01*
X406769Y427037D01*
D02*
G37*
G36*
X449600Y282227D02*
X448791Y282120D01*
X448037Y281808D01*
X447389Y281311D01*
X446892Y280663D01*
X446580Y279909D01*
X446473Y279100D01*
X446485Y279013D01*
X420713Y253241D01*
X418064D01*
X418011Y253311D01*
X417363Y253808D01*
X416609Y254120D01*
X415800Y254227D01*
X414991Y254120D01*
X414237Y253808D01*
X413589Y253311D01*
X413092Y252663D01*
X412780Y251909D01*
X412673Y251100D01*
X412780Y250291D01*
X413092Y249537D01*
X413589Y248889D01*
X414237Y248392D01*
X414991Y248080D01*
X415800Y247973D01*
X416609Y248080D01*
X417363Y248392D01*
X418011Y248889D01*
X418064Y248959D01*
X421600D01*
X422419Y249122D01*
X423114Y249586D01*
X449513Y275985D01*
X449600Y275973D01*
X450409Y276080D01*
X451163Y276392D01*
X451811Y276889D01*
X452308Y277537D01*
X452620Y278291D01*
X452727Y279100D01*
X452620Y279909D01*
X452308Y280663D01*
X451811Y281311D01*
X451163Y281808D01*
X450409Y282120D01*
X449600Y282227D01*
D02*
G37*
G36*
X266769Y327941D02*
X262831D01*
X261380Y327798D01*
X259984Y327375D01*
X258697Y326687D01*
X257570Y325762D01*
X256644Y324634D01*
X255957Y323348D01*
X255533Y321952D01*
X255390Y320500D01*
X255533Y319048D01*
X255957Y317652D01*
X256644Y316366D01*
X257570Y315238D01*
X258697Y314313D01*
X259984Y313625D01*
X261380Y313202D01*
X262831Y313059D01*
X266769D01*
X268220Y313202D01*
X269616Y313625D01*
X270903Y314313D01*
X272030Y315238D01*
X272956Y316366D01*
X273643Y317652D01*
X274067Y319048D01*
X274210Y320500D01*
X274067Y321952D01*
X273643Y323348D01*
X272956Y324634D01*
X272030Y325762D01*
X270903Y326687D01*
X269616Y327375D01*
X268220Y327798D01*
X266769Y327941D01*
D02*
G37*
G36*
X499374Y282058D02*
X498080Y281930D01*
X496836Y281553D01*
X495689Y280940D01*
X494685Y280116D01*
X493860Y279111D01*
X493247Y277964D01*
X492870Y276720D01*
X492742Y275426D01*
X492870Y274132D01*
X493247Y272888D01*
X493860Y271742D01*
X494685Y270737D01*
X495689Y269912D01*
X496836Y269299D01*
X498080Y268921D01*
X499374Y268794D01*
X500668Y268921D01*
X501912Y269299D01*
X503058Y269912D01*
X504064Y270737D01*
X504888Y271742D01*
X505501Y272888D01*
X505878Y274132D01*
X506006Y275426D01*
X505878Y276720D01*
X505501Y277964D01*
X504888Y279111D01*
X504064Y280116D01*
X503058Y280940D01*
X501912Y281553D01*
X500668Y281930D01*
X499374Y282058D01*
D02*
G37*
G36*
X333300Y241196D02*
X332383Y241014D01*
X331606Y240494D01*
X331086Y239717D01*
X330904Y238800D01*
X331086Y237883D01*
X331606Y237106D01*
X332383Y236586D01*
X333300Y236404D01*
X334217Y236586D01*
X334490Y236769D01*
X339464D01*
X339506Y236706D01*
X340283Y236186D01*
X341200Y236004D01*
X342117Y236186D01*
X342894Y236706D01*
X343414Y237483D01*
X343596Y238400D01*
X343414Y239317D01*
X342894Y240094D01*
X342117Y240614D01*
X341200Y240796D01*
X340283Y240614D01*
X339506Y240094D01*
X339464Y240031D01*
X335304D01*
X334994Y240494D01*
X334217Y241014D01*
X333300Y241196D01*
D02*
G37*
G36*
X342000Y253379D02*
X341125Y253264D01*
X340311Y252926D01*
X339915Y252622D01*
X330785D01*
X330389Y252926D01*
X329574Y253264D01*
X328700Y253379D01*
X327825Y253264D01*
X327010Y252926D01*
X326311Y252389D01*
X325774Y251690D01*
X325436Y250874D01*
X325321Y250000D01*
X325436Y249126D01*
X325774Y248310D01*
X326311Y247611D01*
X327010Y247074D01*
X327825Y246736D01*
X328700Y246621D01*
X329574Y246736D01*
X330389Y247074D01*
X330785Y247378D01*
X339915D01*
X340311Y247074D01*
X341125Y246736D01*
X342000Y246621D01*
X342875Y246736D01*
X343689Y247074D01*
X344389Y247611D01*
X344926Y248310D01*
X345264Y249126D01*
X345379Y250000D01*
X345264Y250874D01*
X344926Y251690D01*
X344389Y252389D01*
X343689Y252926D01*
X342875Y253264D01*
X342000Y253379D01*
D02*
G37*
G36*
X406769Y347037D02*
X402832D01*
X401556Y346911D01*
X400330Y346539D01*
X399200Y345935D01*
X398209Y345122D01*
X397396Y344132D01*
X396792Y343002D01*
X396420Y341775D01*
X396294Y340500D01*
X396420Y339225D01*
X396792Y337998D01*
X397396Y336868D01*
X398209Y335878D01*
X399200Y335065D01*
X400330Y334461D01*
X401556Y334089D01*
X402832Y333963D01*
X406769D01*
X408044Y334089D01*
X409270Y334461D01*
X410400Y335065D01*
X411391Y335878D01*
X412204Y336868D01*
X412808Y337998D01*
X413180Y339225D01*
X413306Y340500D01*
X413180Y341775D01*
X412808Y343002D01*
X412204Y344132D01*
X411391Y345122D01*
X410400Y345935D01*
X409270Y346539D01*
X408044Y346911D01*
X406769Y347037D01*
D02*
G37*
G36*
X266769Y367037D02*
X262831D01*
X261556Y366911D01*
X260330Y366539D01*
X259200Y365935D01*
X258209Y365122D01*
X257396Y364132D01*
X256792Y363002D01*
X256420Y361775D01*
X256294Y360500D01*
X256420Y359225D01*
X256792Y357998D01*
X257396Y356868D01*
X258209Y355878D01*
X259200Y355065D01*
X260330Y354461D01*
X261556Y354089D01*
X262831Y353963D01*
X266769D01*
X268044Y354089D01*
X269270Y354461D01*
X270400Y355065D01*
X271391Y355878D01*
X272204Y356868D01*
X272808Y357998D01*
X273180Y359225D01*
X273306Y360500D01*
X273180Y361775D01*
X272808Y363002D01*
X272204Y364132D01*
X271391Y365122D01*
X270400Y365935D01*
X269270Y366539D01*
X268044Y366911D01*
X266769Y367037D01*
D02*
G37*
G36*
Y347037D02*
X262831D01*
X261556Y346911D01*
X260330Y346539D01*
X259200Y345935D01*
X258209Y345122D01*
X257396Y344132D01*
X256792Y343002D01*
X256420Y341775D01*
X256294Y340500D01*
X256420Y339225D01*
X256792Y337998D01*
X257396Y336868D01*
X258209Y335878D01*
X259200Y335065D01*
X260330Y334461D01*
X261556Y334089D01*
X262831Y333963D01*
X266769D01*
X268044Y334089D01*
X269270Y334461D01*
X270400Y335065D01*
X271391Y335878D01*
X272204Y336868D01*
X272808Y337998D01*
X273180Y339225D01*
X273306Y340500D01*
X273180Y341775D01*
X272808Y343002D01*
X272204Y344132D01*
X271391Y345122D01*
X270400Y345935D01*
X269270Y346539D01*
X268044Y346911D01*
X266769Y347037D01*
D02*
G37*
G36*
X406769Y327941D02*
X402832D01*
X401380Y327798D01*
X399984Y327375D01*
X398697Y326687D01*
X397570Y325762D01*
X396644Y324634D01*
X395957Y323348D01*
X395533Y321952D01*
X395390Y320500D01*
X395533Y319048D01*
X395957Y317652D01*
X396644Y316366D01*
X397570Y315238D01*
X398697Y314313D01*
X399984Y313625D01*
X401380Y313202D01*
X402832Y313059D01*
X406769D01*
X408220Y313202D01*
X409616Y313625D01*
X410903Y314313D01*
X412030Y315238D01*
X412956Y316366D01*
X413643Y317652D01*
X414067Y319048D01*
X414210Y320500D01*
X414067Y321952D01*
X413643Y323348D01*
X412956Y324634D01*
X412030Y325762D01*
X410903Y326687D01*
X409616Y327375D01*
X408220Y327798D01*
X406769Y327941D01*
D02*
G37*
G36*
X218513Y316149D02*
X216047D01*
X216016Y316137D01*
X215984Y316146D01*
X213490Y315901D01*
X213460Y315885D01*
X213427Y315891D01*
X210970Y315403D01*
X210942Y315384D01*
X210908Y315387D01*
X208510Y314660D01*
X208484Y314638D01*
X208450D01*
X206136Y313680D01*
X206112Y313656D01*
X206078Y313652D01*
X203868Y312471D01*
X203847Y312445D01*
X203814Y312438D01*
X201730Y311047D01*
X201712Y311018D01*
X201679Y311009D01*
X199743Y309419D01*
X199727Y309389D01*
X199695Y309376D01*
X197924Y307605D01*
X197911Y307573D01*
X197881Y307557D01*
X196291Y305621D01*
X196282Y305588D01*
X196254Y305570D01*
X194862Y303486D01*
X194855Y303453D01*
X194829Y303432D01*
X193648Y301222D01*
X193644Y301188D01*
X193621Y301164D01*
X192662Y298850D01*
Y298816D01*
X192640Y298790D01*
X191913Y296392D01*
X191916Y296358D01*
X191897Y296330D01*
X191409Y293873D01*
X191415Y293840D01*
X191399Y293810D01*
X191154Y291316D01*
X191164Y291284D01*
X191151Y291253D01*
Y288587D01*
X191164Y288555D01*
X191154Y288523D01*
X191392Y286108D01*
X191408Y286078D01*
X191401Y286045D01*
X191874Y283664D01*
X191893Y283636D01*
X191890Y283603D01*
X192594Y281280D01*
X192616Y281254D01*
Y281220D01*
X193544Y278978D01*
X193569Y278954D01*
X193572Y278921D01*
X194716Y276780D01*
X194742Y276759D01*
X194749Y276726D01*
X196097Y274708D01*
X196125Y274689D01*
X196135Y274657D01*
X197674Y272780D01*
X197704Y272764D01*
X197717Y272733D01*
X199433Y271017D01*
X199464Y271004D01*
X199480Y270974D01*
X201357Y269435D01*
X201389Y269425D01*
X201408Y269397D01*
X203426Y268049D01*
X203459Y268042D01*
X203480Y268016D01*
X205621Y266872D01*
X205654Y266868D01*
X205678Y266845D01*
X207920Y265916D01*
X207954D01*
X207980Y265894D01*
X210303Y265190D01*
X210336Y265193D01*
X210364Y265174D01*
X212745Y264701D01*
X212778Y264707D01*
X212808Y264692D01*
X215223Y264454D01*
X215255Y264463D01*
X215287Y264451D01*
X218513D01*
X218545Y264463D01*
X218577Y264454D01*
X220992Y264692D01*
X221022Y264707D01*
X221055Y264701D01*
X223435Y265174D01*
X223464Y265193D01*
X223497Y265190D01*
X225820Y265894D01*
X225846Y265916D01*
X225880D01*
X228122Y266845D01*
X228146Y266868D01*
X228180Y266872D01*
X230320Y268016D01*
X230341Y268042D01*
X230375Y268049D01*
X232392Y269397D01*
X232411Y269425D01*
X232443Y269435D01*
X234319Y270974D01*
X234335Y271004D01*
X234367Y271017D01*
X236083Y272733D01*
X236096Y272764D01*
X236126Y272780D01*
X237665Y274657D01*
X237675Y274689D01*
X237703Y274708D01*
X239051Y276726D01*
X239058Y276759D01*
X239084Y276780D01*
X240228Y278921D01*
X240231Y278954D01*
X240255Y278978D01*
X241184Y281220D01*
Y281254D01*
X241206Y281280D01*
X241910Y283603D01*
X241907Y283636D01*
X241926Y283664D01*
X242399Y286045D01*
X242392Y286078D01*
X242408Y286108D01*
X242646Y288523D01*
X242636Y288555D01*
X242649Y288587D01*
Y292013D01*
X242636Y292045D01*
X242646Y292077D01*
X242408Y294492D01*
X242392Y294522D01*
X242399Y294555D01*
X241926Y296936D01*
X241907Y296964D01*
X241910Y296997D01*
X241206Y299320D01*
X241184Y299346D01*
Y299380D01*
X240255Y301622D01*
X240231Y301646D01*
X240228Y301679D01*
X239084Y303820D01*
X239058Y303841D01*
X239051Y303874D01*
X237703Y305892D01*
X237675Y305911D01*
X237665Y305943D01*
X236126Y307820D01*
X236096Y307836D01*
X236083Y307867D01*
X234367Y309583D01*
X234335Y309596D01*
X234319Y309626D01*
X232443Y311165D01*
X232411Y311175D01*
X232392Y311203D01*
X230375Y312551D01*
X230341Y312558D01*
X230320Y312584D01*
X228180Y313728D01*
X228146Y313732D01*
X228122Y313755D01*
X225880Y314684D01*
X225846D01*
X225820Y314706D01*
X223497Y315410D01*
X223464Y315407D01*
X223435Y315426D01*
X221055Y315899D01*
X221022Y315893D01*
X220992Y315908D01*
X218577Y316146D01*
X218545Y316137D01*
X218513Y316149D01*
D02*
G37*
%LPD*%
D10*
X98000Y440598D02*
X121102Y463700D01*
X98000Y400885D02*
Y440598D01*
Y400885D02*
X123056Y375829D01*
X144035D01*
X157132Y362731D01*
X206000Y351879D02*
X225879D01*
X157132Y362731D02*
X175331D01*
X206000Y393400D01*
Y411721D01*
X225879Y351879D02*
X236500Y362500D01*
Y446728D01*
D35*
X120221Y336279D02*
X132300D01*
X133700Y436928D02*
X160472Y463700D01*
X133700Y404400D02*
Y436928D01*
X34505Y388500D02*
X68000D01*
X120221Y336279D01*
X145228Y415928D02*
X174880D01*
X133700Y404400D02*
X145228Y415928D01*
D37*
X332900Y238400D02*
X333300Y238800D01*
X410200Y165800D02*
Y172700D01*
X410900Y173400D01*
X338500Y180700D02*
Y186500D01*
X347700Y195700D01*
X332900Y238400D02*
X341200D01*
D38*
X480800Y158800D02*
X492200Y147400D01*
X480800Y158800D02*
Y179900D01*
X489600Y188700D01*
X499674D01*
X492200Y147400D02*
X499700D01*
D39*
X522717Y301041D02*
G03*
X519788Y308112I-10000J0D01*
G01*
X510203Y317697D02*
G03*
X503132Y320626I-7071J-7071D01*
G01*
X522717Y212200D02*
X523200D01*
X407600Y65085D02*
X484034D01*
X523200Y104251D01*
Y212200D01*
X510203Y317697D02*
X519788Y308112D01*
X522717Y212200D02*
Y301041D01*
X499774Y320626D02*
X503132D01*
D43*
X421600Y251100D02*
X449600Y279100D01*
X415800Y251100D02*
X421600D01*
X472900Y124300D02*
X497000D01*
D44*
X328700Y250000D02*
X342000D01*
X360600Y240600D02*
X364800D01*
X369700Y235700D01*
X261400Y231800D02*
X262200Y232600D01*
X248000Y231800D02*
X261400D01*
D46*
X269200Y185400D02*
X271200Y187400D01*
X278200D01*
X333900Y232900D02*
X346000D01*
X405200Y172900D02*
X405400Y172700D01*
Y161600D02*
Y172700D01*
X270100Y150500D02*
X278600D01*
X269900Y150300D02*
X270100Y150500D01*
X361600Y232900D02*
X364200Y230300D01*
X374500D01*
X250200Y175900D02*
X259700D01*
X260600Y176800D01*
D51*
X131780Y485810D02*
D03*
X214220D02*
D03*
D52*
X216900Y290400D02*
D03*
X25005Y475500D02*
D03*
X515950D02*
D03*
Y25000D02*
D03*
X25005D02*
D03*
D53*
X244600Y81700D02*
D03*
Y121070D02*
D03*
X407600Y65085D02*
D03*
Y25715D02*
D03*
X494100Y418270D02*
D03*
Y378900D02*
D03*
X317500Y65585D02*
D03*
Y26215D02*
D03*
D54*
X404800Y400500D02*
D03*
X264800Y420500D02*
D03*
Y400500D02*
D03*
Y440500D02*
D03*
Y460500D02*
D03*
Y380500D02*
D03*
Y360500D02*
D03*
Y340500D02*
D03*
Y320500D02*
D03*
X404800D02*
D03*
Y340500D02*
D03*
Y360500D02*
D03*
Y380500D02*
D03*
Y460500D02*
D03*
Y440500D02*
D03*
Y420500D02*
D03*
X264800Y480500D02*
D03*
X404800D02*
D03*
D55*
X34505Y425980D02*
D03*
Y351020D02*
D03*
Y388500D02*
D03*
D56*
X82900Y342800D02*
D03*
Y482800D02*
D03*
D57*
X174880Y415928D02*
D03*
X167400Y386400D02*
D03*
X132300Y396121D02*
D03*
Y336279D02*
D03*
X206000Y411721D02*
D03*
Y351879D02*
D03*
D58*
X121102Y463700D02*
D03*
X160472D02*
D03*
X190000D02*
D03*
X219528D02*
D03*
D59*
X19505Y309000D02*
D03*
X98245D02*
D03*
X52970Y64906D02*
D03*
X143521D02*
D03*
D60*
X499374Y254026D02*
D03*
D61*
Y275426D02*
D03*
D62*
Y232626D02*
D03*
D63*
X354900Y116800D02*
D03*
Y136800D02*
D03*
X364900Y126800D02*
D03*
D64*
X147220Y24800D02*
D03*
X222180D02*
D03*
X184700D02*
D03*
D65*
X523574Y344246D02*
D03*
Y64954D02*
D03*
D66*
X499674Y188700D02*
D03*
Y208700D02*
D03*
X499700Y147400D02*
D03*
Y167400D02*
D03*
X497000Y104300D02*
D03*
Y114300D02*
D03*
Y124300D02*
D03*
X499774Y300626D02*
D03*
Y320626D02*
D03*
D67*
X206100Y421000D02*
D03*
X197900Y412400D02*
D03*
X214700Y411800D02*
D03*
X206100Y402100D02*
D03*
X124900Y335400D02*
D03*
X140000Y334900D02*
D03*
X138800Y341200D02*
D03*
D68*
X347700Y195700D02*
D03*
X333900Y232900D02*
D03*
X269200Y185400D02*
D03*
X278200Y187400D02*
D03*
X346000Y232900D02*
D03*
X341200Y238400D02*
D03*
X333300Y238800D02*
D03*
X410200Y165800D02*
D03*
X410900Y173400D02*
D03*
X338500Y180700D02*
D03*
X405200Y172900D02*
D03*
X405400Y161600D02*
D03*
X278600Y150500D02*
D03*
X269900Y150300D02*
D03*
X361600Y232900D02*
D03*
X374500Y230300D02*
D03*
X373143Y211657D02*
D03*
X407305Y206395D02*
D03*
X377646Y201500D02*
D03*
X378343Y194500D02*
D03*
X375346Y186100D02*
D03*
X375346Y179900D02*
D03*
X292900Y198600D02*
D03*
Y202600D02*
D03*
X294253Y185105D02*
D03*
Y179105D02*
D03*
X284200Y173000D02*
D03*
X288100D02*
D03*
X294500Y132800D02*
D03*
X294700Y142000D02*
D03*
X294508Y137300D02*
D03*
X320492D02*
D03*
X202000Y221900D02*
D03*
X206702Y222000D02*
D03*
X211400Y222200D02*
D03*
X211300Y193600D02*
D03*
X206700Y193700D02*
D03*
X202100Y193800D02*
D03*
X270553Y266600D02*
D03*
X272600Y273000D02*
D03*
X272534Y277800D02*
D03*
X272700Y282500D02*
D03*
X357462Y286122D02*
D03*
X365462D02*
D03*
X377958Y287761D02*
D03*
X385958Y287824D02*
D03*
X412827Y288983D02*
D03*
X406900Y256368D02*
D03*
X439700Y129432D02*
D03*
X404826Y105100D02*
D03*
X385154Y96600D02*
D03*
X250200Y175900D02*
D03*
X260600Y176800D02*
D03*
X294553Y215500D02*
D03*
X350200Y229100D02*
D03*
X354400Y229200D02*
D03*
X359500D02*
D03*
D69*
X449600Y279100D02*
D03*
X415800Y251100D02*
D03*
X472900Y124300D02*
D03*
X132600Y344500D02*
D03*
D70*
X328700Y250000D02*
D03*
X342000D02*
D03*
X360600Y240600D02*
D03*
X369700Y235700D02*
D03*
X262200Y232600D02*
D03*
X248000Y231800D02*
D03*
D71*
X447500Y349805D02*
D03*
X407453Y231200D02*
D03*
X380500Y211657D02*
D03*
X388200Y211557D02*
D03*
X395400Y206400D02*
D03*
X401900D02*
D03*
M02*
