G04 Layer_Physical_Order=1*
G04 Layer_Color=255*
%FSLAX25Y25*%
%MOIN*%
G70*
G01*
G75*
%ADD10C,0.02000*%
%ADD11C,0.05000*%
%ADD12R,0.13780X0.07087*%
%ADD13O,0.02362X0.06299*%
G04:AMPARAMS|DCode=14|XSize=51.18mil|YSize=31.5mil|CornerRadius=3.94mil|HoleSize=0mil|Usage=FLASHONLY|Rotation=0.000|XOffset=0mil|YOffset=0mil|HoleType=Round|Shape=RoundedRectangle|*
%AMROUNDEDRECTD14*
21,1,0.05118,0.02362,0,0,0.0*
21,1,0.04331,0.03150,0,0,0.0*
1,1,0.00787,0.02165,-0.01181*
1,1,0.00787,-0.02165,-0.01181*
1,1,0.00787,-0.02165,0.01181*
1,1,0.00787,0.02165,0.01181*
%
%ADD14ROUNDEDRECTD14*%
G04:AMPARAMS|DCode=15|XSize=70.87mil|YSize=45.28mil|CornerRadius=5.66mil|HoleSize=0mil|Usage=FLASHONLY|Rotation=270.000|XOffset=0mil|YOffset=0mil|HoleType=Round|Shape=RoundedRectangle|*
%AMROUNDEDRECTD15*
21,1,0.07087,0.03396,0,0,270.0*
21,1,0.05955,0.04528,0,0,270.0*
1,1,0.01132,-0.01698,-0.02977*
1,1,0.01132,-0.01698,0.02977*
1,1,0.01132,0.01698,0.02977*
1,1,0.01132,0.01698,-0.02977*
%
%ADD15ROUNDEDRECTD15*%
G04:AMPARAMS|DCode=16|XSize=86.61mil|YSize=59.05mil|CornerRadius=7.38mil|HoleSize=0mil|Usage=FLASHONLY|Rotation=0.000|XOffset=0mil|YOffset=0mil|HoleType=Round|Shape=RoundedRectangle|*
%AMROUNDEDRECTD16*
21,1,0.08661,0.04429,0,0,0.0*
21,1,0.07185,0.05905,0,0,0.0*
1,1,0.01476,0.03592,-0.02215*
1,1,0.01476,-0.03592,-0.02215*
1,1,0.01476,-0.03592,0.02215*
1,1,0.01476,0.03592,0.02215*
%
%ADD16ROUNDEDRECTD16*%
%ADD17O,0.02362X0.07480*%
%ADD18R,0.07087X0.13780*%
G04:AMPARAMS|DCode=19|XSize=23.62mil|YSize=27.56mil|CornerRadius=2.95mil|HoleSize=0mil|Usage=FLASHONLY|Rotation=90.000|XOffset=0mil|YOffset=0mil|HoleType=Round|Shape=RoundedRectangle|*
%AMROUNDEDRECTD19*
21,1,0.02362,0.02165,0,0,90.0*
21,1,0.01772,0.02756,0,0,90.0*
1,1,0.00591,0.01083,0.00886*
1,1,0.00591,0.01083,-0.00886*
1,1,0.00591,-0.01083,-0.00886*
1,1,0.00591,-0.01083,0.00886*
%
%ADD19ROUNDEDRECTD19*%
G04:AMPARAMS|DCode=20|XSize=39.37mil|YSize=35.43mil|CornerRadius=4.43mil|HoleSize=0mil|Usage=FLASHONLY|Rotation=90.000|XOffset=0mil|YOffset=0mil|HoleType=Round|Shape=RoundedRectangle|*
%AMROUNDEDRECTD20*
21,1,0.03937,0.02657,0,0,90.0*
21,1,0.03051,0.03543,0,0,90.0*
1,1,0.00886,0.01329,0.01526*
1,1,0.00886,0.01329,-0.01526*
1,1,0.00886,-0.01329,-0.01526*
1,1,0.00886,-0.01329,0.01526*
%
%ADD20ROUNDEDRECTD20*%
%ADD21R,0.07874X0.07480*%
%ADD22R,0.05118X0.07480*%
G04:AMPARAMS|DCode=23|XSize=39.37mil|YSize=35.43mil|CornerRadius=4.43mil|HoleSize=0mil|Usage=FLASHONLY|Rotation=0.000|XOffset=0mil|YOffset=0mil|HoleType=Round|Shape=RoundedRectangle|*
%AMROUNDEDRECTD23*
21,1,0.03937,0.02657,0,0,0.0*
21,1,0.03051,0.03543,0,0,0.0*
1,1,0.00886,0.01526,-0.01329*
1,1,0.00886,-0.01526,-0.01329*
1,1,0.00886,-0.01526,0.01329*
1,1,0.00886,0.01526,0.01329*
%
%ADD23ROUNDEDRECTD23*%
G04:AMPARAMS|DCode=24|XSize=51.18mil|YSize=31.5mil|CornerRadius=3.94mil|HoleSize=0mil|Usage=FLASHONLY|Rotation=90.000|XOffset=0mil|YOffset=0mil|HoleType=Round|Shape=RoundedRectangle|*
%AMROUNDEDRECTD24*
21,1,0.05118,0.02362,0,0,90.0*
21,1,0.04331,0.03150,0,0,90.0*
1,1,0.00787,0.01181,0.02165*
1,1,0.00787,0.01181,-0.02165*
1,1,0.00787,-0.01181,-0.02165*
1,1,0.00787,-0.01181,0.02165*
%
%ADD24ROUNDEDRECTD24*%
G04:AMPARAMS|DCode=25|XSize=70.87mil|YSize=45.28mil|CornerRadius=5.66mil|HoleSize=0mil|Usage=FLASHONLY|Rotation=180.000|XOffset=0mil|YOffset=0mil|HoleType=Round|Shape=RoundedRectangle|*
%AMROUNDEDRECTD25*
21,1,0.07087,0.03396,0,0,180.0*
21,1,0.05955,0.04528,0,0,180.0*
1,1,0.01132,-0.02977,0.01698*
1,1,0.01132,0.02977,0.01698*
1,1,0.01132,0.02977,-0.01698*
1,1,0.01132,-0.02977,-0.01698*
%
%ADD25ROUNDEDRECTD25*%
%ADD26R,0.04882X0.07441*%
%ADD27R,0.04724X0.13386*%
G04:AMPARAMS|DCode=28|XSize=330mil|YSize=420mil|CornerRadius=41.25mil|HoleSize=0mil|Usage=FLASHONLY|Rotation=90.000|XOffset=0mil|YOffset=0mil|HoleType=Round|Shape=RoundedRectangle|*
%AMROUNDEDRECTD28*
21,1,0.33000,0.33750,0,0,90.0*
21,1,0.24750,0.42000,0,0,90.0*
1,1,0.08250,0.16875,0.12375*
1,1,0.08250,0.16875,-0.12375*
1,1,0.08250,-0.16875,-0.12375*
1,1,0.08250,-0.16875,0.12375*
%
%ADD28ROUNDEDRECTD28*%
G04:AMPARAMS|DCode=29|XSize=120mil|YSize=40mil|CornerRadius=5mil|HoleSize=0mil|Usage=FLASHONLY|Rotation=90.000|XOffset=0mil|YOffset=0mil|HoleType=Round|Shape=RoundedRectangle|*
%AMROUNDEDRECTD29*
21,1,0.12000,0.03000,0,0,90.0*
21,1,0.11000,0.04000,0,0,90.0*
1,1,0.01000,0.01500,0.05500*
1,1,0.01000,0.01500,-0.05500*
1,1,0.01000,-0.01500,-0.05500*
1,1,0.01000,-0.01500,0.05500*
%
%ADD29ROUNDEDRECTD29*%
G04:AMPARAMS|DCode=30|XSize=137.8mil|YSize=55.12mil|CornerRadius=6.89mil|HoleSize=0mil|Usage=FLASHONLY|Rotation=270.000|XOffset=0mil|YOffset=0mil|HoleType=Round|Shape=RoundedRectangle|*
%AMROUNDEDRECTD30*
21,1,0.13780,0.04134,0,0,270.0*
21,1,0.12402,0.05512,0,0,270.0*
1,1,0.01378,-0.02067,-0.06201*
1,1,0.01378,-0.02067,0.06201*
1,1,0.01378,0.02067,0.06201*
1,1,0.01378,0.02067,-0.06201*
%
%ADD30ROUNDEDRECTD30*%
G04:AMPARAMS|DCode=31|XSize=78.74mil|YSize=161.42mil|CornerRadius=9.84mil|HoleSize=0mil|Usage=FLASHONLY|Rotation=270.000|XOffset=0mil|YOffset=0mil|HoleType=Round|Shape=RoundedRectangle|*
%AMROUNDEDRECTD31*
21,1,0.07874,0.14173,0,0,270.0*
21,1,0.05905,0.16142,0,0,270.0*
1,1,0.01968,-0.07087,-0.02953*
1,1,0.01968,-0.07087,0.02953*
1,1,0.01968,0.07087,0.02953*
1,1,0.01968,0.07087,-0.02953*
%
%ADD31ROUNDEDRECTD31*%
G04:AMPARAMS|DCode=32|XSize=62.99mil|YSize=47.24mil|CornerRadius=11.81mil|HoleSize=0mil|Usage=FLASHONLY|Rotation=90.000|XOffset=0mil|YOffset=0mil|HoleType=Round|Shape=RoundedRectangle|*
%AMROUNDEDRECTD32*
21,1,0.06299,0.02362,0,0,90.0*
21,1,0.03937,0.04724,0,0,90.0*
1,1,0.02362,0.01181,0.01968*
1,1,0.02362,0.01181,-0.01968*
1,1,0.02362,-0.01181,-0.01968*
1,1,0.02362,-0.01181,0.01968*
%
%ADD32ROUNDEDRECTD32*%
G04:AMPARAMS|DCode=33|XSize=118.11mil|YSize=98.42mil|CornerRadius=24.61mil|HoleSize=0mil|Usage=FLASHONLY|Rotation=90.000|XOffset=0mil|YOffset=0mil|HoleType=Round|Shape=RoundedRectangle|*
%AMROUNDEDRECTD33*
21,1,0.11811,0.04921,0,0,90.0*
21,1,0.06890,0.09842,0,0,90.0*
1,1,0.04921,0.02461,0.03445*
1,1,0.04921,0.02461,-0.03445*
1,1,0.04921,-0.02461,-0.03445*
1,1,0.04921,-0.02461,0.03445*
%
%ADD33ROUNDEDRECTD33*%
%ADD34R,0.05276X0.03937*%
%ADD35R,0.03937X0.05276*%
G04:AMPARAMS|DCode=36|XSize=122.05mil|YSize=118.11mil|CornerRadius=29.53mil|HoleSize=0mil|Usage=FLASHONLY|Rotation=180.000|XOffset=0mil|YOffset=0mil|HoleType=Round|Shape=RoundedRectangle|*
%AMROUNDEDRECTD36*
21,1,0.12205,0.05905,0,0,180.0*
21,1,0.06299,0.11811,0,0,180.0*
1,1,0.05905,-0.03150,0.02953*
1,1,0.05905,0.03150,0.02953*
1,1,0.05905,0.03150,-0.02953*
1,1,0.05905,-0.03150,-0.02953*
%
%ADD36ROUNDEDRECTD36*%
%ADD37C,0.02300*%
%ADD38C,0.01000*%
%ADD39C,0.02400*%
%ADD40C,0.20000*%
%ADD41C,0.22500*%
%ADD42C,0.06000*%
%ADD43C,0.17000*%
%ADD44C,0.03000*%
%ADD45C,0.04000*%
%ADD46C,0.07000*%
%ADD47C,0.02500*%
%ADD48C,0.03500*%
%ADD49C,0.30000*%
%ADD50C,0.08000*%
%ADD51C,0.06000*%
%ADD52C,0.13780*%
%ADD53O,0.15748X0.11811*%
%ADD54C,0.08000*%
%ADD55O,0.13780X0.19685*%
%ADD56O,0.19685X0.13780*%
%ADD57O,0.15000X0.10000*%
%ADD58O,0.15000X0.11000*%
%ADD59O,0.09000X0.13000*%
%ADD60C,0.07874*%
%ADD61C,0.13000*%
%ADD62C,0.12000*%
%ADD63O,0.11000X0.08000*%
%ADD64C,0.03500*%
%ADD65C,0.05000*%
G36*
X354612Y189062D02*
X354485Y188899D01*
X354373Y188725D01*
X354275Y188541D01*
X354192Y188346D01*
X354125Y188140D01*
X354072Y187923D01*
X354035Y187696D01*
X354012Y187458D01*
X354005Y187209D01*
X352005D01*
X351997Y187458D01*
X351975Y187696D01*
X351938Y187923D01*
X351885Y188140D01*
X351817Y188346D01*
X351735Y188541D01*
X351638Y188725D01*
X351525Y188899D01*
X351397Y189062D01*
X351255Y189215D01*
X354755D01*
X354612Y189062D01*
D02*
G37*
G36*
X419019Y185833D02*
X419012Y185973D01*
X418991Y186112D01*
X418955Y186253D01*
X418904Y186393D01*
X418840Y186534D01*
X418761Y186676D01*
X418667Y186818D01*
X418559Y186961D01*
X418437Y187104D01*
X418300Y187248D01*
X418609Y188354D01*
X418687Y188283D01*
X418756Y188234D01*
X418818Y188209D01*
X418871Y188206D01*
X418917Y188225D01*
X418954Y188267D01*
X418983Y188332D01*
X419003Y188419D01*
X419015Y188529D01*
X419019Y188662D01*
Y185833D01*
D02*
G37*
G36*
X260613Y198177D02*
X260755Y198035D01*
X260917Y197910D01*
X261100Y197801D01*
X261302Y197709D01*
X261525Y197634D01*
X261769Y197575D01*
X262032Y197533D01*
X262316Y197508D01*
X262619Y197500D01*
Y195500D01*
X262316Y195492D01*
X262032Y195467D01*
X261769Y195425D01*
X261525Y195366D01*
X261302Y195291D01*
X261100Y195199D01*
X260917Y195090D01*
X260755Y194965D01*
X260613Y194823D01*
X260491Y194664D01*
X260399Y194584D01*
X260316Y194475D01*
X260243Y194336D01*
X260180Y194167D01*
X260126Y193969D01*
X260083Y193742D01*
X260049Y193484D01*
X260010Y192881D01*
X260009Y192842D01*
X260061Y192032D01*
X260092Y191803D01*
X260176Y191412D01*
X260229Y191251D01*
X260288Y191112D01*
X260354Y190996D01*
X257656D01*
X257722Y191112D01*
X257781Y191251D01*
X257834Y191412D01*
X257879Y191596D01*
X257918Y191803D01*
X257974Y192283D01*
X257998Y192792D01*
X257997Y192844D01*
X257973Y193132D01*
X257934Y193398D01*
X257878Y193643D01*
X257807Y193867D01*
X257719Y194069D01*
X257616Y194250D01*
X257498Y194409D01*
X257363Y194547D01*
X257212Y194664D01*
X260491D01*
Y198336D01*
X260613Y198177D01*
D02*
G37*
G36*
X354006Y184097D02*
X354118Y182247D01*
X354144Y182164D01*
X351866D01*
X351892Y182247D01*
X351916Y182363D01*
X351937Y182512D01*
X351970Y182909D01*
X352004Y184097D01*
X352005Y184476D01*
X354005D01*
X354006Y184097D01*
D02*
G37*
G36*
X309026Y182448D02*
X306984D01*
X306988Y182473D01*
X306991Y182538D01*
X307005Y184476D01*
X309005D01*
X309026Y182448D01*
D02*
G37*
G36*
X392380Y188905D02*
X392410Y188820D01*
X392461Y188745D01*
X392532Y188680D01*
X392623Y188625D01*
X392734Y188580D01*
X392866Y188545D01*
X393018Y188520D01*
X393190Y188505D01*
X393382Y188500D01*
Y187500D01*
X393190Y187495D01*
X393018Y187480D01*
X392866Y187455D01*
X392734Y187420D01*
X392623Y187375D01*
X392532Y187320D01*
X392461Y187255D01*
X392410Y187180D01*
X392380Y187095D01*
X392370Y187000D01*
Y189000D01*
X392380Y188905D01*
D02*
G37*
G36*
X348480Y193500D02*
X348324Y193492D01*
X348164Y193464D01*
X348000Y193417D01*
X347832Y193350D01*
X347660Y193264D01*
X347485Y193158D01*
X347305Y193033D01*
X347121Y192888D01*
X346742Y192540D01*
X345045Y194237D01*
X345229Y194429D01*
X345538Y194800D01*
X345663Y194980D01*
X345769Y195156D01*
X345855Y195327D01*
X345922Y195495D01*
X345969Y195659D01*
X345997Y195819D01*
X346005Y195975D01*
X348480Y193500D01*
D02*
G37*
G36*
X290519Y194664D02*
X290397Y194823D01*
X290255Y194965D01*
X290093Y195090D01*
X289910Y195199D01*
X289708Y195291D01*
X289485Y195366D01*
X289241Y195425D01*
X289005Y195462D01*
X288769Y195425D01*
X288525Y195366D01*
X288302Y195291D01*
X288100Y195199D01*
X287917Y195090D01*
X287755Y194965D01*
X287613Y194823D01*
X287491Y194664D01*
Y198336D01*
X287613Y198177D01*
X287755Y198035D01*
X287917Y197910D01*
X288100Y197801D01*
X288302Y197709D01*
X288525Y197634D01*
X288769Y197575D01*
X289005Y197538D01*
X289241Y197575D01*
X289485Y197634D01*
X289708Y197709D01*
X289910Y197801D01*
X290093Y197910D01*
X290255Y198035D01*
X290397Y198177D01*
X290519Y198336D01*
Y194664D01*
D02*
G37*
G36*
X295341Y198268D02*
X294953Y197866D01*
X294340Y197141D01*
X294115Y196818D01*
X293945Y196522D01*
X293830Y196252D01*
X293769Y196009D01*
X293763Y195793D01*
X293811Y195603D01*
X293915Y195440D01*
X291295Y198453D01*
X291441Y198332D01*
X291617Y198270D01*
X291824Y198266D01*
X292061Y198321D01*
X292328Y198434D01*
X292626Y198606D01*
X292955Y198837D01*
X293314Y199126D01*
X294124Y199879D01*
X295341Y198268D01*
D02*
G37*
G36*
X280677Y201566D02*
X280568Y201442D01*
X280472Y201293D01*
X280389Y201118D01*
X280318Y200918D01*
X280261Y200692D01*
X280216Y200441D01*
X280184Y200165D01*
X280177Y199997D01*
X280216Y199559D01*
X280261Y199308D01*
X280318Y199082D01*
X280389Y198882D01*
X280472Y198707D01*
X280568Y198558D01*
X280677Y198434D01*
X280798Y198336D01*
X277519D01*
X277641Y198434D01*
X277749Y198558D01*
X277845Y198707D01*
X277928Y198882D01*
X277999Y199082D01*
X278056Y199308D01*
X278101Y199559D01*
X278133Y199835D01*
X278140Y200003D01*
X278101Y200441D01*
X278056Y200692D01*
X277999Y200918D01*
X277928Y201118D01*
X277845Y201293D01*
X277749Y201442D01*
X277641Y201566D01*
X277519Y201664D01*
X280798D01*
X280677Y201566D01*
D02*
G37*
G36*
X277519Y194664D02*
X280798D01*
X280677Y194569D01*
X280568Y194454D01*
X280472Y194321D01*
X280389Y194168D01*
X280318Y193996D01*
X280261Y193804D01*
X280216Y193594D01*
X280184Y193364D01*
X280165Y193115D01*
X280159Y192847D01*
X278159D01*
X278152Y193115D01*
X278133Y193364D01*
X278101Y193594D01*
X278056Y193804D01*
X277999Y193996D01*
X277928Y194168D01*
X277845Y194321D01*
X277749Y194454D01*
X277641Y194569D01*
X277519Y194664D01*
X277397Y194823D01*
X277255Y194965D01*
X277093Y195090D01*
X276910Y195199D01*
X276708Y195291D01*
X276485Y195366D01*
X276241Y195425D01*
X275978Y195467D01*
X275694Y195492D01*
X275391Y195500D01*
Y197500D01*
X275694Y197508D01*
X275978Y197533D01*
X276241Y197575D01*
X276485Y197634D01*
X276708Y197709D01*
X276910Y197801D01*
X277093Y197910D01*
X277255Y198035D01*
X277397Y198177D01*
X277519Y198336D01*
Y194664D01*
D02*
G37*
G36*
X250519D02*
X250397Y194823D01*
X250255Y194965D01*
X250093Y195090D01*
X249910Y195199D01*
X249708Y195291D01*
X249485Y195366D01*
X249241Y195425D01*
X248978Y195467D01*
X248694Y195492D01*
X248391Y195500D01*
Y197500D01*
X248694Y197508D01*
X248978Y197533D01*
X249241Y197575D01*
X249485Y197634D01*
X249708Y197709D01*
X249910Y197801D01*
X250093Y197910D01*
X250255Y198035D01*
X250397Y198177D01*
X250519Y198336D01*
Y194664D01*
D02*
G37*
G36*
X300613Y198177D02*
X300755Y198035D01*
X300917Y197910D01*
X301100Y197801D01*
X301302Y197709D01*
X301525Y197634D01*
X301769Y197575D01*
X302032Y197533D01*
X302316Y197508D01*
X302620Y197500D01*
Y195500D01*
X302316Y195492D01*
X302032Y195467D01*
X301769Y195425D01*
X301525Y195366D01*
X301302Y195291D01*
X301100Y195199D01*
X300917Y195090D01*
X300755Y194965D01*
X300613Y194823D01*
X300491Y194664D01*
Y198336D01*
X300613Y198177D01*
D02*
G37*
G36*
X314118Y176351D02*
X314094Y176235D01*
X314073Y176086D01*
X314040Y175689D01*
X314006Y174502D01*
X314005Y174123D01*
X312005D01*
X312004Y174502D01*
X311892Y176351D01*
X311866Y176435D01*
X314144D01*
X314118Y176351D01*
D02*
G37*
G36*
X319118D02*
X319094Y176235D01*
X319073Y176086D01*
X319040Y175689D01*
X319006Y174502D01*
X319005Y174123D01*
X317005D01*
X317004Y174502D01*
X316892Y176351D01*
X316866Y176435D01*
X319144D01*
X319118Y176351D01*
D02*
G37*
G36*
X329118D02*
X329094Y176235D01*
X329073Y176086D01*
X329040Y175689D01*
X329006Y174502D01*
X329005Y174123D01*
X327005D01*
X327004Y174502D01*
X326892Y176351D01*
X326866Y176435D01*
X329144D01*
X329118Y176351D01*
D02*
G37*
G36*
X370354Y166762D02*
X370198Y166950D01*
X369993Y167118D01*
X369742Y167266D01*
X369442Y167394D01*
X369094Y167503D01*
X368699Y167592D01*
X368255Y167661D01*
X367763Y167710D01*
X366637Y167750D01*
Y171250D01*
X367224Y171260D01*
X368255Y171339D01*
X368699Y171408D01*
X369094Y171497D01*
X369442Y171606D01*
X369742Y171734D01*
X369993Y171882D01*
X370198Y172050D01*
X370354Y172238D01*
Y166762D01*
D02*
G37*
G36*
X395333Y171580D02*
X395402Y171385D01*
X395519Y171212D01*
X395682Y171063D01*
X395891Y170937D01*
X396147Y170834D01*
X396450Y170753D01*
X396800Y170696D01*
X396877Y170689D01*
X397025Y170704D01*
X397241Y170746D01*
X397442Y170800D01*
X397628Y170866D01*
X397798Y170944D01*
X397954Y171034D01*
X398094Y171136D01*
X398220Y171250D01*
Y167750D01*
X398094Y167864D01*
X397954Y167966D01*
X397798Y168056D01*
X397628Y168134D01*
X397442Y168200D01*
X397241Y168254D01*
X397025Y168296D01*
X396897Y168313D01*
X396800Y168304D01*
X396450Y168247D01*
X396147Y168166D01*
X395891Y168063D01*
X395682Y167937D01*
X395519Y167788D01*
X395402Y167615D01*
X395333Y167420D01*
X395309Y167202D01*
Y171798D01*
X395333Y171580D01*
D02*
G37*
G36*
X286515Y171148D02*
X286545Y170806D01*
X286595Y170504D01*
X286665Y170243D01*
X286755Y170021D01*
X286865Y169840D01*
X286995Y169699D01*
X287145Y169599D01*
X287315Y169538D01*
X287505Y169518D01*
X283505D01*
X283695Y169538D01*
X283865Y169599D01*
X284015Y169699D01*
X284145Y169840D01*
X284255Y170021D01*
X284345Y170243D01*
X284415Y170504D01*
X284465Y170806D01*
X284495Y171148D01*
X284505Y171530D01*
X286505D01*
X286515Y171148D01*
D02*
G37*
G36*
X251518Y181869D02*
X251664Y181720D01*
X251829Y181588D01*
X252013Y181474D01*
X252217Y181377D01*
X252439Y181298D01*
X252680Y181237D01*
X252941Y181193D01*
X253221Y181166D01*
X253520Y181158D01*
Y179157D01*
X253211Y179149D01*
X252923Y179126D01*
X252657Y179086D01*
X252412Y179031D01*
X252188Y178959D01*
X251986Y178872D01*
X251805Y178769D01*
X251646Y178649D01*
X251508Y178515D01*
X251391Y178364D01*
Y182036D01*
X251518Y181869D01*
D02*
G37*
G36*
X324612Y186062D02*
X324485Y185899D01*
X324373Y185725D01*
X324275Y185541D01*
X324193Y185346D01*
X324125Y185140D01*
X324073Y184923D01*
X324035Y184696D01*
X324012Y184458D01*
X324006Y184238D01*
X324006Y184097D01*
X324118Y182247D01*
X324144Y182164D01*
X321866D01*
X321892Y182247D01*
X321916Y182363D01*
X321937Y182512D01*
X321970Y182909D01*
X322004Y184097D01*
X322004Y184238D01*
X321997Y184458D01*
X321975Y184696D01*
X321937Y184923D01*
X321885Y185140D01*
X321817Y185346D01*
X321735Y185541D01*
X321638Y185725D01*
X321525Y185899D01*
X321397Y186062D01*
X321255Y186215D01*
X324755D01*
X324612Y186062D01*
D02*
G37*
G36*
X329006Y184097D02*
X329118Y182247D01*
X329144Y182164D01*
X326866D01*
X326892Y182247D01*
X326916Y182363D01*
X326937Y182512D01*
X326970Y182909D01*
X327004Y184097D01*
X327005Y184476D01*
X329005D01*
X329006Y184097D01*
D02*
G37*
G36*
X334006D02*
X334118Y182247D01*
X334144Y182164D01*
X331866D01*
X331892Y182247D01*
X331916Y182363D01*
X331937Y182512D01*
X331970Y182909D01*
X332004Y184097D01*
X332005Y184476D01*
X334005D01*
X334006Y184097D01*
D02*
G37*
G36*
X301612Y180562D02*
X301485Y180399D01*
X301373Y180225D01*
X301275Y180041D01*
X301192Y179846D01*
X301125Y179640D01*
X301073Y179423D01*
X301035Y179196D01*
X301012Y178957D01*
X301005Y178709D01*
X299005D01*
X298997Y178957D01*
X298975Y179196D01*
X298938Y179423D01*
X298885Y179640D01*
X298817Y179846D01*
X298735Y180041D01*
X298638Y180225D01*
X298525Y180399D01*
X298397Y180562D01*
X298255Y180715D01*
X301755D01*
X301612Y180562D01*
D02*
G37*
G36*
X257812Y179005D02*
X257749Y179034D01*
X257652Y179060D01*
X257522Y179083D01*
X257358Y179103D01*
X256660Y179144D01*
X255658Y179157D01*
Y181158D01*
X256026Y181159D01*
X257652Y181255D01*
X257749Y181281D01*
X257812Y181310D01*
Y179005D01*
D02*
G37*
G36*
X241562Y178269D02*
X241413Y178350D01*
X241224Y178424D01*
X240996Y178489D01*
X240728Y178545D01*
X240421Y178592D01*
X239688Y178661D01*
X239434Y178671D01*
X238942Y178638D01*
X238782Y178610D01*
X238648Y178577D01*
X238537Y178540D01*
X238452Y178498D01*
X238390Y178450D01*
Y178699D01*
X238291Y178700D01*
Y181700D01*
X238390Y181701D01*
Y181950D01*
X238452Y181903D01*
X238537Y181860D01*
X238648Y181823D01*
X238782Y181790D01*
X238942Y181763D01*
X239236Y181732D01*
X240421Y181808D01*
X240728Y181855D01*
X240996Y181911D01*
X241224Y181976D01*
X241413Y182050D01*
X241562Y182132D01*
Y178269D01*
D02*
G37*
G36*
X354506Y200500D02*
X353005Y198999D01*
X352984Y199037D01*
X352920Y199115D01*
X352666Y199394D01*
X350886Y201205D01*
X352300Y202619D01*
X354506Y200500D01*
D02*
G37*
G36*
X319006Y221498D02*
X319118Y219649D01*
X319144Y219565D01*
X316866D01*
X316892Y219649D01*
X316916Y219765D01*
X316937Y219914D01*
X316970Y220311D01*
X317004Y221498D01*
X317005Y221877D01*
X319005D01*
X319006Y221498D01*
D02*
G37*
G36*
X324006D02*
X324118Y219649D01*
X324144Y219565D01*
X321866D01*
X321892Y219649D01*
X321916Y219765D01*
X321937Y219914D01*
X321970Y220311D01*
X322004Y221498D01*
X322005Y221877D01*
X324005D01*
X324006Y221498D01*
D02*
G37*
G36*
X329006D02*
X329118Y219649D01*
X329144Y219565D01*
X326866D01*
X326892Y219649D01*
X326916Y219765D01*
X326937Y219914D01*
X326970Y220311D01*
X327004Y221498D01*
X327005Y221877D01*
X329005D01*
X329006Y221498D01*
D02*
G37*
G36*
X362393Y216474D02*
X362222Y216293D01*
X362070Y216108D01*
X361936Y215921D01*
X361820Y215731D01*
X361722Y215537D01*
X361642Y215341D01*
X361580Y215141D01*
X361537Y214939D01*
X361512Y214734D01*
X361505Y214525D01*
X359030Y217000D01*
X359239Y217007D01*
X359444Y217032D01*
X359647Y217075D01*
X359846Y217137D01*
X360042Y217217D01*
X360236Y217315D01*
X360426Y217431D01*
X360613Y217565D01*
X360798Y217717D01*
X360979Y217888D01*
X362393Y216474D01*
D02*
G37*
G36*
X277162Y213069D02*
X277013Y213151D01*
X276824Y213224D01*
X276596Y213289D01*
X276328Y213345D01*
X276021Y213392D01*
X275330Y213457D01*
X275042Y213438D01*
X274882Y213410D01*
X274748Y213377D01*
X274637Y213340D01*
X274552Y213298D01*
X274490Y213250D01*
Y213492D01*
X274396Y213496D01*
X273890Y213500D01*
Y216500D01*
X274396Y216504D01*
X274490Y216510D01*
Y216750D01*
X274552Y216703D01*
X274637Y216660D01*
X274748Y216622D01*
X274882Y216590D01*
X275042Y216563D01*
X275144Y216552D01*
X276021Y216608D01*
X276328Y216655D01*
X276596Y216711D01*
X276824Y216776D01*
X277013Y216849D01*
X277162Y216932D01*
Y213069D01*
D02*
G37*
G36*
X354122Y221658D02*
X354531Y222052D01*
X355810Y220079D01*
X355757Y220023D01*
X356180Y219600D01*
X356011Y219592D01*
X355839Y219565D01*
X355666Y219519D01*
X355490Y219453D01*
X355312Y219368D01*
X355132Y219265D01*
X355014Y219185D01*
X354777Y218900D01*
X354536Y218546D01*
X354346Y218211D01*
X354208Y217896D01*
X354122Y217599D01*
X354087Y217322D01*
X354104Y217065D01*
X354172Y216827D01*
X352700Y220399D01*
X352755Y220420D01*
X352838Y220474D01*
X352951Y220559D01*
X353163Y220742D01*
X353246Y220844D01*
X353369Y221027D01*
X353473Y221207D01*
X353558Y221385D01*
X353624Y221561D01*
X353670Y221734D01*
X353697Y221906D01*
X353705Y222075D01*
X354122Y221658D01*
D02*
G37*
G36*
X334006Y221498D02*
X334118Y219649D01*
X334144Y219565D01*
X331866D01*
X331892Y219649D01*
X331916Y219765D01*
X331937Y219914D01*
X331970Y220311D01*
X332004Y221498D01*
X332005Y221877D01*
X334005D01*
X334006Y221498D01*
D02*
G37*
G36*
X243315Y224753D02*
X243145Y224693D01*
X242995Y224593D01*
X242865Y224453D01*
X242755Y224273D01*
X242665Y224053D01*
X242595Y223793D01*
X242545Y223493D01*
X242515Y223153D01*
X242505Y222773D01*
X240505D01*
X240495Y223153D01*
X240465Y223493D01*
X240415Y223793D01*
X240345Y224053D01*
X240255Y224273D01*
X240145Y224453D01*
X240015Y224593D01*
X239865Y224693D01*
X239695Y224753D01*
X239505Y224773D01*
X243505D01*
X243315Y224753D01*
D02*
G37*
G36*
X366013Y225262D02*
X365885Y225099D01*
X365773Y224925D01*
X365675Y224741D01*
X365593Y224546D01*
X365525Y224340D01*
X365473Y224123D01*
X365435Y223896D01*
X365412Y223657D01*
X365405Y223409D01*
X363405D01*
X363398Y223657D01*
X363375Y223896D01*
X363337Y224123D01*
X363285Y224340D01*
X363217Y224546D01*
X363135Y224741D01*
X363037Y224925D01*
X362925Y225099D01*
X362797Y225262D01*
X362655Y225415D01*
X366155D01*
X366013Y225262D01*
D02*
G37*
G36*
X329005Y226000D02*
X327005Y225551D01*
X326997Y225810D01*
X326972Y226045D01*
X326930Y226255D01*
X326872Y226439D01*
X326798Y226599D01*
X326707Y226733D01*
X326599Y226843D01*
X326475Y226928D01*
X326334Y226987D01*
X326176Y227022D01*
X328932Y228902D01*
X329005Y226000D01*
D02*
G37*
G36*
X338510Y221043D02*
X338549Y220580D01*
X338583Y220391D01*
X338628Y220232D01*
X338682Y220101D01*
X338745Y220000D01*
X338819Y219928D01*
X338902Y219884D01*
X338996Y219870D01*
X337015D01*
X337108Y219884D01*
X337191Y219928D01*
X337265Y220000D01*
X337328Y220101D01*
X337382Y220232D01*
X337426Y220391D01*
X337461Y220580D01*
X337485Y220797D01*
X337500Y221043D01*
X337505Y221318D01*
X338505D01*
X338510Y221043D01*
D02*
G37*
G36*
X379199Y223265D02*
X379119Y223229D01*
X378994Y223144D01*
X378824Y223009D01*
X378048Y222309D01*
X376388Y220686D01*
X373972Y221663D01*
X374480Y222189D01*
X375264Y223107D01*
X375539Y223500D01*
X375736Y223849D01*
X375855Y224153D01*
X375896Y224413D01*
X375859Y224630D01*
X375745Y224801D01*
X375552Y224929D01*
X379199Y223265D01*
D02*
G37*
G36*
X352113Y224806D02*
X352140Y224635D01*
X352186Y224461D01*
X352252Y224285D01*
X352337Y224107D01*
X352441Y223927D01*
X352564Y223744D01*
X352706Y223559D01*
X352868Y223372D01*
X353048Y223183D01*
X351422Y221556D01*
X351233Y221737D01*
X350861Y222041D01*
X350678Y222165D01*
X350498Y222268D01*
X350320Y222353D01*
X350144Y222419D01*
X349971Y222465D01*
X349799Y222492D01*
X349630Y222500D01*
X352105Y224975D01*
X352113Y224806D01*
D02*
G37*
G36*
X300613Y205177D02*
X300755Y205035D01*
X300917Y204910D01*
X301100Y204801D01*
X301302Y204709D01*
X301525Y204634D01*
X301769Y204575D01*
X302032Y204533D01*
X302316Y204508D01*
X302620Y204500D01*
Y202500D01*
X302316Y202492D01*
X302032Y202467D01*
X301769Y202425D01*
X301525Y202366D01*
X301302Y202291D01*
X301100Y202199D01*
X300917Y202090D01*
X300755Y201965D01*
X300613Y201823D01*
X300491Y201664D01*
Y205336D01*
X300613Y205177D01*
D02*
G37*
G36*
X290519Y201664D02*
X290397Y201823D01*
X290255Y201965D01*
X290093Y202090D01*
X289910Y202199D01*
X289708Y202291D01*
X289485Y202366D01*
X289241Y202425D01*
X289005Y202462D01*
X288769Y202425D01*
X288525Y202366D01*
X288302Y202291D01*
X288100Y202199D01*
X287917Y202090D01*
X287755Y201965D01*
X287613Y201823D01*
X287491Y201664D01*
Y205336D01*
X287613Y205177D01*
X287755Y205035D01*
X287917Y204910D01*
X288100Y204801D01*
X288302Y204709D01*
X288525Y204634D01*
X288769Y204575D01*
X289005Y204538D01*
X289241Y204575D01*
X289485Y204634D01*
X289708Y204709D01*
X289910Y204801D01*
X290093Y204910D01*
X290255Y205035D01*
X290397Y205177D01*
X290519Y205336D01*
Y201664D01*
D02*
G37*
G36*
X362965Y207263D02*
X362781Y207071D01*
X362472Y206700D01*
X362347Y206520D01*
X362241Y206345D01*
X362155Y206173D01*
X362088Y206005D01*
X362041Y205841D01*
X362013Y205681D01*
X362005Y205525D01*
X359530Y208000D01*
X359686Y208008D01*
X359846Y208036D01*
X360010Y208083D01*
X360178Y208150D01*
X360349Y208236D01*
X360525Y208342D01*
X360705Y208467D01*
X360889Y208612D01*
X361268Y208960D01*
X362965Y207263D01*
D02*
G37*
G36*
X364893Y201474D02*
X364722Y201292D01*
X364570Y201108D01*
X364436Y200921D01*
X364319Y200731D01*
X364222Y200537D01*
X364142Y200341D01*
X364080Y200142D01*
X364037Y199939D01*
X364012Y199733D01*
X364005Y199525D01*
X361530Y202000D01*
X361738Y202007D01*
X361944Y202032D01*
X362146Y202075D01*
X362346Y202137D01*
X362542Y202217D01*
X362736Y202314D01*
X362926Y202431D01*
X363113Y202565D01*
X363298Y202717D01*
X363479Y202888D01*
X364893Y201474D01*
D02*
G37*
G36*
X313443Y204107D02*
X313606Y203980D01*
X313780Y203868D01*
X313964Y203770D01*
X314159Y203688D01*
X314365Y203620D01*
X314582Y203568D01*
X314809Y203530D01*
X315048Y203507D01*
X315296Y203500D01*
Y201500D01*
X315048Y201493D01*
X314809Y201470D01*
X314582Y201432D01*
X314365Y201380D01*
X314159Y201312D01*
X313964Y201230D01*
X313780Y201132D01*
X313606Y201020D01*
X313443Y200892D01*
X313290Y200750D01*
Y204250D01*
X313443Y204107D01*
D02*
G37*
G36*
X300022Y201547D02*
X299863Y201654D01*
X299676Y201706D01*
X299462Y201702D01*
X299220Y201642D01*
X298951Y201527D01*
X298654Y201357D01*
X298330Y201131D01*
X297979Y200850D01*
X297194Y200121D01*
X295669Y201425D01*
X296071Y201841D01*
X296703Y202584D01*
X296932Y202912D01*
X297103Y203209D01*
X297217Y203477D01*
X297273Y203716D01*
X297271Y203924D01*
X297212Y204104D01*
X297095Y204253D01*
X300022Y201547D01*
D02*
G37*
G36*
X392380Y209405D02*
X392410Y209320D01*
X392461Y209245D01*
X392532Y209180D01*
X392623Y209125D01*
X392734Y209080D01*
X392866Y209045D01*
X393018Y209020D01*
X393190Y209005D01*
X393382Y209000D01*
Y208000D01*
X393190Y207995D01*
X393018Y207980D01*
X392866Y207955D01*
X392734Y207920D01*
X392623Y207875D01*
X392532Y207820D01*
X392461Y207755D01*
X392410Y207680D01*
X392380Y207595D01*
X392370Y207500D01*
Y209500D01*
X392380Y209405D01*
D02*
G37*
G36*
X299213Y216717D02*
X299397Y216565D01*
X299584Y216431D01*
X299774Y216315D01*
X299968Y216217D01*
X300164Y216137D01*
X300363Y216075D01*
X300566Y216032D01*
X300771Y216007D01*
X300980Y216000D01*
X299220Y214240D01*
Y211750D01*
X299067Y211893D01*
X298904Y212020D01*
X298730Y212133D01*
X298546Y212230D01*
X298351Y212313D01*
X298145Y212380D01*
X297928Y212433D01*
X297701Y212470D01*
X297463Y212492D01*
X297214Y212500D01*
Y214500D01*
X297463Y214508D01*
X297701Y214530D01*
X297928Y214567D01*
X298145Y214620D01*
X298232Y214649D01*
X298190Y214731D01*
X298074Y214921D01*
X297940Y215108D01*
X297788Y215293D01*
X297617Y215474D01*
X299031Y216888D01*
X299213Y216717D01*
D02*
G37*
G36*
X248993Y214274D02*
X248822Y214092D01*
X248670Y213908D01*
X248536Y213721D01*
X248419Y213531D01*
X248322Y213337D01*
X248242Y213141D01*
X248180Y212941D01*
X248137Y212739D01*
X248112Y212533D01*
X248105Y212325D01*
X245630Y214800D01*
X245838Y214807D01*
X246044Y214832D01*
X246247Y214875D01*
X246446Y214937D01*
X246642Y215017D01*
X246836Y215114D01*
X247026Y215231D01*
X247213Y215365D01*
X247397Y215517D01*
X247579Y215688D01*
X248993Y214274D01*
D02*
G37*
G36*
X287113Y216677D02*
X287255Y216535D01*
X287417Y216410D01*
X287600Y216301D01*
X287802Y216209D01*
X288025Y216134D01*
X288269Y216075D01*
X288532Y216033D01*
X288816Y216008D01*
X289120Y216000D01*
Y214000D01*
X288816Y213992D01*
X288532Y213967D01*
X288269Y213925D01*
X288025Y213866D01*
X287802Y213791D01*
X287600Y213699D01*
X287417Y213590D01*
X287255Y213465D01*
X287113Y213323D01*
X286991Y213164D01*
Y216836D01*
X287113Y216677D01*
D02*
G37*
G36*
X235380Y209800D02*
X235172Y209793D01*
X234966Y209768D01*
X234764Y209725D01*
X234564Y209663D01*
X234368Y209583D01*
X234174Y209486D01*
X233984Y209369D01*
X233797Y209235D01*
X233612Y209083D01*
X233431Y208912D01*
X232017Y210326D01*
X232188Y210507D01*
X232340Y210692D01*
X232474Y210879D01*
X232591Y211069D01*
X232688Y211263D01*
X232768Y211459D01*
X232830Y211659D01*
X232873Y211861D01*
X232898Y212067D01*
X232905Y212275D01*
X235380Y209800D01*
D02*
G37*
G36*
X309118Y213753D02*
X309094Y213637D01*
X309073Y213488D01*
X309040Y213091D01*
X309006Y211903D01*
X309005Y211525D01*
X307005D01*
X307004Y211903D01*
X306892Y213753D01*
X306866Y213837D01*
X309144D01*
X309118Y213753D01*
D02*
G37*
G36*
X349118D02*
X349094Y213637D01*
X349073Y213488D01*
X349040Y213091D01*
X349006Y211903D01*
X349005Y211525D01*
X347005D01*
X347004Y211903D01*
X346892Y213753D01*
X346866Y213837D01*
X349144D01*
X349118Y213753D01*
D02*
G37*
G36*
X468520Y94810D02*
X468581Y94640D01*
X468681Y94490D01*
X468822Y94360D01*
X469003Y94250D01*
X469225Y94160D01*
X469486Y94090D01*
X469788Y94040D01*
X470130Y94010D01*
X470512Y94000D01*
Y92000D01*
X470130Y91990D01*
X469788Y91960D01*
X469486Y91910D01*
X469225Y91840D01*
X469003Y91750D01*
X468822Y91640D01*
X468681Y91510D01*
X468581Y91360D01*
X468520Y91190D01*
X468500Y91000D01*
Y95000D01*
X468520Y94810D01*
D02*
G37*
G36*
X457510Y91000D02*
X457490Y91190D01*
X457429Y91360D01*
X457329Y91510D01*
X457188Y91640D01*
X457007Y91750D01*
X456785Y91840D01*
X456524Y91910D01*
X456222Y91960D01*
X456005Y91979D01*
X455788Y91960D01*
X455486Y91910D01*
X455225Y91840D01*
X455003Y91750D01*
X454822Y91640D01*
X454681Y91510D01*
X454581Y91360D01*
X454520Y91190D01*
X454500Y91000D01*
Y95000D01*
X454520Y94810D01*
X454581Y94640D01*
X454681Y94490D01*
X454822Y94360D01*
X455003Y94250D01*
X455225Y94160D01*
X455486Y94090D01*
X455788Y94040D01*
X456005Y94021D01*
X456222Y94040D01*
X456524Y94090D01*
X456785Y94160D01*
X457007Y94250D01*
X457188Y94360D01*
X457329Y94490D01*
X457429Y94640D01*
X457490Y94810D01*
X457510Y95000D01*
Y91000D01*
D02*
G37*
G36*
X314656Y98269D02*
X314598Y98227D01*
X314458Y98103D01*
X310413Y94114D01*
Y102600D01*
X311221Y103450D01*
X311944Y104299D01*
X312581Y105149D01*
X313134Y105998D01*
X313602Y106846D01*
X313985Y107695D01*
X314283Y108543D01*
X314496Y109390D01*
X314625Y110238D01*
X314668Y111085D01*
X314656Y98269D01*
D02*
G37*
G36*
X346508Y78918D02*
X346511Y78871D01*
X347354D01*
X347193Y78841D01*
X347048Y78751D01*
X346921Y78601D01*
X346811Y78391D01*
X346717Y78121D01*
X346641Y77791D01*
X346632Y77731D01*
X346665Y77632D01*
X346708Y77547D01*
X346755Y77485D01*
X346594D01*
X346581Y77401D01*
X346539Y76951D01*
X346505Y75871D01*
X343505D01*
X343496Y76441D01*
X343429Y77401D01*
X343416Y77485D01*
X343255D01*
X343302Y77547D01*
X343345Y77632D01*
X343378Y77731D01*
X343369Y77791D01*
X343293Y78121D01*
X343199Y78391D01*
X343089Y78601D01*
X342962Y78751D01*
X342817Y78841D01*
X342656Y78871D01*
X343501D01*
X343502Y78918D01*
X343505Y79200D01*
X346505D01*
X346508Y78918D01*
D02*
G37*
G36*
X318605Y79371D02*
X319354D01*
X319212Y79341D01*
X319085Y79251D01*
X318972Y79101D01*
X318875Y78891D01*
X318792Y78621D01*
X318725Y78291D01*
X318696Y78074D01*
X318727Y77943D01*
X318765Y77832D01*
X318808Y77747D01*
X318855Y77685D01*
X318659D01*
X318613Y76941D01*
X318605Y76371D01*
X315605D01*
X315596Y76941D01*
X315537Y77685D01*
X315355D01*
X315403Y77747D01*
X315445Y77832D01*
X315482Y77943D01*
X315500Y78016D01*
X315453Y78291D01*
X315368Y78621D01*
X315263Y78891D01*
X315140Y79101D01*
X314998Y79251D01*
X314836Y79341D01*
X314656Y79371D01*
X315605D01*
X315605Y79400D01*
X318605D01*
X318605Y79371D01*
D02*
G37*
G36*
X443510Y91000D02*
X443490Y91190D01*
X443429Y91360D01*
X443329Y91510D01*
X443188Y91640D01*
X443007Y91750D01*
X442785Y91840D01*
X442524Y91910D01*
X442222Y91960D01*
X441880Y91990D01*
X441498Y92000D01*
Y94000D01*
X441880Y94010D01*
X442222Y94040D01*
X442524Y94090D01*
X442785Y94160D01*
X443007Y94250D01*
X443188Y94360D01*
X443329Y94490D01*
X443429Y94640D01*
X443490Y94810D01*
X443510Y95000D01*
Y91000D01*
D02*
G37*
G36*
X524265Y80740D02*
X518255Y86750D01*
X513558Y87750D01*
X513921Y87767D01*
X514210Y87818D01*
X514425Y87903D01*
X514566Y88021D01*
X514634Y88174D01*
X514627Y88361D01*
X514546Y88582D01*
X514392Y88836D01*
X514163Y89125D01*
X513861Y89447D01*
X513663Y89917D01*
X509785Y86039D01*
X509590Y87656D01*
X509280Y89238D01*
X508855Y90785D01*
X508315Y92299D01*
X507660Y93777D01*
X506889Y95221D01*
X506004Y96631D01*
X505003Y98005D01*
X503887Y99346D01*
X502657Y100652D01*
X504354Y102348D01*
X505659Y101118D01*
X507000Y100002D01*
X508375Y99001D01*
X509784Y98116D01*
X511228Y97345D01*
X512706Y96690D01*
X514220Y96150D01*
X514354Y96113D01*
X514405Y96143D01*
X515674Y97038D01*
X522813Y103363D01*
X525114Y105630D01*
X524265Y80740D01*
D02*
G37*
G36*
X467940Y103667D02*
X468015Y103464D01*
X468140Y103285D01*
X468315Y103130D01*
X468540Y102998D01*
X468814Y102891D01*
X469139Y102807D01*
X469513Y102748D01*
X469938Y102712D01*
X470412Y102700D01*
Y100300D01*
X469938Y100288D01*
X469513Y100252D01*
X469139Y100193D01*
X468814Y100109D01*
X468540Y100002D01*
X468315Y99870D01*
X468140Y99715D01*
X468015Y99536D01*
X467940Y99333D01*
X467915Y99107D01*
Y103893D01*
X467940Y103667D01*
D02*
G37*
G36*
X457095Y99107D02*
X457070Y99333D01*
X456995Y99536D01*
X456870Y99715D01*
X456695Y99870D01*
X456470Y100002D01*
X456196Y100109D01*
X455871Y100193D01*
X455723Y100216D01*
X455576Y100193D01*
X455251Y100109D01*
X454977Y100002D01*
X454752Y99870D01*
X454577Y99715D01*
X454452Y99536D01*
X454377Y99333D01*
X454352Y99107D01*
Y103893D01*
X454377Y103667D01*
X454452Y103464D01*
X454577Y103285D01*
X454752Y103130D01*
X454977Y102998D01*
X455251Y102891D01*
X455576Y102807D01*
X455723Y102784D01*
X455871Y102807D01*
X456196Y102891D01*
X456470Y102998D01*
X456695Y103130D01*
X456870Y103285D01*
X456995Y103464D01*
X457070Y103667D01*
X457095Y103893D01*
Y99107D01*
D02*
G37*
G36*
X400640Y107877D02*
X400614Y108090D01*
X400535Y108281D01*
X400403Y108450D01*
X400219Y108596D01*
X399981Y108719D01*
X399692Y108820D01*
X399349Y108899D01*
X398954Y108955D01*
X398506Y108989D01*
X398005Y109000D01*
Y112000D01*
X398506Y112011D01*
X398954Y112045D01*
X399349Y112101D01*
X399692Y112180D01*
X399981Y112281D01*
X400219Y112404D01*
X400403Y112550D01*
X400535Y112719D01*
X400614Y112910D01*
X400640Y113123D01*
Y107877D01*
D02*
G37*
G36*
X319402Y110379D02*
X319583Y109869D01*
X319883Y109419D01*
X320304Y109029D01*
X320845Y108699D01*
X321507Y108429D01*
X322288Y108219D01*
X323190Y108069D01*
X324212Y107979D01*
X325354Y107949D01*
Y101949D01*
X324212Y101919D01*
X323190Y101829D01*
X322288Y101679D01*
X321507Y101469D01*
X320845Y101199D01*
X320304Y100869D01*
X319883Y100479D01*
X319583Y100029D01*
X319402Y99519D01*
X319342Y98949D01*
Y110949D01*
X319402Y110379D01*
D02*
G37*
G36*
X342668Y98949D02*
X342608Y99519D01*
X342427Y100029D01*
X342127Y100479D01*
X341706Y100869D01*
X341165Y101199D01*
X340504Y101469D01*
X339722Y101679D01*
X338820Y101829D01*
X337798Y101919D01*
X336656Y101949D01*
Y107949D01*
X337798Y107979D01*
X338820Y108069D01*
X339722Y108219D01*
X340504Y108429D01*
X341165Y108699D01*
X341706Y109029D01*
X342127Y109419D01*
X342427Y109869D01*
X342608Y110379D01*
X342668Y110949D01*
Y98949D01*
D02*
G37*
G36*
X443532Y99107D02*
X443507Y99333D01*
X443432Y99536D01*
X443307Y99715D01*
X443132Y99870D01*
X442907Y100002D01*
X442633Y100109D01*
X442308Y100193D01*
X441934Y100252D01*
X441509Y100288D01*
X441035Y100300D01*
Y102700D01*
X441509Y102712D01*
X441934Y102748D01*
X442308Y102807D01*
X442633Y102891D01*
X442907Y102998D01*
X443132Y103130D01*
X443307Y103285D01*
X443432Y103464D01*
X443507Y103667D01*
X443532Y103893D01*
Y99107D01*
D02*
G37*
G36*
X249732Y29002D02*
X249691Y29382D01*
X249568Y29722D01*
X249363Y30021D01*
X249076Y30281D01*
X248707Y30501D01*
X248256Y30680D01*
X247723Y30820D01*
X247108Y30920D01*
X246411Y30980D01*
X245632Y31000D01*
Y35000D01*
X246411Y35020D01*
X247108Y35080D01*
X247723Y35180D01*
X248256Y35320D01*
X248707Y35499D01*
X249076Y35719D01*
X249363Y35979D01*
X249568Y36279D01*
X249691Y36618D01*
X249732Y36998D01*
Y29002D01*
D02*
G37*
G36*
X67904Y33992D02*
X67979Y33140D01*
X68104Y32388D01*
X68279Y31736D01*
X68504Y31185D01*
X68779Y30734D01*
X69104Y30383D01*
X69479Y30132D01*
X69904Y29982D01*
X70379Y29932D01*
X60379D01*
X60854Y29982D01*
X61279Y30132D01*
X61654Y30383D01*
X61979Y30734D01*
X62254Y31185D01*
X62479Y31736D01*
X62654Y32388D01*
X62779Y33140D01*
X62854Y33992D01*
X62879Y34944D01*
X67879D01*
X67904Y33992D01*
D02*
G37*
G36*
X101651Y33182D02*
X101711Y32500D01*
X101811Y31898D01*
X101951Y31376D01*
X102131Y30935D01*
X102351Y30574D01*
X102611Y30293D01*
X102911Y30092D01*
X103251Y29972D01*
X103631Y29932D01*
X95631D01*
X96011Y29972D01*
X96351Y30092D01*
X96651Y30293D01*
X96911Y30574D01*
X97131Y30935D01*
X97311Y31376D01*
X97451Y31898D01*
X97551Y32500D01*
X97611Y33182D01*
X97631Y33944D01*
X101631D01*
X101651Y33182D01*
D02*
G37*
G36*
X102789Y22034D02*
X102546Y21930D01*
X102332Y21758D01*
X102146Y21517D01*
X101988Y21207D01*
X101860Y20829D01*
X101760Y20381D01*
X101688Y19865D01*
X101645Y19280D01*
X101631Y18626D01*
X97631D01*
X97617Y19280D01*
X97502Y20381D01*
X97402Y20829D01*
X97273Y21207D01*
X97116Y21517D01*
X96930Y21758D01*
X96716Y21930D01*
X96473Y22034D01*
X96201Y22068D01*
X103061D01*
X102789Y22034D01*
D02*
G37*
G36*
X107660Y29340D02*
X107944Y29058D01*
X108269Y28810D01*
X108635Y28595D01*
X109044Y28413D01*
X109494Y28265D01*
X109985Y28149D01*
X110518Y28066D01*
X111093Y28016D01*
X111709Y28000D01*
Y24000D01*
X111093Y23983D01*
X110518Y23934D01*
X109985Y23851D01*
X109494Y23735D01*
X109044Y23587D01*
X108635Y23405D01*
X108269Y23190D01*
X107944Y22942D01*
X107660Y22660D01*
X107419Y22346D01*
Y29654D01*
X107660Y29340D01*
D02*
G37*
G36*
X73470Y28539D02*
X73547Y28531D01*
X73855Y28517D01*
X76005Y28500D01*
Y23500D01*
X73445Y23452D01*
Y28548D01*
X73470Y28539D01*
D02*
G37*
G36*
X199223Y49182D02*
X198579Y48482D01*
X198063Y47796D01*
X197674Y47124D01*
X197412Y46467D01*
X197278Y45823D01*
X197271Y45194D01*
X197391Y44579D01*
X197639Y43978D01*
X198013Y43391D01*
X198515Y42818D01*
X195005Y40672D01*
X194418Y41209D01*
X193787Y41690D01*
X193113Y42114D01*
X192395Y42482D01*
X191634Y42793D01*
X190829Y43047D01*
X189981Y43245D01*
X189090Y43387D01*
X188155Y43472D01*
X187177Y43500D01*
X186469Y48500D01*
X187455Y48535D01*
X188411Y48641D01*
X189338Y48818D01*
X190235Y49066D01*
X191103Y49384D01*
X191942Y49773D01*
X192752Y50232D01*
X193532Y50763D01*
X194283Y51364D01*
X195005Y52035D01*
X199223Y49182D01*
D02*
G37*
G36*
X230236Y72699D02*
X232828Y70488D01*
X233358Y70132D01*
X233841Y69856D01*
X234277Y69658D01*
X234665Y69540D01*
X235007Y69500D01*
X233299Y67792D01*
X235005Y66500D01*
Y63500D01*
X233035Y64635D01*
Y63500D01*
X231893Y63470D01*
X230871Y63380D01*
X229969Y63230D01*
X229188Y63020D01*
X228526Y62750D01*
X227985Y62420D01*
X227564Y62030D01*
X227264Y61580D01*
X227083Y61070D01*
X227023Y60500D01*
Y68098D01*
X224591Y69500D01*
X226694Y69557D01*
X227023Y69585D01*
Y72500D01*
X227083Y71930D01*
X227264Y71420D01*
X227564Y70970D01*
X227985Y70580D01*
X228526Y70250D01*
X229119Y70008D01*
X229122Y70009D01*
X229358Y70193D01*
X229446Y70405D01*
X229385Y70645D01*
X229383Y70649D01*
X228055Y72035D01*
X229469Y73450D01*
X230236Y72699D01*
D02*
G37*
G36*
X346708Y73853D02*
X346665Y73768D01*
X346627Y73657D01*
X346595Y73523D01*
X346568Y73364D01*
X346530Y72993D01*
X346568Y72436D01*
X346595Y72277D01*
X346627Y72143D01*
X346665Y72032D01*
X346708Y71947D01*
X346755Y71885D01*
X343255D01*
X343302Y71947D01*
X343345Y72032D01*
X343383Y72143D01*
X343415Y72277D01*
X343443Y72436D01*
X343480Y72807D01*
X343443Y73364D01*
X343415Y73523D01*
X343383Y73657D01*
X343345Y73768D01*
X343302Y73853D01*
X343255Y73915D01*
X346755D01*
X346708Y73853D01*
D02*
G37*
G36*
X318808Y74053D02*
X318765Y73968D01*
X318727Y73857D01*
X318695Y73723D01*
X318668Y73563D01*
X318630Y73193D01*
X318668Y72636D01*
X318695Y72477D01*
X318727Y72343D01*
X318765Y72232D01*
X318808Y72147D01*
X318855Y72085D01*
X315355D01*
X315403Y72147D01*
X315445Y72232D01*
X315482Y72343D01*
X315515Y72477D01*
X315543Y72636D01*
X315580Y73007D01*
X315543Y73563D01*
X315515Y73723D01*
X315482Y73857D01*
X315445Y73968D01*
X315403Y74053D01*
X315355Y74115D01*
X318855D01*
X318808Y74053D01*
D02*
G37*
G36*
X349813Y39307D02*
X337454Y26601D01*
X331138Y38137D01*
X324713D01*
X325772Y39568D01*
X328279Y43398D01*
X328892Y44521D01*
X329394Y45566D01*
X329784Y46535D01*
X330062Y47427D01*
X330230Y48242D01*
X330285Y48980D01*
X332685D01*
X332741Y48242D01*
X332908Y47427D01*
X333149Y46656D01*
X338468Y52002D01*
X340745Y54281D01*
X349813Y39307D01*
D02*
G37*
G36*
X59487Y64272D02*
X59551Y63715D01*
X59661Y63170D01*
X59818Y62636D01*
X60022Y62113D01*
X60272Y61602D01*
X60569Y61103D01*
X60912Y60615D01*
X61301Y60138D01*
X61738Y59673D01*
X58202Y56137D01*
X57737Y56574D01*
X57260Y56963D01*
X56772Y57306D01*
X56273Y57603D01*
X55762Y57853D01*
X55239Y58057D01*
X54705Y58214D01*
X54160Y58324D01*
X53603Y58388D01*
X53035Y58406D01*
X59469Y64841D01*
X59487Y64272D01*
D02*
G37*
G36*
X219987Y61500D02*
X219937Y61975D01*
X219786Y62400D01*
X219536Y62775D01*
X219185Y63100D01*
X218734Y63375D01*
X218182Y63600D01*
X217531Y63775D01*
X216779Y63900D01*
X215927Y63975D01*
X214975Y64000D01*
Y69000D01*
X215927Y69025D01*
X216779Y69100D01*
X217531Y69225D01*
X218182Y69400D01*
X218734Y69625D01*
X219185Y69900D01*
X219536Y70225D01*
X219786Y70600D01*
X219937Y71025D01*
X219987Y71500D01*
Y61500D01*
D02*
G37*
G36*
X356012Y112267D02*
X356037Y112061D01*
X356080Y111858D01*
X356142Y111659D01*
X356222Y111463D01*
X356319Y111269D01*
X356436Y111079D01*
X356570Y110892D01*
X356722Y110707D01*
X356893Y110526D01*
X355479Y109112D01*
X355297Y109283D01*
X355113Y109435D01*
X354926Y109569D01*
X354736Y109686D01*
X354542Y109783D01*
X354346Y109863D01*
X354147Y109925D01*
X353944Y109968D01*
X353738Y109993D01*
X353530Y110000D01*
X356005Y112475D01*
X356012Y112267D01*
D02*
G37*
G36*
X343120Y138790D02*
X342886Y138536D01*
X342680Y138236D01*
X342501Y137889D01*
X342349Y137496D01*
X342225Y137056D01*
X342129Y136570D01*
X342060Y136037D01*
X342019Y135458D01*
X342005Y134832D01*
X338005D01*
X337991Y135458D01*
X337881Y136570D01*
X337785Y137056D01*
X337661Y137496D01*
X337509Y137889D01*
X337330Y138236D01*
X337124Y138536D01*
X336890Y138790D01*
X336628Y138997D01*
X343382D01*
X343120Y138790D01*
D02*
G37*
G36*
X315890Y138810D02*
X315950Y138640D01*
X316051Y138490D01*
X316192Y138360D01*
X316373Y138250D01*
X316594Y138160D01*
X316856Y138090D01*
X317158Y138040D01*
X317499Y138010D01*
X317882Y138000D01*
Y136000D01*
X317499Y135990D01*
X317158Y135960D01*
X316856Y135910D01*
X316594Y135840D01*
X316373Y135750D01*
X316192Y135640D01*
X316051Y135510D01*
X315950Y135360D01*
X315890Y135190D01*
X315870Y135000D01*
Y139000D01*
X315890Y138810D01*
D02*
G37*
G36*
X367506Y141657D02*
X367936D01*
X367854Y141508D01*
X367781Y141319D01*
X367716Y141091D01*
X367660Y140823D01*
X367613Y140516D01*
X367581Y140173D01*
X367619Y139584D01*
X367669Y139313D01*
X367728Y139103D01*
X367796Y138953D01*
X367874Y138864D01*
X367961Y138833D01*
X367509D01*
X367505Y138385D01*
X364505D01*
X364501Y138833D01*
X364050D01*
X364136Y138864D01*
X364213Y138953D01*
X364282Y139103D01*
X364341Y139313D01*
X364391Y139584D01*
X364432Y139913D01*
X364434Y139940D01*
X364397Y140516D01*
X364350Y140823D01*
X364294Y141091D01*
X364229Y141319D01*
X364156Y141508D01*
X364073Y141657D01*
X364502D01*
X364505Y141833D01*
X367505D01*
X367506Y141657D01*
D02*
G37*
G36*
X331057Y134001D02*
X331137Y133039D01*
X331185Y132762D01*
X331244Y132505D01*
X331313Y132270D01*
X331394Y132057D01*
X331485Y131865D01*
X331586Y131694D01*
X328117D01*
X328218Y131865D01*
X328309Y132057D01*
X328390Y132270D01*
X328459Y132505D01*
X328518Y132762D01*
X328566Y133039D01*
X328630Y133659D01*
X328646Y134001D01*
X328651Y134365D01*
X331051D01*
X331057Y134001D01*
D02*
G37*
G36*
X410009Y132500D02*
X409929Y133260D01*
X409689Y133940D01*
X409288Y134540D01*
X408727Y135060D01*
X408006Y135500D01*
X407125Y135860D01*
X406083Y136140D01*
X404881Y136340D01*
X403519Y136460D01*
X401997Y136500D01*
Y144500D01*
X403519Y144540D01*
X404881Y144660D01*
X406083Y144860D01*
X407125Y145140D01*
X408006Y145500D01*
X408727Y145940D01*
X409288Y146460D01*
X409689Y147060D01*
X409929Y147740D01*
X410009Y148500D01*
Y132500D01*
D02*
G37*
G36*
X359509Y137109D02*
X359613Y135484D01*
X359660Y135177D01*
X359716Y134909D01*
X359781Y134681D01*
X359855Y134492D01*
X359936Y134343D01*
X356073D01*
X356155Y134492D01*
X356229Y134681D01*
X356294Y134909D01*
X356350Y135177D01*
X356397Y135484D01*
X356466Y136217D01*
X356501Y137109D01*
X356505Y137615D01*
X359505D01*
X359509Y137109D01*
D02*
G37*
G36*
X367509Y154109D02*
X367613Y152484D01*
X367660Y152177D01*
X367716Y151909D01*
X367781Y151681D01*
X367854Y151492D01*
X367936Y151343D01*
X364169D01*
Y148207D01*
X364134Y148233D01*
X364066Y148257D01*
X363966Y148278D01*
X363833Y148296D01*
X363470Y148324D01*
X362351Y148346D01*
Y151347D01*
X362680Y151348D01*
X364066Y151436D01*
X364134Y151459D01*
X364140Y151464D01*
X364156Y151492D01*
X364229Y151681D01*
X364294Y151909D01*
X364350Y152177D01*
X364397Y152484D01*
X364466Y153217D01*
X364501Y154109D01*
X364505Y154614D01*
X367505D01*
X367509Y154109D01*
D02*
G37*
G36*
X349266Y161261D02*
X349301Y161015D01*
X349358Y160762D01*
X349438Y160503D01*
X349541Y160238D01*
X349666Y159965D01*
X349815Y159686D01*
X350180Y159109D01*
X350397Y158810D01*
X345613D01*
X345830Y159109D01*
X346195Y159686D01*
X346344Y159965D01*
X346469Y160238D01*
X346572Y160503D01*
X346652Y160762D01*
X346709Y161015D01*
X346744Y161261D01*
X346755Y161500D01*
X349255D01*
X349266Y161261D01*
D02*
G37*
G36*
X312513Y164811D02*
X312539Y164527D01*
X312580Y164264D01*
X312639Y164020D01*
X312714Y163797D01*
X312806Y163595D01*
X312915Y163412D01*
X313040Y163250D01*
X313182Y163108D01*
X313341Y162986D01*
X309669D01*
X309828Y163108D01*
X309970Y163250D01*
X310095Y163412D01*
X310204Y163595D01*
X310296Y163797D01*
X310371Y164020D01*
X310430Y164264D01*
X310472Y164527D01*
X310497Y164811D01*
X310505Y165114D01*
X312505D01*
X312513Y164811D01*
D02*
G37*
G36*
X319013Y164811D02*
X319039Y164527D01*
X319080Y164264D01*
X319139Y164020D01*
X319214Y163797D01*
X319306Y163595D01*
X319415Y163412D01*
X319540Y163250D01*
X319682Y163108D01*
X319841Y162986D01*
X316169D01*
X316328Y163108D01*
X316470Y163250D01*
X316595Y163412D01*
X316704Y163595D01*
X316796Y163797D01*
X316871Y164020D01*
X316930Y164264D01*
X316971Y164527D01*
X316997Y164811D01*
X317005Y165115D01*
X319005D01*
X319013Y164811D01*
D02*
G37*
G36*
X313211Y152907D02*
X313094Y152770D01*
X312991Y152603D01*
X312902Y152405D01*
X312827Y152178D01*
X312765Y151920D01*
X312718Y151636D01*
X312751Y151464D01*
X312805Y151263D01*
X312871Y151077D01*
X312949Y150907D01*
X313039Y150751D01*
X313141Y150611D01*
X313255Y150485D01*
X309755D01*
X309869Y150611D01*
X309971Y150751D01*
X310061Y150907D01*
X310139Y151077D01*
X310205Y151263D01*
X310259Y151464D01*
X310293Y151636D01*
X310245Y151920D01*
X310183Y152178D01*
X310108Y152405D01*
X310019Y152603D01*
X309916Y152770D01*
X309799Y152907D01*
X309669Y153014D01*
X313341D01*
X313211Y152907D01*
D02*
G37*
G36*
X319711Y152907D02*
X319594Y152770D01*
X319491Y152603D01*
X319402Y152405D01*
X319327Y152178D01*
X319265Y151920D01*
X319245Y151798D01*
X319251Y151764D01*
X319305Y151563D01*
X319371Y151377D01*
X319449Y151207D01*
X319539Y151051D01*
X319641Y150911D01*
X319755Y150785D01*
X319163D01*
X319155Y150585D01*
X316855D01*
X316851Y150785D01*
X316255D01*
X316369Y150911D01*
X316471Y151051D01*
X316561Y151207D01*
X316639Y151377D01*
X316705Y151563D01*
X316759Y151764D01*
X316765Y151798D01*
X316745Y151920D01*
X316683Y152178D01*
X316608Y152405D01*
X316519Y152603D01*
X316416Y152770D01*
X316299Y152907D01*
X316169Y153014D01*
X319841D01*
X319711Y152907D01*
D02*
G37*
G36*
X341267Y157191D02*
X341305Y156764D01*
X341368Y156387D01*
X341455Y156061D01*
X341567Y155784D01*
X341705Y155558D01*
X341867Y155382D01*
X342055Y155257D01*
X342267Y155181D01*
X342505Y155156D01*
X337505D01*
X337742Y155181D01*
X337955Y155257D01*
X338142Y155382D01*
X338305Y155558D01*
X338442Y155784D01*
X338555Y156061D01*
X338643Y156387D01*
X338705Y156764D01*
X338742Y157191D01*
X338755Y157668D01*
X341255D01*
X341267Y157191D01*
D02*
G37*
G36*
X306712Y123207D02*
X307419Y119672D01*
X307143Y119932D01*
X306878Y120149D01*
X306627Y120322D01*
X306387Y120450D01*
X306160Y120534D01*
X305946Y120574D01*
X305744Y120570D01*
X305554Y120522D01*
X305377Y120429D01*
X305212Y120293D01*
X303798Y121707D01*
X303934Y121872D01*
X304027Y122049D01*
X304075Y122239D01*
X304079Y122441D01*
X304039Y122655D01*
X303955Y122882D01*
X303826Y123122D01*
X303654Y123373D01*
X303437Y123638D01*
X303177Y123914D01*
X306712Y123207D01*
D02*
G37*
G36*
X331502Y128160D02*
X331426Y127987D01*
X331360Y127787D01*
X331302Y127560D01*
X331253Y127306D01*
X331192Y126798D01*
X331227Y126228D01*
X331265Y125981D01*
X331309Y125766D01*
X331360Y125583D01*
X331418Y125432D01*
X331483Y125314D01*
X331424D01*
X331440Y125167D01*
X331515Y124964D01*
X331640Y124785D01*
X331815Y124630D01*
X332040Y124498D01*
X332314Y124391D01*
X332639Y124307D01*
X333013Y124248D01*
X333438Y124212D01*
X333912Y124200D01*
Y121800D01*
X333438Y121788D01*
X333013Y121752D01*
X332639Y121693D01*
X332314Y121609D01*
X332040Y121502D01*
X331815Y121370D01*
X331640Y121215D01*
X331515Y121036D01*
X331440Y120833D01*
X331415Y120607D01*
Y125314D01*
X328401D01*
X328466Y125432D01*
X328524Y125583D01*
X328575Y125766D01*
X328619Y125981D01*
X328657Y126228D01*
X328693Y126620D01*
X328657Y127083D01*
X328609Y127355D01*
X328551Y127589D01*
X328482Y127787D01*
X328403Y127949D01*
X328313Y128075D01*
X328212Y128164D01*
X331586Y128306D01*
X331502Y128160D01*
D02*
G37*
G36*
X337220Y121250D02*
X337104Y121354D01*
X336971Y121448D01*
X336822Y121530D01*
X336656Y121602D01*
X336473Y121662D01*
X336274Y121712D01*
X336058Y121750D01*
X335826Y121778D01*
X335312Y121800D01*
Y124200D01*
X335577Y124206D01*
X336058Y124249D01*
X336274Y124288D01*
X336473Y124337D01*
X336656Y124398D01*
X336822Y124469D01*
X336971Y124552D01*
X337104Y124645D01*
X337220Y124750D01*
Y121250D01*
D02*
G37*
G36*
X336720Y113250D02*
X336567Y113392D01*
X336404Y113520D01*
X336230Y113633D01*
X336046Y113730D01*
X335851Y113812D01*
X335645Y113880D01*
X335428Y113933D01*
X335201Y113970D01*
X334963Y113993D01*
X334714Y114000D01*
Y116000D01*
X334963Y116007D01*
X335201Y116030D01*
X335428Y116068D01*
X335645Y116120D01*
X335851Y116188D01*
X336046Y116270D01*
X336230Y116367D01*
X336404Y116480D01*
X336567Y116607D01*
X336720Y116750D01*
Y113250D01*
D02*
G37*
G36*
X357363Y118619D02*
X357354Y118465D01*
X357369Y118305D01*
X357408Y118141D01*
X357471Y117972D01*
X357558Y117798D01*
X357669Y117619D01*
X357805Y117436D01*
X357964Y117248D01*
X358147Y117055D01*
X355860Y115948D01*
X355666Y116138D01*
X354979Y116731D01*
X354830Y116837D01*
X354558Y117000D01*
X354436Y117056D01*
X354322Y117095D01*
X357396Y118769D01*
X357363Y118619D01*
D02*
G37*
G36*
X297390Y122810D02*
X297450Y122640D01*
X297551Y122490D01*
X297692Y122360D01*
X297873Y122250D01*
X298094Y122160D01*
X298356Y122090D01*
X298657Y122040D01*
X299000Y122010D01*
X299382Y122000D01*
Y120000D01*
X299000Y119990D01*
X298657Y119960D01*
X298356Y119910D01*
X298094Y119840D01*
X297873Y119750D01*
X297692Y119640D01*
X297551Y119510D01*
X297450Y119360D01*
X297390Y119190D01*
X297370Y119000D01*
Y123000D01*
X297390Y122810D01*
D02*
G37*
G36*
X359840Y127501D02*
X359915Y127247D01*
X360059Y127023D01*
X360271Y126829D01*
X360550Y126665D01*
X360898Y126530D01*
X361314Y126426D01*
X361798Y126351D01*
X361980Y126336D01*
X362579Y126393D01*
X362969Y126471D01*
X363299Y126573D01*
X363569Y126696D01*
X363779Y126842D01*
X363930Y127011D01*
X364019Y127202D01*
X364050Y127416D01*
Y122167D01*
X364019Y122380D01*
X363930Y122572D01*
X363779Y122740D01*
X363569Y122886D01*
X363299Y123010D01*
X362969Y123111D01*
X362579Y123190D01*
X362129Y123246D01*
X361619Y123280D01*
X361050Y123291D01*
Y123322D01*
X357638Y123565D01*
X357439Y123685D01*
X357529Y123827D01*
X357908Y123992D01*
X358575Y124178D01*
X359531Y124385D01*
X359832Y127785D01*
X359840Y127501D01*
D02*
G37*
G36*
X387123Y133053D02*
X387399Y132832D01*
X387689Y132637D01*
X387994Y132468D01*
X388312Y132325D01*
X388644Y132208D01*
X388990Y132117D01*
X389350Y132052D01*
X389725Y132013D01*
X390113Y132000D01*
Y129000D01*
X389725Y128987D01*
X389350Y128948D01*
X388990Y128883D01*
X388644Y128792D01*
X388312Y128675D01*
X387994Y128532D01*
X387689Y128363D01*
X387399Y128168D01*
X387123Y127947D01*
X386862Y127700D01*
Y133300D01*
X387123Y133053D01*
D02*
G37*
G36*
X380756Y128167D02*
X380621Y128325D01*
X380454Y128467D01*
X380257Y128592D01*
X380029Y128700D01*
X379769Y128792D01*
X379478Y128867D01*
X379157Y128925D01*
X378804Y128967D01*
X378420Y128992D01*
X378005Y129000D01*
Y132000D01*
X378420Y132008D01*
X379157Y132075D01*
X379478Y132133D01*
X379769Y132208D01*
X380029Y132300D01*
X380257Y132408D01*
X380454Y132533D01*
X380621Y132675D01*
X380756Y132833D01*
Y128167D01*
D02*
G37*
G36*
X321662Y128068D02*
X321513Y128150D01*
X321324Y128224D01*
X321096Y128289D01*
X320828Y128345D01*
X320521Y128392D01*
X320041Y128437D01*
X319882Y128410D01*
X319748Y128377D01*
X319637Y128340D01*
X319552Y128297D01*
X319490Y128250D01*
Y128473D01*
X318896Y128496D01*
X318390Y128500D01*
Y131500D01*
X318896Y131504D01*
X319490Y131542D01*
Y131750D01*
X319552Y131702D01*
X319637Y131660D01*
X319748Y131623D01*
X319882Y131590D01*
X319979Y131573D01*
X320521Y131608D01*
X320828Y131655D01*
X321096Y131711D01*
X321324Y131776D01*
X321513Y131850D01*
X321662Y131931D01*
Y128068D01*
D02*
G37*
G36*
X367990Y127202D02*
X368080Y127011D01*
X368231Y126842D01*
X368441Y126696D01*
X368710Y126573D01*
X369040Y126471D01*
X369430Y126393D01*
X369881Y126336D01*
X370391Y126303D01*
X370960Y126291D01*
Y123291D01*
X370391Y123280D01*
X369430Y123190D01*
X369040Y123111D01*
X368710Y123010D01*
X368441Y122886D01*
X368231Y122740D01*
X368080Y122572D01*
X367990Y122380D01*
X367961Y122167D01*
Y127416D01*
X367990Y127202D01*
D02*
G37*
G36*
X320612Y120560D02*
X320467Y120738D01*
X320286Y120898D01*
X320068Y121039D01*
X319812Y121161D01*
X319519Y121265D01*
X319189Y121350D01*
X318822Y121415D01*
X318418Y121462D01*
X318224Y121470D01*
X317741Y121438D01*
X317582Y121410D01*
X317448Y121378D01*
X317337Y121340D01*
X317252Y121298D01*
X317190Y121250D01*
Y124750D01*
X317252Y124703D01*
X317337Y124660D01*
X317448Y124622D01*
X317582Y124590D01*
X317741Y124563D01*
X318129Y124523D01*
X318822Y124585D01*
X319189Y124651D01*
X319519Y124735D01*
X319812Y124839D01*
X320068Y124961D01*
X320286Y125102D01*
X320467Y125262D01*
X320612Y125441D01*
Y120560D01*
D02*
G37*
G36*
X495681Y142587D02*
X494280Y142084D01*
X493044Y141246D01*
X491972Y140073D01*
X491066Y138566D01*
X490324Y136723D01*
X489747Y134545D01*
X489335Y132032D01*
X489087Y129183D01*
X489005Y126000D01*
X472005D01*
X471923Y129183D01*
X471675Y132032D01*
X471263Y134545D01*
X470686Y136723D01*
X469944Y138566D01*
X469038Y140073D01*
X467966Y141246D01*
X466730Y142084D01*
X465329Y142587D01*
X463763Y142754D01*
X497247D01*
X495681Y142587D01*
D02*
G37*
G36*
X324169Y228610D02*
X324091Y228779D01*
X323994Y228930D01*
X323877Y229064D01*
X323740Y229180D01*
X323583Y229278D01*
X323407Y229358D01*
X323211Y229420D01*
X322995Y229464D01*
X322760Y229491D01*
X322505Y229500D01*
X323505Y231500D01*
X323757Y231503D01*
X324450Y231550D01*
X324661Y231579D01*
X325052Y231654D01*
X325232Y231702D01*
X325561Y231815D01*
X324169Y228610D01*
D02*
G37*
G36*
X245487Y289530D02*
X245472Y289619D01*
X245427Y289699D01*
X245353Y289770D01*
X245250Y289831D01*
X245116Y289883D01*
X244953Y289925D01*
X244761Y289958D01*
X244538Y289981D01*
X244005Y290000D01*
Y292000D01*
X244286Y292005D01*
X244761Y292042D01*
X244953Y292075D01*
X245116Y292117D01*
X245250Y292169D01*
X245353Y292230D01*
X245427Y292301D01*
X245472Y292380D01*
X245487Y292470D01*
Y289530D01*
D02*
G37*
G36*
X391481Y294594D02*
X392003Y294550D01*
X391813Y294545D01*
X391644Y294496D01*
X391494Y294404D01*
X391364Y294268D01*
X391254Y294088D01*
X391165Y293865D01*
X391095Y293598D01*
X391061Y293386D01*
X391080Y293264D01*
X391139Y293020D01*
X391214Y292797D01*
X391306Y292595D01*
X391415Y292412D01*
X391540Y292250D01*
X391682Y292108D01*
X391841Y291986D01*
X388169D01*
X388328Y292108D01*
X388470Y292250D01*
X388595Y292412D01*
X388704Y292595D01*
X388796Y292797D01*
X388871Y293020D01*
X388930Y293264D01*
X388944Y293354D01*
X388694Y293121D01*
X387476Y294732D01*
X387865Y295134D01*
X388477Y295859D01*
X388702Y296182D01*
X388872Y296478D01*
X388987Y296748D01*
X389048Y296991D01*
X389054Y297207D01*
X389006Y297397D01*
X388902Y297560D01*
X391481Y294594D01*
D02*
G37*
G36*
X399113Y298177D02*
X399255Y298035D01*
X399417Y297910D01*
X399600Y297801D01*
X399802Y297709D01*
X400025Y297634D01*
X400269Y297575D01*
X400532Y297533D01*
X400816Y297508D01*
X401120Y297500D01*
Y295500D01*
X400816Y295492D01*
X400532Y295467D01*
X400269Y295425D01*
X400025Y295366D01*
X399802Y295291D01*
X399600Y295199D01*
X399417Y295090D01*
X399255Y294965D01*
X399113Y294823D01*
X399074Y294772D01*
X399071Y294763D01*
X399057Y294683D01*
X399045Y294564D01*
X399018Y293984D01*
X399016Y293781D01*
X399039Y293527D01*
X399080Y293264D01*
X399139Y293020D01*
X399214Y292797D01*
X399306Y292595D01*
X399415Y292412D01*
X399540Y292250D01*
X399682Y292108D01*
X399841Y291986D01*
X396169D01*
X396328Y292108D01*
X396470Y292250D01*
X396595Y292412D01*
X396704Y292595D01*
X396796Y292797D01*
X396871Y293020D01*
X396930Y293264D01*
X396949Y293386D01*
X396915Y293598D01*
X396845Y293865D01*
X396756Y294088D01*
X396646Y294268D01*
X396516Y294404D01*
X396367Y294496D01*
X396197Y294545D01*
X396007Y294550D01*
X398991Y294798D01*
Y298336D01*
X399113Y298177D01*
D02*
G37*
G36*
X232506Y287337D02*
X232618Y285487D01*
X232644Y285404D01*
X230366D01*
X230392Y285487D01*
X230416Y285603D01*
X230437Y285753D01*
X230470Y286149D01*
X230504Y287337D01*
X230505Y287716D01*
X232505D01*
X232506Y287337D01*
D02*
G37*
G36*
X239505Y289000D02*
X239125Y288980D01*
X238785Y288920D01*
X238485Y288820D01*
X238225Y288680D01*
X238005Y288500D01*
X237825Y288280D01*
X237685Y288020D01*
X237585Y287720D01*
X237525Y287380D01*
X237515Y287192D01*
X237618Y285487D01*
X237644Y285404D01*
X235366D01*
X235392Y285487D01*
X235416Y285603D01*
X235437Y285753D01*
X235470Y286149D01*
X235498Y287134D01*
X235485Y287380D01*
X235425Y287720D01*
X235325Y288020D01*
X235185Y288280D01*
X235005Y288500D01*
X234785Y288680D01*
X234525Y288820D01*
X234225Y288920D01*
X233885Y288980D01*
X233505Y289000D01*
X236505Y291000D01*
X239505Y289000D01*
D02*
G37*
G36*
X271815Y287603D02*
X271645Y287543D01*
X271495Y287443D01*
X271365Y287303D01*
X271255Y287123D01*
X271165Y286903D01*
X271095Y286643D01*
X271045Y286343D01*
X271015Y286003D01*
X271005Y285623D01*
X269005D01*
X268995Y286003D01*
X268965Y286343D01*
X268915Y286643D01*
X268845Y286903D01*
X268755Y287123D01*
X268645Y287303D01*
X268515Y287443D01*
X268365Y287543D01*
X268195Y287603D01*
X268005Y287623D01*
X272005D01*
X271815Y287603D01*
D02*
G37*
G36*
X439144Y295294D02*
X439066Y295333D01*
X438956Y295368D01*
X438815Y295399D01*
X438642Y295426D01*
X438201Y295467D01*
X437300Y295498D01*
X436936Y295500D01*
X436903Y297500D01*
X437210Y297508D01*
X437495Y297532D01*
X437759Y297571D01*
X438002Y297626D01*
X438225Y297698D01*
X438425Y297785D01*
X438605Y297888D01*
X438764Y298006D01*
X438901Y298141D01*
X439017Y298291D01*
X439144Y295294D01*
D02*
G37*
G36*
X285815Y305603D02*
X285645Y305543D01*
X285495Y305443D01*
X285365Y305303D01*
X285255Y305123D01*
X285165Y304903D01*
X285095Y304643D01*
X285045Y304343D01*
X285015Y304003D01*
X285005Y303623D01*
X283005D01*
X282995Y304003D01*
X282965Y304343D01*
X282915Y304643D01*
X282845Y304903D01*
X282755Y305123D01*
X282645Y305303D01*
X282515Y305443D01*
X282365Y305543D01*
X282195Y305603D01*
X282005Y305623D01*
X286005D01*
X285815Y305603D01*
D02*
G37*
G36*
X579112Y317193D02*
X579203Y317203D01*
X579259Y317015D01*
X579279Y316630D01*
X579264Y316047D01*
X579008Y313111D01*
X578433Y308397D01*
X568901Y317928D01*
X577698Y318607D01*
X579112Y317193D01*
D02*
G37*
G36*
X228451Y316164D02*
X228272Y316029D01*
X228111Y315876D01*
X227969Y315706D01*
X227846Y315520D01*
X227742Y315315D01*
X227656Y315094D01*
X227590Y314855D01*
X227543Y314599D01*
X227515Y314326D01*
X227505Y314035D01*
X225505D01*
X225501Y314351D01*
X225437Y315181D01*
X225398Y315419D01*
X225295Y315833D01*
X225231Y316011D01*
X225159Y316168D01*
X225077Y316306D01*
X228451Y316164D01*
D02*
G37*
G36*
X443923Y298285D02*
X444090Y298203D01*
X444274Y298132D01*
X444474Y298070D01*
X444690Y298017D01*
X444922Y297974D01*
X445434Y297917D01*
X446110Y297971D01*
X446336Y298012D01*
X446533Y298062D01*
X446699Y298121D01*
X446835Y298190D01*
X446941Y298267D01*
X447017Y298354D01*
Y295441D01*
X446941Y295528D01*
X446835Y295606D01*
X446699Y295674D01*
X446533Y295733D01*
X446336Y295784D01*
X446110Y295825D01*
X445853Y295857D01*
X445482Y295879D01*
X445080Y295851D01*
X444826Y295815D01*
X444600Y295768D01*
X444403Y295711D01*
X444234Y295643D01*
X444094Y295565D01*
X443982Y295477D01*
X443898Y295378D01*
X443772Y298375D01*
X443923Y298285D01*
D02*
G37*
G36*
X454463Y294545D02*
X454443Y294726D01*
X454383Y294888D01*
X454283Y295032D01*
X454143Y295156D01*
X453963Y295261D01*
X453743Y295347D01*
X453483Y295414D01*
X453183Y295462D01*
X453106Y295468D01*
X451832Y295384D01*
X451772Y295357D01*
X451898Y298354D01*
X452022Y298192D01*
X452166Y298046D01*
X452328Y297918D01*
X452510Y297807D01*
X452712Y297713D01*
X452933Y297637D01*
X453174Y297577D01*
X453298Y297556D01*
X453483Y297586D01*
X453743Y297653D01*
X453963Y297739D01*
X454143Y297844D01*
X454283Y297968D01*
X454383Y298112D01*
X454443Y298274D01*
X454463Y298456D01*
Y294545D01*
D02*
G37*
G36*
X271015Y302994D02*
X271045Y302652D01*
X271095Y302351D01*
X271165Y302089D01*
X271255Y301868D01*
X271365Y301687D01*
X271495Y301546D01*
X271645Y301445D01*
X271815Y301385D01*
X272005Y301365D01*
X268005D01*
X268195Y301385D01*
X268365Y301445D01*
X268515Y301546D01*
X268645Y301687D01*
X268755Y301868D01*
X268845Y302089D01*
X268915Y302351D01*
X268965Y302652D01*
X268995Y302994D01*
X269005Y303377D01*
X271005D01*
X271015Y302994D01*
D02*
G37*
G36*
X397564Y278645D02*
X397393Y278467D01*
X397088Y278108D01*
X396954Y277927D01*
X396723Y277561D01*
X396626Y277377D01*
X396542Y277191D01*
X396469Y277005D01*
X396410Y276817D01*
X394736Y279891D01*
X394927Y279844D01*
X395116Y279823D01*
X395306Y279825D01*
X395494Y279852D01*
X395683Y279903D01*
X395870Y279978D01*
X396057Y280078D01*
X396243Y280202D01*
X396429Y280351D01*
X396614Y280523D01*
X397564Y278645D01*
D02*
G37*
G36*
X391682Y281893D02*
X391540Y281755D01*
X391415Y281598D01*
X391306Y281424D01*
X391214Y281231D01*
X391139Y281021D01*
X391080Y280792D01*
X391038Y280546D01*
X391013Y280282D01*
X391005Y280000D01*
X390005D01*
X390712Y279293D01*
X390547Y279125D01*
X390075Y278583D01*
X390004Y278479D01*
X389952Y278388D01*
X389918Y278310D01*
X389903Y278245D01*
X389907Y278193D01*
X388198Y279902D01*
X388250Y279898D01*
X388316Y279913D01*
X388393Y279947D01*
X388484Y279999D01*
X388587Y280070D01*
X388704Y280160D01*
X388975Y280396D01*
X388985Y280405D01*
X388971Y280546D01*
X388930Y280792D01*
X388871Y281021D01*
X388796Y281231D01*
X388704Y281424D01*
X388595Y281598D01*
X388470Y281755D01*
X388328Y281893D01*
X388169Y282014D01*
X391841D01*
X391682Y281893D01*
D02*
G37*
G36*
X399317Y281884D02*
X399252Y281842D01*
X399194Y281772D01*
X399144Y281674D01*
X399101Y281548D01*
X399067Y281394D01*
X399040Y281213D01*
X399020Y281003D01*
X399005Y280500D01*
X397005D01*
X397001Y280766D01*
X396970Y281213D01*
X396943Y281394D01*
X396909Y281548D01*
X396866Y281674D01*
X396816Y281772D01*
X396758Y281842D01*
X396693Y281884D01*
X396620Y281897D01*
X399391D01*
X399317Y281884D01*
D02*
G37*
G36*
X415183Y274654D02*
X415163Y274844D01*
X415102Y275013D01*
X415001Y275164D01*
X414860Y275293D01*
X414679Y275403D01*
X414458Y275494D01*
X414196Y275564D01*
X414033Y275591D01*
X413813Y275551D01*
X413587Y275494D01*
X413387Y275423D01*
X413212Y275340D01*
X413063Y275244D01*
X412940Y275136D01*
X412841Y275014D01*
Y278293D01*
X412940Y278171D01*
X413063Y278063D01*
X413212Y277967D01*
X413387Y277884D01*
X413587Y277813D01*
X413813Y277756D01*
X414057Y277712D01*
X414191Y277726D01*
X414452Y277782D01*
X414672Y277854D01*
X414852Y277942D01*
X414992Y278046D01*
X415092Y278167D01*
X415152Y278303D01*
X415171Y278455D01*
X415183Y274654D01*
D02*
G37*
G36*
X430224Y280073D02*
X430254Y279731D01*
X430304Y279429D01*
X430374Y279168D01*
X430464Y278946D01*
X430574Y278765D01*
X430704Y278625D01*
X430854Y278524D01*
X431024Y278464D01*
X431214Y278444D01*
X427214D01*
X427404Y278464D01*
X427574Y278524D01*
X427724Y278625D01*
X427854Y278765D01*
X427964Y278946D01*
X428054Y279168D01*
X428124Y279429D01*
X428174Y279731D01*
X428204Y280073D01*
X428214Y280455D01*
X430214D01*
X430224Y280073D01*
D02*
G37*
G36*
X237618Y280773D02*
X237594Y280656D01*
X237573Y280507D01*
X237540Y280110D01*
X237506Y278923D01*
X237505Y278544D01*
X235505D01*
X235504Y278923D01*
X235392Y280773D01*
X235366Y280856D01*
X237644D01*
X237618Y280773D01*
D02*
G37*
G36*
X428051Y284413D02*
X428039Y284278D01*
X428071Y284117D01*
X428147Y283929D01*
X428267Y283714D01*
X428432Y283471D01*
X428641Y283202D01*
X429192Y282582D01*
X429534Y282232D01*
X428316Y280621D01*
X427952Y280976D01*
X427041Y281758D01*
X426797Y281925D01*
X426583Y282044D01*
X426400Y282115D01*
X426246Y282140D01*
X426122Y282117D01*
X426028Y282047D01*
X428108Y284520D01*
X428051Y284413D01*
D02*
G37*
G36*
X451268Y287445D02*
X451098Y287385D01*
X450948Y287284D01*
X450818Y287143D01*
X450708Y286962D01*
X450618Y286741D01*
X450548Y286479D01*
X450498Y286178D01*
X450474Y285905D01*
X450488Y285757D01*
X450525Y285530D01*
X450578Y285313D01*
X450645Y285107D01*
X450728Y284912D01*
X450825Y284727D01*
X450938Y284554D01*
X451065Y284390D01*
X451208Y284238D01*
X447708D01*
X447850Y284390D01*
X447978Y284554D01*
X448090Y284727D01*
X448188Y284912D01*
X448270Y285107D01*
X448338Y285313D01*
X448390Y285530D01*
X448428Y285757D01*
X448442Y285905D01*
X448418Y286178D01*
X448368Y286479D01*
X448298Y286741D01*
X448208Y286962D01*
X448098Y287143D01*
X447968Y287284D01*
X447818Y287385D01*
X447648Y287445D01*
X447458Y287465D01*
X451458D01*
X451268Y287445D01*
D02*
G37*
G36*
X443268Y287382D02*
X443098Y287322D01*
X442948Y287221D01*
X442818Y287080D01*
X442708Y286899D01*
X442618Y286678D01*
X442548Y286417D01*
X442498Y286115D01*
X442481Y285923D01*
X442488Y285852D01*
X442525Y285624D01*
X442578Y285408D01*
X442645Y285202D01*
X442728Y285006D01*
X442825Y284822D01*
X442938Y284648D01*
X443065Y284485D01*
X443208Y284333D01*
X439708D01*
X439850Y284485D01*
X439978Y284648D01*
X440090Y284822D01*
X440188Y285006D01*
X440270Y285202D01*
X440338Y285408D01*
X440390Y285624D01*
X440428Y285852D01*
X440435Y285923D01*
X440418Y286115D01*
X440368Y286417D01*
X440298Y286678D01*
X440208Y286899D01*
X440098Y287080D01*
X439968Y287221D01*
X439818Y287322D01*
X439648Y287382D01*
X439458Y287402D01*
X443458D01*
X443268Y287382D01*
D02*
G37*
G36*
X227506Y287337D02*
X227618Y285487D01*
X227644Y285404D01*
X225366D01*
X225392Y285487D01*
X225416Y285603D01*
X225437Y285753D01*
X225470Y286149D01*
X225504Y287337D01*
X225505Y287716D01*
X227505D01*
X227506Y287337D01*
D02*
G37*
G36*
X410912Y281590D02*
X410792Y281737D01*
X410637Y281820D01*
X410445Y281838D01*
X410216Y281792D01*
X409951Y281682D01*
X409651Y281507D01*
X409313Y281268D01*
X408940Y280964D01*
X408083Y280164D01*
X407626Y282535D01*
X407862Y282780D01*
X408274Y283261D01*
X408450Y283497D01*
X408739Y283958D01*
X408853Y284184D01*
X408947Y284407D01*
X409021Y284627D01*
X409073Y284843D01*
X410912Y281590D01*
D02*
G37*
G36*
X412940Y284864D02*
X413063Y284756D01*
X413212Y284660D01*
X413387Y284577D01*
X413587Y284506D01*
X413813Y284449D01*
X414064Y284404D01*
X414340Y284372D01*
X414970Y284347D01*
Y282347D01*
X414642Y282340D01*
X414064Y282289D01*
X413813Y282244D01*
X413587Y282187D01*
X413387Y282116D01*
X413212Y282033D01*
X413063Y281937D01*
X412940Y281828D01*
X412841Y281707D01*
Y284986D01*
X412940Y284864D01*
D02*
G37*
G36*
X418162Y282068D02*
X418064Y282121D01*
X417939Y282169D01*
X417785Y282210D01*
X417603Y282246D01*
X417154Y282302D01*
X416591Y282335D01*
X415916Y282347D01*
X415891Y284347D01*
X416287Y284356D01*
X416640Y284386D01*
X416950Y284436D01*
X417216Y284506D01*
X417439Y284596D01*
X417619Y284706D01*
X417755Y284837D01*
X417847Y284986D01*
X417897Y285156D01*
X417903Y285347D01*
X418162Y282068D01*
D02*
G37*
G36*
X227515Y379625D02*
X227545Y379283D01*
X227595Y378981D01*
X227665Y378720D01*
X227755Y378498D01*
X227865Y378317D01*
X227995Y378176D01*
X228145Y378076D01*
X228315Y378015D01*
X228505Y377995D01*
X224505D01*
X224695Y378015D01*
X224865Y378076D01*
X225015Y378176D01*
X225145Y378317D01*
X225255Y378498D01*
X225345Y378720D01*
X225415Y378981D01*
X225465Y379283D01*
X225495Y379625D01*
X225505Y380007D01*
X227505D01*
X227515Y379625D01*
D02*
G37*
G36*
X271341Y383052D02*
X271270Y382897D01*
X271208Y382723D01*
X271154Y382529D01*
X271109Y382315D01*
X271042Y381827D01*
X271022Y381553D01*
X271019Y381462D01*
X271045Y381167D01*
X271095Y380865D01*
X271165Y380603D01*
X271255Y380382D01*
X271365Y380201D01*
X271495Y380060D01*
X271645Y379960D01*
X271815Y379899D01*
X272005Y379879D01*
X268007Y379878D01*
X268197Y379899D01*
X268367Y379959D01*
X268516Y380060D01*
X268646Y380201D01*
X268756Y380382D01*
X268845Y380603D01*
X268915Y380865D01*
X268965Y381167D01*
X268987Y381423D01*
X268953Y381860D01*
X268912Y382112D01*
X268859Y382336D01*
X268795Y382535D01*
X268720Y382706D01*
X268632Y382850D01*
X268533Y382968D01*
X268423Y383060D01*
X271420Y383186D01*
X271341Y383052D01*
D02*
G37*
G36*
X255520Y387310D02*
X255581Y387140D01*
X255681Y386990D01*
X255822Y386860D01*
X256003Y386750D01*
X256225Y386660D01*
X256486Y386590D01*
X256788Y386540D01*
X257130Y386510D01*
X257512Y386500D01*
Y384500D01*
X257130Y384490D01*
X256788Y384460D01*
X256486Y384410D01*
X256225Y384340D01*
X256003Y384250D01*
X255822Y384140D01*
X255681Y384010D01*
X255581Y383860D01*
X255520Y383690D01*
X255500Y383500D01*
Y387500D01*
X255520Y387310D01*
D02*
G37*
G36*
X272005Y366121D02*
X271815Y366101D01*
X271645Y366040D01*
X271495Y365940D01*
X271365Y365799D01*
X271255Y365618D01*
X271165Y365397D01*
X271095Y365135D01*
X271057Y364908D01*
X271080Y364764D01*
X271139Y364520D01*
X271214Y364297D01*
X271306Y364095D01*
X271415Y363912D01*
X271540Y363750D01*
X271682Y363608D01*
X271841Y363486D01*
X268169D01*
X268328Y363608D01*
X268470Y363750D01*
X268595Y363912D01*
X268704Y364095D01*
X268796Y364297D01*
X268871Y364520D01*
X268930Y364764D01*
X268953Y364908D01*
X268915Y365135D01*
X268845Y365397D01*
X268756Y365618D01*
X268646Y365799D01*
X268516Y365940D01*
X268367Y366041D01*
X268197Y366101D01*
X268007Y366122D01*
X272005Y366121D01*
D02*
G37*
G36*
X228315Y366985D02*
X228145Y366924D01*
X227995Y366824D01*
X227865Y366683D01*
X227755Y366502D01*
X227665Y366280D01*
X227595Y366019D01*
X227582Y365942D01*
X227595Y365865D01*
X227665Y365603D01*
X227755Y365382D01*
X227865Y365201D01*
X227995Y365060D01*
X228145Y364960D01*
X228315Y364899D01*
X228505Y364879D01*
X224507Y364879D01*
X224697Y364899D01*
X224867Y364959D01*
X225016Y365060D01*
X225146Y365200D01*
X225256Y365382D01*
X225345Y365603D01*
X225415Y365865D01*
X225428Y365941D01*
X225415Y366019D01*
X225345Y366280D01*
X225255Y366502D01*
X225145Y366683D01*
X225015Y366824D01*
X224865Y366924D01*
X224695Y366985D01*
X224505Y367005D01*
X228505D01*
X228315Y366985D01*
D02*
G37*
G36*
X251189Y370000D02*
X251159Y370285D01*
X251068Y370540D01*
X250918Y370765D01*
X250707Y370960D01*
X250436Y371125D01*
X250105Y371260D01*
X249713Y371365D01*
X249261Y371440D01*
X248789Y371481D01*
X248142Y371438D01*
X247982Y371410D01*
X247848Y371377D01*
X247737Y371340D01*
X247652Y371298D01*
X247590Y371250D01*
Y374750D01*
X247652Y374703D01*
X247737Y374660D01*
X247848Y374623D01*
X247982Y374590D01*
X248142Y374563D01*
X248534Y374522D01*
X248730Y374515D01*
X248749Y374515D01*
X249261Y374560D01*
X249713Y374635D01*
X250105Y374740D01*
X250436Y374875D01*
X250707Y375040D01*
X250918Y375235D01*
X251068Y375460D01*
X251159Y375715D01*
X251189Y376000D01*
Y370000D01*
D02*
G37*
G36*
X260447Y383500D02*
X260427Y383690D01*
X260366Y383860D01*
X260266Y384010D01*
X260125Y384140D01*
X259944Y384250D01*
X259722Y384340D01*
X259461Y384410D01*
X259159Y384460D01*
X258817Y384490D01*
X258435Y384500D01*
Y386500D01*
X258817Y386510D01*
X259159Y386540D01*
X259461Y386590D01*
X259722Y386660D01*
X259944Y386750D01*
X260125Y386860D01*
X260266Y386990D01*
X260366Y387140D01*
X260427Y387310D01*
X260447Y387500D01*
Y383500D01*
D02*
G37*
G36*
X256510Y404000D02*
X256490Y404190D01*
X256429Y404360D01*
X256329Y404510D01*
X256188Y404640D01*
X256007Y404750D01*
X255785Y404840D01*
X255524Y404910D01*
X255222Y404960D01*
X254880Y404990D01*
X254498Y405000D01*
Y407000D01*
X254880Y407010D01*
X255222Y407040D01*
X255524Y407090D01*
X255785Y407160D01*
X256007Y407250D01*
X256188Y407360D01*
X256329Y407490D01*
X256429Y407640D01*
X256490Y407810D01*
X256510Y408000D01*
Y404000D01*
D02*
G37*
G36*
X267520Y407810D02*
X267581Y407640D01*
X267681Y407490D01*
X267822Y407360D01*
X268003Y407250D01*
X268225Y407160D01*
X268486Y407090D01*
X268788Y407040D01*
X269130Y407010D01*
X269512Y407000D01*
Y405000D01*
X269130Y404990D01*
X268788Y404960D01*
X268486Y404910D01*
X268225Y404840D01*
X268003Y404750D01*
X267822Y404640D01*
X267681Y404510D01*
X267581Y404360D01*
X267520Y404190D01*
X267500Y404000D01*
Y408000D01*
X267520Y407810D01*
D02*
G37*
G36*
X274510Y404000D02*
X274490Y404190D01*
X274429Y404360D01*
X274329Y404510D01*
X274188Y404640D01*
X274007Y404750D01*
X273785Y404840D01*
X273524Y404910D01*
X273222Y404960D01*
X272880Y404990D01*
X272498Y405000D01*
Y407000D01*
X272880Y407010D01*
X273222Y407040D01*
X273524Y407090D01*
X273785Y407160D01*
X274007Y407250D01*
X274188Y407360D01*
X274329Y407490D01*
X274429Y407640D01*
X274490Y407810D01*
X274510Y408000D01*
Y404000D01*
D02*
G37*
G36*
X243969Y389028D02*
X244764Y388344D01*
X245105Y388102D01*
X245407Y387926D01*
X245670Y387817D01*
X245896Y387773D01*
X246083Y387797D01*
X246232Y387887D01*
X246342Y388042D01*
X244510Y384242D01*
X244578Y384440D01*
X244599Y384658D01*
X244573Y384894D01*
X244500Y385149D01*
X244381Y385422D01*
X244215Y385714D01*
X244002Y386025D01*
X243743Y386355D01*
X243437Y386703D01*
X243084Y387070D01*
X243513Y389469D01*
X243969Y389028D01*
D02*
G37*
G36*
X285392Y403535D02*
X285311Y403367D01*
X285239Y403184D01*
X285177Y402984D01*
X285124Y402768D01*
X285081Y402536D01*
X285024Y402023D01*
X285010Y401743D01*
X285005Y401445D01*
X283005D01*
X283000Y401785D01*
X282958Y402378D01*
X282922Y402632D01*
X282875Y402857D01*
X282818Y403055D01*
X282751Y403224D01*
X282673Y403364D01*
X282584Y403476D01*
X282486Y403559D01*
X285483Y403686D01*
X285392Y403535D01*
D02*
G37*
G36*
X225019Y409583D02*
X225062Y409201D01*
X225132Y408830D01*
X225231Y408471D01*
X225359Y408124D01*
X225514Y407788D01*
X225698Y407464D01*
X225910Y407152D01*
X226150Y406852D01*
X226419Y406563D01*
Y403735D01*
X226150Y403983D01*
X225910Y404164D01*
X225698Y404276D01*
X225514Y404320D01*
X225359Y404295D01*
X225231Y404203D01*
X225132Y404041D01*
X225062Y403812D01*
X225019Y403515D01*
X225005Y403149D01*
X223005Y407563D01*
X225005Y409977D01*
X225019Y409583D01*
D02*
G37*
G36*
X207689Y326500D02*
X207659Y326785D01*
X207569Y327040D01*
X207418Y327265D01*
X207207Y327460D01*
X206936Y327625D01*
X206605Y327760D01*
X206213Y327865D01*
X205761Y327940D01*
X205551Y327958D01*
X205242Y327938D01*
X205082Y327910D01*
X204948Y327877D01*
X204837Y327840D01*
X204752Y327798D01*
X204690Y327750D01*
Y328000D01*
X204677Y328000D01*
Y331000D01*
X204690Y331000D01*
Y331250D01*
X204752Y331203D01*
X204837Y331160D01*
X204948Y331122D01*
X205082Y331090D01*
X205242Y331063D01*
X205495Y331037D01*
X205761Y331060D01*
X206213Y331135D01*
X206605Y331240D01*
X206936Y331375D01*
X207207Y331540D01*
X207418Y331735D01*
X207569Y331960D01*
X207659Y332215D01*
X207689Y332500D01*
Y326500D01*
D02*
G37*
G36*
X272005Y336621D02*
X271815Y336601D01*
X271645Y336541D01*
X271495Y336440D01*
X271365Y336299D01*
X271255Y336118D01*
X271165Y335897D01*
X271095Y335635D01*
X271045Y335333D01*
X271015Y334991D01*
X271005Y334609D01*
X269005D01*
X268995Y334991D01*
X268965Y335333D01*
X268915Y335635D01*
X268845Y335897D01*
X268756Y336118D01*
X268646Y336299D01*
X268516Y336440D01*
X268367Y336541D01*
X268197Y336601D01*
X268007Y336621D01*
X272005Y336621D01*
D02*
G37*
G36*
X319043Y338810D02*
X319104Y338640D01*
X319204Y338490D01*
X319345Y338360D01*
X319526Y338250D01*
X319748Y338160D01*
X320009Y338090D01*
X320311Y338040D01*
X320653Y338010D01*
X321035Y338000D01*
Y336000D01*
X320653Y335990D01*
X320311Y335960D01*
X320009Y335910D01*
X319748Y335840D01*
X319526Y335750D01*
X319345Y335640D01*
X319204Y335510D01*
X319104Y335360D01*
X319043Y335190D01*
X319023Y335000D01*
Y339000D01*
X319043Y338810D01*
D02*
G37*
G36*
X235151Y319849D02*
X235339Y319776D01*
X235567Y319711D01*
X235835Y319655D01*
X236143Y319608D01*
X236876Y319539D01*
X236968Y319535D01*
X237368Y319563D01*
X237528Y319590D01*
X237662Y319622D01*
X237773Y319660D01*
X237858Y319703D01*
X237920Y319750D01*
Y319503D01*
X238273Y319500D01*
Y316500D01*
X237920Y316497D01*
Y316250D01*
X237858Y316298D01*
X237773Y316340D01*
X237662Y316377D01*
X237528Y316410D01*
X237368Y316438D01*
X237171Y316458D01*
X236143Y316392D01*
X235835Y316345D01*
X235567Y316289D01*
X235339Y316224D01*
X235151Y316150D01*
X235002Y316069D01*
Y319932D01*
X235151Y319849D01*
D02*
G37*
G36*
X285015Y320994D02*
X285045Y320652D01*
X285095Y320351D01*
X285165Y320089D01*
X285255Y319868D01*
X285365Y319687D01*
X285495Y319546D01*
X285645Y319445D01*
X285815Y319385D01*
X286005Y319365D01*
X282005D01*
X282195Y319385D01*
X282365Y319445D01*
X282515Y319546D01*
X282645Y319687D01*
X282755Y319868D01*
X282845Y320089D01*
X282915Y320351D01*
X282965Y320652D01*
X282995Y320994D01*
X283005Y321377D01*
X285005D01*
X285015Y320994D01*
D02*
G37*
G36*
X228386Y322601D02*
X228216Y322540D01*
X228066Y322440D01*
X227936Y322299D01*
X227826Y322118D01*
X227736Y321897D01*
X227666Y321635D01*
X227618Y321345D01*
X227655Y321125D01*
X227716Y320883D01*
X227795Y320661D01*
X227891Y320458D01*
X228005Y320274D01*
X228136Y320109D01*
X228285Y319963D01*
X228451Y319836D01*
X225077Y319694D01*
X225172Y319851D01*
X225257Y320023D01*
X225332Y320211D01*
X225396Y320415D01*
X225451Y320635D01*
X225496Y320869D01*
X225542Y321265D01*
X225536Y321333D01*
X225486Y321635D01*
X225416Y321897D01*
X225326Y322118D01*
X225216Y322299D01*
X225086Y322440D01*
X224936Y322540D01*
X224766Y322601D01*
X224576Y322621D01*
X228576D01*
X228386Y322601D01*
D02*
G37*
G36*
X580215Y337950D02*
X580045Y337890D01*
X579895Y337790D01*
X579765Y337650D01*
X579655Y337470D01*
X579565Y337250D01*
X579495Y336990D01*
X579445Y336690D01*
X579415Y336350D01*
X579405Y335970D01*
X577405D01*
X577395Y336350D01*
X577365Y336690D01*
X577315Y336990D01*
X577245Y337250D01*
X577155Y337470D01*
X577045Y337650D01*
X576915Y337790D01*
X576765Y337890D01*
X576595Y337950D01*
X576405Y337970D01*
X580405D01*
X580215Y337950D01*
D02*
G37*
G36*
X227586Y351125D02*
X227586Y351121D01*
X228576D01*
X228386Y351101D01*
X228216Y351041D01*
X228066Y350940D01*
X227936Y350799D01*
X227826Y350618D01*
X227736Y350397D01*
X227712Y350308D01*
X227736Y350220D01*
X227826Y349998D01*
X227936Y349817D01*
X228066Y349676D01*
X228216Y349576D01*
X228386Y349515D01*
X228576Y349495D01*
X227586D01*
X227586Y349491D01*
X227576Y349109D01*
X225576D01*
X225566Y349491D01*
X225566Y349495D01*
X224576D01*
X224766Y349515D01*
X224936Y349576D01*
X225086Y349676D01*
X225216Y349817D01*
X225326Y349998D01*
X225416Y350220D01*
X225440Y350308D01*
X225416Y350397D01*
X225326Y350618D01*
X225216Y350799D01*
X225086Y350940D01*
X224936Y351041D01*
X224766Y351101D01*
X224576Y351121D01*
X225566D01*
X225566Y351125D01*
X225576Y351507D01*
X227576D01*
X227586Y351125D01*
D02*
G37*
G36*
X271682Y353392D02*
X271540Y353250D01*
X271415Y353088D01*
X271306Y352905D01*
X271214Y352703D01*
X271139Y352480D01*
X271080Y352236D01*
X271039Y351973D01*
X271028Y351858D01*
X271045Y351667D01*
X271095Y351365D01*
X271165Y351103D01*
X271255Y350882D01*
X271365Y350701D01*
X271495Y350560D01*
X271645Y350460D01*
X271815Y350399D01*
X272005Y350379D01*
X268007Y350378D01*
X268197Y350399D01*
X268367Y350459D01*
X268516Y350560D01*
X268646Y350700D01*
X268756Y350882D01*
X268845Y351103D01*
X268915Y351365D01*
X268965Y351666D01*
X268982Y351857D01*
X268971Y351973D01*
X268930Y352236D01*
X268871Y352480D01*
X268796Y352703D01*
X268704Y352905D01*
X268595Y353088D01*
X268470Y353250D01*
X268328Y353392D01*
X268169Y353514D01*
X271841D01*
X271682Y353392D01*
D02*
G37*
G36*
X207689Y355000D02*
X207659Y355285D01*
X207569Y355540D01*
X207418Y355765D01*
X207207Y355960D01*
X206936Y356125D01*
X206605Y356260D01*
X206213Y356365D01*
X205761Y356440D01*
X205376Y356474D01*
X204842Y356437D01*
X204682Y356410D01*
X204548Y356378D01*
X204437Y356340D01*
X204352Y356297D01*
X204290Y356250D01*
Y359750D01*
X204352Y359702D01*
X204437Y359660D01*
X204548Y359623D01*
X204682Y359590D01*
X204842Y359562D01*
X205234Y359523D01*
X205303Y359520D01*
X205761Y359560D01*
X206213Y359635D01*
X206605Y359740D01*
X206936Y359875D01*
X207207Y360040D01*
X207418Y360235D01*
X207569Y360460D01*
X207659Y360715D01*
X207689Y361000D01*
Y355000D01*
D02*
G37*
G36*
X353456Y340241D02*
X341764Y328549D01*
X341712Y330554D01*
X341812Y333743D01*
X341963Y334928D01*
X342183Y335839D01*
X342470Y336476D01*
X342825Y336841D01*
X343248Y336931D01*
X343739Y336749D01*
X344298Y336293D01*
X345712Y337707D01*
X345256Y338266D01*
X345074Y338757D01*
X345164Y339180D01*
X345529Y339535D01*
X346166Y339822D01*
X347077Y340042D01*
X348262Y340193D01*
X349720Y340277D01*
X353456Y340241D01*
D02*
G37*
G36*
X228315Y338485D02*
X228145Y338424D01*
X227995Y338324D01*
X227865Y338183D01*
X227755Y338002D01*
X227665Y337780D01*
X227595Y337519D01*
X227582Y337442D01*
X227595Y337365D01*
X227665Y337103D01*
X227755Y336882D01*
X227865Y336701D01*
X227995Y336560D01*
X228145Y336459D01*
X228315Y336399D01*
X228505Y336379D01*
X224507Y336379D01*
X224697Y336399D01*
X224867Y336459D01*
X225016Y336560D01*
X225146Y336701D01*
X225256Y336882D01*
X225345Y337103D01*
X225415Y337365D01*
X225428Y337441D01*
X225415Y337519D01*
X225345Y337780D01*
X225255Y338002D01*
X225145Y338183D01*
X225015Y338324D01*
X224865Y338424D01*
X224695Y338485D01*
X224505Y338505D01*
X228505D01*
X228315Y338485D01*
D02*
G37*
G36*
X251189Y340500D02*
X251159Y340785D01*
X251068Y341040D01*
X250918Y341265D01*
X250707Y341460D01*
X250436Y341625D01*
X250105Y341760D01*
X249713Y341865D01*
X249261Y341940D01*
X248920Y341970D01*
X248442Y341937D01*
X248282Y341910D01*
X248148Y341878D01*
X248037Y341840D01*
X247952Y341797D01*
X247890Y341750D01*
Y345250D01*
X247952Y345202D01*
X248037Y345160D01*
X248148Y345123D01*
X248282Y345090D01*
X248442Y345062D01*
X248833Y345023D01*
X248834Y345023D01*
X249261Y345060D01*
X249713Y345135D01*
X250105Y345240D01*
X250436Y345375D01*
X250707Y345540D01*
X250918Y345735D01*
X251068Y345960D01*
X251159Y346215D01*
X251189Y346500D01*
Y340500D01*
D02*
G37*
G36*
X502607Y280600D02*
X502664Y279787D01*
X502715Y279416D01*
X502716Y279409D01*
X502849D01*
X502802Y279348D01*
X502760Y279262D01*
X502752Y279241D01*
X502859Y278746D01*
X502952Y278447D01*
X503060Y278172D01*
X503182Y277921D01*
X503319Y277694D01*
X498880D01*
X499017Y277921D01*
X499139Y278172D01*
X499247Y278447D01*
X499340Y278746D01*
X499420Y279069D01*
X499450Y279232D01*
X499439Y279262D01*
X499397Y279348D01*
X499349Y279409D01*
X499483D01*
X499484Y279416D01*
X499571Y280181D01*
X499592Y280600D01*
X499600Y281042D01*
X502599D01*
X502607Y280600D01*
D02*
G37*
G36*
X323552Y241258D02*
X323541Y241275D01*
X323508Y241290D01*
X323453Y241303D01*
X323376Y241315D01*
X323156Y241332D01*
X322661Y241346D01*
X322451Y241347D01*
Y243347D01*
X322661Y243347D01*
X323508Y243403D01*
X323541Y243418D01*
X323552Y243435D01*
Y241258D01*
D02*
G37*
G36*
X329669Y240707D02*
X329571Y240828D01*
X329447Y240937D01*
X329298Y241033D01*
X329123Y241116D01*
X328923Y241187D01*
X328697Y241244D01*
X328505Y241278D01*
X328313Y241244D01*
X328087Y241187D01*
X327887Y241116D01*
X327712Y241033D01*
X327563Y240937D01*
X327439Y240828D01*
X327341Y240707D01*
Y243986D01*
X327439Y243864D01*
X327563Y243756D01*
X327712Y243660D01*
X327887Y243577D01*
X328087Y243506D01*
X328313Y243449D01*
X328505Y243414D01*
X328697Y243449D01*
X328923Y243506D01*
X329123Y243577D01*
X329298Y243660D01*
X329447Y243756D01*
X329571Y243864D01*
X329669Y243986D01*
Y240707D01*
D02*
G37*
G36*
X339707Y248053D02*
X339665Y247968D01*
X339628Y247857D01*
X339595Y247723D01*
X339567Y247564D01*
X339528Y247171D01*
X339509Y246706D01*
X339509Y246609D01*
X339613Y244984D01*
X339660Y244677D01*
X339716Y244409D01*
X339781Y244181D01*
X339855Y243992D01*
X339936Y243843D01*
X336073D01*
X336156Y243992D01*
X336229Y244181D01*
X336294Y244409D01*
X336350Y244677D01*
X336397Y244984D01*
X336466Y245718D01*
X336501Y246609D01*
X336501Y246697D01*
X336442Y247564D01*
X336415Y247723D01*
X336383Y247857D01*
X336345Y247968D01*
X336302Y248053D01*
X336255Y248115D01*
X339755D01*
X339707Y248053D01*
D02*
G37*
G36*
X415533Y246668D02*
X415738Y246633D01*
X416080Y246602D01*
X417927Y246533D01*
X422305Y246500D01*
Y239500D01*
X415464Y239293D01*
Y246708D01*
X415533Y246668D01*
D02*
G37*
G36*
X295169Y237014D02*
X295071Y237136D01*
X294947Y237244D01*
X294798Y237340D01*
X294623Y237423D01*
X294423Y237494D01*
X294197Y237551D01*
X294005Y237585D01*
X293813Y237551D01*
X293587Y237494D01*
X293387Y237423D01*
X293212Y237340D01*
X293063Y237244D01*
X292939Y237136D01*
X292841Y237014D01*
Y240293D01*
X292939Y240172D01*
X293063Y240063D01*
X293212Y239967D01*
X293387Y239884D01*
X293587Y239813D01*
X293813Y239756D01*
X294005Y239722D01*
X294197Y239756D01*
X294423Y239813D01*
X294623Y239884D01*
X294798Y239967D01*
X294947Y240063D01*
X295071Y240172D01*
X295169Y240293D01*
Y237014D01*
D02*
G37*
G36*
X355210Y241928D02*
X355255Y241447D01*
X355293Y241231D01*
X355343Y241032D01*
X355403Y240849D01*
X355474Y240684D01*
X355557Y240534D01*
X355650Y240402D01*
X355755Y240285D01*
X352255D01*
X352360Y240402D01*
X352453Y240534D01*
X352536Y240684D01*
X352607Y240849D01*
X352667Y241032D01*
X352717Y241231D01*
X352755Y241447D01*
X352783Y241679D01*
X352805Y242193D01*
X355205D01*
X355210Y241928D01*
D02*
G37*
G36*
X369252Y248883D02*
X369297Y248371D01*
X369372Y247919D01*
X369477Y247527D01*
X369612Y247196D01*
X369777Y246925D01*
X369972Y246714D01*
X370197Y246564D01*
X370452Y246473D01*
X370737Y246443D01*
X364737D01*
X365022Y246473D01*
X365277Y246564D01*
X365502Y246714D01*
X365697Y246925D01*
X365862Y247196D01*
X365997Y247527D01*
X366102Y247919D01*
X366177Y248371D01*
X366222Y248883D01*
X366237Y249455D01*
X369237D01*
X369252Y248883D01*
D02*
G37*
G36*
X320708Y253953D02*
X320665Y253868D01*
X320627Y253757D01*
X320595Y253623D01*
X320567Y253464D01*
X320528Y253071D01*
X320508Y252582D01*
X320507Y252553D01*
X320509Y252309D01*
X320613Y250684D01*
X320660Y250377D01*
X320716Y250109D01*
X320781Y249881D01*
X320854Y249692D01*
X320936Y249543D01*
X317073D01*
X317156Y249692D01*
X317229Y249881D01*
X317294Y250109D01*
X317350Y250377D01*
X317397Y250684D01*
X317466Y251417D01*
X317501Y252309D01*
X317503Y252553D01*
X317502Y252582D01*
X317442Y253464D01*
X317415Y253623D01*
X317383Y253757D01*
X317345Y253868D01*
X317302Y253953D01*
X317255Y254015D01*
X320755D01*
X320708Y253953D01*
D02*
G37*
G36*
X369440Y252021D02*
X369397Y251935D01*
X369360Y251825D01*
X369327Y251690D01*
X369300Y251531D01*
X369260Y251139D01*
X369240Y250649D01*
X369237Y250368D01*
X366237D01*
X366235Y250649D01*
X366175Y251531D01*
X366147Y251690D01*
X366115Y251825D01*
X366077Y251935D01*
X366035Y252021D01*
X365987Y252082D01*
X369487D01*
X369440Y252021D01*
D02*
G37*
G36*
X312520Y253595D02*
X312565Y253082D01*
X312640Y252630D01*
X312745Y252238D01*
X312879Y251906D01*
X313044Y251635D01*
X313239Y251423D01*
X313463Y251273D01*
X313718Y251182D01*
X314003Y251152D01*
X308007D01*
X308292Y251182D01*
X308546Y251273D01*
X308771Y251423D01*
X308966Y251635D01*
X309131Y251906D01*
X309265Y252238D01*
X309370Y252630D01*
X309445Y253082D01*
X309490Y253595D01*
X309505Y254168D01*
X312505D01*
X312520Y253595D01*
D02*
G37*
G36*
X292186Y250115D02*
X292505D01*
X292509Y249609D01*
X292613Y247984D01*
X292660Y247677D01*
X292716Y247409D01*
X292781Y247181D01*
X292854Y246992D01*
X292936Y246843D01*
X289073D01*
X289156Y246992D01*
X289229Y247181D01*
X289294Y247409D01*
X289350Y247677D01*
X289397Y247984D01*
X289466Y248717D01*
X289467Y248749D01*
X289452Y248953D01*
X289423Y249119D01*
X289387Y249257D01*
X289344Y249366D01*
X289295Y249447D01*
X289239Y249499D01*
X289176Y249522D01*
X289502Y249744D01*
X289505Y250115D01*
X290045D01*
X291932Y251402D01*
X292186Y250115D01*
D02*
G37*
G36*
X298509Y249609D02*
X298613Y247984D01*
X298660Y247677D01*
X298716Y247409D01*
X298781Y247181D01*
X298854Y246992D01*
X298937Y246843D01*
X295074D01*
X295156Y246992D01*
X295229Y247181D01*
X295294Y247409D01*
X295350Y247677D01*
X295397Y247984D01*
X295466Y248717D01*
X295501Y249609D01*
X295505Y250115D01*
X298505D01*
X298509Y249609D01*
D02*
G37*
G36*
X304211Y249111D02*
X304262Y248404D01*
X304307Y248100D01*
X304364Y247831D01*
X304434Y247594D01*
X304517Y247392D01*
X304612Y247223D01*
X304720Y247088D01*
X304841Y246986D01*
X301169D01*
X301290Y247088D01*
X301398Y247223D01*
X301493Y247392D01*
X301576Y247594D01*
X301646Y247831D01*
X301703Y248100D01*
X301748Y248404D01*
X301799Y249111D01*
X301805Y249515D01*
X304205D01*
X304211Y249111D01*
D02*
G37*
G36*
X368811Y230112D02*
X368669Y230194D01*
X368502Y230267D01*
X368309Y230332D01*
X368090Y230388D01*
X367846Y230435D01*
X367280Y230504D01*
X366959Y230526D01*
X366240Y230543D01*
Y232843D01*
X366624Y232849D01*
X367298Y232901D01*
X367588Y232946D01*
X367847Y233004D01*
X368074Y233074D01*
X368270Y233158D01*
X368434Y233254D01*
X368567Y233364D01*
X368669Y233486D01*
X368811Y230112D01*
D02*
G37*
G36*
X242513Y233661D02*
X242536Y233358D01*
X242575Y233090D01*
X242629Y232858D01*
X242698Y232661D01*
X242783Y232501D01*
X242884Y232376D01*
X243000Y232287D01*
X243131Y232233D01*
X243278Y232215D01*
X239732D01*
X239879Y232233D01*
X240010Y232287D01*
X240126Y232376D01*
X240227Y232501D01*
X240312Y232661D01*
X240381Y232858D01*
X240435Y233090D01*
X240474Y233358D01*
X240497Y233661D01*
X240505Y234000D01*
X242505D01*
X242513Y233661D01*
D02*
G37*
G36*
X338910Y233887D02*
X338825Y233857D01*
X338750Y233806D01*
X338685Y233735D01*
X338630Y233645D01*
X338585Y233533D01*
X338550Y233402D01*
X338525Y233250D01*
X338510Y233078D01*
X338505Y232885D01*
X337505D01*
X337500Y233078D01*
X337485Y233250D01*
X337460Y233402D01*
X337425Y233533D01*
X337380Y233645D01*
X337325Y233735D01*
X337260Y233806D01*
X337185Y233857D01*
X337100Y233887D01*
X337005Y233897D01*
X339005D01*
X338910Y233887D01*
D02*
G37*
G36*
X372443Y233364D02*
X372576Y233254D01*
X372740Y233158D01*
X372936Y233074D01*
X373163Y233004D01*
X373422Y232946D01*
X373712Y232901D01*
X373987Y232873D01*
X374638Y232921D01*
X374898Y232965D01*
X375123Y233019D01*
X375313Y233083D01*
X375467Y233156D01*
X375586Y233239D01*
X375669Y233332D01*
Y230053D01*
X375586Y230147D01*
X375467Y230230D01*
X375313Y230303D01*
X375123Y230367D01*
X374898Y230421D01*
X374637Y230465D01*
X374077Y230517D01*
X373434Y230474D01*
X373164Y230435D01*
X372701Y230332D01*
X372508Y230267D01*
X372341Y230194D01*
X372199Y230112D01*
X372341Y233486D01*
X372443Y233364D01*
D02*
G37*
G36*
X379424Y233239D02*
X379543Y233156D01*
X379697Y233083D01*
X379887Y233019D01*
X380112Y232965D01*
X380373Y232921D01*
X381000Y232862D01*
X381367Y232848D01*
X381770Y232843D01*
Y230543D01*
X381367Y230538D01*
X380373Y230465D01*
X380112Y230421D01*
X379887Y230367D01*
X379697Y230303D01*
X379543Y230230D01*
X379424Y230147D01*
X379341Y230053D01*
Y233332D01*
X379424Y233239D01*
D02*
G37*
G36*
X397756Y233094D02*
X397697Y232966D01*
X397644Y232799D01*
X397599Y232593D01*
X397561Y232348D01*
X397551Y232246D01*
X398724D01*
X398486Y232004D01*
X398086Y231537D01*
X397923Y231312D01*
X397786Y231093D01*
X397674Y230879D01*
X397586Y230671D01*
X397523Y230469D01*
X397486Y230273D01*
X397474Y230082D01*
X396474D01*
X396461Y230273D01*
X396424Y230469D01*
X396361Y230671D01*
X396273Y230879D01*
X396161Y231093D01*
X396024Y231312D01*
X395861Y231537D01*
X395673Y231768D01*
X395223Y232246D01*
X396392D01*
X396386Y232348D01*
X396348Y232593D01*
X396303Y232799D01*
X396250Y232966D01*
X396191Y233094D01*
X396124Y233184D01*
X397823D01*
X397756Y233094D01*
D02*
G37*
G36*
X314418Y235026D02*
X314362Y234867D01*
X314336Y234703D01*
X314340Y234534D01*
X314375Y234361D01*
X314440Y234182D01*
X314535Y233998D01*
X314660Y233809D01*
X314816Y233616D01*
X315002Y233418D01*
X312173D01*
X311873Y233704D01*
X311283Y234181D01*
X310995Y234372D01*
X310710Y234530D01*
X310429Y234657D01*
X310152Y234752D01*
X309879Y234814D01*
X309610Y234845D01*
X309345Y234844D01*
X314504Y235180D01*
X314418Y235026D01*
D02*
G37*
G36*
X320682Y239592D02*
X320540Y239450D01*
X320415Y239288D01*
X320306Y239105D01*
X320214Y238903D01*
X320139Y238680D01*
X320080Y238436D01*
X320039Y238173D01*
X320013Y237889D01*
X320005Y237585D01*
X318005D01*
X317997Y237889D01*
X317971Y238173D01*
X317930Y238436D01*
X317871Y238680D01*
X317796Y238903D01*
X317704Y239105D01*
X317595Y239288D01*
X317470Y239450D01*
X317328Y239592D01*
X317169Y239714D01*
X320841D01*
X320682Y239592D01*
D02*
G37*
G36*
X386445Y240533D02*
X386241Y240460D01*
X386061Y240340D01*
X385905Y240171D01*
X385773Y239954D01*
X385665Y239689D01*
X385581Y239375D01*
X385521Y239013D01*
X385485Y238603D01*
X385473Y238145D01*
X383073D01*
X383061Y238603D01*
X383025Y239013D01*
X382965Y239375D01*
X382881Y239689D01*
X382773Y239954D01*
X382641Y240171D01*
X382485Y240340D01*
X382305Y240460D01*
X382101Y240533D01*
X381873Y240557D01*
X386673D01*
X386445Y240533D01*
D02*
G37*
G36*
X361512Y240543D02*
X361535Y240304D01*
X361573Y240077D01*
X361625Y239860D01*
X361693Y239654D01*
X361775Y239459D01*
X361873Y239275D01*
X361985Y239101D01*
X362112Y238938D01*
X362255Y238785D01*
X358755D01*
X358897Y238938D01*
X359025Y239101D01*
X359138Y239275D01*
X359235Y239459D01*
X359317Y239654D01*
X359385Y239860D01*
X359437Y240077D01*
X359475Y240304D01*
X359497Y240543D01*
X359505Y240791D01*
X361505D01*
X361512Y240543D01*
D02*
G37*
G36*
X298939Y240172D02*
X299063Y240063D01*
X299212Y239967D01*
X299387Y239884D01*
X299587Y239813D01*
X299813Y239756D01*
X300005Y239722D01*
X300197Y239756D01*
X300423Y239813D01*
X300623Y239884D01*
X300798Y239967D01*
X300947Y240063D01*
X301071Y240172D01*
X301169Y240293D01*
Y237014D01*
X304841D01*
X304682Y236892D01*
X304540Y236750D01*
X304415Y236588D01*
X304306Y236405D01*
X304214Y236203D01*
X304139Y235980D01*
X304080Y235736D01*
X304038Y235473D01*
X304013Y235189D01*
X304005Y234885D01*
X302005D01*
X301997Y235189D01*
X301972Y235473D01*
X301930Y235736D01*
X301871Y235980D01*
X301796Y236203D01*
X301704Y236405D01*
X301595Y236588D01*
X301470Y236750D01*
X301328Y236892D01*
X301169Y237014D01*
X301071Y237136D01*
X300947Y237244D01*
X300798Y237340D01*
X300623Y237423D01*
X300423Y237494D01*
X300197Y237551D01*
X300005Y237585D01*
X299813Y237551D01*
X299587Y237494D01*
X299387Y237423D01*
X299212Y237340D01*
X299063Y237244D01*
X298939Y237136D01*
X298841Y237014D01*
Y240293D01*
X298939Y240172D01*
D02*
G37*
G36*
X399146Y239268D02*
X398941Y239196D01*
X398762Y239076D01*
X398605Y238909D01*
X398474Y238692D01*
X398365Y238428D01*
X398282Y238117D01*
X398221Y237756D01*
X398187Y237369D01*
X398223Y236978D01*
X398261Y236762D01*
X398311Y236563D01*
X398372Y236381D01*
X398443Y236215D01*
X398526Y236066D01*
X398619Y235933D01*
X398724Y235817D01*
X395223D01*
X395328Y235933D01*
X395422Y236066D01*
X395504Y236215D01*
X395575Y236381D01*
X395636Y236563D01*
X395686Y236762D01*
X395724Y236978D01*
X395752Y237210D01*
X395759Y237380D01*
X395725Y237756D01*
X395666Y238117D01*
X395582Y238428D01*
X395474Y238692D01*
X395341Y238909D01*
X395185Y239076D01*
X395005Y239196D01*
X394801Y239268D01*
X394573Y239293D01*
X399374D01*
X399146Y239268D01*
D02*
G37*
G36*
X329669Y234014D02*
X333341D01*
X333182Y233892D01*
X333040Y233750D01*
X332915Y233588D01*
X332806Y233405D01*
X332714Y233203D01*
X332639Y232980D01*
X332580Y232736D01*
X332539Y232473D01*
X332513Y232189D01*
X332505Y231886D01*
X330505D01*
X330497Y232189D01*
X330471Y232473D01*
X330430Y232736D01*
X330371Y232980D01*
X330296Y233203D01*
X330204Y233405D01*
X330095Y233588D01*
X329970Y233750D01*
X329828Y233892D01*
X329669Y234014D01*
X329571Y234136D01*
X329447Y234244D01*
X329298Y234340D01*
X329123Y234423D01*
X328923Y234494D01*
X328697Y234551D01*
X328505Y234585D01*
X328313Y234551D01*
X328087Y234494D01*
X327887Y234423D01*
X327712Y234340D01*
X327563Y234244D01*
X327439Y234136D01*
X327341Y234014D01*
Y237293D01*
X327439Y237172D01*
X327563Y237063D01*
X327712Y236967D01*
X327887Y236884D01*
X328087Y236813D01*
X328313Y236756D01*
X328505Y236722D01*
X328697Y236756D01*
X328923Y236813D01*
X329123Y236884D01*
X329298Y236967D01*
X329447Y237063D01*
X329571Y237172D01*
X329669Y237293D01*
Y234014D01*
D02*
G37*
G36*
X247515Y253845D02*
X247545Y253503D01*
X247595Y253201D01*
X247665Y252940D01*
X247755Y252718D01*
X247865Y252537D01*
X247995Y252396D01*
X248145Y252296D01*
X248315Y252235D01*
X248505Y252215D01*
X244505D01*
X244695Y252235D01*
X244865Y252296D01*
X245015Y252396D01*
X245145Y252537D01*
X245255Y252718D01*
X245345Y252940D01*
X245415Y253201D01*
X245465Y253503D01*
X245495Y253845D01*
X245505Y254227D01*
X247505D01*
X247515Y253845D01*
D02*
G37*
G36*
X241169Y268014D02*
X241071Y268136D01*
X240947Y268244D01*
X240798Y268340D01*
X240623Y268423D01*
X240423Y268494D01*
X240197Y268551D01*
X239946Y268596D01*
X239670Y268628D01*
X239040Y268653D01*
Y270654D01*
X239368Y270660D01*
X239946Y270711D01*
X240197Y270756D01*
X240423Y270813D01*
X240623Y270884D01*
X240798Y270967D01*
X240947Y271063D01*
X241071Y271171D01*
X241169Y271293D01*
Y268014D01*
D02*
G37*
G36*
X515147Y277809D02*
X515517Y277639D01*
X515934Y277490D01*
X516398Y277360D01*
X516909Y277250D01*
X518073Y277090D01*
X518726Y277040D01*
X520173Y277000D01*
Y272000D01*
X519426Y271990D01*
X517468Y271840D01*
X516909Y271750D01*
X515934Y271510D01*
X515517Y271360D01*
X515147Y271191D01*
X514824Y271001D01*
Y277999D01*
X515147Y277809D01*
D02*
G37*
G36*
X431722Y277143D02*
X431663Y276962D01*
X431661Y276752D01*
X431716Y276512D01*
X431829Y276244D01*
X431999Y275947D01*
X432226Y275620D01*
X432511Y275265D01*
X433253Y274466D01*
X431761Y273130D01*
X431354Y273523D01*
X430623Y274140D01*
X430299Y274365D01*
X430002Y274535D01*
X429733Y274648D01*
X429492Y274706D01*
X429278Y274708D01*
X429091Y274654D01*
X428932Y274545D01*
X431839Y277295D01*
X431722Y277143D01*
D02*
G37*
G36*
X362140Y265141D02*
X362131Y265403D01*
X362103Y265618D01*
X362057Y265785D01*
X361992Y265905D01*
X361908Y265979D01*
X361806Y266005D01*
X361685Y265984D01*
X361546Y265916D01*
X361388Y265801D01*
X361212Y265639D01*
X360714Y267970D01*
X360985Y268255D01*
X361227Y268539D01*
X361441Y268823D01*
X361627Y269107D01*
X361784Y269390D01*
X361912Y269672D01*
X362012Y269955D01*
X362083Y270236D01*
X362126Y270517D01*
X362140Y270798D01*
Y265141D01*
D02*
G37*
G36*
X244837Y270371D02*
X244775Y270195D01*
X244771Y269989D01*
X244826Y269752D01*
X244939Y269484D01*
X245111Y269186D01*
X245342Y268857D01*
X245631Y268498D01*
X246384Y267689D01*
X244773Y266471D01*
X244371Y266860D01*
X243646Y267473D01*
X243323Y267697D01*
X243027Y267867D01*
X242757Y267982D01*
X242514Y268043D01*
X242298Y268049D01*
X242108Y268001D01*
X241945Y267897D01*
X244958Y270517D01*
X244837Y270371D01*
D02*
G37*
G36*
X503182Y271079D02*
X503060Y270828D01*
X502952Y270553D01*
X502859Y270254D01*
X502779Y269931D01*
X502724Y269632D01*
X502760Y269527D01*
X502802Y269441D01*
X502849Y269380D01*
X502692D01*
X502628Y268819D01*
X502607Y268400D01*
X502599Y267958D01*
X499600D01*
X499592Y268400D01*
X499535Y269213D01*
X499512Y269380D01*
X499349D01*
X499397Y269441D01*
X499439Y269527D01*
X499474Y269630D01*
X499340Y270254D01*
X499247Y270553D01*
X499139Y270828D01*
X499017Y271079D01*
X498880Y271306D01*
X503319D01*
X503182Y271079D01*
D02*
G37*
G36*
X323477Y275846D02*
X323273Y275774D01*
X323093Y275654D01*
X322937Y275486D01*
X322805Y275270D01*
X322697Y275006D01*
X322613Y274694D01*
X322553Y274334D01*
X322517Y273926D01*
X322505Y273470D01*
X320105D01*
X320093Y273926D01*
X320057Y274334D01*
X319997Y274694D01*
X319913Y275006D01*
X319805Y275270D01*
X319673Y275486D01*
X319517Y275654D01*
X319337Y275774D01*
X319133Y275846D01*
X318905Y275870D01*
X323705D01*
X323477Y275846D01*
D02*
G37*
G36*
X222662Y278707D02*
X222682Y278465D01*
X222716Y278250D01*
X222764Y278061D01*
X222825Y277898D01*
X222899Y277761D01*
X222988Y277651D01*
X223089Y277567D01*
X223205Y277509D01*
X223334Y277478D01*
X220578Y275598D01*
X220355Y278500D01*
X222655Y278975D01*
X222662Y278707D01*
D02*
G37*
G36*
X498853Y271502D02*
X498823Y271787D01*
X498733Y272042D01*
X498582Y272266D01*
X498371Y272461D01*
X498099Y272626D01*
X497767Y272760D01*
X497375Y272865D01*
X497042Y272920D01*
X496982Y272910D01*
X496848Y272878D01*
X496737Y272840D01*
X496652Y272797D01*
X496590Y272750D01*
Y272969D01*
X496410Y272985D01*
X495837Y273000D01*
Y276000D01*
X496410Y276015D01*
X496590Y276031D01*
Y276250D01*
X496652Y276203D01*
X496737Y276160D01*
X496848Y276122D01*
X496982Y276090D01*
X497042Y276080D01*
X497375Y276135D01*
X497767Y276240D01*
X498099Y276374D01*
X498371Y276539D01*
X498582Y276734D01*
X498733Y276958D01*
X498823Y277213D01*
X498853Y277498D01*
Y271502D01*
D02*
G37*
G36*
X370603Y275030D02*
X370332Y274745D01*
X370090Y274461D01*
X369876Y274177D01*
X369690Y273893D01*
X369533Y273610D01*
X369405Y273327D01*
X369305Y273045D01*
X369234Y272764D01*
X369191Y272483D01*
X369177Y272202D01*
Y277859D01*
X369191Y277602D01*
X369234Y277402D01*
X369305Y277260D01*
X369405Y277174D01*
X369533Y277146D01*
X369690Y277174D01*
X369876Y277260D01*
X370090Y277402D01*
X370332Y277602D01*
X370603Y277859D01*
Y275030D01*
D02*
G37*
G36*
X543648Y298318D02*
X544203Y298251D01*
X546217Y298141D01*
X559505Y298000D01*
Y281000D01*
X545137Y280650D01*
X545107Y280207D01*
X545005Y274000D01*
X528005D01*
X527598Y282627D01*
X543396D01*
Y298392D01*
X543648Y298318D01*
D02*
G37*
G36*
X465740Y274600D02*
X465720Y274790D01*
X465660Y274960D01*
X465559Y275110D01*
X465418Y275240D01*
X465237Y275350D01*
X465016Y275440D01*
X464754Y275510D01*
X464453Y275560D01*
X464111Y275590D01*
X463728Y275600D01*
Y277600D01*
X464111Y277610D01*
X464453Y277640D01*
X464754Y277690D01*
X465016Y277760D01*
X465237Y277850D01*
X465418Y277960D01*
X465559Y278090D01*
X465660Y278240D01*
X465720Y278410D01*
X465740Y278600D01*
Y274600D01*
D02*
G37*
G36*
X241169Y274707D02*
X241071Y274829D01*
X240947Y274937D01*
X240798Y275033D01*
X240623Y275116D01*
X240423Y275187D01*
X240197Y275244D01*
X239946Y275289D01*
X239670Y275321D01*
X239040Y275346D01*
Y277346D01*
X239368Y277353D01*
X239946Y277404D01*
X240197Y277449D01*
X240423Y277506D01*
X240623Y277577D01*
X240798Y277660D01*
X240947Y277756D01*
X241071Y277864D01*
X241169Y277986D01*
Y274707D01*
D02*
G37*
G36*
X487924Y257231D02*
X483519D01*
X483558Y257321D01*
X483592Y257486D01*
X483622Y257725D01*
X483671Y258427D01*
X483721Y261487D01*
X487721D01*
X487924Y257231D01*
D02*
G37*
G36*
X232618Y259513D02*
X232594Y259397D01*
X232573Y259247D01*
X232540Y258851D01*
X232506Y257663D01*
X232505Y257284D01*
X230505D01*
X230504Y257663D01*
X230392Y259513D01*
X230366Y259596D01*
X232644D01*
X232618Y259513D01*
D02*
G37*
G36*
X298708Y254053D02*
X298665Y253968D01*
X298627Y253857D01*
X298595Y253723D01*
X298568Y253563D01*
X298528Y253171D01*
X298507Y252682D01*
X298505Y252400D01*
X295505D01*
X295502Y252682D01*
X295443Y253563D01*
X295415Y253723D01*
X295382Y253857D01*
X295345Y253968D01*
X295303Y254053D01*
X295255Y254115D01*
X298755D01*
X298708Y254053D01*
D02*
G37*
G36*
X312707Y256053D02*
X312665Y255968D01*
X312628Y255857D01*
X312595Y255723D01*
X312567Y255563D01*
X312527Y255172D01*
X312508Y254682D01*
X312505Y254400D01*
X309505D01*
X309503Y254682D01*
X309442Y255563D01*
X309415Y255723D01*
X309383Y255857D01*
X309345Y255968D01*
X309302Y256053D01*
X309255Y256115D01*
X312755D01*
X312707Y256053D01*
D02*
G37*
G36*
X222661Y257058D02*
X222709Y256580D01*
X222751Y256364D01*
X222805Y256163D01*
X222871Y255977D01*
X222949Y255806D01*
X223039Y255651D01*
X223141Y255511D01*
X223255Y255385D01*
X219755D01*
X219869Y255511D01*
X219971Y255651D01*
X220061Y255806D01*
X220139Y255977D01*
X220205Y256163D01*
X220259Y256364D01*
X220301Y256580D01*
X220331Y256812D01*
X220349Y257058D01*
X220355Y257320D01*
X222655D01*
X222661Y257058D01*
D02*
G37*
G36*
X501795Y260219D02*
X501900Y258931D01*
X502038D01*
X501991Y258870D01*
X501948Y258784D01*
X501933Y258739D01*
X501964Y258560D01*
X502041Y258228D01*
X502133Y257929D01*
X502238Y257664D01*
X502357Y257431D01*
X502491Y257231D01*
X501789D01*
X501789Y257217D01*
X498788D01*
X498788Y257231D01*
X498086D01*
X498220Y257431D01*
X498339Y257664D01*
X498444Y257929D01*
X498536Y258228D01*
X498613Y258560D01*
X498644Y258739D01*
X498629Y258784D01*
X498586Y258870D01*
X498538Y258931D01*
X498677D01*
X498760Y259755D01*
X498781Y260219D01*
X498788Y260717D01*
X501789D01*
X501795Y260219D01*
D02*
G37*
G36*
X453241Y266522D02*
X452960Y266196D01*
X452710Y265809D01*
X452490Y265363D01*
X452300Y264857D01*
X452141Y264291D01*
X452013Y263665D01*
X451915Y262979D01*
X451811Y261426D01*
X451805Y260560D01*
X445865Y266500D01*
X446731Y266506D01*
X448283Y266610D01*
X448970Y266708D01*
X449596Y266836D01*
X450162Y266995D01*
X450668Y267185D01*
X451114Y267405D01*
X451501Y267655D01*
X451827Y267936D01*
X453241Y266522D01*
D02*
G37*
G36*
X504536Y258966D02*
X504475Y259014D01*
X504389Y259056D01*
X504279Y259094D01*
X504144Y259126D01*
X503985Y259154D01*
X503593Y259194D01*
X503356Y259204D01*
X502625Y259154D01*
X502466Y259126D01*
X502331Y259094D01*
X502221Y259056D01*
X502135Y259014D01*
X502074Y258966D01*
Y262467D01*
X502135Y262419D01*
X502221Y262376D01*
X502331Y262339D01*
X502466Y262306D01*
X502625Y262279D01*
X503017Y262239D01*
X503255Y262229D01*
X503985Y262279D01*
X504144Y262306D01*
X504279Y262339D01*
X504389Y262376D01*
X504475Y262419D01*
X504536Y262467D01*
Y258966D01*
D02*
G37*
G36*
X227506Y266077D02*
X227618Y264227D01*
X227644Y264144D01*
X225366D01*
X225392Y264227D01*
X225416Y264344D01*
X225437Y264493D01*
X225470Y264890D01*
X225504Y266077D01*
X225505Y266456D01*
X227505D01*
X227506Y266077D01*
D02*
G37*
G36*
X237559Y260496D02*
X237500Y260316D01*
X237495Y260111D01*
X237544Y259880D01*
X237646Y259624D01*
X237802Y259342D01*
X238012Y259034D01*
X238276Y258700D01*
X238593Y258340D01*
X238964Y257955D01*
X237457Y256633D01*
X236948Y257150D01*
X235699Y258568D01*
X235584Y258760D01*
X235549Y258888D01*
X235592Y258950D01*
X235714Y258948D01*
X235915Y258880D01*
X237672Y260649D01*
X237559Y260496D01*
D02*
G37*
G36*
X495352Y262503D02*
X495437Y262460D01*
X495548Y262422D01*
X495682Y262390D01*
X495842Y262363D01*
X496233Y262322D01*
X496723Y262302D01*
X496934Y262301D01*
X497136Y262302D01*
X498017Y262356D01*
X498176Y262381D01*
X498310Y262410D01*
X498419Y262444D01*
X498503Y262482D01*
X498562Y262525D01*
X498446Y259027D01*
X498384Y259079D01*
X498297Y259125D01*
X498186Y259166D01*
X498051Y259202D01*
X497891Y259232D01*
X497707Y259256D01*
X497267Y259289D01*
X496813Y259298D01*
X496723Y259297D01*
X495842Y259238D01*
X495682Y259210D01*
X495548Y259177D01*
X495437Y259140D01*
X495352Y259098D01*
X495290Y259050D01*
Y262550D01*
X495352Y262503D01*
D02*
G37*
G36*
X440109Y267655D02*
X440496Y267405D01*
X440942Y267185D01*
X441448Y266995D01*
X442014Y266836D01*
X442640Y266708D01*
X443327Y266610D01*
X444879Y266506D01*
X445745Y266500D01*
X439805Y260560D01*
X439799Y261426D01*
X439695Y262979D01*
X439597Y263665D01*
X439469Y264291D01*
X439310Y264857D01*
X439120Y265363D01*
X438900Y265809D01*
X438650Y266196D01*
X438369Y266522D01*
X439783Y267936D01*
X440109Y267655D01*
D02*
G37*
%LPC*%
G36*
X390994Y294734D02*
X390757Y294679D01*
X390707Y294658D01*
X391464Y294595D01*
X391376Y294668D01*
X391200Y294730D01*
X390994Y294734D01*
D02*
G37*
%LPD*%
D10*
X394934Y268429D02*
G03*
X392005Y261358I7071J-7071D01*
G01*
X389076Y227071D02*
G03*
X392005Y234142I-7071J7071D01*
G01*
X417796Y276500D02*
G03*
X417426Y276654I-371J-371D01*
G01*
X440650Y296500D02*
G03*
X441458Y296835I0J1143D01*
G01*
X361505Y199500D02*
X389076Y227071D01*
X392005Y234142D02*
Y261358D01*
X394934Y268429D02*
X409852Y283347D01*
X205305Y96200D02*
X235005Y66500D01*
X411005Y276654D02*
X417426D01*
X270005Y361846D02*
Y385374D01*
X249751Y180157D02*
X259005D01*
X441458Y296835D02*
X441521Y296898D01*
X397352Y296500D02*
X440650D01*
X205305Y182200D02*
X235405Y212300D01*
X205305Y96200D02*
Y182200D01*
X241505Y202500D02*
Y228500D01*
Y202500D02*
X247505Y196500D01*
X245605Y212300D02*
X251605Y218300D01*
Y232100D01*
X241405Y242300D02*
X251605Y232100D01*
X243005Y269654D02*
X246505Y266154D01*
Y248500D02*
Y266154D01*
X241405Y242300D02*
Y254100D01*
X236505Y259000D02*
X241405Y254100D01*
X236505Y259000D02*
Y261870D01*
X348005Y205500D02*
X354505Y199000D01*
X348005Y205500D02*
Y216701D01*
X360505Y266347D02*
X365659Y271500D01*
X360505Y237000D02*
Y266347D01*
X359005Y214500D02*
X364405Y219900D01*
Y227200D01*
X429805Y276500D02*
X445805Y260500D01*
X429214Y276500D02*
X429805D01*
X322451Y242347D02*
X325505D01*
X321459Y241354D02*
X322451Y242347D01*
X319005Y241354D02*
X321459D01*
X270005Y294500D02*
Y342653D01*
X284005Y312500D02*
Y405937D01*
X570005Y309500D02*
X578405Y317900D01*
Y341500D01*
X461905Y276600D02*
X472605D01*
X445805Y260500D02*
X461905Y276600D01*
X345005Y337000D02*
X353005Y329000D01*
X315505Y337000D02*
X345005D01*
X236505Y290000D02*
X243005D01*
X244005Y291000D01*
X249005D01*
X284005Y237000D02*
Y312500D01*
X270005Y244500D02*
Y294500D01*
X258852Y196500D02*
X259005Y196346D01*
Y190000D02*
Y196346D01*
X285505Y174000D02*
X287005Y175500D01*
X285505Y166000D02*
Y174000D01*
X258852Y196500D02*
X279159D01*
X247505D02*
X252159D01*
X241505Y228500D02*
Y234000D01*
X237505Y238000D02*
X241505Y234000D01*
X233505Y238000D02*
X237505D01*
X231505Y240000D02*
X233505Y238000D01*
X231505Y240000D02*
Y261870D01*
X226505D02*
Y268000D01*
X228158Y269654D01*
X243005D01*
X237659Y276346D02*
X243005D01*
X236505Y277500D02*
X237659Y276346D01*
X236505Y277500D02*
Y283130D01*
X231505Y290000D02*
X236505D01*
Y283130D02*
Y290000D01*
X231505Y283130D02*
Y290000D01*
X226505Y317693D02*
X226812Y318000D01*
X226505Y283130D02*
Y317693D01*
X226576Y318236D02*
X226812Y318000D01*
X226576Y318236D02*
Y329500D01*
X226505Y329571D02*
X226576Y329500D01*
X226505Y329571D02*
Y340063D01*
Y347937D02*
X226576Y348008D01*
Y358000D01*
X226505Y358071D02*
X226576Y358000D01*
X226505Y358071D02*
Y368563D01*
X224005Y407563D02*
Y428000D01*
Y389500D02*
Y407563D01*
Y389500D02*
X226505Y387000D01*
Y376437D02*
Y387000D01*
X292505Y213500D02*
X301005D01*
X291005Y215000D02*
X292505Y213500D01*
X285351Y215000D02*
X291005D01*
X270005Y343571D02*
X270076Y343500D01*
X270005Y343571D02*
Y355153D01*
X224005Y407563D02*
X246068Y385500D01*
X253942D02*
X262005D01*
X269879D02*
X270005Y385374D01*
Y244500D02*
X301005Y213500D01*
X224005Y428000D02*
Y443000D01*
Y428000D02*
X246005Y406000D01*
X258068D01*
X265942D02*
X276068D01*
X283942D02*
X284005Y405937D01*
X287505Y188000D02*
X304505D01*
X284005D02*
X287505D01*
X287005Y187500D02*
X287505Y188000D01*
X287005Y175500D02*
Y187500D01*
X303005Y234500D02*
Y238653D01*
X303005D01*
X297005D02*
X303005D01*
X297005Y238653D02*
X297005Y238653D01*
X291005Y238653D02*
X297005D01*
X284005Y237000D02*
X294005Y227000D01*
X307005D01*
X313005Y221000D01*
X303005Y234500D02*
X306005Y231500D01*
X309005D01*
X318005Y222500D01*
X311005Y236000D02*
Y237094D01*
Y236000D02*
X323005Y224000D01*
X303005Y238653D02*
X303005Y238653D01*
X306005Y122500D02*
X313505Y115000D01*
X300005Y128500D02*
X306005Y122500D01*
X304505Y121000D02*
X306005Y122500D01*
X290505Y121000D02*
X304505D01*
X328005Y146000D02*
Y179299D01*
X319005Y137000D02*
X328005Y146000D01*
X309005Y137000D02*
X319005D01*
X313505Y115000D02*
X338505D01*
X300005Y128500D02*
Y182500D01*
X313005Y216701D02*
Y221000D01*
X318005Y216701D02*
Y222500D01*
X323005Y216701D02*
Y224000D01*
X326505Y229500D02*
X328005Y228000D01*
X325505Y230500D02*
X326505Y229500D01*
X303505Y203500D02*
X308005Y208000D01*
Y216701D01*
X298851Y203500D02*
X303505D01*
X325505Y242347D02*
X331505D01*
X328005Y216701D02*
Y228000D01*
X321505Y230500D02*
X325505D01*
X319005Y233000D02*
X321505Y230500D01*
X319005Y233000D02*
Y241354D01*
X325505Y235653D02*
X331505D01*
Y228500D02*
Y235653D01*
Y228500D02*
X333005Y227000D01*
Y216701D02*
Y227000D01*
X311505Y202500D02*
X328005D01*
X335005Y195500D01*
Y187500D02*
Y195500D01*
X333005Y185500D02*
X335005Y187500D01*
X333005Y179299D02*
Y185500D01*
X285852Y203500D02*
X292159D01*
X298851Y203193D02*
Y203500D01*
X292159Y196500D02*
X298851Y203193D01*
X285852Y196500D02*
X292159D01*
X365659Y271500D02*
X390005Y295847D01*
X279159Y196500D02*
Y203500D01*
Y192847D02*
Y196500D01*
Y192847D02*
X284005Y188000D01*
X304505D02*
X308005Y184500D01*
Y179299D02*
Y184500D01*
X325505Y196500D02*
X330005Y192000D01*
X298851Y196500D02*
X325505D01*
X330005Y188000D02*
Y192000D01*
X328005Y186000D02*
X330005Y188000D01*
X328005Y179299D02*
Y186000D01*
X323005Y179299D02*
Y188000D01*
X390005Y295847D02*
X390659Y296500D01*
X311505Y161346D02*
Y168500D01*
X313005Y170000D01*
Y179299D01*
X318005Y161346D02*
Y179299D01*
X353505Y112500D02*
X373005Y93000D01*
X445068D01*
X452942D02*
X459068D01*
X467005D02*
X505005D01*
X511255Y86750D01*
X518255D01*
X409852Y283347D02*
X411005D01*
X394005Y277500D02*
X395005D01*
X398005Y280500D01*
X387505Y277500D02*
X390005Y280000D01*
Y283653D01*
X398005Y280500D02*
Y283653D01*
X390005Y290347D02*
Y295847D01*
X397352Y296500D02*
X398005Y295847D01*
Y290347D02*
Y295847D01*
X441521Y296898D02*
X449458D01*
X449855Y296500D01*
X457088D01*
X449458Y282453D02*
Y289024D01*
X441458Y282547D02*
Y288961D01*
X429214Y276500D02*
Y281138D01*
X426351Y284000D02*
X429214Y281138D01*
X419005Y283347D02*
X419659Y284000D01*
X411005Y283347D02*
X419005D01*
X353005Y179299D02*
Y191000D01*
D11*
X536505Y274000D02*
G03*
X535298Y274500I-1207J-1207D01*
G01*
X512911D02*
X535298D01*
X213005Y66500D02*
X223505D01*
X192505Y46000D02*
X213005Y66500D01*
X96005Y46000D02*
X192505D01*
X76005Y26000D02*
X96005Y46000D01*
X65379Y26000D02*
X76005D01*
X65379D02*
Y52496D01*
X52970Y64906D02*
X65379Y52496D01*
D12*
X578405Y341500D02*
D03*
X472605Y276600D02*
D03*
X321305Y279400D02*
D03*
X290505Y121000D02*
D03*
X309005Y137000D02*
D03*
X285505Y166000D02*
D03*
X385505Y208500D02*
D03*
X407505Y110500D02*
D03*
X385505Y188000D02*
D03*
X533505Y289000D02*
D03*
D13*
X236505Y283130D02*
D03*
X231505D02*
D03*
X226505D02*
D03*
X221505D02*
D03*
X236505Y261870D02*
D03*
X231505D02*
D03*
X226505D02*
D03*
X221505D02*
D03*
D14*
X449458Y296898D02*
D03*
Y289024D02*
D03*
X441458Y296835D02*
D03*
Y288961D02*
D03*
X226505Y376437D02*
D03*
Y368563D02*
D03*
Y347937D02*
D03*
Y340063D02*
D03*
D15*
X512911Y274500D02*
D03*
X501099D02*
D03*
D16*
X384273Y243500D02*
D03*
X367737D02*
D03*
X374470Y169500D02*
D03*
X391005D02*
D03*
D17*
X353005Y216701D02*
D03*
X348005D02*
D03*
X343005D02*
D03*
X338005D02*
D03*
X333005D02*
D03*
X328005D02*
D03*
X323005D02*
D03*
X318005D02*
D03*
X313005D02*
D03*
X308005D02*
D03*
X353005Y179299D02*
D03*
X348005D02*
D03*
X343005D02*
D03*
X338005D02*
D03*
X333005D02*
D03*
X328005D02*
D03*
X323005D02*
D03*
X318005D02*
D03*
X313005D02*
D03*
X308005D02*
D03*
D18*
X249005Y291000D02*
D03*
X284005Y312500D02*
D03*
X270005Y294500D02*
D03*
X315505Y337000D02*
D03*
X365659Y271500D02*
D03*
X223505Y66500D02*
D03*
D19*
X259005Y190000D02*
D03*
Y180157D02*
D03*
D20*
X243059Y180200D02*
D03*
X249751D02*
D03*
X258852Y196500D02*
D03*
X252159D02*
D03*
X233505Y318000D02*
D03*
X226812D02*
D03*
X292159Y203500D02*
D03*
X298851D02*
D03*
X329852Y130000D02*
D03*
X323159D02*
D03*
X285351Y215000D02*
D03*
X278659D02*
D03*
X426351Y284000D02*
D03*
X419659D02*
D03*
X279159Y196500D02*
D03*
X285852D02*
D03*
Y203500D02*
D03*
X279159D02*
D03*
X292159Y196500D02*
D03*
X298851D02*
D03*
X397352Y296500D02*
D03*
X390659D02*
D03*
D21*
X241505Y228500D02*
D03*
D22*
X236505Y248500D02*
D03*
X246505D02*
D03*
D23*
X243005Y269654D02*
D03*
Y276346D02*
D03*
X291005Y238653D02*
D03*
Y245346D02*
D03*
X297005D02*
D03*
Y238653D02*
D03*
X377505Y225000D02*
D03*
Y231693D02*
D03*
X370505Y225153D02*
D03*
Y231846D02*
D03*
X338005Y235653D02*
D03*
Y242347D02*
D03*
X270005Y361846D02*
D03*
Y355153D02*
D03*
X303005Y238653D02*
D03*
Y245346D02*
D03*
X331505Y235653D02*
D03*
Y242347D02*
D03*
X325505D02*
D03*
Y235653D02*
D03*
X319005Y248046D02*
D03*
Y241354D02*
D03*
X318005Y161346D02*
D03*
Y154654D02*
D03*
X311505Y161346D02*
D03*
Y154654D02*
D03*
X366005Y143154D02*
D03*
Y149846D02*
D03*
X358005Y126154D02*
D03*
Y132846D02*
D03*
X411005Y276654D02*
D03*
Y283347D02*
D03*
X390005Y290347D02*
D03*
Y283653D02*
D03*
X398005Y290347D02*
D03*
Y283653D02*
D03*
D24*
X283942Y406000D02*
D03*
X276068D02*
D03*
X269879Y385500D02*
D03*
X262005D02*
D03*
X265942Y406000D02*
D03*
X258068D02*
D03*
X253942Y385500D02*
D03*
X246068D02*
D03*
X329942Y123000D02*
D03*
X322068D02*
D03*
X466442Y101500D02*
D03*
X458568D02*
D03*
X452879D02*
D03*
X445005D02*
D03*
X452942Y93000D02*
D03*
X445068D02*
D03*
X466942D02*
D03*
X459068D02*
D03*
D25*
X311005Y248905D02*
D03*
Y237094D02*
D03*
X340005Y141095D02*
D03*
Y152905D02*
D03*
D26*
X413036Y243000D02*
D03*
X396973D02*
D03*
D27*
X345005Y85551D02*
D03*
Y104449D02*
D03*
X317005Y86051D02*
D03*
Y104949D02*
D03*
D28*
X431005Y140750D02*
D03*
X480505Y159250D02*
D03*
D29*
X421005Y185250D02*
D03*
X441005D02*
D03*
X470505Y203750D02*
D03*
X490505D02*
D03*
D30*
X210434Y329500D02*
D03*
X226576D02*
D03*
X210434Y358000D02*
D03*
X226576D02*
D03*
X270076Y373000D02*
D03*
X253934D02*
D03*
X270076Y343500D02*
D03*
X253934D02*
D03*
D31*
X99631Y26000D02*
D03*
X65379D02*
D03*
D32*
X485721Y226327D02*
D03*
X493005D02*
D03*
X500288D02*
D03*
Y254673D02*
D03*
X493005D02*
D03*
X485721D02*
D03*
D33*
X482769Y240500D02*
D03*
X503241D02*
D03*
D34*
X417796Y276500D02*
D03*
X429214D02*
D03*
X457088Y296500D02*
D03*
X468505D02*
D03*
D35*
X366005Y136209D02*
D03*
Y124791D02*
D03*
D36*
X440505Y203768D02*
D03*
Y237232D02*
D03*
D37*
X369505Y231693D02*
X384198D01*
X391005Y169500D02*
X400005D01*
X318005Y149000D02*
Y154654D01*
X311505Y148700D02*
Y154654D01*
X347498Y231693D02*
X369505D01*
X343005Y227200D02*
X347498Y231693D01*
X353005Y218900D02*
Y221600D01*
X349605Y225000D02*
X353005Y221600D01*
Y216701D02*
Y218900D01*
X356205Y222100D01*
X343005Y216701D02*
Y227200D01*
X221505Y276500D02*
X223005Y275000D01*
X221505Y276500D02*
Y283130D01*
Y253600D02*
Y261870D01*
X384198Y231693D02*
X386505Y234000D01*
X369505Y231693D02*
X369505Y231693D01*
D38*
X385505Y208500D02*
X394005D01*
X385505Y188000D02*
X418255D01*
X421005Y185250D01*
X338005Y216701D02*
Y235653D01*
X396973Y211469D02*
Y234032D01*
X394005Y208500D02*
X396973Y211469D01*
D39*
X359505Y205500D02*
X377505Y223500D01*
Y225000D01*
X354005Y238500D02*
Y244200D01*
X333205Y265000D02*
X354005Y244200D01*
X320905Y265000D02*
X333205D01*
X307005D02*
X320905D01*
X321305Y265400D01*
Y279400D01*
X303005Y261000D02*
X307005Y265000D01*
X303005Y245346D02*
Y261000D01*
X343005Y190500D02*
X348505Y196000D01*
X343005Y179299D02*
Y190500D01*
X372005Y101500D02*
X445005D01*
X355005Y118500D02*
X372005Y101500D01*
X503505D02*
X518255Y86750D01*
X466442Y101500D02*
X503505D01*
X355005Y118500D02*
Y119500D01*
X329942Y123000D02*
X339005D01*
X384273Y236232D02*
Y243500D01*
Y236232D02*
X386505Y234000D01*
X396973Y234032D02*
Y243000D01*
X329852Y135346D02*
X333005Y138500D01*
X329852Y130000D02*
Y135346D01*
Y130000D02*
X329942Y129909D01*
Y123000D02*
Y129909D01*
X338005Y163500D02*
Y179299D01*
X333005Y158500D02*
X338005Y163500D01*
X333005Y138500D02*
Y158500D01*
X452879Y101500D02*
X458568D01*
X331485Y33000D02*
Y48980D01*
X343005Y161500D02*
Y179299D01*
X340005Y158500D02*
X343005Y161500D01*
D40*
X209655Y467350D02*
X246355D01*
D41*
X204005Y473000D02*
X209655Y467350D01*
X246355D02*
X264505Y485500D01*
X268605Y436100D02*
X296005Y463500D01*
X230905Y436100D02*
X268605D01*
X224005Y443000D02*
X230905Y436100D01*
X516005Y310000D02*
X536505Y289500D01*
X395005Y321000D02*
X401505Y327500D01*
X376005Y321000D02*
X395005D01*
X361005D02*
X376005D01*
X353005Y329000D02*
X361005Y321000D01*
X353005Y329000D02*
Y452000D01*
X341505Y463500D02*
X353005Y452000D01*
X296005Y463500D02*
X341505D01*
X178505Y422000D02*
X199505D01*
X202505Y425000D01*
X114005Y422000D02*
X178505D01*
X62005Y370000D02*
X114005Y422000D01*
X62005Y330000D02*
Y370000D01*
X41005Y309000D02*
X62005Y330000D01*
X19505Y309000D02*
X41005D01*
X492805Y323200D02*
X504009D01*
X516005Y310000D02*
Y321000D01*
D42*
X348005Y123000D02*
Y157000D01*
X235005Y66500D02*
X292005D01*
X223505D02*
X235005D01*
X345005Y120000D02*
X348005Y123000D01*
X345005Y104449D02*
Y120000D01*
X344505Y104949D02*
X345005Y104449D01*
X317005Y104949D02*
X344505D01*
X306005Y93949D02*
X317005Y104949D01*
X306005Y80500D02*
Y93949D01*
X292005Y66500D02*
X306005Y80500D01*
D43*
X536505Y260000D02*
Y274000D01*
Y289500D01*
X331485Y33000D02*
X362855Y64370D01*
X406005D01*
X406135Y64500D01*
X496005D01*
X518255Y86750D02*
X534135Y102630D01*
X496005Y64500D02*
X518255Y86750D01*
X534135Y102630D02*
Y116500D01*
X534505Y116870D01*
Y205500D01*
X424405Y245100D02*
X432273Y237232D01*
X421005Y193000D02*
X431773Y203768D01*
X517005Y240500D02*
X536505Y260000D01*
Y289500D02*
X559505D01*
Y309500D02*
X570005D01*
X579505Y300000D01*
Y257500D02*
Y300000D01*
X534505Y212500D02*
X579505Y257500D01*
X534505Y205500D02*
Y212500D01*
X440505Y237232D02*
X460237D01*
X463505Y240500D01*
X479505D01*
X503241D02*
X517005D01*
X440505Y203768D02*
X470487D01*
X470505Y203750D01*
X480505Y126000D02*
Y159250D01*
Y126000D02*
X490005Y116500D01*
X534135D01*
X432273Y237232D02*
X440505D01*
X424405Y245100D02*
Y260500D01*
X421005Y185250D02*
Y193000D01*
X431773Y203768D02*
X440505D01*
D44*
X317705Y130000D02*
X323159D01*
X315405Y123000D02*
X322068D01*
X345005Y70100D02*
Y75700D01*
Y85551D01*
X317105Y70300D02*
Y75900D01*
Y85951D01*
X317005Y86051D02*
X317105Y85951D01*
X272705Y215000D02*
X278659D01*
X354505Y199000D02*
X366005Y187500D01*
Y169500D02*
Y187500D01*
X233505Y318000D02*
X239705D01*
X501099Y274500D02*
Y281194D01*
Y267595D02*
Y274500D01*
X494805D02*
X501099D01*
X493505Y260800D02*
X500205D01*
X500288Y260717D01*
X506321D01*
X500288Y254673D02*
Y260717D01*
X367737Y243500D02*
Y253868D01*
X338005Y242347D02*
Y249900D01*
X319005Y248046D02*
Y255800D01*
X311005Y248905D02*
Y257900D01*
X297005Y245346D02*
Y255900D01*
X289505Y252000D02*
X291005Y250500D01*
Y245346D02*
Y250500D01*
X202905Y329500D02*
X210434D01*
X202505Y358000D02*
X210434D01*
X246105Y343500D02*
X253934D01*
X245805Y373000D02*
X253934D01*
X236605Y180200D02*
X243059D01*
X384005Y130500D02*
X391505D01*
X395505Y126500D01*
Y113000D02*
Y126500D01*
Y113000D02*
X398005Y110500D01*
X407505D01*
X366005Y149846D02*
Y169500D01*
X358005Y126154D02*
X359367Y124791D01*
X366005D01*
X372296D01*
X378005Y130500D01*
X384005D01*
X366005Y136209D02*
Y143154D01*
X358005Y132846D02*
Y145500D01*
X362351Y149846D01*
X366005D01*
D45*
X192505Y46000D02*
X205505Y33000D01*
X256525D01*
X99631Y18626D02*
Y26000D01*
Y34574D01*
Y26000D02*
X113005D01*
X340005Y134500D02*
Y141095D01*
X485721Y254673D02*
Y286283D01*
X475505Y296500D02*
X485721Y286283D01*
X468505Y296500D02*
X475505D01*
D46*
X422305Y243000D02*
X424405Y245100D01*
X413036Y243000D02*
X422305D01*
D47*
X340005Y152905D02*
Y158500D01*
X348005Y161500D02*
Y169000D01*
Y157000D02*
Y161500D01*
Y169000D02*
Y179299D01*
D48*
X366005Y169500D02*
X374470D01*
D49*
X34505Y425980D02*
X64005Y455480D01*
Y473000D01*
D50*
X384005Y140500D02*
X430755D01*
X431005Y140750D01*
D51*
X313805Y379400D02*
D03*
X238505Y143100D02*
D03*
X25005Y475500D02*
D03*
X575005D02*
D03*
Y25000D02*
D03*
X25005D02*
D03*
D52*
X534505Y205500D02*
D03*
X573875D02*
D03*
X496005Y64500D02*
D03*
Y25130D02*
D03*
X534135Y116500D02*
D03*
X573505D02*
D03*
X406005Y64370D02*
D03*
Y25000D02*
D03*
D53*
X516005Y401000D02*
D03*
X376005Y421000D02*
D03*
Y401000D02*
D03*
Y441000D02*
D03*
Y461000D02*
D03*
Y381000D02*
D03*
Y361000D02*
D03*
Y341000D02*
D03*
Y321000D02*
D03*
X516005D02*
D03*
Y341000D02*
D03*
Y361000D02*
D03*
Y381000D02*
D03*
Y461000D02*
D03*
Y441000D02*
D03*
Y421000D02*
D03*
X376005Y481000D02*
D03*
X516005D02*
D03*
D54*
X384005Y150500D02*
D03*
Y140500D02*
D03*
Y130500D02*
D03*
D55*
X256525Y33000D02*
D03*
X331485D02*
D03*
X294005D02*
D03*
D56*
X34505Y425980D02*
D03*
Y351020D02*
D03*
Y388500D02*
D03*
D57*
X64005Y473000D02*
D03*
X204005D02*
D03*
D58*
X491505Y387500D02*
D03*
X401505D02*
D03*
Y407500D02*
D03*
Y427500D02*
D03*
Y447500D02*
D03*
Y367500D02*
D03*
Y347500D02*
D03*
Y327500D02*
D03*
X491505Y367500D02*
D03*
Y347500D02*
D03*
Y327500D02*
D03*
Y407500D02*
D03*
Y427500D02*
D03*
Y447500D02*
D03*
D59*
X70237Y422000D02*
D03*
X178505D02*
D03*
X225135Y485500D02*
D03*
X264505D02*
D03*
X294033D02*
D03*
X323560D02*
D03*
X332273Y443000D02*
D03*
X224005D02*
D03*
D60*
X206505Y429000D02*
D03*
X199025Y399472D02*
D03*
D61*
X19505Y309000D02*
D03*
X98245D02*
D03*
X52970Y64906D02*
D03*
X143521D02*
D03*
D62*
X424405Y260500D02*
D03*
X445805D02*
D03*
X403005D02*
D03*
D63*
X559505Y309500D02*
D03*
Y289500D02*
D03*
D64*
X370505Y225153D02*
D03*
X347910Y151500D02*
D03*
X348005Y161500D02*
D03*
Y169000D02*
D03*
D65*
X317705Y130000D02*
D03*
X315405Y123000D02*
D03*
X345005Y70100D02*
D03*
Y75700D02*
D03*
X317105Y70300D02*
D03*
Y75900D02*
D03*
X235405Y212300D02*
D03*
X245605D02*
D03*
X272705Y215000D02*
D03*
X99631Y18626D02*
D03*
Y34574D02*
D03*
X113005Y26000D02*
D03*
X400005Y169500D02*
D03*
X361505Y199500D02*
D03*
X359505Y205500D02*
D03*
X318005Y149000D02*
D03*
X311505Y148700D02*
D03*
X364405Y227200D02*
D03*
X356205Y222100D02*
D03*
X349605Y225000D02*
D03*
X223005Y275000D02*
D03*
X221505Y253600D02*
D03*
X239705Y318000D02*
D03*
X501099Y281194D02*
D03*
Y267595D02*
D03*
X494805Y274500D02*
D03*
X493505Y260800D02*
D03*
X506321Y260717D02*
D03*
X500288D02*
D03*
X367737Y253868D02*
D03*
X338005Y249900D02*
D03*
X319005Y255800D02*
D03*
X311005Y257900D02*
D03*
X297005Y255900D02*
D03*
X289505Y252000D02*
D03*
X202905Y329500D02*
D03*
X202505Y358000D02*
D03*
X246105Y343500D02*
D03*
X245805Y373000D02*
D03*
X236605Y180200D02*
D03*
X354005Y238500D02*
D03*
X348505Y196000D02*
D03*
X359005Y214500D02*
D03*
X326505Y229500D02*
D03*
X300005Y182500D02*
D03*
X301005Y213500D02*
D03*
X311505Y202500D02*
D03*
X340005Y134500D02*
D03*
X323005Y188000D02*
D03*
X360505Y237000D02*
D03*
X338505Y115000D02*
D03*
X353505Y112500D02*
D03*
X355005Y119500D02*
D03*
X339005Y123000D02*
D03*
X386505Y234000D02*
D03*
X396973Y234032D02*
D03*
X394005Y277500D02*
D03*
X387505D02*
D03*
X449458Y282453D02*
D03*
X441458Y282547D02*
D03*
X353005Y191000D02*
D03*
M02*
