G04 Layer_Color=8388736*
%FSLAX25Y25*%
%MOIN*%
G70*
G01*
G75*
%ADD84R,0.14579X0.07887*%
%ADD85O,0.03162X0.07099*%
G04:AMPARAMS|DCode=86|XSize=59.18mil|YSize=39.5mil|CornerRadius=7.94mil|HoleSize=0mil|Usage=FLASHONLY|Rotation=0.000|XOffset=0mil|YOffset=0mil|HoleType=Round|Shape=RoundedRectangle|*
%AMROUNDEDRECTD86*
21,1,0.05918,0.02362,0,0,0.0*
21,1,0.04331,0.03950,0,0,0.0*
1,1,0.01587,0.02165,-0.01181*
1,1,0.01587,-0.02165,-0.01181*
1,1,0.01587,-0.02165,0.01181*
1,1,0.01587,0.02165,0.01181*
%
%ADD86ROUNDEDRECTD86*%
G04:AMPARAMS|DCode=87|XSize=78.87mil|YSize=53.28mil|CornerRadius=9.66mil|HoleSize=0mil|Usage=FLASHONLY|Rotation=270.000|XOffset=0mil|YOffset=0mil|HoleType=Round|Shape=RoundedRectangle|*
%AMROUNDEDRECTD87*
21,1,0.07887,0.03396,0,0,270.0*
21,1,0.05955,0.05328,0,0,270.0*
1,1,0.01932,-0.01698,-0.02977*
1,1,0.01932,-0.01698,0.02977*
1,1,0.01932,0.01698,0.02977*
1,1,0.01932,0.01698,-0.02977*
%
%ADD87ROUNDEDRECTD87*%
G04:AMPARAMS|DCode=88|XSize=94.61mil|YSize=67.06mil|CornerRadius=11.38mil|HoleSize=0mil|Usage=FLASHONLY|Rotation=0.000|XOffset=0mil|YOffset=0mil|HoleType=Round|Shape=RoundedRectangle|*
%AMROUNDEDRECTD88*
21,1,0.09461,0.04429,0,0,0.0*
21,1,0.07185,0.06706,0,0,0.0*
1,1,0.02276,0.03592,-0.02215*
1,1,0.02276,-0.03592,-0.02215*
1,1,0.02276,-0.03592,0.02215*
1,1,0.02276,0.03592,0.02215*
%
%ADD88ROUNDEDRECTD88*%
%ADD89O,0.03162X0.08280*%
%ADD90R,0.07887X0.14579*%
G04:AMPARAMS|DCode=91|XSize=31.62mil|YSize=35.56mil|CornerRadius=6.95mil|HoleSize=0mil|Usage=FLASHONLY|Rotation=90.000|XOffset=0mil|YOffset=0mil|HoleType=Round|Shape=RoundedRectangle|*
%AMROUNDEDRECTD91*
21,1,0.03162,0.02165,0,0,90.0*
21,1,0.01772,0.03556,0,0,90.0*
1,1,0.01391,0.01083,0.00886*
1,1,0.01391,0.01083,-0.00886*
1,1,0.01391,-0.01083,-0.00886*
1,1,0.01391,-0.01083,0.00886*
%
%ADD91ROUNDEDRECTD91*%
G04:AMPARAMS|DCode=92|XSize=47.37mil|YSize=43.43mil|CornerRadius=8.43mil|HoleSize=0mil|Usage=FLASHONLY|Rotation=90.000|XOffset=0mil|YOffset=0mil|HoleType=Round|Shape=RoundedRectangle|*
%AMROUNDEDRECTD92*
21,1,0.04737,0.02657,0,0,90.0*
21,1,0.03051,0.04343,0,0,90.0*
1,1,0.01686,0.01329,0.01526*
1,1,0.01686,0.01329,-0.01526*
1,1,0.01686,-0.01329,-0.01526*
1,1,0.01686,-0.01329,0.01526*
%
%ADD92ROUNDEDRECTD92*%
%ADD93R,0.08674X0.08280*%
%ADD94R,0.05918X0.08280*%
G04:AMPARAMS|DCode=95|XSize=47.37mil|YSize=43.43mil|CornerRadius=8.43mil|HoleSize=0mil|Usage=FLASHONLY|Rotation=0.000|XOffset=0mil|YOffset=0mil|HoleType=Round|Shape=RoundedRectangle|*
%AMROUNDEDRECTD95*
21,1,0.04737,0.02657,0,0,0.0*
21,1,0.03051,0.04343,0,0,0.0*
1,1,0.01686,0.01526,-0.01329*
1,1,0.01686,-0.01526,-0.01329*
1,1,0.01686,-0.01526,0.01329*
1,1,0.01686,0.01526,0.01329*
%
%ADD95ROUNDEDRECTD95*%
G04:AMPARAMS|DCode=96|XSize=59.18mil|YSize=39.5mil|CornerRadius=7.94mil|HoleSize=0mil|Usage=FLASHONLY|Rotation=90.000|XOffset=0mil|YOffset=0mil|HoleType=Round|Shape=RoundedRectangle|*
%AMROUNDEDRECTD96*
21,1,0.05918,0.02362,0,0,90.0*
21,1,0.04331,0.03950,0,0,90.0*
1,1,0.01587,0.01181,0.02165*
1,1,0.01587,0.01181,-0.02165*
1,1,0.01587,-0.01181,-0.02165*
1,1,0.01587,-0.01181,0.02165*
%
%ADD96ROUNDEDRECTD96*%
G04:AMPARAMS|DCode=97|XSize=78.87mil|YSize=53.28mil|CornerRadius=9.66mil|HoleSize=0mil|Usage=FLASHONLY|Rotation=180.000|XOffset=0mil|YOffset=0mil|HoleType=Round|Shape=RoundedRectangle|*
%AMROUNDEDRECTD97*
21,1,0.07887,0.03396,0,0,180.0*
21,1,0.05955,0.05328,0,0,180.0*
1,1,0.01932,-0.02977,0.01698*
1,1,0.01932,0.02977,0.01698*
1,1,0.01932,0.02977,-0.01698*
1,1,0.01932,-0.02977,-0.01698*
%
%ADD97ROUNDEDRECTD97*%
%ADD98R,0.05682X0.08241*%
%ADD99R,0.05524X0.14186*%
G04:AMPARAMS|DCode=100|XSize=338mil|YSize=428mil|CornerRadius=45.25mil|HoleSize=0mil|Usage=FLASHONLY|Rotation=90.000|XOffset=0mil|YOffset=0mil|HoleType=Round|Shape=RoundedRectangle|*
%AMROUNDEDRECTD100*
21,1,0.33800,0.33750,0,0,90.0*
21,1,0.24750,0.42800,0,0,90.0*
1,1,0.09050,0.16875,0.12375*
1,1,0.09050,0.16875,-0.12375*
1,1,0.09050,-0.16875,-0.12375*
1,1,0.09050,-0.16875,0.12375*
%
%ADD100ROUNDEDRECTD100*%
G04:AMPARAMS|DCode=101|XSize=128mil|YSize=48mil|CornerRadius=9mil|HoleSize=0mil|Usage=FLASHONLY|Rotation=90.000|XOffset=0mil|YOffset=0mil|HoleType=Round|Shape=RoundedRectangle|*
%AMROUNDEDRECTD101*
21,1,0.12800,0.03000,0,0,90.0*
21,1,0.11000,0.04800,0,0,90.0*
1,1,0.01800,0.01500,0.05500*
1,1,0.01800,0.01500,-0.05500*
1,1,0.01800,-0.01500,-0.05500*
1,1,0.01800,-0.01500,0.05500*
%
%ADD101ROUNDEDRECTD101*%
G04:AMPARAMS|DCode=102|XSize=145.79mil|YSize=63.12mil|CornerRadius=10.89mil|HoleSize=0mil|Usage=FLASHONLY|Rotation=270.000|XOffset=0mil|YOffset=0mil|HoleType=Round|Shape=RoundedRectangle|*
%AMROUNDEDRECTD102*
21,1,0.14579,0.04134,0,0,270.0*
21,1,0.12402,0.06312,0,0,270.0*
1,1,0.02178,-0.02067,-0.06201*
1,1,0.02178,-0.02067,0.06201*
1,1,0.02178,0.02067,0.06201*
1,1,0.02178,0.02067,-0.06201*
%
%ADD102ROUNDEDRECTD102*%
G04:AMPARAMS|DCode=103|XSize=86.74mil|YSize=169.42mil|CornerRadius=13.84mil|HoleSize=0mil|Usage=FLASHONLY|Rotation=270.000|XOffset=0mil|YOffset=0mil|HoleType=Round|Shape=RoundedRectangle|*
%AMROUNDEDRECTD103*
21,1,0.08674,0.14173,0,0,270.0*
21,1,0.05905,0.16942,0,0,270.0*
1,1,0.02768,-0.07087,-0.02953*
1,1,0.02768,-0.07087,0.02953*
1,1,0.02768,0.07087,0.02953*
1,1,0.02768,0.07087,-0.02953*
%
%ADD103ROUNDEDRECTD103*%
G04:AMPARAMS|DCode=104|XSize=70.99mil|YSize=55.24mil|CornerRadius=15.81mil|HoleSize=0mil|Usage=FLASHONLY|Rotation=90.000|XOffset=0mil|YOffset=0mil|HoleType=Round|Shape=RoundedRectangle|*
%AMROUNDEDRECTD104*
21,1,0.07099,0.02362,0,0,90.0*
21,1,0.03937,0.05524,0,0,90.0*
1,1,0.03162,0.01181,0.01968*
1,1,0.03162,0.01181,-0.01968*
1,1,0.03162,-0.01181,-0.01968*
1,1,0.03162,-0.01181,0.01968*
%
%ADD104ROUNDEDRECTD104*%
G04:AMPARAMS|DCode=105|XSize=126.11mil|YSize=106.42mil|CornerRadius=28.61mil|HoleSize=0mil|Usage=FLASHONLY|Rotation=90.000|XOffset=0mil|YOffset=0mil|HoleType=Round|Shape=RoundedRectangle|*
%AMROUNDEDRECTD105*
21,1,0.12611,0.04921,0,0,90.0*
21,1,0.06890,0.10642,0,0,90.0*
1,1,0.05721,0.02461,0.03445*
1,1,0.05721,0.02461,-0.03445*
1,1,0.05721,-0.02461,-0.03445*
1,1,0.05721,-0.02461,0.03445*
%
%ADD105ROUNDEDRECTD105*%
%ADD106R,0.06076X0.04737*%
%ADD107R,0.04737X0.06076*%
G04:AMPARAMS|DCode=108|XSize=130.05mil|YSize=126.11mil|CornerRadius=33.53mil|HoleSize=0mil|Usage=FLASHONLY|Rotation=180.000|XOffset=0mil|YOffset=0mil|HoleType=Round|Shape=RoundedRectangle|*
%AMROUNDEDRECTD108*
21,1,0.13005,0.05905,0,0,180.0*
21,1,0.06299,0.12611,0,0,180.0*
1,1,0.06706,-0.03150,0.02953*
1,1,0.06706,0.03150,0.02953*
1,1,0.06706,0.03150,-0.02953*
1,1,0.06706,-0.03150,-0.02953*
%
%ADD108ROUNDEDRECTD108*%
%ADD109C,0.45370*%
%ADD110C,0.14579*%
%ADD111O,0.16548X0.12611*%
%ADD112C,0.08800*%
%ADD113O,0.14579X0.20485*%
%ADD114O,0.20485X0.14579*%
%ADD115O,0.15800X0.10800*%
%ADD116O,0.15800X0.11800*%
%ADD117O,0.09800X0.13800*%
%ADD118C,0.08674*%
%ADD119C,0.13800*%
%ADD120C,0.12800*%
%ADD121O,0.11800X0.08800*%
D84*
X578405Y341500D02*
D03*
X472605Y276600D02*
D03*
X321305Y279400D02*
D03*
X290505Y121000D02*
D03*
X309005Y137000D02*
D03*
X285505Y166000D02*
D03*
X385505Y208500D02*
D03*
X407505Y110500D02*
D03*
X385505Y188000D02*
D03*
X533505Y289000D02*
D03*
D85*
X236505Y283130D02*
D03*
X231505D02*
D03*
X226505D02*
D03*
X221505D02*
D03*
X236505Y261870D02*
D03*
X231505D02*
D03*
X226505D02*
D03*
X221505D02*
D03*
D86*
X449458Y296898D02*
D03*
Y289024D02*
D03*
X441458Y296835D02*
D03*
Y288961D02*
D03*
X226505Y376437D02*
D03*
Y368563D02*
D03*
Y347937D02*
D03*
Y340063D02*
D03*
D87*
X512911Y274500D02*
D03*
X501099D02*
D03*
D88*
X384273Y243500D02*
D03*
X367737D02*
D03*
X374470Y169500D02*
D03*
X391005D02*
D03*
D89*
X353005Y216701D02*
D03*
X348005D02*
D03*
X343005D02*
D03*
X338005D02*
D03*
X333005D02*
D03*
X328005D02*
D03*
X323005D02*
D03*
X318005D02*
D03*
X313005D02*
D03*
X308005D02*
D03*
X353005Y179299D02*
D03*
X348005D02*
D03*
X343005D02*
D03*
X338005D02*
D03*
X333005D02*
D03*
X328005D02*
D03*
X323005D02*
D03*
X318005D02*
D03*
X313005D02*
D03*
X308005D02*
D03*
D90*
X249005Y291000D02*
D03*
X284005Y312500D02*
D03*
X270005Y294500D02*
D03*
X315505Y337000D02*
D03*
X365659Y271500D02*
D03*
X223505Y66500D02*
D03*
D91*
X259005Y190000D02*
D03*
Y180157D02*
D03*
D92*
X243059Y180200D02*
D03*
X249751D02*
D03*
X258852Y196500D02*
D03*
X252159D02*
D03*
X233505Y318000D02*
D03*
X226812D02*
D03*
X292159Y203500D02*
D03*
X298851D02*
D03*
X329852Y130000D02*
D03*
X323159D02*
D03*
X285351Y215000D02*
D03*
X278659D02*
D03*
X426351Y284000D02*
D03*
X419659D02*
D03*
X279159Y196500D02*
D03*
X285852D02*
D03*
Y203500D02*
D03*
X279159D02*
D03*
X292159Y196500D02*
D03*
X298851D02*
D03*
X397352Y296500D02*
D03*
X390659D02*
D03*
D93*
X241505Y228500D02*
D03*
D94*
X236505Y248500D02*
D03*
X246505D02*
D03*
D95*
X243005Y269654D02*
D03*
Y276346D02*
D03*
X291005Y238653D02*
D03*
Y245346D02*
D03*
X297005D02*
D03*
Y238653D02*
D03*
X377505Y225000D02*
D03*
Y231693D02*
D03*
X370505Y225153D02*
D03*
Y231846D02*
D03*
X338005Y235653D02*
D03*
Y242347D02*
D03*
X270005Y361846D02*
D03*
Y355153D02*
D03*
X303005Y238653D02*
D03*
Y245346D02*
D03*
X331505Y235653D02*
D03*
Y242347D02*
D03*
X325505D02*
D03*
Y235653D02*
D03*
X319005Y248046D02*
D03*
Y241354D02*
D03*
X318005Y161346D02*
D03*
Y154654D02*
D03*
X311505Y161346D02*
D03*
Y154654D02*
D03*
X366005Y143154D02*
D03*
Y149846D02*
D03*
X358005Y126154D02*
D03*
Y132846D02*
D03*
X411005Y276654D02*
D03*
Y283347D02*
D03*
X390005Y290347D02*
D03*
Y283653D02*
D03*
X398005Y290347D02*
D03*
Y283653D02*
D03*
D96*
X283942Y406000D02*
D03*
X276068D02*
D03*
X269879Y385500D02*
D03*
X262005D02*
D03*
X265942Y406000D02*
D03*
X258068D02*
D03*
X253942Y385500D02*
D03*
X246068D02*
D03*
X329942Y123000D02*
D03*
X322068D02*
D03*
X466442Y101500D02*
D03*
X458568D02*
D03*
X452879D02*
D03*
X445005D02*
D03*
X452942Y93000D02*
D03*
X445068D02*
D03*
X466942D02*
D03*
X459068D02*
D03*
D97*
X311005Y248905D02*
D03*
Y237094D02*
D03*
X340005Y141095D02*
D03*
Y152905D02*
D03*
D98*
X413036Y243000D02*
D03*
X396973D02*
D03*
D99*
X345005Y85551D02*
D03*
Y104449D02*
D03*
X317005Y86051D02*
D03*
Y104949D02*
D03*
D100*
X431005Y140750D02*
D03*
X480505Y159250D02*
D03*
D101*
X421005Y185250D02*
D03*
X441005D02*
D03*
X470505Y203750D02*
D03*
X490505D02*
D03*
D102*
X210434Y329500D02*
D03*
X226576D02*
D03*
X210434Y358000D02*
D03*
X226576D02*
D03*
X270076Y373000D02*
D03*
X253934D02*
D03*
X270076Y343500D02*
D03*
X253934D02*
D03*
D103*
X99631Y26000D02*
D03*
X65379D02*
D03*
D104*
X485721Y226327D02*
D03*
X493005D02*
D03*
X500288D02*
D03*
Y254673D02*
D03*
X493005D02*
D03*
X485721D02*
D03*
D105*
X482769Y240500D02*
D03*
X503241D02*
D03*
D106*
X417796Y276500D02*
D03*
X429214D02*
D03*
X457088Y296500D02*
D03*
X468505D02*
D03*
D107*
X366005Y136209D02*
D03*
Y124791D02*
D03*
D108*
X440505Y203768D02*
D03*
Y237232D02*
D03*
D109*
X313805Y379400D02*
D03*
X238505Y143100D02*
D03*
X25005Y475500D02*
D03*
X575005D02*
D03*
Y25000D02*
D03*
X25005D02*
D03*
D110*
X534505Y205500D02*
D03*
X573875D02*
D03*
X496005Y64500D02*
D03*
Y25130D02*
D03*
X534135Y116500D02*
D03*
X573505D02*
D03*
X406005Y64370D02*
D03*
Y25000D02*
D03*
D111*
X516005Y401000D02*
D03*
X376005Y421000D02*
D03*
Y401000D02*
D03*
Y441000D02*
D03*
Y461000D02*
D03*
Y381000D02*
D03*
Y361000D02*
D03*
Y341000D02*
D03*
Y321000D02*
D03*
X516005D02*
D03*
Y341000D02*
D03*
Y361000D02*
D03*
Y381000D02*
D03*
Y461000D02*
D03*
Y441000D02*
D03*
Y421000D02*
D03*
X376005Y481000D02*
D03*
X516005D02*
D03*
D112*
X384005Y150500D02*
D03*
Y140500D02*
D03*
Y130500D02*
D03*
D113*
X256525Y33000D02*
D03*
X331485D02*
D03*
X294005D02*
D03*
D114*
X34505Y425980D02*
D03*
Y351020D02*
D03*
Y388500D02*
D03*
D115*
X64005Y473000D02*
D03*
X204005D02*
D03*
D116*
X491505Y387500D02*
D03*
X401505D02*
D03*
Y407500D02*
D03*
Y427500D02*
D03*
Y447500D02*
D03*
Y367500D02*
D03*
Y347500D02*
D03*
Y327500D02*
D03*
X491505Y367500D02*
D03*
Y347500D02*
D03*
Y327500D02*
D03*
Y407500D02*
D03*
Y427500D02*
D03*
Y447500D02*
D03*
D117*
X70237Y422000D02*
D03*
X178505D02*
D03*
X225135Y485500D02*
D03*
X264505D02*
D03*
X294033D02*
D03*
X323560D02*
D03*
X332273Y443000D02*
D03*
X224005D02*
D03*
D118*
X206505Y429000D02*
D03*
X199025Y399472D02*
D03*
D119*
X19505Y309000D02*
D03*
X98245D02*
D03*
X52970Y64906D02*
D03*
X143521D02*
D03*
D120*
X424405Y260500D02*
D03*
X445805D02*
D03*
X403005D02*
D03*
D121*
X559505Y309500D02*
D03*
Y289500D02*
D03*
M02*
