G04 Layer_Physical_Order=1*
G04 Layer_Color=255*
%FSLAX25Y25*%
%MOIN*%
G70*
G01*
G75*
%ADD10C,0.25000*%
G04:AMPARAMS|DCode=11|XSize=55.12mil|YSize=39.37mil|CornerRadius=4.92mil|HoleSize=0mil|Usage=FLASHONLY|Rotation=90.000|XOffset=0mil|YOffset=0mil|HoleType=Round|Shape=RoundedRectangle|*
%AMROUNDEDRECTD11*
21,1,0.05512,0.02953,0,0,90.0*
21,1,0.04528,0.03937,0,0,90.0*
1,1,0.00984,0.01476,0.02264*
1,1,0.00984,0.01476,-0.02264*
1,1,0.00984,-0.01476,-0.02264*
1,1,0.00984,-0.01476,0.02264*
%
%ADD11ROUNDEDRECTD11*%
%ADD12R,0.07087X0.13780*%
G04:AMPARAMS|DCode=13|XSize=51.18mil|YSize=31.5mil|CornerRadius=3.94mil|HoleSize=0mil|Usage=FLASHONLY|Rotation=0.000|XOffset=0mil|YOffset=0mil|HoleType=Round|Shape=RoundedRectangle|*
%AMROUNDEDRECTD13*
21,1,0.05118,0.02362,0,0,0.0*
21,1,0.04331,0.03150,0,0,0.0*
1,1,0.00787,0.02165,-0.01181*
1,1,0.00787,-0.02165,-0.01181*
1,1,0.00787,-0.02165,0.01181*
1,1,0.00787,0.02165,0.01181*
%
%ADD13ROUNDEDRECTD13*%
G04:AMPARAMS|DCode=14|XSize=70.87mil|YSize=45.28mil|CornerRadius=5.66mil|HoleSize=0mil|Usage=FLASHONLY|Rotation=180.000|XOffset=0mil|YOffset=0mil|HoleType=Round|Shape=RoundedRectangle|*
%AMROUNDEDRECTD14*
21,1,0.07087,0.03396,0,0,180.0*
21,1,0.05955,0.04528,0,0,180.0*
1,1,0.01132,-0.02977,0.01698*
1,1,0.01132,0.02977,0.01698*
1,1,0.01132,0.02977,-0.01698*
1,1,0.01132,-0.02977,-0.01698*
%
%ADD14ROUNDEDRECTD14*%
G04:AMPARAMS|DCode=15|XSize=86.61mil|YSize=59.06mil|CornerRadius=7.38mil|HoleSize=0mil|Usage=FLASHONLY|Rotation=270.000|XOffset=0mil|YOffset=0mil|HoleType=Round|Shape=RoundedRectangle|*
%AMROUNDEDRECTD15*
21,1,0.08661,0.04429,0,0,270.0*
21,1,0.07185,0.05906,0,0,270.0*
1,1,0.01476,-0.02215,-0.03593*
1,1,0.01476,-0.02215,0.03593*
1,1,0.01476,0.02215,0.03593*
1,1,0.01476,0.02215,-0.03593*
%
%ADD15ROUNDEDRECTD15*%
%ADD16O,0.07480X0.02362*%
%ADD17R,0.13780X0.07087*%
G04:AMPARAMS|DCode=18|XSize=51.18mil|YSize=31.5mil|CornerRadius=3.94mil|HoleSize=0mil|Usage=FLASHONLY|Rotation=90.000|XOffset=0mil|YOffset=0mil|HoleType=Round|Shape=RoundedRectangle|*
%AMROUNDEDRECTD18*
21,1,0.05118,0.02362,0,0,90.0*
21,1,0.04331,0.03150,0,0,90.0*
1,1,0.00787,0.01181,0.02165*
1,1,0.00787,0.01181,-0.02165*
1,1,0.00787,-0.01181,-0.02165*
1,1,0.00787,-0.01181,0.02165*
%
%ADD18ROUNDEDRECTD18*%
G04:AMPARAMS|DCode=19|XSize=70.87mil|YSize=45.28mil|CornerRadius=5.66mil|HoleSize=0mil|Usage=FLASHONLY|Rotation=270.000|XOffset=0mil|YOffset=0mil|HoleType=Round|Shape=RoundedRectangle|*
%AMROUNDEDRECTD19*
21,1,0.07087,0.03396,0,0,270.0*
21,1,0.05955,0.04528,0,0,270.0*
1,1,0.01132,-0.01698,-0.02977*
1,1,0.01132,-0.01698,0.02977*
1,1,0.01132,0.01698,0.02977*
1,1,0.01132,0.01698,-0.02977*
%
%ADD19ROUNDEDRECTD19*%
G04:AMPARAMS|DCode=20|XSize=39.37mil|YSize=35.43mil|CornerRadius=4.43mil|HoleSize=0mil|Usage=FLASHONLY|Rotation=270.000|XOffset=0mil|YOffset=0mil|HoleType=Round|Shape=RoundedRectangle|*
%AMROUNDEDRECTD20*
21,1,0.03937,0.02658,0,0,270.0*
21,1,0.03051,0.03543,0,0,270.0*
1,1,0.00886,-0.01329,-0.01526*
1,1,0.00886,-0.01329,0.01526*
1,1,0.00886,0.01329,0.01526*
1,1,0.00886,0.01329,-0.01526*
%
%ADD20ROUNDEDRECTD20*%
G04:AMPARAMS|DCode=21|XSize=39.37mil|YSize=35.43mil|CornerRadius=4.43mil|HoleSize=0mil|Usage=FLASHONLY|Rotation=180.000|XOffset=0mil|YOffset=0mil|HoleType=Round|Shape=RoundedRectangle|*
%AMROUNDEDRECTD21*
21,1,0.03937,0.02658,0,0,180.0*
21,1,0.03051,0.03543,0,0,180.0*
1,1,0.00886,-0.01526,0.01329*
1,1,0.00886,0.01526,0.01329*
1,1,0.00886,0.01526,-0.01329*
1,1,0.00886,-0.01526,-0.01329*
%
%ADD21ROUNDEDRECTD21*%
%ADD22R,0.04882X0.07441*%
%ADD23R,0.13386X0.04724*%
G04:AMPARAMS|DCode=24|XSize=62.99mil|YSize=47.24mil|CornerRadius=11.81mil|HoleSize=0mil|Usage=FLASHONLY|Rotation=180.000|XOffset=0mil|YOffset=0mil|HoleType=Round|Shape=RoundedRectangle|*
%AMROUNDEDRECTD24*
21,1,0.06299,0.02362,0,0,180.0*
21,1,0.03937,0.04724,0,0,180.0*
1,1,0.02362,-0.01969,0.01181*
1,1,0.02362,0.01969,0.01181*
1,1,0.02362,0.01969,-0.01181*
1,1,0.02362,-0.01969,-0.01181*
%
%ADD24ROUNDEDRECTD24*%
G04:AMPARAMS|DCode=25|XSize=118.11mil|YSize=98.43mil|CornerRadius=24.61mil|HoleSize=0mil|Usage=FLASHONLY|Rotation=180.000|XOffset=0mil|YOffset=0mil|HoleType=Round|Shape=RoundedRectangle|*
%AMROUNDEDRECTD25*
21,1,0.11811,0.04921,0,0,180.0*
21,1,0.06890,0.09843,0,0,180.0*
1,1,0.04921,-0.03445,0.02461*
1,1,0.04921,0.03445,0.02461*
1,1,0.04921,0.03445,-0.02461*
1,1,0.04921,-0.03445,-0.02461*
%
%ADD25ROUNDEDRECTD25*%
%ADD26R,0.05276X0.03937*%
%ADD27R,0.03937X0.05276*%
G04:AMPARAMS|DCode=28|XSize=137.8mil|YSize=55.12mil|CornerRadius=6.89mil|HoleSize=0mil|Usage=FLASHONLY|Rotation=270.000|XOffset=0mil|YOffset=0mil|HoleType=Round|Shape=RoundedRectangle|*
%AMROUNDEDRECTD28*
21,1,0.13780,0.04134,0,0,270.0*
21,1,0.12402,0.05512,0,0,270.0*
1,1,0.01378,-0.02067,-0.06201*
1,1,0.01378,-0.02067,0.06201*
1,1,0.01378,0.02067,0.06201*
1,1,0.01378,0.02067,-0.06201*
%
%ADD28ROUNDEDRECTD28*%
G04:AMPARAMS|DCode=29|XSize=122.05mil|YSize=118.11mil|CornerRadius=29.53mil|HoleSize=0mil|Usage=FLASHONLY|Rotation=180.000|XOffset=0mil|YOffset=0mil|HoleType=Round|Shape=RoundedRectangle|*
%AMROUNDEDRECTD29*
21,1,0.12205,0.05906,0,0,180.0*
21,1,0.06299,0.11811,0,0,180.0*
1,1,0.05906,-0.03150,0.02953*
1,1,0.05906,0.03150,0.02953*
1,1,0.05906,0.03150,-0.02953*
1,1,0.05906,-0.03150,-0.02953*
%
%ADD29ROUNDEDRECTD29*%
G04:AMPARAMS|DCode=30|XSize=106.3mil|YSize=45.28mil|CornerRadius=5.66mil|HoleSize=0mil|Usage=FLASHONLY|Rotation=0.000|XOffset=0mil|YOffset=0mil|HoleType=Round|Shape=RoundedRectangle|*
%AMROUNDEDRECTD30*
21,1,0.10630,0.03396,0,0,0.0*
21,1,0.09498,0.04528,0,0,0.0*
1,1,0.01132,0.04749,-0.01698*
1,1,0.01132,-0.04749,-0.01698*
1,1,0.01132,-0.04749,0.01698*
1,1,0.01132,0.04749,0.01698*
%
%ADD30ROUNDEDRECTD30*%
G04:AMPARAMS|DCode=31|XSize=55.12mil|YSize=39.37mil|CornerRadius=4.92mil|HoleSize=0mil|Usage=FLASHONLY|Rotation=0.000|XOffset=0mil|YOffset=0mil|HoleType=Round|Shape=RoundedRectangle|*
%AMROUNDEDRECTD31*
21,1,0.05512,0.02953,0,0,0.0*
21,1,0.04528,0.03937,0,0,0.0*
1,1,0.00984,0.02264,-0.01476*
1,1,0.00984,-0.02264,-0.01476*
1,1,0.00984,-0.02264,0.01476*
1,1,0.00984,0.02264,0.01476*
%
%ADD31ROUNDEDRECTD31*%
G04:AMPARAMS|DCode=32|XSize=43.31mil|YSize=68.9mil|CornerRadius=5.41mil|HoleSize=0mil|Usage=FLASHONLY|Rotation=90.000|XOffset=0mil|YOffset=0mil|HoleType=Round|Shape=RoundedRectangle|*
%AMROUNDEDRECTD32*
21,1,0.04331,0.05807,0,0,90.0*
21,1,0.03248,0.06890,0,0,90.0*
1,1,0.01083,0.02904,0.01624*
1,1,0.01083,0.02904,-0.01624*
1,1,0.01083,-0.02904,-0.01624*
1,1,0.01083,-0.02904,0.01624*
%
%ADD32ROUNDEDRECTD32*%
G04:AMPARAMS|DCode=33|XSize=43.31mil|YSize=68.9mil|CornerRadius=5.41mil|HoleSize=0mil|Usage=FLASHONLY|Rotation=90.000|XOffset=0mil|YOffset=0mil|HoleType=Round|Shape=RoundedRectangle|*
%AMROUNDEDRECTD33*
21,1,0.04331,0.05807,0,0,90.0*
21,1,0.03248,0.06890,0,0,90.0*
1,1,0.01083,0.02904,0.01624*
1,1,0.01083,0.02904,-0.01624*
1,1,0.01083,-0.02904,-0.01624*
1,1,0.01083,-0.02904,0.01624*
%
%ADD33ROUNDEDRECTD33*%
G04:AMPARAMS|DCode=34|XSize=137.8mil|YSize=68.9mil|CornerRadius=8.61mil|HoleSize=0mil|Usage=FLASHONLY|Rotation=90.000|XOffset=0mil|YOffset=0mil|HoleType=Round|Shape=RoundedRectangle|*
%AMROUNDEDRECTD34*
21,1,0.13780,0.05167,0,0,90.0*
21,1,0.12057,0.06890,0,0,90.0*
1,1,0.01722,0.02584,0.06029*
1,1,0.01722,0.02584,-0.06029*
1,1,0.01722,-0.02584,-0.06029*
1,1,0.01722,-0.02584,0.06029*
%
%ADD34ROUNDEDRECTD34*%
%ADD35C,0.22500*%
%ADD36C,0.07000*%
%ADD37C,0.02000*%
%ADD38C,0.20000*%
%ADD39C,0.24000*%
%ADD40C,0.35000*%
%ADD41C,0.15000*%
%ADD42C,0.12500*%
%ADD43C,0.03000*%
%ADD44C,0.04000*%
%ADD45C,0.03500*%
%ADD46C,0.02400*%
%ADD47C,0.02500*%
%ADD48C,0.30000*%
%ADD49C,0.05000*%
%ADD50C,0.10000*%
%ADD51C,0.17716*%
%ADD52C,0.06000*%
%ADD53C,0.13780*%
%ADD54O,0.15748X0.11811*%
%ADD55O,0.19685X0.13780*%
%ADD56O,0.10000X0.15000*%
%ADD57C,0.07874*%
%ADD58O,0.09000X0.13000*%
%ADD59C,0.13000*%
%ADD60O,0.19685X0.13780*%
%ADD61C,0.12000*%
%ADD62O,0.19685X0.12000*%
%ADD63C,0.07500*%
%ADD64O,0.13780X0.19685*%
%ADD65C,0.27559*%
%ADD66O,0.11000X0.08000*%
%ADD67C,0.04500*%
%ADD68C,0.03500*%
%ADD69C,0.05000*%
%ADD70C,0.05500*%
%ADD71C,0.04000*%
G36*
X413365Y174451D02*
X413243Y174323D01*
X413031Y174066D01*
X412941Y173937D01*
X412862Y173807D01*
X412795Y173677D01*
X412738Y173547D01*
X412692Y173416D01*
X412657Y173285D01*
X412633Y173154D01*
X410654Y175133D01*
X410785Y175157D01*
X410916Y175192D01*
X411047Y175238D01*
X411177Y175295D01*
X411307Y175363D01*
X411437Y175441D01*
X411566Y175531D01*
X411694Y175631D01*
X411951Y175865D01*
X413365Y174451D01*
D02*
G37*
G36*
X341808Y175316D02*
X341833Y175032D01*
X341875Y174769D01*
X341934Y174525D01*
X342009Y174302D01*
X342101Y174100D01*
X342210Y173917D01*
X342335Y173755D01*
X342477Y173613D01*
X342636Y173491D01*
X338964D01*
X339123Y173613D01*
X339265Y173755D01*
X339390Y173917D01*
X339499Y174100D01*
X339591Y174302D01*
X339666Y174525D01*
X339725Y174769D01*
X339767Y175032D01*
X339792Y175316D01*
X339800Y175619D01*
X341800D01*
X341808Y175316D01*
D02*
G37*
G36*
X335632Y172569D02*
X335570Y172393D01*
X335566Y172187D01*
X335621Y171949D01*
X335734Y171682D01*
X335906Y171384D01*
X336137Y171055D01*
X336426Y170696D01*
X337179Y169887D01*
X335568Y168669D01*
X335166Y169058D01*
X334441Y169670D01*
X334118Y169895D01*
X333822Y170065D01*
X333552Y170180D01*
X333309Y170241D01*
X333093Y170247D01*
X332903Y170199D01*
X332740Y170095D01*
X335753Y172715D01*
X335632Y172569D01*
D02*
G37*
G36*
X342735Y173369D02*
X342858Y173261D01*
X343007Y173165D01*
X343182Y173082D01*
X343382Y173011D01*
X343608Y172954D01*
X343859Y172909D01*
X344135Y172877D01*
X344765Y172851D01*
Y170851D01*
X344437Y170845D01*
X343859Y170794D01*
X343608Y170749D01*
X343382Y170692D01*
X343182Y170621D01*
X343007Y170538D01*
X342858Y170442D01*
X342735Y170334D01*
X342636Y170212D01*
Y173491D01*
X342735Y173369D01*
D02*
G37*
G36*
X334808Y175316D02*
X334833Y175032D01*
X334875Y174769D01*
X334934Y174525D01*
X335009Y174302D01*
X335101Y174100D01*
X335210Y173917D01*
X335335Y173755D01*
X335477Y173613D01*
X335636Y173491D01*
X331964D01*
X332123Y173613D01*
X332265Y173755D01*
X332390Y173917D01*
X332499Y174100D01*
X332591Y174302D01*
X332666Y174525D01*
X332725Y174769D01*
X332767Y175032D01*
X332792Y175316D01*
X332800Y175620D01*
X334800D01*
X334808Y175316D01*
D02*
G37*
G36*
X340257Y180815D02*
X340292Y180684D01*
X340338Y180553D01*
X340395Y180423D01*
X340462Y180293D01*
X340541Y180163D01*
X340631Y180034D01*
X340731Y179905D01*
X340965Y179649D01*
X339551Y178235D01*
X339423Y178357D01*
X339166Y178569D01*
X339037Y178659D01*
X338907Y178737D01*
X338777Y178805D01*
X338647Y178862D01*
X338516Y178908D01*
X338385Y178943D01*
X338254Y178967D01*
X340233Y180946D01*
X340257Y180815D01*
D02*
G37*
G36*
X321747Y181813D02*
X321863Y181789D01*
X322012Y181768D01*
X322409Y181735D01*
X323597Y181701D01*
X323975Y181700D01*
Y179700D01*
X323597Y179699D01*
X321747Y179587D01*
X321663Y179561D01*
Y181839D01*
X321747Y181813D01*
D02*
G37*
G36*
X406402Y175030D02*
X406450Y174402D01*
X406472Y174282D01*
X406498Y174177D01*
X406528Y174087D01*
X406562Y174011D01*
X406599Y173951D01*
X403801D01*
X403838Y174011D01*
X403872Y174087D01*
X403902Y174177D01*
X403928Y174282D01*
X403950Y174402D01*
X403982Y174686D01*
X403998Y175030D01*
X404000Y175224D01*
X406400D01*
X406402Y175030D01*
D02*
G37*
G36*
X367014Y178064D02*
X366892Y178223D01*
X366750Y178365D01*
X366588Y178490D01*
X366405Y178599D01*
X366203Y178691D01*
X365980Y178766D01*
X365736Y178825D01*
X365473Y178867D01*
X365189Y178892D01*
X364885Y178900D01*
Y180900D01*
X365189Y180908D01*
X365473Y180933D01*
X365736Y180975D01*
X365980Y181034D01*
X366203Y181109D01*
X366405Y181201D01*
X366588Y181310D01*
X366750Y181435D01*
X366892Y181577D01*
X367014Y181736D01*
Y178064D01*
D02*
G37*
G36*
X342477Y163397D02*
X342335Y163255D01*
X342210Y163093D01*
X342101Y162910D01*
X342009Y162708D01*
X341934Y162485D01*
X341875Y162241D01*
X341838Y162005D01*
X341875Y161769D01*
X341934Y161525D01*
X342009Y161302D01*
X342101Y161100D01*
X342210Y160917D01*
X342335Y160755D01*
X342477Y160613D01*
X342636Y160491D01*
X338964D01*
X339123Y160613D01*
X339265Y160755D01*
X339390Y160917D01*
X339499Y161100D01*
X339591Y161302D01*
X339666Y161525D01*
X339725Y161769D01*
X339762Y162005D01*
X339725Y162241D01*
X339666Y162485D01*
X339591Y162708D01*
X339499Y162910D01*
X339390Y163093D01*
X339265Y163255D01*
X339123Y163397D01*
X338964Y163519D01*
X342636D01*
X342477Y163397D01*
D02*
G37*
G36*
X301628Y165214D02*
X301374Y164931D01*
X301176Y164648D01*
X301034Y164366D01*
X300950Y164083D01*
X300921Y163800D01*
X300950Y163517D01*
X301034Y163234D01*
X301176Y162952D01*
X301374Y162669D01*
X301628Y162386D01*
X299800Y161386D01*
X299511Y161654D01*
X299211Y161895D01*
X298899Y162107D01*
X298575Y162291D01*
X298239Y162446D01*
X297892Y162574D01*
X297533Y162673D01*
X297162Y162743D01*
X296780Y162786D01*
X296386Y162800D01*
Y164800D01*
X296780Y164814D01*
X297162Y164857D01*
X297533Y164927D01*
X297892Y165026D01*
X298239Y165154D01*
X298575Y165309D01*
X298899Y165493D01*
X299211Y165705D01*
X299511Y165945D01*
X299800Y166214D01*
X301628Y165214D01*
D02*
G37*
G36*
X407149Y161777D02*
X407178Y161700D01*
X407221Y161615D01*
X407276Y161522D01*
X407346Y161422D01*
X407524Y161198D01*
X407756Y160944D01*
X407892Y160805D01*
X406195Y159108D01*
X406056Y159244D01*
X405578Y159654D01*
X405478Y159723D01*
X405385Y159780D01*
X405300Y159822D01*
X405223Y159851D01*
X405154Y159867D01*
X407133Y161846D01*
X407149Y161777D01*
D02*
G37*
G36*
X335477Y163397D02*
X335335Y163255D01*
X335210Y163093D01*
X335101Y162910D01*
X335009Y162708D01*
X334934Y162485D01*
X334875Y162241D01*
X334838Y162005D01*
X334875Y161769D01*
X334934Y161525D01*
X335009Y161302D01*
X335101Y161100D01*
X335210Y160917D01*
X335335Y160755D01*
X335477Y160613D01*
X335636Y160491D01*
X331964D01*
X332123Y160613D01*
X332265Y160755D01*
X332390Y160917D01*
X332499Y161100D01*
X332591Y161302D01*
X332666Y161525D01*
X332725Y161769D01*
X332762Y162005D01*
X332725Y162241D01*
X332666Y162485D01*
X332591Y162708D01*
X332499Y162910D01*
X332390Y163093D01*
X332265Y163255D01*
X332123Y163397D01*
X331964Y163519D01*
X335636D01*
X335477Y163397D01*
D02*
G37*
G36*
X279215Y165610D02*
X279276Y165440D01*
X279376Y165290D01*
X279517Y165160D01*
X279698Y165050D01*
X279920Y164960D01*
X280181Y164890D01*
X280483Y164840D01*
X280825Y164810D01*
X281207Y164800D01*
Y162800D01*
X280825Y162790D01*
X280483Y162760D01*
X280181Y162710D01*
X279920Y162640D01*
X279698Y162550D01*
X279517Y162440D01*
X279376Y162310D01*
X279276Y162160D01*
X279215Y161990D01*
X279195Y161800D01*
Y165800D01*
X279215Y165610D01*
D02*
G37*
G36*
X409149Y164401D02*
X409039Y164477D01*
X408921Y164544D01*
X408797Y164604D01*
X408664Y164656D01*
X408524Y164700D01*
X408377Y164736D01*
X408222Y164764D01*
X408060Y164784D01*
X407714Y164800D01*
Y166800D01*
X407891Y166804D01*
X408222Y166836D01*
X408377Y166864D01*
X408524Y166900D01*
X408664Y166944D01*
X408797Y166996D01*
X408921Y167056D01*
X409039Y167123D01*
X409149Y167199D01*
Y164401D01*
D02*
G37*
G36*
X268205Y161800D02*
X268185Y161990D01*
X268124Y162160D01*
X268024Y162310D01*
X267883Y162440D01*
X267702Y162550D01*
X267480Y162640D01*
X267219Y162710D01*
X266917Y162760D01*
X266575Y162790D01*
X266500Y162792D01*
X266425Y162790D01*
X266083Y162760D01*
X265781Y162710D01*
X265520Y162640D01*
X265298Y162550D01*
X265117Y162440D01*
X264976Y162310D01*
X264876Y162160D01*
X264815Y161990D01*
X264795Y161800D01*
Y165800D01*
X264815Y165610D01*
X264876Y165440D01*
X264976Y165290D01*
X265117Y165160D01*
X265298Y165050D01*
X265520Y164960D01*
X265781Y164890D01*
X266083Y164840D01*
X266425Y164810D01*
X266500Y164808D01*
X266575Y164810D01*
X266917Y164840D01*
X267219Y164890D01*
X267480Y164960D01*
X267702Y165050D01*
X267883Y165160D01*
X268024Y165290D01*
X268124Y165440D01*
X268185Y165610D01*
X268205Y165800D01*
Y161800D01*
D02*
G37*
G36*
X411957Y165915D02*
X411992Y165784D01*
X412038Y165653D01*
X412095Y165523D01*
X412162Y165393D01*
X412241Y165263D01*
X412331Y165134D01*
X412431Y165006D01*
X412665Y164749D01*
X411251Y163335D01*
X411123Y163457D01*
X410866Y163669D01*
X410737Y163759D01*
X410607Y163838D01*
X410477Y163905D01*
X410347Y163962D01*
X410216Y164008D01*
X410085Y164043D01*
X409954Y164067D01*
X411933Y166046D01*
X411957Y165915D01*
D02*
G37*
G36*
X339141Y167939D02*
X339884Y167307D01*
X340212Y167078D01*
X340509Y166907D01*
X340777Y166793D01*
X341016Y166737D01*
X341225Y166738D01*
X341404Y166798D01*
X341553Y166915D01*
X338847Y163988D01*
X338954Y164147D01*
X339006Y164334D01*
X339002Y164549D01*
X338942Y164790D01*
X338827Y165059D01*
X338657Y165356D01*
X338431Y165680D01*
X338150Y166031D01*
X337421Y166816D01*
X338725Y168341D01*
X339141Y167939D01*
D02*
G37*
G36*
X359149Y181813D02*
X359265Y181789D01*
X359414Y181768D01*
X359811Y181735D01*
X360998Y181701D01*
X361377Y181700D01*
Y179700D01*
X360998Y179699D01*
X359149Y179587D01*
X359065Y179561D01*
Y181839D01*
X359149Y181813D01*
D02*
G37*
G36*
X353337Y189561D02*
X353253Y189587D01*
X353137Y189611D01*
X352988Y189632D01*
X352591Y189665D01*
X351403Y189699D01*
X351025Y189700D01*
Y191700D01*
X351403Y191701D01*
X353253Y191813D01*
X353337Y191839D01*
Y189561D01*
D02*
G37*
G36*
X369303Y192500D02*
X369283Y192690D01*
X369222Y192860D01*
X369122Y193010D01*
X368981Y193140D01*
X368800Y193250D01*
X368579Y193340D01*
X368317Y193410D01*
X368015Y193460D01*
X367673Y193490D01*
X367291Y193500D01*
Y195500D01*
X367673Y195510D01*
X368015Y195540D01*
X368317Y195590D01*
X368579Y195660D01*
X368800Y195750D01*
X368981Y195860D01*
X369122Y195990D01*
X369222Y196140D01*
X369283Y196310D01*
X369303Y196500D01*
Y192500D01*
D02*
G37*
G36*
X292614Y189269D02*
X292512Y189390D01*
X292377Y189498D01*
X292208Y189593D01*
X292005Y189676D01*
X291769Y189746D01*
X291500Y189803D01*
X291196Y189848D01*
X290489Y189899D01*
X290086Y189905D01*
Y192305D01*
X290489Y192311D01*
X291196Y192362D01*
X291500Y192407D01*
X291769Y192464D01*
X292005Y192534D01*
X292208Y192617D01*
X292377Y192712D01*
X292512Y192820D01*
X292614Y192941D01*
Y189269D01*
D02*
G37*
G36*
X315935Y189561D02*
X315851Y189587D01*
X315735Y189611D01*
X315586Y189632D01*
X315189Y189665D01*
X314002Y189699D01*
X313623Y189700D01*
Y191700D01*
X314002Y191701D01*
X315851Y191813D01*
X315935Y191839D01*
Y189561D01*
D02*
G37*
G36*
X348861Y197023D02*
X348978Y196956D01*
X349103Y196896D01*
X349236Y196844D01*
X349376Y196800D01*
X349523Y196764D01*
X349677Y196736D01*
X349840Y196716D01*
X350186Y196700D01*
Y194700D01*
X350009Y194696D01*
X349677Y194664D01*
X349523Y194636D01*
X349376Y194600D01*
X349236Y194556D01*
X349103Y194504D01*
X348978Y194444D01*
X348861Y194377D01*
X348751Y194301D01*
Y197099D01*
X348861Y197023D01*
D02*
G37*
G36*
X227620Y199287D02*
X227680Y198605D01*
X227780Y198003D01*
X227920Y197482D01*
X228100Y197040D01*
X228320Y196679D01*
X228580Y196398D01*
X228880Y196198D01*
X229220Y196077D01*
X229600Y196037D01*
X221600D01*
X221980Y196077D01*
X222320Y196198D01*
X222620Y196398D01*
X222880Y196679D01*
X223100Y197040D01*
X223280Y197482D01*
X223420Y198003D01*
X223520Y198605D01*
X223580Y199287D01*
X223600Y200049D01*
X227600D01*
X227620Y199287D01*
D02*
G37*
G36*
X306871Y202510D02*
X306931Y202340D01*
X307032Y202190D01*
X307173Y202060D01*
X307354Y201950D01*
X307575Y201860D01*
X307837Y201790D01*
X308138Y201740D01*
X308480Y201710D01*
X308863Y201700D01*
Y199700D01*
X308480Y199690D01*
X308138Y199660D01*
X307837Y199610D01*
X307575Y199540D01*
X307354Y199450D01*
X307173Y199340D01*
X307032Y199210D01*
X306931Y199060D01*
X306871Y198890D01*
X306851Y198700D01*
Y202700D01*
X306871Y202510D01*
D02*
G37*
G36*
X315935Y194561D02*
X315851Y194587D01*
X315735Y194611D01*
X315586Y194632D01*
X315189Y194665D01*
X314002Y194699D01*
X313623Y194700D01*
Y196700D01*
X314002Y196701D01*
X315851Y196813D01*
X315935Y196839D01*
Y194561D01*
D02*
G37*
G36*
X353337D02*
X353253Y194587D01*
X353137Y194611D01*
X352988Y194632D01*
X352591Y194665D01*
X351403Y194699D01*
X351025Y194700D01*
Y196700D01*
X351403Y196701D01*
X353253Y196813D01*
X353337Y196839D01*
Y194561D01*
D02*
G37*
G36*
X447415Y186242D02*
X447160Y186152D01*
X446935Y186001D01*
X446740Y185790D01*
X446575Y185519D01*
X446440Y185188D01*
X446335Y184796D01*
X446260Y184344D01*
X446215Y183832D01*
X446200Y183260D01*
X443200D01*
X443185Y183832D01*
X443140Y184344D01*
X443065Y184796D01*
X442960Y185188D01*
X442825Y185519D01*
X442660Y185790D01*
X442465Y186001D01*
X442240Y186152D01*
X441985Y186242D01*
X441700Y186272D01*
X447700D01*
X447415Y186242D01*
D02*
G37*
G36*
X367014Y184264D02*
X366892Y184423D01*
X366750Y184565D01*
X366588Y184690D01*
X366405Y184799D01*
X366203Y184891D01*
X365980Y184966D01*
X365736Y185025D01*
X365473Y185067D01*
X365189Y185092D01*
X364885Y185100D01*
Y187100D01*
X365189Y187108D01*
X365473Y187133D01*
X365736Y187175D01*
X365980Y187234D01*
X366203Y187309D01*
X366405Y187401D01*
X366588Y187510D01*
X366750Y187635D01*
X366892Y187777D01*
X367014Y187936D01*
Y184264D01*
D02*
G37*
G36*
X446215Y182058D02*
X446260Y181546D01*
X446335Y181094D01*
X446440Y180703D01*
X446575Y180371D01*
X446740Y180100D01*
X446935Y179889D01*
X447160Y179739D01*
X447415Y179648D01*
X447700Y179618D01*
X441700D01*
X441985Y179648D01*
X442240Y179739D01*
X442465Y179889D01*
X442660Y180100D01*
X442825Y180371D01*
X442960Y180703D01*
X443065Y181094D01*
X443140Y181546D01*
X443185Y182058D01*
X443200Y182630D01*
X446200D01*
X446215Y182058D01*
D02*
G37*
G36*
X302464Y183171D02*
X302356Y183047D01*
X302260Y182898D01*
X302177Y182723D01*
X302106Y182523D01*
X302049Y182297D01*
X302014Y182105D01*
X302049Y181913D01*
X302106Y181687D01*
X302177Y181487D01*
X302260Y181312D01*
X302356Y181163D01*
X302464Y181040D01*
X302586Y180941D01*
X299307D01*
X299429Y181040D01*
X299537Y181163D01*
X299633Y181312D01*
X299716Y181487D01*
X299787Y181687D01*
X299844Y181913D01*
X299878Y182105D01*
X299844Y182297D01*
X299787Y182523D01*
X299716Y182723D01*
X299633Y182898D01*
X299537Y183047D01*
X299429Y183171D01*
X299307Y183269D01*
X302586D01*
X302464Y183171D01*
D02*
G37*
G36*
X321747Y186813D02*
X321863Y186789D01*
X322012Y186768D01*
X322409Y186735D01*
X323597Y186701D01*
X323975Y186700D01*
Y184700D01*
X323597Y184699D01*
X321747Y184587D01*
X321663Y184561D01*
Y186839D01*
X321747Y186813D01*
D02*
G37*
G36*
X302708Y192782D02*
X302850Y192640D01*
X303012Y192515D01*
X303195Y192406D01*
X303397Y192314D01*
X303620Y192239D01*
X303864Y192180D01*
X304127Y192138D01*
X304411Y192113D01*
X304715Y192105D01*
Y190105D01*
X304411Y190097D01*
X304127Y190072D01*
X303864Y190030D01*
X303620Y189971D01*
X303397Y189896D01*
X303195Y189804D01*
X303012Y189695D01*
X302850Y189570D01*
X302708Y189428D01*
X302586Y189269D01*
X302464Y189171D01*
X302356Y189047D01*
X302260Y188898D01*
X302177Y188723D01*
X302106Y188523D01*
X302049Y188297D01*
X302014Y188105D01*
X302049Y187913D01*
X302106Y187687D01*
X302177Y187487D01*
X302260Y187312D01*
X302356Y187163D01*
X302464Y187039D01*
X302586Y186941D01*
X299307D01*
X299429Y187039D01*
X299537Y187163D01*
X299633Y187312D01*
X299716Y187487D01*
X299787Y187687D01*
X299844Y187913D01*
X299878Y188105D01*
X299844Y188297D01*
X299787Y188523D01*
X299716Y188723D01*
X299633Y188898D01*
X299537Y189047D01*
X299429Y189171D01*
X299307Y189269D01*
X302586D01*
Y192941D01*
X302708Y192782D01*
D02*
G37*
G36*
X287312Y189110D02*
X287348Y188700D01*
X287408Y188338D01*
X287492Y188024D01*
X287600Y187759D01*
X287732Y187542D01*
X287888Y187373D01*
X288068Y187253D01*
X288272Y187180D01*
X288500Y187156D01*
X283700D01*
X283928Y187180D01*
X284132Y187253D01*
X284312Y187373D01*
X284468Y187542D01*
X284600Y187759D01*
X284708Y188024D01*
X284792Y188338D01*
X284852Y188700D01*
X284888Y189110D01*
X284900Y189568D01*
X287300D01*
X287312Y189110D01*
D02*
G37*
G36*
X359149Y186813D02*
X359265Y186789D01*
X359414Y186768D01*
X359811Y186735D01*
X360998Y186701D01*
X361377Y186700D01*
Y184700D01*
X360998Y184699D01*
X359149Y184587D01*
X359065Y184561D01*
Y186839D01*
X359149Y186813D01*
D02*
G37*
G36*
X279311Y188761D02*
X279387Y188728D01*
X279477Y188698D01*
X279582Y188672D01*
X279702Y188650D01*
X279986Y188618D01*
X280330Y188602D01*
X280524Y188600D01*
Y186200D01*
X280330Y186198D01*
X279702Y186150D01*
X279582Y186128D01*
X279477Y186102D01*
X279387Y186072D01*
X279311Y186038D01*
X279251Y186001D01*
Y188799D01*
X279311Y188761D01*
D02*
G37*
G36*
X413903Y109642D02*
X413985Y108328D01*
X414023Y108081D01*
X414067Y107866D01*
X414118Y107683D01*
X414176Y107532D01*
X414241Y107414D01*
X414182D01*
X414198Y107267D01*
X414273Y107064D01*
X414398Y106885D01*
X414573Y106730D01*
X414798Y106598D01*
X415072Y106491D01*
X415397Y106407D01*
X415771Y106348D01*
X416196Y106312D01*
X416670Y106300D01*
Y103900D01*
X416196Y103888D01*
X415771Y103852D01*
X415397Y103793D01*
X415072Y103709D01*
X414798Y103602D01*
X414573Y103470D01*
X414398Y103315D01*
X414273Y103136D01*
X414198Y102933D01*
X414173Y102707D01*
Y107414D01*
X411159D01*
X411224Y107532D01*
X411282Y107683D01*
X411333Y107866D01*
X411377Y108081D01*
X411415Y108328D01*
X411469Y108920D01*
X411497Y109642D01*
X411500Y110051D01*
X413900D01*
X413903Y109642D01*
D02*
G37*
G36*
X419532Y102707D02*
X419507Y102933D01*
X419432Y103136D01*
X419307Y103315D01*
X419132Y103470D01*
X418907Y103602D01*
X418633Y103709D01*
X418308Y103793D01*
X417934Y103852D01*
X417509Y103888D01*
X417035Y103900D01*
Y106300D01*
X417509Y106312D01*
X417934Y106348D01*
X418308Y106407D01*
X418633Y106491D01*
X418907Y106598D01*
X419132Y106730D01*
X419307Y106885D01*
X419432Y107064D01*
X419507Y107267D01*
X419532Y107493D01*
Y102707D01*
D02*
G37*
G36*
X444308Y102584D02*
X444231Y102478D01*
X444163Y102342D01*
X444104Y102176D01*
X444055Y101980D01*
X444014Y101754D01*
X443983Y101497D01*
X443947Y100893D01*
X443946Y100852D01*
X443947Y100808D01*
X444015Y99948D01*
X444056Y99721D01*
X444106Y99525D01*
X444166Y99359D01*
X444234Y99223D01*
X444312Y99117D01*
X444398Y99041D01*
X441486D01*
X441572Y99117D01*
X441650Y99223D01*
X441718Y99359D01*
X441778Y99525D01*
X441828Y99721D01*
X441869Y99948D01*
X441901Y100204D01*
X441937Y100808D01*
X441938Y100848D01*
X441937Y100892D01*
X441868Y101751D01*
X441827Y101977D01*
X441776Y102173D01*
X441716Y102340D01*
X441647Y102476D01*
X441568Y102583D01*
X441481Y102659D01*
X444393D01*
X444308Y102584D01*
D02*
G37*
G36*
X385647Y101386D02*
X385358Y101655D01*
X385057Y101895D01*
X384745Y102107D01*
X384421Y102291D01*
X384086Y102446D01*
X383738Y102574D01*
X383380Y102673D01*
X383009Y102743D01*
X382626Y102786D01*
X382232Y102800D01*
X384647Y103800D01*
X385647Y101386D01*
D02*
G37*
G36*
X433505Y103100D02*
X433485Y103290D01*
X433424Y103460D01*
X433324Y103610D01*
X433183Y103740D01*
X433002Y103850D01*
X432780Y103940D01*
X432519Y104010D01*
X432217Y104060D01*
X431971Y104082D01*
X431725Y104060D01*
X431423Y104010D01*
X431162Y103940D01*
X430940Y103850D01*
X430759Y103740D01*
X430618Y103610D01*
X430518Y103460D01*
X430457Y103290D01*
X430437Y103100D01*
Y107100D01*
X430457Y106910D01*
X430518Y106740D01*
X430618Y106590D01*
X430759Y106460D01*
X430940Y106350D01*
X431162Y106260D01*
X431423Y106190D01*
X431725Y106140D01*
X431971Y106118D01*
X432217Y106140D01*
X432519Y106190D01*
X432780Y106260D01*
X433002Y106350D01*
X433183Y106460D01*
X433324Y106590D01*
X433424Y106740D01*
X433485Y106910D01*
X433505Y107100D01*
Y103100D01*
D02*
G37*
G36*
X459815Y126037D02*
X459560Y125946D01*
X459335Y125796D01*
X459140Y125586D01*
X458975Y125317D01*
X458840Y124987D01*
X458735Y124597D01*
X458660Y124146D01*
X458615Y123636D01*
X458600Y123066D01*
X455600D01*
X455608Y123636D01*
X455720Y124987D01*
X455787Y125317D01*
X455870Y125586D01*
X455967Y125796D01*
X456080Y125946D01*
X456207Y126037D01*
X456350Y126067D01*
X460100D01*
X459815Y126037D01*
D02*
G37*
G36*
X362648Y123801D02*
X362133Y124181D01*
X360414Y125300D01*
X360070Y125480D01*
X359760Y125620D01*
X359485Y125720D01*
X359243Y125780D01*
X359036Y125800D01*
Y127800D01*
X359243Y127820D01*
X359485Y127880D01*
X359760Y127980D01*
X360070Y128120D01*
X360414Y128300D01*
X361205Y128779D01*
X362133Y129419D01*
X362648Y129799D01*
Y123801D01*
D02*
G37*
G36*
X458615Y110304D02*
X458660Y109792D01*
X458735Y109341D01*
X458840Y108949D01*
X458975Y108618D01*
X459140Y108347D01*
X459335Y108136D01*
X459560Y107985D01*
X459815Y107895D01*
X460100Y107865D01*
X454100D01*
X454385Y107895D01*
X454640Y107985D01*
X454865Y108136D01*
X455060Y108347D01*
X455225Y108618D01*
X455360Y108949D01*
X455465Y109341D01*
X455540Y109792D01*
X455585Y110304D01*
X455600Y110877D01*
X458600D01*
X458615Y110304D01*
D02*
G37*
G36*
X385410Y114650D02*
X385240Y114590D01*
X385090Y114490D01*
X384960Y114350D01*
X384850Y114170D01*
X384760Y113950D01*
X384690Y113690D01*
X384640Y113390D01*
X384610Y113050D01*
X384600Y112670D01*
X382600D01*
X382590Y113050D01*
X382560Y113390D01*
X382510Y113690D01*
X382440Y113950D01*
X382350Y114170D01*
X382240Y114350D01*
X382110Y114490D01*
X381960Y114590D01*
X381790Y114650D01*
X381600Y114670D01*
X385600D01*
X385410Y114650D01*
D02*
G37*
G36*
X263051Y48349D02*
X262866Y47884D01*
X262813Y47883D01*
X261445Y47748D01*
X260098Y47480D01*
X258783Y47082D01*
X257513Y46556D01*
X256301Y45908D01*
X255159Y45144D01*
X254097Y44273D01*
X253599Y43799D01*
X226300Y16500D01*
X215800Y20011D01*
X215344Y21581D01*
X214172Y24633D01*
X212663Y27533D01*
X210839Y30245D01*
X209815Y31519D01*
X209815Y31520D01*
X209226Y32212D01*
X208174Y33696D01*
X207257Y35267D01*
X206482Y36912D01*
X205854Y38619D01*
X205379Y40375D01*
X205060Y42165D01*
X204900Y43977D01*
Y44886D01*
X204900Y44886D01*
X204900Y60800D01*
X250600D01*
X263051Y48349D01*
D02*
G37*
G36*
X54985Y77666D02*
X55244Y73668D01*
X55257Y73626D01*
X55481Y73078D01*
X55769Y72483D01*
X56536Y71153D01*
X57016Y70419D01*
X57309Y70008D01*
X57357Y70002D01*
X58042Y69955D01*
X61023Y69906D01*
Y59905D01*
X56873Y59708D01*
Y68809D01*
X56229D01*
X56507Y68439D01*
X49432D01*
X49711Y68809D01*
X47772D01*
X48380Y69637D01*
X49819Y71842D01*
X50170Y72483D01*
X50682Y73626D01*
X50774Y73917D01*
X50831Y74500D01*
X50954Y77666D01*
X50970Y79488D01*
X54970D01*
X54985Y77666D01*
D02*
G37*
G36*
X89130Y29420D02*
X89430Y29101D01*
X89930Y28820D01*
X90630Y28576D01*
X91530Y28369D01*
X92630Y28200D01*
X95430Y27975D01*
X99030Y27900D01*
Y17900D01*
X97130Y17881D01*
X92630Y17600D01*
X91530Y17431D01*
X90630Y17224D01*
X89930Y16980D01*
X89430Y16699D01*
X89130Y16380D01*
X89030Y16023D01*
Y29777D01*
X89130Y29420D01*
D02*
G37*
G36*
X143024Y16379D02*
X142207Y17029D01*
X141319Y17611D01*
X140357Y18124D01*
X139324Y18568D01*
X138217Y18945D01*
X137039Y19253D01*
X135788Y19492D01*
X134464Y19663D01*
X133068Y19766D01*
X131600Y19800D01*
Y29800D01*
X133068Y29834D01*
X135788Y30108D01*
X137039Y30347D01*
X138217Y30655D01*
X139324Y31032D01*
X140357Y31476D01*
X141319Y31989D01*
X142207Y32571D01*
X143024Y33221D01*
Y16379D01*
D02*
G37*
G36*
X444312Y94083D02*
X444234Y93977D01*
X444166Y93841D01*
X444106Y93675D01*
X444056Y93479D01*
X444015Y93252D01*
X443983Y92996D01*
X443947Y92392D01*
X443942Y92045D01*
X441942D01*
X441937Y92392D01*
X441869Y93252D01*
X441828Y93479D01*
X441778Y93675D01*
X441718Y93841D01*
X441650Y93977D01*
X441572Y94083D01*
X441486Y94160D01*
X444398D01*
X444312Y94083D01*
D02*
G37*
G36*
X390301Y99573D02*
X391050Y98937D01*
X391379Y98706D01*
X391677Y98534D01*
X391944Y98421D01*
X392181Y98366D01*
X392388Y98370D01*
X392564Y98432D01*
X392710Y98553D01*
X390090Y95540D01*
X390194Y95703D01*
X390242Y95893D01*
X390236Y96109D01*
X390175Y96352D01*
X390060Y96622D01*
X389890Y96918D01*
X389665Y97241D01*
X389386Y97590D01*
X388664Y98368D01*
X389881Y99979D01*
X390301Y99573D01*
D02*
G37*
G36*
X433510Y94600D02*
X433490Y94790D01*
X433429Y94960D01*
X433329Y95110D01*
X433188Y95240D01*
X433007Y95350D01*
X432785Y95440D01*
X432524Y95510D01*
X432222Y95560D01*
X432005Y95579D01*
X431788Y95560D01*
X431486Y95510D01*
X431225Y95440D01*
X431003Y95350D01*
X430822Y95240D01*
X430681Y95110D01*
X430581Y94960D01*
X430520Y94790D01*
X430500Y94600D01*
Y98600D01*
X430520Y98410D01*
X430581Y98240D01*
X430681Y98090D01*
X430822Y97960D01*
X431003Y97850D01*
X431225Y97760D01*
X431486Y97690D01*
X431788Y97640D01*
X432005Y97621D01*
X432222Y97640D01*
X432524Y97690D01*
X432785Y97760D01*
X433007Y97850D01*
X433188Y97960D01*
X433329Y98090D01*
X433429Y98240D01*
X433490Y98410D01*
X433510Y98600D01*
Y94600D01*
D02*
G37*
G36*
X419510D02*
X419490Y94790D01*
X419429Y94960D01*
X419329Y95110D01*
X419188Y95240D01*
X419007Y95350D01*
X418785Y95440D01*
X418524Y95510D01*
X418222Y95560D01*
X417880Y95590D01*
X417498Y95600D01*
Y97600D01*
X417880Y97610D01*
X418222Y97640D01*
X418524Y97690D01*
X418785Y97760D01*
X419007Y97850D01*
X419188Y97960D01*
X419329Y98090D01*
X419429Y98240D01*
X419490Y98410D01*
X419510Y98600D01*
Y94600D01*
D02*
G37*
G36*
X393608Y98277D02*
X393750Y98135D01*
X393912Y98010D01*
X394095Y97901D01*
X394297Y97809D01*
X394520Y97734D01*
X394764Y97675D01*
X395027Y97633D01*
X395311Y97608D01*
X395615Y97600D01*
Y95600D01*
X395311Y95592D01*
X395027Y95566D01*
X394764Y95525D01*
X394520Y95466D01*
X394297Y95391D01*
X394095Y95299D01*
X393912Y95190D01*
X393750Y95065D01*
X393608Y94923D01*
X393486Y94764D01*
Y98436D01*
X393608Y98277D01*
D02*
G37*
G36*
X471673Y127655D02*
X472041Y127344D01*
X472221Y127213D01*
X472399Y127099D01*
X472575Y127001D01*
X472748Y126920D01*
X472918Y126855D01*
X473086Y126807D01*
X473252Y126775D01*
X470425Y123948D01*
X470393Y124114D01*
X470345Y124282D01*
X470280Y124452D01*
X470199Y124626D01*
X470101Y124801D01*
X469987Y124979D01*
X469856Y125159D01*
X469545Y125527D01*
X469365Y125714D01*
X471486Y127836D01*
X471673Y127655D01*
D02*
G37*
G36*
X333773Y151158D02*
X333379Y151144D01*
X332996Y151102D01*
X332626Y151031D01*
X332266Y150932D01*
X331919Y150805D01*
X331584Y150649D01*
X331260Y150466D01*
X330948Y150253D01*
X330647Y150013D01*
X330359Y149744D01*
X331359Y152158D01*
Y153158D01*
X333773Y151158D01*
D02*
G37*
G36*
X342735Y153676D02*
X342858Y153568D01*
X343007Y153472D01*
X343182Y153389D01*
X343382Y153318D01*
X343608Y153261D01*
X343859Y153216D01*
X344135Y153184D01*
X344765Y153158D01*
Y151158D01*
X344437Y151152D01*
X343859Y151101D01*
X343608Y151056D01*
X343382Y150999D01*
X343182Y150928D01*
X343007Y150845D01*
X342858Y150749D01*
X342735Y150641D01*
X342636Y150519D01*
Y153798D01*
X342735Y153676D01*
D02*
G37*
G36*
X374835Y148900D02*
X374815Y149090D01*
X374755Y149260D01*
X374654Y149410D01*
X374513Y149540D01*
X374332Y149650D01*
X374111Y149740D01*
X373849Y149810D01*
X373548Y149860D01*
X373205Y149890D01*
X372823Y149900D01*
Y151900D01*
X373205Y151910D01*
X373548Y151940D01*
X373849Y151990D01*
X374111Y152060D01*
X374332Y152150D01*
X374513Y152260D01*
X374654Y152390D01*
X374755Y152540D01*
X374815Y152710D01*
X374835Y152900D01*
Y148900D01*
D02*
G37*
G36*
X268849Y148901D02*
X268789Y148939D01*
X268713Y148972D01*
X268623Y149002D01*
X268518Y149028D01*
X268398Y149050D01*
X268114Y149082D01*
X267770Y149098D01*
X267576Y149100D01*
Y151500D01*
X267770Y151502D01*
X268398Y151550D01*
X268518Y151572D01*
X268623Y151598D01*
X268713Y151628D01*
X268789Y151662D01*
X268849Y151699D01*
Y148901D01*
D02*
G37*
G36*
X455990Y157479D02*
X458055Y155664D01*
X458283Y155533D01*
X458553Y155418D01*
X458796Y155357D01*
X459012Y155351D01*
X459202Y155399D01*
X459365Y155502D01*
X456352Y152883D01*
X456473Y153029D01*
X456535Y153205D01*
X456539Y153411D01*
X456484Y153648D01*
X456371Y153916D01*
X456199Y154214D01*
X455968Y154543D01*
X455761Y154800D01*
X455399Y155203D01*
X455323Y155285D01*
X454108Y156530D01*
X455522Y157944D01*
X455990Y157479D01*
D02*
G37*
G36*
X234472Y158246D02*
X234268Y158174D01*
X234088Y158054D01*
X233932Y157886D01*
X233800Y157670D01*
X233692Y157406D01*
X233608Y157094D01*
X233548Y156734D01*
X233512Y156326D01*
X233500Y155870D01*
X231100D01*
X231088Y156326D01*
X231052Y156734D01*
X230992Y157094D01*
X230908Y157406D01*
X230800Y157670D01*
X230668Y157886D01*
X230512Y158054D01*
X230332Y158174D01*
X230128Y158246D01*
X229900Y158270D01*
X234700D01*
X234472Y158246D01*
D02*
G37*
G36*
X304135Y158600D02*
X304115Y158790D01*
X304055Y158960D01*
X303954Y159110D01*
X303813Y159240D01*
X303632Y159350D01*
X303411Y159440D01*
X303149Y159510D01*
X302848Y159560D01*
X302505Y159590D01*
X302123Y159600D01*
Y161600D01*
X302505Y161610D01*
X302848Y161640D01*
X303149Y161690D01*
X303411Y161760D01*
X303632Y161850D01*
X303813Y161960D01*
X303954Y162090D01*
X304055Y162240D01*
X304115Y162410D01*
X304135Y162600D01*
Y158600D01*
D02*
G37*
G36*
X422701Y154084D02*
X422744Y153346D01*
X422760Y153267D01*
X422779Y153210D01*
X422800Y153176D01*
X422823Y153165D01*
X420577D01*
X420600Y153176D01*
X420621Y153210D01*
X420640Y153267D01*
X420656Y153346D01*
X420669Y153449D01*
X420689Y153721D01*
X420700Y154300D01*
X422700D01*
X422701Y154084D01*
D02*
G37*
G36*
X338964Y150519D02*
X338865Y150641D01*
X338742Y150749D01*
X338593Y150845D01*
X338418Y150928D01*
X338218Y150999D01*
X337992Y151056D01*
X337741Y151101D01*
X337465Y151133D01*
X337297Y151140D01*
X336859Y151101D01*
X336608Y151056D01*
X336382Y150999D01*
X336182Y150928D01*
X336007Y150845D01*
X335858Y150749D01*
X335735Y150641D01*
X335636Y150519D01*
Y153798D01*
X335735Y153676D01*
X335858Y153568D01*
X336007Y153472D01*
X336182Y153389D01*
X336382Y153318D01*
X336608Y153261D01*
X336859Y153216D01*
X337135Y153184D01*
X337303Y153177D01*
X337741Y153216D01*
X337992Y153261D01*
X338218Y153318D01*
X338418Y153389D01*
X338593Y153472D01*
X338742Y153568D01*
X338865Y153676D01*
X338964Y153798D01*
Y150519D01*
D02*
G37*
G36*
X452094Y131744D02*
X452241Y131704D01*
X452437Y131668D01*
X452685Y131638D01*
X453732Y131575D01*
X455234Y131553D01*
Y131466D01*
X456229Y131402D01*
X456320Y131361D01*
X456350Y131316D01*
X456361Y127053D01*
X456331Y127339D01*
X456240Y127594D01*
X456089Y127819D01*
X455877Y128014D01*
X455606Y128179D01*
X455275Y128314D01*
X454884Y128419D01*
X454432Y128493D01*
X454146Y128519D01*
X452241Y128403D01*
X452094Y128364D01*
X451999Y128319D01*
Y131788D01*
X452094Y131744D01*
D02*
G37*
G36*
X374835Y133100D02*
X374815Y133290D01*
X374755Y133460D01*
X374654Y133610D01*
X374513Y133740D01*
X374332Y133850D01*
X374111Y133940D01*
X373849Y134010D01*
X373548Y134060D01*
X373205Y134090D01*
X372823Y134100D01*
Y136100D01*
X373205Y136110D01*
X373548Y136140D01*
X373849Y136190D01*
X374111Y136260D01*
X374332Y136350D01*
X374513Y136460D01*
X374654Y136590D01*
X374755Y136740D01*
X374815Y136910D01*
X374835Y137100D01*
Y133100D01*
D02*
G37*
G36*
X460290Y131102D02*
X460381Y130911D01*
X460531Y130743D01*
X460741Y130596D01*
X461011Y130473D01*
X461341Y130371D01*
X461730Y130293D01*
X462181Y130236D01*
X462690Y130203D01*
X463261Y130191D01*
Y127191D01*
X462690Y127180D01*
X461730Y127090D01*
X461341Y127011D01*
X461011Y126910D01*
X460741Y126786D01*
X460531Y126640D01*
X460381Y126471D01*
X460290Y126280D01*
X460260Y126067D01*
Y131316D01*
X460290Y131102D01*
D02*
G37*
G36*
X323793Y130050D02*
X323858Y129881D01*
X323966Y129732D01*
X324117Y129603D01*
X324312Y129493D01*
X324550Y129404D01*
X324832Y129334D01*
X325156Y129285D01*
X325524Y129255D01*
X325935Y129245D01*
Y127245D01*
X325524Y127235D01*
X325156Y127205D01*
X324832Y127155D01*
X324550Y127086D01*
X324312Y126997D01*
X324117Y126887D01*
X323966Y126758D01*
X323858Y126609D01*
X323793Y126440D01*
X323771Y126252D01*
Y130238D01*
X323793Y130050D01*
D02*
G37*
G36*
X352648Y133801D02*
X352182Y134143D01*
X350930Y134952D01*
X350563Y135150D01*
X350220Y135312D01*
X349902Y135438D01*
X349609Y135528D01*
X349341Y135582D01*
X349097Y135600D01*
Y138000D01*
X349341Y138018D01*
X349609Y138072D01*
X349902Y138162D01*
X350220Y138288D01*
X350563Y138450D01*
X350930Y138647D01*
X351740Y139151D01*
X352648Y139799D01*
Y133801D01*
D02*
G37*
G36*
X323940Y147857D02*
X323989Y147752D01*
X324070Y147659D01*
X324184Y147578D01*
X324331Y147510D01*
X324511Y147454D01*
X324723Y147411D01*
X324968Y147380D01*
X325245Y147361D01*
X325555Y147355D01*
Y145355D01*
X325245Y145349D01*
X324723Y145299D01*
X324511Y145256D01*
X324331Y145200D01*
X324184Y145132D01*
X324070Y145051D01*
X323989Y144958D01*
X323940Y144853D01*
X323923Y144735D01*
Y147975D01*
X323940Y147857D01*
D02*
G37*
G36*
X280349Y150677D02*
X280378Y150600D01*
X280420Y150515D01*
X280476Y150422D01*
X280546Y150322D01*
X280724Y150098D01*
X280956Y149844D01*
X281092Y149705D01*
X279395Y148008D01*
X279256Y148144D01*
X278778Y148554D01*
X278678Y148624D01*
X278585Y148679D01*
X278500Y148722D01*
X278423Y148751D01*
X278354Y148767D01*
X280333Y150746D01*
X280349Y150677D01*
D02*
G37*
G36*
X442677Y148968D02*
X442782Y148670D01*
X442957Y148407D01*
X443203Y148180D01*
X443519Y147987D01*
X443905Y147830D01*
X444362Y147707D01*
X444889Y147620D01*
X445487Y147567D01*
X445636Y147564D01*
X445720Y147566D01*
X446315Y147612D01*
X446840Y147690D01*
X447295Y147799D01*
X447680Y147939D01*
X447995Y148110D01*
X448240Y148312D01*
X448415Y148545D01*
X448520Y148810D01*
X448555Y149105D01*
X452055Y145800D01*
X449484Y141944D01*
X452055D01*
X452237Y138243D01*
X448374D01*
X448408Y138329D01*
X448439Y138478D01*
X448466Y138690D01*
X448510Y139304D01*
X448537Y140893D01*
X448520Y141215D01*
X448415Y141810D01*
X448240Y142335D01*
X447995Y142790D01*
X447680Y143175D01*
X447295Y143490D01*
X446840Y143735D01*
X446315Y143910D01*
X445720Y144015D01*
X445449Y144029D01*
X444886Y143980D01*
X444358Y143893D01*
X443900Y143770D01*
X443512Y143613D01*
X443194Y143421D01*
X442947Y143194D01*
X442770Y142931D01*
X442664Y142634D01*
X442628Y142302D01*
X442643Y149300D01*
X442677Y148968D01*
D02*
G37*
G36*
X459806Y145557D02*
X460237D01*
X460154Y145408D01*
X460081Y145219D01*
X460016Y144991D01*
X459960Y144723D01*
X459913Y144416D01*
X459881Y144072D01*
X459919Y143483D01*
X459969Y143213D01*
X460028Y143003D01*
X460097Y142853D01*
X460174Y142763D01*
X460260Y142734D01*
X459809D01*
X459805Y142285D01*
X456805D01*
X456801Y142734D01*
X456350D01*
X456436Y142763D01*
X456514Y142853D01*
X456582Y143003D01*
X456641Y143213D01*
X456691Y143483D01*
X456732Y143814D01*
X456734Y143840D01*
X456697Y144416D01*
X456650Y144723D01*
X456594Y144991D01*
X456529Y145219D01*
X456456Y145408D01*
X456374Y145557D01*
X456802D01*
X456805Y145733D01*
X459805D01*
X459806Y145557D01*
D02*
G37*
G36*
X284720Y268046D02*
X284767Y267952D01*
X284846Y267870D01*
X284956Y267798D01*
X285097Y267738D01*
X285270Y267688D01*
X285474Y267650D01*
X285709Y267622D01*
X285976Y267605D01*
X286275Y267600D01*
Y265600D01*
X285976Y265595D01*
X285474Y265550D01*
X285270Y265512D01*
X285097Y265462D01*
X284956Y265402D01*
X284846Y265330D01*
X284767Y265248D01*
X284720Y265154D01*
X284704Y265049D01*
Y268151D01*
X284720Y268046D01*
D02*
G37*
G36*
X281314Y264764D02*
X281192Y264923D01*
X281050Y265065D01*
X280888Y265190D01*
X280705Y265299D01*
X280503Y265391D01*
X280280Y265466D01*
X280100Y265509D01*
X279920Y265466D01*
X279697Y265391D01*
X279495Y265299D01*
X279312Y265190D01*
X279150Y265065D01*
X279008Y264923D01*
X278886Y264764D01*
X278764Y264666D01*
X278656Y264542D01*
X278560Y264393D01*
X278477Y264218D01*
X278406Y264018D01*
X278349Y263792D01*
X278304Y263541D01*
X278272Y263265D01*
X278246Y262635D01*
X276247D01*
X276240Y262963D01*
X276189Y263541D01*
X276144Y263792D01*
X276087Y264018D01*
X276016Y264218D01*
X275933Y264393D01*
X275837Y264542D01*
X275729Y264666D01*
X275607Y264764D01*
X278886D01*
Y268436D01*
X279008Y268277D01*
X279150Y268135D01*
X279312Y268010D01*
X279495Y267901D01*
X279697Y267809D01*
X279920Y267734D01*
X280100Y267691D01*
X280280Y267734D01*
X280503Y267809D01*
X280705Y267901D01*
X280888Y268010D01*
X281050Y268135D01*
X281192Y268277D01*
X281314Y268436D01*
Y264764D01*
D02*
G37*
G36*
X273584Y258348D02*
X273642Y258191D01*
X273739Y258052D01*
X273874Y257932D01*
X274049Y257831D01*
X274261Y257748D01*
X274513Y257683D01*
X274803Y257637D01*
X275132Y257609D01*
X275500Y257600D01*
Y255600D01*
X275132Y255591D01*
X274803Y255563D01*
X274513Y255517D01*
X274261Y255452D01*
X274049Y255369D01*
X273874Y255268D01*
X273739Y255148D01*
X273642Y255009D01*
X273584Y254852D01*
X273565Y254677D01*
Y258523D01*
X273584Y258348D01*
D02*
G37*
G36*
X372595Y264215D02*
X372685Y263960D01*
X372836Y263735D01*
X373047Y263540D01*
X373318Y263375D01*
X373649Y263240D01*
X374041Y263135D01*
X374493Y263060D01*
X375005Y263015D01*
X375577Y263000D01*
Y260000D01*
X375005Y259985D01*
X374493Y259940D01*
X374041Y259865D01*
X373649Y259760D01*
X373318Y259625D01*
X373047Y259460D01*
X372836Y259265D01*
X372685Y259040D01*
X372595Y258785D01*
X372565Y258500D01*
Y264500D01*
X372595Y264215D01*
D02*
G37*
G36*
X291120Y271019D02*
X291020Y270898D01*
X290933Y270749D01*
X290857Y270571D01*
X290792Y270365D01*
X290740Y270131D01*
X290699Y269868D01*
X290692Y269796D01*
X290704Y269659D01*
X290749Y269408D01*
X290806Y269182D01*
X290877Y268982D01*
X290960Y268807D01*
X291056Y268658D01*
X291164Y268534D01*
X291286Y268436D01*
X288007D01*
X288128Y268534D01*
X288237Y268658D01*
X288333Y268807D01*
X288416Y268982D01*
X288487Y269182D01*
X288544Y269408D01*
X288589Y269659D01*
X288596Y269717D01*
X288556Y269957D01*
X288487Y270222D01*
X288397Y270444D01*
X288286Y270624D01*
X288156Y270762D01*
X288006Y270858D01*
X287837Y270910D01*
X287647Y270921D01*
X291231Y271111D01*
X291120Y271019D01*
D02*
G37*
G36*
X352100Y286100D02*
X350100Y283100D01*
X350080Y283480D01*
X350020Y283820D01*
X349920Y284120D01*
X349780Y284380D01*
X349600Y284600D01*
X349380Y284780D01*
X349120Y284920D01*
X348820Y285020D01*
X348480Y285080D01*
X348100Y285100D01*
Y287100D01*
X348480Y287120D01*
X348820Y287180D01*
X349120Y287280D01*
X349380Y287420D01*
X349600Y287600D01*
X349780Y287820D01*
X349920Y288080D01*
X350020Y288380D01*
X350080Y288720D01*
X350100Y289100D01*
X352100Y286100D01*
D02*
G37*
G36*
X344085Y287910D02*
X344145Y287740D01*
X344246Y287590D01*
X344387Y287460D01*
X344568Y287350D01*
X344789Y287260D01*
X345051Y287190D01*
X345352Y287140D01*
X345694Y287110D01*
X346077Y287100D01*
Y285100D01*
X345694Y285090D01*
X345352Y285060D01*
X345051Y285010D01*
X344789Y284940D01*
X344568Y284850D01*
X344387Y284740D01*
X344246Y284610D01*
X344145Y284460D01*
X344085Y284290D01*
X344065Y284100D01*
Y288100D01*
X344085Y287910D01*
D02*
G37*
G36*
X431781Y271675D02*
X432849Y271232D01*
X433811Y270590D01*
X434219Y270181D01*
X435156Y269244D01*
X435156Y269243D01*
X435788Y268671D01*
X437203Y267725D01*
X438776Y267074D01*
X440446Y266742D01*
X441297Y266700D01*
X487202Y266700D01*
X487202Y266700D01*
X487202Y266700D01*
X487938Y266700D01*
X489384Y266413D01*
X490745Y265849D01*
X491970Y265030D01*
X492491Y264509D01*
X492929Y264092D01*
X493864Y263325D01*
X494869Y262653D01*
X495936Y262083D01*
X497053Y261620D01*
X498210Y261269D01*
X499396Y261033D01*
X500600Y260915D01*
X501204Y260900D01*
X502700Y260900D01*
X503284Y247461D01*
X502939Y247100D01*
X500262Y247100D01*
X500262Y247100D01*
X499627Y247084D01*
X498363Y246960D01*
X497117Y246712D01*
X495901Y246343D01*
X494727Y245857D01*
X493607Y245258D01*
X492550Y244552D01*
X491568Y243746D01*
X491108Y243308D01*
X485897Y238097D01*
X485897Y238097D01*
X485494Y237694D01*
X484613Y236971D01*
X483666Y236338D01*
X482661Y235801D01*
X481608Y235365D01*
X480517Y235034D01*
X479400Y234812D01*
X478266Y234700D01*
X477696Y234700D01*
X470326Y234700D01*
X470326Y234700D01*
X469301Y234661D01*
X467273Y234352D01*
X465316Y233742D01*
X463472Y232844D01*
X462606Y232293D01*
X462606D01*
X461813Y231745D01*
X460186Y230712D01*
X458520Y229742D01*
X456817Y228838D01*
X455949Y228419D01*
X455949Y228419D01*
X455211Y228023D01*
X453851Y227045D01*
X452681Y225846D01*
X451736Y224463D01*
X451358Y223715D01*
X450400Y221600D01*
X438700D01*
X438048Y224207D01*
X438048D01*
X438048Y224207D01*
X437836Y224900D01*
X437198Y226199D01*
X436303Y227336D01*
X435189Y228260D01*
X434566Y228629D01*
X433106Y229392D01*
Y229392D01*
X432588Y229663D01*
X431634Y230341D01*
X430781Y231142D01*
X430044Y232051D01*
X429438Y233052D01*
X428973Y234126D01*
X428659Y235253D01*
X428500Y236413D01*
X428500Y236998D01*
Y241742D01*
X428500Y241742D01*
X428500Y241742D01*
X428460Y242671D01*
X428140Y244503D01*
X427510Y246252D01*
X426588Y247867D01*
X426026Y248608D01*
X423711Y251404D01*
X423711Y251404D01*
X423711Y251404D01*
X423035Y252221D01*
X421984Y254063D01*
X421265Y256059D01*
X420900Y258148D01*
X420900Y259209D01*
X420900Y268100D01*
X420900Y268100D01*
X420923Y268590D01*
X421046Y269209D01*
X421332Y269900D01*
X421748Y270523D01*
X422277Y271052D01*
X422900Y271468D01*
X423592Y271754D01*
X424326Y271900D01*
X424700Y271900D01*
X430069Y271900D01*
X430069Y271900D01*
X430069Y271900D01*
X430647Y271900D01*
X431781Y271675D01*
D02*
G37*
G36*
X410269Y272214D02*
X410179Y272253D01*
X410014Y272287D01*
X409775Y272317D01*
X409073Y272366D01*
X406013Y272416D01*
Y276416D01*
X410269Y276619D01*
Y272214D01*
D02*
G37*
G36*
X249185Y248710D02*
X249245Y248540D01*
X249346Y248390D01*
X249487Y248260D01*
X249668Y248150D01*
X249889Y248060D01*
X250151Y247990D01*
X250452Y247940D01*
X250795Y247910D01*
X251177Y247900D01*
Y245900D01*
X250795Y245890D01*
X250452Y245860D01*
X250151Y245810D01*
X249889Y245740D01*
X249668Y245650D01*
X249487Y245540D01*
X249346Y245410D01*
X249245Y245260D01*
X249185Y245090D01*
X249165Y244900D01*
Y248900D01*
X249185Y248710D01*
D02*
G37*
G36*
X373869Y245707D02*
X373772Y245829D01*
X373651Y245937D01*
X373507Y246033D01*
X373340Y246116D01*
X373149Y246187D01*
X372936Y246244D01*
X372698Y246289D01*
X372438Y246321D01*
X372154Y246340D01*
X371847Y246346D01*
Y248346D01*
X372154Y248353D01*
X372698Y248404D01*
X372936Y248449D01*
X373149Y248506D01*
X373340Y248577D01*
X373507Y248660D01*
X373651Y248756D01*
X373772Y248864D01*
X373869Y248986D01*
Y245707D01*
D02*
G37*
G36*
X359734Y244297D02*
X360594Y243536D01*
X360717Y243450D01*
X360823Y243385D01*
X360913Y243343D01*
X360987Y243323D01*
X357877Y240213D01*
X357857Y240287D01*
X357815Y240377D01*
X357750Y240483D01*
X357664Y240606D01*
X357425Y240901D01*
X357099Y241261D01*
X356684Y241687D01*
X359513Y244516D01*
X359734Y244297D01*
D02*
G37*
G36*
X392554Y252378D02*
X392702Y249936D01*
X392741Y249789D01*
X392751Y249769D01*
X392799Y249715D01*
X392952Y249607D01*
X393151Y249512D01*
X393395Y249429D01*
X393686Y249359D01*
X394021Y249302D01*
X394403Y249257D01*
X395302Y249206D01*
X395819Y249200D01*
X395739Y246893D01*
X399200Y249200D01*
X403700Y246200D01*
X403130Y246170D01*
X402620Y246080D01*
X402170Y245930D01*
X401780Y245720D01*
X401450Y245450D01*
X401180Y245120D01*
X400970Y244730D01*
X400820Y244280D01*
X400730Y243770D01*
X400700Y243200D01*
X397700D01*
X397670Y243770D01*
X397580Y244280D01*
X397430Y244730D01*
X397220Y245120D01*
X396950Y245450D01*
X396620Y245720D01*
X396230Y245930D01*
X395780Y246080D01*
X395270Y246170D01*
X395148Y246176D01*
X392548Y246069D01*
X392686Y249694D01*
X389317D01*
X389361Y249789D01*
X389401Y249936D01*
X389437Y250132D01*
X389467Y250380D01*
X389530Y251427D01*
X389551Y252929D01*
X392551D01*
X392554Y252378D01*
D02*
G37*
G36*
X377639Y248864D02*
X377763Y248756D01*
X377912Y248660D01*
X378087Y248577D01*
X378287Y248506D01*
X378513Y248449D01*
X378764Y248404D01*
X379040Y248372D01*
X379670Y248346D01*
Y246346D01*
X379342Y246340D01*
X378764Y246289D01*
X378513Y246244D01*
X378287Y246187D01*
X378087Y246116D01*
X377912Y246033D01*
X377763Y245937D01*
X377639Y245829D01*
X377541Y245707D01*
Y248986D01*
X377639Y248864D01*
D02*
G37*
G36*
X327049Y247801D02*
X326982Y247839D01*
X326888Y247873D01*
X326768Y247902D01*
X326620Y247928D01*
X326242Y247968D01*
X325757Y247992D01*
X325163Y248000D01*
Y252000D01*
X325473Y252002D01*
X326620Y252072D01*
X326768Y252098D01*
X326888Y252127D01*
X326982Y252161D01*
X327049Y252199D01*
Y247801D01*
D02*
G37*
G36*
X343718Y252161D02*
X343812Y252127D01*
X343932Y252098D01*
X344080Y252072D01*
X344458Y252032D01*
X344943Y252008D01*
X345537Y252000D01*
Y248000D01*
X345227Y247998D01*
X344080Y247928D01*
X343932Y247902D01*
X343812Y247873D01*
X343718Y247839D01*
X343651Y247801D01*
Y252199D01*
X343718Y252161D01*
D02*
G37*
G36*
X382862Y246069D02*
X382764Y246121D01*
X382639Y246169D01*
X382485Y246210D01*
X382303Y246246D01*
X381854Y246302D01*
X381291Y246335D01*
X380616Y246346D01*
X380591Y248346D01*
X380987Y248356D01*
X381340Y248387D01*
X381650Y248436D01*
X381916Y248506D01*
X382139Y248597D01*
X382318Y248706D01*
X382455Y248836D01*
X382547Y248987D01*
X382597Y249156D01*
X382603Y249346D01*
X382862Y246069D01*
D02*
G37*
G36*
X416152Y248625D02*
X415986Y248593D01*
X415818Y248545D01*
X415648Y248480D01*
X415475Y248399D01*
X415299Y248301D01*
X415121Y248187D01*
X414941Y248056D01*
X414573Y247745D01*
X414386Y247565D01*
X412264Y249686D01*
X412445Y249873D01*
X412756Y250241D01*
X412887Y250421D01*
X413001Y250599D01*
X413099Y250775D01*
X413180Y250947D01*
X413245Y251118D01*
X413293Y251286D01*
X413325Y251452D01*
X416152Y248625D01*
D02*
G37*
G36*
X429756Y348456D02*
X430202Y342493D01*
X430592Y339861D01*
X431094Y337463D01*
X431707Y335297D01*
X432432Y333365D01*
X432577Y333070D01*
X432900Y332980D01*
X434700Y332650D01*
X445900Y331930D01*
X449700Y331900D01*
X449485Y331700D01*
X469758D01*
X469758Y331700D01*
X469758Y331700D01*
X470743Y331700D01*
X472675Y331316D01*
X474357Y330619D01*
X474422Y330463D01*
X475367Y328920D01*
X476543Y327543D01*
X491617Y312469D01*
X492994Y311294D01*
X494537Y310348D01*
X495758Y309842D01*
X500900Y304700D01*
X500833Y304626D01*
X500721Y304459D01*
X500644Y304273D01*
X500605Y304076D01*
X500600Y303976D01*
X500600Y296500D01*
X500600Y296500D01*
X496192Y296410D01*
X487375Y296580D01*
X478572Y297102D01*
X469797Y297975D01*
X465430Y298587D01*
X465430Y298587D01*
X464216Y298643D01*
X463388Y298649D01*
X463382Y298637D01*
X462787Y298648D01*
X460548Y298603D01*
X460239Y298589D01*
X458424Y298457D01*
X457600Y298376D01*
X456236Y298204D01*
X455048Y298024D01*
X453990Y297834D01*
X452591Y297546D01*
X451690Y297335D01*
X450232Y296955D01*
X449344Y296696D01*
X447975Y296261D01*
X446351Y295695D01*
X445234Y295256D01*
X445234Y295256D01*
X445234Y295256D01*
X439394Y292869D01*
X439205D01*
X438505Y292777D01*
X437853Y292507D01*
X437292Y292077D01*
X436970Y291656D01*
X436655Y291468D01*
X435750Y290829D01*
X435316Y290485D01*
X435316Y290485D01*
X435316Y290485D01*
X431700Y287500D01*
X422197D01*
X421226Y289271D01*
X421158Y289632D01*
X421159Y289638D01*
X421159Y289638D01*
X421150Y289699D01*
X421139Y289728D01*
X420926Y290178D01*
X412797Y307306D01*
X412415Y307185D01*
X407458Y312142D01*
X406773Y312763D01*
X405238Y313788D01*
X403533Y314495D01*
X401723Y314855D01*
X400800Y314900D01*
Y325061D01*
X400866Y325391D01*
X400994Y325701D01*
X401181Y325981D01*
X401300Y326100D01*
Y326100D01*
X404868Y329667D01*
X406505Y330762D01*
X408325Y331516D01*
X410257Y331900D01*
X416712D01*
X417034Y331518D01*
X414822Y318602D01*
X424781Y317951D01*
X416900Y331900D01*
X420428Y332020D01*
X421898Y332170D01*
X423172Y332380D01*
X423527Y332469D01*
X423968Y333365D01*
X424693Y335297D01*
X425306Y337463D01*
X425808Y339861D01*
X426198Y342493D01*
X426644Y348456D01*
X426700Y351787D01*
X429700D01*
X429756Y348456D01*
D02*
G37*
G36*
X450213Y335718D02*
X449959Y335628D01*
X449734Y335477D01*
X449539Y335265D01*
X449374Y334994D01*
X449240Y334662D01*
X449135Y334270D01*
X449060Y333818D01*
X449015Y333305D01*
X449000Y332732D01*
X446000D01*
X445985Y333305D01*
X445940Y333818D01*
X445865Y334270D01*
X445760Y334662D01*
X445626Y334994D01*
X445461Y335265D01*
X445266Y335477D01*
X445042Y335628D01*
X444787Y335718D01*
X444502Y335748D01*
X450498D01*
X450213Y335718D01*
D02*
G37*
G36*
X24115Y313685D02*
X25457Y312822D01*
X26092Y312471D01*
X26704Y312174D01*
X27291Y311932D01*
X27855Y311743D01*
X28396Y311608D01*
X28912Y311527D01*
X29405Y311500D01*
Y306500D01*
X28912Y306473D01*
X28396Y306392D01*
X27855Y306257D01*
X27291Y306068D01*
X26704Y305826D01*
X26092Y305529D01*
X25457Y305178D01*
X24115Y304315D01*
X23408Y303802D01*
Y314198D01*
X24115Y313685D01*
D02*
G37*
G36*
X263110Y314603D02*
X266799D01*
X266609Y314583D01*
X266439Y314522D01*
X266289Y314421D01*
X266160Y314280D01*
X266050Y314099D01*
X265960Y313878D01*
X265890Y313616D01*
X265840Y313314D01*
X265810Y312971D01*
X265800Y312588D01*
X263800D01*
X263790Y312971D01*
X263760Y313314D01*
X263710Y313616D01*
X263640Y313878D01*
X263550Y314099D01*
X263440Y314280D01*
X263311Y314421D01*
X263161Y314522D01*
X262991Y314583D01*
X262801Y314603D01*
X263107D01*
X262903Y314653D01*
X262676Y314665D01*
X262436Y314635D01*
X262183Y314564D01*
X261917Y314452D01*
X261637Y314299D01*
X261344Y314104D01*
X261038Y313868D01*
X260719Y313591D01*
X260386Y313272D01*
X258343Y314057D01*
X258647Y314375D01*
X258896Y314667D01*
X259092Y314933D01*
X259233Y315174D01*
X259321Y315389D01*
X259355Y315579D01*
X259335Y315742D01*
X259261Y315881D01*
X259132Y315993D01*
X258950Y316080D01*
X263110Y314603D01*
D02*
G37*
G36*
X132854Y392224D02*
X132636Y392179D01*
X132408Y392107D01*
X132171Y392007D01*
X131924Y391880D01*
X131668Y391725D01*
X131403Y391542D01*
X130844Y391093D01*
X130550Y390827D01*
X130247Y390533D01*
X126711Y394068D01*
X127005Y394371D01*
X127720Y395224D01*
X127903Y395489D01*
X128059Y395745D01*
X128186Y395992D01*
X128286Y396229D01*
X128358Y396457D01*
X128402Y396676D01*
X132854Y392224D01*
D02*
G37*
G36*
X478215Y461393D02*
X477960Y461303D01*
X477735Y461153D01*
X477540Y460943D01*
X477375Y460673D01*
X477240Y460343D01*
X477135Y459953D01*
X477060Y459503D01*
X477015Y458993D01*
X477000Y458423D01*
X474000D01*
X473985Y458993D01*
X473940Y459503D01*
X473865Y459953D01*
X473760Y460343D01*
X473625Y460673D01*
X473460Y460943D01*
X473265Y461153D01*
X473040Y461303D01*
X472785Y461393D01*
X472500Y461423D01*
X478500D01*
X478215Y461393D01*
D02*
G37*
G36*
X448715Y461893D02*
X448460Y461803D01*
X448235Y461653D01*
X448040Y461443D01*
X447875Y461173D01*
X447740Y460843D01*
X447635Y460453D01*
X447560Y460003D01*
X447515Y459493D01*
X447500Y458923D01*
X444500D01*
X444485Y459493D01*
X444440Y460003D01*
X444365Y460453D01*
X444260Y460843D01*
X444125Y461173D01*
X443960Y461443D01*
X443765Y461653D01*
X443540Y461803D01*
X443285Y461893D01*
X443000Y461923D01*
X449000D01*
X448715Y461893D01*
D02*
G37*
G36*
X496340Y434063D02*
X496916Y433702D01*
X497656Y433083D01*
X498560Y432207D01*
X500863Y429682D01*
X503823Y426126D01*
X496995D01*
X497043Y426045D01*
X498166Y424385D01*
X499609Y422407D01*
X488591D01*
X489353Y423436D01*
X491126Y426126D01*
X484377D01*
X485939Y428032D01*
X490544Y433083D01*
X491284Y433702D01*
X491860Y434063D01*
X492271Y434166D01*
X492518Y434012D01*
X492600Y433600D01*
X495600D01*
X495682Y434012D01*
X495929Y434166D01*
X496340Y434063D01*
D02*
G37*
G36*
X88913Y485887D02*
X88913Y485887D01*
Y485887D01*
X89457Y485343D01*
X90433Y484153D01*
X91288Y482874D01*
X92013Y481517D01*
X92602Y480095D01*
X93049Y478623D01*
X93349Y477114D01*
X93500Y475582D01*
X93500Y474813D01*
X93500Y461000D01*
X92300D01*
X77000Y445700D01*
X75880Y446820D01*
X75880Y446820D01*
X75372Y447328D01*
X74462Y448438D01*
X73664Y449631D01*
X72987Y450898D01*
X72438Y452224D01*
X72021Y453598D01*
X71741Y455006D01*
X71600Y456435D01*
X71600Y457153D01*
X71600Y469399D01*
X71600Y469399D01*
X71600Y469399D01*
X71600Y470635D01*
X71815Y473097D01*
X72244Y475531D01*
X72883Y477918D01*
X73728Y480241D01*
X74771Y482482D01*
X76006Y484623D01*
X77422Y486648D01*
X79356Y488956D01*
X84652Y490148D01*
X88913Y485887D01*
D02*
G37*
G36*
X267668Y294608D02*
X267736Y293748D01*
X267777Y293521D01*
X267827Y293325D01*
X267887Y293159D01*
X267955Y293023D01*
X268033Y292917D01*
X268119Y292841D01*
X265207D01*
X265293Y292917D01*
X265371Y293023D01*
X265439Y293159D01*
X265499Y293325D01*
X265549Y293521D01*
X265590Y293748D01*
X265622Y294004D01*
X265658Y294608D01*
X265663Y294954D01*
X267663D01*
X267668Y294608D01*
D02*
G37*
G36*
X375517Y294178D02*
X375441Y294265D01*
X375335Y294343D01*
X375199Y294411D01*
X375033Y294470D01*
X374836Y294521D01*
X374610Y294562D01*
X374353Y294594D01*
X373750Y294630D01*
X373403Y294635D01*
Y296635D01*
X373750Y296639D01*
X374610Y296708D01*
X374836Y296749D01*
X375033Y296799D01*
X375199Y296858D01*
X375335Y296927D01*
X375441Y297004D01*
X375517Y297091D01*
Y294178D01*
D02*
G37*
G36*
X290669Y287958D02*
X290480Y287944D01*
X290312Y287887D01*
X290163Y287786D01*
X290034Y287640D01*
X289924Y287451D01*
X289835Y287218D01*
X289765Y286941D01*
X289716Y286620D01*
X289688Y286283D01*
X289716Y285967D01*
X289766Y285665D01*
X289836Y285403D01*
X289926Y285182D01*
X290036Y285001D01*
X290166Y284860D01*
X290316Y284759D01*
X290486Y284699D01*
X290676Y284679D01*
X286676D01*
X286866Y284699D01*
X287036Y284759D01*
X287186Y284860D01*
X287316Y285001D01*
X287426Y285182D01*
X287516Y285403D01*
X287586Y285665D01*
X287636Y285967D01*
X287666Y286309D01*
X287676Y286691D01*
X287681D01*
X287696Y288086D01*
X290669Y287958D01*
D02*
G37*
G36*
X279805Y288400D02*
X279785Y288590D01*
X279724Y288760D01*
X279624Y288910D01*
X279483Y289040D01*
X279302Y289150D01*
X279080Y289240D01*
X278819Y289310D01*
X278517Y289360D01*
X278175Y289390D01*
X277950Y289396D01*
X277725Y289390D01*
X277383Y289360D01*
X277081Y289310D01*
X276820Y289240D01*
X276598Y289150D01*
X276417Y289040D01*
X276276Y288910D01*
X276176Y288760D01*
X276115Y288590D01*
X276095Y288400D01*
Y292400D01*
X276115Y292210D01*
X276176Y292040D01*
X276276Y291890D01*
X276417Y291760D01*
X276598Y291650D01*
X276820Y291560D01*
X277081Y291490D01*
X277383Y291440D01*
X277725Y291410D01*
X277950Y291404D01*
X278175Y291410D01*
X278517Y291440D01*
X278819Y291490D01*
X279080Y291560D01*
X279302Y291650D01*
X279483Y291760D01*
X279624Y291890D01*
X279724Y292040D01*
X279785Y292210D01*
X279805Y292400D01*
Y288400D01*
D02*
G37*
G36*
X380423Y297084D02*
X380590Y297003D01*
X380774Y296932D01*
X380974Y296870D01*
X381189Y296817D01*
X381422Y296774D01*
X381934Y296717D01*
X382610Y296771D01*
X382836Y296812D01*
X383033Y296862D01*
X383199Y296921D01*
X383335Y296990D01*
X383441Y297067D01*
X383517Y297154D01*
Y294241D01*
X383441Y294328D01*
X383335Y294406D01*
X383199Y294474D01*
X383033Y294533D01*
X382836Y294584D01*
X382610Y294625D01*
X382353Y294657D01*
X381982Y294679D01*
X381580Y294651D01*
X381326Y294615D01*
X381100Y294568D01*
X380903Y294511D01*
X380734Y294443D01*
X380594Y294365D01*
X380482Y294277D01*
X380398Y294178D01*
X380272Y297175D01*
X380423Y297084D01*
D02*
G37*
G36*
X390963Y293344D02*
X390943Y293526D01*
X390883Y293689D01*
X390783Y293832D01*
X390643Y293956D01*
X390463Y294061D01*
X390243Y294147D01*
X389983Y294214D01*
X389683Y294262D01*
X389606Y294268D01*
X388332Y294184D01*
X388272Y294157D01*
X388398Y297154D01*
X388522Y296992D01*
X388666Y296847D01*
X388828Y296718D01*
X389010Y296607D01*
X389212Y296514D01*
X389433Y296437D01*
X389674Y296377D01*
X389798Y296357D01*
X389983Y296386D01*
X390243Y296453D01*
X390463Y296539D01*
X390643Y296644D01*
X390783Y296768D01*
X390883Y296912D01*
X390943Y297074D01*
X390963Y297255D01*
Y293344D01*
D02*
G37*
G36*
X261049Y311175D02*
X274466D01*
X272820Y309202D01*
X267967Y304146D01*
X267187Y303590D01*
X266580Y303317D01*
X266147Y303328D01*
X265887Y303623D01*
X265800Y304200D01*
X263800D01*
X263713Y303623D01*
X263453Y303328D01*
X263020Y303317D01*
X262413Y303590D01*
X261633Y304146D01*
X260680Y304985D01*
X259554Y306107D01*
X259124Y306586D01*
X257993Y306609D01*
X256881Y306803D01*
X256087Y307075D01*
X255608Y307427D01*
X255446Y307857D01*
X255600Y308367D01*
X256070Y308956D01*
X254656Y310370D01*
X254067Y309900D01*
X253557Y309746D01*
X253127Y309908D01*
X252775Y310387D01*
X252503Y311181D01*
X252309Y312293D01*
X252195Y313720D01*
X252159Y315463D01*
X252326Y319899D01*
X261049Y311175D01*
D02*
G37*
G36*
X356476Y297267D02*
X359460Y297019D01*
X359270Y297014D01*
X359101Y296965D01*
X358951Y296872D01*
X358821Y296736D01*
X358712Y296556D01*
X358622Y296333D01*
X358552Y296066D01*
X358518Y295855D01*
X358538Y295732D01*
X358596Y295489D01*
X358671Y295266D01*
X358763Y295063D01*
X358872Y294881D01*
X358997Y294718D01*
X359140Y294576D01*
X359298Y294454D01*
X355626D01*
X355785Y294576D01*
X355927Y294718D01*
X356052Y294881D01*
X356161Y295063D01*
X356253Y295266D01*
X356328Y295489D01*
X356387Y295732D01*
X356429Y295995D01*
X356430Y296005D01*
X356382Y297255D01*
X356354Y297291D01*
X356212Y297433D01*
X356050Y297559D01*
X355868Y297668D01*
X355665Y297759D01*
X355442Y297835D01*
X355199Y297893D01*
X354935Y297935D01*
X354651Y297960D01*
X354348Y297969D01*
Y299969D01*
X354651Y299977D01*
X354935Y300002D01*
X355199Y300044D01*
X355442Y300102D01*
X355665Y300178D01*
X355868Y300270D01*
X356050Y300378D01*
X356212Y300504D01*
X356354Y300646D01*
X356476Y300805D01*
Y297267D01*
D02*
G37*
G36*
X366528Y297232D02*
X366514Y297151D01*
X366502Y297033D01*
X366475Y296453D01*
X366473Y296250D01*
X366496Y295995D01*
X366537Y295732D01*
X366596Y295489D01*
X366671Y295266D01*
X366763Y295063D01*
X366872Y294881D01*
X366997Y294718D01*
X367140Y294576D01*
X367299Y294454D01*
X363626D01*
X363785Y294576D01*
X363927Y294718D01*
X364052Y294881D01*
X364161Y295063D01*
X364253Y295266D01*
X364328Y295489D01*
X364387Y295732D01*
X364406Y295855D01*
X364372Y296066D01*
X364303Y296333D01*
X364213Y296556D01*
X364103Y296736D01*
X363973Y296872D01*
X363824Y296965D01*
X363654Y297014D01*
X363465Y297019D01*
X366543Y297275D01*
X366528Y297232D01*
D02*
G37*
G36*
X334304Y241109D02*
X334336Y240777D01*
X334364Y240623D01*
X334400Y240476D01*
X334444Y240336D01*
X334496Y240203D01*
X334556Y240078D01*
X334624Y239961D01*
X334699Y239851D01*
X331901D01*
X331977Y239961D01*
X332044Y240078D01*
X332104Y240203D01*
X332156Y240336D01*
X332200Y240476D01*
X332236Y240623D01*
X332264Y240777D01*
X332284Y240940D01*
X332300Y241286D01*
X334300D01*
X334304Y241109D01*
D02*
G37*
G36*
X279864Y208014D02*
X279766Y208136D01*
X279642Y208244D01*
X279493Y208340D01*
X279318Y208423D01*
X279118Y208494D01*
X278892Y208551D01*
X278641Y208596D01*
X278432Y208620D01*
X278159Y208596D01*
X277908Y208551D01*
X277682Y208494D01*
X277482Y208423D01*
X277307Y208340D01*
X277158Y208244D01*
X277034Y208136D01*
X276936Y208014D01*
X276777Y207892D01*
X276635Y207750D01*
X276510Y207588D01*
X276401Y207405D01*
X276309Y207203D01*
X276234Y206980D01*
X276175Y206736D01*
X276133Y206473D01*
X276108Y206189D01*
X276100Y205885D01*
X274100D01*
X274092Y206189D01*
X274067Y206473D01*
X274025Y206736D01*
X273966Y206980D01*
X273891Y207203D01*
X273799Y207405D01*
X273690Y207588D01*
X273565Y207750D01*
X273423Y207892D01*
X273264Y208014D01*
X276936D01*
Y211293D01*
X277034Y211172D01*
X277158Y211063D01*
X277307Y210967D01*
X277482Y210884D01*
X277682Y210813D01*
X277908Y210756D01*
X278159Y210711D01*
X278368Y210687D01*
X278641Y210711D01*
X278892Y210756D01*
X279118Y210813D01*
X279318Y210884D01*
X279493Y210967D01*
X279642Y211063D01*
X279766Y211172D01*
X279864Y211293D01*
Y208014D01*
D02*
G37*
G36*
X303008Y217177D02*
X303150Y217035D01*
X303312Y216910D01*
X303495Y216801D01*
X303697Y216709D01*
X303920Y216634D01*
X304164Y216575D01*
X304427Y216533D01*
X304711Y216508D01*
X305015Y216500D01*
Y214500D01*
X304711Y214492D01*
X304427Y214467D01*
X304164Y214425D01*
X303920Y214366D01*
X303697Y214291D01*
X303495Y214199D01*
X303312Y214090D01*
X303150Y213965D01*
X303008Y213823D01*
X302886Y213664D01*
Y217336D01*
X303008Y217177D01*
D02*
G37*
G36*
X383036Y213551D02*
X383185Y213521D01*
X383397Y213494D01*
X384012Y213451D01*
X384109Y213450D01*
X385749Y213485D01*
Y213422D01*
X386658Y213407D01*
Y209907D01*
X385749Y209863D01*
Y209628D01*
X385636Y209681D01*
X385465Y209728D01*
X385235Y209770D01*
X384946Y209806D01*
X384784Y209816D01*
X382951Y209728D01*
Y209893D01*
X381981Y209907D01*
X382131Y213407D01*
X382951Y213424D01*
Y213585D01*
X383036Y213551D01*
D02*
G37*
G36*
X378049Y209728D02*
X377964Y209762D01*
X377815Y209792D01*
X377603Y209819D01*
X376988Y209862D01*
X374342Y209907D01*
Y213407D01*
X378049Y213585D01*
Y209728D01*
D02*
G37*
G36*
X315935Y214561D02*
X315933Y214549D01*
X315868Y214539D01*
X315740Y214530D01*
X314160Y214502D01*
X313087Y214500D01*
X313380Y216500D01*
X313760Y216502D01*
X315325Y216608D01*
X315468Y216642D01*
X315576Y216679D01*
X315651Y216721D01*
X315935Y214561D01*
D02*
G37*
G36*
X229220Y219611D02*
X228880Y219491D01*
X228580Y219291D01*
X228320Y219011D01*
X228100Y218651D01*
X227920Y218211D01*
X227780Y217691D01*
X227680Y217091D01*
X227620Y216411D01*
X227600Y215651D01*
X223600D01*
X223580Y216411D01*
X223520Y217091D01*
X223420Y217691D01*
X223280Y218211D01*
X223100Y218651D01*
X222880Y219011D01*
X222620Y219291D01*
X222320Y219491D01*
X221980Y219611D01*
X221600Y219651D01*
X229600D01*
X229220Y219611D01*
D02*
G37*
G36*
X393735Y220425D02*
Y215986D01*
X393514Y216111D01*
X393246Y216223D01*
X392930Y216321D01*
X392567Y216407D01*
X392156Y216479D01*
X391191Y216584D01*
X390035Y216637D01*
X389386Y216643D01*
Y220643D01*
X393735Y220425D01*
D02*
G37*
G36*
X369701Y218000D02*
X369629Y217972D01*
X369504Y217887D01*
X369329Y217746D01*
X368491Y216986D01*
X366652Y215184D01*
X364884Y216951D01*
X367700Y220001D01*
X369701Y218000D01*
D02*
G37*
G36*
X283664Y217418D02*
X283697Y217403D01*
X283752Y217390D01*
X283829Y217378D01*
X284049Y217361D01*
X284544Y217347D01*
X284753Y217347D01*
Y215347D01*
X284544Y215346D01*
X283697Y215290D01*
X283664Y215275D01*
X283653Y215258D01*
Y217435D01*
X283664Y217418D01*
D02*
G37*
G36*
X359371Y201717D02*
X359424Y201714D01*
X360415Y201701D01*
X361000Y201700D01*
Y199700D01*
X359349Y199679D01*
Y201721D01*
X359371Y201717D01*
D02*
G37*
G36*
X372158Y205104D02*
X372224Y204239D01*
X372263Y204012D01*
X372312Y203816D01*
X372369Y203650D01*
X372435Y203515D01*
X372510Y203410D01*
X372593Y203336D01*
X369314D01*
X369398Y203410D01*
X369472Y203515D01*
X369538Y203650D01*
X369595Y203816D01*
X369644Y204012D01*
X369683Y204239D01*
X369714Y204497D01*
X369749Y205104D01*
X369754Y205453D01*
X372153D01*
X372158Y205104D01*
D02*
G37*
G36*
X315935Y199561D02*
X315851Y199587D01*
X315735Y199611D01*
X315586Y199632D01*
X315189Y199665D01*
X314002Y199699D01*
X313623Y199700D01*
Y201700D01*
X314002Y201701D01*
X315851Y201813D01*
X315935Y201839D01*
Y199561D01*
D02*
G37*
G36*
X353337D02*
X353253Y199587D01*
X353137Y199611D01*
X352988Y199632D01*
X352591Y199665D01*
X351403Y199699D01*
X351025Y199700D01*
Y201700D01*
X351403Y201701D01*
X353253Y201813D01*
X353337Y201839D01*
Y199561D01*
D02*
G37*
G36*
X403828Y208525D02*
X404036Y208445D01*
X404288Y208375D01*
X404585Y208314D01*
X404927Y208262D01*
X405744Y208187D01*
X406740Y208149D01*
X407305Y208144D01*
Y204644D01*
X406740Y204640D01*
X404927Y204527D01*
X404585Y204475D01*
X404288Y204414D01*
X404036Y204344D01*
X403828Y204264D01*
X403665Y204175D01*
Y208614D01*
X403828Y208525D01*
D02*
G37*
G36*
X390728Y213451D02*
X390852Y213421D01*
X391024Y213394D01*
X391508Y213351D01*
X392588Y213314D01*
X393543Y213307D01*
Y210562D01*
X396443Y211132D01*
X396969Y210631D01*
X397488Y210186D01*
X398000Y209797D01*
X398505Y209464D01*
X399003Y209187D01*
X399495Y208967D01*
X399980Y208802D01*
X400457Y208694D01*
X400928Y208641D01*
X401393Y208645D01*
X393386Y208092D01*
X393410Y208287D01*
X393404Y208487D01*
X393369Y208694D01*
X393305Y208908D01*
X393211Y209127D01*
X393089Y209353D01*
X392937Y209585D01*
X392782Y209789D01*
X390728Y209662D01*
X390651Y209628D01*
Y213485D01*
X390728Y213451D01*
D02*
G37*
G36*
X315935Y209561D02*
X315851Y209587D01*
X315735Y209611D01*
X315586Y209632D01*
X315189Y209665D01*
X314002Y209699D01*
X313623Y209700D01*
Y211700D01*
X314002Y211701D01*
X315851Y211813D01*
X315935Y211839D01*
Y209561D01*
D02*
G37*
G36*
Y204561D02*
X315851Y204587D01*
X315735Y204611D01*
X315586Y204632D01*
X315189Y204665D01*
X314002Y204699D01*
X313623Y204700D01*
Y206700D01*
X314002Y206701D01*
X315851Y206813D01*
X315935Y206839D01*
Y204561D01*
D02*
G37*
G36*
X283634Y211172D02*
X283758Y211063D01*
X283907Y210967D01*
X284082Y210884D01*
X284282Y210813D01*
X284508Y210756D01*
X284759Y210711D01*
X285035Y210679D01*
X285665Y210653D01*
Y208653D01*
X285337Y208647D01*
X284759Y208596D01*
X284508Y208551D01*
X284282Y208494D01*
X284082Y208423D01*
X283907Y208340D01*
X283758Y208244D01*
X283634Y208136D01*
X283536Y208014D01*
Y211293D01*
X283634Y211172D01*
D02*
G37*
G36*
X347111Y234261D02*
X347187Y234228D01*
X347277Y234198D01*
X347382Y234172D01*
X347502Y234150D01*
X347786Y234118D01*
X348130Y234102D01*
X348324Y234100D01*
Y231700D01*
X348130Y231698D01*
X347502Y231650D01*
X347382Y231628D01*
X347294Y231606D01*
X347272Y231518D01*
X347250Y231398D01*
X347218Y231114D01*
X347202Y230770D01*
X347200Y230576D01*
X344800D01*
X344798Y230770D01*
X344750Y231398D01*
X344728Y231518D01*
X344702Y231623D01*
X344672Y231713D01*
X344638Y231789D01*
X344601Y231849D01*
X347051D01*
Y234299D01*
X347111Y234261D01*
D02*
G37*
G36*
X332849Y231501D02*
X332789Y231539D01*
X332713Y231572D01*
X332623Y231602D01*
X332518Y231628D01*
X332398Y231650D01*
X332114Y231682D01*
X331770Y231698D01*
X331576Y231700D01*
Y234100D01*
X331770Y234102D01*
X332398Y234150D01*
X332518Y234172D01*
X332623Y234198D01*
X332713Y234228D01*
X332789Y234261D01*
X332849Y234299D01*
Y231501D01*
D02*
G37*
G36*
X376249Y230477D02*
X376278Y230400D01*
X376321Y230315D01*
X376377Y230222D01*
X376446Y230122D01*
X376624Y229898D01*
X376856Y229644D01*
X376992Y229505D01*
X375295Y227808D01*
X375156Y227944D01*
X374678Y228354D01*
X374578Y228424D01*
X374485Y228480D01*
X374400Y228522D01*
X374323Y228551D01*
X374254Y228567D01*
X376233Y230546D01*
X376249Y230477D01*
D02*
G37*
G36*
X246450Y229528D02*
X246414Y229542D01*
X246347Y229554D01*
X246249Y229565D01*
X245770Y229589D01*
X244700Y229600D01*
X244271Y233600D01*
X244577Y233603D01*
X245561Y233680D01*
X245746Y233716D01*
X245908Y233758D01*
X246046Y233806D01*
X246160Y233860D01*
X246250Y233922D01*
X246450Y229528D01*
D02*
G37*
G36*
X360549Y231501D02*
X360489Y231539D01*
X360413Y231572D01*
X360323Y231602D01*
X360218Y231628D01*
X360098Y231650D01*
X359814Y231682D01*
X359470Y231698D01*
X359276Y231700D01*
Y234100D01*
X359470Y234102D01*
X360098Y234150D01*
X360218Y234172D01*
X360323Y234198D01*
X360413Y234228D01*
X360489Y234261D01*
X360549Y234299D01*
Y231501D01*
D02*
G37*
G36*
X409747Y243447D02*
X409872Y243108D01*
X410079Y242809D01*
X410370Y242550D01*
X410743Y242331D01*
X411199Y242151D01*
X411739Y242012D01*
X412361Y241912D01*
X412998Y241858D01*
X414601Y241988D01*
X415040Y242076D01*
X415401Y242183D01*
X415681Y242310D01*
X415881Y242456D01*
X416001Y242622D01*
X416041Y242808D01*
X416048Y238692D01*
X416085Y238818D01*
X416118Y239061D01*
X416107Y239289D01*
X416052Y239500D01*
X417590Y235404D01*
X417493Y235575D01*
X417358Y235677D01*
X417182Y235713D01*
X416968Y235681D01*
X416714Y235581D01*
X416421Y235414D01*
X416088Y235179D01*
X415716Y234877D01*
X415160Y234358D01*
X415201Y233894D01*
X415243Y233668D01*
X415298Y233477D01*
X415365Y233321D01*
X415444Y233200D01*
X415534Y233113D01*
X415638Y233061D01*
X415753Y233044D01*
X412540D01*
X412655Y233061D01*
X412758Y233113D01*
X412849Y233200D01*
X412928Y233321D01*
X412995Y233477D01*
X413049Y233668D01*
X413092Y233894D01*
X413122Y234154D01*
X413140Y234449D01*
X413146Y234778D01*
X414792D01*
X414626Y236672D01*
X414966Y237026D01*
X415163Y237262D01*
X415048Y237332D01*
X414607Y237512D01*
X414085Y237652D01*
X413484Y237752D01*
X412931Y237801D01*
X412361Y237753D01*
X411739Y237653D01*
X411199Y237513D01*
X410743Y237334D01*
X410370Y237115D01*
X410079Y236856D01*
X409872Y236557D01*
X409747Y236218D01*
X409706Y235839D01*
Y243826D01*
X409747Y243447D01*
D02*
G37*
G36*
X342387Y237114D02*
X342256Y236985D01*
X342139Y236853D01*
X342036Y236718D01*
X341947Y236579D01*
X341872Y236437D01*
X341810Y236291D01*
X341762Y236142D01*
X341727Y235989D01*
X341707Y235833D01*
X341700Y235673D01*
X339700Y236449D01*
X339699Y236647D01*
X339647Y237583D01*
X339634Y237618D01*
X342387Y237114D01*
D02*
G37*
G36*
X371861Y233982D02*
X371827Y233888D01*
X371797Y233768D01*
X371772Y233620D01*
X371732Y233243D01*
X371708Y232757D01*
X371700Y232162D01*
X367700D01*
X367698Y232473D01*
X367628Y233620D01*
X367602Y233768D01*
X367573Y233888D01*
X367539Y233982D01*
X367501Y234049D01*
X371899D01*
X371861Y233982D01*
D02*
G37*
G36*
X266116Y233687D02*
X265897Y233466D01*
X265136Y232606D01*
X265050Y232483D01*
X264985Y232377D01*
X264943Y232287D01*
X264923Y232213D01*
X261813Y235323D01*
X261887Y235343D01*
X261977Y235385D01*
X262083Y235450D01*
X262206Y235536D01*
X262501Y235774D01*
X262861Y236101D01*
X263287Y236516D01*
X266116Y233687D01*
D02*
G37*
G36*
X415664Y222966D02*
X415556Y222842D01*
X415460Y222693D01*
X415377Y222518D01*
X415306Y222318D01*
X415249Y222092D01*
X415204Y221841D01*
X415172Y221565D01*
X415146Y220935D01*
X413146D01*
X413140Y221263D01*
X413089Y221841D01*
X413044Y222092D01*
X412987Y222318D01*
X412916Y222518D01*
X412833Y222693D01*
X412737Y222842D01*
X412629Y222966D01*
X412507Y223064D01*
X415786D01*
X415664Y222966D01*
D02*
G37*
G36*
X405814Y223064D02*
X405712Y223185D01*
X405577Y223293D01*
X405408Y223388D01*
X405205Y223471D01*
X404969Y223541D01*
X404700Y223598D01*
X404396Y223643D01*
X403689Y223694D01*
X403286Y223700D01*
Y226100D01*
X403689Y226106D01*
X404396Y226157D01*
X404700Y226202D01*
X404969Y226259D01*
X405205Y226329D01*
X405408Y226412D01*
X405577Y226507D01*
X405712Y226615D01*
X405814Y226736D01*
Y223064D01*
D02*
G37*
G36*
X359149Y221813D02*
X359265Y221789D01*
X359414Y221768D01*
X359811Y221735D01*
X360998Y221701D01*
X361377Y221700D01*
Y219700D01*
X360998Y219699D01*
X359149Y219587D01*
X359065Y219561D01*
Y221839D01*
X359149Y221813D01*
D02*
G37*
G36*
X279864Y214707D02*
X279766Y214828D01*
X279642Y214937D01*
X279493Y215033D01*
X279318Y215116D01*
X279118Y215187D01*
X278892Y215244D01*
X278641Y215289D01*
X278432Y215313D01*
X278159Y215289D01*
X277908Y215244D01*
X277682Y215187D01*
X277482Y215116D01*
X277307Y215033D01*
X277158Y214937D01*
X277034Y214828D01*
X276936Y214707D01*
Y217986D01*
X277034Y217864D01*
X277158Y217756D01*
X277307Y217660D01*
X277482Y217577D01*
X277682Y217506D01*
X277908Y217449D01*
X278159Y217404D01*
X278368Y217380D01*
X278641Y217404D01*
X278892Y217449D01*
X279118Y217506D01*
X279318Y217577D01*
X279493Y217660D01*
X279642Y217756D01*
X279766Y217864D01*
X279864Y217986D01*
Y214707D01*
D02*
G37*
G36*
X321747Y221813D02*
X321863Y221789D01*
X322012Y221768D01*
X322409Y221735D01*
X323597Y221701D01*
X323975Y221700D01*
Y219700D01*
X323597Y219699D01*
X321747Y219587D01*
X321663Y219561D01*
Y221839D01*
X321747Y221813D01*
D02*
G37*
G36*
X415664Y229265D02*
X415556Y229142D01*
X415460Y228993D01*
X415377Y228818D01*
X415306Y228618D01*
X415249Y228392D01*
X415204Y228141D01*
X415195Y228062D01*
X415204Y227959D01*
X415249Y227708D01*
X415306Y227482D01*
X415377Y227282D01*
X415460Y227107D01*
X415556Y226958D01*
X415664Y226835D01*
X415786Y226736D01*
X412507D01*
X412629Y226835D01*
X412737Y226958D01*
X412833Y227107D01*
X412916Y227282D01*
X412987Y227482D01*
X413044Y227708D01*
X413089Y227959D01*
X413098Y228038D01*
X413089Y228141D01*
X413044Y228392D01*
X412987Y228618D01*
X412916Y228818D01*
X412833Y228993D01*
X412737Y229142D01*
X412629Y229265D01*
X412507Y229364D01*
X415786D01*
X415664Y229265D01*
D02*
G37*
G36*
X362900Y228100D02*
Y226300D01*
X361200Y224600D01*
X351054Y224603D01*
X349000Y224500D01*
X348300Y225200D01*
Y229900D01*
X348200Y230000D01*
X349100Y230900D01*
X360100D01*
X362900Y228100D01*
D02*
G37*
G36*
X227620Y227587D02*
X227680Y226905D01*
X227780Y226303D01*
X227920Y225781D01*
X228100Y225340D01*
X228320Y224979D01*
X228580Y224698D01*
X228880Y224498D01*
X229220Y224377D01*
X229600Y224337D01*
X221600D01*
X221980Y224377D01*
X222320Y224498D01*
X222620Y224698D01*
X222880Y224979D01*
X223100Y225340D01*
X223280Y225781D01*
X223420Y226303D01*
X223520Y226905D01*
X223580Y227587D01*
X223600Y228349D01*
X227600D01*
X227620Y227587D01*
D02*
G37*
G36*
X321747Y226813D02*
X321863Y226789D01*
X322012Y226768D01*
X322409Y226735D01*
X323597Y226701D01*
X323975Y226700D01*
Y224700D01*
X323597Y224699D01*
X321747Y224587D01*
X321663Y224561D01*
Y226839D01*
X321747Y226813D01*
D02*
G37*
%LPC*%
G36*
X446769Y329173D02*
X434054Y317346D01*
X446611Y316526D01*
X446769Y329173D01*
D02*
G37*
%LPD*%
D10*
X472129Y396299D02*
G03*
X469200Y389228I7071J-7071D01*
G01*
X206000Y411721D02*
X234000Y383721D01*
Y334500D02*
Y383721D01*
Y334500D02*
X249400Y319100D01*
X264800D01*
X469200Y369800D02*
Y389228D01*
X472129Y396299D02*
X494100Y418270D01*
D11*
X371257Y194500D02*
D03*
X378343D02*
D03*
D12*
X475500Y468300D02*
D03*
X421700Y146300D02*
D03*
X457100Y101000D02*
D03*
X446000Y468800D02*
D03*
X85500Y22900D02*
D03*
D13*
X385958Y295698D02*
D03*
Y287824D02*
D03*
X377958Y295635D02*
D03*
Y287761D02*
D03*
D14*
X447500Y337995D02*
D03*
Y349805D02*
D03*
X286100Y173094D02*
D03*
Y184906D02*
D03*
D15*
X406900Y239832D02*
D03*
Y256368D02*
D03*
X439700Y145968D02*
D03*
Y129432D02*
D03*
D16*
X356201Y180700D02*
D03*
Y185700D02*
D03*
Y190700D02*
D03*
Y195700D02*
D03*
Y200700D02*
D03*
Y205700D02*
D03*
Y210700D02*
D03*
Y215700D02*
D03*
Y220700D02*
D03*
Y225700D02*
D03*
X318799Y180700D02*
D03*
Y185700D02*
D03*
Y190700D02*
D03*
Y195700D02*
D03*
Y200700D02*
D03*
Y205700D02*
D03*
Y210700D02*
D03*
Y215700D02*
D03*
Y220700D02*
D03*
Y225700D02*
D03*
D17*
X365700Y261500D02*
D03*
X311000Y160600D02*
D03*
X266700Y256600D02*
D03*
X232300Y161800D02*
D03*
X242300Y246900D02*
D03*
X381800Y118200D02*
D03*
X381700Y150900D02*
D03*
X337200Y286500D02*
D03*
X381700Y135100D02*
D03*
X444700Y176100D02*
D03*
D18*
X277637Y163800D02*
D03*
X269763D02*
D03*
X289237Y290400D02*
D03*
X281363D02*
D03*
X263237Y163800D02*
D03*
X255363D02*
D03*
X274537Y290400D02*
D03*
X266663D02*
D03*
X412700Y105100D02*
D03*
X404826D02*
D03*
X442937D02*
D03*
X435063D02*
D03*
X428879D02*
D03*
X421005D02*
D03*
X428942Y96600D02*
D03*
X421068D02*
D03*
X442942D02*
D03*
X435068D02*
D03*
D19*
X292789Y200700D02*
D03*
X304600D02*
D03*
D20*
X300946Y179105D02*
D03*
X294253D02*
D03*
Y185105D02*
D03*
X300946D02*
D03*
X407453Y224900D02*
D03*
X414147D02*
D03*
X407453Y231200D02*
D03*
X414147D02*
D03*
X370953Y201500D02*
D03*
X377646D02*
D03*
X301247Y215500D02*
D03*
X294553D02*
D03*
X289647Y266600D02*
D03*
X282954D02*
D03*
X277246D02*
D03*
X270553D02*
D03*
X300946Y191105D02*
D03*
X294253D02*
D03*
X385154Y96600D02*
D03*
X391846D02*
D03*
X368653Y186100D02*
D03*
X375346D02*
D03*
X368653Y179900D02*
D03*
X375346D02*
D03*
X391052Y248000D02*
D03*
X384359D02*
D03*
X364809Y298969D02*
D03*
X358116D02*
D03*
D21*
X333800Y165158D02*
D03*
Y171852D02*
D03*
X275100Y216347D02*
D03*
Y209653D02*
D03*
X281700D02*
D03*
Y216347D02*
D03*
X458305Y147054D02*
D03*
Y153746D02*
D03*
X450305Y130053D02*
D03*
Y136747D02*
D03*
X375705Y240653D02*
D03*
Y247346D02*
D03*
X340800Y152158D02*
D03*
Y158852D02*
D03*
X333800D02*
D03*
Y152158D02*
D03*
X340800Y165158D02*
D03*
Y171851D02*
D03*
X357462Y292815D02*
D03*
Y286122D02*
D03*
X365462Y292815D02*
D03*
Y286122D02*
D03*
D22*
X434531Y239100D02*
D03*
X418469D02*
D03*
D23*
X206700Y193700D02*
D03*
X225598D02*
D03*
X206702Y222000D02*
D03*
X225600D02*
D03*
D24*
X441173Y274416D02*
D03*
Y281700D02*
D03*
Y288983D02*
D03*
X412827D02*
D03*
Y281700D02*
D03*
Y274416D02*
D03*
D25*
X427000Y271464D02*
D03*
Y291936D02*
D03*
D26*
X382496Y240500D02*
D03*
X393914D02*
D03*
X393588Y295300D02*
D03*
X405005D02*
D03*
D27*
X458305Y140109D02*
D03*
Y128691D02*
D03*
D28*
X288676Y277800D02*
D03*
X272534D02*
D03*
D29*
X444600Y192168D02*
D03*
Y225632D02*
D03*
D30*
X398700Y206395D02*
D03*
Y218205D02*
D03*
D31*
X380500Y211657D02*
D03*
Y218743D02*
D03*
X388200Y211557D02*
D03*
Y218643D02*
D03*
D32*
X320492Y128245D02*
D03*
D33*
Y137300D02*
D03*
Y146355D02*
D03*
D34*
X294508Y137300D02*
D03*
D35*
X105021Y309000D02*
X131811Y335789D01*
X82900Y455700D02*
X100400Y438200D01*
X134972D01*
X160472Y463700D01*
X190000Y458500D02*
Y463700D01*
X151900Y420400D02*
X190000Y458500D01*
X151900Y401900D02*
Y420400D01*
Y401900D02*
X167400Y386400D01*
Y371379D02*
Y386400D01*
X98245Y309000D02*
X105021D01*
X137711Y341689D02*
X167400Y371379D01*
D36*
X7200Y90000D02*
X58700Y38500D01*
X7200Y90000D02*
Y338800D01*
X58700Y18700D02*
Y38500D01*
X19420Y351020D02*
X34505D01*
X7200Y338800D02*
X19420Y351020D01*
X58700Y18700D02*
X71100Y6300D01*
X11900Y373625D02*
X34505Y351020D01*
X11900Y373625D02*
Y436000D01*
X22100Y446200D01*
X42200D01*
X57800Y461800D01*
Y483300D01*
X131780Y485810D02*
X214220D01*
X234810D01*
X241600Y492600D01*
X472800D01*
X486000Y479400D01*
Y459100D02*
Y479400D01*
Y459100D02*
X523574Y421526D01*
Y344246D02*
Y421526D01*
X107390Y485810D02*
X131780D01*
X97900Y495300D02*
X107390Y485810D01*
X57800Y483300D02*
X69800Y495300D01*
X97900D01*
X71100Y6300D02*
X454700D01*
X513354Y64954D01*
X523574D01*
D37*
X346000Y190700D02*
X356201D01*
X347700Y195700D02*
X356201D01*
X304600Y200700D02*
X318799D01*
X300946Y179105D02*
Y185105D01*
X311700Y195700D02*
X318799D01*
X333800Y158852D02*
Y165158D01*
Y152158D02*
X340800D01*
X340493Y165158D02*
X340800D01*
Y158852D02*
Y164851D01*
X318799Y185700D02*
X326800D01*
X333800Y178700D01*
Y171852D02*
Y178700D01*
X318799Y225700D02*
X328100D01*
X375705Y247346D02*
X383705D01*
X384359Y248000D01*
X386355Y295300D02*
X393588D01*
X385958Y295698D02*
X386355Y295300D01*
X364809Y298969D02*
X365462Y298315D01*
Y292815D02*
Y298315D01*
Y292815D02*
X368415D01*
X371235Y295635D01*
X377958D01*
X350269Y298969D02*
X358116D01*
X357462Y292815D02*
Y298315D01*
X358116Y298969D01*
X363000Y186100D02*
X368653D01*
X356201Y180700D02*
X363000D01*
X363800Y179900D01*
X368653D01*
X301247Y215500D02*
X318599D01*
X318799Y215700D01*
X442942Y65227D02*
Y96600D01*
X442800Y65085D02*
X442942Y65227D01*
Y96600D02*
Y104600D01*
X442442Y105100D02*
X442937D01*
X428879D02*
X435063D01*
X428942Y96600D02*
X435068D01*
X356201Y200700D02*
X361000D01*
X420868Y96400D02*
X421068Y96600D01*
X391846D02*
X421068D01*
X300946Y185105D02*
Y191105D01*
X300946Y191105D01*
X328300Y154000D02*
X330141Y152158D01*
X384647Y103800D02*
X391846Y96600D01*
X354200Y103800D02*
X384647D01*
X347900Y97500D02*
X354200Y103800D01*
X349200Y200700D02*
X356201D01*
X340700Y209200D02*
X349200Y200700D01*
X340700Y237900D02*
X341200Y238400D01*
X289647Y266600D02*
Y276829D01*
X288676Y277800D02*
X289647Y276829D01*
X288676Y277800D02*
Y289839D01*
X289237Y290400D01*
X274537D02*
X281363D01*
X266663D02*
Y302337D01*
X264800Y304200D02*
X266663Y302337D01*
X277246Y266600D02*
X282954D01*
X277637Y163800D02*
X298800D01*
X312700Y190700D02*
X318799D01*
X263237Y163800D02*
X269763D01*
X264800Y319100D02*
Y320500D01*
Y304200D02*
Y319100D01*
X273800Y129500D02*
X305800Y97500D01*
X347900D01*
X290400Y210700D02*
X318799D01*
X284753Y216347D02*
X290400Y210700D01*
X281700Y216347D02*
X284753D01*
X275100D02*
X281700D01*
X275100Y209653D02*
X281700D01*
X273800Y202000D02*
X275100Y203300D01*
Y209653D01*
X281700D02*
X287246D01*
X289500Y207400D01*
X310300D01*
X312000Y205700D01*
X318799D01*
X361000Y200700D02*
X367200Y194500D01*
X371257D01*
X356201Y185700D02*
X362600D01*
X363000Y186100D01*
X273800Y129500D02*
Y202000D01*
X333800Y171852D02*
X340493Y165158D01*
X328300Y154000D02*
Y177900D01*
X325500Y180700D02*
X328300Y177900D01*
X318799Y180700D02*
X325500D01*
X298800Y163800D02*
X306000Y171000D01*
Y184000D01*
X312700Y190700D01*
X300946Y191105D02*
X307105D01*
X311700Y195700D01*
X255363Y309663D02*
X264800Y319100D01*
X340700Y209200D02*
Y237900D01*
X337250Y199450D02*
X346000Y190700D01*
X333300Y238800D02*
Y255500D01*
X282954Y266600D02*
X286275D01*
Y264228D02*
Y266600D01*
Y264228D02*
X287472Y263032D01*
X325768D02*
X333300Y255500D01*
X287472Y263032D02*
X325768D01*
X371847Y247346D02*
X375705D01*
X414147Y224900D02*
Y231200D01*
X414147Y231200D02*
X414147Y231200D01*
X414147Y231200D02*
Y234778D01*
X418469Y239100D01*
X417736Y239832D02*
X418469Y239100D01*
X318799Y220700D02*
X324800D01*
X328100Y225700D02*
X333900Y219900D01*
X324800Y220700D02*
X330100Y215400D01*
X410900Y173400D02*
X414147Y176646D01*
Y224900D01*
X338500Y180700D02*
X340800Y178400D01*
Y171851D02*
Y178400D01*
X320492Y146355D02*
X325555D01*
X331359Y152158D01*
X333800D01*
X330141D02*
X331359D01*
X333900Y196415D02*
Y219900D01*
X330100Y195500D02*
Y215400D01*
X339400Y126800D02*
X364900D01*
X337955Y128245D02*
X339400Y126800D01*
X320492Y128245D02*
X337955D01*
X350269Y298969D02*
X351100Y298137D01*
X337250Y199450D02*
Y251350D01*
X340250Y254350D02*
X351100Y265200D01*
X340198Y254350D02*
X340250D01*
X337650Y251802D02*
X340198Y254350D01*
X337650Y251750D02*
Y251802D01*
X337250Y251350D02*
X337650Y251750D01*
X337200Y286500D02*
X337600Y286100D01*
X351100D01*
Y265200D02*
Y286100D01*
Y298137D01*
X266700Y256600D02*
X275500D01*
X277246Y258347D01*
Y266600D01*
X242300Y246900D02*
X254963D01*
X255363Y247300D01*
Y309663D01*
X381800Y118200D02*
X383600Y116400D01*
Y104847D02*
Y116400D01*
Y104847D02*
X384647Y103800D01*
X330100Y195500D02*
X359800Y165800D01*
X410200D01*
X372500Y135100D02*
X381700D01*
X340800Y152158D02*
X355441D01*
X372500Y135100D01*
X340800Y171851D02*
X346448D01*
X367400Y150900D01*
X381700D01*
X333900Y196415D02*
X361165Y169150D01*
X421700Y146300D02*
Y154300D01*
X410200Y165800D02*
X421700Y154300D01*
X361165Y169150D02*
X442902D01*
X458305Y153746D01*
X356201Y220700D02*
X363000D01*
X365200Y222900D01*
Y240700D02*
X371847Y247346D01*
X365200Y222900D02*
Y240700D01*
X302000Y160600D02*
X311000D01*
X298800Y163800D02*
X302000Y160600D01*
X377958Y295698D02*
X385958D01*
X340493Y165158D02*
X340800Y164851D01*
X255363Y163800D02*
Y247300D01*
X442442Y105100D02*
X442942Y104600D01*
D38*
X449900Y321900D02*
X463300Y308500D01*
X469200Y369800D02*
X484700Y354300D01*
X416900Y321900D02*
X428200D01*
X449900D01*
X416900D02*
X427000Y311800D01*
X484700Y335700D02*
Y354300D01*
Y335700D02*
X499774Y320626D01*
D39*
X499674Y208700D02*
X521316D01*
X522416Y209800D01*
X407600Y65085D02*
X442800D01*
X522416Y224249D02*
X522717Y224549D01*
X522416Y209800D02*
Y224249D01*
X507594Y318719D02*
X510522D01*
X512275Y316966D01*
X513734D01*
X522717Y307983D01*
Y224549D02*
Y307983D01*
X442800Y65085D02*
X485126D01*
X522416Y102376D02*
Y209800D01*
X485126Y65085D02*
X522416Y102376D01*
D40*
X318000Y65085D02*
X407600D01*
X317500Y65585D02*
X318000Y65085D01*
X260715Y65585D02*
X317500D01*
X244600Y81700D02*
X260715Y65585D01*
X222180Y59280D02*
X244600Y81700D01*
D41*
X444600Y192168D02*
X472932D01*
X477100Y188000D01*
D42*
X498974D01*
X499674Y188700D01*
D43*
X391052Y248000D02*
X391352Y247700D01*
X393914Y240500D02*
X397400D01*
X399200Y242300D01*
Y247700D01*
X391352D02*
X399200D01*
X468509Y128691D02*
X472900Y124300D01*
X458305Y128691D02*
X468509D01*
X450305Y130053D02*
X456943D01*
X458305Y140109D02*
Y147054D01*
X412400Y247700D02*
X415800Y251100D01*
X399200Y247700D02*
X412400D01*
X447500Y324300D02*
Y337995D01*
Y324300D02*
X449900Y321900D01*
X446000Y455900D02*
Y468800D01*
X428200Y438100D02*
X446000Y455900D01*
X428200Y321900D02*
Y438100D01*
X475500Y452200D02*
Y468300D01*
Y452200D02*
X494100Y433600D01*
Y418270D02*
Y433600D01*
X444700Y176100D02*
Y192068D01*
X444600Y192168D02*
X444700Y192068D01*
X457100Y129896D02*
X458305Y128691D01*
X456943Y130053D02*
X457100Y129896D01*
X365700Y261500D02*
X386600D01*
X391052Y257049D01*
Y248000D02*
Y257049D01*
X375705Y240653D02*
X382343D01*
X382496Y240500D01*
X449600Y279100D02*
X454100Y274600D01*
X499374D01*
X471174Y300626D02*
X499774D01*
X463300Y308500D02*
X471174Y300626D01*
X457100Y101000D02*
Y129896D01*
D44*
X404384Y274416D02*
X412827D01*
X402100Y276700D02*
X404384Y274416D01*
X402100Y276700D02*
Y292395D01*
X405005Y295300D01*
X279600Y250000D02*
X328700D01*
X342000D02*
X351200D01*
X360600Y240600D01*
X369700Y220000D02*
X371000Y218700D01*
X380457D01*
X380500Y218743D01*
X388100D01*
X388200Y218643D01*
X398262D01*
X398700Y218205D01*
X406900Y239832D02*
X417736D01*
X52970Y64906D02*
Y89770D01*
X194800Y231600D01*
X225600Y222000D02*
Y231300D01*
X225300Y231600D02*
X225600Y231300D01*
X194800Y231600D02*
X225300D01*
X247800D01*
X225600Y193702D02*
Y222000D01*
X225598Y193700D02*
X225600Y193702D01*
X262200Y232600D02*
X279600Y250000D01*
X247800Y231600D02*
X248000Y231800D01*
X369700Y221200D02*
Y235700D01*
D45*
X450305Y149105D02*
X454947Y153746D01*
X458305D01*
X439868Y145800D02*
X450305D01*
X439700Y145968D02*
X439868Y145800D01*
X450305Y136747D02*
Y145800D01*
Y149105D01*
X380500Y211657D02*
X388100D01*
X388200Y211557D01*
X393543D01*
X398700Y206395D02*
Y206400D01*
X373143Y211657D02*
X380500D01*
X398700Y206395D02*
X407305D01*
X393543Y211557D02*
X398700Y206400D01*
D46*
X412700Y105100D02*
X421005D01*
X356201Y205700D02*
X356301Y205600D01*
X370953Y201500D02*
Y205453D01*
X371100Y205600D01*
X356301D02*
X371100D01*
X278200Y187400D02*
X283606D01*
X286100Y184906D01*
Y190100D01*
X287105Y191105D01*
X294253D01*
X346000Y214974D02*
Y232900D01*
Y214974D02*
X350274Y210700D01*
X356201D01*
X269200Y185400D02*
Y217800D01*
X284300Y232900D01*
X371100Y205600D02*
X384800D01*
X387400Y203000D01*
Y194000D02*
Y203000D01*
Y194000D02*
X393500Y187900D01*
X402500D01*
X405200Y185200D01*
X284300Y232900D02*
X333900D01*
X405200Y172900D02*
Y185200D01*
X405400Y161600D02*
X412700Y154300D01*
Y105100D02*
Y154300D01*
X236400Y150300D02*
X269900D01*
X278600Y150500D02*
X282000Y147100D01*
X297084D01*
X311584Y132600D01*
X329700D01*
X333900Y136800D01*
X354900D01*
X232300Y154400D02*
Y161800D01*
Y154400D02*
X236400Y150300D01*
X346000Y232900D02*
X361600D01*
X374500Y230300D02*
X379900Y224900D01*
X407453D01*
X232300Y161800D02*
Y167200D01*
X241000Y175900D01*
X250200D01*
X260600Y176800D02*
Y177300D01*
Y176800D02*
X269200Y185400D01*
D47*
X356201Y215700D02*
X365400D01*
X369700Y220000D01*
Y221200D01*
D48*
X34505Y425980D02*
X82900Y377585D01*
Y342800D02*
Y377585D01*
D49*
X117000Y380821D02*
X132300Y396121D01*
X93550Y323950D02*
X117000Y347400D01*
Y380821D01*
X19505Y309000D02*
X74800D01*
X89750Y323950D01*
X93550D01*
D50*
X52970Y64906D02*
X91495D01*
X131600Y24800D01*
X85500Y22900D02*
X140200D01*
X142100Y24800D01*
X131600D02*
X142100D01*
X147220D01*
X490300Y114300D02*
X497000D01*
X484200Y120400D02*
X490300Y114300D01*
X484200Y120400D02*
Y151900D01*
X499700Y167400D01*
D51*
X131780Y485810D02*
D03*
X214220D02*
D03*
D52*
X216900Y290400D02*
D03*
X25005Y475500D02*
D03*
X515950D02*
D03*
Y25000D02*
D03*
X25005D02*
D03*
D53*
X244600Y81700D02*
D03*
Y121070D02*
D03*
X407600Y65085D02*
D03*
Y25715D02*
D03*
X494100Y418270D02*
D03*
Y378900D02*
D03*
X317500Y65585D02*
D03*
Y26215D02*
D03*
D54*
X404800Y400500D02*
D03*
X264800Y420500D02*
D03*
Y400500D02*
D03*
Y440500D02*
D03*
Y460500D02*
D03*
Y380500D02*
D03*
Y360500D02*
D03*
Y340500D02*
D03*
Y320500D02*
D03*
X404800D02*
D03*
Y340500D02*
D03*
Y360500D02*
D03*
Y380500D02*
D03*
Y460500D02*
D03*
Y440500D02*
D03*
Y420500D02*
D03*
X264800Y480500D02*
D03*
X404800D02*
D03*
D55*
X34505Y425980D02*
D03*
Y351020D02*
D03*
Y388500D02*
D03*
D56*
X82900Y342800D02*
D03*
Y482800D02*
D03*
D57*
X174880Y415928D02*
D03*
X167400Y386400D02*
D03*
X132300Y396121D02*
D03*
Y336279D02*
D03*
X206000Y411721D02*
D03*
Y351879D02*
D03*
D58*
X121102Y463700D02*
D03*
X160472D02*
D03*
X190000D02*
D03*
X219528D02*
D03*
D59*
X19505Y309000D02*
D03*
X98245D02*
D03*
X52970Y64906D02*
D03*
X143521D02*
D03*
D60*
X499374Y254026D02*
D03*
D61*
Y275426D02*
D03*
D62*
Y232626D02*
D03*
D63*
X354900Y116800D02*
D03*
Y136800D02*
D03*
X364900Y126800D02*
D03*
D64*
X147220Y24800D02*
D03*
X222180D02*
D03*
X184700D02*
D03*
D65*
X523574Y344246D02*
D03*
Y64954D02*
D03*
D66*
X499674Y188700D02*
D03*
Y208700D02*
D03*
X499700Y147400D02*
D03*
Y167400D02*
D03*
X497000Y104300D02*
D03*
Y114300D02*
D03*
Y124300D02*
D03*
X499774Y300626D02*
D03*
Y320626D02*
D03*
D67*
X206100Y421000D02*
D03*
X197900Y412400D02*
D03*
X214700Y411800D02*
D03*
X206100Y402100D02*
D03*
X124900Y335400D02*
D03*
X140000Y334900D02*
D03*
X138800Y341200D02*
D03*
D68*
X347700Y195700D02*
D03*
X333900Y232900D02*
D03*
X269200Y185400D02*
D03*
X278200Y187400D02*
D03*
X346000Y232900D02*
D03*
X341200Y238400D02*
D03*
X333300Y238800D02*
D03*
X410200Y165800D02*
D03*
X410900Y173400D02*
D03*
X338500Y180700D02*
D03*
X405200Y172900D02*
D03*
X405400Y161600D02*
D03*
X278600Y150500D02*
D03*
X269900Y150300D02*
D03*
X361600Y232900D02*
D03*
X374500Y230300D02*
D03*
X373143Y211657D02*
D03*
X407305Y206395D02*
D03*
X377646Y201500D02*
D03*
X378343Y194500D02*
D03*
X375346Y186100D02*
D03*
X375346Y179900D02*
D03*
X292900Y198600D02*
D03*
Y202600D02*
D03*
X294253Y185105D02*
D03*
Y179105D02*
D03*
X284200Y173000D02*
D03*
X288100D02*
D03*
X294500Y132800D02*
D03*
X294700Y142000D02*
D03*
X294508Y137300D02*
D03*
X320492D02*
D03*
X202000Y221900D02*
D03*
X206702Y222000D02*
D03*
X211400Y222200D02*
D03*
X211300Y193600D02*
D03*
X206700Y193700D02*
D03*
X202100Y193800D02*
D03*
X270553Y266600D02*
D03*
X272600Y273000D02*
D03*
X272534Y277800D02*
D03*
X272700Y282500D02*
D03*
X357462Y286122D02*
D03*
X365462D02*
D03*
X377958Y287761D02*
D03*
X385958Y287824D02*
D03*
X412827Y288983D02*
D03*
X406900Y256368D02*
D03*
X439700Y129432D02*
D03*
X404826Y105100D02*
D03*
X385154Y96600D02*
D03*
X250200Y175900D02*
D03*
X260600Y176800D02*
D03*
X294553Y215500D02*
D03*
X350200Y229100D02*
D03*
X354400Y229200D02*
D03*
X359500D02*
D03*
D69*
X449600Y279100D02*
D03*
X415800Y251100D02*
D03*
X472900Y124300D02*
D03*
X132600Y344500D02*
D03*
D70*
X328700Y250000D02*
D03*
X342000D02*
D03*
X360600Y240600D02*
D03*
X369700Y235700D02*
D03*
X262200Y232600D02*
D03*
X248000Y231800D02*
D03*
D71*
X447500Y349805D02*
D03*
X407453Y231200D02*
D03*
X380500Y211657D02*
D03*
X388200Y211557D02*
D03*
X395400Y206400D02*
D03*
X401900D02*
D03*
M02*
