G04 Layer_Color=65535*
%FSLAX24Y24*%
%MOIN*%
G70*
G01*
G75*
%ADD10C,0.0200*%
%ADD42C,0.0300*%
%ADD45C,0.0100*%
%ADD68C,0.0098*%
%ADD69C,0.0236*%
%ADD70C,0.0197*%
%ADD71C,0.0050*%
%ADD72C,0.0450*%
%ADD73C,0.0039*%
%ADD74C,0.0079*%
%ADD75C,0.0060*%
%ADD76R,0.0394X0.0197*%
%ADD77R,0.1181X0.0394*%
%ADD78R,0.1181X0.0787*%
%ADD79R,0.0394X0.0128*%
%ADD80R,0.0394X0.1181*%
%ADD81R,0.0787X0.1181*%
%ADD82R,0.0650X0.0837*%
%ADD83R,0.0620X0.0846*%
G36*
X23885Y27486D02*
X23491Y27880D01*
X23885D01*
Y27486D01*
D02*
G37*
D10*
X59750Y20550D02*
G03*
X59750Y20550I-4331J0D01*
G01*
X53931Y4482D02*
G03*
X53931Y4482I-4331J0D01*
G01*
X59713Y11650D02*
G03*
X59713Y11650I-4331J0D01*
G01*
X44931Y4469D02*
G03*
X44931Y4469I-4331J0D01*
G01*
X6138Y40035D02*
Y44365D01*
X18736Y40035D02*
Y44365D01*
X6138Y40035D02*
X18736D01*
X6138Y44365D02*
X18736D01*
X34113Y42135D02*
Y46465D01*
X21515Y42135D02*
Y46465D01*
X34113D01*
X21515Y42135D02*
X34113D01*
D42*
X47667Y22239D02*
G03*
X47667Y22239I-20J0D01*
G01*
D45*
X20172Y44480D02*
G03*
X19762Y44070I0J-410D01*
G01*
X20552Y44100D02*
G03*
X20172Y44480I-380J0D01*
G01*
X19772Y38810D02*
G03*
X20152Y38430I380J0D01*
G01*
D02*
G03*
X20562Y38840I0J410D01*
G01*
X45387Y26867D02*
G03*
X45387Y26867I-53J0D01*
G01*
X34973Y10799D02*
X35278D01*
X35800Y8201D02*
Y10278D01*
X33723Y10799D02*
X34028D01*
X33201Y8201D02*
Y10278D01*
X34973Y8201D02*
X35800D01*
X33201D02*
X34028D01*
X35278Y10799D02*
X35800Y10278D01*
X33201D02*
X33723Y10799D01*
X32173Y10849D02*
X32478D01*
X33000Y8251D02*
Y10328D01*
X30923Y10849D02*
X31228D01*
X30401Y8251D02*
Y10328D01*
X32173Y8251D02*
X33000D01*
X30401D02*
X31228D01*
X32478Y10849D02*
X33000Y10328D01*
X30401D02*
X30923Y10849D01*
X6400Y49800D02*
X20401D01*
Y47950D02*
Y49800D01*
Y44800D02*
Y46650D01*
X6400Y47950D02*
Y49800D01*
Y44800D02*
Y46650D01*
Y44800D02*
X20401D01*
X47879Y32018D02*
X50123D01*
X47879Y30994D02*
Y32018D01*
X44651Y30994D02*
X47879D01*
X50123Y32018D02*
Y38750D01*
Y45482D01*
X44651Y46506D02*
X47879D01*
Y45482D02*
Y46506D01*
Y45482D02*
X50123D01*
X39178Y38750D02*
Y45482D01*
X41422Y46506D02*
X44651D01*
X41422Y45482D02*
Y46506D01*
X39178Y45482D02*
X41422D01*
X39178Y32018D02*
Y38750D01*
X41422Y30994D02*
X44651D01*
X41422D02*
Y32018D01*
X39178D02*
X41422D01*
X19762Y40510D02*
Y44070D01*
X20552Y43530D02*
Y44100D01*
X19772Y38810D02*
Y39280D01*
X20562Y38840D02*
Y42300D01*
X21529Y47812D02*
X33350D01*
Y49741D01*
X21529D02*
X33350D01*
X21529Y47812D02*
Y49741D01*
X19522Y4931D02*
Y32501D01*
X382D02*
X19522D01*
X382Y4931D02*
Y32501D01*
Y4931D02*
X19522D01*
X39311Y25085D02*
Y26296D01*
Y25085D02*
X45570D01*
Y27093D01*
X39311D02*
X45570D01*
X39311Y26296D02*
Y27093D01*
X42441Y25174D02*
X44626D01*
X40255D02*
X42441D01*
X40255Y25263D02*
X42441D01*
X44626D01*
X47804Y22446D02*
X48139D01*
X47804D02*
Y23312D01*
Y24788D02*
Y25654D01*
X48139D01*
X50797Y24788D02*
Y25654D01*
X50462D02*
X50797D01*
Y22446D02*
Y23312D01*
X50462Y22446D02*
X50797D01*
X42673Y20160D02*
Y23940D01*
X43283D01*
X42673Y20160D02*
X43283D01*
X44818D02*
X45428D01*
Y23940D01*
X44818D02*
X45428D01*
X12150Y3859D02*
Y4459D01*
X12450D01*
X12550Y4359D01*
Y4159D01*
X12450Y4059D01*
X12150D01*
X12350D02*
X12550Y3859D01*
X12750Y4259D02*
Y3959D01*
X12850Y3859D01*
X13150D01*
Y3759D01*
X13050Y3659D01*
X12950D01*
X13150Y3859D02*
Y4259D01*
X13450D02*
X13650D01*
X13749Y4159D01*
Y3859D01*
X13450D01*
X13350Y3959D01*
X13450Y4059D01*
X13749D01*
X13949Y3859D02*
Y4259D01*
X14249D01*
X14349Y4159D01*
Y3859D01*
X15149Y4459D02*
Y4059D01*
X15349Y3859D01*
X15549Y4059D01*
Y4459D01*
X15849Y4259D02*
X16049D01*
X16149Y4159D01*
Y3859D01*
X15849D01*
X15749Y3959D01*
X15849Y4059D01*
X16149D01*
X16349Y3859D02*
X16649D01*
X16749Y3959D01*
X16649Y4059D01*
X16449D01*
X16349Y4159D01*
X16449Y4259D01*
X16749D01*
X17348Y3659D02*
Y4259D01*
X17048D01*
X16948Y4159D01*
Y3959D01*
X17048Y3859D01*
X17348D01*
X17548Y4259D02*
Y3959D01*
X17648Y3859D01*
X17948D01*
Y4259D01*
X18448Y3859D02*
X18248D01*
X18148Y3959D01*
Y4159D01*
X18248Y4259D01*
X18448D01*
X18548Y4159D01*
Y4059D01*
X18148D01*
X18748Y4259D02*
X19148D01*
X18748Y3859D01*
X19148D01*
X19947D02*
Y4459D01*
X20147Y4259D01*
X20347Y4459D01*
Y3859D01*
X20947Y4359D02*
X20847Y4459D01*
X20647D01*
X20547Y4359D01*
Y4259D01*
X20647Y4159D01*
X20847D01*
X20947Y4059D01*
Y3959D01*
X20847Y3859D01*
X20647D01*
X20547Y3959D01*
X21147Y4459D02*
X21547D01*
X21347D01*
Y3859D01*
X12150Y2700D02*
Y3299D01*
X12450D01*
X12550Y3199D01*
Y2999D01*
X12450Y2899D01*
X12150D01*
X12850Y2700D02*
X13050D01*
X13150Y2799D01*
Y2999D01*
X13050Y3099D01*
X12850D01*
X12750Y2999D01*
Y2799D01*
X12850Y2700D01*
X13350Y3099D02*
Y2799D01*
X13450Y2700D01*
X13550Y2799D01*
X13650Y2700D01*
X13749Y2799D01*
Y3099D01*
X14249Y2700D02*
X14049D01*
X13949Y2799D01*
Y2999D01*
X14049Y3099D01*
X14249D01*
X14349Y2999D01*
Y2899D01*
X13949D01*
X14549Y3099D02*
Y2700D01*
Y2899D01*
X14649Y2999D01*
X14749Y3099D01*
X14849D01*
X16149Y3299D02*
X15749D01*
Y2999D01*
X15949D01*
X15749D01*
Y2700D01*
X16449Y3099D02*
X16649D01*
X16749Y2999D01*
Y2700D01*
X16449D01*
X16349Y2799D01*
X16449Y2899D01*
X16749D01*
X17348Y3099D02*
X17048D01*
X16948Y2999D01*
Y2799D01*
X17048Y2700D01*
X17348D01*
X17648Y3199D02*
Y3099D01*
X17548D01*
X17748D01*
X17648D01*
Y2799D01*
X17748Y2700D01*
X18148D02*
X18348D01*
X18448Y2799D01*
Y2999D01*
X18348Y3099D01*
X18148D01*
X18048Y2999D01*
Y2799D01*
X18148Y2700D01*
X18648Y3099D02*
Y2700D01*
Y2899D01*
X18748Y2999D01*
X18848Y3099D01*
X18948D01*
X12550Y2240D02*
X12450Y2340D01*
X12250D01*
X12150Y2240D01*
Y1840D01*
X12250Y1740D01*
X12450D01*
X12550Y1840D01*
X12850Y1740D02*
X13050D01*
X13150Y1840D01*
Y2040D01*
X13050Y2140D01*
X12850D01*
X12750Y2040D01*
Y1840D01*
X12850Y1740D01*
X13350Y2140D02*
Y1740D01*
Y1940D01*
X13450Y2040D01*
X13550Y2140D01*
X13650D01*
X13949D02*
Y1740D01*
Y1940D01*
X14049Y2040D01*
X14149Y2140D01*
X14249D01*
X14849Y1740D02*
X14649D01*
X14549Y1840D01*
Y2040D01*
X14649Y2140D01*
X14849D01*
X14949Y2040D01*
Y1940D01*
X14549D01*
X15549Y2140D02*
X15249D01*
X15149Y2040D01*
Y1840D01*
X15249Y1740D01*
X15549D01*
X15849Y2240D02*
Y2140D01*
X15749D01*
X15949D01*
X15849D01*
Y1840D01*
X15949Y1740D01*
X16249D02*
X16449D01*
X16349D01*
Y2140D01*
X16249D01*
X16848Y1740D02*
X17048D01*
X17148Y1840D01*
Y2040D01*
X17048Y2140D01*
X16848D01*
X16749Y2040D01*
Y1840D01*
X16848Y1740D01*
X17348D02*
Y2140D01*
X17648D01*
X17748Y2040D01*
Y1740D01*
X12150Y1280D02*
X12250Y1380D01*
X12450D01*
X12550Y1280D01*
Y1180D01*
X12450Y1080D01*
X12550Y980D01*
Y880D01*
X12450Y780D01*
X12250D01*
X12150Y880D01*
Y980D01*
X12250Y1080D01*
X12150Y1180D01*
Y1280D01*
X12250Y1080D02*
X12450D01*
X12750Y780D02*
X13150Y1180D01*
X13350Y1280D02*
X13450Y1380D01*
X13650D01*
X13749Y1280D01*
Y1180D01*
X13650Y1080D01*
X13550D01*
X13650D01*
X13749Y980D01*
Y880D01*
X13650Y780D01*
X13450D01*
X13350Y880D01*
X13949Y780D02*
X14149D01*
X14049D01*
Y1380D01*
X13949Y1280D01*
X14449Y780D02*
X14849Y1180D01*
X15449Y780D02*
X15049D01*
X15449Y1180D01*
Y1280D01*
X15349Y1380D01*
X15149D01*
X15049Y1280D01*
X15649D02*
X15749Y1380D01*
X15949D01*
X16049Y1280D01*
Y880D01*
X15949Y780D01*
X15749D01*
X15649Y880D01*
Y1280D01*
X16249Y780D02*
X16449D01*
X16349D01*
Y1380D01*
X16249Y1280D01*
X16749Y1380D02*
X17148D01*
Y1280D01*
X16749Y880D01*
Y780D01*
X24225Y18420D02*
Y18720D01*
X24375D01*
X24425Y18670D01*
Y18570D01*
X24375Y18520D01*
X24225D01*
X24325D02*
X24425Y18420D01*
X24525Y18670D02*
X24575Y18720D01*
X24675D01*
X24725Y18670D01*
Y18620D01*
X24675Y18570D01*
X24625D01*
X24675D01*
X24725Y18520D01*
Y18470D01*
X24675Y18420D01*
X24575D01*
X24525Y18470D01*
X25025Y18420D02*
X24825D01*
X25025Y18620D01*
Y18670D01*
X24975Y18720D01*
X24875D01*
X24825Y18670D01*
X30100Y8950D02*
X30150Y9000D01*
Y9100D01*
X30100Y9150D01*
X29900D01*
X29850Y9100D01*
Y9000D01*
X29900Y8950D01*
X29850Y8650D02*
Y8850D01*
X30050Y8650D01*
X30100D01*
X30150Y8700D01*
Y8800D01*
X30100Y8850D01*
X29900Y8550D02*
X29850Y8500D01*
Y8400D01*
X29900Y8350D01*
X30100D01*
X30150Y8400D01*
Y8500D01*
X30100Y8550D01*
X30050D01*
X30000Y8500D01*
Y8350D01*
X36250Y8900D02*
X36300Y8950D01*
Y9050D01*
X36250Y9100D01*
X36050D01*
X36000Y9050D01*
Y8950D01*
X36050Y8900D01*
X36000Y8600D02*
Y8800D01*
X36200Y8600D01*
X36250D01*
X36300Y8650D01*
Y8750D01*
X36250Y8800D01*
Y8500D02*
X36300Y8450D01*
Y8350D01*
X36250Y8300D01*
X36200D01*
X36150Y8350D01*
X36100Y8300D01*
X36050D01*
X36000Y8350D01*
Y8450D01*
X36050Y8500D01*
X36100D01*
X36150Y8450D01*
X36200Y8500D01*
X36250D01*
X36150Y8450D02*
Y8350D01*
X26050Y29650D02*
Y29250D01*
Y29450D01*
X25450D01*
Y29050D02*
X26050D01*
Y28750D01*
X25950Y28650D01*
X25750D01*
X25650Y28750D01*
Y29050D01*
X25450Y28450D02*
Y28250D01*
Y28350D01*
X26050D01*
X25950Y28450D01*
X26050Y27951D02*
Y27551D01*
X25950D01*
X25550Y27951D01*
X25450D01*
X26000Y12400D02*
X26400D01*
X26200D01*
Y11800D01*
X26600D02*
Y12400D01*
X26900D01*
X27000Y12300D01*
Y12100D01*
X26900Y12000D01*
X26600D01*
X27200Y11800D02*
X27400D01*
X27300D01*
Y12400D01*
X27200Y12300D01*
X28100Y12400D02*
X27900Y12300D01*
X27700Y12100D01*
Y11900D01*
X27800Y11800D01*
X28000D01*
X28100Y11900D01*
Y12000D01*
X28000Y12100D01*
X27700D01*
X41750Y11300D02*
X42150D01*
X41950D01*
Y10700D01*
X42350D02*
Y11300D01*
X42650D01*
X42750Y11200D01*
Y11000D01*
X42650Y10900D01*
X42350D01*
X42950Y10700D02*
X43150D01*
X43050D01*
Y11300D01*
X42950Y11200D01*
X43850Y11300D02*
X43450D01*
Y11000D01*
X43650Y11100D01*
X43750D01*
X43850Y11000D01*
Y10800D01*
X43750Y10700D01*
X43550D01*
X43450Y10800D01*
X37920Y19980D02*
X38320D01*
X38120D01*
Y19380D01*
X38520D02*
Y19980D01*
X38820D01*
X38920Y19880D01*
Y19680D01*
X38820Y19580D01*
X38520D01*
X39120Y19380D02*
X39320D01*
X39220D01*
Y19980D01*
X39120Y19880D01*
X39920Y19380D02*
Y19980D01*
X39620Y19680D01*
X40020D01*
X28150Y30200D02*
Y29800D01*
Y30000D01*
X27550D01*
Y29600D02*
X28150D01*
Y29300D01*
X28050Y29200D01*
X27850D01*
X27750Y29300D01*
Y29600D01*
X27550Y29000D02*
Y28800D01*
Y28900D01*
X28150D01*
X28050Y29000D01*
Y28501D02*
X28150Y28401D01*
Y28201D01*
X28050Y28101D01*
X27950D01*
X27850Y28201D01*
Y28301D01*
Y28201D01*
X27750Y28101D01*
X27650D01*
X27550Y28201D01*
Y28401D01*
X27650Y28501D01*
X29130Y28190D02*
X29530D01*
X29330D01*
Y27590D01*
X29730D02*
Y28190D01*
X30030D01*
X30130Y28090D01*
Y27890D01*
X30030Y27790D01*
X29730D01*
X30330Y27590D02*
X30530D01*
X30430D01*
Y28190D01*
X30330Y28090D01*
X31230Y27590D02*
X30830D01*
X31230Y27990D01*
Y28090D01*
X31130Y28190D01*
X30930D01*
X30830Y28090D01*
X29500Y31950D02*
Y31550D01*
Y31750D01*
X28900D01*
Y31350D02*
X29500D01*
Y31050D01*
X29400Y30950D01*
X29200D01*
X29100Y31050D01*
Y31350D01*
X28900Y30750D02*
Y30550D01*
Y30650D01*
X29500D01*
X29400Y30750D01*
X28900Y30251D02*
Y30051D01*
Y30151D01*
X29500D01*
X29400Y30251D01*
X25550Y16950D02*
X25950D01*
X25750D01*
Y16350D01*
X26150D02*
Y16950D01*
X26450D01*
X26550Y16850D01*
Y16650D01*
X26450Y16550D01*
X26150D01*
X26750Y16350D02*
X26950D01*
X26850D01*
Y16950D01*
X26750Y16850D01*
X27250D02*
X27350Y16950D01*
X27550D01*
X27650Y16850D01*
Y16450D01*
X27550Y16350D01*
X27350D01*
X27250Y16450D01*
Y16850D01*
X22055Y8275D02*
X22455D01*
X22255D01*
Y7675D01*
X22655D02*
Y8275D01*
X22955D01*
X23055Y8175D01*
Y7975D01*
X22955Y7875D01*
X22655D01*
X23255Y7775D02*
X23355Y7675D01*
X23555D01*
X23655Y7775D01*
Y8175D01*
X23555Y8275D01*
X23355D01*
X23255Y8175D01*
Y8075D01*
X23355Y7975D01*
X23655D01*
X46460Y27110D02*
X46860D01*
X46660D01*
Y26510D01*
X47060D02*
Y27110D01*
X47360D01*
X47460Y27010D01*
Y26810D01*
X47360Y26710D01*
X47060D01*
X47660Y27010D02*
X47760Y27110D01*
X47960D01*
X48060Y27010D01*
Y26910D01*
X47960Y26810D01*
X48060Y26710D01*
Y26610D01*
X47960Y26510D01*
X47760D01*
X47660Y26610D01*
Y26710D01*
X47760Y26810D01*
X47660Y26910D01*
Y27010D01*
X47760Y26810D02*
X47960D01*
X28351Y13950D02*
X28750D01*
X28550D01*
Y13350D01*
X28950D02*
Y13950D01*
X29250D01*
X29350Y13850D01*
Y13650D01*
X29250Y13550D01*
X28950D01*
X29550Y13950D02*
X29950D01*
Y13850D01*
X29550Y13450D01*
Y13350D01*
X39451Y21200D02*
X39850D01*
X39650D01*
Y20600D01*
X40050D02*
Y21200D01*
X40350D01*
X40450Y21100D01*
Y20900D01*
X40350Y20800D01*
X40050D01*
X41050Y21200D02*
X40850Y21100D01*
X40650Y20900D01*
Y20700D01*
X40750Y20600D01*
X40950D01*
X41050Y20700D01*
Y20800D01*
X40950Y20900D01*
X40650D01*
X35201Y28650D02*
X35600D01*
X35400D01*
Y28050D01*
X35800D02*
Y28650D01*
X36100D01*
X36200Y28550D01*
Y28350D01*
X36100Y28250D01*
X35800D01*
X36800Y28650D02*
X36400D01*
Y28350D01*
X36600Y28450D01*
X36700D01*
X36800Y28350D01*
Y28150D01*
X36700Y28050D01*
X36500D01*
X36400Y28150D01*
X57200Y35300D02*
X57600D01*
X57400D01*
Y34700D01*
X57800D02*
Y35300D01*
X58100D01*
X58200Y35200D01*
Y35000D01*
X58100Y34900D01*
X57800D01*
X58700Y34700D02*
Y35300D01*
X58400Y35000D01*
X58800D01*
X50861Y29210D02*
X51260D01*
X51060D01*
Y28610D01*
X51460D02*
Y29210D01*
X51760D01*
X51860Y29110D01*
Y28910D01*
X51760Y28810D01*
X51460D01*
X52060Y29110D02*
X52160Y29210D01*
X52360D01*
X52460Y29110D01*
Y29010D01*
X52360Y28910D01*
X52260D01*
X52360D01*
X52460Y28810D01*
Y28710D01*
X52360Y28610D01*
X52160D01*
X52060Y28710D01*
X30900Y34300D02*
Y33900D01*
Y34100D01*
X30301D01*
Y33700D02*
X30900D01*
Y33400D01*
X30800Y33300D01*
X30600D01*
X30500Y33400D01*
Y33700D01*
X30301Y32701D02*
Y33100D01*
X30700Y32701D01*
X30800D01*
X30900Y32800D01*
Y33000D01*
X30800Y33100D01*
X26800Y18808D02*
X26500D01*
Y18658D01*
X26550Y18608D01*
X26750D01*
X26800Y18658D01*
Y18808D01*
X26500Y18508D02*
Y18408D01*
Y18458D01*
X26800D01*
X26750Y18508D01*
X26500Y18258D02*
Y18158D01*
Y18208D01*
X26800D01*
X26750Y18258D01*
X23770Y5840D02*
Y6440D01*
X24070D01*
X24170Y6340D01*
Y6140D01*
X24070Y6040D01*
X23770D01*
X24770Y5840D02*
X24370D01*
X24770Y6240D01*
Y6340D01*
X24670Y6440D01*
X24470D01*
X24370Y6340D01*
X5601Y33950D02*
X6200D01*
Y33650D01*
X6100Y33550D01*
X5900D01*
X5800Y33650D01*
Y33950D01*
X5601Y33350D02*
Y33150D01*
Y33250D01*
X6200D01*
X6100Y33350D01*
X17780Y39130D02*
Y38730D01*
X17980Y38530D01*
X18180Y38730D01*
Y39130D01*
X18380Y38530D02*
Y39130D01*
X18680D01*
X18780Y39030D01*
Y38830D01*
X18680Y38730D01*
X18380D01*
X18580D02*
X18780Y38530D01*
X18980D02*
X19180D01*
X19080D01*
Y39130D01*
X18980Y39030D01*
X54950Y45230D02*
Y44630D01*
X55350D01*
X55950D02*
X55550D01*
X55950Y45030D01*
Y45130D01*
X55850Y45230D01*
X55650D01*
X55550Y45130D01*
X40254Y23600D02*
Y23300D01*
X40404D01*
X40454Y23350D01*
Y23550D01*
X40404Y23600D01*
X40254D01*
X40753D02*
X40554D01*
Y23450D01*
X40654Y23500D01*
X40704D01*
X40753Y23450D01*
Y23350D01*
X40704Y23300D01*
X40604D01*
X40554Y23350D01*
X55150Y32580D02*
Y32280D01*
X55300D01*
X55350Y32330D01*
Y32530D01*
X55300Y32580D01*
X55150D01*
X55650Y32280D02*
X55450D01*
X55650Y32480D01*
Y32530D01*
X55600Y32580D01*
X55500D01*
X55450Y32530D01*
X45250Y27350D02*
Y27550D01*
X45200Y27600D01*
X45100D01*
X45051Y27550D01*
Y27350D01*
X45100Y27300D01*
X45200D01*
X45150Y27400D02*
X45250Y27300D01*
X45200D02*
X45250Y27350D01*
X45350Y27300D02*
X45450D01*
X45400D01*
Y27600D01*
X45350Y27550D01*
X35880Y19040D02*
Y18540D01*
X35980Y18440D01*
X36180D01*
X36280Y18540D01*
Y19040D01*
X36480Y18440D02*
X36680D01*
X36580D01*
Y19040D01*
X36480Y18940D01*
X46121Y25600D02*
X46520D01*
X46320D01*
Y25000D01*
X46720D02*
Y25600D01*
X47020D01*
X47120Y25500D01*
Y25300D01*
X47020Y25200D01*
X46720D01*
X46920D02*
X47120Y25000D01*
X47320D02*
X47520D01*
X47420D01*
Y25600D01*
X47320Y25500D01*
X30450Y16230D02*
X30750D01*
Y16080D01*
X30700Y16030D01*
X30600D01*
X30550Y16080D01*
Y16230D01*
Y16130D02*
X30450Y16030D01*
Y15730D02*
Y15930D01*
X30650Y15730D01*
X30700D01*
X30750Y15780D01*
Y15880D01*
X30700Y15930D01*
Y15630D02*
X30750Y15580D01*
Y15480D01*
X30700Y15430D01*
X30500D01*
X30450Y15480D01*
Y15580D01*
X30500Y15630D01*
X30700D01*
X27801Y21920D02*
Y22220D01*
X27950D01*
X28000Y22170D01*
Y22070D01*
X27950Y22020D01*
X27801D01*
X27900D02*
X28000Y21920D01*
X28100D02*
X28200D01*
X28150D01*
Y22220D01*
X28100Y22170D01*
X28550Y22220D02*
X28450Y22170D01*
X28350Y22070D01*
Y21970D01*
X28400Y21920D01*
X28500D01*
X28550Y21970D01*
Y22020D01*
X28500Y22070D01*
X28350D01*
X27401Y36200D02*
X27700D01*
Y36050D01*
X27650Y36000D01*
X27550D01*
X27500Y36050D01*
Y36200D01*
Y36100D02*
X27401Y36000D01*
Y35900D02*
Y35800D01*
Y35850D01*
X27700D01*
X27650Y35900D01*
Y35650D02*
X27700Y35600D01*
Y35500D01*
X27650Y35450D01*
X27600D01*
X27550Y35500D01*
Y35550D01*
Y35500D01*
X27500Y35450D01*
X27450D01*
X27401Y35500D01*
Y35600D01*
X27450Y35650D01*
X27601Y39900D02*
Y40200D01*
X27750D01*
X27800Y40150D01*
Y40050D01*
X27750Y40000D01*
X27601D01*
X27700D02*
X27800Y39900D01*
X27900D02*
X28000D01*
X27950D01*
Y40200D01*
X27900Y40150D01*
X28150D02*
X28200Y40200D01*
X28300D01*
X28350Y40150D01*
Y39950D01*
X28300Y39900D01*
X28200D01*
X28150Y39950D01*
Y40150D01*
X26400Y39000D02*
Y39300D01*
X26550D01*
X26600Y39250D01*
Y39150D01*
X26550Y39100D01*
X26400D01*
X26500D02*
X26600Y39000D01*
X26700Y39050D02*
X26750Y39000D01*
X26850D01*
X26900Y39050D01*
Y39250D01*
X26850Y39300D01*
X26750D01*
X26700Y39250D01*
Y39200D01*
X26750Y39150D01*
X26900D01*
X25900Y39850D02*
Y40150D01*
X26050D01*
X26100Y40100D01*
Y40000D01*
X26050Y39950D01*
X25900D01*
X26000D02*
X26100Y39850D01*
X26400Y40150D02*
X26300Y40100D01*
X26200Y40000D01*
Y39900D01*
X26250Y39850D01*
X26350D01*
X26400Y39900D01*
Y39950D01*
X26350Y40000D01*
X26200D01*
X24750Y39000D02*
Y39300D01*
X24900D01*
X24950Y39250D01*
Y39150D01*
X24900Y39100D01*
X24750D01*
X24850D02*
X24950Y39000D01*
X25250Y39300D02*
X25050D01*
Y39150D01*
X25150Y39200D01*
X25200D01*
X25250Y39150D01*
Y39050D01*
X25200Y39000D01*
X25100D01*
X25050Y39050D01*
X37601Y22085D02*
X37900D01*
Y21935D01*
X37850Y21885D01*
X37750D01*
X37700Y21935D01*
Y22085D01*
Y21985D02*
X37601Y21885D01*
Y21635D02*
X37900D01*
X37750Y21785D01*
Y21585D01*
X31230Y23080D02*
X31280Y23130D01*
Y23230D01*
X31230Y23280D01*
X31030D01*
X30981Y23230D01*
Y23130D01*
X31030Y23080D01*
X30981Y22980D02*
Y22880D01*
Y22930D01*
X31280D01*
X31230Y22980D01*
X31280Y22730D02*
Y22530D01*
X31230D01*
X31030Y22730D01*
X30981D01*
X33400Y15000D02*
X33450Y15050D01*
Y15150D01*
X33400Y15200D01*
X33200D01*
X33150Y15150D01*
Y15050D01*
X33200Y15000D01*
X33150Y14900D02*
Y14800D01*
Y14850D01*
X33450D01*
X33400Y14900D01*
Y14650D02*
X33450Y14600D01*
Y14500D01*
X33400Y14450D01*
X33350D01*
X33300Y14500D01*
X33250Y14450D01*
X33200D01*
X33150Y14500D01*
Y14600D01*
X33200Y14650D01*
X33250D01*
X33300Y14600D01*
X33350Y14650D01*
X33400D01*
X33300Y14600D02*
Y14500D01*
X26000Y33400D02*
X25950Y33450D01*
X25850D01*
X25800Y33400D01*
Y33200D01*
X25850Y33150D01*
X25950D01*
X26000Y33200D01*
X26100Y33150D02*
X26200D01*
X26150D01*
Y33450D01*
X26100Y33400D01*
X26550Y33450D02*
X26450Y33400D01*
X26350Y33300D01*
Y33200D01*
X26400Y33150D01*
X26500D01*
X26550Y33200D01*
Y33250D01*
X26500Y33300D01*
X26350D01*
X33900Y22950D02*
X33950Y23000D01*
Y23100D01*
X33900Y23150D01*
X33700D01*
X33651Y23100D01*
Y23000D01*
X33700Y22950D01*
X33651Y22850D02*
Y22750D01*
Y22800D01*
X33950D01*
X33900Y22850D01*
X33950Y22400D02*
Y22600D01*
X33800D01*
X33850Y22500D01*
Y22450D01*
X33800Y22400D01*
X33700D01*
X33651Y22450D01*
Y22550D01*
X33700Y22600D01*
X25990Y36360D02*
X25940Y36410D01*
X25840D01*
X25791Y36360D01*
Y36160D01*
X25840Y36110D01*
X25940D01*
X25990Y36160D01*
X26090Y36110D02*
X26190D01*
X26140D01*
Y36410D01*
X26090Y36360D01*
X26340D02*
X26390Y36410D01*
X26490D01*
X26540Y36360D01*
Y36310D01*
X26490Y36260D01*
X26440D01*
X26490D01*
X26540Y36210D01*
Y36160D01*
X26490Y36110D01*
X26390D01*
X26340Y36160D01*
X37200Y21900D02*
X37250Y21950D01*
Y22050D01*
X37200Y22100D01*
X37000D01*
X36951Y22050D01*
Y21950D01*
X37000Y21900D01*
X36951Y21800D02*
Y21700D01*
Y21750D01*
X37250D01*
X37200Y21800D01*
Y21550D02*
X37250Y21500D01*
Y21400D01*
X37200Y21350D01*
X37000D01*
X36951Y21400D01*
Y21500D01*
X37000Y21550D01*
X37200D01*
X32440Y15780D02*
X32490Y15830D01*
Y15930D01*
X32440Y15980D01*
X32240D01*
X32190Y15930D01*
Y15830D01*
X32240Y15780D01*
X32490Y15680D02*
Y15480D01*
X32440D01*
X32240Y15680D01*
X32190D01*
X38250Y29100D02*
X38200Y29150D01*
X38100D01*
X38050Y29100D01*
Y28900D01*
X38100Y28850D01*
X38200D01*
X38250Y28900D01*
X38350Y29100D02*
X38400Y29150D01*
X38500D01*
X38550Y29100D01*
Y29050D01*
X38500Y29000D01*
X38550Y28950D01*
Y28900D01*
X38500Y28850D01*
X38400D01*
X38350Y28900D01*
Y28950D01*
X38400Y29000D01*
X38350Y29050D01*
Y29100D01*
X38400Y29000D02*
X38500D01*
X40400Y29100D02*
X40350Y29150D01*
X40250D01*
X40201Y29100D01*
Y28900D01*
X40250Y28850D01*
X40350D01*
X40400Y28900D01*
X40500D02*
X40550Y28850D01*
X40650D01*
X40700Y28900D01*
Y29100D01*
X40650Y29150D01*
X40550D01*
X40500Y29100D01*
Y29050D01*
X40550Y29000D01*
X40700D01*
X51030Y28240D02*
X50980Y28290D01*
X50880D01*
X50830Y28240D01*
Y28040D01*
X50880Y27990D01*
X50980D01*
X51030Y28040D01*
X51130Y27990D02*
X51230D01*
X51180D01*
Y28290D01*
X51130Y28240D01*
X51380Y27990D02*
X51480D01*
X51430D01*
Y28290D01*
X51380Y28240D01*
X29250Y21000D02*
X29200Y21050D01*
X29100D01*
X29051Y21000D01*
Y20800D01*
X29100Y20750D01*
X29200D01*
X29250Y20800D01*
X29350Y20750D02*
X29450D01*
X29400D01*
Y21050D01*
X29350Y21000D01*
X29800Y20750D02*
X29600D01*
X29800Y20950D01*
Y21000D01*
X29750Y21050D01*
X29650D01*
X29600Y21000D01*
X27000Y19700D02*
X26950Y19750D01*
X26850D01*
X26800Y19700D01*
Y19500D01*
X26850Y19450D01*
X26950D01*
X27000Y19500D01*
X27100Y19450D02*
X27200D01*
X27150D01*
Y19750D01*
X27100Y19700D01*
X27500Y19450D02*
Y19750D01*
X27350Y19600D01*
X27550D01*
X29210Y23300D02*
X29260Y23350D01*
Y23450D01*
X29210Y23500D01*
X29010D01*
X28960Y23450D01*
Y23350D01*
X29010Y23300D01*
X28960Y23200D02*
Y23100D01*
Y23150D01*
X29260D01*
X29210Y23200D01*
X29010Y22950D02*
X28960Y22900D01*
Y22800D01*
X29010Y22750D01*
X29210D01*
X29260Y22800D01*
Y22900D01*
X29210Y22950D01*
X29160D01*
X29110Y22900D01*
Y22750D01*
X33250Y25200D02*
X33300Y25250D01*
Y25350D01*
X33250Y25400D01*
X33050D01*
X33001Y25350D01*
Y25250D01*
X33050Y25200D01*
X33001Y24900D02*
Y25100D01*
X33200Y24900D01*
X33250D01*
X33300Y24950D01*
Y25050D01*
X33250Y25100D01*
X33001Y24650D02*
X33300D01*
X33150Y24800D01*
Y24600D01*
X32470Y13670D02*
X32420Y13720D01*
X32320D01*
X32271Y13670D01*
Y13470D01*
X32320Y13420D01*
X32420D01*
X32470Y13470D01*
X32770Y13420D02*
X32570D01*
X32770Y13620D01*
Y13670D01*
X32720Y13720D01*
X32620D01*
X32570Y13670D01*
X33070Y13720D02*
X32870D01*
Y13570D01*
X32970Y13620D01*
X33020D01*
X33070Y13570D01*
Y13470D01*
X33020Y13420D01*
X32920D01*
X32870Y13470D01*
X47330Y29900D02*
Y29500D01*
X47530D01*
X47596Y29567D01*
Y29833D01*
X47530Y29900D01*
X47330D01*
X47929Y29500D02*
Y29900D01*
X47730Y29700D01*
X47996D01*
X47621Y13990D02*
Y13390D01*
X47920D01*
X48020Y13490D01*
Y13890D01*
X47920Y13990D01*
X47621D01*
X48220Y13890D02*
X48320Y13990D01*
X48520D01*
X48620Y13890D01*
Y13790D01*
X48520Y13690D01*
X48620Y13590D01*
Y13490D01*
X48520Y13390D01*
X48320D01*
X48220Y13490D01*
Y13590D01*
X48320Y13690D01*
X48220Y13790D01*
Y13890D01*
X48320Y13690D02*
X48520D01*
X44300Y12160D02*
Y11560D01*
X44600D01*
X44700Y11660D01*
Y12060D01*
X44600Y12160D01*
X44300D01*
X44900Y11660D02*
X45000Y11560D01*
X45200D01*
X45300Y11660D01*
Y12060D01*
X45200Y12160D01*
X45000D01*
X44900Y12060D01*
Y11960D01*
X45000Y11860D01*
X45300D01*
X39550Y15800D02*
Y16000D01*
X39500Y16050D01*
X39400D01*
X39351Y16000D01*
Y15800D01*
X39400Y15750D01*
X39500D01*
X39450Y15850D02*
X39550Y15750D01*
X39500D02*
X39550Y15800D01*
X39850Y15750D02*
X39650D01*
X39850Y15950D01*
Y16000D01*
X39800Y16050D01*
X39700D01*
X39650Y16000D01*
X38150Y29500D02*
Y29800D01*
X38300D01*
X38350Y29750D01*
Y29650D01*
X38300Y29600D01*
X38150D01*
X38250D02*
X38350Y29500D01*
X38450D02*
X38550D01*
X38500D01*
Y29800D01*
X38450Y29750D01*
X43380Y29590D02*
X43680D01*
Y29440D01*
X43630Y29390D01*
X43530D01*
X43480Y29440D01*
Y29590D01*
Y29490D02*
X43380Y29390D01*
Y29090D02*
Y29290D01*
X43580Y29090D01*
X43630D01*
X43680Y29140D01*
Y29240D01*
X43630Y29290D01*
X45480Y28770D02*
Y29070D01*
X45630D01*
X45680Y29020D01*
Y28920D01*
X45630Y28870D01*
X45480D01*
X45580D02*
X45680Y28770D01*
X45780Y29020D02*
X45830Y29070D01*
X45930D01*
X45980Y29020D01*
Y28970D01*
X45930Y28920D01*
X45880D01*
X45930D01*
X45980Y28870D01*
Y28820D01*
X45930Y28770D01*
X45830D01*
X45780Y28820D01*
X40401Y28350D02*
X40700D01*
Y28200D01*
X40650Y28150D01*
X40550D01*
X40500Y28200D01*
Y28350D01*
Y28250D02*
X40401Y28150D01*
Y28050D02*
Y27950D01*
Y28000D01*
X40700D01*
X40650Y28050D01*
X40401Y27600D02*
Y27800D01*
X40600Y27600D01*
X40650D01*
X40700Y27650D01*
Y27750D01*
X40650Y27800D01*
X46150Y10600D02*
Y10900D01*
X46300D01*
X46350Y10850D01*
Y10750D01*
X46300Y10700D01*
X46150D01*
X46250D02*
X46350Y10600D01*
X46450Y10900D02*
X46650D01*
Y10850D01*
X46450Y10650D01*
Y10600D01*
X29300Y18950D02*
Y19250D01*
X29450D01*
X29500Y19200D01*
Y19100D01*
X29450Y19050D01*
X29300D01*
X29400D02*
X29500Y18950D01*
X29600Y19200D02*
X29650Y19250D01*
X29750D01*
X29800Y19200D01*
Y19150D01*
X29750Y19100D01*
X29800Y19050D01*
Y19000D01*
X29750Y18950D01*
X29650D01*
X29600Y19000D01*
Y19050D01*
X29650Y19100D01*
X29600Y19150D01*
Y19200D01*
X29650Y19100D02*
X29750D01*
X26900Y20200D02*
Y20500D01*
X27050D01*
X27100Y20450D01*
Y20350D01*
X27050Y20300D01*
X26900D01*
X27000D02*
X27100Y20200D01*
X27200D02*
X27300D01*
X27250D01*
Y20500D01*
X27200Y20450D01*
X27450Y20200D02*
X27550D01*
X27500D01*
Y20500D01*
X27450Y20450D01*
X47151Y9150D02*
Y9450D01*
X47300D01*
X47350Y9400D01*
Y9300D01*
X47300Y9250D01*
X47151D01*
X47250D02*
X47350Y9150D01*
X47450D02*
X47550D01*
X47500D01*
Y9450D01*
X47450Y9400D01*
X47850Y9150D02*
Y9450D01*
X47700Y9300D01*
X47900D01*
X44544Y10600D02*
Y10900D01*
X44694D01*
X44744Y10850D01*
Y10750D01*
X44694Y10700D01*
X44544D01*
X44644D02*
X44744Y10600D01*
X44844D02*
X44944D01*
X44894D01*
Y10900D01*
X44844Y10850D01*
X45094Y10900D02*
X45294D01*
Y10850D01*
X45094Y10650D01*
Y10600D01*
X43401Y9150D02*
Y9450D01*
X43550D01*
X43600Y9400D01*
Y9300D01*
X43550Y9250D01*
X43401D01*
X43500D02*
X43600Y9150D01*
X43700D02*
X43800D01*
X43750D01*
Y9450D01*
X43700Y9400D01*
X43950Y9200D02*
X44000Y9150D01*
X44100D01*
X44150Y9200D01*
Y9400D01*
X44100Y9450D01*
X44000D01*
X43950Y9400D01*
Y9350D01*
X44000Y9300D01*
X44150D01*
X30150Y25650D02*
X30450D01*
Y25500D01*
X30400Y25450D01*
X30300D01*
X30250Y25500D01*
Y25650D01*
Y25550D02*
X30150Y25450D01*
Y25350D02*
Y25250D01*
Y25300D01*
X30450D01*
X30400Y25350D01*
Y25100D02*
X30450Y25050D01*
Y24950D01*
X30400Y24900D01*
X30350D01*
X30300Y24950D01*
X30250Y24900D01*
X30200D01*
X30150Y24950D01*
Y25050D01*
X30200Y25100D01*
X30250D01*
X30300Y25050D01*
X30350Y25100D01*
X30400D01*
X30300Y25050D02*
Y24950D01*
X29541Y23500D02*
X29840D01*
Y23350D01*
X29790Y23300D01*
X29690D01*
X29640Y23350D01*
Y23500D01*
Y23400D02*
X29541Y23300D01*
Y23000D02*
Y23200D01*
X29740Y23000D01*
X29790D01*
X29840Y23050D01*
Y23150D01*
X29790Y23200D01*
X29541Y22900D02*
Y22800D01*
Y22850D01*
X29840D01*
X29790Y22900D01*
X32401Y25450D02*
X32700D01*
Y25300D01*
X32650Y25250D01*
X32550D01*
X32500Y25300D01*
Y25450D01*
Y25350D02*
X32401Y25250D01*
Y24950D02*
Y25150D01*
X32600Y24950D01*
X32650D01*
X32700Y25000D01*
Y25100D01*
X32650Y25150D01*
X32401Y24700D02*
X32700D01*
X32550Y24850D01*
Y24650D01*
X32201Y11500D02*
Y11800D01*
X32350D01*
X32400Y11750D01*
Y11650D01*
X32350Y11600D01*
X32201D01*
X32300D02*
X32400Y11500D01*
X32700D02*
X32500D01*
X32700Y11700D01*
Y11750D01*
X32650Y11800D01*
X32550D01*
X32500Y11750D01*
X33000Y11800D02*
X32800D01*
Y11650D01*
X32900Y11700D01*
X32950D01*
X33000Y11650D01*
Y11550D01*
X32950Y11500D01*
X32850D01*
X32800Y11550D01*
X31760Y23520D02*
X32060D01*
Y23370D01*
X32010Y23320D01*
X31910D01*
X31860Y23370D01*
Y23520D01*
Y23420D02*
X31760Y23320D01*
Y23020D02*
Y23220D01*
X31960Y23020D01*
X32010D01*
X32060Y23070D01*
Y23170D01*
X32010Y23220D01*
X32060Y22720D02*
X32010Y22820D01*
X31910Y22920D01*
X31810D01*
X31760Y22870D01*
Y22770D01*
X31810Y22720D01*
X31860D01*
X31910Y22770D01*
Y22920D01*
X33590Y41660D02*
X33490Y41760D01*
X33290D01*
X33191Y41660D01*
Y41260D01*
X33290Y41160D01*
X33490D01*
X33590Y41260D01*
X33790Y41160D02*
X33990D01*
X33890D01*
Y41760D01*
X33790Y41660D01*
X6630Y39530D02*
X6530Y39630D01*
X6330D01*
X6230Y39530D01*
Y39130D01*
X6330Y39030D01*
X6530D01*
X6630Y39130D01*
X7230Y39630D02*
X7030Y39530D01*
X6830Y39330D01*
Y39130D01*
X6930Y39030D01*
X7130D01*
X7230Y39130D01*
Y39230D01*
X7130Y39330D01*
X6830D01*
X33581Y48830D02*
X34181D01*
Y49130D01*
X34081Y49230D01*
X33681D01*
X33581Y49130D01*
Y48830D01*
X34181Y49430D02*
Y49630D01*
Y49530D01*
X33581D01*
X33681Y49430D01*
X37074Y18130D02*
Y17830D01*
X37224D01*
X37274Y17880D01*
Y18080D01*
X37224Y18130D01*
X37074D01*
X37374Y18080D02*
X37424Y18130D01*
X37524D01*
X37574Y18080D01*
Y18030D01*
X37524Y17980D01*
X37474D01*
X37524D01*
X37574Y17930D01*
Y17880D01*
X37524Y17830D01*
X37424D01*
X37374Y17880D01*
X37750Y25480D02*
Y25080D01*
X37950D01*
X38017Y25147D01*
Y25413D01*
X37950Y25480D01*
X37750D01*
X38417D02*
X38284Y25413D01*
X38150Y25280D01*
Y25147D01*
X38217Y25080D01*
X38350D01*
X38417Y25147D01*
Y25213D01*
X38350Y25280D01*
X38150D01*
X43351Y27650D02*
Y27350D01*
X43500D01*
X43550Y27400D01*
Y27600D01*
X43500Y27650D01*
X43351D01*
X43650D02*
X43850D01*
Y27600D01*
X43650Y27400D01*
Y27350D01*
X36750Y12050D02*
X36451D01*
Y11900D01*
X36500Y11850D01*
X36700D01*
X36750Y11900D01*
Y12050D01*
X36451Y11750D02*
Y11650D01*
Y11700D01*
X36750D01*
X36700Y11750D01*
Y11500D02*
X36750Y11450D01*
Y11350D01*
X36700Y11300D01*
X36500D01*
X36451Y11350D01*
Y11450D01*
X36500Y11500D01*
X36700D01*
X5700Y45650D02*
X5300D01*
Y45350D01*
X5500D01*
X5300D01*
Y45050D01*
X5900D02*
X6100D01*
X6000D01*
Y45650D01*
X5900Y45550D01*
X45830Y22550D02*
Y21950D01*
X46230D01*
X46430Y22450D02*
X46530Y22550D01*
X46730D01*
X46830Y22450D01*
Y22350D01*
X46730Y22250D01*
X46630D01*
X46730D01*
X46830Y22150D01*
Y22050D01*
X46730Y21950D01*
X46530D01*
X46430Y22050D01*
X41950Y28750D02*
Y29050D01*
X42100D01*
X42150Y29000D01*
Y28900D01*
X42100Y28850D01*
X41950D01*
X42050D02*
X42150Y28750D01*
X42250D02*
X42350D01*
X42300D01*
Y29050D01*
X42250Y29000D01*
X42700Y29050D02*
X42500D01*
Y28900D01*
X42600Y28950D01*
X42650D01*
X42700Y28900D01*
Y28800D01*
X42650Y28750D01*
X42550D01*
X42500Y28800D01*
X35800Y15050D02*
X36100D01*
Y14900D01*
X36050Y14850D01*
X35950D01*
X35900Y14900D01*
Y15050D01*
Y14950D02*
X35800Y14850D01*
Y14550D02*
Y14750D01*
X36000Y14550D01*
X36050D01*
X36100Y14600D01*
Y14700D01*
X36050Y14750D01*
X35800Y14250D02*
Y14450D01*
X36000Y14250D01*
X36050D01*
X36100Y14300D01*
Y14400D01*
X36050Y14450D01*
X35101Y13300D02*
X35400D01*
Y13150D01*
X35350Y13100D01*
X35250D01*
X35200Y13150D01*
Y13300D01*
Y13200D02*
X35101Y13100D01*
Y12800D02*
Y13000D01*
X35300Y12800D01*
X35350D01*
X35400Y12850D01*
Y12950D01*
X35350Y13000D01*
Y12700D02*
X35400Y12650D01*
Y12550D01*
X35350Y12500D01*
X35300D01*
X35250Y12550D01*
Y12600D01*
Y12550D01*
X35200Y12500D01*
X35150D01*
X35101Y12550D01*
Y12650D01*
X35150Y12700D01*
X51447Y16880D02*
X51347Y16980D01*
X51147D01*
X51048Y16880D01*
Y16480D01*
X51147Y16380D01*
X51347D01*
X51447Y16480D01*
X52047Y16380D02*
X51647D01*
X52047Y16780D01*
Y16880D01*
X51947Y16980D01*
X51747D01*
X51647Y16880D01*
X51770Y24890D02*
X51670Y24990D01*
X51470D01*
X51371Y24890D01*
Y24490D01*
X51470Y24390D01*
X51670D01*
X51770Y24490D01*
X51970Y24890D02*
X52070Y24990D01*
X52270D01*
X52370Y24890D01*
Y24790D01*
X52270Y24690D01*
X52170D01*
X52270D01*
X52370Y24590D01*
Y24490D01*
X52270Y24390D01*
X52070D01*
X51970Y24490D01*
X36651Y7918D02*
X36551Y7818D01*
Y7618D01*
X36651Y7519D01*
X37051D01*
X37150Y7618D01*
Y7818D01*
X37051Y7918D01*
X37150Y8418D02*
X36551D01*
X36851Y8118D01*
Y8518D01*
X45850Y8500D02*
X45750Y8600D01*
X45550D01*
X45451Y8500D01*
Y8100D01*
X45550Y8000D01*
X45750D01*
X45850Y8100D01*
X46450Y8600D02*
X46050D01*
Y8300D01*
X46250Y8400D01*
X46350D01*
X46450Y8300D01*
Y8100D01*
X46350Y8000D01*
X46150D01*
X46050Y8100D01*
X10851Y950D02*
X10751Y850D01*
Y650D01*
X10851Y550D01*
X11251D01*
X11351Y650D01*
Y850D01*
X11251Y950D01*
X11351Y1550D02*
Y1150D01*
X10951Y1550D01*
X10851D01*
X10751Y1450D01*
Y1250D01*
X10851Y1150D01*
Y1750D02*
X10751Y1850D01*
Y2050D01*
X10851Y2149D01*
X11251D01*
X11351Y2050D01*
Y1850D01*
X11251Y1750D01*
X10851D01*
X20950Y37110D02*
X20900Y37160D01*
X20800D01*
X20751Y37110D01*
Y36910D01*
X20800Y36860D01*
X20900D01*
X20950Y36910D01*
X21250Y36860D02*
X21050D01*
X21250Y37060D01*
Y37110D01*
X21200Y37160D01*
X21100D01*
X21050Y37110D01*
X21550Y37160D02*
X21450Y37110D01*
X21350Y37010D01*
Y36910D01*
X21400Y36860D01*
X21500D01*
X21550Y36910D01*
Y36960D01*
X21500Y37010D01*
X21350D01*
X20950Y34260D02*
X20900Y34310D01*
X20800D01*
X20751Y34260D01*
Y34060D01*
X20800Y34010D01*
X20900D01*
X20950Y34060D01*
X21250Y34010D02*
X21050D01*
X21250Y34210D01*
Y34260D01*
X21200Y34310D01*
X21100D01*
X21050Y34260D01*
X21350Y34310D02*
X21550D01*
Y34260D01*
X21350Y34060D01*
Y34010D01*
X39230Y47460D02*
Y46860D01*
X39630D01*
X39830D02*
X40030D01*
X39930D01*
Y47460D01*
X39830Y47360D01*
X12100Y33150D02*
Y33750D01*
X12300Y33550D01*
X12500Y33750D01*
Y33150D01*
X13000Y33750D02*
X12800D01*
X12700Y33650D01*
Y33250D01*
X12800Y33150D01*
X13000D01*
X13100Y33250D01*
Y33650D01*
X13000Y33750D01*
X13300D02*
Y33150D01*
X13600D01*
X13700Y33250D01*
Y33650D01*
X13600Y33750D01*
X13300D01*
X13900Y33150D02*
X14100D01*
X14000D01*
Y33750D01*
X13900Y33650D01*
X23101Y37650D02*
X23400D01*
Y37500D01*
X23350Y37450D01*
X23250D01*
X23200Y37500D01*
Y37650D01*
Y37550D02*
X23101Y37450D01*
Y37150D02*
Y37350D01*
X23300Y37150D01*
X23350D01*
X23400Y37200D01*
Y37300D01*
X23350Y37350D01*
X23400Y37050D02*
Y36850D01*
X23350D01*
X23150Y37050D01*
X23101D01*
Y34844D02*
X23400D01*
Y34694D01*
X23350Y34644D01*
X23250D01*
X23200Y34694D01*
Y34844D01*
Y34744D02*
X23101Y34644D01*
Y34344D02*
Y34544D01*
X23300Y34344D01*
X23350D01*
X23400Y34394D01*
Y34494D01*
X23350Y34544D01*
Y34244D02*
X23400Y34194D01*
Y34094D01*
X23350Y34044D01*
X23300D01*
X23250Y34094D01*
X23200Y34044D01*
X23150D01*
X23101Y34094D01*
Y34194D01*
X23150Y34244D01*
X23200D01*
X23250Y34194D01*
X23300Y34244D01*
X23350D01*
X23250Y34194D02*
Y34094D01*
X24701Y27700D02*
X25000D01*
Y27550D01*
X24950Y27500D01*
X24850D01*
X24800Y27550D01*
Y27700D01*
Y27600D02*
X24701Y27500D01*
Y27200D02*
Y27400D01*
X24900Y27200D01*
X24950D01*
X25000Y27250D01*
Y27350D01*
X24950Y27400D01*
X24750Y27100D02*
X24701Y27050D01*
Y26950D01*
X24750Y26900D01*
X24950D01*
X25000Y26950D01*
Y27050D01*
X24950Y27100D01*
X24900D01*
X24850Y27050D01*
Y26900D01*
X21500Y31650D02*
Y31950D01*
X21650D01*
X21700Y31900D01*
Y31800D01*
X21650Y31750D01*
X21500D01*
X21600D02*
X21700Y31650D01*
X21800Y31900D02*
X21850Y31950D01*
X21950D01*
X22000Y31900D01*
Y31850D01*
X21950Y31800D01*
X21900D01*
X21950D01*
X22000Y31750D01*
Y31700D01*
X21950Y31650D01*
X21850D01*
X21800Y31700D01*
X22100Y31900D02*
X22150Y31950D01*
X22250D01*
X22300Y31900D01*
Y31700D01*
X22250Y31650D01*
X22150D01*
X22100Y31700D01*
Y31900D01*
X25150Y20050D02*
Y20350D01*
X25300D01*
X25350Y20300D01*
Y20200D01*
X25300Y20150D01*
X25150D01*
X25250D02*
X25350Y20050D01*
X25450Y20300D02*
X25500Y20350D01*
X25600D01*
X25650Y20300D01*
Y20250D01*
X25600Y20200D01*
X25550D01*
X25600D01*
X25650Y20150D01*
Y20100D01*
X25600Y20050D01*
X25500D01*
X25450Y20100D01*
X25750Y20050D02*
X25850D01*
X25800D01*
Y20350D01*
X25750Y20300D01*
X24850Y22950D02*
X25050D01*
X24950D01*
Y22650D01*
X25150D02*
Y22950D01*
X25300D01*
X25350Y22900D01*
Y22800D01*
X25300Y22750D01*
X25150D01*
X25250D02*
X25350Y22650D01*
X25650D02*
X25450D01*
X25650Y22850D01*
Y22900D01*
X25600Y22950D01*
X25500D01*
X25450Y22900D01*
X21660Y27620D02*
X21327D01*
X21260Y27553D01*
Y27420D01*
X21327Y27353D01*
X21660D01*
X21260Y26954D02*
Y27220D01*
X21527Y26954D01*
X21594D01*
X21660Y27020D01*
Y27153D01*
X21594Y27220D01*
X51482Y23806D02*
X52148D01*
X51815Y24139D02*
Y23473D01*
X52856Y8418D02*
Y7752D01*
X53189Y8085D02*
X52523D01*
X51445Y14906D02*
X52111D01*
X51778Y15239D02*
Y14573D01*
X6374Y4618D02*
Y4284D01*
X6541Y4451D02*
X6208D01*
X43856Y8406D02*
Y7739D01*
X44189Y8072D02*
X43523D01*
D68*
X24013Y28313D02*
G03*
X24013Y28313I-49J0D01*
G01*
X30515Y17930D02*
G03*
X30515Y17930I-49J0D01*
G01*
X44128Y17638D02*
G03*
X44128Y17638I-49J0D01*
G01*
X49078Y19488D02*
G03*
X49078Y19488I-49J0D01*
G01*
D69*
X31003Y18855D02*
G03*
X31003Y18855I-118J0D01*
G01*
D70*
X35375Y32080D02*
G03*
X35375Y32080I-104J0D01*
G01*
X25647Y5410D02*
G03*
X25647Y5410I-36J0D01*
G01*
X5597Y42640D02*
G03*
X5597Y42640I-36J0D01*
G01*
X34550Y30340D02*
X54630D01*
X34550D02*
Y49870D01*
X54630D01*
Y30340D02*
Y49870D01*
X23770Y1540D02*
Y5120D01*
X35261Y1530D02*
Y5110D01*
X35250Y5120D02*
X35261Y5110D01*
X23770Y5120D02*
X35250D01*
X1690Y44480D02*
X5271D01*
X1681Y32990D02*
X5260D01*
X5271Y33000D01*
Y44480D01*
D71*
X23755Y23560D02*
G03*
X23755Y23560I-225J0D01*
G01*
X21916Y27880D02*
X23885D01*
X21916Y26620D02*
X23885D01*
Y27880D01*
X21916Y26620D02*
Y27880D01*
X45196Y29146D02*
Y29446D01*
X44696Y29146D02*
Y29446D01*
X44396Y29140D02*
Y29440D01*
X43896Y29140D02*
Y29440D01*
X50543Y27105D02*
Y27795D01*
X50858Y27105D02*
Y27795D01*
X36695Y24901D02*
X38506D01*
X36695Y23799D02*
X38506D01*
X36695Y24704D02*
Y24901D01*
X38506Y24704D02*
Y24901D01*
X36695Y23799D02*
Y23996D01*
X38506Y23799D02*
Y23996D01*
X38112Y24704D02*
X38506D01*
X38112Y23996D02*
X38506D01*
X38112Y24709D02*
Y24901D01*
Y23799D02*
Y23996D01*
X25605Y18754D02*
X26196D01*
Y18258D02*
Y18754D01*
X25605Y18258D02*
Y18754D01*
X25546Y18980D02*
X25664D01*
X25546Y18862D02*
X25664D01*
X25546D02*
X25605Y18980D01*
X25664Y18862D01*
X25605D02*
Y18980D01*
X24581Y18180D02*
X24701D01*
X24581Y17860D02*
X24701D01*
X25491Y19490D02*
X25610D01*
X25491Y19810D02*
X25610D01*
X23410Y23369D02*
X23530Y23489D01*
X23651Y23369D01*
X23340Y23680D02*
X23460Y23560D01*
X23340Y23440D02*
X23460Y23560D01*
X23530Y23631D02*
X23651Y23751D01*
X23410D02*
X23530Y23631D01*
X23601Y23560D02*
X23721Y23440D01*
X23601Y23560D02*
X23721Y23680D01*
X23201Y23150D02*
Y24550D01*
X25110Y23150D02*
Y24550D01*
X24141Y27240D02*
Y27360D01*
X24460Y27240D02*
Y27360D01*
X22956Y31640D02*
X23076D01*
X22956Y31960D02*
X23076D01*
X22901Y37100D02*
Y37400D01*
X22401Y37100D02*
Y37400D01*
X22901Y34250D02*
Y34550D01*
X22401Y34250D02*
Y34550D01*
X27850Y40350D02*
X28150D01*
X27850Y40850D02*
X28150D01*
X26444Y38300D02*
X26744D01*
X26444Y38800D02*
X26744D01*
X26051Y40350D02*
X26351D01*
X26051Y40850D02*
X26351D01*
X24850Y38300D02*
X25150D01*
X24850Y38800D02*
X25150D01*
X30756Y24143D02*
X31445D01*
X30756Y24457D02*
X31445D01*
X28913Y24270D02*
X29288D01*
X28913Y24130D02*
X29288D01*
X29860Y24140D02*
Y24260D01*
X29541Y24140D02*
Y24260D01*
X29620Y20163D02*
Y20537D01*
X29481Y20163D02*
Y20537D01*
X37590Y22775D02*
Y22895D01*
X37910Y22775D02*
Y22895D01*
X36863Y22920D02*
X37238D01*
X36863Y22780D02*
X37238D01*
X39595Y23749D02*
X41406D01*
X39595Y24851D02*
X41406D01*
X32580Y12813D02*
Y13187D01*
X32720Y12813D02*
Y13187D01*
X32450Y12050D02*
X32750D01*
X32450Y12550D02*
X32750D01*
X46101Y9900D02*
X46400D01*
X46101Y10400D02*
X46400D01*
X44744Y9900D02*
X45044D01*
X44744Y10400D02*
X45044D01*
X33656Y14857D02*
X34345D01*
X33656Y14543D02*
X34345D01*
X37368Y16399D02*
X39179D01*
X37368Y17501D02*
X39179D01*
Y16399D02*
Y16596D01*
X37368Y16399D02*
Y16596D01*
X39179Y17304D02*
Y17501D01*
X37368Y17304D02*
Y17501D01*
Y16596D02*
X37762D01*
X37368Y17304D02*
X37762D01*
Y16399D02*
Y16591D01*
Y17304D02*
Y17501D01*
X45423Y13150D02*
Y16891D01*
X40738Y13150D02*
Y16891D01*
X44400D02*
Y17599D01*
X43770Y16891D02*
X44400D01*
X43770D02*
Y17599D01*
X42825Y17206D02*
X43376D01*
X42825Y16891D02*
Y17206D01*
Y16891D02*
X43376D01*
Y17206D01*
X41801Y16891D02*
Y17599D01*
Y16891D02*
X42431D01*
Y17599D01*
X40738Y16891D02*
X45423D01*
X45266Y12993D02*
X45423Y13150D01*
X40738D02*
X40935Y12954D01*
X33613Y23970D02*
X33988D01*
X33613Y23830D02*
X33988D01*
X22008Y32320D02*
Y33580D01*
X21693Y32320D02*
Y33580D01*
X22008Y35170D02*
Y36430D01*
X21693Y35170D02*
Y36430D01*
X27160Y35790D02*
Y35910D01*
X26841Y35790D02*
Y35910D01*
X28140Y21340D02*
X28261D01*
X28140Y21660D02*
X28261D01*
X30141Y24140D02*
Y24260D01*
X30461Y24140D02*
Y24260D01*
X32963Y23970D02*
X33338D01*
X32963Y23830D02*
X33338D01*
X32710Y23840D02*
Y23960D01*
X32390Y23840D02*
Y23960D01*
X44750Y9050D02*
X45051D01*
X44750Y9550D02*
X45051D01*
X46150Y9050D02*
X46451D01*
X46150Y9550D02*
X46451D01*
X32060Y24410D02*
Y24530D01*
X31741Y24410D02*
Y24530D01*
X31613Y15730D02*
X31988D01*
X31613Y15870D02*
X31988D01*
X31311Y15740D02*
Y15860D01*
X30991Y15740D02*
Y15860D01*
X50373Y15000D02*
Y18741D01*
X45688Y15000D02*
Y18741D01*
X49350D02*
Y19449D01*
X48720Y18741D02*
X49350D01*
X48720D02*
Y19449D01*
X47775Y19056D02*
X48326D01*
X47775Y18741D02*
Y19056D01*
Y18741D02*
X48326D01*
Y19056D01*
X46751Y18741D02*
Y19449D01*
Y18741D02*
X47381D01*
Y19449D01*
X45688Y18741D02*
X50373D01*
X50216Y14843D02*
X50373Y15000D01*
X45688D02*
X45885Y14804D01*
X36440Y14590D02*
Y14710D01*
X36760Y14590D02*
Y14710D01*
X35640Y12890D02*
Y13010D01*
X35961Y12890D02*
Y13010D01*
X40940Y27940D02*
Y28060D01*
X41260Y27940D02*
Y28060D01*
X42241Y28240D02*
X42361D01*
X42241Y28560D02*
X42361D01*
X42144Y27315D02*
Y27985D01*
X42223Y27315D02*
Y27985D01*
X41780D02*
X42921D01*
X41780Y27315D02*
X42920D01*
X42183D02*
Y27985D01*
X41662Y27315D02*
X41780D01*
X41662D02*
X41780Y27374D01*
X41662Y27315D02*
X41780Y27256D01*
Y27374D01*
X41662Y27256D02*
Y27374D01*
X36266Y13257D02*
X36935D01*
X36266Y13178D02*
X36935D01*
Y12479D02*
Y13621D01*
X36266Y12480D02*
Y13621D01*
Y13217D02*
X36935D01*
X36266Y13621D02*
Y13739D01*
X36325Y13621D01*
X36207D02*
X36266Y13739D01*
X36207Y13621D02*
X36325D01*
X36207Y13739D02*
X36325D01*
X26043Y36670D02*
Y37930D01*
X26358Y36670D02*
Y37930D01*
X26043Y33720D02*
Y34980D01*
X26358Y33720D02*
Y34980D01*
X28321Y19463D02*
Y19837D01*
X28180Y19463D02*
Y19837D01*
X28191Y20190D02*
X28310D01*
X28191Y20510D02*
X28310D01*
X29490Y19810D02*
X29611D01*
X29490Y19490D02*
X29611D01*
X39341Y29490D02*
X39460D01*
X39341Y29810D02*
X39460D01*
X46073Y29315D02*
Y29985D01*
X46152Y29315D02*
Y29985D01*
X45709D02*
X46851D01*
X45709Y29315D02*
X46850D01*
X46112D02*
Y29985D01*
X45591Y29315D02*
X45709D01*
X45591D02*
X45709Y29374D01*
X45591Y29315D02*
X45709Y29256D01*
Y29374D01*
X45591Y29256D02*
Y29374D01*
X38813Y28630D02*
X39188D01*
X38813Y28770D02*
X39188D01*
X39613Y28630D02*
X39988D01*
X39613Y28770D02*
X39988D01*
D72*
X40162Y31348D02*
G03*
X40162Y31348I-197J0D01*
G01*
D73*
X41575Y28122D02*
G03*
X41575Y28122I-20J0D01*
G01*
X37093Y13845D02*
G03*
X37093Y13845I-20J0D01*
G01*
X45504Y30122D02*
G03*
X45504Y30122I-20J0D01*
G01*
D74*
X35610Y18461D02*
Y21139D01*
X30491Y18461D02*
Y21139D01*
X35610D01*
X30491Y18461D02*
X35610D01*
X39605Y23768D02*
Y23837D01*
X41396Y24763D02*
Y24832D01*
X39605Y23768D02*
X41288D01*
X39605Y24832D02*
X41396D01*
Y23768D02*
Y23837D01*
X39605Y24763D02*
Y24832D01*
D75*
X23201Y24550D02*
X23321D01*
X24005Y24560D02*
X24311D01*
X24971Y24550D02*
X25110D01*
X24625Y23150D02*
X25110D01*
X23201D02*
X23670D01*
X37701Y12150D02*
X39000D01*
Y14050D01*
Y12150D02*
X39100Y12050D01*
X37201Y13250D02*
X37701D01*
Y14050D01*
Y12050D02*
Y12250D01*
X37601Y12050D02*
X37701Y12250D01*
Y14050D01*
X37201Y12050D02*
Y14050D01*
Y12050D02*
X39100D01*
Y14050D01*
X37701Y15950D02*
X39000D01*
Y14050D02*
Y15950D01*
X39100Y16050D01*
X37201Y14850D02*
X37701D01*
Y14050D02*
Y14850D01*
Y15850D02*
Y16050D01*
X37601D02*
X37701Y15850D01*
Y14050D02*
Y15850D01*
X37201Y14050D02*
Y16050D01*
X39100D01*
Y14050D02*
Y16050D01*
X55251Y27950D02*
Y29950D01*
Y27950D02*
X56866D01*
Y30235D01*
X56651Y28150D02*
Y29950D01*
Y28150D02*
X56750Y27950D01*
X56651D02*
Y28150D01*
Y29150D02*
Y29950D01*
Y29150D02*
X56866D01*
X55251Y27950D02*
X55350Y28050D01*
Y29950D01*
Y28050D02*
X56651D01*
X55251Y29950D02*
Y31950D01*
X56866D01*
Y30235D02*
Y31950D01*
X56651Y29950D02*
Y31750D01*
X56750Y31950D01*
X56651Y31750D02*
Y31950D01*
Y29950D02*
Y30750D01*
X56866D01*
X55251Y31950D02*
X55350Y31850D01*
Y29950D02*
Y31850D01*
X56651D01*
X6164Y3112D02*
Y3860D01*
X10337Y3112D02*
Y4687D01*
X6164Y1340D02*
Y2088D01*
X10337Y513D02*
Y2088D01*
X6991Y4687D02*
X10337D01*
X6164Y3860D02*
X6991Y4687D01*
Y513D02*
X10337D01*
X6164Y1340D02*
X6991Y513D01*
D76*
X38309Y24803D02*
D03*
Y23897D02*
D03*
X37565Y16497D02*
D03*
Y17403D02*
D03*
D77*
X59159Y19959D02*
D03*
Y21141D02*
D03*
X59122Y11059D02*
D03*
Y12241D02*
D03*
D78*
X59159Y20550D02*
D03*
X59122Y11650D02*
D03*
D79*
X41209Y23813D02*
D03*
Y24787D02*
D03*
D80*
X49010Y741D02*
D03*
X50191D02*
D03*
X40010Y728D02*
D03*
X41191D02*
D03*
D81*
X49601Y741D02*
D03*
X40601Y728D02*
D03*
D82*
X33821Y8767D02*
D03*
X31021Y8817D02*
D03*
D83*
X35155Y8772D02*
D03*
X32355Y8822D02*
D03*
M02*
