G04 Layer_Color=16711935*
%FSLAX25Y25*%
%MOIN*%
G70*
G01*
G75*
G36*
X242534Y167962D02*
X244914Y167489D01*
X247236Y166784D01*
X249478Y165856D01*
X251619Y164711D01*
X253637Y163363D01*
X255512Y161824D01*
X257229Y160108D01*
X258768Y158231D01*
X260116Y156214D01*
X261261Y154073D01*
X262189Y151831D01*
X262894Y149509D01*
X263367Y147129D01*
X263605Y144713D01*
Y142500D01*
X263605Y142500D01*
X263605D01*
Y141287D01*
X263367Y138871D01*
X262894Y136491D01*
X262189Y134169D01*
X261261Y131927D01*
X260116Y129786D01*
X258768Y127769D01*
X257229Y125892D01*
X255512Y124176D01*
X253637Y122637D01*
X251619Y121289D01*
X249478Y120144D01*
X247236Y119216D01*
X244914Y118511D01*
X242534Y118038D01*
X240118Y117800D01*
X236892D01*
X234476Y118038D01*
X232096Y118511D01*
X229774Y119216D01*
X227532Y120144D01*
X225391Y121289D01*
X223374Y122637D01*
X221498Y124176D01*
X219781Y125892D01*
X218242Y127769D01*
X216894Y129786D01*
X215750Y131927D01*
X214821Y134169D01*
X214116Y136491D01*
X213643Y138871D01*
X213405Y141287D01*
Y142700D01*
X213405Y142700D01*
X213405Y142700D01*
Y143953D01*
X213651Y146446D01*
X214139Y148904D01*
X214867Y151301D01*
X215826Y153616D01*
X217006Y155825D01*
X218398Y157909D01*
X219988Y159845D01*
X221760Y161617D01*
X223696Y163207D01*
X225780Y164599D01*
X227989Y165779D01*
X230304Y166738D01*
X232701Y167466D01*
X235159Y167954D01*
X237652Y168200D01*
X240118D01*
X242534Y167962D01*
D02*
G37*
G36*
X317834Y404262D02*
X320214Y403789D01*
X322536Y403084D01*
X324778Y402155D01*
X326919Y401011D01*
X328937Y399663D01*
X330813Y398124D01*
X332529Y396408D01*
X334068Y394531D01*
X335416Y392514D01*
X336561Y390373D01*
X337489Y388131D01*
X338194Y385809D01*
X338667Y383429D01*
X338905Y381013D01*
Y378800D01*
X338905Y378800D01*
X338905D01*
Y377587D01*
X338667Y375171D01*
X338194Y372791D01*
X337489Y370469D01*
X336561Y368227D01*
X335416Y366086D01*
X334068Y364069D01*
X332529Y362193D01*
X330813Y360476D01*
X328937Y358937D01*
X326919Y357589D01*
X324778Y356445D01*
X322536Y355516D01*
X320214Y354811D01*
X317834Y354338D01*
X315418Y354100D01*
X312192D01*
X309776Y354338D01*
X307396Y354811D01*
X305074Y355516D01*
X302832Y356445D01*
X300691Y357589D01*
X298674Y358937D01*
X296797Y360476D01*
X295081Y362193D01*
X293542Y364069D01*
X292194Y366086D01*
X291050Y368227D01*
X290121Y370469D01*
X289416Y372791D01*
X288943Y375171D01*
X288705Y377587D01*
Y379000D01*
X288705Y379000D01*
X288705Y379000D01*
Y380253D01*
X288951Y382746D01*
X289439Y385204D01*
X290167Y387601D01*
X291125Y389916D01*
X292306Y392125D01*
X293699Y394209D01*
X295288Y396145D01*
X297060Y397917D01*
X298996Y399506D01*
X301080Y400899D01*
X303289Y402079D01*
X305604Y403038D01*
X308001Y403766D01*
X310459Y404254D01*
X312952Y404500D01*
X315418D01*
X317834Y404262D01*
D02*
G37*
M02*
